<?xml version="1.0" encoding="UTF-8" standalone="no"?>
<!DOCTYPE svg PUBLIC "-//W3C//DTD SVG 1.1//EN"
 "http://www.w3.org/Graphics/SVG/1.1/DTD/svg11.dtd">
<!-- Generated by graphviz version 2.40.1 (20161225.0304)
 -->
<!-- Title: apt&#45;pkg/acquire&#45;method.h Pages: 1 -->
<svg width="867pt" height="84pt"
 viewBox="0.00 0.00 866.50 84.00" xmlns="http://www.w3.org/2000/svg" xmlns:xlink="http://www.w3.org/1999/xlink">
<g id="graph0" class="graph" transform="scale(1 1) rotate(0) translate(4 80)">
<title>apt&#45;pkg/acquire&#45;method.h</title>
<polygon fill="#ffffff" stroke="transparent" points="-4,4 -4,-80 862.5,-80 862.5,4 -4,4"/>
<!-- Node0 -->
<g id="node1" class="node">
<title>Node0</title>
<polygon fill="#bfbfbf" stroke="#000000" points="330,-56.5 330,-75.5 473,-75.5 473,-56.5 330,-56.5"/>
<text text-anchor="middle" x="401.5" y="-63.5" font-family="Helvetica,sans-Serif" font-size="10.00" fill="#000000">apt&#45;pkg/acquire&#45;method.h</text>
</g>
<!-- Node1 -->
<g id="node2" class="node">
<title>Node1</title>
<polygon fill="#ffffff" stroke="#bfbfbf" points="0,-.5 0,-19.5 101,-19.5 101,-.5 0,-.5"/>
<text text-anchor="middle" x="50.5" y="-7.5" font-family="Helvetica,sans-Serif" font-size="10.00" fill="#000000">apt&#45;pkg/hashes.h</text>
</g>
<!-- Node0&#45;&gt;Node1 -->
<g id="edge1" class="edge">
<title>Node0&#45;&gt;Node1</title>
<path fill="none" stroke="#191970" d="M340.1636,-56.4569C283.4989,-47.6059 196.6863,-33.9583 111.3603,-20.1295"/>
<polygon fill="#191970" stroke="#191970" points="111.6656,-16.6333 101.2341,-18.4863 110.5443,-23.543 111.6656,-16.6333"/>
</g>
<!-- Node2 -->
<g id="node3" class="node">
<title>Node2</title>
<polygon fill="#ffffff" stroke="#bfbfbf" points="119.5,-.5 119.5,-19.5 221.5,-19.5 221.5,-.5 119.5,-.5"/>
<text text-anchor="middle" x="170.5" y="-7.5" font-family="Helvetica,sans-Serif" font-size="10.00" fill="#000000">apt&#45;pkg/macros.h</text>
</g>
<!-- Node0&#45;&gt;Node2 -->
<g id="edge2" class="edge">
<title>Node0&#45;&gt;Node2</title>
<path fill="none" stroke="#191970" d="M362.0522,-56.4369C322.6844,-46.8932 262.0966,-32.2052 219.6292,-21.9101"/>
<polygon fill="#191970" stroke="#191970" points="220.3283,-18.4783 209.7851,-19.5237 218.679,-25.2812 220.3283,-18.4783"/>
</g>
<!-- Node3 -->
<g id="node4" class="node">
<title>Node3</title>
<polygon fill="#ffffff" stroke="#bfbfbf" points="239.5,-.5 239.5,-19.5 295.5,-19.5 295.5,-.5 239.5,-.5"/>
<text text-anchor="middle" x="267.5" y="-7.5" font-family="Helvetica,sans-Serif" font-size="10.00" fill="#000000">stdarg.h</text>
</g>
<!-- Node0&#45;&gt;Node3 -->
<g id="edge3" class="edge">
<title>Node0&#45;&gt;Node3</title>
<path fill="none" stroke="#191970" d="M378.4646,-56.3733C356.7612,-47.3032 324.0382,-33.6279 299.745,-23.4755"/>
<polygon fill="#191970" stroke="#191970" points="300.8111,-20.1278 290.2348,-19.5011 298.1119,-26.5865 300.8111,-20.1278"/>
</g>
<!-- Node4 -->
<g id="node5" class="node">
<title>Node4</title>
<polygon fill="#ffffff" stroke="#bfbfbf" points="313.5,-.5 313.5,-19.5 361.5,-19.5 361.5,-.5 313.5,-.5"/>
<text text-anchor="middle" x="337.5" y="-7.5" font-family="Helvetica,sans-Serif" font-size="10.00" fill="#000000">time.h</text>
</g>
<!-- Node0&#45;&gt;Node4 -->
<g id="edge4" class="edge">
<title>Node0&#45;&gt;Node4</title>
<path fill="none" stroke="#191970" d="M390.3521,-56.2455C380.9913,-48.0549 367.4142,-36.1749 356.3651,-26.5069"/>
<polygon fill="#191970" stroke="#191970" points="358.3508,-23.5937 348.5202,-19.6427 353.7412,-28.8618 358.3508,-23.5937"/>
</g>
<!-- Node5 -->
<g id="node6" class="node">
<title>Node5</title>
<polygon fill="#ffffff" stroke="#bfbfbf" points="379.5,-.5 379.5,-19.5 423.5,-19.5 423.5,-.5 379.5,-.5"/>
<text text-anchor="middle" x="401.5" y="-7.5" font-family="Helvetica,sans-Serif" font-size="10.00" fill="#000000">string</text>
</g>
<!-- Node0&#45;&gt;Node5 -->
<g id="edge5" class="edge">
<title>Node0&#45;&gt;Node5</title>
<path fill="none" stroke="#191970" d="M401.5,-56.2455C401.5,-48.9382 401.5,-38.6944 401.5,-29.7046"/>
<polygon fill="#191970" stroke="#191970" points="405.0001,-29.6426 401.5,-19.6427 398.0001,-29.6427 405.0001,-29.6426"/>
</g>
<!-- Node6 -->
<g id="node7" class="node">
<title>Node6</title>
<polygon fill="#ffffff" stroke="#bfbfbf" points="442,-.5 442,-19.5 535,-19.5 535,-.5 442,-.5"/>
<text text-anchor="middle" x="488.5" y="-7.5" font-family="Helvetica,sans-Serif" font-size="10.00" fill="#000000">unordered_map</text>
</g>
<!-- Node0&#45;&gt;Node6 -->
<g id="edge6" class="edge">
<title>Node0&#45;&gt;Node6</title>
<path fill="none" stroke="#191970" d="M416.6542,-56.2455C430.0027,-47.6534 449.6586,-35.0014 465.0383,-25.1018"/>
<polygon fill="#191970" stroke="#191970" points="467.0051,-27.9982 473.5194,-19.6427 463.2164,-22.1121 467.0051,-27.9982"/>
</g>
<!-- Node7 -->
<g id="node8" class="node">
<title>Node7</title>
<polygon fill="#ffffff" stroke="#bfbfbf" points="553,-.5 553,-19.5 600,-19.5 600,-.5 553,-.5"/>
<text text-anchor="middle" x="576.5" y="-7.5" font-family="Helvetica,sans-Serif" font-size="10.00" fill="#000000">vector</text>
</g>
<!-- Node0&#45;&gt;Node7 -->
<g id="edge7" class="edge">
<title>Node0&#45;&gt;Node7</title>
<path fill="none" stroke="#191970" d="M431.5836,-56.3733C462.6234,-46.4405 510.9222,-30.9849 543.1208,-20.6813"/>
<polygon fill="#191970" stroke="#191970" points="544.5094,-23.9119 552.9669,-17.5306 542.3759,-17.2449 544.5094,-23.9119"/>
</g>
<!-- Node8 -->
<g id="node9" class="node">
<title>Node8</title>
<polygon fill="#ffffff" stroke="#bfbfbf" points="618.5,-.5 618.5,-19.5 748.5,-19.5 748.5,-.5 618.5,-.5"/>
<text text-anchor="middle" x="683.5" y="-7.5" font-family="Helvetica,sans-Serif" font-size="10.00" fill="#000000">apt&#45;pkg/configuration.h</text>
</g>
<!-- Node0&#45;&gt;Node8 -->
<g id="edge8" class="edge">
<title>Node0&#45;&gt;Node8</title>
<path fill="none" stroke="#191970" d="M449.6571,-56.4369C498.3248,-46.7724 573.5575,-31.8326 625.4821,-21.5213"/>
<polygon fill="#191970" stroke="#191970" points="626.4148,-24.9045 635.5415,-19.5237 625.0513,-18.0386 626.4148,-24.9045"/>
</g>
<!-- Node9 -->
<g id="node10" class="node">
<title>Node9</title>
<polygon fill="#ffffff" stroke="#bfbfbf" points="766.5,-.5 766.5,-19.5 858.5,-19.5 858.5,-.5 766.5,-.5"/>
<text text-anchor="middle" x="812.5" y="-7.5" font-family="Helvetica,sans-Serif" font-size="10.00" fill="#000000">apt&#45;pkg/strutl.h</text>
</g>
<!-- Node0&#45;&gt;Node9 -->
<g id="edge9" class="edge">
<title>Node0&#45;&gt;Node9</title>
<path fill="none" stroke="#191970" d="M473.25,-57.8258C543.0061,-49.629 652.1942,-36.1403 756.262,-20.1318"/>
<polygon fill="#191970" stroke="#191970" points="756.9691,-23.5641 766.3156,-18.5748 755.8977,-16.6466 756.9691,-23.5641"/>
</g>
</g>
</svg>
