<?xml version="1.0" encoding="UTF-8" standalone="no"?>
<!DOCTYPE svg PUBLIC "-//W3C//DTD SVG 1.1//EN"
 "http://www.w3.org/Graphics/SVG/1.1/DTD/svg11.dtd">
<!-- Generated by graphviz version 2.40.1 (20161225.0304)
 -->
<!-- Title: apt&#45;pkg/acquire.h Pages: 1 -->
<!--zoomable 308 -->
<svg id="main" version="1.1" xmlns="http://www.w3.org/2000/svg" xmlns:xlink="http://www.w3.org/1999/xlink" xml:space="preserve" onload="init(evt)">
<style type="text/css"><![CDATA[
.edge:hover path { stroke: red; }
.edge:hover polygon { stroke: red; fill: red; }
]]></style>
<script type="text/javascript"><![CDATA[
var edges = document.getElementsByTagName('g');
if (edges && edges.length) {
  for (var i=0;i<edges.length;i++) {
    if (edges[i].id.substr(0,4)=='edge') {
      edges[i].setAttribute('class','edge');
    }
  }
}
]]></script>
        <defs>
                <circle id="rim" cx="0" cy="0" r="7"/>
                <circle id="rim2" cx="0" cy="0" r="3.5"/>
                <g id="zoomPlus">
                        <use xlink:href="#rim" fill="#404040">
                                <set attributeName="fill" to="#808080" begin="zoomplus.mouseover" end="zoomplus.mouseout"/>
                        </use>
                        <path d="M-4,0h8M0,-4v8" fill="none" stroke="white" stroke-width="1.5" pointer-events="none"/>
                </g>
                <g id="zoomMin">
                        <use xlink:href="#rim" fill="#404040">
                                <set attributeName="fill" to="#808080" begin="zoomminus.mouseover" end="zoomminus.mouseout"/>
                        </use>
                        <path d="M-4,0h8" fill="none" stroke="white" stroke-width="1.5" pointer-events="none"/>
                </g>
                <g id="dirArrow">
                        <path fill="none" stroke="white" stroke-width="1.5" d="M0,-3.0v7 M-2.5,-0.5L0,-3.0L2.5,-0.5"/>
                </g>
               <g id="resetDef">
                       <use xlink:href="#rim2" fill="#404040">
                               <set attributeName="fill" to="#808080" begin="reset.mouseover" end="reset.mouseout"/>
                       </use>
               </g>
        </defs>

<script type="text/javascript">
var viewWidth = 609;
var viewHeight = 308;
var sectionId = 'dynsection-1';
</script>
<script xlink:href="svgpan.js"/>
<svg id="graph" class="graph">
<g id="viewport">
<title>apt&#45;pkg/acquire.h</title>
<polygon fill="#ffffff" stroke="transparent" points="-4,4 -4,-304 604.5,-304 604.5,4 -4,4"/>
<!-- Node10 -->
<g id="node1" class="node">
<title>Node10</title>
<polygon fill="#bfbfbf" stroke="#000000" points="214,-280.5 214,-299.5 316,-299.5 316,-280.5 214,-280.5"/>
<text text-anchor="middle" x="265" y="-287.5" font-family="Helvetica,sans-Serif" font-size="10.00" fill="#000000">apt&#45;pkg/acquire.h</text>
</g>
<!-- Node11 -->
<g id="node2" class="node">
<title>Node11</title>
<g id="a_node2"><a xlink:href="acquire-item_8h.xhtml" target="_top" xlink:title="apt&#45;pkg/acquire&#45;item.h">
<polygon fill="#ffffff" stroke="#000000" points="0,-224.5 0,-243.5 128,-243.5 128,-224.5 0,-224.5"/>
<text text-anchor="middle" x="64" y="-231.5" font-family="Helvetica,sans-Serif" font-size="10.00" fill="#000000">apt&#45;pkg/acquire&#45;item.h</text>
</a>
</g>
</g>
<!-- Node10&#45;&gt;Node11 -->
<g id="edge1" class="edge">
<title>Node10&#45;&gt;Node11</title>
<path fill="none" stroke="#191970" d="M220.4506,-277.5882C183.5216,-267.2996 131.7998,-252.8895 98.1022,-243.5011"/>
<polygon fill="#191970" stroke="#191970" points="219.8744,-281.0609 230.4469,-280.3733 221.7531,-274.3177 219.8744,-281.0609"/>
</g>
<!-- Node12 -->
<g id="node3" class="node">
<title>Node12</title>
<g id="a_node3"><a xlink:href="acquire-worker_8h.xhtml" target="_top" xlink:title="apt&#45;pkg/acquire&#45;worker.h">
<polygon fill="#ffffff" stroke="#000000" points="146.5,-224.5 146.5,-243.5 285.5,-243.5 285.5,-224.5 146.5,-224.5"/>
<text text-anchor="middle" x="216" y="-231.5" font-family="Helvetica,sans-Serif" font-size="10.00" fill="#000000">apt&#45;pkg/acquire&#45;worker.h</text>
</a>
</g>
</g>
<!-- Node10&#45;&gt;Node12 -->
<g id="edge2" class="edge">
<title>Node10&#45;&gt;Node12</title>
<path fill="none" stroke="#191970" d="M249.6878,-272.5004C241.3553,-262.9775 231.3647,-251.5596 224.4373,-243.6427"/>
<polygon fill="#191970" stroke="#191970" points="247.2457,-275.0245 256.4649,-280.2455 252.5138,-270.415 247.2457,-275.0245"/>
</g>
<!-- Node13 -->
<g id="node4" class="node">
<title>Node13</title>
<g id="a_node4"><a xlink:href="algorithms_8h_source.xhtml" target="_top" xlink:title="apt&#45;pkg/algorithms.h">
<polygon fill="#ffffff" stroke="#000000" points="254.5,-.5 254.5,-19.5 373.5,-19.5 373.5,-.5 254.5,-.5"/>
<text text-anchor="middle" x="314" y="-7.5" font-family="Helvetica,sans-Serif" font-size="10.00" fill="#000000">apt&#45;pkg/algorithms.h</text>
</a>
</g>
</g>
<!-- Node10&#45;&gt;Node13 -->
<g id="edge3" class="edge">
<title>Node10&#45;&gt;Node13</title>
<path fill="none" stroke="#191970" d="M278.3581,-272.0814C292.867,-250.8015 314,-213.6819 314,-178 314,-178 314,-178 314,-122 314,-84.0833 314,-38.9462 314,-19.5884"/>
<polygon fill="#191970" stroke="#191970" points="275.3671,-270.2488 272.442,-280.4319 281.0789,-274.2954 275.3671,-270.2488"/>
</g>
<!-- Node14 -->
<g id="node5" class="node">
<title>Node14</title>
<g id="a_node5"><a xlink:href="cachefile_8h_source.xhtml" target="_top" xlink:title="apt&#45;pkg/cachefile.h">
<polygon fill="#ffffff" stroke="#000000" points="347,-224.5 347,-243.5 457,-243.5 457,-224.5 347,-224.5"/>
<text text-anchor="middle" x="402" y="-231.5" font-family="Helvetica,sans-Serif" font-size="10.00" fill="#000000">apt&#45;pkg/cachefile.h</text>
</a>
</g>
</g>
<!-- Node10&#45;&gt;Node14 -->
<g id="edge4" class="edge">
<title>Node10&#45;&gt;Node14</title>
<path fill="none" stroke="#191970" d="M297.9806,-276.5189C322.9311,-266.3201 356.5734,-252.5685 378.7562,-243.5011"/>
<polygon fill="#191970" stroke="#191970" points="296.4834,-273.3497 288.5511,-280.3733 299.132,-279.8293 296.4834,-273.3497"/>
</g>
<!-- Node15 -->
<g id="node6" class="node">
<title>Node15</title>
<g id="a_node6"><a xlink:href="cacheset_8h.xhtml" target="_top" xlink:title="apt&#45;pkg/cacheset.h">
<polygon fill="#ffffff" stroke="#000000" points="352,-168.5 352,-187.5 462,-187.5 462,-168.5 352,-168.5"/>
<text text-anchor="middle" x="407" y="-175.5" font-family="Helvetica,sans-Serif" font-size="10.00" fill="#000000">apt&#45;pkg/cacheset.h</text>
</a>
</g>
</g>
<!-- Node14&#45;&gt;Node15 -->
<g id="edge5" class="edge">
<title>Node14&#45;&gt;Node15</title>
<path fill="none" stroke="#191970" d="M403.7717,-214.1575C404.5754,-205.155 405.4893,-194.9199 406.139,-187.6427"/>
<polygon fill="#191970" stroke="#191970" points="400.2742,-213.9739 402.8709,-224.2455 407.2465,-214.5965 400.2742,-213.9739"/>
</g>
<!-- Node16 -->
<g id="node7" class="node">
<title>Node16</title>
<g id="a_node7"><a xlink:href="edsp_8h.xhtml" target="_top" xlink:title="apt&#45;pkg/edsp.h">
<polygon fill="#ffffff" stroke="#000000" points="362.5,-112.5 362.5,-131.5 451.5,-131.5 451.5,-112.5 362.5,-112.5"/>
<text text-anchor="middle" x="407" y="-119.5" font-family="Helvetica,sans-Serif" font-size="10.00" fill="#000000">apt&#45;pkg/edsp.h</text>
</a>
</g>
</g>
<!-- Node15&#45;&gt;Node16 -->
<g id="edge6" class="edge">
<title>Node15&#45;&gt;Node16</title>
<path fill="none" stroke="#191970" d="M407,-158.1575C407,-149.155 407,-138.9199 407,-131.6427"/>
<polygon fill="#191970" stroke="#191970" points="403.5001,-158.2455 407,-168.2455 410.5001,-158.2456 403.5001,-158.2455"/>
</g>
<!-- Node19 -->
<g id="node10" class="node">
<title>Node19</title>
<g id="a_node10"><a xlink:href="statechanges_8h_source.xhtml" target="_top" xlink:title="apt&#45;pkg/statechanges.h">
<polygon fill="#ffffff" stroke="#000000" points="469.5,-112.5 469.5,-131.5 600.5,-131.5 600.5,-112.5 469.5,-112.5"/>
<text text-anchor="middle" x="535" y="-119.5" font-family="Helvetica,sans-Serif" font-size="10.00" fill="#000000">apt&#45;pkg/statechanges.h</text>
</a>
</g>
</g>
<!-- Node15&#45;&gt;Node19 -->
<g id="edge10" class="edge">
<title>Node15&#45;&gt;Node19</title>
<path fill="none" stroke="#191970" d="M438.4348,-164.2473C461.6809,-154.0771 492.7411,-140.4883 513.2831,-131.5011"/>
<polygon fill="#191970" stroke="#191970" points="436.7627,-161.1585 429.004,-168.3733 439.5685,-167.5716 436.7627,-161.1585"/>
</g>
<!-- Node17 -->
<g id="node8" class="node">
<title>Node17</title>
<g id="a_node8"><a xlink:href="packagemanager_8h_source.xhtml" target="_top" xlink:title="apt&#45;pkg/packagemanager.h">
<polygon fill="#ffffff" stroke="#000000" points="342,-56.5 342,-75.5 492,-75.5 492,-56.5 342,-56.5"/>
<text text-anchor="middle" x="417" y="-63.5" font-family="Helvetica,sans-Serif" font-size="10.00" fill="#000000">apt&#45;pkg/packagemanager.h</text>
</a>
</g>
</g>
<!-- Node16&#45;&gt;Node17 -->
<g id="edge7" class="edge">
<title>Node16&#45;&gt;Node17</title>
<path fill="none" stroke="#191970" d="M410.5433,-102.1575C412.1509,-93.155 413.9786,-82.9199 415.2781,-75.6427"/>
<polygon fill="#191970" stroke="#191970" points="407.0544,-101.786 408.7419,-112.2455 413.9454,-103.0166 407.0544,-101.786"/>
</g>
<!-- Node17&#45;&gt;Node13 -->
<g id="edge8" class="edge">
<title>Node17&#45;&gt;Node13</title>
<path fill="none" stroke="#191970" d="M390.2568,-51.46C371.825,-41.4388 347.8416,-28.3993 331.7356,-19.6427"/>
<polygon fill="#191970" stroke="#191970" points="388.6015,-54.5438 399.0588,-56.2455 391.9451,-48.394 388.6015,-54.5438"/>
</g>
<!-- Node18 -->
<g id="node9" class="node">
<title>Node18</title>
<g id="a_node9"><a xlink:href="dpkgpm_8h_source.xhtml" target="_top" xlink:title="apt&#45;pkg/deb/dpkgpm.h">
<polygon fill="#ffffff" stroke="#000000" points="391.5,-.5 391.5,-19.5 518.5,-19.5 518.5,-.5 391.5,-.5"/>
<text text-anchor="middle" x="455" y="-7.5" font-family="Helvetica,sans-Serif" font-size="10.00" fill="#000000">apt&#45;pkg/deb/dpkgpm.h</text>
</a>
</g>
</g>
<!-- Node17&#45;&gt;Node18 -->
<g id="edge9" class="edge">
<title>Node17&#45;&gt;Node18</title>
<path fill="none" stroke="#191970" d="M429.2679,-47.9209C435.6488,-38.5176 443.1931,-27.3997 448.4568,-19.6427"/>
<polygon fill="#191970" stroke="#191970" points="426.338,-46.0055 423.6191,-56.2455 432.1303,-49.936 426.338,-46.0055"/>
</g>
</g>
</svg>
        <g id="navigator" transform="translate(0 0)" fill="#404254">
                <rect fill="#f2f5e9" fill-opacity="0.5" stroke="#606060" stroke-width=".5" x="0" y="0" width="60" height="60"/>
                <use id="zoomplus" xlink:href="#zoomPlus" x="17" y="9" onmousedown="handleZoom(evt,'in')"/>
                <use id="zoomminus" xlink:href="#zoomMin" x="42" y="9" onmousedown="handleZoom(evt,'out')"/>
                <use id="reset" xlink:href="#resetDef" x="30" y="36" onmousedown="handleReset()"/>
                <g id="arrowUp" xlink:href="#dirArrow" transform="translate(30 24)" onmousedown="handlePan(0,-1)">
                  <use xlink:href="#rim" fill="#404040">
                        <set attributeName="fill" to="#808080" begin="arrowUp.mouseover" end="arrowUp.mouseout"/>
                  </use>
                  <path fill="none" stroke="white" stroke-width="1.5" d="M0,-3.0v7 M-2.5,-0.5L0,-3.0L2.5,-0.5"/>
                </g>
                <g id="arrowRight" xlink:href="#dirArrow" transform="rotate(90) translate(36 -43)" onmousedown="handlePan(1,0)">
                  <use xlink:href="#rim" fill="#404040">
                        <set attributeName="fill" to="#808080" begin="arrowRight.mouseover" end="arrowRight.mouseout"/>
                  </use>
                  <path fill="none" stroke="white" stroke-width="1.5" d="M0,-3.0v7 M-2.5,-0.5L0,-3.0L2.5,-0.5"/>
                </g>
                <g id="arrowDown" xlink:href="#dirArrow" transform="rotate(180) translate(-30 -48)" onmousedown="handlePan(0,1)">
                  <use xlink:href="#rim" fill="#404040">
                        <set attributeName="fill" to="#808080" begin="arrowDown.mouseover" end="arrowDown.mouseout"/>
                  </use>
                  <path fill="none" stroke="white" stroke-width="1.5" d="M0,-3.0v7 M-2.5,-0.5L0,-3.0L2.5,-0.5"/>
                </g>
                <g id="arrowLeft" xlink:href="#dirArrow" transform="rotate(270) translate(-36 17)" onmousedown="handlePan(-1,0)">
                  <use xlink:href="#rim" fill="#404040">
                        <set attributeName="fill" to="#808080" begin="arrowLeft.mouseover" end="arrowLeft.mouseout"/>
                  </use>
                  <path fill="none" stroke="white" stroke-width="1.5" d="M0,-3.0v7 M-2.5,-0.5L0,-3.0L2.5,-0.5"/>
                </g>
        </g>
        <svg viewBox="0 0 15 15" width="100%" height="30px" preserveAspectRatio="xMaxYMin meet">
         <g id="arrow_out" transform="scale(0.3 0.3)">
          <a xlink:href="acquire_8h__dep__incl_org.svg" target="_base">
           <rect id="button" ry="5" rx="5" y="6" x="6" height="38" width="38"
                fill="#f2f5e9" fill-opacity="0.5" stroke="#606060" stroke-width="1.0"/>
           <path id="arrow"
             d="M 11.500037,31.436501 C 11.940474,20.09759 22.043105,11.32322 32.158766,21.979434 L 37.068811,17.246167 C 37.068811,17.246167 37.088388,32 37.088388,32 L 22.160133,31.978069 C 22.160133,31.978069 26.997745,27.140456 26.997745,27.140456 C 18.528582,18.264221 13.291696,25.230495 11.500037,31.436501 z"
             style="fill:#404040;"/>
          </a>
         </g>
        </svg>
</svg>
