<?xml version="1.0" encoding="UTF-8" standalone="no"?>
<!DOCTYPE svg PUBLIC "-//W3C//DTD SVG 1.1//EN"
 "http://www.w3.org/Graphics/SVG/1.1/DTD/svg11.dtd">
<!-- Generated by graphviz version 2.40.1 (20161225.0304)
 -->
<!-- Title: pkgIndexFile::Type Pages: 1 -->
<svg width="425pt" height="294pt"
 viewBox="0.00 0.00 425.00 294.00" xmlns="http://www.w3.org/2000/svg" xmlns:xlink="http://www.w3.org/1999/xlink">
<g id="graph0" class="graph" transform="scale(1 1) rotate(0) translate(4 290)">
<title>pkgIndexFile::Type</title>
<polygon fill="#ffffff" stroke="transparent" points="-4,4 -4,-290 421,-290 421,4 -4,4"/>
<!-- Node0 -->
<g id="node1" class="node">
<title>Node0</title>
<polygon fill="#bfbfbf" stroke="#000000" points="0,-133.5 0,-152.5 107,-152.5 107,-133.5 0,-133.5"/>
<text text-anchor="middle" x="53.5" y="-140.5" font-family="Helvetica,sans-Serif" font-size="10.00" fill="#000000">pkgIndexFile::Type</text>
</g>
<!-- Node1 -->
<g id="node2" class="node">
<title>Node1</title>
<g id="a_node2"><a xlink:href="classdebIFTypeDebianSourceDir.xhtml" target="_top" xlink:title="debIFTypeDebianSourceDir">
<polygon fill="#ffffff" stroke="#000000" points="143,-266.5 143,-285.5 290,-285.5 290,-266.5 143,-266.5"/>
<text text-anchor="middle" x="216.5" y="-273.5" font-family="Helvetica,sans-Serif" font-size="10.00" fill="#000000">debIFTypeDebianSourceDir</text>
</a>
</g>
</g>
<!-- Node0&#45;&gt;Node1 -->
<g id="edge1" class="edge">
<title>Node0&#45;&gt;Node1</title>
<path fill="none" stroke="#191970" d="M63.0538,-161.7125C77.0654,-187.2326 105.6301,-232.565 143,-257 148.9568,-260.8949 155.6709,-263.9921 162.5578,-266.4547"/>
<polygon fill="#191970" stroke="#191970" points="66.0423,-159.8779 58.2566,-152.6922 59.8619,-163.1647 66.0423,-159.8779"/>
</g>
<!-- Node2 -->
<g id="node3" class="node">
<title>Node2</title>
<g id="a_node3"><a xlink:href="classdebIFTypeDebPkgFile.xhtml" target="_top" xlink:title="debIFTypeDebPkgFile">
<polygon fill="#ffffff" stroke="#000000" points="157,-228.5 157,-247.5 276,-247.5 276,-228.5 157,-228.5"/>
<text text-anchor="middle" x="216.5" y="-235.5" font-family="Helvetica,sans-Serif" font-size="10.00" fill="#000000">debIFTypeDebPkgFile</text>
</a>
</g>
</g>
<!-- Node0&#45;&gt;Node2 -->
<g id="edge2" class="edge">
<title>Node0&#45;&gt;Node2</title>
<path fill="none" stroke="#191970" d="M69.1174,-160.206C85.7835,-177.542 113.7649,-203.8361 143,-219 150.3708,-222.8231 158.5651,-225.9153 166.7312,-228.4046"/>
<polygon fill="#191970" stroke="#191970" points="71.2842,-157.4002 61.8889,-152.5032 66.1797,-162.1903 71.2842,-157.4002"/>
</g>
<!-- Node3 -->
<g id="node4" class="node">
<title>Node3</title>
<g id="a_node4"><a xlink:href="classdebIFTypeDscFile.xhtml" target="_top" xlink:title="debIFTypeDscFile">
<polygon fill="#ffffff" stroke="#000000" points="166.5,-190.5 166.5,-209.5 266.5,-209.5 266.5,-190.5 166.5,-190.5"/>
<text text-anchor="middle" x="216.5" y="-197.5" font-family="Helvetica,sans-Serif" font-size="10.00" fill="#000000">debIFTypeDscFile</text>
</a>
</g>
</g>
<!-- Node0&#45;&gt;Node3 -->
<g id="edge3" class="edge">
<title>Node0&#45;&gt;Node3</title>
<path fill="none" stroke="#191970" d="M83.2845,-156.9619C100.492,-164.6938 122.6892,-174.1056 143,-181 153.234,-184.4739 164.4529,-187.6717 174.9758,-190.4139"/>
<polygon fill="#191970" stroke="#191970" points="84.3331,-153.5937 73.7817,-152.6354 81.4325,-159.9644 84.3331,-153.5937"/>
</g>
<!-- Node4 -->
<g id="node5" class="node">
<title>Node4</title>
<g id="a_node5"><a xlink:href="classdebIFTypePkg.xhtml" target="_top" xlink:title="debIFTypePkg">
<polygon fill="#ffffff" stroke="#000000" points="175,-152.5 175,-171.5 258,-171.5 258,-152.5 175,-152.5"/>
<text text-anchor="middle" x="216.5" y="-159.5" font-family="Helvetica,sans-Serif" font-size="10.00" fill="#000000">debIFTypePkg</text>
</a>
</g>
</g>
<!-- Node0&#45;&gt;Node4 -->
<g id="edge4" class="edge">
<title>Node0&#45;&gt;Node4</title>
<path fill="none" stroke="#191970" d="M117.2876,-150.4354C136.6315,-152.6902 157.3744,-155.1081 174.8664,-157.147"/>
<polygon fill="#191970" stroke="#191970" points="117.662,-146.9554 107.324,-149.274 116.8515,-153.9083 117.662,-146.9554"/>
</g>
<!-- Node6 -->
<g id="node7" class="node">
<title>Node6</title>
<g id="a_node7"><a xlink:href="classdebIFTypeSrc.xhtml" target="_top" xlink:title="debIFTypeSrc">
<polygon fill="#ffffff" stroke="#000000" points="176.5,-114.5 176.5,-133.5 256.5,-133.5 256.5,-114.5 176.5,-114.5"/>
<text text-anchor="middle" x="216.5" y="-121.5" font-family="Helvetica,sans-Serif" font-size="10.00" fill="#000000">debIFTypeSrc</text>
</a>
</g>
</g>
<!-- Node0&#45;&gt;Node6 -->
<g id="edge6" class="edge">
<title>Node0&#45;&gt;Node6</title>
<path fill="none" stroke="#191970" d="M117.2707,-135.5666C137.1945,-133.2442 158.6039,-130.7486 176.4178,-128.6722"/>
<polygon fill="#191970" stroke="#191970" points="116.8515,-132.0917 107.324,-136.726 117.662,-139.0446 116.8515,-132.0917"/>
</g>
<!-- Node7 -->
<g id="node8" class="node">
<title>Node7</title>
<g id="a_node8"><a xlink:href="classdebIFTypeStatus.xhtml" target="_top" xlink:title="debIFTypeStatus">
<polygon fill="#ffffff" stroke="#000000" points="168.5,-76.5 168.5,-95.5 264.5,-95.5 264.5,-76.5 168.5,-76.5"/>
<text text-anchor="middle" x="216.5" y="-83.5" font-family="Helvetica,sans-Serif" font-size="10.00" fill="#000000">debIFTypeStatus</text>
</a>
</g>
</g>
<!-- Node0&#45;&gt;Node7 -->
<g id="edge7" class="edge">
<title>Node0&#45;&gt;Node7</title>
<path fill="none" stroke="#191970" d="M83.2845,-129.0381C100.492,-121.3062 122.6892,-111.8944 143,-105 153.234,-101.5261 164.4529,-98.3283 174.9758,-95.5861"/>
<polygon fill="#191970" stroke="#191970" points="81.4325,-126.0356 73.7817,-133.3646 84.3331,-132.4063 81.4325,-126.0356"/>
</g>
<!-- Node8 -->
<g id="node9" class="node">
<title>Node8</title>
<g id="a_node9"><a xlink:href="classedspIFType.xhtml" target="_top" xlink:title="edspIFType">
<polygon fill="#ffffff" stroke="#000000" points="181,-38.5 181,-57.5 252,-57.5 252,-38.5 181,-38.5"/>
<text text-anchor="middle" x="216.5" y="-45.5" font-family="Helvetica,sans-Serif" font-size="10.00" fill="#000000">edspIFType</text>
</a>
</g>
</g>
<!-- Node0&#45;&gt;Node8 -->
<g id="edge8" class="edge">
<title>Node0&#45;&gt;Node8</title>
<path fill="none" stroke="#191970" d="M69.1174,-125.794C85.7835,-108.458 113.7649,-82.1639 143,-67 154.6997,-60.9315 168.4742,-56.7049 180.9173,-53.8071"/>
<polygon fill="#191970" stroke="#191970" points="66.1797,-123.8097 61.8889,-133.4968 71.2842,-128.5998 66.1797,-123.8097"/>
</g>
<!-- Node9 -->
<g id="node10" class="node">
<title>Node9</title>
<g id="a_node10"><a xlink:href="classeippIFType.xhtml" target="_top" xlink:title="eippIFType">
<polygon fill="#ffffff" stroke="#000000" points="182.5,-.5 182.5,-19.5 250.5,-19.5 250.5,-.5 182.5,-.5"/>
<text text-anchor="middle" x="216.5" y="-7.5" font-family="Helvetica,sans-Serif" font-size="10.00" fill="#000000">eippIFType</text>
</a>
</g>
</g>
<!-- Node0&#45;&gt;Node9 -->
<g id="edge9" class="edge">
<title>Node0&#45;&gt;Node9</title>
<path fill="none" stroke="#191970" d="M63.0538,-124.2875C77.0654,-98.7674 105.6301,-53.435 143,-29 154.6929,-21.3544 169.304,-16.7828 182.412,-14.0504"/>
<polygon fill="#191970" stroke="#191970" points="59.8619,-122.8353 58.2566,-133.3078 66.0423,-126.1221 59.8619,-122.8353"/>
</g>
<!-- Node5 -->
<g id="node6" class="node">
<title>Node5</title>
<g id="a_node6"><a xlink:href="classdebIFTypeTrans.xhtml" target="_top" xlink:title="debIFTypeTrans">
<polygon fill="#ffffff" stroke="#000000" points="326,-152.5 326,-171.5 417,-171.5 417,-152.5 326,-152.5"/>
<text text-anchor="middle" x="371.5" y="-159.5" font-family="Helvetica,sans-Serif" font-size="10.00" fill="#000000">debIFTypeTrans</text>
</a>
</g>
</g>
<!-- Node4&#45;&gt;Node5 -->
<g id="edge5" class="edge">
<title>Node4&#45;&gt;Node5</title>
<path fill="none" stroke="#191970" d="M268.1273,-162C286.7649,-162 307.6576,-162 325.7564,-162"/>
<polygon fill="#191970" stroke="#191970" points="268.0372,-158.5001 258.0372,-162 268.0371,-165.5001 268.0372,-158.5001"/>
</g>
</g>
</svg>
