<?xml version="1.0" encoding="UTF-8" standalone="no"?>
<!DOCTYPE svg PUBLIC "-//W3C//DTD SVG 1.1//EN"
 "http://www.w3.org/Graphics/SVG/1.1/DTD/svg11.dtd">
<!-- Generated by graphviz version 2.40.1 (20161225.0304)
 -->
<!-- Title: pkgSimulate Pages: 1 -->
<!--zoomable 716 -->
<svg id="main" version="1.1" xmlns="http://www.w3.org/2000/svg" xmlns:xlink="http://www.w3.org/1999/xlink" xml:space="preserve" onload="init(evt)">
<style type="text/css"><![CDATA[
.edge:hover path { stroke: red; }
.edge:hover polygon { stroke: red; fill: red; }
]]></style>
<script type="text/javascript"><![CDATA[
var edges = document.getElementsByTagName('g');
if (edges && edges.length) {
  for (var i=0;i<edges.length;i++) {
    if (edges[i].id.substr(0,4)=='edge') {
      edges[i].setAttribute('class','edge');
    }
  }
}
]]></script>
        <defs>
                <circle id="rim" cx="0" cy="0" r="7"/>
                <circle id="rim2" cx="0" cy="0" r="3.5"/>
                <g id="zoomPlus">
                        <use xlink:href="#rim" fill="#404040">
                                <set attributeName="fill" to="#808080" begin="zoomplus.mouseover" end="zoomplus.mouseout"/>
                        </use>
                        <path d="M-4,0h8M0,-4v8" fill="none" stroke="white" stroke-width="1.5" pointer-events="none"/>
                </g>
                <g id="zoomMin">
                        <use xlink:href="#rim" fill="#404040">
                                <set attributeName="fill" to="#808080" begin="zoomminus.mouseover" end="zoomminus.mouseout"/>
                        </use>
                        <path d="M-4,0h8" fill="none" stroke="white" stroke-width="1.5" pointer-events="none"/>
                </g>
                <g id="dirArrow">
                        <path fill="none" stroke="white" stroke-width="1.5" d="M0,-3.0v7 M-2.5,-0.5L0,-3.0L2.5,-0.5"/>
                </g>
               <g id="resetDef">
                       <use xlink:href="#rim2" fill="#404040">
                               <set attributeName="fill" to="#808080" begin="reset.mouseover" end="reset.mouseout"/>
                       </use>
               </g>
        </defs>

<script type="text/javascript">
var viewWidth = 1514;
var viewHeight = 716;
var sectionId = 'dynsection-1';
</script>
<script xlink:href="svgpan.js"/>
<svg id="graph" class="graph">
<g id="viewport">
<title>pkgSimulate</title>
<polygon fill="#ffffff" stroke="transparent" points="-4,4 -4,-711.7666 1510,-711.7666 1510,4 -4,4"/>
<!-- Node3 -->
<g id="node1" class="node">
<title>Node3</title>
<polygon fill="#bfbfbf" stroke="#000000" points="1428,-304.2666 1428,-323.2666 1506,-323.2666 1506,-304.2666 1428,-304.2666"/>
<text text-anchor="middle" x="1467" y="-311.2666" font-family="Helvetica,sans-Serif" font-size="10.00" fill="#000000">pkgSimulate</text>
</g>
<!-- Node4 -->
<g id="node2" class="node">
<title>Node4</title>
<g id="a_node2"><a xlink:href="classpkgPackageManager.xhtml" target="_top" xlink:title="pkgPackageManager">
<polygon fill="#ffffff" stroke="#000000" points="1244,-450.2666 1244,-469.2666 1361,-469.2666 1361,-450.2666 1244,-450.2666"/>
<text text-anchor="middle" x="1302.5" y="-457.2666" font-family="Helvetica,sans-Serif" font-size="10.00" fill="#000000">pkgPackageManager</text>
</a>
</g>
</g>
<!-- Node4&#45;&gt;Node3 -->
<g id="edge1" class="edge">
<title>Node4&#45;&gt;Node3</title>
<path fill="none" stroke="#191970" d="M1321.1851,-443.1829C1355.6566,-412.5881 1428.261,-348.149 1455.9513,-323.5728"/>
<polygon fill="#191970" stroke="#191970" points="1318.4491,-440.9315 1313.2933,-450.1872 1323.0957,-446.1669 1318.4491,-440.9315"/>
</g>
<!-- Node5 -->
<g id="node3" class="node">
<title>Node5</title>
<g id="a_node3"><a xlink:href="classpkgCache_1_1Namespace.xhtml" target="_top" xlink:title="Namespace">
<polygon fill="#ffffff" stroke="#000000" points="730,-428.2666 730,-447.2666 804,-447.2666 804,-428.2666 730,-428.2666"/>
<text text-anchor="middle" x="767" y="-435.2666" font-family="Helvetica,sans-Serif" font-size="10.00" fill="#000000">Namespace</text>
</a>
</g>
</g>
<!-- Node5&#45;&gt;Node4 -->
<g id="edge2" class="edge">
<title>Node5&#45;&gt;Node4</title>
<path fill="none" stroke="#006400" d="M809.226,-449.5178C813.5156,-450.4094 817.828,-451.1863 822,-451.7666 984.0557,-474.308 1026.3992,-459.5442 1190,-461.7666 1207.4816,-462.0041 1226.4903,-461.8311 1243.8215,-461.5056"/>
<polygon fill="#006400" stroke="#006400" points="809.8627,-446.0733 799.3354,-447.2675 808.3098,-452.8988 809.8627,-446.0733"/>
</g>
<!-- Node6 -->
<g id="node4" class="node">
<title>Node6</title>
<g id="a_node4"><a xlink:href="classpkgOrderList.xhtml" target="_top" xlink:title="pkgOrderList">
<polygon fill="#ffffff" stroke="#000000" points="1093,-428.2666 1093,-447.2666 1172,-447.2666 1172,-428.2666 1093,-428.2666"/>
<text text-anchor="middle" x="1132.5" y="-435.2666" font-family="Helvetica,sans-Serif" font-size="10.00" fill="#000000">pkgOrderList</text>
</a>
</g>
</g>
<!-- Node5&#45;&gt;Node6 -->
<g id="edge4" class="edge">
<title>Node5&#45;&gt;Node6</title>
<path fill="none" stroke="#006400" d="M814.2997,-437.7666C887.0379,-437.7666 1025.0386,-437.7666 1092.859,-437.7666"/>
<polygon fill="#006400" stroke="#006400" points="814.0575,-434.2667 804.0575,-437.7666 814.0575,-441.2667 814.0575,-434.2667"/>
</g>
<!-- Node7 -->
<g id="node5" class="node">
<title>Node7</title>
<g id="a_node5"><a xlink:href="classpkgDepCache.xhtml" target="_top" xlink:title="pkgDepCache">
<polygon fill="#ffffff" stroke="#000000" points="927,-341.2666 927,-360.2666 1011,-360.2666 1011,-341.2666 927,-341.2666"/>
<text text-anchor="middle" x="969" y="-348.2666" font-family="Helvetica,sans-Serif" font-size="10.00" fill="#000000">pkgDepCache</text>
</a>
</g>
</g>
<!-- Node5&#45;&gt;Node7 -->
<g id="edge6" class="edge">
<title>Node5&#45;&gt;Node7</title>
<path fill="none" stroke="#006400" d="M798.6981,-424.1145C839.9274,-406.3573 910.9111,-375.7851 946.8182,-360.3202"/>
<polygon fill="#006400" stroke="#006400" points="797.1892,-420.9535 789.3893,-428.1237 799.9582,-427.3825 797.1892,-420.9535"/>
</g>
<!-- Node6&#45;&gt;Node4 -->
<g id="edge3" class="edge">
<title>Node6&#45;&gt;Node4</title>
<path fill="none" stroke="#9a32cd" stroke-dasharray="5,2" d="M1182.4317,-444.2284C1201.6949,-446.7213 1223.8719,-449.5912 1243.8832,-452.1809"/>
<polygon fill="#9a32cd" stroke="#9a32cd" points="1182.724,-440.7371 1172.3574,-442.9247 1181.8255,-447.6792 1182.724,-440.7371"/>
<text text-anchor="middle" x="1208" y="-451.7666" font-family="Helvetica,sans-Serif" font-size="10.00" fill="#000000"> List</text>
</g>
<!-- Node7&#45;&gt;Node3 -->
<g id="edge35" class="edge">
<title>Node7&#45;&gt;Node3</title>
<path fill="none" stroke="#9a32cd" stroke-dasharray="5,2" d="M1021.2175,-346.887C1121.4163,-339.4425 1338.612,-323.3055 1427.6828,-316.6878"/>
<polygon fill="#9a32cd" stroke="#9a32cd" points="1020.7432,-343.4125 1011.03,-347.6439 1021.2619,-350.3933 1020.7432,-343.4125"/>
<text text-anchor="middle" x="1208" y="-336.7666" font-family="Helvetica,sans-Serif" font-size="10.00" fill="#000000"> Sim</text>
</g>
<!-- Node7&#45;&gt;Node4 -->
<g id="edge31" class="edge">
<title>Node7&#45;&gt;Node4</title>
<path fill="none" stroke="#9a32cd" stroke-dasharray="5,2" d="M1017.3567,-362.8098C1058.7624,-373.486 1119.7886,-390.0891 1172,-407.7666 1210.8089,-420.9064 1254.8828,-439.1948 1280.5977,-450.2154"/>
<polygon fill="#9a32cd" stroke="#9a32cd" points="1018.0865,-359.3838 1007.5308,-360.2926 1016.3493,-366.1648 1018.0865,-359.3838"/>
<text text-anchor="middle" x="1132.5" y="-410.7666" font-family="Helvetica,sans-Serif" font-size="10.00" fill="#000000"> Cache</text>
</g>
<!-- Node7&#45;&gt;Node6 -->
<g id="edge5" class="edge">
<title>Node7&#45;&gt;Node6</title>
<path fill="none" stroke="#9a32cd" stroke-dasharray="5,2" d="M990.7811,-365.9938C1001.9703,-373.5387 1015.9614,-382.5535 1029,-389.7666 1043.8186,-397.9645 1085.0203,-416.6273 1110.7472,-428.1168"/>
<polygon fill="#9a32cd" stroke="#9a32cd" points="992.7109,-363.0734 982.48,-360.3205 988.7611,-368.8526 992.7109,-363.0734"/>
<text text-anchor="middle" x="1052" y="-412.7666" font-family="Helvetica,sans-Serif" font-size="10.00" fill="#000000"> Cache</text>
</g>
<!-- Node8 -->
<g id="node6" class="node">
<title>Node8</title>
<g id="a_node6"><a xlink:href="classpkgDepCache_1_1Policy.xhtml" target="_top" xlink:title="Policy">
<polygon fill="#ffffff" stroke="#000000" points="744,-238.2666 744,-257.2666 790,-257.2666 790,-238.2666 744,-238.2666"/>
<text text-anchor="middle" x="767" y="-245.2666" font-family="Helvetica,sans-Serif" font-size="10.00" fill="#000000">Policy</text>
</a>
</g>
</g>
<!-- Node8&#45;&gt;Node7 -->
<g id="edge7" class="edge">
<title>Node8&#45;&gt;Node7</title>
<path fill="none" stroke="#9a32cd" stroke-dasharray="5,2" d="M800.2341,-250.9771C830.4251,-255.1074 875.265,-264.3638 909,-284.7666 933.1161,-299.3519 953.268,-326.5573 962.9033,-341.0667"/>
<polygon fill="#9a32cd" stroke="#9a32cd" points="800.5661,-247.4914 790.2084,-249.72 799.6952,-254.437 800.5661,-247.4914"/>
<text text-anchor="middle" x="865.5" y="-298.7666" font-family="Helvetica,sans-Serif" font-size="10.00" fill="#000000"> LocalPolicy</text>
<text text-anchor="middle" x="865.5" y="-287.7666" font-family="Helvetica,sans-Serif" font-size="10.00" fill="#000000">delLocalPolicy</text>
</g>
<!-- Node30 -->
<g id="node28" class="node">
<title>Node30</title>
<g id="a_node28"><a xlink:href="classpkgSimulate_1_1Policy.xhtml" target="_top" xlink:title="Policy">
<polygon fill="#ffffff" stroke="#000000" points="1029,-248.2666 1029,-267.2666 1075,-267.2666 1075,-248.2666 1029,-248.2666"/>
<text text-anchor="middle" x="1052" y="-255.2666" font-family="Helvetica,sans-Serif" font-size="10.00" fill="#000000">Policy</text>
</a>
</g>
</g>
<!-- Node8&#45;&gt;Node30 -->
<g id="edge37" class="edge">
<title>Node8&#45;&gt;Node30</title>
<path fill="none" stroke="#191970" d="M800.5101,-248.9424C859.0243,-250.9956 978.3889,-255.1838 1028.7547,-256.951"/>
<polygon fill="#191970" stroke="#191970" points="800.4394,-245.4379 790.3227,-248.585 800.1938,-252.4336 800.4394,-245.4379"/>
</g>
<!-- Node9 -->
<g id="node7" class="node">
<title>Node9</title>
<g id="a_node7"><a xlink:href="classpkgCache.xhtml" target="_top" xlink:title="pkgCache">
<polygon fill="#ffffff" stroke="#000000" points="734.5,-332.2666 734.5,-351.2666 799.5,-351.2666 799.5,-332.2666 734.5,-332.2666"/>
<text text-anchor="middle" x="767" y="-339.2666" font-family="Helvetica,sans-Serif" font-size="10.00" fill="#000000">pkgCache</text>
</a>
</g>
</g>
<!-- Node9&#45;&gt;Node7 -->
<g id="edge8" class="edge">
<title>Node9&#45;&gt;Node7</title>
<path fill="none" stroke="#9a32cd" stroke-dasharray="5,2" d="M810.149,-343.6891C844.6643,-345.2269 892.7788,-347.3707 926.9902,-348.8949"/>
<polygon fill="#9a32cd" stroke="#9a32cd" points="810.0503,-340.1814 799.9044,-343.2327 809.7386,-347.1744 810.0503,-340.1814"/>
<text text-anchor="middle" x="865.5" y="-350.7666" font-family="Helvetica,sans-Serif" font-size="10.00" fill="#000000"> Cache</text>
</g>
<!-- Node10 -->
<g id="node8" class="node">
<title>Node10</title>
<g id="a_node8"><a xlink:href="structpkgCache_1_1DependencyData.xhtml" target="_top" xlink:title="information for a single dependency record ">
<polygon fill="#ffffff" stroke="#000000" points="530.5,-426.2666 530.5,-445.2666 631.5,-445.2666 631.5,-426.2666 530.5,-426.2666"/>
<text text-anchor="middle" x="581" y="-433.2666" font-family="Helvetica,sans-Serif" font-size="10.00" fill="#000000">DependencyData</text>
</a>
</g>
</g>
<!-- Node10&#45;&gt;Node9 -->
<g id="edge9" class="edge">
<title>Node10&#45;&gt;Node9</title>
<path fill="none" stroke="#9a32cd" stroke-dasharray="5,2" d="M641.2737,-423.8272C664.4262,-417.621 690.4472,-408.5775 712,-395.7666 731.7851,-384.0065 749.8118,-363.6726 759.5117,-351.5946"/>
<polygon fill="#9a32cd" stroke="#9a32cd" points="640.3682,-420.4461 631.5481,-426.3161 642.1037,-427.2276 640.3682,-420.4461"/>
<text text-anchor="middle" x="686" y="-420.7666" font-family="Helvetica,sans-Serif" font-size="10.00" fill="#000000"> DepDataP</text>
</g>
<!-- Node11 -->
<g id="node9" class="node">
<title>Node11</title>
<g id="a_node9"><a xlink:href="structpkgCache_1_1Dependency.xhtml" target="_top" xlink:title="Dependency">
<polygon fill="#ffffff" stroke="#000000" points="542.5,-388.2666 542.5,-407.2666 619.5,-407.2666 619.5,-388.2666 542.5,-388.2666"/>
<text text-anchor="middle" x="581" y="-395.2666" font-family="Helvetica,sans-Serif" font-size="10.00" fill="#000000">Dependency</text>
</a>
</g>
</g>
<!-- Node11&#45;&gt;Node9 -->
<g id="edge10" class="edge">
<title>Node11&#45;&gt;Node9</title>
<path fill="none" stroke="#9a32cd" stroke-dasharray="5,2" d="M629.6374,-388.6105C654.5893,-383.3243 685.2754,-375.9055 712,-366.7666 724.4056,-362.5244 737.8094,-356.4645 748.2789,-351.3734"/>
<polygon fill="#9a32cd" stroke="#9a32cd" points="628.7586,-385.2181 619.6759,-390.6729 630.1778,-392.0728 628.7586,-385.2181"/>
<text text-anchor="middle" x="686" y="-383.7666" font-family="Helvetica,sans-Serif" font-size="10.00" fill="#000000"> DepP</text>
</g>
<!-- Node12 -->
<g id="node10" class="node">
<title>Node12</title>
<g id="a_node10"><a xlink:href="structpkgCache_1_1Description.xhtml" target="_top" xlink:title="datamember of a linked list of available description for a version ">
<polygon fill="#ffffff" stroke="#000000" points="545,-350.2666 545,-369.2666 617,-369.2666 617,-350.2666 545,-350.2666"/>
<text text-anchor="middle" x="581" y="-357.2666" font-family="Helvetica,sans-Serif" font-size="10.00" fill="#000000">Description</text>
</a>
</g>
</g>
<!-- Node12&#45;&gt;Node9 -->
<g id="edge11" class="edge">
<title>Node12&#45;&gt;Node9</title>
<path fill="none" stroke="#9a32cd" stroke-dasharray="5,2" d="M627.6811,-355.2491C660.8836,-352.036 704.6632,-347.7992 734.2143,-344.9395"/>
<polygon fill="#9a32cd" stroke="#9a32cd" points="626.9206,-351.8063 617.3042,-356.2533 627.5949,-358.7737 626.9206,-351.8063"/>
<text text-anchor="middle" x="686" y="-354.7666" font-family="Helvetica,sans-Serif" font-size="10.00" fill="#000000"> DescP</text>
</g>
<!-- Node13 -->
<g id="node11" class="node">
<title>Node13</title>
<g id="a_node11"><a xlink:href="structpkgCache_1_1Header.xhtml" target="_top" xlink:title="Header">
<polygon fill="#ffffff" stroke="#000000" points="555,-312.2666 555,-331.2666 607,-331.2666 607,-312.2666 555,-312.2666"/>
<text text-anchor="middle" x="581" y="-319.2666" font-family="Helvetica,sans-Serif" font-size="10.00" fill="#000000">Header</text>
</a>
</g>
</g>
<!-- Node13&#45;&gt;Node9 -->
<g id="edge12" class="edge">
<title>Node13&#45;&gt;Node9</title>
<path fill="none" stroke="#9a32cd" stroke-dasharray="5,2" d="M617.4556,-323.534C643.7958,-325.058 680.187,-327.6715 712,-331.7666 719.2193,-332.696 726.9292,-333.939 734.2227,-335.2323"/>
<polygon fill="#9a32cd" stroke="#9a32cd" points="617.3572,-320.0232 607.179,-322.9651 616.9702,-327.0125 617.3572,-320.0232"/>
<text text-anchor="middle" x="686" y="-334.7666" font-family="Helvetica,sans-Serif" font-size="10.00" fill="#000000"> HeaderP</text>
</g>
<!-- Node14 -->
<g id="node12" class="node">
<title>Node14</title>
<g id="a_node12"><a xlink:href="structDynamicMMap_1_1Pool.xhtml" target="_top" xlink:title="Pool">
<polygon fill="#ffffff" stroke="#000000" points="340,-312.2666 340,-331.2666 378,-331.2666 378,-312.2666 340,-312.2666"/>
<text text-anchor="middle" x="359" y="-319.2666" font-family="Helvetica,sans-Serif" font-size="10.00" fill="#000000">Pool</text>
</a>
</g>
</g>
<!-- Node14&#45;&gt;Node13 -->
<g id="edge13" class="edge">
<title>Node14&#45;&gt;Node13</title>
<path fill="none" stroke="#9a32cd" stroke-dasharray="5,2" d="M388.5566,-321.7666C432.1982,-321.7666 513.1889,-321.7666 554.8109,-321.7666"/>
<polygon fill="#9a32cd" stroke="#9a32cd" points="388.3127,-318.2667 378.3127,-321.7666 388.3127,-325.2667 388.3127,-318.2667"/>
<text text-anchor="middle" x="450.5" y="-324.7666" font-family="Helvetica,sans-Serif" font-size="10.00" fill="#000000"> Pools</text>
</g>
<!-- Node15 -->
<g id="node13" class="node">
<title>Node15</title>
<g id="a_node13"><a xlink:href="structpkgCache_1_1PackageFile.xhtml" target="_top" xlink:title="stores information about the files used to generate the cache ">
<polygon fill="#ffffff" stroke="#000000" points="544,-274.2666 544,-293.2666 618,-293.2666 618,-274.2666 544,-274.2666"/>
<text text-anchor="middle" x="581" y="-281.2666" font-family="Helvetica,sans-Serif" font-size="10.00" fill="#000000">PackageFile</text>
</a>
</g>
</g>
<!-- Node15&#45;&gt;Node9 -->
<g id="edge14" class="edge">
<title>Node15&#45;&gt;Node9</title>
<path fill="none" stroke="#9a32cd" stroke-dasharray="5,2" d="M628.4227,-289.0553C653.9025,-292.9961 685.446,-299.6763 712,-310.7666 720.8721,-314.4721 721.7101,-317.8961 730,-322.7666 735.4789,-325.9857 741.5631,-329.2367 747.1891,-332.1174"/>
<polygon fill="#9a32cd" stroke="#9a32cd" points="628.665,-285.5538 618.2653,-287.578 627.6575,-292.4809 628.665,-285.5538"/>
<text text-anchor="middle" x="686" y="-313.7666" font-family="Helvetica,sans-Serif" font-size="10.00" fill="#000000"> PkgFileP</text>
</g>
<!-- Node16 -->
<g id="node14" class="node">
<title>Node16</title>
<g id="a_node14"><a xlink:href="structpkgCache_1_1ReleaseFile.xhtml" target="_top" xlink:title="stores information about the release files used to generate the cache ">
<polygon fill="#ffffff" stroke="#000000" points="545.5,-236.2666 545.5,-255.2666 616.5,-255.2666 616.5,-236.2666 545.5,-236.2666"/>
<text text-anchor="middle" x="581" y="-243.2666" font-family="Helvetica,sans-Serif" font-size="10.00" fill="#000000">ReleaseFile</text>
</a>
</g>
</g>
<!-- Node16&#45;&gt;Node9 -->
<g id="edge15" class="edge">
<title>Node16&#45;&gt;Node9</title>
<path fill="none" stroke="#9a32cd" stroke-dasharray="5,2" d="M626.8587,-247.6624C654.4041,-251.0322 688.5416,-259.4337 712,-279.7666 727.6556,-293.3364 715.9322,-307.5571 730,-322.7666 733.4322,-326.4775 737.7539,-329.5795 742.2219,-332.1283"/>
<polygon fill="#9a32cd" stroke="#9a32cd" points="626.9686,-244.155 616.6604,-246.6028 626.2452,-251.1176 626.9686,-244.155"/>
<text text-anchor="middle" x="686" y="-282.7666" font-family="Helvetica,sans-Serif" font-size="10.00" fill="#000000"> RlsFileP</text>
</g>
<!-- Node17 -->
<g id="node15" class="node">
<title>Node17</title>
<g id="a_node15"><a xlink:href="structpkgCache_1_1DescFile.xhtml" target="_top" xlink:title="associates a description with a Translation file ">
<polygon fill="#ffffff" stroke="#000000" points="552.5,-198.2666 552.5,-217.2666 609.5,-217.2666 609.5,-198.2666 552.5,-198.2666"/>
<text text-anchor="middle" x="581" y="-205.2666" font-family="Helvetica,sans-Serif" font-size="10.00" fill="#000000">DescFile</text>
</a>
</g>
</g>
<!-- Node17&#45;&gt;Node9 -->
<g id="edge16" class="edge">
<title>Node17&#45;&gt;Node9</title>
<path fill="none" stroke="#9a32cd" stroke-dasharray="5,2" d="M620.0533,-206.5342C649.3231,-207.8055 688.2656,-214.5218 712,-238.7666 738.7093,-266.0502 706.7798,-292.4582 730,-322.7666 732.8984,-326.5499 736.7617,-329.6453 740.8996,-332.156"/>
<polygon fill="#9a32cd" stroke="#9a32cd" points="619.8336,-203.0281 609.7534,-206.2898 619.6675,-210.0262 619.8336,-203.0281"/>
<text text-anchor="middle" x="686" y="-241.7666" font-family="Helvetica,sans-Serif" font-size="10.00" fill="#000000"> DescFileP</text>
</g>
<!-- Node18 -->
<g id="node16" class="node">
<title>Node18</title>
<g id="a_node16"><a xlink:href="structpkgCache_1_1Provides.xhtml" target="_top" xlink:title="handles virtual packages ">
<polygon fill="#ffffff" stroke="#000000" points="551.5,-160.2666 551.5,-179.2666 610.5,-179.2666 610.5,-160.2666 551.5,-160.2666"/>
<text text-anchor="middle" x="581" y="-167.2666" font-family="Helvetica,sans-Serif" font-size="10.00" fill="#000000">Provides</text>
</a>
</g>
</g>
<!-- Node18&#45;&gt;Node9 -->
<g id="edge17" class="edge">
<title>Node18&#45;&gt;Node9</title>
<path fill="none" stroke="#9a32cd" stroke-dasharray="5,2" d="M620.9796,-167.1036C650.3908,-167.476 689.0878,-173.2518 712,-197.7666 750.3259,-238.7733 697.4007,-277.0752 730,-322.7666 732.6841,-326.5288 736.3387,-329.5973 740.3107,-332.084"/>
<polygon fill="#9a32cd" stroke="#9a32cd" points="620.5822,-163.6066 610.6105,-167.1862 620.6381,-170.6064 620.5822,-163.6066"/>
<text text-anchor="middle" x="686" y="-200.7666" font-family="Helvetica,sans-Serif" font-size="10.00" fill="#000000"> ProvideP</text>
</g>
<!-- Node19 -->
<g id="node17" class="node">
<title>Node19</title>
<g id="a_node17"><a xlink:title="STL class. ">
<polygon fill="#ffffff" stroke="#bfbfbf" points="156,-607.2666 156,-626.2666 200,-626.2666 200,-607.2666 156,-607.2666"/>
<text text-anchor="middle" x="178" y="-614.2666" font-family="Helvetica,sans-Serif" font-size="10.00" fill="#000000">string</text>
</a>
</g>
</g>
<!-- Node19&#45;&gt;Node4 -->
<g id="edge34" class="edge">
<title>Node19&#45;&gt;Node4</title>
<path fill="none" stroke="#9a32cd" stroke-dasharray="5,2" d="M207.5287,-630.2973C211.0131,-631.6 214.5549,-632.7951 218,-633.7666 278.9796,-650.9628 295.6421,-654.7666 359,-654.7666 359,-654.7666 359,-654.7666 1132.5,-654.7666 1231.9822,-654.7666 1286.5808,-508.7837 1299.49,-469.4367"/>
<polygon fill="#9a32cd" stroke="#9a32cd" points="208.5717,-626.9438 197.9889,-626.4383 205.9467,-633.4329 208.5717,-626.9438"/>
<text text-anchor="middle" x="767" y="-657.7666" font-family="Helvetica,sans-Serif" font-size="10.00" fill="#000000"> FileNames</text>
</g>
<!-- Node19&#45;&gt;Node6 -->
<g id="edge30" class="edge">
<title>Node19&#45;&gt;Node6</title>
<path fill="none" stroke="#9a32cd" stroke-dasharray="5,2" d="M210.8393,-618.483C287.2152,-621.8119 482.4248,-626.4947 642,-597.7666 828.8888,-564.1214 1042.6235,-476.4745 1110.5739,-447.3398"/>
<polygon fill="#9a32cd" stroke="#9a32cd" points="210.6015,-614.9684 200.4514,-618.0058 210.2802,-621.9611 210.6015,-614.9684"/>
<text text-anchor="middle" x="686" y="-596.7666" font-family="Helvetica,sans-Serif" font-size="10.00" fill="#000000"> FileList</text>
</g>
<!-- Node19&#45;&gt;Node9 -->
<g id="edge18" class="edge">
<title>Node19&#45;&gt;Node9</title>
<path fill="none" stroke="#9a32cd" stroke-dasharray="5,2" d="M182.4346,-597.4055C202.8219,-513.6678 296.2955,-182.064 520,-74.7666 597.1451,-37.7649 655.2567,-24.73 712,-88.7666 746.5883,-127.8006 701.132,-279.3312 730,-322.7666 732.5581,-326.6156 736.1496,-329.7275 740.098,-332.2305"/>
<polygon fill="#9a32cd" stroke="#9a32cd" points="179.0274,-596.605 180.1253,-607.1428 185.8385,-598.2203 179.0274,-596.605"/>
<text text-anchor="middle" x="450.5" y="-167.7666" font-family="Helvetica,sans-Serif" font-size="10.00" fill="#000000"> CacheFile</text>
</g>
<!-- Node27 -->
<g id="node25" class="node">
<title>Node27</title>
<g id="a_node25"><a xlink:href="classFileFd.xhtml" target="_top" xlink:title="FileFd">
<polygon fill="#ffffff" stroke="#000000" points="337,-8.2666 337,-27.2666 381,-27.2666 381,-8.2666 337,-8.2666"/>
<text text-anchor="middle" x="359" y="-15.2666" font-family="Helvetica,sans-Serif" font-size="10.00" fill="#000000">FileFd</text>
</a>
</g>
</g>
<!-- Node19&#45;&gt;Node27 -->
<g id="edge28" class="edge">
<title>Node19&#45;&gt;Node27</title>
<path fill="none" stroke="#9a32cd" stroke-dasharray="5,2" d="M178.5905,-596.627C181.6725,-494.7345 196.5928,-40.074 218,-19.7666 249.704,10.3086 305.7471,-.5847 336.7738,-9.9365"/>
<polygon fill="#9a32cd" stroke="#9a32cd" points="175.0871,-596.6908 178.2872,-606.7908 182.084,-596.8996 175.0871,-596.6908"/>
<text text-anchor="middle" x="268.5" y="-33.7666" font-family="Helvetica,sans-Serif" font-size="10.00" fill="#000000"> TemporaryFileName</text>
<text text-anchor="middle" x="268.5" y="-22.7666" font-family="Helvetica,sans-Serif" font-size="10.00" fill="#000000">FileName</text>
</g>
<!-- Node29 -->
<g id="node27" class="node">
<title>Node29</title>
<polygon fill="#ffffff" stroke="#bfbfbf" points="399,-683.2666 399,-702.2666 502,-702.2666 502,-683.2666 399,-683.2666"/>
<text text-anchor="middle" x="450.5" y="-690.2666" font-family="Helvetica,sans-Serif" font-size="10.00" fill="#000000">set&lt; std::string &gt;</text>
</g>
<!-- Node19&#45;&gt;Node29 -->
<g id="edge33" class="edge">
<title>Node19&#45;&gt;Node29</title>
<path fill="none" stroke="#9a32cd" stroke-dasharray="5,2" d="M187.2204,-635.3728C194.0394,-647.0276 204.4797,-661.222 218,-668.7666 273.9878,-700.0091 349.4297,-701.8287 398.9851,-698.6435"/>
<polygon fill="#9a32cd" stroke="#9a32cd" points="190.193,-633.5117 182.3561,-626.3819 184.0363,-636.8427 190.193,-633.5117"/>
<text text-anchor="middle" x="268.5" y="-699.7666" font-family="Helvetica,sans-Serif" font-size="10.00" fill="#000000"> keys</text>
</g>
<!-- Node20 -->
<g id="node18" class="node">
<title>Node20</title>
<g id="a_node18"><a xlink:title="STL class. ">
<polygon fill="#ffffff" stroke="#bfbfbf" points="0,-607.2666 0,-626.2666 119,-626.2666 119,-607.2666 0,-607.2666"/>
<text text-anchor="middle" x="59.5" y="-614.2666" font-family="Helvetica,sans-Serif" font-size="10.00" fill="#000000">basic_string&lt; char &gt;</text>
</a>
</g>
</g>
<!-- Node20&#45;&gt;Node19 -->
<g id="edge19" class="edge">
<title>Node20&#45;&gt;Node19</title>
<path fill="none" stroke="#191970" d="M129.2118,-616.7666C138.8284,-616.7666 148.0652,-616.7666 155.8653,-616.7666"/>
<polygon fill="#191970" stroke="#191970" points="129.0972,-613.2667 119.0972,-616.7666 129.0971,-620.2667 129.0972,-613.2667"/>
</g>
<!-- Node21 -->
<g id="node19" class="node">
<title>Node21</title>
<g id="a_node19"><a xlink:href="structpkgCache_1_1Group.xhtml" target="_top" xlink:title="groups architecture depending packages together ">
<polygon fill="#ffffff" stroke="#000000" points="558,-569.2666 558,-588.2666 604,-588.2666 604,-569.2666 558,-569.2666"/>
<text text-anchor="middle" x="581" y="-576.2666" font-family="Helvetica,sans-Serif" font-size="10.00" fill="#000000">Group</text>
</a>
</g>
</g>
<!-- Node21&#45;&gt;Node9 -->
<g id="edge20" class="edge">
<title>Node21&#45;&gt;Node9</title>
<path fill="none" stroke="#9a32cd" stroke-dasharray="5,2" d="M613.9728,-572.6582C644.8781,-565.0455 689.5815,-548.7791 712,-515.7666 736.6332,-479.493 716.3858,-460.4466 730,-418.7666 738.289,-393.3897 753.2138,-365.6315 761.3449,-351.3866"/>
<polygon fill="#9a32cd" stroke="#9a32cd" points="613.0422,-569.2805 604.0729,-574.9198 614.6013,-576.1047 613.0422,-569.2805"/>
<text text-anchor="middle" x="686" y="-558.7666" font-family="Helvetica,sans-Serif" font-size="10.00" fill="#000000"> GrpP</text>
</g>
<!-- Node22 -->
<g id="node20" class="node">
<title>Node22</title>
<g id="a_node20"><a xlink:href="classpkgVersioningSystem.xhtml" target="_top" xlink:title="pkgVersioningSystem">
<polygon fill="#ffffff" stroke="#000000" points="520,-502.2666 520,-521.2666 642,-521.2666 642,-502.2666 520,-502.2666"/>
<text text-anchor="middle" x="581" y="-509.2666" font-family="Helvetica,sans-Serif" font-size="10.00" fill="#000000">pkgVersioningSystem</text>
</a>
</g>
</g>
<!-- Node22&#45;&gt;Node9 -->
<g id="edge21" class="edge">
<title>Node22&#45;&gt;Node9</title>
<path fill="none" stroke="#9a32cd" stroke-dasharray="5,2" d="M652.0799,-503.4905C673.6079,-497.8514 695.8109,-488.4396 712,-472.7666 730.1759,-455.1702 720.5026,-442.2145 730,-418.7666 740.0223,-394.023 754.243,-366.0075 761.8032,-351.554"/>
<polygon fill="#9a32cd" stroke="#9a32cd" points="651.1795,-500.107 642.2602,-505.825 652.7985,-506.9172 651.1795,-500.107"/>
<text text-anchor="middle" x="686" y="-503.7666" font-family="Helvetica,sans-Serif" font-size="10.00" fill="#000000"> VS</text>
</g>
<!-- Node22&#45;&gt;Node22 -->
<g id="edge22" class="edge">
<title>Node22&#45;&gt;Node22</title>
<path fill="none" stroke="#9a32cd" stroke-dasharray="5,2" d="M561.7417,-531.1667C563.0278,-536.0812 569.4473,-539.7666 581,-539.7666 599.4844,-539.7666 604.8275,-530.3319 597.0294,-521.5237"/>
<polygon fill="#9a32cd" stroke="#9a32cd" points="565.1142,-532.1176 564.9706,-521.5237 558.4765,-529.8949 565.1142,-532.1176"/>
<text text-anchor="middle" x="581" y="-542.7666" font-family="Helvetica,sans-Serif" font-size="10.00" fill="#000000"> GlobalList</text>
</g>
<!-- Node23 -->
<g id="node21" class="node">
<title>Node23</title>
<g id="a_node21"><a xlink:href="structpkgCache_1_1Version.xhtml" target="_top" xlink:title="information for a single version of a package ">
<polygon fill="#ffffff" stroke="#000000" points="554.5,-464.2666 554.5,-483.2666 607.5,-483.2666 607.5,-464.2666 554.5,-464.2666"/>
<text text-anchor="middle" x="581" y="-471.2666" font-family="Helvetica,sans-Serif" font-size="10.00" fill="#000000">Version</text>
</a>
</g>
</g>
<!-- Node23&#45;&gt;Node9 -->
<g id="edge23" class="edge">
<title>Node23&#45;&gt;Node9</title>
<path fill="none" stroke="#9a32cd" stroke-dasharray="5,2" d="M617.583,-469.473C645.8445,-464.5808 684.6268,-454.268 712,-432.7666 740.163,-410.6449 757.2269,-369.7919 763.8402,-351.3014"/>
<polygon fill="#9a32cd" stroke="#9a32cd" points="617.0166,-466.019 607.6876,-471.0409 618.1121,-472.9328 617.0166,-466.019"/>
<text text-anchor="middle" x="686" y="-460.7666" font-family="Helvetica,sans-Serif" font-size="10.00" fill="#000000"> VerP</text>
</g>
<!-- Node24 -->
<g id="node22" class="node">
<title>Node24</title>
<g id="a_node22"><a xlink:href="structpkgCache_1_1VerFile.xhtml" target="_top" xlink:title="associates a version with a PackageFile ">
<polygon fill="#ffffff" stroke="#000000" points="556.5,-122.2666 556.5,-141.2666 605.5,-141.2666 605.5,-122.2666 556.5,-122.2666"/>
<text text-anchor="middle" x="581" y="-129.2666" font-family="Helvetica,sans-Serif" font-size="10.00" fill="#000000">VerFile</text>
</a>
</g>
</g>
<!-- Node24&#45;&gt;Node9 -->
<g id="edge24" class="edge">
<title>Node24&#45;&gt;Node9</title>
<path fill="none" stroke="#9a32cd" stroke-dasharray="5,2" d="M615.6473,-128.0154C645.6521,-126.8642 687.9152,-130.659 712,-156.7666 737.1594,-184.0392 708.9814,-292.1887 730,-322.7666 732.6179,-326.5752 736.2393,-329.6669 740.1989,-332.1623"/>
<polygon fill="#9a32cd" stroke="#9a32cd" points="615.3751,-124.5252 605.5954,-128.6003 615.7819,-131.5134 615.3751,-124.5252"/>
<text text-anchor="middle" x="686" y="-159.7666" font-family="Helvetica,sans-Serif" font-size="10.00" fill="#000000"> VerFileP</text>
</g>
<!-- Node25 -->
<g id="node23" class="node">
<title>Node25</title>
<g id="a_node23"><a xlink:href="structpkgCache_1_1Package.xhtml" target="_top" xlink:title="contains information for a single unique package ">
<polygon fill="#ffffff" stroke="#000000" points="552.5,-84.2666 552.5,-103.2666 609.5,-103.2666 609.5,-84.2666 552.5,-84.2666"/>
<text text-anchor="middle" x="581" y="-91.2666" font-family="Helvetica,sans-Serif" font-size="10.00" fill="#000000">Package</text>
</a>
</g>
</g>
<!-- Node25&#45;&gt;Node9 -->
<g id="edge25" class="edge">
<title>Node25&#45;&gt;Node9</title>
<path fill="none" stroke="#9a32cd" stroke-dasharray="5,2" d="M619.7271,-89.1105C649.4317,-87.8936 689.1065,-91.7984 712,-116.7666 743.0554,-150.6365 704.3662,-284.6286 730,-322.7666 732.578,-326.6022 736.1795,-329.7075 740.1317,-332.208"/>
<polygon fill="#9a32cd" stroke="#9a32cd" points="619.4461,-85.6211 609.6799,-89.7284 619.8759,-92.6079 619.4461,-85.6211"/>
<text text-anchor="middle" x="686" y="-119.7666" font-family="Helvetica,sans-Serif" font-size="10.00" fill="#000000"> PkgP</text>
</g>
<!-- Node26 -->
<g id="node24" class="node">
<title>Node26</title>
<g id="a_node24"><a xlink:href="classMMap.xhtml" target="_top" xlink:title="MMap">
<polygon fill="#ffffff" stroke="#000000" points="558.5,-8.2666 558.5,-27.2666 603.5,-27.2666 603.5,-8.2666 558.5,-8.2666"/>
<text text-anchor="middle" x="581" y="-15.2666" font-family="Helvetica,sans-Serif" font-size="10.00" fill="#000000">MMap</text>
</a>
</g>
</g>
<!-- Node26&#45;&gt;Node9 -->
<g id="edge26" class="edge">
<title>Node26&#45;&gt;Node9</title>
<path fill="none" stroke="#9a32cd" stroke-dasharray="5,2" d="M613.7147,-10.4613C643.7288,-5.8848 687.1783,-5.0001 712,-30.7666 757.1041,-77.5875 694.4273,-268.3502 730,-322.7666 732.5287,-326.6349 736.1056,-329.7566 740.0485,-332.2631"/>
<polygon fill="#9a32cd" stroke="#9a32cd" points="612.966,-7.0388 603.7113,-12.1964 614.1623,-13.9358 612.966,-7.0388"/>
<text text-anchor="middle" x="686" y="-33.7666" font-family="Helvetica,sans-Serif" font-size="10.00" fill="#000000"> Map</text>
</g>
<!-- Node27&#45;&gt;Node26 -->
<g id="edge27" class="edge">
<title>Node27&#45;&gt;Node26</title>
<path fill="none" stroke="#9a32cd" stroke-dasharray="5,2" d="M391.3059,-17.7666C436.8339,-17.7666 518.7281,-17.7666 558.3306,-17.7666"/>
<polygon fill="#9a32cd" stroke="#9a32cd" points="391.0979,-14.2667 381.0978,-17.7666 391.0978,-21.2667 391.0979,-14.2667"/>
<text text-anchor="middle" x="450.5" y="-20.7666" font-family="Helvetica,sans-Serif" font-size="10.00" fill="#000000"> SyncToFd</text>
</g>
<!-- Node28 -->
<g id="node26" class="node">
<title>Node28</title>
<g id="a_node26"><a xlink:href="structpkgDepCache_1_1StateCache.xhtml" target="_top" xlink:title="StateCache">
<polygon fill="#ffffff" stroke="#000000" points="731,-294.2666 731,-313.2666 803,-313.2666 803,-294.2666 731,-294.2666"/>
<text text-anchor="middle" x="767" y="-301.2666" font-family="Helvetica,sans-Serif" font-size="10.00" fill="#000000">StateCache</text>
</a>
</g>
</g>
<!-- Node28&#45;&gt;Node7 -->
<g id="edge29" class="edge">
<title>Node28&#45;&gt;Node7</title>
<path fill="none" stroke="#9a32cd" stroke-dasharray="5,2" d="M813.1919,-309.7829C841.1843,-313.95 877.4611,-320.28 909,-328.7666 921.4279,-332.1108 934.9124,-336.9414 945.9442,-341.2247"/>
<polygon fill="#9a32cd" stroke="#9a32cd" points="813.6767,-306.3166 803.2779,-308.3455 812.6722,-313.2442 813.6767,-306.3166"/>
<text text-anchor="middle" x="865.5" y="-331.7666" font-family="Helvetica,sans-Serif" font-size="10.00" fill="#000000"> PkgState</text>
</g>
<!-- Node29&#45;&gt;Node4 -->
<g id="edge32" class="edge">
<title>Node29&#45;&gt;Node4</title>
<path fill="none" stroke="#9a32cd" stroke-dasharray="5,2" d="M512.5403,-693.1737C560.0276,-693.4505 627.1496,-693.7666 686,-693.7666 686,-693.7666 686,-693.7666 1132.5,-693.7666 1175.5154,-693.7666 1194.2517,-697.7902 1226,-668.7666 1287.5995,-612.454 1299.7113,-502.3789 1301.9923,-469.3553"/>
<polygon fill="#9a32cd" stroke="#9a32cd" points="512.4359,-689.6732 502.4153,-693.1136 512.3943,-696.673 512.4359,-689.6732"/>
<text text-anchor="middle" x="865.5" y="-696.7666" font-family="Helvetica,sans-Serif" font-size="10.00" fill="#000000"> disappearedPkgs</text>
</g>
<!-- Node30&#45;&gt;Node3 -->
<g id="edge36" class="edge">
<title>Node30&#45;&gt;Node3</title>
<path fill="none" stroke="#9a32cd" stroke-dasharray="5,2" d="M1085.1421,-262.2388C1160.9153,-272.4637 1346.5274,-297.5101 1427.8034,-308.4775"/>
<polygon fill="#9a32cd" stroke="#9a32cd" points="1085.5797,-258.7662 1075.2015,-260.8974 1084.6436,-265.7034 1085.5797,-258.7662"/>
<text text-anchor="middle" x="1208" y="-283.7666" font-family="Helvetica,sans-Serif" font-size="10.00" fill="#000000"> iPolicy</text>
</g>
<!-- Node31 -->
<g id="node29" class="node">
<title>Node31</title>
<g id="a_node29"><a xlink:href="classpkgDepCache_1_1ActionGroup.xhtml" target="_top" xlink:title="Represents an active action group. ">
<polygon fill="#ffffff" stroke="#000000" points="1264,-247.2666 1264,-266.2666 1341,-266.2666 1341,-247.2666 1264,-247.2666"/>
<text text-anchor="middle" x="1302.5" y="-254.2666" font-family="Helvetica,sans-Serif" font-size="10.00" fill="#000000">ActionGroup</text>
</a>
</g>
</g>
<!-- Node31&#45;&gt;Node3 -->
<g id="edge38" class="edge">
<title>Node31&#45;&gt;Node3</title>
<path fill="none" stroke="#9a32cd" stroke-dasharray="5,2" d="M1351.2646,-257.1676C1370.1772,-258.7196 1391.6531,-262.2493 1410,-269.7666 1429.2026,-277.6346 1447.4687,-293.7995 1457.9387,-304.193"/>
<polygon fill="#9a32cd" stroke="#9a32cd" points="1351.2657,-253.6602 1341.0575,-256.4962 1350.8062,-260.6451 1351.2657,-253.6602"/>
<text text-anchor="middle" x="1394.5" y="-272.7666" font-family="Helvetica,sans-Serif" font-size="10.00" fill="#000000"> group</text>
</g>
</g>
</svg>
        <g id="navigator" transform="translate(0 0)" fill="#404254">
                <rect fill="#f2f5e9" fill-opacity="0.5" stroke="#606060" stroke-width=".5" x="0" y="0" width="60" height="60"/>
                <use id="zoomplus" xlink:href="#zoomPlus" x="17" y="9" onmousedown="handleZoom(evt,'in')"/>
                <use id="zoomminus" xlink:href="#zoomMin" x="42" y="9" onmousedown="handleZoom(evt,'out')"/>
                <use id="reset" xlink:href="#resetDef" x="30" y="36" onmousedown="handleReset()"/>
                <g id="arrowUp" xlink:href="#dirArrow" transform="translate(30 24)" onmousedown="handlePan(0,-1)">
                  <use xlink:href="#rim" fill="#404040">
                        <set attributeName="fill" to="#808080" begin="arrowUp.mouseover" end="arrowUp.mouseout"/>
                  </use>
                  <path fill="none" stroke="white" stroke-width="1.5" d="M0,-3.0v7 M-2.5,-0.5L0,-3.0L2.5,-0.5"/>
                </g>
                <g id="arrowRight" xlink:href="#dirArrow" transform="rotate(90) translate(36 -43)" onmousedown="handlePan(1,0)">
                  <use xlink:href="#rim" fill="#404040">
                        <set attributeName="fill" to="#808080" begin="arrowRight.mouseover" end="arrowRight.mouseout"/>
                  </use>
                  <path fill="none" stroke="white" stroke-width="1.5" d="M0,-3.0v7 M-2.5,-0.5L0,-3.0L2.5,-0.5"/>
                </g>
                <g id="arrowDown" xlink:href="#dirArrow" transform="rotate(180) translate(-30 -48)" onmousedown="handlePan(0,1)">
                  <use xlink:href="#rim" fill="#404040">
                        <set attributeName="fill" to="#808080" begin="arrowDown.mouseover" end="arrowDown.mouseout"/>
                  </use>
                  <path fill="none" stroke="white" stroke-width="1.5" d="M0,-3.0v7 M-2.5,-0.5L0,-3.0L2.5,-0.5"/>
                </g>
                <g id="arrowLeft" xlink:href="#dirArrow" transform="rotate(270) translate(-36 17)" onmousedown="handlePan(-1,0)">
                  <use xlink:href="#rim" fill="#404040">
                        <set attributeName="fill" to="#808080" begin="arrowLeft.mouseover" end="arrowLeft.mouseout"/>
                  </use>
                  <path fill="none" stroke="white" stroke-width="1.5" d="M0,-3.0v7 M-2.5,-0.5L0,-3.0L2.5,-0.5"/>
                </g>
        </g>
        <svg viewBox="0 0 15 15" width="100%" height="30px" preserveAspectRatio="xMaxYMin meet">
         <g id="arrow_out" transform="scale(0.3 0.3)">
          <a xlink:href="classpkgSimulate__coll__graph_org.svg" target="_base">
           <rect id="button" ry="5" rx="5" y="6" x="6" height="38" width="38"
                fill="#f2f5e9" fill-opacity="0.5" stroke="#606060" stroke-width="1.0"/>
           <path id="arrow"
             d="M 11.500037,31.436501 C 11.940474,20.09759 22.043105,11.32322 32.158766,21.979434 L 37.068811,17.246167 C 37.068811,17.246167 37.088388,32 37.088388,32 L 22.160133,31.978069 C 22.160133,31.978069 26.997745,27.140456 26.997745,27.140456 C 18.528582,18.264221 13.291696,25.230495 11.500037,31.436501 z"
             style="fill:#404040;"/>
          </a>
         </g>
        </svg>
</svg>
