<?xml version="1.0" encoding="UTF-8" standalone="no"?>
<!DOCTYPE svg PUBLIC "-//W3C//DTD SVG 1.1//EN"
 "http://www.w3.org/Graphics/SVG/1.1/DTD/svg11.dtd">
<!-- Generated by graphviz version 2.40.1 (20161225.0304)
 -->
<!-- Title: edspLikeIndex Pages: 1 -->
<svg width="158pt" height="252pt"
 viewBox="0.00 0.00 158.00 252.00" xmlns="http://www.w3.org/2000/svg" xmlns:xlink="http://www.w3.org/1999/xlink">
<g id="graph0" class="graph" transform="scale(1 1) rotate(0) translate(4 248)">
<title>edspLikeIndex</title>
<polygon fill="#ffffff" stroke="transparent" points="-4,4 -4,-248 154,-248 154,4 -4,4"/>
<!-- Node0 -->
<g id="node1" class="node">
<title>Node0</title>
<polygon fill="#bfbfbf" stroke="#000000" points="32,-56.5 32,-75.5 119,-75.5 119,-56.5 32,-56.5"/>
<text text-anchor="middle" x="75.5" y="-63.5" font-family="Helvetica,sans-Serif" font-size="10.00" fill="#000000">edspLikeIndex</text>
</g>
<!-- Node4 -->
<g id="node5" class="node">
<title>Node4</title>
<g id="a_node5"><a xlink:href="classedspIndex.xhtml" target="_top" xlink:title="edspIndex">
<polygon fill="#ffffff" stroke="#000000" points="0,-.5 0,-19.5 67,-19.5 67,-.5 0,-.5"/>
<text text-anchor="middle" x="33.5" y="-7.5" font-family="Helvetica,sans-Serif" font-size="10.00" fill="#000000">edspIndex</text>
</a>
</g>
</g>
<!-- Node0&#45;&gt;Node4 -->
<g id="edge4" class="edge">
<title>Node0&#45;&gt;Node4</title>
<path fill="none" stroke="#191970" d="M62.1584,-48.2112C55.0604,-38.7472 46.6097,-27.4797 40.732,-19.6427"/>
<polygon fill="#191970" stroke="#191970" points="59.3841,-50.3455 68.1842,-56.2455 64.9841,-46.1455 59.3841,-50.3455"/>
</g>
<!-- Node5 -->
<g id="node6" class="node">
<title>Node5</title>
<g id="a_node6"><a xlink:href="classeippIndex.xhtml" target="_top" xlink:title="eippIndex">
<polygon fill="#ffffff" stroke="#000000" points="85,-.5 85,-19.5 150,-19.5 150,-.5 85,-.5"/>
<text text-anchor="middle" x="117.5" y="-7.5" font-family="Helvetica,sans-Serif" font-size="10.00" fill="#000000">eippIndex</text>
</a>
</g>
</g>
<!-- Node0&#45;&gt;Node5 -->
<g id="edge5" class="edge">
<title>Node0&#45;&gt;Node5</title>
<path fill="none" stroke="#191970" d="M88.8416,-48.2112C95.9396,-38.7472 104.3903,-27.4797 110.268,-19.6427"/>
<polygon fill="#191970" stroke="#191970" points="86.0159,-46.1455 82.8158,-56.2455 91.6159,-50.3455 86.0159,-46.1455"/>
</g>
<!-- Node1 -->
<g id="node2" class="node">
<title>Node1</title>
<g id="a_node2"><a xlink:href="classpkgDebianIndexRealFile.xhtml" target="_top" xlink:title="pkgDebianIndexRealFile">
<polygon fill="#ffffff" stroke="#000000" points="8.5,-112.5 8.5,-131.5 142.5,-131.5 142.5,-112.5 8.5,-112.5"/>
<text text-anchor="middle" x="75.5" y="-119.5" font-family="Helvetica,sans-Serif" font-size="10.00" fill="#000000">pkgDebianIndexRealFile</text>
</a>
</g>
</g>
<!-- Node1&#45;&gt;Node0 -->
<g id="edge1" class="edge">
<title>Node1&#45;&gt;Node0</title>
<path fill="none" stroke="#191970" d="M75.5,-102.1575C75.5,-93.155 75.5,-82.9199 75.5,-75.6427"/>
<polygon fill="#191970" stroke="#191970" points="72.0001,-102.2455 75.5,-112.2455 79.0001,-102.2456 72.0001,-102.2455"/>
</g>
<!-- Node2 -->
<g id="node3" class="node">
<title>Node2</title>
<g id="a_node3"><a xlink:href="classpkgDebianIndexFile.xhtml" target="_top" xlink:title="pkgDebianIndexFile">
<polygon fill="#ffffff" stroke="#000000" points="19,-168.5 19,-187.5 132,-187.5 132,-168.5 19,-168.5"/>
<text text-anchor="middle" x="75.5" y="-175.5" font-family="Helvetica,sans-Serif" font-size="10.00" fill="#000000">pkgDebianIndexFile</text>
</a>
</g>
</g>
<!-- Node2&#45;&gt;Node1 -->
<g id="edge2" class="edge">
<title>Node2&#45;&gt;Node1</title>
<path fill="none" stroke="#191970" d="M75.5,-158.1575C75.5,-149.155 75.5,-138.9199 75.5,-131.6427"/>
<polygon fill="#191970" stroke="#191970" points="72.0001,-158.2455 75.5,-168.2455 79.0001,-158.2456 72.0001,-158.2455"/>
</g>
<!-- Node3 -->
<g id="node4" class="node">
<title>Node3</title>
<g id="a_node4"><a xlink:href="classpkgIndexFile.xhtml" target="_top" xlink:title="pkgIndexFile">
<polygon fill="#ffffff" stroke="#000000" points="36.5,-224.5 36.5,-243.5 114.5,-243.5 114.5,-224.5 36.5,-224.5"/>
<text text-anchor="middle" x="75.5" y="-231.5" font-family="Helvetica,sans-Serif" font-size="10.00" fill="#000000">pkgIndexFile</text>
</a>
</g>
</g>
<!-- Node3&#45;&gt;Node2 -->
<g id="edge3" class="edge">
<title>Node3&#45;&gt;Node2</title>
<path fill="none" stroke="#191970" d="M75.5,-214.1575C75.5,-205.155 75.5,-194.9199 75.5,-187.6427"/>
<polygon fill="#191970" stroke="#191970" points="72.0001,-214.2455 75.5,-224.2455 79.0001,-214.2456 72.0001,-214.2455"/>
</g>
</g>
</svg>
