<?xml version="1.0" encoding="UTF-8" standalone="no"?>
<!DOCTYPE svg PUBLIC "-//W3C//DTD SVG 1.1//EN"
 "http://www.w3.org/Graphics/SVG/1.1/DTD/svg11.dtd">
<!-- Generated by graphviz version 2.40.1 (20161225.0304)
 -->
<!-- Title: debIFTypeTrans Pages: 1 -->
<svg width="143pt" height="142pt"
 viewBox="0.00 0.00 143.00 142.00" xmlns="http://www.w3.org/2000/svg" xmlns:xlink="http://www.w3.org/1999/xlink">
<g id="graph0" class="graph" transform="scale(1 1) rotate(0) translate(4 138)">
<title>debIFTypeTrans</title>
<polygon fill="#ffffff" stroke="transparent" points="-4,4 -4,-138 139,-138 139,4 -4,4"/>
<!-- Node3 -->
<g id="node1" class="node">
<title>Node3</title>
<polygon fill="#bfbfbf" stroke="#000000" points="0,-.5 0,-19.5 91,-19.5 91,-.5 0,-.5"/>
<text text-anchor="middle" x="45.5" y="-7.5" font-family="Helvetica,sans-Serif" font-size="10.00" fill="#000000">debIFTypeTrans</text>
</g>
<!-- Node4 -->
<g id="node2" class="node">
<title>Node4</title>
<g id="a_node2"><a xlink:href="classdebIFTypePkg.xhtml" target="_top" xlink:title="debIFTypePkg">
<polygon fill="#ffffff" stroke="#000000" points="4,-57.5 4,-76.5 87,-76.5 87,-57.5 4,-57.5"/>
<text text-anchor="middle" x="45.5" y="-64.5" font-family="Helvetica,sans-Serif" font-size="10.00" fill="#000000">debIFTypePkg</text>
</a>
</g>
</g>
<!-- Node4&#45;&gt;Node3 -->
<g id="edge1" class="edge">
<title>Node4&#45;&gt;Node3</title>
<path fill="none" stroke="#191970" d="M45.5,-47.2342C45.5,-37.8491 45.5,-27.0651 45.5,-19.5265"/>
<polygon fill="#191970" stroke="#191970" points="42.0001,-47.3307 45.5,-57.3307 49.0001,-47.3308 42.0001,-47.3307"/>
</g>
<!-- Node5 -->
<g id="node3" class="node">
<title>Node5</title>
<g id="a_node3"><a xlink:href="classpkgIndexFile_1_1Type.xhtml" target="_top" xlink:title="Type">
<polygon fill="#ffffff" stroke="#000000" points="26,-114.5 26,-133.5 65,-133.5 65,-114.5 26,-114.5"/>
<text text-anchor="middle" x="45.5" y="-121.5" font-family="Helvetica,sans-Serif" font-size="10.00" fill="#000000">Type</text>
</a>
</g>
</g>
<!-- Node5&#45;&gt;Node4 -->
<g id="edge2" class="edge">
<title>Node5&#45;&gt;Node4</title>
<path fill="none" stroke="#191970" d="M45.5,-104.2342C45.5,-94.8491 45.5,-84.0651 45.5,-76.5265"/>
<polygon fill="#191970" stroke="#191970" points="42.0001,-104.3307 45.5,-114.3307 49.0001,-104.3308 42.0001,-104.3307"/>
</g>
<!-- Node5&#45;&gt;Node5 -->
<g id="edge3" class="edge">
<title>Node5&#45;&gt;Node5</title>
<path fill="none" stroke="#9a32cd" stroke-dasharray="5,2" d="M75.3313,-128.7918C79.8972,-128.0633 83,-126.4661 83,-124 83,-119.9531 74.6443,-118.2458 65.1788,-118.8782"/>
<polygon fill="#9a32cd" stroke="#9a32cd" points="75.0598,-125.2987 65.1788,-129.1218 75.2873,-132.295 75.0598,-125.2987"/>
<text text-anchor="middle" x="109" y="-121.5" font-family="Helvetica,sans-Serif" font-size="10.00" fill="#000000"> GlobalList</text>
</g>
</g>
</svg>
