<?xml version="1.0" encoding="UTF-8" standalone="no"?>
<!DOCTYPE svg PUBLIC "-//W3C//DTD SVG 1.1//EN"
 "http://www.w3.org/Graphics/SVG/1.1/DTD/svg11.dtd">
<!-- Generated by graphviz version 2.40.1 (20161225.0304)
 -->
<!-- Title: pkgCache::DescIterator Pages: 1 -->
<!--zoomable 655 -->
<svg id="main" version="1.1" xmlns="http://www.w3.org/2000/svg" xmlns:xlink="http://www.w3.org/1999/xlink" xml:space="preserve" onload="init(evt)">
<style type="text/css"><![CDATA[
.edge:hover path { stroke: red; }
.edge:hover polygon { stroke: red; fill: red; }
]]></style>
<script type="text/javascript"><![CDATA[
var edges = document.getElementsByTagName('g');
if (edges && edges.length) {
  for (var i=0;i<edges.length;i++) {
    if (edges[i].id.substr(0,4)=='edge') {
      edges[i].setAttribute('class','edge');
    }
  }
}
]]></script>
        <defs>
                <circle id="rim" cx="0" cy="0" r="7"/>
                <circle id="rim2" cx="0" cy="0" r="3.5"/>
                <g id="zoomPlus">
                        <use xlink:href="#rim" fill="#404040">
                                <set attributeName="fill" to="#808080" begin="zoomplus.mouseover" end="zoomplus.mouseout"/>
                        </use>
                        <path d="M-4,0h8M0,-4v8" fill="none" stroke="white" stroke-width="1.5" pointer-events="none"/>
                </g>
                <g id="zoomMin">
                        <use xlink:href="#rim" fill="#404040">
                                <set attributeName="fill" to="#808080" begin="zoomminus.mouseover" end="zoomminus.mouseout"/>
                        </use>
                        <path d="M-4,0h8" fill="none" stroke="white" stroke-width="1.5" pointer-events="none"/>
                </g>
                <g id="dirArrow">
                        <path fill="none" stroke="white" stroke-width="1.5" d="M0,-3.0v7 M-2.5,-0.5L0,-3.0L2.5,-0.5"/>
                </g>
               <g id="resetDef">
                       <use xlink:href="#rim2" fill="#404040">
                               <set attributeName="fill" to="#808080" begin="reset.mouseover" end="reset.mouseout"/>
                       </use>
               </g>
        </defs>

<script type="text/javascript">
var viewWidth = 1198;
var viewHeight = 655;
var sectionId = 'dynsection-1';
</script>
<script xlink:href="svgpan.js"/>
<svg id="graph" class="graph">
<g id="viewport">
<title>pkgCache::DescIterator</title>
<polygon fill="#ffffff" stroke="transparent" points="-4,4 -4,-650.5 1194,-650.5 1194,4 -4,4"/>
<!-- Node3 -->
<g id="node1" class="node">
<title>Node3</title>
<polygon fill="#bfbfbf" stroke="#000000" points="1059,-576.5 1059,-595.5 1190,-595.5 1190,-576.5 1059,-576.5"/>
<text text-anchor="middle" x="1124.5" y="-583.5" font-family="Helvetica,sans-Serif" font-size="10.00" fill="#000000">pkgCache::DescIterator</text>
</g>
<!-- Node4 -->
<g id="node2" class="node">
<title>Node4</title>
<g id="a_node2"><a xlink:href="classpkgCache_1_1Iterator.xhtml" target="_top" xlink:title="Iterator\&lt; Description,\l DescIterator \&gt;">
<polygon fill="#ffffff" stroke="#000000" points="900,-571 900,-601 1022,-601 1022,-571 900,-571"/>
<text text-anchor="start" x="908" y="-589" font-family="Helvetica,sans-Serif" font-size="10.00" fill="#000000">Iterator&lt; Description,</text>
<text text-anchor="middle" x="961" y="-578" font-family="Helvetica,sans-Serif" font-size="10.00" fill="#000000"> DescIterator &gt;</text>
</a>
</g>
</g>
<!-- Node4&#45;&gt;Node3 -->
<g id="edge1" class="edge">
<title>Node4&#45;&gt;Node3</title>
<path fill="none" stroke="#191970" d="M1032.5614,-586C1041.3466,-586 1050.2912,-586 1058.9808,-586"/>
<polygon fill="#191970" stroke="#191970" points="1032.3466,-582.5001 1022.3465,-586 1032.3465,-589.5001 1032.3466,-582.5001"/>
</g>
<!-- Node5 -->
<g id="node3" class="node">
<title>Node5</title>
<polygon fill="#ffffff" stroke="#bfbfbf" points="677,-616 677,-646 829,-646 829,-616 677,-616"/>
<text text-anchor="start" x="685" y="-634" font-family="Helvetica,sans-Serif" font-size="10.00" fill="#000000">iterator&lt; std::forward</text>
<text text-anchor="middle" x="753" y="-623" font-family="Helvetica,sans-Serif" font-size="10.00" fill="#000000">_iterator_tag, Description &gt;</text>
</g>
<!-- Node5&#45;&gt;Node4 -->
<g id="edge2" class="edge">
<title>Node5&#45;&gt;Node4</title>
<path fill="none" stroke="#191970" d="M832.3677,-613.8291C854.7537,-608.986 878.7552,-603.7933 899.8913,-599.2206"/>
<polygon fill="#191970" stroke="#191970" points="831.5839,-610.4176 822.5502,-615.9531 833.0642,-617.2593 831.5839,-610.4176"/>
</g>
<!-- Node6 -->
<g id="node4" class="node">
<title>Node6</title>
<g id="a_node4"><a xlink:href="structpkgCache_1_1Description.xhtml" target="_top" xlink:title="datamember of a linked list of available description for a version ">
<polygon fill="#ffffff" stroke="#000000" points="492,-569.5 492,-588.5 564,-588.5 564,-569.5 492,-569.5"/>
<text text-anchor="middle" x="528" y="-576.5" font-family="Helvetica,sans-Serif" font-size="10.00" fill="#000000">Description</text>
</a>
</g>
</g>
<!-- Node6&#45;&gt;Node4 -->
<g id="edge3" class="edge">
<title>Node6&#45;&gt;Node4</title>
<path fill="none" stroke="#9a32cd" stroke-dasharray="5,2" d="M574.2533,-579.7477C652.8327,-581.0181 812.3797,-583.5974 899.9963,-585.0138"/>
<polygon fill="#9a32cd" stroke="#9a32cd" points="574.2279,-576.247 564.1726,-579.5848 574.1147,-583.2461 574.2279,-576.247"/>
<text text-anchor="middle" x="753" y="-586" font-family="Helvetica,sans-Serif" font-size="10.00" fill="#000000"> S</text>
</g>
<!-- Node7 -->
<g id="node5" class="node">
<title>Node7</title>
<g id="a_node5"><a xlink:href="classpkgCache.xhtml" target="_top" xlink:title="pkgCache">
<polygon fill="#ffffff" stroke="#000000" points="720.5,-314.5 720.5,-333.5 785.5,-333.5 785.5,-314.5 720.5,-314.5"/>
<text text-anchor="middle" x="753" y="-321.5" font-family="Helvetica,sans-Serif" font-size="10.00" fill="#000000">pkgCache</text>
</a>
</g>
</g>
<!-- Node6&#45;&gt;Node7 -->
<g id="edge7" class="edge">
<title>Node6&#45;&gt;Node7</title>
<path fill="none" stroke="#9a32cd" stroke-dasharray="5,2" d="M574.0459,-571.0021C601.5554,-564.1651 635.5881,-551.8245 659,-530 720.8234,-472.3685 745.1045,-366.2404 751.2963,-333.7245"/>
<polygon fill="#9a32cd" stroke="#9a32cd" points="573.187,-567.6083 564.2378,-573.2794 574.7703,-574.427 573.187,-567.6083"/>
<text text-anchor="middle" x="633" y="-563" font-family="Helvetica,sans-Serif" font-size="10.00" fill="#000000"> DescP</text>
</g>
<!-- Node7&#45;&gt;Node4 -->
<g id="edge4" class="edge">
<title>Node7&#45;&gt;Node4</title>
<path fill="none" stroke="#9a32cd" stroke-dasharray="5,2" d="M767.0148,-341.6532C805.5513,-390.1944 912.6443,-525.0905 948.8554,-570.7025"/>
<polygon fill="#9a32cd" stroke="#9a32cd" points="769.6085,-339.2912 760.6495,-333.6354 764.1261,-343.6437 769.6085,-339.2912"/>
<text text-anchor="middle" x="864.5" y="-489" font-family="Helvetica,sans-Serif" font-size="10.00" fill="#000000"> Owner</text>
</g>
<!-- Node8 -->
<g id="node6" class="node">
<title>Node8</title>
<g id="a_node6"><a xlink:href="structpkgCache_1_1DependencyData.xhtml" target="_top" xlink:title="information for a single dependency record ">
<polygon fill="#ffffff" stroke="#000000" points="477.5,-523.5 477.5,-542.5 578.5,-542.5 578.5,-523.5 477.5,-523.5"/>
<text text-anchor="middle" x="528" y="-530.5" font-family="Helvetica,sans-Serif" font-size="10.00" fill="#000000">DependencyData</text>
</a>
</g>
</g>
<!-- Node8&#45;&gt;Node7 -->
<g id="edge5" class="edge">
<title>Node8&#45;&gt;Node7</title>
<path fill="none" stroke="#9a32cd" stroke-dasharray="5,2" d="M588.4977,-522.2058C612.5083,-515.5301 639.0862,-504.8751 659,-488 711.5777,-443.4453 741.1489,-361.6305 750.0784,-333.6669"/>
<polygon fill="#9a32cd" stroke="#9a32cd" points="587.5398,-518.8385 578.7437,-524.7444 589.3029,-525.6128 587.5398,-518.8385"/>
<text text-anchor="middle" x="633" y="-518" font-family="Helvetica,sans-Serif" font-size="10.00" fill="#000000"> DepDataP</text>
</g>
<!-- Node9 -->
<g id="node7" class="node">
<title>Node9</title>
<g id="a_node7"><a xlink:href="structpkgCache_1_1Dependency.xhtml" target="_top" xlink:title="Dependency">
<polygon fill="#ffffff" stroke="#000000" points="489.5,-485.5 489.5,-504.5 566.5,-504.5 566.5,-485.5 489.5,-485.5"/>
<text text-anchor="middle" x="528" y="-492.5" font-family="Helvetica,sans-Serif" font-size="10.00" fill="#000000">Dependency</text>
</a>
</g>
</g>
<!-- Node9&#45;&gt;Node7 -->
<g id="edge6" class="edge">
<title>Node9&#45;&gt;Node7</title>
<path fill="none" stroke="#9a32cd" stroke-dasharray="5,2" d="M576.3848,-484.4149C602.7539,-476.8954 634.8389,-464.736 659,-446 701.6819,-412.9017 735.5327,-356.0771 747.9144,-333.5769"/>
<polygon fill="#9a32cd" stroke="#9a32cd" points="575.3212,-481.0769 566.5868,-487.0737 577.1545,-487.8326 575.3212,-481.0769"/>
<text text-anchor="middle" x="633" y="-476" font-family="Helvetica,sans-Serif" font-size="10.00" fill="#000000"> DepP</text>
</g>
<!-- Node10 -->
<g id="node8" class="node">
<title>Node10</title>
<g id="a_node8"><a xlink:href="structpkgCache_1_1Header.xhtml" target="_top" xlink:title="Header">
<polygon fill="#ffffff" stroke="#000000" points="502,-447.5 502,-466.5 554,-466.5 554,-447.5 502,-447.5"/>
<text text-anchor="middle" x="528" y="-454.5" font-family="Helvetica,sans-Serif" font-size="10.00" fill="#000000">Header</text>
</a>
</g>
</g>
<!-- Node10&#45;&gt;Node7 -->
<g id="edge8" class="edge">
<title>Node10&#45;&gt;Node7</title>
<path fill="none" stroke="#9a32cd" stroke-dasharray="5,2" d="M564.0554,-446.3649C572.3003,-443.7684 580.992,-440.8992 589,-438 620.6641,-426.5365 630.5395,-427.0007 659,-409 694.3304,-386.6542 728.9964,-350.6564 744.5228,-333.5802"/>
<polygon fill="#9a32cd" stroke="#9a32cd" points="562.817,-443.0842 554.296,-449.3805 564.8836,-449.7722 562.817,-443.0842"/>
<text text-anchor="middle" x="633" y="-434" font-family="Helvetica,sans-Serif" font-size="10.00" fill="#000000"> HeaderP</text>
</g>
<!-- Node11 -->
<g id="node9" class="node">
<title>Node11</title>
<g id="a_node9"><a xlink:href="structDynamicMMap_1_1Pool.xhtml" target="_top" xlink:title="Pool">
<polygon fill="#ffffff" stroke="#000000" points="340,-447.5 340,-466.5 378,-466.5 378,-447.5 340,-447.5"/>
<text text-anchor="middle" x="359" y="-454.5" font-family="Helvetica,sans-Serif" font-size="10.00" fill="#000000">Pool</text>
</a>
</g>
</g>
<!-- Node11&#45;&gt;Node10 -->
<g id="edge9" class="edge">
<title>Node11&#45;&gt;Node10</title>
<path fill="none" stroke="#9a32cd" stroke-dasharray="5,2" d="M388.1285,-457C420.1301,-457 471.0611,-457 501.8334,-457"/>
<polygon fill="#9a32cd" stroke="#9a32cd" points="388.058,-453.5001 378.0579,-457 388.0579,-460.5001 388.058,-453.5001"/>
<text text-anchor="middle" x="424" y="-460" font-family="Helvetica,sans-Serif" font-size="10.00" fill="#000000"> Pools</text>
</g>
<!-- Node12 -->
<g id="node10" class="node">
<title>Node12</title>
<g id="a_node10"><a xlink:href="structpkgCache_1_1PackageFile.xhtml" target="_top" xlink:title="stores information about the files used to generate the cache ">
<polygon fill="#ffffff" stroke="#000000" points="491,-409.5 491,-428.5 565,-428.5 565,-409.5 491,-409.5"/>
<text text-anchor="middle" x="528" y="-416.5" font-family="Helvetica,sans-Serif" font-size="10.00" fill="#000000">PackageFile</text>
</a>
</g>
</g>
<!-- Node12&#45;&gt;Node7 -->
<g id="edge10" class="edge">
<title>Node12&#45;&gt;Node7</title>
<path fill="none" stroke="#9a32cd" stroke-dasharray="5,2" d="M568.5327,-406.391C575.3657,-404.2608 582.3854,-402.0696 589,-400 620.1236,-390.262 629.1301,-391.0881 659,-378 688.4776,-365.0838 720.5161,-345.329 738.5419,-333.6345"/>
<polygon fill="#9a32cd" stroke="#9a32cd" points="567.2303,-403.1307 558.7242,-409.447 569.3126,-409.8139 567.2303,-403.1307"/>
<text text-anchor="middle" x="633" y="-397" font-family="Helvetica,sans-Serif" font-size="10.00" fill="#000000"> PkgFileP</text>
</g>
<!-- Node13 -->
<g id="node11" class="node">
<title>Node13</title>
<g id="a_node11"><a xlink:href="structpkgCache_1_1ReleaseFile.xhtml" target="_top" xlink:title="stores information about the release files used to generate the cache ">
<polygon fill="#ffffff" stroke="#000000" points="492.5,-371.5 492.5,-390.5 563.5,-390.5 563.5,-371.5 492.5,-371.5"/>
<text text-anchor="middle" x="528" y="-378.5" font-family="Helvetica,sans-Serif" font-size="10.00" fill="#000000">ReleaseFile</text>
</a>
</g>
</g>
<!-- Node13&#45;&gt;Node7 -->
<g id="edge11" class="edge">
<title>Node13&#45;&gt;Node7</title>
<path fill="none" stroke="#9a32cd" stroke-dasharray="5,2" d="M573.7358,-371.1684C598.9643,-365.5841 630.8035,-358.2723 659,-351 679.8804,-345.6146 703.1778,-338.9276 721.3552,-333.5558"/>
<polygon fill="#9a32cd" stroke="#9a32cd" points="572.7258,-367.8068 563.7113,-373.3736 574.2297,-374.6433 572.7258,-367.8068"/>
<text text-anchor="middle" x="633" y="-366" font-family="Helvetica,sans-Serif" font-size="10.00" fill="#000000"> RlsFileP</text>
</g>
<!-- Node14 -->
<g id="node12" class="node">
<title>Node14</title>
<g id="a_node12"><a xlink:href="structpkgCache_1_1DescFile.xhtml" target="_top" xlink:title="associates a description with a Translation file ">
<polygon fill="#ffffff" stroke="#000000" points="499.5,-333.5 499.5,-352.5 556.5,-352.5 556.5,-333.5 499.5,-333.5"/>
<text text-anchor="middle" x="528" y="-340.5" font-family="Helvetica,sans-Serif" font-size="10.00" fill="#000000">DescFile</text>
</a>
</g>
</g>
<!-- Node14&#45;&gt;Node7 -->
<g id="edge12" class="edge">
<title>Node14&#45;&gt;Node7</title>
<path fill="none" stroke="#9a32cd" stroke-dasharray="5,2" d="M567.1145,-339.697C610.4365,-336.0387 679.5158,-330.2053 720.1448,-326.7744"/>
<polygon fill="#9a32cd" stroke="#9a32cd" points="566.6242,-336.2259 556.9542,-340.555 567.2133,-343.201 566.6242,-336.2259"/>
<text text-anchor="middle" x="633" y="-339" font-family="Helvetica,sans-Serif" font-size="10.00" fill="#000000"> DescFileP</text>
</g>
<!-- Node15 -->
<g id="node13" class="node">
<title>Node15</title>
<g id="a_node13"><a xlink:href="structpkgCache_1_1Provides.xhtml" target="_top" xlink:title="handles virtual packages ">
<polygon fill="#ffffff" stroke="#000000" points="498.5,-295.5 498.5,-314.5 557.5,-314.5 557.5,-295.5 498.5,-295.5"/>
<text text-anchor="middle" x="528" y="-302.5" font-family="Helvetica,sans-Serif" font-size="10.00" fill="#000000">Provides</text>
</a>
</g>
</g>
<!-- Node15&#45;&gt;Node7 -->
<g id="edge13" class="edge">
<title>Node15&#45;&gt;Node7</title>
<path fill="none" stroke="#9a32cd" stroke-dasharray="5,2" d="M568.0928,-308.3856C611.5776,-312.0577 680.1588,-317.849 720.4437,-321.2508"/>
<polygon fill="#9a32cd" stroke="#9a32cd" points="568.1373,-304.877 557.8783,-307.5231 567.5483,-311.8522 568.1373,-304.877"/>
<text text-anchor="middle" x="633" y="-318" font-family="Helvetica,sans-Serif" font-size="10.00" fill="#000000"> ProvideP</text>
</g>
<!-- Node16 -->
<g id="node14" class="node">
<title>Node16</title>
<g id="a_node14"><a xlink:title="STL class. ">
<polygon fill="#ffffff" stroke="#bfbfbf" points="156,-238.5 156,-257.5 200,-257.5 200,-238.5 156,-238.5"/>
<text text-anchor="middle" x="178" y="-245.5" font-family="Helvetica,sans-Serif" font-size="10.00" fill="#000000">string</text>
</a>
</g>
</g>
<!-- Node16&#45;&gt;Node7 -->
<g id="edge14" class="edge">
<title>Node16&#45;&gt;Node7</title>
<path fill="none" stroke="#9a32cd" stroke-dasharray="5,2" d="M210.6041,-252.1731C213.1056,-252.4634 215.5927,-252.7426 218,-253 382.6014,-270.6025 425.5274,-259.9203 589,-286 635.0342,-293.3441 687.3682,-306.2879 720.282,-315.0027"/>
<polygon fill="#9a32cd" stroke="#9a32cd" points="210.7558,-248.6661 200.4087,-250.9439 209.9179,-255.6158 210.7558,-248.6661"/>
<text text-anchor="middle" x="424" y="-272" font-family="Helvetica,sans-Serif" font-size="10.00" fill="#000000"> CacheFile</text>
</g>
<!-- Node24 -->
<g id="node22" class="node">
<title>Node24</title>
<g id="a_node22"><a xlink:href="classFileFd.xhtml" target="_top" xlink:title="FileFd">
<polygon fill="#ffffff" stroke="#000000" points="337,-219.5 337,-238.5 381,-238.5 381,-219.5 337,-219.5"/>
<text text-anchor="middle" x="359" y="-226.5" font-family="Helvetica,sans-Serif" font-size="10.00" fill="#000000">FileFd</text>
</a>
</g>
</g>
<!-- Node16&#45;&gt;Node24 -->
<g id="edge24" class="edge">
<title>Node16&#45;&gt;Node24</title>
<path fill="none" stroke="#9a32cd" stroke-dasharray="5,2" d="M205.8134,-234.577C209.8246,-233.1162 213.9625,-231.8522 218,-231 259.2006,-222.3034 308.6875,-224.39 336.7274,-226.6957"/>
<polygon fill="#9a32cd" stroke="#9a32cd" points="204.1663,-231.469 196.2332,-238.4915 206.8141,-237.949 204.1663,-231.469"/>
<text text-anchor="middle" x="268.5" y="-245" font-family="Helvetica,sans-Serif" font-size="10.00" fill="#000000"> TemporaryFileName</text>
<text text-anchor="middle" x="268.5" y="-234" font-family="Helvetica,sans-Serif" font-size="10.00" fill="#000000">FileName</text>
</g>
<!-- Node17 -->
<g id="node15" class="node">
<title>Node17</title>
<g id="a_node15"><a xlink:title="STL class. ">
<polygon fill="#ffffff" stroke="#bfbfbf" points="0,-238.5 0,-257.5 119,-257.5 119,-238.5 0,-238.5"/>
<text text-anchor="middle" x="59.5" y="-245.5" font-family="Helvetica,sans-Serif" font-size="10.00" fill="#000000">basic_string&lt; char &gt;</text>
</a>
</g>
</g>
<!-- Node17&#45;&gt;Node16 -->
<g id="edge15" class="edge">
<title>Node17&#45;&gt;Node16</title>
<path fill="none" stroke="#191970" d="M129.2118,-248C138.8284,-248 148.0652,-248 155.8653,-248"/>
<polygon fill="#191970" stroke="#191970" points="129.0972,-244.5001 119.0972,-248 129.0971,-251.5001 129.0972,-244.5001"/>
</g>
<!-- Node18 -->
<g id="node16" class="node">
<title>Node18</title>
<g id="a_node16"><a xlink:href="structpkgCache_1_1Group.xhtml" target="_top" xlink:title="groups architecture depending packages together ">
<polygon fill="#ffffff" stroke="#000000" points="505,-181.5 505,-200.5 551,-200.5 551,-181.5 505,-181.5"/>
<text text-anchor="middle" x="528" y="-188.5" font-family="Helvetica,sans-Serif" font-size="10.00" fill="#000000">Group</text>
</a>
</g>
</g>
<!-- Node18&#45;&gt;Node7 -->
<g id="edge16" class="edge">
<title>Node18&#45;&gt;Node7</title>
<path fill="none" stroke="#9a32cd" stroke-dasharray="5,2" d="M561.3953,-190.3962C589.2023,-191.2899 628.9621,-195.9105 659,-213 703.1173,-238.0997 735.9049,-292.2132 747.9569,-314.3066"/>
<polygon fill="#9a32cd" stroke="#9a32cd" points="561.4291,-186.8964 551.3684,-190.218 561.3046,-193.8953 561.4291,-186.8964"/>
<text text-anchor="middle" x="633" y="-216" font-family="Helvetica,sans-Serif" font-size="10.00" fill="#000000"> GrpP</text>
</g>
<!-- Node19 -->
<g id="node17" class="node">
<title>Node19</title>
<g id="a_node17"><a xlink:href="classpkgVersioningSystem.xhtml" target="_top" xlink:title="pkgVersioningSystem">
<polygon fill="#ffffff" stroke="#000000" points="467,-114.5 467,-133.5 589,-133.5 589,-114.5 467,-114.5"/>
<text text-anchor="middle" x="528" y="-121.5" font-family="Helvetica,sans-Serif" font-size="10.00" fill="#000000">pkgVersioningSystem</text>
</a>
</g>
</g>
<!-- Node19&#45;&gt;Node7 -->
<g id="edge17" class="edge">
<title>Node19&#45;&gt;Node7</title>
<path fill="none" stroke="#9a32cd" stroke-dasharray="5,2" d="M574.8776,-136.5909C601.6432,-145.4956 634.6175,-159.537 659,-180 706.1093,-219.5365 738.2691,-288.6871 749.0345,-314.1909"/>
<polygon fill="#9a32cd" stroke="#9a32cd" points="575.9157,-133.2483 565.3249,-133.5402 573.7861,-139.9165 575.9157,-133.2483"/>
<text text-anchor="middle" x="633" y="-183" font-family="Helvetica,sans-Serif" font-size="10.00" fill="#000000"> VS</text>
</g>
<!-- Node19&#45;&gt;Node19 -->
<g id="edge18" class="edge">
<title>Node19&#45;&gt;Node19</title>
<path fill="none" stroke="#9a32cd" stroke-dasharray="5,2" d="M508.7417,-143.4C510.0278,-148.3146 516.4473,-152 528,-152 546.4844,-152 551.8275,-142.5653 544.0294,-133.7571"/>
<polygon fill="#9a32cd" stroke="#9a32cd" points="512.1142,-144.3509 511.9706,-133.7571 505.4765,-142.1283 512.1142,-144.3509"/>
<text text-anchor="middle" x="528" y="-155" font-family="Helvetica,sans-Serif" font-size="10.00" fill="#000000"> GlobalList</text>
</g>
<!-- Node20 -->
<g id="node18" class="node">
<title>Node20</title>
<g id="a_node18"><a xlink:href="structpkgCache_1_1Version.xhtml" target="_top" xlink:title="information for a single version of a package ">
<polygon fill="#ffffff" stroke="#000000" points="501.5,-76.5 501.5,-95.5 554.5,-95.5 554.5,-76.5 501.5,-76.5"/>
<text text-anchor="middle" x="528" y="-83.5" font-family="Helvetica,sans-Serif" font-size="10.00" fill="#000000">Version</text>
</a>
</g>
</g>
<!-- Node20&#45;&gt;Node7 -->
<g id="edge19" class="edge">
<title>Node20&#45;&gt;Node7</title>
<path fill="none" stroke="#9a32cd" stroke-dasharray="5,2" d="M564.6475,-91.4178C593.4498,-97.3935 632.9272,-109.61 659,-134 716.2458,-187.5512 743.305,-283.5223 750.78,-314.2517"/>
<polygon fill="#9a32cd" stroke="#9a32cd" points="565.0434,-87.9301 554.5637,-89.4876 563.7273,-94.8053 565.0434,-87.9301"/>
<text text-anchor="middle" x="633" y="-137" font-family="Helvetica,sans-Serif" font-size="10.00" fill="#000000"> VerP</text>
</g>
<!-- Node21 -->
<g id="node19" class="node">
<title>Node21</title>
<g id="a_node19"><a xlink:href="structpkgCache_1_1VerFile.xhtml" target="_top" xlink:title="associates a version with a PackageFile ">
<polygon fill="#ffffff" stroke="#000000" points="503.5,-38.5 503.5,-57.5 552.5,-57.5 552.5,-38.5 503.5,-38.5"/>
<text text-anchor="middle" x="528" y="-45.5" font-family="Helvetica,sans-Serif" font-size="10.00" fill="#000000">VerFile</text>
</a>
</g>
</g>
<!-- Node21&#45;&gt;Node7 -->
<g id="edge20" class="edge">
<title>Node21&#45;&gt;Node7</title>
<path fill="none" stroke="#9a32cd" stroke-dasharray="5,2" d="M562.7255,-50.3968C591.7731,-54.1391 632.5888,-63.6872 659,-88 729.736,-153.1158 748.1647,-278.4687 752.0771,-314.2481"/>
<polygon fill="#9a32cd" stroke="#9a32cd" points="562.9319,-46.8982 552.6046,-49.2642 562.1533,-53.8547 562.9319,-46.8982"/>
<text text-anchor="middle" x="633" y="-91" font-family="Helvetica,sans-Serif" font-size="10.00" fill="#000000"> VerFileP</text>
</g>
<!-- Node22 -->
<g id="node20" class="node">
<title>Node22</title>
<g id="a_node20"><a xlink:href="structpkgCache_1_1Package.xhtml" target="_top" xlink:title="contains information for a single unique package ">
<polygon fill="#ffffff" stroke="#000000" points="499.5,-.5 499.5,-19.5 556.5,-19.5 556.5,-.5 499.5,-.5"/>
<text text-anchor="middle" x="528" y="-7.5" font-family="Helvetica,sans-Serif" font-size="10.00" fill="#000000">Package</text>
</a>
</g>
</g>
<!-- Node22&#45;&gt;Node7 -->
<g id="edge21" class="edge">
<title>Node22&#45;&gt;Node7</title>
<path fill="none" stroke="#9a32cd" stroke-dasharray="5,2" d="M566.9172,-10.9026C595.7679,-13.6008 634.2283,-21.7626 659,-45 700.938,-84.3404 741.7696,-270.0486 751.0436,-314.4479"/>
<polygon fill="#9a32cd" stroke="#9a32cd" points="567.0006,-7.3991 556.766,-10.138 566.4748,-14.3793 567.0006,-7.3991"/>
<text text-anchor="middle" x="633" y="-48" font-family="Helvetica,sans-Serif" font-size="10.00" fill="#000000"> PkgP</text>
</g>
<!-- Node23 -->
<g id="node21" class="node">
<title>Node23</title>
<g id="a_node21"><a xlink:href="classMMap.xhtml" target="_top" xlink:title="MMap">
<polygon fill="#ffffff" stroke="#000000" points="505.5,-219.5 505.5,-238.5 550.5,-238.5 550.5,-219.5 505.5,-219.5"/>
<text text-anchor="middle" x="528" y="-226.5" font-family="Helvetica,sans-Serif" font-size="10.00" fill="#000000">MMap</text>
</a>
</g>
</g>
<!-- Node23&#45;&gt;Node7 -->
<g id="edge22" class="edge">
<title>Node23&#45;&gt;Node7</title>
<path fill="none" stroke="#9a32cd" stroke-dasharray="5,2" d="M561.0365,-226.8336C588.3908,-226.2925 627.7023,-228.467 659,-242 697.1649,-258.5023 730.9575,-296.3762 745.4684,-314.2817"/>
<polygon fill="#9a32cd" stroke="#9a32cd" points="560.7005,-223.3427 550.822,-227.1724 560.9326,-230.3389 560.7005,-223.3427"/>
<text text-anchor="middle" x="633" y="-245" font-family="Helvetica,sans-Serif" font-size="10.00" fill="#000000"> Map</text>
</g>
<!-- Node24&#45;&gt;Node23 -->
<g id="edge23" class="edge">
<title>Node24&#45;&gt;Node23</title>
<path fill="none" stroke="#9a32cd" stroke-dasharray="5,2" d="M391.2616,-229C424.6753,-229 476.0218,-229 505.3614,-229"/>
<polygon fill="#9a32cd" stroke="#9a32cd" points="391.0938,-225.5001 381.0938,-229 391.0938,-232.5001 391.0938,-225.5001"/>
<text text-anchor="middle" x="424" y="-232" font-family="Helvetica,sans-Serif" font-size="10.00" fill="#000000"> SyncToFd</text>
</g>
</g>
</svg>
        <g id="navigator" transform="translate(0 0)" fill="#404254">
                <rect fill="#f2f5e9" fill-opacity="0.5" stroke="#606060" stroke-width=".5" x="0" y="0" width="60" height="60"/>
                <use id="zoomplus" xlink:href="#zoomPlus" x="17" y="9" onmousedown="handleZoom(evt,'in')"/>
                <use id="zoomminus" xlink:href="#zoomMin" x="42" y="9" onmousedown="handleZoom(evt,'out')"/>
                <use id="reset" xlink:href="#resetDef" x="30" y="36" onmousedown="handleReset()"/>
                <g id="arrowUp" xlink:href="#dirArrow" transform="translate(30 24)" onmousedown="handlePan(0,-1)">
                  <use xlink:href="#rim" fill="#404040">
                        <set attributeName="fill" to="#808080" begin="arrowUp.mouseover" end="arrowUp.mouseout"/>
                  </use>
                  <path fill="none" stroke="white" stroke-width="1.5" d="M0,-3.0v7 M-2.5,-0.5L0,-3.0L2.5,-0.5"/>
                </g>
                <g id="arrowRight" xlink:href="#dirArrow" transform="rotate(90) translate(36 -43)" onmousedown="handlePan(1,0)">
                  <use xlink:href="#rim" fill="#404040">
                        <set attributeName="fill" to="#808080" begin="arrowRight.mouseover" end="arrowRight.mouseout"/>
                  </use>
                  <path fill="none" stroke="white" stroke-width="1.5" d="M0,-3.0v7 M-2.5,-0.5L0,-3.0L2.5,-0.5"/>
                </g>
                <g id="arrowDown" xlink:href="#dirArrow" transform="rotate(180) translate(-30 -48)" onmousedown="handlePan(0,1)">
                  <use xlink:href="#rim" fill="#404040">
                        <set attributeName="fill" to="#808080" begin="arrowDown.mouseover" end="arrowDown.mouseout"/>
                  </use>
                  <path fill="none" stroke="white" stroke-width="1.5" d="M0,-3.0v7 M-2.5,-0.5L0,-3.0L2.5,-0.5"/>
                </g>
                <g id="arrowLeft" xlink:href="#dirArrow" transform="rotate(270) translate(-36 17)" onmousedown="handlePan(-1,0)">
                  <use xlink:href="#rim" fill="#404040">
                        <set attributeName="fill" to="#808080" begin="arrowLeft.mouseover" end="arrowLeft.mouseout"/>
                  </use>
                  <path fill="none" stroke="white" stroke-width="1.5" d="M0,-3.0v7 M-2.5,-0.5L0,-3.0L2.5,-0.5"/>
                </g>
        </g>
        <svg viewBox="0 0 15 15" width="100%" height="30px" preserveAspectRatio="xMaxYMin meet">
         <g id="arrow_out" transform="scale(0.3 0.3)">
          <a xlink:href="classpkgCache_1_1DescIterator__coll__graph_org.svg" target="_base">
           <rect id="button" ry="5" rx="5" y="6" x="6" height="38" width="38"
                fill="#f2f5e9" fill-opacity="0.5" stroke="#606060" stroke-width="1.0"/>
           <path id="arrow"
             d="M 11.500037,31.436501 C 11.940474,20.09759 22.043105,11.32322 32.158766,21.979434 L 37.068811,17.246167 C 37.068811,17.246167 37.088388,32 37.088388,32 L 22.160133,31.978069 C 22.160133,31.978069 26.997745,27.140456 26.997745,27.140456 C 18.528582,18.264221 13.291696,25.230495 11.500037,31.436501 z"
             style="fill:#404040;"/>
          </a>
         </g>
        </svg>
</svg>
