<?xml version="1.0" encoding="UTF-8" standalone="no"?>
<!DOCTYPE svg PUBLIC "-//W3C//DTD SVG 1.1//EN"
 "http://www.w3.org/Graphics/SVG/1.1/DTD/svg11.dtd">
<!-- Generated by graphviz version 2.40.1 (20161225.0304)
 -->
<!-- Title: debDebFileRecordParser Pages: 1 -->
<svg width="162pt" height="152pt"
 viewBox="0.00 0.00 161.50 152.00" xmlns="http://www.w3.org/2000/svg" xmlns:xlink="http://www.w3.org/1999/xlink">
<g id="graph0" class="graph" transform="scale(1 1) rotate(0) translate(4 148)">
<title>debDebFileRecordParser</title>
<polygon fill="#ffffff" stroke="transparent" points="-4,4 -4,-148 157.5,-148 157.5,4 -4,4"/>
<!-- Node3 -->
<g id="node1" class="node">
<title>Node3</title>
<polygon fill="#bfbfbf" stroke="#000000" points="0,-.5 0,-19.5 134,-19.5 134,-.5 0,-.5"/>
<text text-anchor="middle" x="67" y="-7.5" font-family="Helvetica,sans-Serif" font-size="10.00" fill="#000000">debDebFileRecordParser</text>
</g>
<!-- Node4 -->
<g id="node2" class="node">
<title>Node4</title>
<g id="a_node2"><a xlink:href="classdebRecordParserBase.xhtml" target="_top" xlink:title="debRecordParserBase">
<polygon fill="#ffffff" stroke="#000000" points="6,-57.5 6,-76.5 128,-76.5 128,-57.5 6,-57.5"/>
<text text-anchor="middle" x="67" y="-64.5" font-family="Helvetica,sans-Serif" font-size="10.00" fill="#000000">debRecordParserBase</text>
</a>
</g>
</g>
<!-- Node4&#45;&gt;Node3 -->
<g id="edge1" class="edge">
<title>Node4&#45;&gt;Node3</title>
<path fill="none" stroke="#191970" d="M67,-47.2342C67,-37.8491 67,-27.0651 67,-19.5265"/>
<polygon fill="#191970" stroke="#191970" points="63.5001,-47.3307 67,-57.3307 70.5001,-47.3308 63.5001,-47.3307"/>
</g>
<!-- Node5 -->
<g id="node3" class="node">
<title>Node5</title>
<g id="a_node3"><a xlink:href="classpkgRecords_1_1Parser.xhtml" target="_top" xlink:title="Parser">
<polygon fill="#ffffff" stroke="#000000" points="1.5,-124.5 1.5,-143.5 48.5,-143.5 48.5,-124.5 1.5,-124.5"/>
<text text-anchor="middle" x="25" y="-131.5" font-family="Helvetica,sans-Serif" font-size="10.00" fill="#000000">Parser</text>
</a>
</g>
</g>
<!-- Node5&#45;&gt;Node4 -->
<g id="edge2" class="edge">
<title>Node5&#45;&gt;Node4</title>
<path fill="none" stroke="#191970" d="M36.5281,-115.6099C44.4457,-102.9795 54.6357,-86.7241 60.9936,-76.5817"/>
<polygon fill="#191970" stroke="#191970" points="33.3635,-114.0687 31.0176,-124.4005 39.2945,-117.7866 33.3635,-114.0687"/>
</g>
<!-- Node6 -->
<g id="node4" class="node">
<title>Node6</title>
<g id="a_node4"><a xlink:href="classpkgTagSection.xhtml" target="_top" xlink:title="pkgTagSection">
<polygon fill="#ffffff" stroke="#000000" points="66.5,-124.5 66.5,-143.5 153.5,-143.5 153.5,-124.5 66.5,-124.5"/>
<text text-anchor="middle" x="110" y="-131.5" font-family="Helvetica,sans-Serif" font-size="10.00" fill="#000000">pkgTagSection</text>
</a>
</g>
</g>
<!-- Node6&#45;&gt;Node4 -->
<g id="edge3" class="edge">
<title>Node6&#45;&gt;Node4</title>
<path fill="none" stroke="#9a32cd" stroke-dasharray="5,2" d="M98.4351,-115.9803C90.2963,-103.2989 79.7225,-86.8235 73.1494,-76.5817"/>
<polygon fill="#9a32cd" stroke="#9a32cd" points="95.4923,-117.8751 103.8391,-124.4005 101.3834,-114.0942 95.4923,-117.8751"/>
<text text-anchor="middle" x="111" y="-98" font-family="Helvetica,sans-Serif" font-size="10.00" fill="#000000"> Section</text>
</g>
</g>
</svg>
