<?xml version="1.0" encoding="UTF-8" standalone="no"?>
<!DOCTYPE svg PUBLIC "-//W3C//DTD SVG 1.1//EN"
 "http://www.w3.org/Graphics/SVG/1.1/DTD/svg11.dtd">
<!-- Generated by graphviz version 2.40.1 (20161225.0304)
 -->
<!-- Title: edspLikeSystem Pages: 1 -->
<svg width="178pt" height="140pt"
 viewBox="0.00 0.00 177.50 140.00" xmlns="http://www.w3.org/2000/svg" xmlns:xlink="http://www.w3.org/1999/xlink">
<g id="graph0" class="graph" transform="scale(1 1) rotate(0) translate(4 136)">
<title>edspLikeSystem</title>
<polygon fill="#ffffff" stroke="transparent" points="-4,4 -4,-136 173.5,-136 173.5,4 -4,4"/>
<!-- Node0 -->
<g id="node1" class="node">
<title>Node0</title>
<polygon fill="#bfbfbf" stroke="#000000" points="37,-56.5 37,-75.5 134,-75.5 134,-56.5 37,-56.5"/>
<text text-anchor="middle" x="85.5" y="-63.5" font-family="Helvetica,sans-Serif" font-size="10.00" fill="#000000">edspLikeSystem</text>
</g>
<!-- Node2 -->
<g id="node3" class="node">
<title>Node2</title>
<g id="a_node3"><a xlink:href="classedspSystem.xhtml" target="_top" xlink:title="edspSystem">
<polygon fill="#ffffff" stroke="#000000" points="0,-.5 0,-19.5 77,-19.5 77,-.5 0,-.5"/>
<text text-anchor="middle" x="38.5" y="-7.5" font-family="Helvetica,sans-Serif" font-size="10.00" fill="#000000">edspSystem</text>
</a>
</g>
</g>
<!-- Node0&#45;&gt;Node2 -->
<g id="edge2" class="edge">
<title>Node0&#45;&gt;Node2</title>
<path fill="none" stroke="#191970" d="M70.8128,-48.5004C62.8204,-38.9775 53.2375,-27.5596 46.593,-19.6427"/>
<polygon fill="#191970" stroke="#191970" points="68.2036,-50.8358 77.3132,-56.2455 73.5654,-46.3357 68.2036,-50.8358"/>
</g>
<!-- Node3 -->
<g id="node4" class="node">
<title>Node3</title>
<g id="a_node4"><a xlink:href="classeippSystem.xhtml" target="_top" xlink:title="eippSystem">
<polygon fill="#ffffff" stroke="#000000" points="95.5,-.5 95.5,-19.5 169.5,-19.5 169.5,-.5 95.5,-.5"/>
<text text-anchor="middle" x="132.5" y="-7.5" font-family="Helvetica,sans-Serif" font-size="10.00" fill="#000000">eippSystem</text>
</a>
</g>
</g>
<!-- Node0&#45;&gt;Node3 -->
<g id="edge3" class="edge">
<title>Node0&#45;&gt;Node3</title>
<path fill="none" stroke="#191970" d="M100.1872,-48.5004C108.1796,-38.9775 117.7625,-27.5596 124.407,-19.6427"/>
<polygon fill="#191970" stroke="#191970" points="97.4346,-46.3357 93.6868,-56.2455 102.7964,-50.8358 97.4346,-46.3357"/>
</g>
<!-- Node1 -->
<g id="node2" class="node">
<title>Node1</title>
<g id="a_node2"><a xlink:href="classpkgSystem.xhtml" target="_top" xlink:title="pkgSystem">
<polygon fill="#ffffff" stroke="#000000" points="50,-112.5 50,-131.5 121,-131.5 121,-112.5 50,-112.5"/>
<text text-anchor="middle" x="85.5" y="-119.5" font-family="Helvetica,sans-Serif" font-size="10.00" fill="#000000">pkgSystem</text>
</a>
</g>
</g>
<!-- Node1&#45;&gt;Node0 -->
<g id="edge1" class="edge">
<title>Node1&#45;&gt;Node0</title>
<path fill="none" stroke="#191970" d="M85.5,-102.1575C85.5,-93.155 85.5,-82.9199 85.5,-75.6427"/>
<polygon fill="#191970" stroke="#191970" points="82.0001,-102.2455 85.5,-112.2455 89.0001,-102.2456 82.0001,-102.2455"/>
</g>
</g>
</svg>
