<?xml version="1.0" encoding="UTF-8" standalone="no"?>
<!DOCTYPE svg PUBLIC "-//W3C//DTD SVG 1.1//EN"
 "http://www.w3.org/Graphics/SVG/1.1/DTD/svg11.dtd">
<!-- Generated by graphviz version 2.40.1 (20161225.0304)
 -->
<!-- Title: pkgTagSectionPrivate Pages: 1 -->
<svg width="172pt" height="173pt"
 viewBox="0.00 0.00 172.00 173.00" xmlns="http://www.w3.org/2000/svg" xmlns:xlink="http://www.w3.org/1999/xlink">
<g id="graph0" class="graph" transform="scale(1 1) rotate(0) translate(4 169)">
<title>pkgTagSectionPrivate</title>
<polygon fill="#ffffff" stroke="transparent" points="-4,4 -4,-169 168,-169 168,4 -4,4"/>
<!-- Node1 -->
<g id="node1" class="node">
<title>Node1</title>
<polygon fill="#bfbfbf" stroke="#000000" points="21,-.5 21,-19.5 143,-19.5 143,-.5 21,-.5"/>
<text text-anchor="middle" x="82" y="-7.5" font-family="Helvetica,sans-Serif" font-size="10.00" fill="#000000">pkgTagSectionPrivate</text>
</g>
<!-- Node2 -->
<g id="node2" class="node">
<title>Node2</title>
<polygon fill="#ffffff" stroke="#bfbfbf" points="0,-67.5 0,-97.5 164,-97.5 164,-67.5 0,-67.5"/>
<text text-anchor="start" x="8" y="-85.5" font-family="Helvetica,sans-Serif" font-size="10.00" fill="#000000">vector&lt; pkgTagSectionPrivate</text>
<text text-anchor="middle" x="82" y="-74.5" font-family="Helvetica,sans-Serif" font-size="10.00" fill="#000000">::TagData &gt;</text>
</g>
<!-- Node2&#45;&gt;Node1 -->
<g id="edge1" class="edge">
<title>Node2&#45;&gt;Node1</title>
<path fill="none" stroke="#9a32cd" stroke-dasharray="5,2" d="M82,-57.305C82,-44.424 82,-29.4836 82,-19.8957"/>
<polygon fill="#9a32cd" stroke="#9a32cd" points="78.5001,-57.4779 82,-67.478 85.5001,-57.478 78.5001,-57.4779"/>
<text text-anchor="middle" x="94.5" y="-41" font-family="Helvetica,sans-Serif" font-size="10.00" fill="#000000"> Tags</text>
</g>
<!-- Node3 -->
<g id="node3" class="node">
<title>Node3</title>
<g id="a_node3"><a xlink:href="structpkgTagSectionPrivate_1_1TagData.xhtml" target="_top" xlink:title="TagData">
<polygon fill="#ffffff" stroke="#000000" points="54,-145.5 54,-164.5 110,-164.5 110,-145.5 54,-145.5"/>
<text text-anchor="middle" x="82" y="-152.5" font-family="Helvetica,sans-Serif" font-size="10.00" fill="#000000">TagData</text>
</a>
</g>
</g>
<!-- Node3&#45;&gt;Node2 -->
<g id="edge2" class="edge">
<title>Node3&#45;&gt;Node2</title>
<path fill="none" stroke="#9a32cd" stroke-dasharray="5,2" d="M82,-135.0177C82,-123.2164 82,-108.513 82,-97.668"/>
<polygon fill="#9a32cd" stroke="#9a32cd" points="78.5001,-135.2223 82,-145.2223 85.5001,-135.2224 78.5001,-135.2223"/>
<text text-anchor="middle" x="106.5" y="-119" font-family="Helvetica,sans-Serif" font-size="10.00" fill="#000000"> elements</text>
</g>
</g>
</svg>
