<?xml version="1.0" encoding="UTF-8" standalone="no"?>
<!DOCTYPE svg PUBLIC "-//W3C//DTD SVG 1.1//EN"
 "http://www.w3.org/Graphics/SVG/1.1/DTD/svg11.dtd">
<!-- Generated by graphviz version 2.40.1 (20161225.0304)
 -->
<!-- Title: WeakPointable Pages: 1 -->
<!--zoomable 308 -->
<svg id="main" version="1.1" xmlns="http://www.w3.org/2000/svg" xmlns:xlink="http://www.w3.org/1999/xlink" xml:space="preserve" onload="init(evt)">
<style type="text/css"><![CDATA[
.edge:hover path { stroke: red; }
.edge:hover polygon { stroke: red; fill: red; }
]]></style>
<script type="text/javascript"><![CDATA[
var edges = document.getElementsByTagName('g');
if (edges && edges.length) {
  for (var i=0;i<edges.length;i++) {
    if (edges[i].id.substr(0,4)=='edge') {
      edges[i].setAttribute('class','edge');
    }
  }
}
]]></script>
        <defs>
                <circle id="rim" cx="0" cy="0" r="7"/>
                <circle id="rim2" cx="0" cy="0" r="3.5"/>
                <g id="zoomPlus">
                        <use xlink:href="#rim" fill="#404040">
                                <set attributeName="fill" to="#808080" begin="zoomplus.mouseover" end="zoomplus.mouseout"/>
                        </use>
                        <path d="M-4,0h8M0,-4v8" fill="none" stroke="white" stroke-width="1.5" pointer-events="none"/>
                </g>
                <g id="zoomMin">
                        <use xlink:href="#rim" fill="#404040">
                                <set attributeName="fill" to="#808080" begin="zoomminus.mouseover" end="zoomminus.mouseout"/>
                        </use>
                        <path d="M-4,0h8" fill="none" stroke="white" stroke-width="1.5" pointer-events="none"/>
                </g>
                <g id="dirArrow">
                        <path fill="none" stroke="white" stroke-width="1.5" d="M0,-3.0v7 M-2.5,-0.5L0,-3.0L2.5,-0.5"/>
                </g>
               <g id="resetDef">
                       <use xlink:href="#rim2" fill="#404040">
                               <set attributeName="fill" to="#808080" begin="reset.mouseover" end="reset.mouseout"/>
                       </use>
               </g>
        </defs>

<script type="text/javascript">
var viewWidth = 774;
var viewHeight = 308;
var sectionId = 'dynsection-0';
</script>
<script xlink:href="svgpan.js"/>
<svg id="graph" class="graph">
<g id="viewport">
<title>WeakPointable</title>
<polygon fill="#ffffff" stroke="transparent" points="-4,4 -4,-304 769.5,-304 769.5,4 -4,4"/>
<!-- Node0 -->
<g id="node1" class="node">
<title>Node0</title>
<polygon fill="#bfbfbf" stroke="#000000" points="441,-280.5 441,-299.5 530,-299.5 530,-280.5 441,-280.5"/>
<text text-anchor="middle" x="485.5" y="-287.5" font-family="Helvetica,sans-Serif" font-size="10.00" fill="#000000">WeakPointable</text>
</g>
<!-- Node1 -->
<g id="node2" class="node">
<title>Node1</title>
<g id="a_node2"><a xlink:href="classpkgAcquire_1_1Item.xhtml" target="_top" xlink:title="Represents the process by which a pkgAcquire object should retrieve a file or a collection of files...">
<polygon fill="#ffffff" stroke="#000000" points="293,-224.5 293,-243.5 332,-243.5 332,-224.5 293,-224.5"/>
<text text-anchor="middle" x="312.5" y="-231.5" font-family="Helvetica,sans-Serif" font-size="10.00" fill="#000000">Item</text>
</a>
</g>
</g>
<!-- Node0&#45;&gt;Node1 -->
<g id="edge1" class="edge">
<title>Node0&#45;&gt;Node1</title>
<path fill="none" stroke="#191970" d="M446.1745,-277.2703C410.6361,-265.7666 359.7924,-249.3085 332.1782,-240.3698"/>
<polygon fill="#191970" stroke="#191970" points="445.1684,-280.6234 455.7602,-280.3733 447.3242,-273.9636 445.1684,-280.6234"/>
</g>
<!-- Node18 -->
<g id="node19" class="node">
<title>Node18</title>
<g id="a_node19"><a xlink:href="structpkgAcquire_1_1ItemDesc.xhtml" target="_top" xlink:title="Represents a single download source from which an item should be downloaded. ">
<polygon fill="#ffffff" stroke="#000000" points="454,-224.5 454,-243.5 517,-243.5 517,-224.5 454,-224.5"/>
<text text-anchor="middle" x="485.5" y="-231.5" font-family="Helvetica,sans-Serif" font-size="10.00" fill="#000000">ItemDesc</text>
</a>
</g>
</g>
<!-- Node0&#45;&gt;Node18 -->
<g id="edge18" class="edge">
<title>Node0&#45;&gt;Node18</title>
<path fill="none" stroke="#191970" d="M485.5,-270.1575C485.5,-261.155 485.5,-250.9199 485.5,-243.6427"/>
<polygon fill="#191970" stroke="#191970" points="482.0001,-270.2455 485.5,-280.2455 489.0001,-270.2456 482.0001,-270.2455"/>
</g>
<!-- Node20 -->
<g id="node21" class="node">
<title>Node20</title>
<g id="a_node21"><a xlink:href="classpkgAcquire_1_1Worker.xhtml" target="_top" xlink:title="A fetch subprocess. ">
<polygon fill="#ffffff" stroke="#000000" points="535,-224.5 535,-243.5 586,-243.5 586,-224.5 535,-224.5"/>
<text text-anchor="middle" x="560.5" y="-231.5" font-family="Helvetica,sans-Serif" font-size="10.00" fill="#000000">Worker</text>
</a>
</g>
</g>
<!-- Node0&#45;&gt;Node20 -->
<g id="edge20" class="edge">
<title>Node0&#45;&gt;Node20</title>
<path fill="none" stroke="#191970" d="M506.6477,-274.2097C519.8201,-264.3743 536.34,-252.0394 547.5857,-243.6427"/>
<polygon fill="#191970" stroke="#191970" points="504.4828,-271.4581 498.564,-280.2455 508.6709,-277.0671 504.4828,-271.4581"/>
</g>
<!-- Node2 -->
<g id="node3" class="node">
<title>Node2</title>
<g id="a_node3"><a xlink:href="classNoActionItem.xhtml" target="_top" xlink:title="NoActionItem">
<polygon fill="#ffffff" stroke="#000000" points="0,-168.5 0,-187.5 83,-187.5 83,-168.5 0,-168.5"/>
<text text-anchor="middle" x="41.5" y="-175.5" font-family="Helvetica,sans-Serif" font-size="10.00" fill="#000000">NoActionItem</text>
</a>
</g>
</g>
<!-- Node1&#45;&gt;Node2 -->
<g id="edge2" class="edge">
<title>Node1&#45;&gt;Node2</title>
<path fill="none" stroke="#191970" d="M282.7107,-227.8443C234.2618,-217.8327 138.2712,-197.997 83.1111,-186.5986"/>
<polygon fill="#191970" stroke="#191970" points="282.0713,-231.286 292.5727,-229.8822 283.4879,-224.4309 282.0713,-231.286"/>
</g>
<!-- Node3 -->
<g id="node4" class="node">
<title>Node3</title>
<g id="a_node4"><a xlink:href="classpkgAcqArchive.xhtml" target="_top" xlink:title="An item that is responsible for fetching a package file. {{{. ">
<polygon fill="#ffffff" stroke="#000000" points="101,-168.5 101,-187.5 190,-187.5 190,-168.5 101,-168.5"/>
<text text-anchor="middle" x="145.5" y="-175.5" font-family="Helvetica,sans-Serif" font-size="10.00" fill="#000000">pkgAcqArchive</text>
</a>
</g>
</g>
<!-- Node1&#45;&gt;Node3 -->
<g id="edge3" class="edge">
<title>Node1&#45;&gt;Node3</title>
<path fill="none" stroke="#191970" d="M282.9544,-224.0925C252.1741,-213.771 204.2867,-197.7129 173.9283,-187.5328"/>
<polygon fill="#191970" stroke="#191970" points="282.0932,-227.4952 292.6871,-227.3562 284.3187,-220.8584 282.0932,-227.4952"/>
</g>
<!-- Node4 -->
<g id="node5" class="node">
<title>Node4</title>
<g id="a_node5"><a xlink:href="classpkgAcqChangelog.xhtml" target="_top" xlink:title="Retrieve the changelog for the given version {{{. ">
<polygon fill="#ffffff" stroke="#000000" points="208.5,-168.5 208.5,-187.5 312.5,-187.5 312.5,-168.5 208.5,-168.5"/>
<text text-anchor="middle" x="260.5" y="-175.5" font-family="Helvetica,sans-Serif" font-size="10.00" fill="#000000">pkgAcqChangelog</text>
</a>
</g>
</g>
<!-- Node1&#45;&gt;Node4 -->
<g id="edge4" class="edge">
<title>Node1&#45;&gt;Node4</title>
<path fill="none" stroke="#191970" d="M296.5178,-216.7884C287.6222,-207.2085 276.8796,-195.6396 269.4539,-187.6427"/>
<polygon fill="#191970" stroke="#191970" points="294.073,-219.2992 303.4423,-224.2455 299.2025,-214.536 294.073,-219.2992"/>
</g>
<!-- Node5 -->
<g id="node6" class="node">
<title>Node5</title>
<g id="a_node6"><a xlink:href="classpkgAcqFile.xhtml" target="_top" xlink:title="Retrieve an arbitrary file to the current directory. {{{. ">
<polygon fill="#ffffff" stroke="#000000" points="331,-168.5 331,-187.5 400,-187.5 400,-168.5 331,-168.5"/>
<text text-anchor="middle" x="365.5" y="-175.5" font-family="Helvetica,sans-Serif" font-size="10.00" fill="#000000">pkgAcqFile</text>
</a>
</g>
</g>
<!-- Node1&#45;&gt;Node5 -->
<g id="edge5" class="edge">
<title>Node1&#45;&gt;Node5</title>
<path fill="none" stroke="#191970" d="M328.7896,-216.7884C337.8562,-207.2085 348.8054,-195.6396 356.3739,-187.6427"/>
<polygon fill="#191970" stroke="#191970" points="326.0637,-214.5767 321.7319,-224.2455 331.1478,-219.3884 326.0637,-214.5767"/>
</g>
<!-- Node7 -->
<g id="node8" class="node">
<title>Node7</title>
<g id="a_node8"><a xlink:href="classpkgAcqTransactionItem.xhtml" target="_top" xlink:title="baseclass for the indexes files to manage them all together ">
<polygon fill="#ffffff" stroke="#000000" points="418,-168.5 418,-187.5 549,-187.5 549,-168.5 418,-168.5"/>
<text text-anchor="middle" x="483.5" y="-175.5" font-family="Helvetica,sans-Serif" font-size="10.00" fill="#000000">pkgAcqTransactionItem</text>
</a>
</g>
</g>
<!-- Node1&#45;&gt;Node7 -->
<g id="edge7" class="edge">
<title>Node1&#45;&gt;Node7</title>
<path fill="none" stroke="#191970" d="M341.6448,-224.4555C373.1266,-214.1457 422.988,-197.8168 454.4377,-187.5175"/>
<polygon fill="#191970" stroke="#191970" points="340.53,-221.1376 332.1159,-227.5761 342.7086,-227.79 340.53,-221.1376"/>
</g>
<!-- Node6 -->
<g id="node7" class="node">
<title>Node6</title>
<g id="a_node7"><a xlink:href="classpkgAcqAuxFile.xhtml" target="_top" xlink:title="pkgAcqAuxFile">
<polygon fill="#ffffff" stroke="#000000" points="228.5,-112.5 228.5,-131.5 316.5,-131.5 316.5,-112.5 228.5,-112.5"/>
<text text-anchor="middle" x="272.5" y="-119.5" font-family="Helvetica,sans-Serif" font-size="10.00" fill="#000000">pkgAcqAuxFile</text>
</a>
</g>
</g>
<!-- Node5&#45;&gt;Node6 -->
<g id="edge6" class="edge">
<title>Node5&#45;&gt;Node6</title>
<path fill="none" stroke="#191970" d="M340.6665,-163.0465C324.1189,-153.0824 302.8568,-140.2794 288.5137,-131.6427"/>
<polygon fill="#191970" stroke="#191970" points="338.9283,-166.0854 349.3006,-168.2455 342.5393,-160.0886 338.9283,-166.0854"/>
</g>
<!-- Node8 -->
<g id="node9" class="node">
<title>Node8</title>
<g id="a_node9"><a xlink:href="classCleanupItem.xhtml" target="_top" xlink:title="CleanupItem">
<polygon fill="#ffffff" stroke="#000000" points="334,-112.5 334,-131.5 413,-131.5 413,-112.5 334,-112.5"/>
<text text-anchor="middle" x="373.5" y="-119.5" font-family="Helvetica,sans-Serif" font-size="10.00" fill="#000000">CleanupItem</text>
</a>
</g>
</g>
<!-- Node7&#45;&gt;Node8 -->
<g id="edge8" class="edge">
<title>Node7&#45;&gt;Node8</title>
<path fill="none" stroke="#191970" d="M455.2086,-163.5971C435.4889,-153.558 409.72,-140.4393 392.441,-131.6427"/>
<polygon fill="#191970" stroke="#191970" points="453.8399,-166.8277 464.3395,-168.2455 457.0157,-160.5896 453.8399,-166.8277"/>
</g>
<!-- Node9 -->
<g id="node10" class="node">
<title>Node9</title>
<g id="a_node10"><a xlink:href="classpkgAcqBaseIndex.xhtml" target="_top" xlink:title="Common base class for all classes that deal with fetching indexes {{{. ">
<polygon fill="#ffffff" stroke="#000000" points="431.5,-112.5 431.5,-131.5 535.5,-131.5 535.5,-112.5 431.5,-112.5"/>
<text text-anchor="middle" x="483.5" y="-119.5" font-family="Helvetica,sans-Serif" font-size="10.00" fill="#000000">pkgAcqBaseIndex</text>
</a>
</g>
</g>
<!-- Node7&#45;&gt;Node9 -->
<g id="edge9" class="edge">
<title>Node7&#45;&gt;Node9</title>
<path fill="none" stroke="#191970" d="M483.5,-158.1575C483.5,-149.155 483.5,-138.9199 483.5,-131.6427"/>
<polygon fill="#191970" stroke="#191970" points="480.0001,-158.2455 483.5,-168.2455 487.0001,-158.2456 480.0001,-158.2455"/>
</g>
<!-- Node14 -->
<g id="node15" class="node">
<title>Node14</title>
<g id="a_node15"><a xlink:href="classpkgAcqMetaBase.xhtml" target="_top" xlink:title="the manager of a transaction ">
<polygon fill="#ffffff" stroke="#000000" points="554,-112.5 554,-131.5 655,-131.5 655,-112.5 554,-112.5"/>
<text text-anchor="middle" x="604.5" y="-119.5" font-family="Helvetica,sans-Serif" font-size="10.00" fill="#000000">pkgAcqMetaBase</text>
</a>
</g>
</g>
<!-- Node7&#45;&gt;Node14 -->
<g id="edge14" class="edge">
<title>Node7&#45;&gt;Node14</title>
<path fill="none" stroke="#191970" d="M513.5104,-164.1109C535.4525,-153.9559 564.6388,-140.4482 583.9708,-131.5011"/>
<polygon fill="#191970" stroke="#191970" points="511.9058,-160.9968 504.3006,-168.3733 514.8459,-167.3494 511.9058,-160.9968"/>
</g>
<!-- Node17 -->
<g id="node18" class="node">
<title>Node17</title>
<g id="a_node18"><a xlink:href="classpkgAcqMetaSig.xhtml" target="_top" xlink:title="An acquire item that downloads the detached signature {{{ of a meta&#45;index (Release) file...">
<polygon fill="#ffffff" stroke="#000000" points="673.5,-112.5 673.5,-131.5 765.5,-131.5 765.5,-112.5 673.5,-112.5"/>
<text text-anchor="middle" x="719.5" y="-119.5" font-family="Helvetica,sans-Serif" font-size="10.00" fill="#000000">pkgAcqMetaSig</text>
</a>
</g>
</g>
<!-- Node7&#45;&gt;Node17 -->
<g id="edge17" class="edge">
<title>Node7&#45;&gt;Node17</title>
<path fill="none" stroke="#191970" d="M533.5974,-166.1125C577.0484,-155.8021 639.1198,-141.0733 679.3645,-131.5237"/>
<polygon fill="#191970" stroke="#191970" points="532.7234,-162.7226 523.8017,-168.4369 534.3396,-169.5335 532.7234,-162.7226"/>
</g>
<!-- Node10 -->
<g id="node11" class="node">
<title>Node10</title>
<g id="a_node11"><a xlink:href="classpkgAcqIndex.xhtml" target="_top" xlink:title="An acquire item that is responsible for fetching an index {{{ file (e.g., Packages or Sources)...">
<polygon fill="#ffffff" stroke="#000000" points="267.5,-56.5 267.5,-75.5 347.5,-75.5 347.5,-56.5 267.5,-56.5"/>
<text text-anchor="middle" x="307.5" y="-63.5" font-family="Helvetica,sans-Serif" font-size="10.00" fill="#000000">pkgAcqIndex</text>
</a>
</g>
</g>
<!-- Node9&#45;&gt;Node10 -->
<g id="edge10" class="edge">
<title>Node9&#45;&gt;Node10</title>
<path fill="none" stroke="#191970" d="M443.6596,-109.3235C411.3827,-99.0536 366.6148,-84.8093 337.3607,-75.5011"/>
<polygon fill="#191970" stroke="#191970" points="442.654,-112.6764 453.2445,-112.3733 444.7765,-106.0059 442.654,-112.6764"/>
</g>
<!-- Node12 -->
<g id="node13" class="node">
<title>Node12</title>
<g id="a_node13"><a xlink:href="classpkgAcqIndexDiffs.xhtml" target="_top" xlink:title="An item that is responsible for fetching server&#45;merge patches {{{ that need to be applied to a given ...">
<polygon fill="#ffffff" stroke="#000000" points="365.5,-56.5 365.5,-75.5 467.5,-75.5 467.5,-56.5 365.5,-56.5"/>
<text text-anchor="middle" x="416.5" y="-63.5" font-family="Helvetica,sans-Serif" font-size="10.00" fill="#000000">pkgAcqIndexDiffs</text>
</a>
</g>
</g>
<!-- Node9&#45;&gt;Node12 -->
<g id="edge12" class="edge">
<title>Node9&#45;&gt;Node12</title>
<path fill="none" stroke="#191970" d="M463.9324,-105.645C452.2802,-95.9058 437.8916,-83.8795 428.0368,-75.6427"/>
<polygon fill="#191970" stroke="#191970" points="461.9121,-108.5179 471.8295,-112.2455 466.4012,-103.1469 461.9121,-108.5179"/>
</g>
<!-- Node13 -->
<g id="node14" class="node">
<title>Node13</title>
<g id="a_node14"><a xlink:href="classpkgAcqIndexMergeDiffs.xhtml" target="_top" xlink:title="An item that is responsible for fetching client&#45;merge patches {{{ that need to be applied to a given ...">
<polygon fill="#ffffff" stroke="#000000" points="485.5,-56.5 485.5,-75.5 617.5,-75.5 617.5,-56.5 485.5,-56.5"/>
<text text-anchor="middle" x="551.5" y="-63.5" font-family="Helvetica,sans-Serif" font-size="10.00" fill="#000000">pkgAcqIndexMergeDiffs</text>
</a>
</g>
</g>
<!-- Node9&#45;&gt;Node13 -->
<g id="edge13" class="edge">
<title>Node9&#45;&gt;Node13</title>
<path fill="none" stroke="#191970" d="M503.3596,-105.645C515.1858,-95.9058 529.7892,-83.8795 539.791,-75.6427"/>
<polygon fill="#191970" stroke="#191970" points="500.839,-103.1867 495.3447,-112.2455 505.289,-108.5902 500.839,-103.1867"/>
</g>
<!-- Node11 -->
<g id="node12" class="node">
<title>Node11</title>
<g id="a_node12"><a xlink:href="classpkgAcqDiffIndex.xhtml" target="_top" xlink:title="An item that is responsible for fetching an index file of {{{ package list diffs and starting the pac...">
<polygon fill="#ffffff" stroke="#000000" points="259,-.5 259,-19.5 356,-19.5 356,-.5 259,-.5"/>
<text text-anchor="middle" x="307.5" y="-7.5" font-family="Helvetica,sans-Serif" font-size="10.00" fill="#000000">pkgAcqDiffIndex</text>
</a>
</g>
</g>
<!-- Node10&#45;&gt;Node11 -->
<g id="edge11" class="edge">
<title>Node10&#45;&gt;Node11</title>
<path fill="none" stroke="#191970" d="M307.5,-46.1575C307.5,-37.155 307.5,-26.9199 307.5,-19.6427"/>
<polygon fill="#191970" stroke="#191970" points="304.0001,-46.2455 307.5,-56.2455 311.0001,-46.2456 304.0001,-46.2455"/>
</g>
<!-- Node15 -->
<g id="node16" class="node">
<title>Node15</title>
<g id="a_node16"><a xlink:href="classpkgAcqMetaIndex.xhtml" target="_top" xlink:title="An item that is responsible for downloading the meta&#45;index {{{ file (i.e., Release) itself and verify...">
<polygon fill="#ffffff" stroke="#000000" points="635.5,-56.5 635.5,-75.5 739.5,-75.5 739.5,-56.5 635.5,-56.5"/>
<text text-anchor="middle" x="687.5" y="-63.5" font-family="Helvetica,sans-Serif" font-size="10.00" fill="#000000">pkgAcqMetaIndex</text>
</a>
</g>
</g>
<!-- Node14&#45;&gt;Node15 -->
<g id="edge15" class="edge">
<title>Node14&#45;&gt;Node15</title>
<path fill="none" stroke="#191970" d="M627.488,-106.49C642.1322,-96.6096 660.6444,-84.1194 673.2082,-75.6427"/>
<polygon fill="#191970" stroke="#191970" points="625.2896,-103.7511 618.9575,-112.2455 629.2047,-109.5539 625.2896,-103.7511"/>
</g>
<!-- Node16 -->
<g id="node17" class="node">
<title>Node16</title>
<g id="a_node17"><a xlink:href="classpkgAcqMetaClearSig.xhtml" target="_top" xlink:title="An item responsible for downloading clearsigned metaindexes {{{. ">
<polygon fill="#ffffff" stroke="#000000" points="629,-.5 629,-19.5 746,-19.5 746,-.5 629,-.5"/>
<text text-anchor="middle" x="687.5" y="-7.5" font-family="Helvetica,sans-Serif" font-size="10.00" fill="#000000">pkgAcqMetaClearSig</text>
</a>
</g>
</g>
<!-- Node15&#45;&gt;Node16 -->
<g id="edge16" class="edge">
<title>Node15&#45;&gt;Node16</title>
<path fill="none" stroke="#191970" d="M687.5,-46.1575C687.5,-37.155 687.5,-26.9199 687.5,-19.6427"/>
<polygon fill="#191970" stroke="#191970" points="684.0001,-46.2455 687.5,-56.2455 691.0001,-46.2456 684.0001,-46.2455"/>
</g>
<!-- Node19 -->
<g id="node20" class="node">
<title>Node19</title>
<g id="a_node20"><a xlink:href="structpkgAcquire_1_1Queue_1_1QItem.xhtml" target="_top" xlink:title="A single item placed in this queue. ">
<polygon fill="#ffffff" stroke="#000000" points="567,-168.5 567,-187.5 614,-187.5 614,-168.5 567,-168.5"/>
<text text-anchor="middle" x="590.5" y="-175.5" font-family="Helvetica,sans-Serif" font-size="10.00" fill="#000000">QItem</text>
</a>
</g>
</g>
<!-- Node18&#45;&gt;Node19 -->
<g id="edge19" class="edge">
<title>Node18&#45;&gt;Node19</title>
<path fill="none" stroke="#191970" d="M512.7625,-219.46C531.5522,-209.4388 556.0013,-196.3993 572.42,-187.6427"/>
<polygon fill="#191970" stroke="#191970" points="510.9661,-216.4514 503.7896,-224.2455 514.2602,-222.6278 510.9661,-216.4514"/>
</g>
</g>
</svg>
        <g id="navigator" transform="translate(0 0)" fill="#404254">
                <rect fill="#f2f5e9" fill-opacity="0.5" stroke="#606060" stroke-width=".5" x="0" y="0" width="60" height="60"/>
                <use id="zoomplus" xlink:href="#zoomPlus" x="17" y="9" onmousedown="handleZoom(evt,'in')"/>
                <use id="zoomminus" xlink:href="#zoomMin" x="42" y="9" onmousedown="handleZoom(evt,'out')"/>
                <use id="reset" xlink:href="#resetDef" x="30" y="36" onmousedown="handleReset()"/>
                <g id="arrowUp" xlink:href="#dirArrow" transform="translate(30 24)" onmousedown="handlePan(0,-1)">
                  <use xlink:href="#rim" fill="#404040">
                        <set attributeName="fill" to="#808080" begin="arrowUp.mouseover" end="arrowUp.mouseout"/>
                  </use>
                  <path fill="none" stroke="white" stroke-width="1.5" d="M0,-3.0v7 M-2.5,-0.5L0,-3.0L2.5,-0.5"/>
                </g>
                <g id="arrowRight" xlink:href="#dirArrow" transform="rotate(90) translate(36 -43)" onmousedown="handlePan(1,0)">
                  <use xlink:href="#rim" fill="#404040">
                        <set attributeName="fill" to="#808080" begin="arrowRight.mouseover" end="arrowRight.mouseout"/>
                  </use>
                  <path fill="none" stroke="white" stroke-width="1.5" d="M0,-3.0v7 M-2.5,-0.5L0,-3.0L2.5,-0.5"/>
                </g>
                <g id="arrowDown" xlink:href="#dirArrow" transform="rotate(180) translate(-30 -48)" onmousedown="handlePan(0,1)">
                  <use xlink:href="#rim" fill="#404040">
                        <set attributeName="fill" to="#808080" begin="arrowDown.mouseover" end="arrowDown.mouseout"/>
                  </use>
                  <path fill="none" stroke="white" stroke-width="1.5" d="M0,-3.0v7 M-2.5,-0.5L0,-3.0L2.5,-0.5"/>
                </g>
                <g id="arrowLeft" xlink:href="#dirArrow" transform="rotate(270) translate(-36 17)" onmousedown="handlePan(-1,0)">
                  <use xlink:href="#rim" fill="#404040">
                        <set attributeName="fill" to="#808080" begin="arrowLeft.mouseover" end="arrowLeft.mouseout"/>
                  </use>
                  <path fill="none" stroke="white" stroke-width="1.5" d="M0,-3.0v7 M-2.5,-0.5L0,-3.0L2.5,-0.5"/>
                </g>
        </g>
        <svg viewBox="0 0 15 15" width="100%" height="30px" preserveAspectRatio="xMaxYMin meet">
         <g id="arrow_out" transform="scale(0.3 0.3)">
          <a xlink:href="classWeakPointable__inherit__graph_org.svg" target="_base">
           <rect id="button" ry="5" rx="5" y="6" x="6" height="38" width="38"
                fill="#f2f5e9" fill-opacity="0.5" stroke="#606060" stroke-width="1.0"/>
           <path id="arrow"
             d="M 11.500037,31.436501 C 11.940474,20.09759 22.043105,11.32322 32.158766,21.979434 L 37.068811,17.246167 C 37.068811,17.246167 37.088388,32 37.088388,32 L 22.160133,31.978069 C 22.160133,31.978069 26.997745,27.140456 26.997745,27.140456 C 18.528582,18.264221 13.291696,25.230495 11.500037,31.436501 z"
             style="fill:#404040;"/>
          </a>
         </g>
        </svg>
</svg>
