<?xml version="1.0" encoding="UTF-8" standalone="no"?>
<!DOCTYPE svg PUBLIC "-//W3C//DTD SVG 1.1//EN"
 "http://www.w3.org/Graphics/SVG/1.1/DTD/svg11.dtd">
<!-- Generated by graphviz version 2.40.1 (20161225.0304)
 -->
<!-- Title: debSLTypeDebian Pages: 1 -->
<svg width="214pt" height="140pt"
 viewBox="0.00 0.00 213.50 140.00" xmlns="http://www.w3.org/2000/svg" xmlns:xlink="http://www.w3.org/1999/xlink">
<g id="graph0" class="graph" transform="scale(1 1) rotate(0) translate(4 136)">
<title>debSLTypeDebian</title>
<polygon fill="#ffffff" stroke="transparent" points="-4,4 -4,-136 209.5,-136 209.5,4 -4,4"/>
<!-- Node0 -->
<g id="node1" class="node">
<title>Node0</title>
<polygon fill="#bfbfbf" stroke="#000000" points="48.5,-56.5 48.5,-75.5 149.5,-75.5 149.5,-56.5 48.5,-56.5"/>
<text text-anchor="middle" x="99" y="-63.5" font-family="Helvetica,sans-Serif" font-size="10.00" fill="#000000">debSLTypeDebian</text>
</g>
<!-- Node2 -->
<g id="node3" class="node">
<title>Node2</title>
<g id="a_node3"><a xlink:href="classdebSLTypeDeb.xhtml" target="_top" xlink:title="debSLTypeDeb">
<polygon fill="#ffffff" stroke="#000000" points="0,-.5 0,-19.5 86,-19.5 86,-.5 0,-.5"/>
<text text-anchor="middle" x="43" y="-7.5" font-family="Helvetica,sans-Serif" font-size="10.00" fill="#000000">debSLTypeDeb</text>
</a>
</g>
</g>
<!-- Node0&#45;&gt;Node2 -->
<g id="edge2" class="edge">
<title>Node0&#45;&gt;Node2</title>
<path fill="none" stroke="#191970" d="M82.0751,-49.0751C72.4402,-39.4402 60.7196,-27.7196 52.6427,-19.6427"/>
<polygon fill="#191970" stroke="#191970" points="79.6996,-51.6493 89.2455,-56.2455 84.6493,-46.6996 79.6996,-51.6493"/>
</g>
<!-- Node3 -->
<g id="node4" class="node">
<title>Node3</title>
<g id="a_node4"><a xlink:href="classdebSLTypeDebSrc.xhtml" target="_top" xlink:title="debSLTypeDebSrc">
<polygon fill="#ffffff" stroke="#000000" points="104.5,-.5 104.5,-19.5 205.5,-19.5 205.5,-.5 104.5,-.5"/>
<text text-anchor="middle" x="155" y="-7.5" font-family="Helvetica,sans-Serif" font-size="10.00" fill="#000000">debSLTypeDebSrc</text>
</a>
</g>
</g>
<!-- Node0&#45;&gt;Node3 -->
<g id="edge3" class="edge">
<title>Node0&#45;&gt;Node3</title>
<path fill="none" stroke="#191970" d="M115.9249,-49.0751C125.5598,-39.4402 137.2804,-27.7196 145.3573,-19.6427"/>
<polygon fill="#191970" stroke="#191970" points="113.3507,-46.6996 108.7545,-56.2455 118.3004,-51.6493 113.3507,-46.6996"/>
</g>
<!-- Node1 -->
<g id="node2" class="node">
<title>Node1</title>
<g id="a_node2"><a xlink:href="classpkgSourceList_1_1Type.xhtml" target="_top" xlink:title="Type">
<polygon fill="#ffffff" stroke="#000000" points="79.5,-112.5 79.5,-131.5 118.5,-131.5 118.5,-112.5 79.5,-112.5"/>
<text text-anchor="middle" x="99" y="-119.5" font-family="Helvetica,sans-Serif" font-size="10.00" fill="#000000">Type</text>
</a>
</g>
</g>
<!-- Node1&#45;&gt;Node0 -->
<g id="edge1" class="edge">
<title>Node1&#45;&gt;Node0</title>
<path fill="none" stroke="#191970" d="M99,-102.1575C99,-93.155 99,-82.9199 99,-75.6427"/>
<polygon fill="#191970" stroke="#191970" points="95.5001,-102.2455 99,-112.2455 102.5001,-102.2456 95.5001,-102.2455"/>
</g>
</g>
</svg>
