<?xml version="1.0" encoding="UTF-8" standalone="no"?>
<!DOCTYPE svg PUBLIC "-//W3C//DTD SVG 1.1//EN"
 "http://www.w3.org/Graphics/SVG/1.1/DTD/svg11.dtd">
<!-- Generated by graphviz version 2.40.1 (20161225.0304)
 -->
<!-- Title: pkgAcqMetaClearSig Pages: 1 -->
<svg width="2068pt" height="887pt"
 viewBox="0.00 0.00 2068.00 887.00" xmlns="http://www.w3.org/2000/svg" xmlns:xlink="http://www.w3.org/1999/xlink">
<g id="graph0" class="graph" transform="scale(1 1) rotate(0) translate(4 883)">
<title>pkgAcqMetaClearSig</title>
<polygon fill="#ffffff" stroke="transparent" points="-4,4 -4,-883 2064,-883 2064,4 -4,4"/>
<!-- Node6 -->
<g id="node1" class="node">
<title>Node6</title>
<polygon fill="#bfbfbf" stroke="#000000" points="1090,-116.5 1090,-135.5 1207,-135.5 1207,-116.5 1090,-116.5"/>
<text text-anchor="middle" x="1148.5" y="-123.5" font-family="Helvetica,sans-Serif" font-size="10.00" fill="#000000">pkgAcqMetaClearSig</text>
</g>
<!-- Node9 -->
<g id="node4" class="node">
<title>Node9</title>
<g id="a_node4"><a xlink:href="classpkgAcqTransactionItem.xhtml" target="_top" xlink:title="baseclass for the indexes files to manage them all together ">
<polygon fill="#ffffff" stroke="#000000" points="1344,-232.5 1344,-251.5 1475,-251.5 1475,-232.5 1344,-232.5"/>
<text text-anchor="middle" x="1409.5" y="-239.5" font-family="Helvetica,sans-Serif" font-size="10.00" fill="#000000">pkgAcqTransactionItem</text>
</a>
</g>
</g>
<!-- Node6&#45;&gt;Node9 -->
<g id="edge44" class="edge">
<title>Node6&#45;&gt;Node9</title>
<path fill="none" stroke="#9a32cd" stroke-dasharray="5,2" d="M1179.6553,-139.8468C1233.3026,-163.69 1341.7962,-211.9094 1387.9418,-232.4186"/>
<polygon fill="#9a32cd" stroke="#9a32cd" points="1180.8634,-136.5537 1170.3038,-135.6906 1178.0204,-142.9504 1180.8634,-136.5537"/>
<text text-anchor="middle" x="1275.5" y="-208" font-family="Helvetica,sans-Serif" font-size="10.00" fill="#000000"> TransactionManager</text>
</g>
<!-- Node7 -->
<g id="node2" class="node">
<title>Node7</title>
<g id="a_node2"><a xlink:href="classpkgAcqMetaIndex.xhtml" target="_top" xlink:title="An item that is responsible for downloading the meta&#45;index {{{ file (i.e., Release) itself and verify...">
<polygon fill="#ffffff" stroke="#000000" points="1956,-188.5 1956,-207.5 2060,-207.5 2060,-188.5 1956,-188.5"/>
<text text-anchor="middle" x="2008" y="-195.5" font-family="Helvetica,sans-Serif" font-size="10.00" fill="#000000">pkgAcqMetaIndex</text>
</a>
</g>
</g>
<!-- Node7&#45;&gt;Node6 -->
<g id="edge1" class="edge">
<title>Node7&#45;&gt;Node6</title>
<path fill="none" stroke="#191970" d="M1998.1611,-179.1418C1978.5461,-144.4442 1931.0238,-74 1868.5,-74 1409.5,-74 1409.5,-74 1409.5,-74 1323.5623,-74 1224.7227,-101.4504 1177.0952,-116.4624"/>
<polygon fill="#191970" stroke="#191970" points="1995.2795,-181.168 2003.1417,-188.2699 2001.4244,-177.8152 1995.2795,-181.168"/>
</g>
<!-- Node8 -->
<g id="node3" class="node">
<title>Node8</title>
<g id="a_node3"><a xlink:href="classpkgAcqMetaBase.xhtml" target="_top" xlink:title="the manager of a transaction ">
<polygon fill="#ffffff" stroke="#000000" points="1818,-188.5 1818,-207.5 1919,-207.5 1919,-188.5 1818,-188.5"/>
<text text-anchor="middle" x="1868.5" y="-195.5" font-family="Helvetica,sans-Serif" font-size="10.00" fill="#000000">pkgAcqMetaBase</text>
</a>
</g>
</g>
<!-- Node8&#45;&gt;Node7 -->
<g id="edge2" class="edge">
<title>Node8&#45;&gt;Node7</title>
<path fill="none" stroke="#191970" d="M1929.4024,-198C1938.1469,-198 1947.08,-198 1955.6398,-198"/>
<polygon fill="#191970" stroke="#191970" points="1929.2574,-194.5001 1919.2573,-198 1929.2573,-201.5001 1929.2574,-194.5001"/>
</g>
<!-- Node9&#45;&gt;Node8 -->
<g id="edge3" class="edge">
<title>Node9&#45;&gt;Node8</title>
<path fill="none" stroke="#191970" d="M1477.0271,-230.8769C1506.4407,-226.3457 1541.3578,-221.3879 1573,-218 1658.7659,-208.8171 1759.0143,-203.0811 1817.9388,-200.2177"/>
<polygon fill="#191970" stroke="#191970" points="1476.2097,-227.4619 1466.8671,-232.4585 1477.2865,-234.3786 1476.2097,-227.4619"/>
</g>
<!-- Node26 -->
<g id="node21" class="node">
<title>Node26</title>
<polygon fill="#ffffff" stroke="#bfbfbf" points="1573,-227 1573,-257 1723,-257 1723,-227 1573,-227"/>
<text text-anchor="start" x="1581" y="-245" font-family="Helvetica,sans-Serif" font-size="10.00" fill="#000000">vector&lt; pkgAcqTransaction</text>
<text text-anchor="middle" x="1648" y="-234" font-family="Helvetica,sans-Serif" font-size="10.00" fill="#000000">Item *&gt;</text>
</g>
<!-- Node9&#45;&gt;Node26 -->
<g id="edge47" class="edge">
<title>Node9&#45;&gt;Node26</title>
<path fill="none" stroke="#9a32cd" stroke-dasharray="5,2" d="M1485.4037,-242C1513.3085,-242 1544.8787,-242 1572.7277,-242"/>
<polygon fill="#9a32cd" stroke="#9a32cd" points="1485.3026,-238.5001 1475.3025,-242 1485.3025,-245.5001 1485.3026,-238.5001"/>
<text text-anchor="middle" x="1524" y="-245" font-family="Helvetica,sans-Serif" font-size="10.00" fill="#000000"> elements</text>
</g>
<!-- Node10 -->
<g id="node5" class="node">
<title>Node10</title>
<g id="a_node5"><a xlink:href="classpkgAcquire_1_1Item.xhtml" target="_top" xlink:title="Represents the process by which a pkgAcquire object should retrieve a file or a collection of files...">
<polygon fill="#ffffff" stroke="#000000" points="390.5,-712.5 390.5,-731.5 429.5,-731.5 429.5,-712.5 390.5,-712.5"/>
<text text-anchor="middle" x="410" y="-719.5" font-family="Helvetica,sans-Serif" font-size="10.00" fill="#000000">Item</text>
</a>
</g>
</g>
<!-- Node10&#45;&gt;Node9 -->
<g id="edge4" class="edge">
<title>Node10&#45;&gt;Node9</title>
<path fill="none" stroke="#191970" d="M421.7627,-703.4506C432.2815,-687.8712 448.8104,-665.7014 467,-650 520.206,-604.0721 537.6381,-594.1593 604,-571 802.5692,-501.7024 878.4121,-583.1926 1072,-501 1110.2415,-484.7636 1341.9723,-296.9964 1397.5339,-251.7596"/>
<polygon fill="#191970" stroke="#191970" points="418.5922,-701.9024 416.0289,-712.1825 424.4435,-705.7447 418.5922,-701.9024"/>
</g>
<!-- Node13 -->
<g id="node8" class="node">
<title>Node13</title>
<polygon fill="#ffffff" stroke="#bfbfbf" points="626,-735 626,-765 739,-765 739,-735 626,-735"/>
<text text-anchor="start" x="634" y="-753" font-family="Helvetica,sans-Serif" font-size="10.00" fill="#000000">vector&lt; pkgAcquire</text>
<text text-anchor="middle" x="682.5" y="-742" font-family="Helvetica,sans-Serif" font-size="10.00" fill="#000000">::Item *&gt;</text>
</g>
<!-- Node10&#45;&gt;Node13 -->
<g id="edge8" class="edge">
<title>Node10&#45;&gt;Node13</title>
<path fill="none" stroke="#9a32cd" stroke-dasharray="5,2" d="M439.7188,-719.7683C474.8512,-717.6829 534.9925,-715.851 586,-723 603.4008,-725.4388 622.0919,-730.1559 638.3468,-734.974"/>
<polygon fill="#9a32cd" stroke="#9a32cd" points="439.4117,-716.2807 429.6563,-720.414 439.86,-723.2664 439.4117,-716.2807"/>
<text text-anchor="middle" x="526.5" y="-726" font-family="Helvetica,sans-Serif" font-size="10.00" fill="#000000"> elements</text>
</g>
<!-- Node16 -->
<g id="node11" class="node">
<title>Node16</title>
<g id="a_node11"><a xlink:href="structpkgAcquire_1_1ItemDesc.xhtml" target="_top" xlink:title="Represents a single download source from which an item should be downloaded. ">
<polygon fill="#ffffff" stroke="#000000" points="651,-806.5 651,-825.5 714,-825.5 714,-806.5 651,-806.5"/>
<text text-anchor="middle" x="682.5" y="-813.5" font-family="Helvetica,sans-Serif" font-size="10.00" fill="#000000">ItemDesc</text>
</a>
</g>
</g>
<!-- Node10&#45;&gt;Node16 -->
<g id="edge16" class="edge">
<title>Node10&#45;&gt;Node16</title>
<path fill="none" stroke="#9a32cd" stroke-dasharray="5,2" d="M439.3996,-728.2866C448.2638,-730.1558 458.0228,-732.1876 467,-734 519.8024,-744.6601 538.4242,-731.7359 586,-757 595.9922,-762.3062 594.8807,-768.3039 604,-775 621.4744,-787.831 643.5134,-798.9656 659.7878,-806.3801"/>
<polygon fill="#9a32cd" stroke="#9a32cd" points="440.0137,-724.839 429.5053,-726.1899 438.5625,-731.687 440.0137,-724.839"/>
<text text-anchor="middle" x="526.5" y="-760" font-family="Helvetica,sans-Serif" font-size="10.00" fill="#000000"> Owner</text>
</g>
<!-- Node11 -->
<g id="node6" class="node">
<title>Node11</title>
<g id="a_node6"><a xlink:href="classWeakPointable.xhtml" target="_top" xlink:title="WeakPointable">
<polygon fill="#ffffff" stroke="#000000" points="156,-831.5 156,-850.5 245,-850.5 245,-831.5 156,-831.5"/>
<text text-anchor="middle" x="200.5" y="-838.5" font-family="Helvetica,sans-Serif" font-size="10.00" fill="#000000">WeakPointable</text>
</a>
</g>
</g>
<!-- Node11&#45;&gt;Node10 -->
<g id="edge5" class="edge">
<title>Node11&#45;&gt;Node10</title>
<path fill="none" stroke="#191970" d="M226.1119,-826.452C269.5499,-801.7784 356.5109,-752.3828 393.1299,-731.5825"/>
<polygon fill="#191970" stroke="#191970" points="224.2566,-823.4805 217.2901,-831.4629 227.714,-829.5671 224.2566,-823.4805"/>
</g>
<!-- Node11&#45;&gt;Node16 -->
<g id="edge13" class="edge">
<title>Node11&#45;&gt;Node16</title>
<path fill="none" stroke="#191970" d="M255.2051,-840.3413C329.9966,-839.1378 468.3196,-835.8308 586,-827 607.6909,-825.3723 632.0249,-822.5919 650.8304,-820.2338"/>
<polygon fill="#191970" stroke="#191970" points="255.0269,-836.8436 245.0821,-840.4975 255.1349,-843.8427 255.0269,-836.8436"/>
</g>
<!-- Node19 -->
<g id="node14" class="node">
<title>Node19</title>
<g id="a_node14"><a xlink:href="classpkgAcquire_1_1Worker.xhtml" target="_top" xlink:title="A fetch subprocess. ">
<polygon fill="#ffffff" stroke="#000000" points="1384,-601.5 1384,-620.5 1435,-620.5 1435,-601.5 1384,-601.5"/>
<text text-anchor="middle" x="1409.5" y="-608.5" font-family="Helvetica,sans-Serif" font-size="10.00" fill="#000000">Worker</text>
</a>
</g>
</g>
<!-- Node11&#45;&gt;Node19 -->
<g id="edge20" class="edge">
<title>Node11&#45;&gt;Node19</title>
<path fill="none" stroke="#191970" d="M242.7062,-853.2539C284.7289,-864.3599 351.2632,-879 410,-879 410,-879 410,-879 816,-879 995.3712,-879 1047.1977,-860.4694 1207,-779 1212.5576,-776.1667 1356.1472,-655.7838 1398.0952,-620.5762"/>
<polygon fill="#191970" stroke="#191970" points="243.3961,-849.8149 232.8295,-850.589 241.5725,-856.5733 243.3961,-849.8149"/>
</g>
<!-- Node12 -->
<g id="node7" class="node">
<title>Node12</title>
<g id="a_node7"><a xlink:href="classpkgAcquire.xhtml" target="_top" xlink:title="The core download scheduler. {{{. ">
<polygon fill="#ffffff" stroke="#000000" points="874.5,-654.5 874.5,-673.5 945.5,-673.5 945.5,-654.5 874.5,-654.5"/>
<text text-anchor="middle" x="910" y="-661.5" font-family="Helvetica,sans-Serif" font-size="10.00" fill="#000000">pkgAcquire</text>
</a>
</g>
</g>
<!-- Node12&#45;&gt;Node10 -->
<g id="edge6" class="edge">
<title>Node12&#45;&gt;Node10</title>
<path fill="none" stroke="#9a32cd" stroke-dasharray="5,2" d="M867.6877,-675.9813C862.7621,-677.1239 857.7883,-678.1653 853,-679 683.3388,-708.5761 637.9349,-692.0021 467,-713 454.5704,-714.5269 440.6892,-716.7084 429.7375,-718.5413"/>
<polygon fill="#9a32cd" stroke="#9a32cd" points="868.7821,-679.3165 877.6555,-673.5275 867.1088,-672.5194 868.7821,-679.3165"/>
<text text-anchor="middle" x="682.5" y="-704" font-family="Helvetica,sans-Serif" font-size="10.00" fill="#000000"> Owner</text>
</g>
<!-- Node14 -->
<g id="node9" class="node">
<title>Node14</title>
<g id="a_node9"><a xlink:href="classpkgAcquire_1_1Queue.xhtml" target="_top" xlink:title="A single download queue in a pkgAcquire object. {{{. ">
<polygon fill="#ffffff" stroke="#000000" points="1124.5,-626.5 1124.5,-645.5 1172.5,-645.5 1172.5,-626.5 1124.5,-626.5"/>
<text text-anchor="middle" x="1148.5" y="-633.5" font-family="Helvetica,sans-Serif" font-size="10.00" fill="#000000">Queue</text>
</a>
</g>
</g>
<!-- Node12&#45;&gt;Node14 -->
<g id="edge10" class="edge">
<title>Node12&#45;&gt;Node14</title>
<path fill="none" stroke="#9a32cd" stroke-dasharray="5,2" d="M930.1147,-648.3596C940.5106,-641.2599 953.7688,-633.6464 967,-630 1021.7101,-614.9223 1089.215,-624.0139 1124.4741,-630.7409"/>
<polygon fill="#9a32cd" stroke="#9a32cd" points="927.8592,-645.6707 921.7885,-654.3538 931.9491,-651.3517 927.8592,-645.6707"/>
<text text-anchor="middle" x="1019.5" y="-633" font-family="Helvetica,sans-Serif" font-size="10.00" fill="#000000"> Owner</text>
</g>
<!-- Node13&#45;&gt;Node12 -->
<g id="edge7" class="edge">
<title>Node13&#45;&gt;Node12</title>
<path fill="none" stroke="#9a32cd" stroke-dasharray="5,2" d="M749.3466,-740.4314C788.9936,-734.0315 834.9355,-725.1352 853,-716 873.5601,-705.6028 892.2233,-685.7032 902.2574,-673.7635"/>
<polygon fill="#9a32cd" stroke="#9a32cd" points="748.7526,-736.9818 739.4233,-742.0033 749.8478,-743.8956 748.7526,-736.9818"/>
<text text-anchor="middle" x="816" y="-737" font-family="Helvetica,sans-Serif" font-size="10.00" fill="#000000"> Items</text>
</g>
<!-- Node15 -->
<g id="node10" class="node">
<title>Node15</title>
<g id="a_node10"><a xlink:href="structpkgAcquire_1_1Queue_1_1QItem.xhtml" target="_top" xlink:title="A single item placed in this queue. ">
<polygon fill="#ffffff" stroke="#000000" points="1624.5,-704.5 1624.5,-723.5 1671.5,-723.5 1671.5,-704.5 1624.5,-704.5"/>
<text text-anchor="middle" x="1648" y="-711.5" font-family="Helvetica,sans-Serif" font-size="10.00" fill="#000000">QItem</text>
</a>
</g>
</g>
<!-- Node13&#45;&gt;Node15 -->
<g id="edge17" class="edge">
<title>Node13&#45;&gt;Node15</title>
<path fill="none" stroke="#9a32cd" stroke-dasharray="5,2" d="M749.0021,-756.2524C794.3295,-759.983 855.7364,-764 910,-764 910,-764 910,-764 1409.5,-764 1489.6706,-764 1581.8365,-736.6027 1624.3098,-722.3689"/>
<polygon fill="#9a32cd" stroke="#9a32cd" points="749.2615,-752.762 739.0037,-755.4128 748.6757,-759.7374 749.2615,-752.762"/>
<text text-anchor="middle" x="1148.5" y="-767" font-family="Helvetica,sans-Serif" font-size="10.00" fill="#000000"> Owners</text>
</g>
<!-- Node14&#45;&gt;Node12 -->
<g id="edge9" class="edge">
<title>Node14&#45;&gt;Node12</title>
<path fill="none" stroke="#9a32cd" stroke-dasharray="5,2" d="M1114.0796,-640.041C1069.2288,-645.3065 991.1806,-654.4694 945.7059,-659.8081"/>
<polygon fill="#9a32cd" stroke="#9a32cd" points="1114.6688,-643.4959 1124.1925,-638.8537 1113.8526,-636.5437 1114.6688,-643.4959"/>
<text text-anchor="middle" x="1019.5" y="-660" font-family="Helvetica,sans-Serif" font-size="10.00" fill="#000000"> Queues</text>
</g>
<!-- Node14&#45;&gt;Node19 -->
<g id="edge21" class="edge">
<title>Node14&#45;&gt;Node19</title>
<path fill="none" stroke="#9a32cd" stroke-dasharray="5,2" d="M1183.0009,-633.0697C1218.7794,-629.9888 1276.331,-624.915 1326,-620 1345.4429,-618.076 1367.4094,-615.7003 1383.9305,-613.873"/>
<polygon fill="#9a32cd" stroke="#9a32cd" points="1182.2932,-629.6175 1172.629,-633.9595 1182.8916,-636.5919 1182.2932,-629.6175"/>
<text text-anchor="middle" x="1275.5" y="-632" font-family="Helvetica,sans-Serif" font-size="10.00" fill="#000000"> OwnerQ</text>
</g>
<!-- Node15&#45;&gt;Node14 -->
<g id="edge11" class="edge">
<title>Node15&#45;&gt;Node14</title>
<path fill="none" stroke="#9a32cd" stroke-dasharray="5,2" d="M1614.224,-709.4311C1558.063,-701.7624 1441.9608,-685.6044 1344,-670 1282.0809,-660.1368 1209.391,-647.1131 1172.541,-640.408"/>
<polygon fill="#9a32cd" stroke="#9a32cd" points="1613.9338,-712.9238 1624.3147,-710.8056 1614.8786,-705.9878 1613.9338,-712.9238"/>
<text text-anchor="middle" x="1409.5" y="-692" font-family="Helvetica,sans-Serif" font-size="10.00" fill="#000000"> Items</text>
</g>
<!-- Node15&#45;&gt;Node15 -->
<g id="edge18" class="edge">
<title>Node15&#45;&gt;Node15</title>
<path fill="none" stroke="#9a32cd" stroke-dasharray="5,2" d="M1625.3066,-733.0292C1626.5445,-738.128 1634.1089,-742 1648,-742 1669.6836,-742 1675.9515,-732.5653 1666.8037,-723.7571"/>
<polygon fill="#9a32cd" stroke="#9a32cd" points="1628.5553,-734.3325 1629.1963,-723.7571 1622.1003,-731.6246 1628.5553,-734.3325"/>
<text text-anchor="middle" x="1648" y="-745" font-family="Helvetica,sans-Serif" font-size="10.00" fill="#000000"> Next</text>
</g>
<!-- Node15&#45;&gt;Node19 -->
<g id="edge26" class="edge">
<title>Node15&#45;&gt;Node19</title>
<path fill="none" stroke="#9a32cd" stroke-dasharray="5,2" d="M1634.0007,-696.7138C1617.3535,-677.4734 1587.6794,-647.1056 1555,-632 1515.9637,-613.9561 1465.2799,-610.5674 1435.1931,-610.3589"/>
<polygon fill="#9a32cd" stroke="#9a32cd" points="1631.3856,-699.0421 1640.5029,-704.4389 1636.7411,-694.5344 1631.3856,-699.0421"/>
<text text-anchor="middle" x="1524" y="-635" font-family="Helvetica,sans-Serif" font-size="10.00" fill="#000000"> CurrentItem</text>
</g>
<!-- Node16&#45;&gt;Node10 -->
<g id="edge39" class="edge">
<title>Node16&#45;&gt;Node10</title>
<path fill="none" stroke="#9a32cd" stroke-dasharray="5,2" d="M640.7576,-804.5774C623.8208,-800.1019 604.0337,-795.0745 586,-791 533.4567,-779.1284 515.8518,-790.6987 467,-768 447.8564,-759.1051 429.5728,-742.4041 419.0832,-731.7606"/>
<polygon fill="#9a32cd" stroke="#9a32cd" points="640.3295,-808.0854 650.8936,-807.2792 642.1325,-801.3216 640.3295,-808.0854"/>
<text text-anchor="middle" x="526.5" y="-794" font-family="Helvetica,sans-Serif" font-size="10.00" fill="#000000"> Desc</text>
</g>
<!-- Node16&#45;&gt;Node15 -->
<g id="edge12" class="edge">
<title>Node16&#45;&gt;Node15</title>
<path fill="none" stroke="#191970" d="M724.1052,-823.3374C769.6059,-830.7138 844.7527,-841 910,-841 910,-841 910,-841 1409.5,-841 1509.4199,-841 1608.1747,-753.0809 1638.531,-723.5456"/>
<polygon fill="#191970" stroke="#191970" points="724.4676,-819.8499 714.0308,-821.6729 723.3264,-826.7563 724.4676,-819.8499"/>
</g>
<!-- Node17 -->
<g id="node12" class="node">
<title>Node17</title>
<g id="a_node12"><a xlink:title="STL class. ">
<polygon fill="#ffffff" stroke="#bfbfbf" points="178.5,-363.5 178.5,-382.5 222.5,-382.5 222.5,-363.5 178.5,-363.5"/>
<text text-anchor="middle" x="200.5" y="-370.5" font-family="Helvetica,sans-Serif" font-size="10.00" fill="#000000">string</text>
</a>
</g>
</g>
<!-- Node17&#45;&gt;Node8 -->
<g id="edge48" class="edge">
<title>Node17&#45;&gt;Node8</title>
<path fill="none" stroke="#9a32cd" stroke-dasharray="5,2" d="M202.7737,-353.4234C209.5419,-298.0909 231.0917,-142.0324 263,-103 308.4428,-47.4112 338.2006,-36 410,-36 410,-36 410,-36 1275.5,-36 1508.1582,-36 1774.5895,-153.4757 1848.56,-188.3513"/>
<polygon fill="#9a32cd" stroke="#9a32cd" points="199.2984,-353.0094 201.5868,-363.3541 206.2489,-353.8402 199.2984,-353.0094"/>
<text text-anchor="middle" x="1019.5" y="-39" font-family="Helvetica,sans-Serif" font-size="10.00" fill="#000000"> BaseURI</text>
</g>
<!-- Node17&#45;&gt;Node9 -->
<g id="edge45" class="edge">
<title>Node17&#45;&gt;Node9</title>
<path fill="none" stroke="#9a32cd" stroke-dasharray="5,2" d="M209.6039,-354.2951C219.8267,-335.4717 238.2764,-307.2479 263,-293 298.6543,-272.4529 437.4024,-242 682.5,-242 682.5,-242 682.5,-242 1148.5,-242 1214.9961,-242 1291.0218,-242 1343.8005,-242"/>
<polygon fill="#9a32cd" stroke="#9a32cd" points="206.3817,-352.9067 204.9007,-363.3975 212.6006,-356.12 206.3817,-352.9067"/>
<text text-anchor="middle" x="816" y="-245" font-family="Helvetica,sans-Serif" font-size="10.00" fill="#000000"> PartialFile</text>
</g>
<!-- Node17&#45;&gt;Node10 -->
<g id="edge38" class="edge">
<title>Node17&#45;&gt;Node10</title>
<path fill="none" stroke="#9a32cd" stroke-dasharray="5,2" d="M202.1118,-392.8373C207.353,-452.6877 225.7658,-629.9304 263,-672 280.1512,-691.3786 354.2631,-709.8143 390.2471,-717.821"/>
<polygon fill="#9a32cd" stroke="#9a32cd" points="205.5685,-392.1765 201.2375,-382.5073 198.5934,-392.7669 205.5685,-392.1765"/>
<text text-anchor="middle" x="308" y="-743" font-family="Helvetica,sans-Serif" font-size="10.00" fill="#000000"> ActiveSubprocess</text>
<text text-anchor="middle" x="308" y="-732" font-family="Helvetica,sans-Serif" font-size="10.00" fill="#000000">DestFile</text>
<text text-anchor="middle" x="308" y="-721" font-family="Helvetica,sans-Serif" font-size="10.00" fill="#000000">ErrorText</text>
<text text-anchor="middle" x="308" y="-710" font-family="Helvetica,sans-Serif" font-size="10.00" fill="#000000">UsedMirror</text>
</g>
<!-- Node17&#45;&gt;Node12 -->
<g id="edge35" class="edge">
<title>Node17&#45;&gt;Node12</title>
<path fill="none" stroke="#9a32cd" stroke-dasharray="5,2" d="M203.2383,-392.7944C210.4945,-442.225 231.8206,-569.0411 263,-596 355.2721,-675.7819 752.4434,-669.342 874.3067,-665.3817"/>
<polygon fill="#9a32cd" stroke="#9a32cd" points="206.6804,-392.1399 201.8007,-382.7357 199.7508,-393.1303 206.6804,-392.1399"/>
<text text-anchor="middle" x="526.5" y="-666" font-family="Helvetica,sans-Serif" font-size="10.00" fill="#000000"> Lock</text>
</g>
<!-- Node17&#45;&gt;Node14 -->
<g id="edge32" class="edge">
<title>Node17&#45;&gt;Node14</title>
<path fill="none" stroke="#9a32cd" stroke-dasharray="5,2" d="M210.4455,-391.7334C221.5552,-411.5811 240.907,-443.1481 263,-466 304.1547,-508.5684 315.683,-522.886 371,-544 444.1618,-571.9252 994.867,-603.4734 1072,-617 1089.6576,-620.0966 1109.2757,-624.9992 1124.2242,-629.0487"/>
<polygon fill="#9a32cd" stroke="#9a32cd" points="213.4158,-389.8701 205.5469,-382.7757 207.2741,-393.2288 213.4158,-389.8701"/>
<text text-anchor="middle" x="682.5" y="-592" font-family="Helvetica,sans-Serif" font-size="10.00" fill="#000000"> Name</text>
</g>
<!-- Node17&#45;&gt;Node16 -->
<g id="edge14" class="edge">
<title>Node17&#45;&gt;Node16</title>
<path fill="none" stroke="#9a32cd" stroke-dasharray="5,2" d="M200.9185,-392.8109C202.824,-463.4817 212.9181,-701.8243 263,-755 321.1043,-816.6937 366.814,-776.3194 449,-797 457.0519,-799.0261 458.8139,-800.6124 467,-802 531.6884,-812.9651 608.6388,-815.4811 650.8579,-815.9754"/>
<polygon fill="#9a32cd" stroke="#9a32cd" points="204.413,-392.5399 200.6709,-382.6279 197.4151,-392.7101 204.413,-392.5399"/>
<text text-anchor="middle" x="410" y="-822" font-family="Helvetica,sans-Serif" font-size="10.00" fill="#000000"> Description</text>
<text text-anchor="middle" x="410" y="-811" font-family="Helvetica,sans-Serif" font-size="10.00" fill="#000000">URI</text>
<text text-anchor="middle" x="410" y="-800" font-family="Helvetica,sans-Serif" font-size="10.00" fill="#000000">ShortDesc</text>
</g>
<!-- Node17&#45;&gt;Node19 -->
<g id="edge27" class="edge">
<title>Node17&#45;&gt;Node19</title>
<path fill="none" stroke="#9a32cd" stroke-dasharray="5,2" d="M230.9525,-386.5156C271.1307,-403.0873 344.4383,-429 410,-429 410,-429 410,-429 1019.5,-429 1184.2535,-429 1354.529,-564.0233 1398.5856,-601.4711"/>
<polygon fill="#9a32cd" stroke="#9a32cd" points="232.2874,-383.2801 221.7128,-382.6267 229.5719,-389.732 232.2874,-383.2801"/>
<text text-anchor="middle" x="816" y="-454" font-family="Helvetica,sans-Serif" font-size="10.00" fill="#000000"> OutQueue</text>
<text text-anchor="middle" x="816" y="-443" font-family="Helvetica,sans-Serif" font-size="10.00" fill="#000000">Access</text>
<text text-anchor="middle" x="816" y="-432" font-family="Helvetica,sans-Serif" font-size="10.00" fill="#000000">Status</text>
</g>
<!-- Node20 -->
<g id="node15" class="node">
<title>Node20</title>
<g id="a_node15"><a xlink:href="structpkgAcquire_1_1MethodConfig.xhtml" target="_top" xlink:title="Information about the properties of a single acquire method. {{{. ">
<polygon fill="#ffffff" stroke="#000000" points="641,-459.5 641,-478.5 724,-478.5 724,-459.5 641,-459.5"/>
<text text-anchor="middle" x="682.5" y="-466.5" font-family="Helvetica,sans-Serif" font-size="10.00" fill="#000000">MethodConfig</text>
</a>
</g>
</g>
<!-- Node17&#45;&gt;Node20 -->
<g id="edge24" class="edge">
<title>Node17&#45;&gt;Node20</title>
<path fill="none" stroke="#9a32cd" stroke-dasharray="5,2" d="M211.1273,-391.5153C221.8541,-408.2386 240.0891,-431.8784 263,-443 328.7263,-474.9052 548.3099,-472.8051 640.8317,-470.3772"/>
<polygon fill="#9a32cd" stroke="#9a32cd" points="213.8948,-389.331 205.7005,-382.615 207.9182,-392.9752 213.8948,-389.331"/>
<text text-anchor="middle" x="410" y="-483" font-family="Helvetica,sans-Serif" font-size="10.00" fill="#000000"> Access</text>
<text text-anchor="middle" x="410" y="-472" font-family="Helvetica,sans-Serif" font-size="10.00" fill="#000000">Version</text>
</g>
<!-- Node23 -->
<g id="node18" class="node">
<title>Node23</title>
<polygon fill="#ffffff" stroke="#bfbfbf" points="467,-380.5 467,-399.5 586,-399.5 586,-380.5 467,-380.5"/>
<text text-anchor="middle" x="526.5" y="-387.5" font-family="Helvetica,sans-Serif" font-size="10.00" fill="#000000">vector&lt; std::string &gt;</text>
</g>
<!-- Node17&#45;&gt;Node23 -->
<g id="edge30" class="edge">
<title>Node17&#45;&gt;Node23</title>
<path fill="none" stroke="#9a32cd" stroke-dasharray="5,2" d="M232.744,-374.6814C287.1097,-377.5165 397.8083,-383.2891 466.7092,-386.8821"/>
<polygon fill="#9a32cd" stroke="#9a32cd" points="232.8197,-371.1807 222.651,-374.1551 232.4551,-378.1712 232.8197,-371.1807"/>
<text text-anchor="middle" x="308" y="-383" font-family="Helvetica,sans-Serif" font-size="10.00" fill="#000000"> elements</text>
</g>
<!-- Node24 -->
<g id="node19" class="node">
<title>Node24</title>
<g id="a_node19"><a xlink:href="classIndexTarget.xhtml" target="_top" xlink:title="Information about an index file. ">
<polygon fill="#ffffff" stroke="#000000" points="779,-290.5 779,-309.5 853,-309.5 853,-290.5 779,-290.5"/>
<text text-anchor="middle" x="816" y="-297.5" font-family="Helvetica,sans-Serif" font-size="10.00" fill="#000000">IndexTarget</text>
</a>
</g>
</g>
<!-- Node17&#45;&gt;Node24 -->
<g id="edge43" class="edge">
<title>Node17&#45;&gt;Node24</title>
<path fill="none" stroke="#9a32cd" stroke-dasharray="5,2" d="M223.1932,-357.8799C254.731,-337.9449 314.3434,-304.0983 371,-293 519.8074,-263.8505 701.9795,-283.5069 778.9106,-294.2703"/>
<polygon fill="#9a32cd" stroke="#9a32cd" points="221.2203,-354.9873 214.7042,-363.3414 225.0078,-360.8742 221.2203,-354.9873"/>
<text text-anchor="middle" x="410" y="-329" font-family="Helvetica,sans-Serif" font-size="10.00" fill="#000000"> Description</text>
<text text-anchor="middle" x="410" y="-318" font-family="Helvetica,sans-Serif" font-size="10.00" fill="#000000">URI</text>
<text text-anchor="middle" x="410" y="-307" font-family="Helvetica,sans-Serif" font-size="10.00" fill="#000000">ShortDesc</text>
<text text-anchor="middle" x="410" y="-296" font-family="Helvetica,sans-Serif" font-size="10.00" fill="#000000">MetaKey</text>
</g>
<!-- Node25 -->
<g id="node20" class="node">
<title>Node25</title>
<polygon fill="#ffffff" stroke="#bfbfbf" points="467,-337 467,-367 586,-367 586,-337 467,-337"/>
<text text-anchor="start" x="475" y="-355" font-family="Helvetica,sans-Serif" font-size="10.00" fill="#000000">map&lt; std::string, std</text>
<text text-anchor="middle" x="526.5" y="-344" font-family="Helvetica,sans-Serif" font-size="10.00" fill="#000000">::string &gt;</text>
</g>
<!-- Node17&#45;&gt;Node25 -->
<g id="edge42" class="edge">
<title>Node17&#45;&gt;Node25</title>
<path fill="none" stroke="#9a32cd" stroke-dasharray="5,2" d="M230.1027,-359.6804C240.3114,-355.7456 251.9586,-351.9671 263,-350 332.1343,-337.6831 413.098,-340.8559 466.8491,-345.3712"/>
<polygon fill="#9a32cd" stroke="#9a32cd" points="228.7722,-356.4431 220.8225,-363.4468 231.4047,-362.9293 228.7722,-356.4431"/>
<text text-anchor="middle" x="308" y="-364" font-family="Helvetica,sans-Serif" font-size="10.00" fill="#000000"> keys</text>
<text text-anchor="middle" x="308" y="-353" font-family="Helvetica,sans-Serif" font-size="10.00" fill="#000000">elements</text>
</g>
<!-- Node27 -->
<g id="node22" class="node">
<title>Node27</title>
<g id="a_node22"><a xlink:href="classmetaIndex.xhtml" target="_top" xlink:title="metaIndex">
<polygon fill="#ffffff" stroke="#000000" points="875.5,-116.5 875.5,-135.5 944.5,-135.5 944.5,-116.5 875.5,-116.5"/>
<text text-anchor="middle" x="910" y="-123.5" font-family="Helvetica,sans-Serif" font-size="10.00" fill="#000000">metaIndex</text>
</a>
</g>
</g>
<!-- Node17&#45;&gt;Node27 -->
<g id="edge58" class="edge">
<title>Node17&#45;&gt;Node27</title>
<path fill="none" stroke="#9a32cd" stroke-dasharray="5,2" d="M202.8275,-353.3465C207.7686,-320.7333 222.4035,-255.6046 263,-221 348.0729,-148.4835 649.6448,-159.8015 761,-150 801.9258,-146.3977 812.5608,-148.2509 853,-141 860.957,-139.5733 869.4311,-137.5987 877.3455,-135.5502"/>
<polygon fill="#9a32cd" stroke="#9a32cd" points="199.3367,-353.0424 201.4573,-363.4228 206.2729,-353.9856 199.3367,-353.0424"/>
<text text-anchor="middle" x="526.5" y="-212" font-family="Helvetica,sans-Serif" font-size="10.00" fill="#000000"> Codename</text>
<text text-anchor="middle" x="526.5" y="-201" font-family="Helvetica,sans-Serif" font-size="10.00" fill="#000000">Dist</text>
<text text-anchor="middle" x="526.5" y="-190" font-family="Helvetica,sans-Serif" font-size="10.00" fill="#000000">Suite</text>
<text text-anchor="middle" x="526.5" y="-179" font-family="Helvetica,sans-Serif" font-size="10.00" fill="#000000">URI</text>
<text text-anchor="middle" x="526.5" y="-168" font-family="Helvetica,sans-Serif" font-size="10.00" fill="#000000">SignedBy</text>
</g>
<!-- Node28 -->
<g id="node23" class="node">
<title>Node28</title>
<polygon fill="#ffffff" stroke="#bfbfbf" points="604,-111 604,-141 761,-141 761,-111 604,-111"/>
<text text-anchor="start" x="612" y="-129" font-family="Helvetica,sans-Serif" font-size="10.00" fill="#000000">map&lt; std::string, metaIndex</text>
<text text-anchor="middle" x="682.5" y="-118" font-family="Helvetica,sans-Serif" font-size="10.00" fill="#000000">::checkSum *&gt;</text>
</g>
<!-- Node17&#45;&gt;Node28 -->
<g id="edge52" class="edge">
<title>Node17&#45;&gt;Node28</title>
<path fill="none" stroke="#9a32cd" stroke-dasharray="5,2" d="M204.2775,-353.2701C213.1026,-309.3101 236.3577,-205.418 263,-183 313.1227,-140.8246 496.827,-129.7471 603.7896,-126.9086"/>
<polygon fill="#9a32cd" stroke="#9a32cd" points="200.8016,-352.8073 202.3081,-363.2945 207.6703,-354.1568 200.8016,-352.8073"/>
<text text-anchor="middle" x="410" y="-149" font-family="Helvetica,sans-Serif" font-size="10.00" fill="#000000"> keys</text>
</g>
<!-- Node29 -->
<g id="node24" class="node">
<title>Node29</title>
<g id="a_node24"><a xlink:href="structmetaIndex_1_1checkSum.xhtml" target="_top" xlink:title="checkSum">
<polygon fill="#ffffff" stroke="#000000" points="376.5,-102.5 376.5,-121.5 443.5,-121.5 443.5,-102.5 376.5,-102.5"/>
<text text-anchor="middle" x="410" y="-109.5" font-family="Helvetica,sans-Serif" font-size="10.00" fill="#000000">checkSum</text>
</a>
</g>
</g>
<!-- Node17&#45;&gt;Node29 -->
<g id="edge55" class="edge">
<title>Node17&#45;&gt;Node29</title>
<path fill="none" stroke="#9a32cd" stroke-dasharray="5,2" d="M202.8534,-353.1413C209.4405,-301.0875 229.7851,-162.6629 263,-133 293.7653,-105.5248 343.4958,-104.1905 376.4674,-107.0534"/>
<polygon fill="#9a32cd" stroke="#9a32cd" points="199.3404,-353.0332 201.5953,-363.3853 206.2882,-353.8866 199.3404,-353.0332"/>
<text text-anchor="middle" x="308" y="-136" font-family="Helvetica,sans-Serif" font-size="10.00" fill="#000000"> MetaKeyFilename</text>
</g>
<!-- Node18 -->
<g id="node13" class="node">
<title>Node18</title>
<g id="a_node13"><a xlink:title="STL class. ">
<polygon fill="#ffffff" stroke="#bfbfbf" points="0,-363.5 0,-382.5 119,-382.5 119,-363.5 0,-363.5"/>
<text text-anchor="middle" x="59.5" y="-370.5" font-family="Helvetica,sans-Serif" font-size="10.00" fill="#000000">basic_string&lt; char &gt;</text>
</a>
</g>
</g>
<!-- Node18&#45;&gt;Node17 -->
<g id="edge15" class="edge">
<title>Node18&#45;&gt;Node17</title>
<path fill="none" stroke="#191970" d="M129.6368,-373C147.2611,-373 164.9157,-373 178.1946,-373"/>
<polygon fill="#191970" stroke="#191970" points="129.2967,-369.5001 119.2967,-373 129.2967,-376.5001 129.2967,-369.5001"/>
</g>
<!-- Node19&#45;&gt;Node12 -->
<g id="edge37" class="edge">
<title>Node19&#45;&gt;Node12</title>
<path fill="none" stroke="#9a32cd" stroke-dasharray="5,2" d="M1380.5235,-624.6642C1364.739,-631.5373 1344.6682,-639.3706 1326,-644 1170.6649,-682.5208 1126.6513,-683.149 967,-672 960.1217,-671.5197 952.8104,-670.7171 945.7991,-669.8009"/>
<polygon fill="#9a32cd" stroke="#9a32cd" points="1382.0425,-627.8191 1389.7467,-620.5461 1379.1886,-621.4273 1382.0425,-627.8191"/>
<text text-anchor="middle" x="1148.5" y="-681" font-family="Helvetica,sans-Serif" font-size="10.00" fill="#000000"> Workers</text>
</g>
<!-- Node19&#45;&gt;Node14 -->
<g id="edge33" class="edge">
<title>Node19&#45;&gt;Node14</title>
<path fill="none" stroke="#9a32cd" stroke-dasharray="5,2" d="M1373.481,-605.9601C1336.0426,-601.7114 1275.9124,-597.6738 1225,-607 1204.742,-610.7109 1182.8901,-619.5217 1167.7489,-626.4647"/>
<polygon fill="#9a32cd" stroke="#9a32cd" points="1373.5271,-609.4909 1383.8739,-607.2118 1374.3642,-602.5411 1373.5271,-609.4909"/>
<text text-anchor="middle" x="1275.5" y="-610" font-family="Helvetica,sans-Serif" font-size="10.00" fill="#000000"> Workers</text>
</g>
<!-- Node19&#45;&gt;Node15 -->
<g id="edge19" class="edge">
<title>Node19&#45;&gt;Node15</title>
<path fill="none" stroke="#9a32cd" stroke-dasharray="5,2" d="M1440.9646,-624.5885C1489.9058,-645.7245 1583.0645,-685.9566 1625.6965,-704.3679"/>
<polygon fill="#9a32cd" stroke="#9a32cd" points="1442.0782,-621.257 1431.51,-620.5054 1439.3028,-627.6833 1442.0782,-621.257"/>
<text text-anchor="middle" x="1524" y="-674" font-family="Helvetica,sans-Serif" font-size="10.00" fill="#000000"> Worker</text>
</g>
<!-- Node19&#45;&gt;Node19 -->
<g id="edge31" class="edge">
<title>Node19&#45;&gt;Node19</title>
<path fill="none" stroke="#9a32cd" stroke-dasharray="5,2" d="M1388.3899,-630.4C1389.7997,-635.3146 1396.8364,-639 1409.5,-639 1429.7617,-639 1435.6186,-629.5653 1427.0707,-620.7571"/>
<polygon fill="#9a32cd" stroke="#9a32cd" points="1391.7693,-631.3507 1391.9293,-620.7571 1385.1979,-628.9387 1391.7693,-631.3507"/>
<text text-anchor="middle" x="1409.5" y="-653" font-family="Helvetica,sans-Serif" font-size="10.00" fill="#000000"> NextQueue</text>
<text text-anchor="middle" x="1409.5" y="-642" font-family="Helvetica,sans-Serif" font-size="10.00" fill="#000000">NextAcquire</text>
</g>
<!-- Node20&#45;&gt;Node12 -->
<g id="edge34" class="edge">
<title>Node20&#45;&gt;Node12</title>
<path fill="none" stroke="#9a32cd" stroke-dasharray="5,2" d="M702.4796,-485.0492C734.6301,-511.0061 799.6453,-564.0388 853,-611 869.8379,-625.8202 888.806,-643.7054 900.0619,-654.4493"/>
<polygon fill="#9a32cd" stroke="#9a32cd" points="704.6621,-482.3129 694.6797,-478.7629 700.2695,-487.7632 704.6621,-482.3129"/>
<text text-anchor="middle" x="816" y="-614" font-family="Helvetica,sans-Serif" font-size="10.00" fill="#000000"> Configs</text>
</g>
<!-- Node20&#45;&gt;Node19 -->
<g id="edge22" class="edge">
<title>Node20&#45;&gt;Node19</title>
<path fill="none" stroke="#9a32cd" stroke-dasharray="5,2" d="M734.1493,-477.9287C843.5997,-497.0391 1106.816,-544.0011 1326,-591 1345.5308,-595.1879 1367.4932,-600.4714 1383.9904,-604.556"/>
<polygon fill="#9a32cd" stroke="#9a32cd" points="734.4965,-474.4365 724.044,-476.1672 733.2944,-481.3325 734.4965,-474.4365"/>
<text text-anchor="middle" x="1019.5" y="-542" font-family="Helvetica,sans-Serif" font-size="10.00" fill="#000000"> Config</text>
</g>
<!-- Node20&#45;&gt;Node20 -->
<g id="edge23" class="edge">
<title>Node20&#45;&gt;Node20</title>
<path fill="none" stroke="#9a32cd" stroke-dasharray="5,2" d="M657.9465,-488.0292C659.2858,-493.128 667.4703,-497 682.5,-497 705.9609,-497 712.7426,-487.5653 702.845,-478.7571"/>
<polygon fill="#9a32cd" stroke="#9a32cd" points="661.209,-489.3096 662.155,-478.7571 654.8348,-486.4164 661.209,-489.3096"/>
<text text-anchor="middle" x="682.5" y="-500" font-family="Helvetica,sans-Serif" font-size="10.00" fill="#000000"> Next</text>
</g>
<!-- Node21 -->
<g id="node16" class="node">
<title>Node21</title>
<g id="a_node16"><a xlink:href="classpkgAcquire_1_1MethodConfig_1_1Private.xhtml" target="_top" xlink:title="Private">
<polygon fill="#ffffff" stroke="#000000" points="384.5,-515.5 384.5,-534.5 435.5,-534.5 435.5,-515.5 384.5,-515.5"/>
<text text-anchor="middle" x="410" y="-522.5" font-family="Helvetica,sans-Serif" font-size="10.00" fill="#000000">Private</text>
</a>
</g>
</g>
<!-- Node21&#45;&gt;Node20 -->
<g id="edge25" class="edge">
<title>Node21&#45;&gt;Node20</title>
<path fill="none" stroke="#9a32cd" stroke-dasharray="5,2" d="M445.7539,-515.9289C452.7826,-514.2275 460.1119,-512.5106 467,-511 519.6173,-499.4609 533.129,-498.3143 586,-488 603.9323,-484.5017 623.7327,-480.6085 640.7068,-477.2617"/>
<polygon fill="#9a32cd" stroke="#9a32cd" points="444.6339,-512.5999 435.7576,-518.3845 446.3039,-519.3977 444.6339,-512.5999"/>
<text text-anchor="middle" x="526.5" y="-514" font-family="Helvetica,sans-Serif" font-size="10.00" fill="#000000"> d</text>
</g>
<!-- Node22 -->
<g id="node17" class="node">
<title>Node22</title>
<g id="a_node17"><a xlink:href="classpkgAcquireStatus.xhtml" target="_top" xlink:title="A monitor object for downloads controlled by the pkgAcquire class. {{{. ">
<polygon fill="#ffffff" stroke="#000000" points="631.5,-611.5 631.5,-630.5 733.5,-630.5 733.5,-611.5 631.5,-611.5"/>
<text text-anchor="middle" x="682.5" y="-618.5" font-family="Helvetica,sans-Serif" font-size="10.00" fill="#000000">pkgAcquireStatus</text>
</a>
</g>
</g>
<!-- Node22&#45;&gt;Node12 -->
<g id="edge36" class="edge">
<title>Node22&#45;&gt;Node12</title>
<path fill="none" stroke="#9a32cd" stroke-dasharray="5,2" d="M743.9001,-623.5708C776.6907,-626.0081 817.4991,-630.7553 853,-640 866.1962,-643.4364 880.3275,-649.3699 891.2184,-654.4771"/>
<polygon fill="#9a32cd" stroke="#9a32cd" points="743.7693,-620.0536 733.5524,-622.8578 743.2881,-627.037 743.7693,-620.0536"/>
<text text-anchor="middle" x="816" y="-643" font-family="Helvetica,sans-Serif" font-size="10.00" fill="#000000"> Log</text>
</g>
<!-- Node22&#45;&gt;Node19 -->
<g id="edge28" class="edge">
<title>Node22&#45;&gt;Node19</title>
<path fill="none" stroke="#9a32cd" stroke-dasharray="5,2" d="M743.9797,-617.2064C844.5244,-611.2439 1050.4308,-600.0439 1225,-597 1269.8821,-596.2174 1281.2659,-593.2758 1326,-597 1345.4821,-598.6219 1367.2588,-602.3373 1383.6874,-605.5332"/>
<polygon fill="#9a32cd" stroke="#9a32cd" points="743.4809,-613.7298 733.7071,-617.8192 743.8977,-620.7174 743.4809,-613.7298"/>
<text text-anchor="middle" x="1019.5" y="-608" font-family="Helvetica,sans-Serif" font-size="10.00" fill="#000000"> Log</text>
</g>
<!-- Node23&#45;&gt;Node19 -->
<g id="edge29" class="edge">
<title>Node23&#45;&gt;Node19</title>
<path fill="none" stroke="#9a32cd" stroke-dasharray="5,2" d="M596.3612,-390C654.9971,-390 740.9679,-390 816,-390 816,-390 816,-390 1148.5,-390 1231.2219,-390 1262.9424,-392.4589 1326,-446 1377.3937,-489.6374 1400.6578,-572.7128 1407.359,-601.159"/>
<polygon fill="#9a32cd" stroke="#9a32cd" points="596.1034,-386.5001 586.1033,-390 596.1033,-393.5001 596.1034,-386.5001"/>
<text text-anchor="middle" x="910" y="-393" font-family="Helvetica,sans-Serif" font-size="10.00" fill="#000000"> MessageQueue</text>
</g>
<!-- Node24&#45;&gt;Node7 -->
<g id="edge49" class="edge">
<title>Node24&#45;&gt;Node7</title>
<path fill="none" stroke="#9a32cd" stroke-dasharray="5,2" d="M863.0619,-306.5342C904.2406,-311.6836 965.7136,-318 1019.5,-318 1019.5,-318 1019.5,-318 1868.5,-318 1935.907,-318 1986.9652,-236.4796 2002.8326,-207.8201"/>
<polygon fill="#9a32cd" stroke="#9a32cd" points="863.41,-303.0503 853.0471,-305.2547 862.5229,-309.9939 863.41,-303.0503"/>
<text text-anchor="middle" x="1409.5" y="-321" font-family="Helvetica,sans-Serif" font-size="10.00" fill="#000000"> DetachedSigTarget</text>
</g>
<!-- Node24&#45;&gt;Node9 -->
<g id="edge40" class="edge">
<title>Node24&#45;&gt;Node9</title>
<path fill="none" stroke="#9a32cd" stroke-dasharray="5,2" d="M863.4079,-297.1822C953.68,-291.5349 1156.3856,-277.5008 1326,-256 1335.9159,-254.743 1346.4554,-253.166 1356.5877,-251.5277"/>
<polygon fill="#9a32cd" stroke="#9a32cd" points="862.9873,-293.7015 853.223,-297.8135 863.4204,-300.688 862.9873,-293.7015"/>
<text text-anchor="middle" x="1019.5" y="-292" font-family="Helvetica,sans-Serif" font-size="10.00" fill="#000000"> Target</text>
</g>
<!-- Node25&#45;&gt;Node24 -->
<g id="edge41" class="edge">
<title>Node25&#45;&gt;Node24</title>
<path fill="none" stroke="#9a32cd" stroke-dasharray="5,2" d="M596.2372,-339.4738C653.7048,-329.1515 732.97,-314.9139 778.9243,-306.6595"/>
<polygon fill="#9a32cd" stroke="#9a32cd" points="595.3573,-336.0758 586.1336,-341.2886 596.5948,-342.9655 595.3573,-336.0758"/>
<text text-anchor="middle" x="682.5" y="-341" font-family="Helvetica,sans-Serif" font-size="10.00" fill="#000000"> Options</text>
</g>
<!-- Node26&#45;&gt;Node8 -->
<g id="edge46" class="edge">
<title>Node26&#45;&gt;Node8</title>
<path fill="none" stroke="#9a32cd" stroke-dasharray="5,2" d="M1732.9304,-225.3424C1754.7909,-221.0261 1778.2747,-216.364 1800,-212 1807.1403,-210.5657 1814.6964,-209.0347 1822.0812,-207.5311"/>
<polygon fill="#9a32cd" stroke="#9a32cd" points="1732.1462,-221.9296 1723.0128,-227.299 1733.5011,-228.7972 1732.1462,-221.9296"/>
<text text-anchor="middle" x="1770.5" y="-226" font-family="Helvetica,sans-Serif" font-size="10.00" fill="#000000"> Transaction</text>
</g>
<!-- Node27&#45;&gt;Node6 -->
<g id="edge50" class="edge">
<title>Node27&#45;&gt;Node6</title>
<path fill="none" stroke="#9a32cd" stroke-dasharray="5,2" d="M954.9698,-126C993.1265,-126 1048.1437,-126 1089.772,-126"/>
<polygon fill="#9a32cd" stroke="#9a32cd" points="954.68,-122.5001 944.6799,-126 954.6799,-129.5001 954.68,-122.5001"/>
<text text-anchor="middle" x="1019.5" y="-140" font-family="Helvetica,sans-Serif" font-size="10.00" fill="#000000"> LastMetaIndexParser</text>
<text text-anchor="middle" x="1019.5" y="-129" font-family="Helvetica,sans-Serif" font-size="10.00" fill="#000000">MetaIndexParser</text>
</g>
<!-- Node28&#45;&gt;Node27 -->
<g id="edge51" class="edge">
<title>Node28&#45;&gt;Node27</title>
<path fill="none" stroke="#9a32cd" stroke-dasharray="5,2" d="M771.2656,-126C807.6519,-126 847.6262,-126 875.2799,-126"/>
<polygon fill="#9a32cd" stroke="#9a32cd" points="771.1112,-122.5001 761.1112,-126 771.1111,-129.5001 771.1112,-122.5001"/>
<text text-anchor="middle" x="816" y="-129" font-family="Helvetica,sans-Serif" font-size="10.00" fill="#000000"> Entries</text>
</g>
<!-- Node29&#45;&gt;Node28 -->
<g id="edge53" class="edge">
<title>Node29&#45;&gt;Node28</title>
<path fill="none" stroke="#9a32cd" stroke-dasharray="5,2" d="M453.8521,-111.1336C489.4921,-110.7577 541.0471,-110.9592 586,-114 591.8112,-114.3931 597.8087,-114.8982 603.8367,-115.4779"/>
<polygon fill="#9a32cd" stroke="#9a32cd" points="453.7401,-107.6346 443.7847,-111.2596 453.8278,-114.6341 453.7401,-107.6346"/>
<text text-anchor="middle" x="526.5" y="-117" font-family="Helvetica,sans-Serif" font-size="10.00" fill="#000000"> elements</text>
</g>
<!-- Node30 -->
<g id="node25" class="node">
<title>Node30</title>
<g id="a_node25"><a xlink:href="classHashStringList.xhtml" target="_top" xlink:title="HashStringList">
<polygon fill="#ffffff" stroke="#000000" points="157,-.5 157,-19.5 244,-19.5 244,-.5 157,-.5"/>
<text text-anchor="middle" x="200.5" y="-7.5" font-family="Helvetica,sans-Serif" font-size="10.00" fill="#000000">HashStringList</text>
</a>
</g>
</g>
<!-- Node30&#45;&gt;Node29 -->
<g id="edge54" class="edge">
<title>Node30&#45;&gt;Node29</title>
<path fill="none" stroke="#9a32cd" stroke-dasharray="5,2" d="M229.3402,-24.0415C272.5527,-45.0806 352.9912,-84.2439 390.1905,-102.3553"/>
<polygon fill="#9a32cd" stroke="#9a32cd" points="230.7324,-20.8266 220.2093,-19.5959 227.6681,-27.1203 230.7324,-20.8266"/>
<text text-anchor="middle" x="308" y="-85" font-family="Helvetica,sans-Serif" font-size="10.00" fill="#000000"> Hashes</text>
</g>
<!-- Node31 -->
<g id="node26" class="node">
<title>Node31</title>
<polygon fill="#ffffff" stroke="#bfbfbf" points="614,-67.5 614,-86.5 751,-86.5 751,-67.5 614,-67.5"/>
<text text-anchor="middle" x="682.5" y="-74.5" font-family="Helvetica,sans-Serif" font-size="10.00" fill="#000000">vector&lt; pkgIndexFile *&gt;</text>
</g>
<!-- Node31&#45;&gt;Node27 -->
<g id="edge56" class="edge">
<title>Node31&#45;&gt;Node27</title>
<path fill="none" stroke="#9a32cd" stroke-dasharray="5,2" d="M744.7564,-88.4774C777.1374,-94.6838 817.3081,-102.7529 853,-111 860.2781,-112.6817 868.0404,-114.624 875.4188,-116.5416"/>
<polygon fill="#9a32cd" stroke="#9a32cd" points="745.0107,-84.963 734.5324,-86.53 743.7009,-91.8394 745.0107,-84.963"/>
<text text-anchor="middle" x="816" y="-114" font-family="Helvetica,sans-Serif" font-size="10.00" fill="#000000"> Indexes</text>
</g>
<!-- Node32 -->
<g id="node27" class="node">
<title>Node32</title>
<g id="a_node27"><a xlink:href="classpkgIndexFile.xhtml" target="_top" xlink:title="pkgIndexFile">
<polygon fill="#ffffff" stroke="#000000" points="371,-64.5 371,-83.5 449,-83.5 449,-64.5 371,-64.5"/>
<text text-anchor="middle" x="410" y="-71.5" font-family="Helvetica,sans-Serif" font-size="10.00" fill="#000000">pkgIndexFile</text>
</a>
</g>
</g>
<!-- Node32&#45;&gt;Node31 -->
<g id="edge57" class="edge">
<title>Node32&#45;&gt;Node31</title>
<path fill="none" stroke="#9a32cd" stroke-dasharray="5,2" d="M459.2929,-74.5427C502.4612,-75.0179 565.6347,-75.7134 613.7656,-76.2433"/>
<polygon fill="#9a32cd" stroke="#9a32cd" points="459.0806,-71.0402 449.0426,-74.4298 459.0034,-78.0398 459.0806,-71.0402"/>
<text text-anchor="middle" x="526.5" y="-79" font-family="Helvetica,sans-Serif" font-size="10.00" fill="#000000"> elements</text>
</g>
</g>
</svg>
