<?xml version="1.0" encoding="UTF-8" standalone="no"?>
<!DOCTYPE svg PUBLIC "-//W3C//DTD SVG 1.1//EN"
 "http://www.w3.org/Graphics/SVG/1.1/DTD/svg11.dtd">
<!-- Generated by graphviz version 2.40.1 (20161225.0304)
 -->
<!-- Title: BufferedWriteFileFdPrivate Pages: 1 -->
<svg width="350pt" height="388pt"
 viewBox="0.00 0.00 350.15 388.00" xmlns="http://www.w3.org/2000/svg" xmlns:xlink="http://www.w3.org/1999/xlink">
<g id="graph0" class="graph" transform="scale(1 1) rotate(0) translate(4 384)">
<title>BufferedWriteFileFdPrivate</title>
<polygon fill="#ffffff" stroke="transparent" points="-4,4 -4,-384 346.1503,-384 346.1503,4 -4,4"/>
<!-- Node2 -->
<g id="node1" class="node">
<title>Node2</title>
<polygon fill="#bfbfbf" stroke="#000000" points="155.1503,-.5 155.1503,-19.5 301.1503,-19.5 301.1503,-.5 155.1503,-.5"/>
<text text-anchor="middle" x="228.1503" y="-7.5" font-family="Helvetica,sans-Serif" font-size="10.00" fill="#000000">BufferedWriteFileFdPrivate</text>
</g>
<!-- Node3 -->
<g id="node2" class="node">
<title>Node3</title>
<g id="a_node2"><a xlink:href="classFileFdPrivate.xhtml" target="_top" xlink:title="FileFdPrivate">
<polygon fill="#ffffff" stroke="#000000" points="161.6503,-67.5 161.6503,-86.5 240.6503,-86.5 240.6503,-67.5 161.6503,-67.5"/>
<text text-anchor="middle" x="201.1503" y="-74.5" font-family="Helvetica,sans-Serif" font-size="10.00" fill="#000000">FileFdPrivate</text>
</a>
</g>
</g>
<!-- Node3&#45;&gt;Node2 -->
<g id="edge1" class="edge">
<title>Node3&#45;&gt;Node2</title>
<path fill="none" stroke="#191970" d="M203.6819,-57.0546C204.8844,-50.798 206.6313,-43.9702 209.1503,-38 211.9364,-31.3967 216.3821,-24.728 220.2729,-19.556"/>
<polygon fill="#191970" stroke="#191970" points="200.1525,-56.9686 202.0562,-67.391 207.0675,-58.0563 200.1525,-56.9686"/>
</g>
<!-- Node3&#45;&gt;Node2 -->
<g id="edge10" class="edge">
<title>Node3&#45;&gt;Node2</title>
<path fill="none" stroke="#9a32cd" stroke-dasharray="5,2" d="M208.8623,-57.8628C213.907,-45.3444 220.2819,-29.5252 224.289,-19.5817"/>
<polygon fill="#9a32cd" stroke="#9a32cd" points="205.5102,-56.8171 205.0187,-67.4005 212.0029,-59.4336 205.5102,-56.8171"/>
<text text-anchor="middle" x="240.1503" y="-41" font-family="Helvetica,sans-Serif" font-size="10.00" fill="#000000"> wrapped</text>
</g>
<!-- Node4 -->
<g id="node3" class="node">
<title>Node4</title>
<g id="a_node3"><a xlink:href="structAPT_1_1Configuration_1_1Compressor.xhtml" target="_top" xlink:title="Representation of supported compressors. ">
<polygon fill="#ffffff" stroke="#000000" points="60.6503,-134.5 60.6503,-153.5 135.6503,-153.5 135.6503,-134.5 60.6503,-134.5"/>
<text text-anchor="middle" x="98.1503" y="-141.5" font-family="Helvetica,sans-Serif" font-size="10.00" fill="#000000">Compressor</text>
</a>
</g>
</g>
<!-- Node4&#45;&gt;Node3 -->
<g id="edge2" class="edge">
<title>Node4&#45;&gt;Node3</title>
<path fill="none" stroke="#9a32cd" stroke-dasharray="5,2" d="M108.0166,-125.7853C112.7076,-118.5069 118.8871,-110.5527 126.1503,-105 136.8606,-96.8119 150.2223,-90.8089 162.6884,-86.5107"/>
<polygon fill="#9a32cd" stroke="#9a32cd" points="104.9914,-124.0248 102.9012,-134.4114 111.0124,-127.5954 104.9914,-124.0248"/>
<text text-anchor="middle" x="156.6503" y="-108" font-family="Helvetica,sans-Serif" font-size="10.00" fill="#000000"> compressor</text>
</g>
<!-- Node5 -->
<g id="node4" class="node">
<title>Node5</title>
<g id="a_node4"><a xlink:title="STL class. ">
<polygon fill="#ffffff" stroke="#bfbfbf" points="101.1503,-303.5 101.1503,-322.5 145.1503,-322.5 145.1503,-303.5 101.1503,-303.5"/>
<text text-anchor="middle" x="123.1503" y="-310.5" font-family="Helvetica,sans-Serif" font-size="10.00" fill="#000000">string</text>
</a>
</g>
</g>
<!-- Node5&#45;&gt;Node4 -->
<g id="edge3" class="edge">
<title>Node5&#45;&gt;Node4</title>
<path fill="none" stroke="#9a32cd" stroke-dasharray="5,2" d="M91.0871,-304.4099C62.8615,-294.9588 23.4838,-276.7248 5.1503,-245 -17.2116,-206.3042 43.0723,-170.1111 76.9346,-153.5127"/>
<polygon fill="#9a32cd" stroke="#9a32cd" points="90.3324,-307.8415 100.9218,-307.5032 92.4327,-301.164 90.3324,-307.8415"/>
<text text-anchor="middle" x="29.6503" y="-237" font-family="Helvetica,sans-Serif" font-size="10.00" fill="#000000"> Name</text>
<text text-anchor="middle" x="29.6503" y="-226" font-family="Helvetica,sans-Serif" font-size="10.00" fill="#000000">Extension</text>
<text text-anchor="middle" x="29.6503" y="-215" font-family="Helvetica,sans-Serif" font-size="10.00" fill="#000000">Binary</text>
</g>
<!-- Node7 -->
<g id="node6" class="node">
<title>Node7</title>
<polygon fill="#ffffff" stroke="#bfbfbf" points="63.6503,-219 63.6503,-238 182.6503,-238 182.6503,-219 63.6503,-219"/>
<text text-anchor="middle" x="123.1503" y="-226" font-family="Helvetica,sans-Serif" font-size="10.00" fill="#000000">vector&lt; std::string &gt;</text>
</g>
<!-- Node5&#45;&gt;Node7 -->
<g id="edge6" class="edge">
<title>Node5&#45;&gt;Node7</title>
<path fill="none" stroke="#9a32cd" stroke-dasharray="5,2" d="M123.1503,-293.1221C123.1503,-275.7864 123.1503,-251.3886 123.1503,-238.0802"/>
<polygon fill="#9a32cd" stroke="#9a32cd" points="119.6504,-293.3067 123.1503,-303.3068 126.6504,-293.3068 119.6504,-293.3067"/>
<text text-anchor="middle" x="147.6503" y="-271.5" font-family="Helvetica,sans-Serif" font-size="10.00" fill="#000000"> elements</text>
</g>
<!-- Node9 -->
<g id="node8" class="node">
<title>Node9</title>
<g id="a_node8"><a xlink:href="classFileFd.xhtml" target="_top" xlink:title="FileFd">
<polygon fill="#ffffff" stroke="#000000" points="189.1503,-173.5 189.1503,-192.5 233.1503,-192.5 233.1503,-173.5 189.1503,-173.5"/>
<text text-anchor="middle" x="211.1503" y="-180.5" font-family="Helvetica,sans-Serif" font-size="10.00" fill="#000000">FileFd</text>
</a>
</g>
</g>
<!-- Node5&#45;&gt;Node9 -->
<g id="edge9" class="edge">
<title>Node5&#45;&gt;Node9</title>
<path fill="none" stroke="#9a32cd" stroke-dasharray="5,2" d="M154.5319,-301.1759C162.402,-297.0237 170.2694,-291.6813 176.1503,-285 200.395,-257.4554 208.0314,-212.298 210.2791,-192.6435"/>
<polygon fill="#9a32cd" stroke="#9a32cd" points="152.9391,-298.0577 145.4107,-305.5126 155.9448,-304.3795 152.9391,-298.0577"/>
<text text-anchor="middle" x="240.6503" y="-277" font-family="Helvetica,sans-Serif" font-size="10.00" fill="#000000"> TemporaryFileName</text>
<text text-anchor="middle" x="240.6503" y="-266" font-family="Helvetica,sans-Serif" font-size="10.00" fill="#000000">FileName</text>
</g>
<!-- Node6 -->
<g id="node5" class="node">
<title>Node6</title>
<g id="a_node5"><a xlink:title="STL class. ">
<polygon fill="#ffffff" stroke="#bfbfbf" points="63.6503,-360.5 63.6503,-379.5 182.6503,-379.5 182.6503,-360.5 63.6503,-360.5"/>
<text text-anchor="middle" x="123.1503" y="-367.5" font-family="Helvetica,sans-Serif" font-size="10.00" fill="#000000">basic_string&lt; char &gt;</text>
</a>
</g>
</g>
<!-- Node6&#45;&gt;Node5 -->
<g id="edge4" class="edge">
<title>Node6&#45;&gt;Node5</title>
<path fill="none" stroke="#191970" d="M123.1503,-350.2342C123.1503,-340.8491 123.1503,-330.0651 123.1503,-322.5265"/>
<polygon fill="#191970" stroke="#191970" points="119.6504,-350.3307 123.1503,-360.3307 126.6504,-350.3308 119.6504,-350.3307"/>
</g>
<!-- Node7&#45;&gt;Node4 -->
<g id="edge5" class="edge">
<title>Node7&#45;&gt;Node4</title>
<path fill="none" stroke="#9a32cd" stroke-dasharray="5,2" d="M104.9126,-211.5404C100.542,-206.377 96.4713,-200.3682 94.1503,-194 89.2599,-180.5818 92.2769,-163.8357 95.077,-153.5323"/>
<polygon fill="#9a32cd" stroke="#9a32cd" points="102.4201,-213.9989 111.8191,-218.8886 107.5208,-209.2048 102.4201,-213.9989"/>
<text text-anchor="middle" x="137.1503" y="-186" font-family="Helvetica,sans-Serif" font-size="10.00" fill="#000000"> UncompressArgs</text>
<text text-anchor="middle" x="137.1503" y="-175" font-family="Helvetica,sans-Serif" font-size="10.00" fill="#000000">CompressArgs</text>
</g>
<!-- Node8 -->
<g id="node7" class="node">
<title>Node8</title>
<g id="a_node7"><a xlink:href="structsimple__buffer.xhtml" target="_top" xlink:title="simple_buffer">
<polygon fill="#ffffff" stroke="#000000" points="247.6503,-134.5 247.6503,-153.5 330.6503,-153.5 330.6503,-134.5 247.6503,-134.5"/>
<text text-anchor="middle" x="289.1503" y="-141.5" font-family="Helvetica,sans-Serif" font-size="10.00" fill="#000000">simple_buffer</text>
</a>
</g>
</g>
<!-- Node8&#45;&gt;Node2 -->
<g id="edge11" class="edge">
<title>Node8&#45;&gt;Node2</title>
<path fill="none" stroke="#9a32cd" stroke-dasharray="5,2" d="M289.2344,-124.2875C288.4397,-101.7054 284.3252,-64.4224 267.1503,-38 262.2443,-30.4524 254.5365,-24.2897 247.2642,-19.6867"/>
<polygon fill="#9a32cd" stroke="#9a32cd" points="285.7358,-124.41 289.3998,-134.3511 292.7349,-124.2949 285.7358,-124.41"/>
<text text-anchor="middle" x="313.6503" y="-74.5" font-family="Helvetica,sans-Serif" font-size="10.00" fill="#000000"> writebuffer</text>
</g>
<!-- Node8&#45;&gt;Node3 -->
<g id="edge7" class="edge">
<title>Node8&#45;&gt;Node3</title>
<path fill="none" stroke="#9a32cd" stroke-dasharray="5,2" d="M262.8798,-129.2613C256.2659,-125.215 249.3019,-120.653 243.1503,-116 231.0876,-106.8758 218.5427,-94.8376 210.3408,-86.5624"/>
<polygon fill="#9a32cd" stroke="#9a32cd" points="261.1867,-132.3264 271.5727,-134.4196 264.7589,-126.3065 261.1867,-132.3264"/>
<text text-anchor="middle" x="259.1503" y="-108" font-family="Helvetica,sans-Serif" font-size="10.00" fill="#000000"> buffer</text>
</g>
<!-- Node9&#45;&gt;Node3 -->
<g id="edge8" class="edge">
<title>Node9&#45;&gt;Node3</title>
<path fill="none" stroke="#9a32cd" stroke-dasharray="5,2" d="M209.2631,-162.9954C207.1165,-140.2421 203.699,-104.0161 202.0709,-86.7586"/>
<polygon fill="#9a32cd" stroke="#9a32cd" points="205.8036,-163.5907 210.2274,-173.2178 212.7727,-162.9332 205.8036,-163.5907"/>
<text text-anchor="middle" x="223.1503" y="-141.5" font-family="Helvetica,sans-Serif" font-size="10.00" fill="#000000"> filefd</text>
</g>
</g>
</svg>
