<?xml version="1.0" encoding="UTF-8" standalone="no"?>
<!DOCTYPE svg PUBLIC "-//W3C//DTD SVG 1.1//EN"
 "http://www.w3.org/Graphics/SVG/1.1/DTD/svg11.dtd">
<!-- Generated by graphviz version 2.40.1 (20161225.0304)
 -->
<!-- Title: pkgAcquire Pages: 1 -->
<!--zoomable 646 -->
<svg id="main" version="1.1" xmlns="http://www.w3.org/2000/svg" xmlns:xlink="http://www.w3.org/1999/xlink" xml:space="preserve" onload="init(evt)">
<style type="text/css"><![CDATA[
.edge:hover path { stroke: red; }
.edge:hover polygon { stroke: red; fill: red; }
]]></style>
<script type="text/javascript"><![CDATA[
var edges = document.getElementsByTagName('g');
if (edges && edges.length) {
  for (var i=0;i<edges.length;i++) {
    if (edges[i].id.substr(0,4)=='edge') {
      edges[i].setAttribute('class','edge');
    }
  }
}
]]></script>
        <defs>
                <circle id="rim" cx="0" cy="0" r="7"/>
                <circle id="rim2" cx="0" cy="0" r="3.5"/>
                <g id="zoomPlus">
                        <use xlink:href="#rim" fill="#404040">
                                <set attributeName="fill" to="#808080" begin="zoomplus.mouseover" end="zoomplus.mouseout"/>
                        </use>
                        <path d="M-4,0h8M0,-4v8" fill="none" stroke="white" stroke-width="1.5" pointer-events="none"/>
                </g>
                <g id="zoomMin">
                        <use xlink:href="#rim" fill="#404040">
                                <set attributeName="fill" to="#808080" begin="zoomminus.mouseover" end="zoomminus.mouseout"/>
                        </use>
                        <path d="M-4,0h8" fill="none" stroke="white" stroke-width="1.5" pointer-events="none"/>
                </g>
                <g id="dirArrow">
                        <path fill="none" stroke="white" stroke-width="1.5" d="M0,-3.0v7 M-2.5,-0.5L0,-3.0L2.5,-0.5"/>
                </g>
               <g id="resetDef">
                       <use xlink:href="#rim2" fill="#404040">
                               <set attributeName="fill" to="#808080" begin="reset.mouseover" end="reset.mouseout"/>
                       </use>
               </g>
        </defs>

<script type="text/javascript">
var viewWidth = 802;
var viewHeight = 646;
var sectionId = 'dynsection-0';
</script>
<script xlink:href="svgpan.js"/>
<svg id="graph" class="graph">
<g id="viewport">
<title>pkgAcquire</title>
<polygon fill="#ffffff" stroke="transparent" points="-4,4 -4,-642 798,-642 798,4 -4,4"/>
<!-- Node1 -->
<g id="node1" class="node">
<title>Node1</title>
<polygon fill="#bfbfbf" stroke="#000000" points="378.5,-377 378.5,-396 449.5,-396 449.5,-377 378.5,-377"/>
<text text-anchor="middle" x="414" y="-384" font-family="Helvetica,sans-Serif" font-size="10.00" fill="#000000">pkgAcquire</text>
</g>
<!-- Node3 -->
<g id="node3" class="node">
<title>Node3</title>
<g id="a_node3"><a xlink:href="classpkgAcquire_1_1Item.xhtml" target="_top" xlink:title="Represents the process by which a pkgAcquire object should retrieve a file or a collection of files...">
<polygon fill="#ffffff" stroke="#000000" points="166.5,-303.5 166.5,-322.5 205.5,-322.5 205.5,-303.5 166.5,-303.5"/>
<text text-anchor="middle" x="186" y="-310.5" font-family="Helvetica,sans-Serif" font-size="10.00" fill="#000000">Item</text>
</a>
</g>
</g>
<!-- Node1&#45;&gt;Node3 -->
<g id="edge4" class="edge">
<title>Node1&#45;&gt;Node3</title>
<path fill="none" stroke="#9a32cd" stroke-dasharray="5,2" d="M370.3169,-374.1937C348.2539,-367.8327 321.1172,-359.7869 297,-352 264.7335,-341.5819 227.6403,-328.2764 205.5472,-320.2086"/>
<polygon fill="#9a32cd" stroke="#9a32cd" points="369.4904,-377.5977 380.0678,-376.9908 371.4206,-370.8691 369.4904,-377.5977"/>
<text text-anchor="middle" x="314.5" y="-344" font-family="Helvetica,sans-Serif" font-size="10.00" fill="#000000"> Owner</text>
</g>
<!-- Node8 -->
<g id="node8" class="node">
<title>Node8</title>
<g id="a_node8"><a xlink:href="classpkgAcquire_1_1Queue.xhtml" target="_top" xlink:title="A single download queue in a pkgAcquire object. {{{. ">
<polygon fill="#ffffff" stroke="#000000" points="370,-69.5 370,-88.5 418,-88.5 418,-69.5 370,-69.5"/>
<text text-anchor="middle" x="394" y="-76.5" font-family="Helvetica,sans-Serif" font-size="10.00" fill="#000000">Queue</text>
</a>
</g>
</g>
<!-- Node1&#45;&gt;Node8 -->
<g id="edge12" class="edge">
<title>Node1&#45;&gt;Node8</title>
<path fill="none" stroke="#9a32cd" stroke-dasharray="5,2" d="M409.2341,-366.9621C402.4637,-338.1022 390.3954,-282.2784 386,-234 384.7508,-220.279 385.5562,-216.7706 386,-203 387.3757,-160.3085 391.409,-109.4779 393.166,-88.6367"/>
<polygon fill="#9a32cd" stroke="#9a32cd" points="405.892,-368.0359 411.6198,-376.949 412.7004,-366.4094 405.892,-368.0359"/>
<text text-anchor="middle" x="403.5" y="-216" font-family="Helvetica,sans-Serif" font-size="10.00" fill="#000000"> Owner</text>
</g>
<!-- Node2 -->
<g id="node2" class="node">
<title>Node2</title>
<polygon fill="#ffffff" stroke="#bfbfbf" points="152.5,-203.5 152.5,-233.5 265.5,-233.5 265.5,-203.5 152.5,-203.5"/>
<text text-anchor="start" x="160.5" y="-221.5" font-family="Helvetica,sans-Serif" font-size="10.00" fill="#000000">vector&lt; pkgAcquire</text>
<text text-anchor="middle" x="209" y="-210.5" font-family="Helvetica,sans-Serif" font-size="10.00" fill="#000000">::Item *&gt;</text>
</g>
<!-- Node2&#45;&gt;Node1 -->
<g id="edge1" class="edge">
<title>Node2&#45;&gt;Node1</title>
<path fill="none" stroke="#9a32cd" stroke-dasharray="5,2" d="M246.2973,-238.9204C253.0142,-243.0158 259.8352,-247.4626 266,-252 322.7635,-293.779 382.5659,-353.8727 404.8949,-376.9644"/>
<polygon fill="#9a32cd" stroke="#9a32cd" points="247.6619,-235.6609 237.2738,-233.5781 244.0957,-241.6844 247.6619,-235.6609"/>
<text text-anchor="middle" x="365.5" y="-310.5" font-family="Helvetica,sans-Serif" font-size="10.00" fill="#000000"> Items</text>
</g>
<!-- Node9 -->
<g id="node9" class="node">
<title>Node9</title>
<g id="a_node9"><a xlink:href="structpkgAcquire_1_1Queue_1_1QItem.xhtml" target="_top" xlink:title="A single item placed in this queue. ">
<polygon fill="#ffffff" stroke="#000000" points="182.5,-136.5 182.5,-155.5 229.5,-155.5 229.5,-136.5 182.5,-136.5"/>
<text text-anchor="middle" x="206" y="-143.5" font-family="Helvetica,sans-Serif" font-size="10.00" fill="#000000">QItem</text>
</a>
</g>
</g>
<!-- Node2&#45;&gt;Node9 -->
<g id="edge15" class="edge">
<title>Node2&#45;&gt;Node9</title>
<path fill="none" stroke="#9a32cd" stroke-dasharray="5,2" d="M207.9574,-193.305C207.4244,-180.424 206.8062,-165.4836 206.4095,-155.8957"/>
<polygon fill="#9a32cd" stroke="#9a32cd" points="204.4679,-193.6312 208.3784,-203.478 211.4619,-193.3418 204.4679,-193.6312"/>
<text text-anchor="middle" x="228" y="-177" font-family="Helvetica,sans-Serif" font-size="10.00" fill="#000000"> Owners</text>
</g>
<!-- Node3&#45;&gt;Node2 -->
<g id="edge2" class="edge">
<title>Node3&#45;&gt;Node2</title>
<path fill="none" stroke="#9a32cd" stroke-dasharray="5,2" d="M202.4745,-295.4635C204.7262,-292.1958 206.7058,-288.6529 208,-285 213.9769,-268.1305 213.0827,-247.3105 211.4469,-233.5081"/>
<polygon fill="#9a32cd" stroke="#9a32cd" points="199.6743,-293.3611 196.1626,-303.357 205.1414,-297.7327 199.6743,-293.3611"/>
<text text-anchor="middle" x="237.5" y="-266" font-family="Helvetica,sans-Serif" font-size="10.00" fill="#000000"> elements</text>
</g>
<!-- Node7 -->
<g id="node7" class="node">
<title>Node7</title>
<g id="a_node7"><a xlink:href="structpkgAcquire_1_1ItemDesc.xhtml" target="_top" xlink:title="Represents a single download source from which an item should be downloaded. ">
<polygon fill="#ffffff" stroke="#000000" points="71.5,-209 71.5,-228 134.5,-228 134.5,-209 71.5,-209"/>
<text text-anchor="middle" x="103" y="-216" font-family="Helvetica,sans-Serif" font-size="10.00" fill="#000000">ItemDesc</text>
</a>
</g>
</g>
<!-- Node3&#45;&gt;Node7 -->
<g id="edge10" class="edge">
<title>Node3&#45;&gt;Node7</title>
<path fill="none" stroke="#9a32cd" stroke-dasharray="5,2" d="M156.4732,-307.3926C142.9076,-303.3538 127.7119,-296.5066 118,-285 104.2594,-268.7203 102.4257,-242.4573 102.548,-228.2985"/>
<polygon fill="#9a32cd" stroke="#9a32cd" points="155.8533,-310.8475 166.4113,-309.9644 157.607,-304.0707 155.8533,-310.8475"/>
<text text-anchor="middle" x="135.5" y="-266" font-family="Helvetica,sans-Serif" font-size="10.00" fill="#000000"> Owner</text>
</g>
<!-- Node4 -->
<g id="node4" class="node">
<title>Node4</title>
<g id="a_node4"><a xlink:href="classWeakPointable.xhtml" target="_top" xlink:title="WeakPointable">
<polygon fill="#ffffff" stroke="#000000" points="77.5,-377 77.5,-396 166.5,-396 166.5,-377 77.5,-377"/>
<text text-anchor="middle" x="122" y="-384" font-family="Helvetica,sans-Serif" font-size="10.00" fill="#000000">WeakPointable</text>
</a>
</g>
</g>
<!-- Node4&#45;&gt;Node3 -->
<g id="edge3" class="edge">
<title>Node4&#45;&gt;Node3</title>
<path fill="none" stroke="#191970" d="M137.1154,-369.1409C149.688,-354.7021 167.1336,-334.6668 177.4268,-322.8458"/>
<polygon fill="#191970" stroke="#191970" points="134.2942,-367.0511 130.3669,-376.8912 139.5734,-371.6479 134.2942,-367.0511"/>
</g>
<!-- Node4&#45;&gt;Node7 -->
<g id="edge8" class="edge">
<title>Node4&#45;&gt;Node7</title>
<path fill="none" stroke="#191970" d="M116.9561,-366.89C112.0088,-346.5689 104.8111,-313.8074 102,-285 100.5755,-270.4027 101.7812,-266.665 102,-252 102.1198,-243.9713 102.401,-234.8638 102.6348,-228.1737"/>
<polygon fill="#191970" stroke="#191970" points="113.6114,-367.9422 119.431,-376.7955 120.4026,-366.2453 113.6114,-367.9422"/>
</g>
<!-- Node10 -->
<g id="node10" class="node">
<title>Node10</title>
<g id="a_node10"><a xlink:href="classpkgAcquire_1_1Worker.xhtml" target="_top" xlink:title="A fetch subprocess. ">
<polygon fill="#ffffff" stroke="#000000" points="358.5,-1.5 358.5,-20.5 409.5,-20.5 409.5,-1.5 358.5,-1.5"/>
<text text-anchor="middle" x="384" y="-8.5" font-family="Helvetica,sans-Serif" font-size="10.00" fill="#000000">Worker</text>
</a>
</g>
</g>
<!-- Node4&#45;&gt;Node10 -->
<g id="edge18" class="edge">
<title>Node4&#45;&gt;Node10</title>
<path fill="none" stroke="#191970" d="M90.0385,-372.1903C68.1265,-359.9633 43,-340.0462 43,-313 43,-313 43,-313 43,-79 43,-46.8546 279.0661,-21.1264 358.3696,-13.3902"/>
<polygon fill="#191970" stroke="#191970" points="88.6669,-375.4227 99.1499,-376.9579 91.9123,-369.2205 88.6669,-375.4227"/>
</g>
<!-- Node5 -->
<g id="node5" class="node">
<title>Node5</title>
<g id="a_node5"><a xlink:title="STL class. ">
<polygon fill="#ffffff" stroke="#bfbfbf" points="401,-561.5 401,-580.5 445,-580.5 445,-561.5 401,-561.5"/>
<text text-anchor="middle" x="423" y="-568.5" font-family="Helvetica,sans-Serif" font-size="10.00" fill="#000000">string</text>
</a>
</g>
</g>
<!-- Node5&#45;&gt;Node1 -->
<g id="edge33" class="edge">
<title>Node5&#45;&gt;Node1</title>
<path fill="none" stroke="#9a32cd" stroke-dasharray="5,2" d="M422.0321,-551.1587C420.1101,-511.7567 415.8758,-424.9547 414.4665,-396.0641"/>
<polygon fill="#9a32cd" stroke="#9a32cd" points="418.5456,-551.5227 422.5288,-561.3402 425.5373,-551.1816 418.5456,-551.5227"/>
<text text-anchor="middle" x="432" y="-490.5" font-family="Helvetica,sans-Serif" font-size="10.00" fill="#000000"> Lock</text>
</g>
<!-- Node5&#45;&gt;Node3 -->
<g id="edge5" class="edge">
<title>Node5&#45;&gt;Node3</title>
<path fill="none" stroke="#9a32cd" stroke-dasharray="5,2" d="M390.7246,-567.4995C338.0273,-559.793 235.4334,-535.9582 196,-465 169.5366,-417.3806 179.1875,-347.9753 183.9669,-322.6804"/>
<polygon fill="#9a32cd" stroke="#9a32cd" points="390.4895,-570.9995 400.8686,-568.8728 391.4286,-564.0628 390.4895,-570.9995"/>
<text text-anchor="middle" x="241" y="-457" font-family="Helvetica,sans-Serif" font-size="10.00" fill="#000000"> ActiveSubprocess</text>
<text text-anchor="middle" x="241" y="-446" font-family="Helvetica,sans-Serif" font-size="10.00" fill="#000000">DestFile</text>
<text text-anchor="middle" x="241" y="-435" font-family="Helvetica,sans-Serif" font-size="10.00" fill="#000000">ErrorText</text>
<text text-anchor="middle" x="241" y="-424" font-family="Helvetica,sans-Serif" font-size="10.00" fill="#000000">UsedMirror</text>
</g>
<!-- Node5&#45;&gt;Node7 -->
<g id="edge9" class="edge">
<title>Node5&#45;&gt;Node7</title>
<path fill="none" stroke="#9a32cd" stroke-dasharray="5,2" d="M390.8563,-568.474C292.1404,-560.2907 0,-532.7177 0,-493 0,-493 0,-493 0,-313 0,-270.4099 48.4074,-241.8022 78.8511,-228.022"/>
<polygon fill="#9a32cd" stroke="#9a32cd" points="390.6014,-571.9648 400.8533,-569.291 391.1716,-564.988 390.6014,-571.9648"/>
<text text-anchor="middle" x="29.5" y="-395" font-family="Helvetica,sans-Serif" font-size="10.00" fill="#000000"> Description</text>
<text text-anchor="middle" x="29.5" y="-384" font-family="Helvetica,sans-Serif" font-size="10.00" fill="#000000">URI</text>
<text text-anchor="middle" x="29.5" y="-373" font-family="Helvetica,sans-Serif" font-size="10.00" fill="#000000">ShortDesc</text>
</g>
<!-- Node5&#45;&gt;Node8 -->
<g id="edge30" class="edge">
<title>Node5&#45;&gt;Node8</title>
<path fill="none" stroke="#9a32cd" stroke-dasharray="5,2" d="M431.5789,-552.252C462.611,-483.2713 565.4204,-243.9522 531,-174 508.2539,-127.7735 450.9052,-99.9021 418.0699,-87.2093"/>
<polygon fill="#9a32cd" stroke="#9a32cd" points="428.3355,-550.9297 427.3955,-561.4827 434.7113,-553.8192 428.3355,-550.9297"/>
<text text-anchor="middle" x="539.5" y="-310.5" font-family="Helvetica,sans-Serif" font-size="10.00" fill="#000000"> Name</text>
</g>
<!-- Node5&#45;&gt;Node10 -->
<g id="edge25" class="edge">
<title>Node5&#45;&gt;Node10</title>
<path fill="none" stroke="#9a32cd" stroke-dasharray="5,2" d="M455.0584,-566.5705C516.5428,-557.1718 645,-532.7759 645,-493 645,-493 645,-493 645,-79 645,-30.653 475.1754,-16.0578 409.501,-12.2212"/>
<polygon fill="#9a32cd" stroke="#9a32cd" points="454.4745,-563.1188 445.0978,-568.0512 455.5038,-570.0427 454.4745,-563.1188"/>
<text text-anchor="middle" x="671" y="-277" font-family="Helvetica,sans-Serif" font-size="10.00" fill="#000000"> OutQueue</text>
<text text-anchor="middle" x="671" y="-266" font-family="Helvetica,sans-Serif" font-size="10.00" fill="#000000">Access</text>
<text text-anchor="middle" x="671" y="-255" font-family="Helvetica,sans-Serif" font-size="10.00" fill="#000000">Status</text>
</g>
<!-- Node11 -->
<g id="node11" class="node">
<title>Node11</title>
<g id="a_node11"><a xlink:href="structpkgAcquire_1_1MethodConfig.xhtml" target="_top" xlink:title="Information about the properties of a single acquire method. {{{. ">
<polygon fill="#ffffff" stroke="#000000" points="258.5,-483.5 258.5,-502.5 341.5,-502.5 341.5,-483.5 258.5,-483.5"/>
<text text-anchor="middle" x="300" y="-490.5" font-family="Helvetica,sans-Serif" font-size="10.00" fill="#000000">MethodConfig</text>
</a>
</g>
</g>
<!-- Node5&#45;&gt;Node11 -->
<g id="edge22" class="edge">
<title>Node5&#45;&gt;Node11</title>
<path fill="none" stroke="#9a32cd" stroke-dasharray="5,2" d="M395.3642,-556.5146C387.7034,-552.3144 379.448,-547.6131 372,-543 350.7819,-529.8582 327.2006,-513.0343 312.992,-502.6394"/>
<polygon fill="#9a32cd" stroke="#9a32cd" points="393.8573,-559.6785 404.3195,-561.3498 397.183,-553.519 393.8573,-559.6785"/>
<text text-anchor="middle" x="390.5" y="-535" font-family="Helvetica,sans-Serif" font-size="10.00" fill="#000000"> Access</text>
<text text-anchor="middle" x="390.5" y="-524" font-family="Helvetica,sans-Serif" font-size="10.00" fill="#000000">Version</text>
</g>
<!-- Node14 -->
<g id="node14" class="node">
<title>Node14</title>
<polygon fill="#ffffff" stroke="#bfbfbf" points="660.5,-433.5 660.5,-452.5 779.5,-452.5 779.5,-433.5 660.5,-433.5"/>
<text text-anchor="middle" x="720" y="-440.5" font-family="Helvetica,sans-Serif" font-size="10.00" fill="#000000">vector&lt; std::string &gt;</text>
</g>
<!-- Node5&#45;&gt;Node14 -->
<g id="edge28" class="edge">
<title>Node5&#45;&gt;Node14</title>
<path fill="none" stroke="#9a32cd" stroke-dasharray="5,2" d="M455.4327,-568.7281C516.111,-564.2488 642.2121,-553.7741 659,-543 692.8873,-521.2519 710.8457,-473.3248 717.2437,-452.7242"/>
<polygon fill="#9a32cd" stroke="#9a32cd" points="454.9681,-565.2525 445.2484,-569.4688 455.476,-572.2341 454.9681,-565.2525"/>
<text text-anchor="middle" x="706.5" y="-529.5" font-family="Helvetica,sans-Serif" font-size="10.00" fill="#000000"> elements</text>
</g>
<!-- Node6 -->
<g id="node6" class="node">
<title>Node6</title>
<g id="a_node6"><a xlink:title="STL class. ">
<polygon fill="#ffffff" stroke="#bfbfbf" points="363.5,-618.5 363.5,-637.5 482.5,-637.5 482.5,-618.5 363.5,-618.5"/>
<text text-anchor="middle" x="423" y="-625.5" font-family="Helvetica,sans-Serif" font-size="10.00" fill="#000000">basic_string&lt; char &gt;</text>
</a>
</g>
</g>
<!-- Node6&#45;&gt;Node5 -->
<g id="edge6" class="edge">
<title>Node6&#45;&gt;Node5</title>
<path fill="none" stroke="#191970" d="M423,-608.2342C423,-598.8491 423,-588.0651 423,-580.5265"/>
<polygon fill="#191970" stroke="#191970" points="419.5001,-608.3307 423,-618.3307 426.5001,-608.3308 419.5001,-608.3307"/>
</g>
<!-- Node7&#45;&gt;Node3 -->
<g id="edge7" class="edge">
<title>Node7&#45;&gt;Node3</title>
<path fill="none" stroke="#9a32cd" stroke-dasharray="5,2" d="M133.2288,-233.098C141.6788,-238.2148 150.3569,-244.5717 157,-252 164.1915,-260.0414 176.0266,-288.036 182.1151,-303.1469"/>
<polygon fill="#9a32cd" stroke="#9a32cd" points="134.6864,-229.9018 124.2564,-228.0404 131.2491,-235.9998 134.6864,-229.9018"/>
<text text-anchor="middle" x="188" y="-266" font-family="Helvetica,sans-Serif" font-size="10.00" fill="#000000"> Desc</text>
</g>
<!-- Node7&#45;&gt;Node9 -->
<g id="edge14" class="edge">
<title>Node7&#45;&gt;Node9</title>
<path fill="none" stroke="#191970" d="M125.2762,-202.8202C145.6742,-188.4623 175.215,-167.669 192.329,-155.6228"/>
<polygon fill="#191970" stroke="#191970" points="123.0538,-200.1043 116.891,-208.7223 127.083,-205.8285 123.0538,-200.1043"/>
</g>
<!-- Node8&#45;&gt;Node1 -->
<g id="edge11" class="edge">
<title>Node8&#45;&gt;Node1</title>
<path fill="none" stroke="#9a32cd" stroke-dasharray="5,2" d="M415.0781,-95.388C428.3553,-107.6906 443,-125.8317 443,-146 443,-313 443,-313 443,-313 443,-337.4176 428.9797,-363.4137 420.436,-376.9884"/>
<polygon fill="#9a32cd" stroke="#9a32cd" points="416.9847,-92.4097 407.1311,-88.5165 412.4062,-97.7047 416.9847,-92.4097"/>
<text text-anchor="middle" x="463" y="-216" font-family="Helvetica,sans-Serif" font-size="10.00" fill="#000000"> Queues</text>
</g>
<!-- Node8&#45;&gt;Node10 -->
<g id="edge19" class="edge">
<title>Node8&#45;&gt;Node10</title>
<path fill="none" stroke="#9a32cd" stroke-dasharray="5,2" d="M362.9765,-63.678C358.5639,-60.1345 354.6361,-55.9257 352,-51 345.9573,-39.7091 356.8376,-28.4642 367.5145,-20.7861"/>
<polygon fill="#9a32cd" stroke="#9a32cd" points="361.0385,-66.5928 371.2686,-69.349 364.9901,-60.8148 361.0385,-66.5928"/>
<text text-anchor="middle" x="373.5" y="-43" font-family="Helvetica,sans-Serif" font-size="10.00" fill="#000000"> OwnerQ</text>
</g>
<!-- Node9&#45;&gt;Node8 -->
<g id="edge13" class="edge">
<title>Node9&#45;&gt;Node8</title>
<path fill="none" stroke="#9a32cd" stroke-dasharray="5,2" d="M239.269,-134.1435C276.6884,-120.8079 336.5589,-99.471 369.7892,-87.6283"/>
<polygon fill="#9a32cd" stroke="#9a32cd" points="238.055,-130.8604 229.8103,-137.5144 240.405,-137.4542 238.055,-130.8604"/>
<text text-anchor="middle" x="327.5" y="-110" font-family="Helvetica,sans-Serif" font-size="10.00" fill="#000000"> Items</text>
</g>
<!-- Node9&#45;&gt;Node9 -->
<g id="edge16" class="edge">
<title>Node9&#45;&gt;Node9</title>
<path fill="none" stroke="#9a32cd" stroke-dasharray="5,2" d="M240.0148,-151.294C244.5146,-150.3926 247.5,-148.6279 247.5,-146 247.5,-141.6875 239.4604,-139.6997 229.8819,-140.0366"/>
<polygon fill="#9a32cd" stroke="#9a32cd" points="239.6295,-147.8118 229.8819,-151.9634 240.0909,-154.7965 239.6295,-147.8118"/>
<text text-anchor="middle" x="261" y="-143.5" font-family="Helvetica,sans-Serif" font-size="10.00" fill="#000000"> Next</text>
</g>
<!-- Node9&#45;&gt;Node10 -->
<g id="edge24" class="edge">
<title>Node9&#45;&gt;Node10</title>
<path fill="none" stroke="#9a32cd" stroke-dasharray="5,2" d="M188.4706,-128.9982C173.7283,-112.6019 157.1047,-87.6028 171,-69 193.534,-38.8319 306.9693,-20.8043 358.4817,-14.054"/>
<polygon fill="#9a32cd" stroke="#9a32cd" points="185.9839,-131.4622 195.4146,-136.2905 191.0533,-126.635 185.9839,-131.4622"/>
<text text-anchor="middle" x="202" y="-76.5" font-family="Helvetica,sans-Serif" font-size="10.00" fill="#000000"> CurrentItem</text>
</g>
<!-- Node10&#45;&gt;Node1 -->
<g id="edge35" class="edge">
<title>Node10&#45;&gt;Node1</title>
<path fill="none" stroke="#9a32cd" stroke-dasharray="5,2" d="M418.9878,-22.2305C427.886,-26.5513 436.7004,-32.3486 443,-40 490.6948,-97.9295 477.1366,-128.6136 487,-203 495.9833,-270.7489 484.8419,-293.8109 449,-352 443.0934,-361.5893 433.9726,-370.4621 426.5226,-376.8078"/>
<polygon fill="#9a32cd" stroke="#9a32cd" points="420.3538,-19.008 409.7863,-18.2466 417.5724,-25.4318 420.3538,-19.008"/>
<text text-anchor="middle" x="505.5" y="-177" font-family="Helvetica,sans-Serif" font-size="10.00" fill="#000000"> Workers</text>
</g>
<!-- Node10&#45;&gt;Node8 -->
<g id="edge31" class="edge">
<title>Node10&#45;&gt;Node8</title>
<path fill="none" stroke="#9a32cd" stroke-dasharray="5,2" d="M392.3916,-30.2163C393.4724,-33.428 394.4075,-36.7675 395,-40 396.8072,-49.8599 396.1906,-61.3542 395.3487,-69.2977"/>
<polygon fill="#9a32cd" stroke="#9a32cd" points="395.5686,-28.7289 388.6826,-20.677 389.0444,-31.2656 395.5686,-28.7289"/>
<text text-anchor="middle" x="417.5" y="-43" font-family="Helvetica,sans-Serif" font-size="10.00" fill="#000000"> Workers</text>
</g>
<!-- Node10&#45;&gt;Node9 -->
<g id="edge17" class="edge">
<title>Node10&#45;&gt;Node9</title>
<path fill="none" stroke="#9a32cd" stroke-dasharray="5,2" d="M348.3162,-17.7917C318.2835,-25.3191 276.2967,-40.3838 251,-69 232.1308,-90.3452 217.139,-120.785 210.1987,-136.2189"/>
<polygon fill="#9a32cd" stroke="#9a32cd" points="349.454,-21.1201 358.3936,-15.4337 347.8591,-14.3042 349.454,-21.1201"/>
<text text-anchor="middle" x="270" y="-76.5" font-family="Helvetica,sans-Serif" font-size="10.00" fill="#000000"> Worker</text>
</g>
<!-- Node10&#45;&gt;Node10 -->
<g id="edge29" class="edge">
<title>Node10&#45;&gt;Node10</title>
<path fill="none" stroke="#9a32cd" stroke-dasharray="5,2" d="M420.0602,-16.5393C424.5495,-15.5577 427.5,-13.7112 427.5,-11 427.5,-6.5508 419.5544,-4.4305 409.9017,-4.639"/>
<polygon fill="#9a32cd" stroke="#9a32cd" points="419.5869,-13.0661 409.9017,-17.361 420.1514,-20.0433 419.5869,-13.0661"/>
<text text-anchor="middle" x="458" y="-14" font-family="Helvetica,sans-Serif" font-size="10.00" fill="#000000"> NextQueue</text>
<text text-anchor="middle" x="458" y="-3" font-family="Helvetica,sans-Serif" font-size="10.00" fill="#000000">NextAcquire</text>
</g>
<!-- Node11&#45;&gt;Node1 -->
<g id="edge32" class="edge">
<title>Node11&#45;&gt;Node1</title>
<path fill="none" stroke="#9a32cd" stroke-dasharray="5,2" d="M315.238,-475.6619C328.7809,-460.6114 349.4126,-438.5424 369,-421 378.9732,-412.068 391.0501,-402.8895 400.1808,-396.2471"/>
<polygon fill="#9a32cd" stroke="#9a32cd" points="312.5355,-473.4337 308.495,-483.2279 317.7613,-478.0911 312.5355,-473.4337"/>
<text text-anchor="middle" x="389" y="-440.5" font-family="Helvetica,sans-Serif" font-size="10.00" fill="#000000"> Configs</text>
</g>
<!-- Node11&#45;&gt;Node10 -->
<g id="edge20" class="edge">
<title>Node11&#45;&gt;Node10</title>
<path fill="none" stroke="#9a32cd" stroke-dasharray="5,2" d="M296.9128,-473.3677C287.5315,-407.2997 264.7765,-188.8414 347,-40 351.4201,-31.9988 359.0546,-25.4478 366.2449,-20.6097"/>
<polygon fill="#9a32cd" stroke="#9a32cd" points="293.4511,-473.8846 298.3838,-483.2611 300.375,-472.855 293.4511,-473.8846"/>
<text text-anchor="middle" x="313" y="-216" font-family="Helvetica,sans-Serif" font-size="10.00" fill="#000000"> Config</text>
</g>
<!-- Node11&#45;&gt;Node11 -->
<g id="edge21" class="edge">
<title>Node11&#45;&gt;Node11</title>
<path fill="none" stroke="#9a32cd" stroke-dasharray="5,2" d="M351.819,-498.6621C356.5342,-497.485 359.5,-495.5977 359.5,-493 359.5,-488.8438 351.9076,-486.5059 341.7052,-485.9863"/>
<polygon fill="#9a32cd" stroke="#9a32cd" points="351.1534,-495.2198 341.7052,-500.0137 352.0807,-502.1581 351.1534,-495.2198"/>
<text text-anchor="middle" x="373" y="-490.5" font-family="Helvetica,sans-Serif" font-size="10.00" fill="#000000"> Next</text>
</g>
<!-- Node12 -->
<g id="node12" class="node">
<title>Node12</title>
<g id="a_node12"><a xlink:href="classpkgAcquire_1_1MethodConfig_1_1Private.xhtml" target="_top" xlink:title="Private">
<polygon fill="#ffffff" stroke="#000000" points="144.5,-561.5 144.5,-580.5 195.5,-580.5 195.5,-561.5 144.5,-561.5"/>
<text text-anchor="middle" x="170" y="-568.5" font-family="Helvetica,sans-Serif" font-size="10.00" fill="#000000">Private</text>
</a>
</g>
</g>
<!-- Node12&#45;&gt;Node11 -->
<g id="edge23" class="edge">
<title>Node12&#45;&gt;Node11</title>
<path fill="none" stroke="#9a32cd" stroke-dasharray="5,2" d="M194.5505,-556.2697C220.762,-540.5428 261.5384,-516.0769 283.9291,-502.6426"/>
<polygon fill="#9a32cd" stroke="#9a32cd" points="192.7147,-553.2894 185.9406,-561.4357 196.3162,-559.2919 192.7147,-553.2894"/>
<text text-anchor="middle" x="256" y="-529.5" font-family="Helvetica,sans-Serif" font-size="10.00" fill="#000000"> d</text>
</g>
<!-- Node13 -->
<g id="node13" class="node">
<title>Node13</title>
<g id="a_node13"><a xlink:href="classpkgAcquireStatus.xhtml" target="_top" xlink:title="A monitor object for downloads controlled by the pkgAcquire class. {{{. ">
<polygon fill="#ffffff" stroke="#000000" points="515,-483.5 515,-502.5 617,-502.5 617,-483.5 515,-483.5"/>
<text text-anchor="middle" x="566" y="-490.5" font-family="Helvetica,sans-Serif" font-size="10.00" fill="#000000">pkgAcquireStatus</text>
</a>
</g>
</g>
<!-- Node13&#45;&gt;Node1 -->
<g id="edge34" class="edge">
<title>Node13&#45;&gt;Node1</title>
<path fill="none" stroke="#9a32cd" stroke-dasharray="5,2" d="M543.9899,-477.5784C512.0913,-455.2285 453.9559,-414.4954 427.6165,-396.0405"/>
<polygon fill="#9a32cd" stroke="#9a32cd" points="542.0447,-480.4892 552.2429,-483.361 546.0615,-474.7563 542.0447,-480.4892"/>
<text text-anchor="middle" x="535.5" y="-440.5" font-family="Helvetica,sans-Serif" font-size="10.00" fill="#000000"> Log</text>
</g>
<!-- Node13&#45;&gt;Node10 -->
<g id="edge26" class="edge">
<title>Node13&#45;&gt;Node10</title>
<path fill="none" stroke="#9a32cd" stroke-dasharray="5,2" d="M574.7983,-473.9242C583.6504,-452.9567 596,-418.051 596,-386.5 596,-386.5 596,-386.5 596,-79 596,-40.2508 465.9577,-20.4869 409.5722,-13.7387"/>
<polygon fill="#9a32cd" stroke="#9a32cd" points="571.5081,-472.7117 570.6875,-483.2747 577.9162,-475.5289 571.5081,-472.7117"/>
<text text-anchor="middle" x="606.5" y="-216" font-family="Helvetica,sans-Serif" font-size="10.00" fill="#000000"> Log</text>
</g>
<!-- Node14&#45;&gt;Node10 -->
<g id="edge27" class="edge">
<title>Node14&#45;&gt;Node10</title>
<path fill="none" stroke="#9a32cd" stroke-dasharray="5,2" d="M718.7086,-423.3555C717.5397,-403.863 716,-373.1321 716,-346.5 716,-346.5 716,-346.5 716,-79 716,-48.3044 687.8076,-50.5992 659,-40 613.6071,-23.2986 469.2988,-14.9222 409.9123,-12.1126"/>
<polygon fill="#9a32cd" stroke="#9a32cd" points="715.2205,-423.6564 719.3395,-433.4177 722.2067,-423.2183 715.2205,-423.6564"/>
<text text-anchor="middle" x="755" y="-216" font-family="Helvetica,sans-Serif" font-size="10.00" fill="#000000"> MessageQueue</text>
</g>
</g>
</svg>
        <g id="navigator" transform="translate(0 0)" fill="#404254">
                <rect fill="#f2f5e9" fill-opacity="0.5" stroke="#606060" stroke-width=".5" x="0" y="0" width="60" height="60"/>
                <use id="zoomplus" xlink:href="#zoomPlus" x="17" y="9" onmousedown="handleZoom(evt,'in')"/>
                <use id="zoomminus" xlink:href="#zoomMin" x="42" y="9" onmousedown="handleZoom(evt,'out')"/>
                <use id="reset" xlink:href="#resetDef" x="30" y="36" onmousedown="handleReset()"/>
                <g id="arrowUp" xlink:href="#dirArrow" transform="translate(30 24)" onmousedown="handlePan(0,-1)">
                  <use xlink:href="#rim" fill="#404040">
                        <set attributeName="fill" to="#808080" begin="arrowUp.mouseover" end="arrowUp.mouseout"/>
                  </use>
                  <path fill="none" stroke="white" stroke-width="1.5" d="M0,-3.0v7 M-2.5,-0.5L0,-3.0L2.5,-0.5"/>
                </g>
                <g id="arrowRight" xlink:href="#dirArrow" transform="rotate(90) translate(36 -43)" onmousedown="handlePan(1,0)">
                  <use xlink:href="#rim" fill="#404040">
                        <set attributeName="fill" to="#808080" begin="arrowRight.mouseover" end="arrowRight.mouseout"/>
                  </use>
                  <path fill="none" stroke="white" stroke-width="1.5" d="M0,-3.0v7 M-2.5,-0.5L0,-3.0L2.5,-0.5"/>
                </g>
                <g id="arrowDown" xlink:href="#dirArrow" transform="rotate(180) translate(-30 -48)" onmousedown="handlePan(0,1)">
                  <use xlink:href="#rim" fill="#404040">
                        <set attributeName="fill" to="#808080" begin="arrowDown.mouseover" end="arrowDown.mouseout"/>
                  </use>
                  <path fill="none" stroke="white" stroke-width="1.5" d="M0,-3.0v7 M-2.5,-0.5L0,-3.0L2.5,-0.5"/>
                </g>
                <g id="arrowLeft" xlink:href="#dirArrow" transform="rotate(270) translate(-36 17)" onmousedown="handlePan(-1,0)">
                  <use xlink:href="#rim" fill="#404040">
                        <set attributeName="fill" to="#808080" begin="arrowLeft.mouseover" end="arrowLeft.mouseout"/>
                  </use>
                  <path fill="none" stroke="white" stroke-width="1.5" d="M0,-3.0v7 M-2.5,-0.5L0,-3.0L2.5,-0.5"/>
                </g>
        </g>
        <svg viewBox="0 0 15 15" width="100%" height="30px" preserveAspectRatio="xMaxYMin meet">
         <g id="arrow_out" transform="scale(0.3 0.3)">
          <a xlink:href="classpkgAcquire__coll__graph_org.svg" target="_base">
           <rect id="button" ry="5" rx="5" y="6" x="6" height="38" width="38"
                fill="#f2f5e9" fill-opacity="0.5" stroke="#606060" stroke-width="1.0"/>
           <path id="arrow"
             d="M 11.500037,31.436501 C 11.940474,20.09759 22.043105,11.32322 32.158766,21.979434 L 37.068811,17.246167 C 37.068811,17.246167 37.088388,32 37.088388,32 L 22.160133,31.978069 C 22.160133,31.978069 26.997745,27.140456 26.997745,27.140456 C 18.528582,18.264221 13.291696,25.230495 11.500037,31.436501 z"
             style="fill:#404040;"/>
          </a>
         </g>
        </svg>
</svg>
