<?xml version="1.0" encoding="UTF-8" standalone="no"?>
<!DOCTYPE svg PUBLIC "-//W3C//DTD SVG 1.1//EN"
 "http://www.w3.org/Graphics/SVG/1.1/DTD/svg11.dtd">
<!-- Generated by graphviz version 2.40.1 (20161225.0304)
 -->
<!-- Title: Container_const_reverse_iterator&lt; Interface, Container, Master &gt; Pages: 1 -->
<svg width="597pt" height="132pt"
 viewBox="0.00 0.00 597.00 132.00" xmlns="http://www.w3.org/2000/svg" xmlns:xlink="http://www.w3.org/1999/xlink">
<g id="graph0" class="graph" transform="scale(1 1) rotate(0) translate(4 128)">
<title>Container_const_reverse_iterator&lt; Interface, Container, Master &gt;</title>
<polygon fill="#ffffff" stroke="transparent" points="-4,4 -4,-128 593,-128 593,4 -4,4"/>
<!-- Node4 -->
<g id="node1" class="node">
<title>Node4</title>
<polygon fill="#bfbfbf" stroke="#000000" points="452,-41 452,-82 589,-82 589,-41 452,-41"/>
<text text-anchor="start" x="460" y="-70" font-family="Helvetica,sans-Serif" font-size="10.00" fill="#000000">Container_const_reverse</text>
<text text-anchor="start" x="460" y="-59" font-family="Helvetica,sans-Serif" font-size="10.00" fill="#000000">_iterator&lt; Interface,</text>
<text text-anchor="middle" x="520.5" y="-48" font-family="Helvetica,sans-Serif" font-size="10.00" fill="#000000"> Container, Master &gt;</text>
</g>
<!-- Node5 -->
<g id="node2" class="node">
<title>Node5</title>
<g id="a_node2"><a xlink:href="classAPT_1_1Container__iterator__base.xhtml" target="_top" xlink:title="Container_iterator\l_base\&lt; Interface, Master,\l Container_const_reverse\l_iterator\&lt; Interface, Container,\l Master \&gt;, Container::const_reverse\l_iterator, Container::value_type \&gt;">
<polygon fill="#ffffff" stroke="#000000" points="225,-24.5 225,-98.5 416,-98.5 416,-24.5 225,-24.5"/>
<text text-anchor="start" x="233" y="-86.5" font-family="Helvetica,sans-Serif" font-size="10.00" fill="#000000">Container_iterator</text>
<text text-anchor="start" x="233" y="-75.5" font-family="Helvetica,sans-Serif" font-size="10.00" fill="#000000">_base&lt; Interface, Master,</text>
<text text-anchor="start" x="233" y="-64.5" font-family="Helvetica,sans-Serif" font-size="10.00" fill="#000000"> Container_const_reverse</text>
<text text-anchor="start" x="233" y="-53.5" font-family="Helvetica,sans-Serif" font-size="10.00" fill="#000000">_iterator&lt; Interface, Container,</text>
<text text-anchor="start" x="233" y="-42.5" font-family="Helvetica,sans-Serif" font-size="10.00" fill="#000000"> Master &gt;, Container::const_reverse</text>
<text text-anchor="middle" x="320.5" y="-31.5" font-family="Helvetica,sans-Serif" font-size="10.00" fill="#000000">_iterator, Container::value_type &gt;</text>
</a>
</g>
</g>
<!-- Node5&#45;&gt;Node4 -->
<g id="edge1" class="edge">
<title>Node5&#45;&gt;Node4</title>
<path fill="none" stroke="#191970" d="M426.28,-61.5C434.9367,-61.5 443.5355,-61.5 451.8157,-61.5"/>
<polygon fill="#191970" stroke="#191970" points="426.1068,-58.0001 416.1067,-61.5 426.1067,-65.0001 426.1068,-58.0001"/>
</g>
<!-- Node6 -->
<g id="node3" class="node">
<title>Node6</title>
<polygon fill="#ffffff" stroke="#bfbfbf" points="0,-71.5 0,-123.5 189,-123.5 189,-71.5 0,-71.5"/>
<text text-anchor="start" x="8" y="-111.5" font-family="Helvetica,sans-Serif" font-size="10.00" fill="#000000">iterator&lt; std::iterator</text>
<text text-anchor="start" x="8" y="-100.5" font-family="Helvetica,sans-Serif" font-size="10.00" fill="#000000">_traits&lt; Container::const</text>
<text text-anchor="start" x="8" y="-89.5" font-family="Helvetica,sans-Serif" font-size="10.00" fill="#000000">_reverse_iterator &gt;::iterator</text>
<text text-anchor="middle" x="94.5" y="-78.5" font-family="Helvetica,sans-Serif" font-size="10.00" fill="#000000">_category, Container::value_type &gt;</text>
</g>
<!-- Node6&#45;&gt;Node5 -->
<g id="edge2" class="edge">
<title>Node6&#45;&gt;Node5</title>
<path fill="none" stroke="#191970" d="M199.0906,-80.8396C207.6924,-79.4694 216.3595,-78.0888 224.8911,-76.7297"/>
<polygon fill="#191970" stroke="#191970" points="198.3598,-77.4118 189.0349,-82.4413 199.461,-84.3246 198.3598,-77.4118"/>
</g>
<!-- Node7 -->
<g id="node4" class="node">
<title>Node7</title>
<polygon fill="#ffffff" stroke="#bfbfbf" points="10,-.5 10,-52.5 179,-52.5 179,-.5 10,-.5"/>
<text text-anchor="start" x="18" y="-40.5" font-family="Helvetica,sans-Serif" font-size="10.00" fill="#000000">template iterator_base</text>
<text text-anchor="start" x="18" y="-29.5" font-family="Helvetica,sans-Serif" font-size="10.00" fill="#000000">&lt; Container_const_reverse</text>
<text text-anchor="start" x="18" y="-18.5" font-family="Helvetica,sans-Serif" font-size="10.00" fill="#000000">_iterator&lt; Interface, Container,</text>
<text text-anchor="middle" x="94.5" y="-7.5" font-family="Helvetica,sans-Serif" font-size="10.00" fill="#000000"> Master &gt; &gt;</text>
</g>
<!-- Node7&#45;&gt;Node5 -->
<g id="edge3" class="edge">
<title>Node7&#45;&gt;Node5</title>
<path fill="none" stroke="#191970" d="M189.5222,-41.2158C201.2504,-43.0321 213.2438,-44.8895 224.9794,-46.707"/>
<polygon fill="#191970" stroke="#191970" points="189.7149,-37.704 179.297,-39.6323 188.6436,-44.6216 189.7149,-37.704"/>
</g>
</g>
</svg>
