<?xml version="1.0" encoding="UTF-8" standalone="no"?>
<!DOCTYPE svg PUBLIC "-//W3C//DTD SVG 1.1//EN"
 "http://www.w3.org/Graphics/SVG/1.1/DTD/svg11.dtd">
<!-- Generated by graphviz version 2.40.1 (20161225.0304)
 -->
<!-- Title: Container_reverse_iterator&lt; Interface, Container, Master &gt; Pages: 1 -->
<svg width="581pt" height="122pt"
 viewBox="0.00 0.00 581.00 121.50" xmlns="http://www.w3.org/2000/svg" xmlns:xlink="http://www.w3.org/1999/xlink">
<g id="graph0" class="graph" transform="scale(1 1) rotate(0) translate(4 117.5)">
<title>Container_reverse_iterator&lt; Interface, Container, Master &gt;</title>
<polygon fill="#ffffff" stroke="transparent" points="-4,4 -4,-117.5 577,-117.5 577,4 -4,4"/>
<!-- Node4 -->
<g id="node1" class="node">
<title>Node4</title>
<polygon fill="#bfbfbf" stroke="#000000" points="426,-33.5 426,-74.5 573,-74.5 573,-33.5 426,-33.5"/>
<text text-anchor="start" x="434" y="-62.5" font-family="Helvetica,sans-Serif" font-size="10.00" fill="#000000">Container_reverse_iterator</text>
<text text-anchor="start" x="434" y="-51.5" font-family="Helvetica,sans-Serif" font-size="10.00" fill="#000000">&lt; Interface, Container,</text>
<text text-anchor="middle" x="499.5" y="-40.5" font-family="Helvetica,sans-Serif" font-size="10.00" fill="#000000"> Master &gt;</text>
</g>
<!-- Node5 -->
<g id="node2" class="node">
<title>Node5</title>
<g id="a_node2"><a xlink:href="classAPT_1_1Container__iterator__base.xhtml" target="_top" xlink:title="Container_iterator\l_base\&lt; Interface, Master,\l Container_reverse_iterator\l\&lt; Interface, Container, Master\l \&gt;, Container::reverse_iterator,\l Container::value_type \&gt;">
<polygon fill="#ffffff" stroke="#000000" points="222,-17 222,-91 390,-91 390,-17 222,-17"/>
<text text-anchor="start" x="230" y="-79" font-family="Helvetica,sans-Serif" font-size="10.00" fill="#000000">Container_iterator</text>
<text text-anchor="start" x="230" y="-68" font-family="Helvetica,sans-Serif" font-size="10.00" fill="#000000">_base&lt; Interface, Master,</text>
<text text-anchor="start" x="230" y="-57" font-family="Helvetica,sans-Serif" font-size="10.00" fill="#000000"> Container_reverse_iterator</text>
<text text-anchor="start" x="230" y="-46" font-family="Helvetica,sans-Serif" font-size="10.00" fill="#000000">&lt; Interface, Container, Master</text>
<text text-anchor="start" x="230" y="-35" font-family="Helvetica,sans-Serif" font-size="10.00" fill="#000000"> &gt;, Container::reverse_iterator,</text>
<text text-anchor="middle" x="306" y="-24" font-family="Helvetica,sans-Serif" font-size="10.00" fill="#000000"> Container::value_type &gt;</text>
</a>
</g>
</g>
<!-- Node5&#45;&gt;Node4 -->
<g id="edge1" class="edge">
<title>Node5&#45;&gt;Node4</title>
<path fill="none" stroke="#191970" d="M400.1421,-54C408.783,-54 417.4517,-54 425.8722,-54"/>
<polygon fill="#191970" stroke="#191970" points="400.0278,-50.5001 390.0277,-54 400.0277,-57.5001 400.0278,-50.5001"/>
</g>
<!-- Node6 -->
<g id="node3" class="node">
<title>Node6</title>
<polygon fill="#ffffff" stroke="#bfbfbf" points="12,-61 12,-113 174,-113 174,-61 12,-61"/>
<text text-anchor="start" x="20" y="-101" font-family="Helvetica,sans-Serif" font-size="10.00" fill="#000000">iterator&lt; std::iterator</text>
<text text-anchor="start" x="20" y="-90" font-family="Helvetica,sans-Serif" font-size="10.00" fill="#000000">_traits&lt; Container::reverse</text>
<text text-anchor="start" x="20" y="-79" font-family="Helvetica,sans-Serif" font-size="10.00" fill="#000000">_iterator &gt;::iterator_category,</text>
<text text-anchor="middle" x="93" y="-68" font-family="Helvetica,sans-Serif" font-size="10.00" fill="#000000"> Container::value_type &gt;</text>
</g>
<!-- Node6&#45;&gt;Node5 -->
<g id="edge2" class="edge">
<title>Node6&#45;&gt;Node5</title>
<path fill="none" stroke="#191970" d="M184.1183,-72.8831C196.663,-70.9395 209.4985,-68.9509 221.9087,-67.0282"/>
<polygon fill="#191970" stroke="#191970" points="183.48,-69.4401 174.1338,-74.43 184.5518,-76.3576 183.48,-69.4401"/>
</g>
<!-- Node7 -->
<g id="node4" class="node">
<title>Node7</title>
<polygon fill="#ffffff" stroke="#bfbfbf" points="0,-.5 0,-41.5 186,-41.5 186,-.5 0,-.5"/>
<text text-anchor="start" x="8" y="-29.5" font-family="Helvetica,sans-Serif" font-size="10.00" fill="#000000">template iterator_base</text>
<text text-anchor="start" x="8" y="-18.5" font-family="Helvetica,sans-Serif" font-size="10.00" fill="#000000">&lt; Container_reverse_iterator</text>
<text text-anchor="middle" x="93" y="-7.5" font-family="Helvetica,sans-Serif" font-size="10.00" fill="#000000">&lt; Interface, Container, Master &gt; &gt;</text>
</g>
<!-- Node7&#45;&gt;Node5 -->
<g id="edge3" class="edge">
<title>Node7&#45;&gt;Node5</title>
<path fill="none" stroke="#191970" d="M196.167,-36.9836C204.7526,-38.3138 213.367,-39.6484 221.7869,-40.9529"/>
<polygon fill="#191970" stroke="#191970" points="196.533,-33.4987 186.115,-35.4263 195.4613,-40.4161 196.533,-33.4987"/>
</g>
</g>
</svg>
