<?xml version="1.0" encoding="UTF-8" standalone="no"?>
<!DOCTYPE svg PUBLIC "-//W3C//DTD SVG 1.1//EN"
 "http://www.w3.org/Graphics/SVG/1.1/DTD/svg11.dtd">
<!-- Generated by graphviz version 2.40.1 (20161225.0304)
 -->
<!-- Title: MMap Pages: 1 -->
<svg width="169pt" height="230pt"
 viewBox="0.00 0.00 168.50 230.00" xmlns="http://www.w3.org/2000/svg" xmlns:xlink="http://www.w3.org/1999/xlink">
<g id="graph0" class="graph" transform="scale(1 1) rotate(0) translate(4 226)">
<title>MMap</title>
<polygon fill="#ffffff" stroke="transparent" points="-4,4 -4,-226 164.5,-226 164.5,4 -4,4"/>
<!-- Node2 -->
<g id="node1" class="node">
<title>Node2</title>
<polygon fill="#bfbfbf" stroke="#000000" points="37,-.5 37,-19.5 82,-19.5 82,-.5 37,-.5"/>
<text text-anchor="middle" x="59.5" y="-7.5" font-family="Helvetica,sans-Serif" font-size="10.00" fill="#000000">MMap</text>
</g>
<!-- Node3 -->
<g id="node2" class="node">
<title>Node3</title>
<g id="a_node2"><a xlink:href="classFileFd.xhtml" target="_top" xlink:title="FileFd">
<polygon fill="#ffffff" stroke="#000000" points="37.5,-67.5 37.5,-86.5 81.5,-86.5 81.5,-67.5 37.5,-67.5"/>
<text text-anchor="middle" x="59.5" y="-74.5" font-family="Helvetica,sans-Serif" font-size="10.00" fill="#000000">FileFd</text>
</a>
</g>
</g>
<!-- Node3&#45;&gt;Node2 -->
<g id="edge1" class="edge">
<title>Node3&#45;&gt;Node2</title>
<path fill="none" stroke="#9a32cd" stroke-dasharray="5,2" d="M59.5,-57.1079C59.5,-44.714 59.5,-29.3263 59.5,-19.5817"/>
<polygon fill="#9a32cd" stroke="#9a32cd" points="56.0001,-57.4005 59.5,-67.4005 63.0001,-57.4006 56.0001,-57.4005"/>
<text text-anchor="middle" x="84" y="-41" font-family="Helvetica,sans-Serif" font-size="10.00" fill="#000000"> SyncToFd</text>
</g>
<!-- Node4 -->
<g id="node3" class="node">
<title>Node4</title>
<g id="a_node3"><a xlink:title="STL class. ">
<polygon fill="#ffffff" stroke="#bfbfbf" points="37.5,-145.5 37.5,-164.5 81.5,-164.5 81.5,-145.5 37.5,-145.5"/>
<text text-anchor="middle" x="59.5" y="-152.5" font-family="Helvetica,sans-Serif" font-size="10.00" fill="#000000">string</text>
</a>
</g>
</g>
<!-- Node4&#45;&gt;Node3 -->
<g id="edge2" class="edge">
<title>Node4&#45;&gt;Node3</title>
<path fill="none" stroke="#9a32cd" stroke-dasharray="5,2" d="M59.5,-135.2866C59.5,-119.7395 59.5,-98.7276 59.5,-86.6426"/>
<polygon fill="#9a32cd" stroke="#9a32cd" points="56.0001,-135.4356 59.5,-145.4357 63.0001,-135.4357 56.0001,-135.4356"/>
<text text-anchor="middle" x="110" y="-119" font-family="Helvetica,sans-Serif" font-size="10.00" fill="#000000"> TemporaryFileName</text>
<text text-anchor="middle" x="110" y="-108" font-family="Helvetica,sans-Serif" font-size="10.00" fill="#000000">FileName</text>
</g>
<!-- Node5 -->
<g id="node4" class="node">
<title>Node5</title>
<g id="a_node4"><a xlink:title="STL class. ">
<polygon fill="#ffffff" stroke="#bfbfbf" points="0,-202.5 0,-221.5 119,-221.5 119,-202.5 0,-202.5"/>
<text text-anchor="middle" x="59.5" y="-209.5" font-family="Helvetica,sans-Serif" font-size="10.00" fill="#000000">basic_string&lt; char &gt;</text>
</a>
</g>
</g>
<!-- Node5&#45;&gt;Node4 -->
<g id="edge3" class="edge">
<title>Node5&#45;&gt;Node4</title>
<path fill="none" stroke="#191970" d="M59.5,-192.2342C59.5,-182.8491 59.5,-172.0651 59.5,-164.5265"/>
<polygon fill="#191970" stroke="#191970" points="56.0001,-192.3307 59.5,-202.3307 63.0001,-192.3308 56.0001,-192.3307"/>
</g>
</g>
</svg>
