<?xml version="1.0" encoding="UTF-8" standalone="no"?>
<!DOCTYPE svg PUBLIC "-//W3C//DTD SVG 1.1//EN"
 "http://www.w3.org/Graphics/SVG/1.1/DTD/svg11.dtd">
<!-- Generated by graphviz version 2.40.1 (20161225.0304)
 -->
<!-- Title: debTranslationsIndex Pages: 1 -->
<svg width="355pt" height="378pt"
 viewBox="0.00 0.00 355.00 378.00" xmlns="http://www.w3.org/2000/svg" xmlns:xlink="http://www.w3.org/1999/xlink">
<g id="graph0" class="graph" transform="scale(1 1) rotate(0) translate(4 374)">
<title>debTranslationsIndex</title>
<polygon fill="#ffffff" stroke="transparent" points="-4,4 -4,-374 351,-374 351,4 -4,4"/>
<!-- Node4 -->
<g id="node1" class="node">
<title>Node4</title>
<polygon fill="#bfbfbf" stroke="#000000" points="51.5,-.5 51.5,-19.5 171.5,-19.5 171.5,-.5 51.5,-.5"/>
<text text-anchor="middle" x="111.5" y="-7.5" font-family="Helvetica,sans-Serif" font-size="10.00" fill="#000000">debTranslationsIndex</text>
</g>
<!-- Node5 -->
<g id="node2" class="node">
<title>Node5</title>
<g id="a_node2"><a xlink:href="classpkgDebianIndexTargetFile.xhtml" target="_top" xlink:title="pkgDebianIndexTargetFile">
<polygon fill="#ffffff" stroke="#000000" points="40,-57.5 40,-76.5 183,-76.5 183,-57.5 40,-57.5"/>
<text text-anchor="middle" x="111.5" y="-64.5" font-family="Helvetica,sans-Serif" font-size="10.00" fill="#000000">pkgDebianIndexTargetFile</text>
</a>
</g>
</g>
<!-- Node5&#45;&gt;Node4 -->
<g id="edge1" class="edge">
<title>Node5&#45;&gt;Node4</title>
<path fill="none" stroke="#191970" d="M111.5,-47.2342C111.5,-37.8491 111.5,-27.0651 111.5,-19.5265"/>
<polygon fill="#191970" stroke="#191970" points="108.0001,-47.3307 111.5,-57.3307 115.0001,-47.3308 108.0001,-47.3307"/>
</g>
<!-- Node6 -->
<g id="node3" class="node">
<title>Node6</title>
<g id="a_node3"><a xlink:href="classpkgDebianIndexFile.xhtml" target="_top" xlink:title="pkgDebianIndexFile">
<polygon fill="#ffffff" stroke="#000000" points="0,-124.5 0,-143.5 113,-143.5 113,-124.5 0,-124.5"/>
<text text-anchor="middle" x="56.5" y="-131.5" font-family="Helvetica,sans-Serif" font-size="10.00" fill="#000000">pkgDebianIndexFile</text>
</a>
</g>
</g>
<!-- Node6&#45;&gt;Node5 -->
<g id="edge2" class="edge">
<title>Node6&#45;&gt;Node5</title>
<path fill="none" stroke="#191970" d="M70.9899,-116.3486C81.4393,-103.6194 95.1454,-86.9229 103.6345,-76.5817"/>
<polygon fill="#191970" stroke="#191970" points="68.0199,-114.4505 64.3802,-124.4005 73.4304,-118.892 68.0199,-114.4505"/>
</g>
<!-- Node7 -->
<g id="node4" class="node">
<title>Node7</title>
<g id="a_node4"><a xlink:href="classpkgIndexFile.xhtml" target="_top" xlink:title="pkgIndexFile">
<polygon fill="#ffffff" stroke="#000000" points="17.5,-203.5 17.5,-222.5 95.5,-222.5 95.5,-203.5 17.5,-203.5"/>
<text text-anchor="middle" x="56.5" y="-210.5" font-family="Helvetica,sans-Serif" font-size="10.00" fill="#000000">pkgIndexFile</text>
</a>
</g>
</g>
<!-- Node7&#45;&gt;Node6 -->
<g id="edge3" class="edge">
<title>Node7&#45;&gt;Node6</title>
<path fill="none" stroke="#191970" d="M56.5,-193.0339C56.5,-177.2875 56.5,-156.0062 56.5,-143.7662"/>
<polygon fill="#191970" stroke="#191970" points="53.0001,-193.313 56.5,-203.313 60.0001,-193.3131 53.0001,-193.313"/>
</g>
<!-- Node8 -->
<g id="node5" class="node">
<title>Node8</title>
<g id="a_node5"><a xlink:href="classIndexTarget.xhtml" target="_top" xlink:title="Information about an index file. ">
<polygon fill="#ffffff" stroke="#000000" points="131.5,-124.5 131.5,-143.5 205.5,-143.5 205.5,-124.5 131.5,-124.5"/>
<text text-anchor="middle" x="168.5" y="-131.5" font-family="Helvetica,sans-Serif" font-size="10.00" fill="#000000">IndexTarget</text>
</a>
</g>
</g>
<!-- Node8&#45;&gt;Node5 -->
<g id="edge4" class="edge">
<title>Node8&#45;&gt;Node5</title>
<path fill="none" stroke="#9a32cd" stroke-dasharray="5,2" d="M153.7946,-116.7147C142.9274,-103.941 128.534,-87.0224 119.6516,-76.5817"/>
<polygon fill="#9a32cd" stroke="#9a32cd" points="151.1877,-119.0519 160.3333,-124.4005 156.5193,-114.516 151.1877,-119.0519"/>
<text text-anchor="middle" x="159.5" y="-98" font-family="Helvetica,sans-Serif" font-size="10.00" fill="#000000"> Target</text>
</g>
<!-- Node9 -->
<g id="node6" class="node">
<title>Node9</title>
<polygon fill="#ffffff" stroke="#bfbfbf" points="228,-198 228,-228 347,-228 347,-198 228,-198"/>
<text text-anchor="start" x="236" y="-216" font-family="Helvetica,sans-Serif" font-size="10.00" fill="#000000">map&lt; std::string, std</text>
<text text-anchor="middle" x="287.5" y="-205" font-family="Helvetica,sans-Serif" font-size="10.00" fill="#000000">::string &gt;</text>
</g>
<!-- Node9&#45;&gt;Node8 -->
<g id="edge5" class="edge">
<title>Node9&#45;&gt;Node8</title>
<path fill="none" stroke="#9a32cd" stroke-dasharray="5,2" d="M256.4765,-192.4046C232.701,-176.6208 200.9872,-155.5671 182.8514,-143.5274"/>
<polygon fill="#9a32cd" stroke="#9a32cd" points="254.5698,-195.3398 264.8369,-197.9548 258.4414,-189.5079 254.5698,-195.3398"/>
<text text-anchor="middle" x="244" y="-165" font-family="Helvetica,sans-Serif" font-size="10.00" fill="#000000"> Options</text>
</g>
<!-- Node10 -->
<g id="node7" class="node">
<title>Node10</title>
<g id="a_node7"><a xlink:title="STL class. ">
<polygon fill="#ffffff" stroke="#bfbfbf" points="144.5,-293.5 144.5,-312.5 188.5,-312.5 188.5,-293.5 144.5,-293.5"/>
<text text-anchor="middle" x="166.5" y="-300.5" font-family="Helvetica,sans-Serif" font-size="10.00" fill="#000000">string</text>
</a>
</g>
</g>
<!-- Node10&#45;&gt;Node8 -->
<g id="edge8" class="edge">
<title>Node10&#45;&gt;Node8</title>
<path fill="none" stroke="#9a32cd" stroke-dasharray="5,2" d="M163.9642,-283.1833C161.4416,-260.7901 158.2474,-223.2562 160.5,-191 161.6695,-174.2528 164.7493,-154.9385 166.7285,-143.6388"/>
<polygon fill="#9a32cd" stroke="#9a32cd" points="160.5242,-283.893 165.1898,-293.4052 167.4744,-283.0596 160.5242,-283.893"/>
<text text-anchor="middle" x="190" y="-227" font-family="Helvetica,sans-Serif" font-size="10.00" fill="#000000"> Description</text>
<text text-anchor="middle" x="190" y="-216" font-family="Helvetica,sans-Serif" font-size="10.00" fill="#000000">URI</text>
<text text-anchor="middle" x="190" y="-205" font-family="Helvetica,sans-Serif" font-size="10.00" fill="#000000">ShortDesc</text>
<text text-anchor="middle" x="190" y="-194" font-family="Helvetica,sans-Serif" font-size="10.00" fill="#000000">MetaKey</text>
</g>
<!-- Node10&#45;&gt;Node9 -->
<g id="edge6" class="edge">
<title>Node10&#45;&gt;Node9</title>
<path fill="none" stroke="#9a32cd" stroke-dasharray="5,2" d="M187.6109,-287.2977C209.9364,-270.6919 244.9202,-244.6709 267.0082,-228.2418"/>
<polygon fill="#9a32cd" stroke="#9a32cd" points="185.3841,-284.5919 179.4491,-293.3684 189.5618,-290.2086 185.3841,-284.5919"/>
<text text-anchor="middle" x="253.5" y="-267" font-family="Helvetica,sans-Serif" font-size="10.00" fill="#000000"> keys</text>
<text text-anchor="middle" x="253.5" y="-256" font-family="Helvetica,sans-Serif" font-size="10.00" fill="#000000">elements</text>
</g>
<!-- Node11 -->
<g id="node8" class="node">
<title>Node11</title>
<g id="a_node8"><a xlink:title="STL class. ">
<polygon fill="#ffffff" stroke="#bfbfbf" points="107,-350.5 107,-369.5 226,-369.5 226,-350.5 107,-350.5"/>
<text text-anchor="middle" x="166.5" y="-357.5" font-family="Helvetica,sans-Serif" font-size="10.00" fill="#000000">basic_string&lt; char &gt;</text>
</a>
</g>
</g>
<!-- Node11&#45;&gt;Node10 -->
<g id="edge7" class="edge">
<title>Node11&#45;&gt;Node10</title>
<path fill="none" stroke="#191970" d="M166.5,-340.2342C166.5,-330.8491 166.5,-320.0651 166.5,-312.5265"/>
<polygon fill="#191970" stroke="#191970" points="163.0001,-340.3307 166.5,-350.3307 170.0001,-340.3308 163.0001,-340.3307"/>
</g>
</g>
</svg>
