<?xml version="1.0" encoding="UTF-8" standalone="no"?>
<!DOCTYPE svg PUBLIC "-//W3C//DTD SVG 1.1//EN"
 "http://www.w3.org/Graphics/SVG/1.1/DTD/svg11.dtd">
<!-- Generated by graphviz version 2.40.1 (20161225.0304)
 -->
<!-- Title: SummationImplementation Pages: 1 -->
<svg width="419pt" height="140pt"
 viewBox="0.00 0.00 419.00 140.00" xmlns="http://www.w3.org/2000/svg" xmlns:xlink="http://www.w3.org/1999/xlink">
<g id="graph0" class="graph" transform="scale(1 1) rotate(0) translate(4 136)">
<title>SummationImplementation</title>
<polygon fill="#ffffff" stroke="transparent" points="-4,4 -4,-136 415,-136 415,4 -4,4"/>
<!-- Node0 -->
<g id="node1" class="node">
<title>Node0</title>
<polygon fill="#bfbfbf" stroke="#000000" points="87,-112.5 87,-131.5 238,-131.5 238,-112.5 87,-112.5"/>
<text text-anchor="middle" x="162.5" y="-119.5" font-family="Helvetica,sans-Serif" font-size="10.00" fill="#000000">SummationImplementation</text>
</g>
<!-- Node1 -->
<g id="node2" class="node">
<title>Node1</title>
<g id="a_node2"><a xlink:href="classMD5Summation.xhtml" target="_top" xlink:title="MD5Summation">
<polygon fill="#ffffff" stroke="#000000" points="0,-56.5 0,-75.5 95,-75.5 95,-56.5 0,-56.5"/>
<text text-anchor="middle" x="47.5" y="-63.5" font-family="Helvetica,sans-Serif" font-size="10.00" fill="#000000">MD5Summation</text>
</a>
</g>
</g>
<!-- Node0&#45;&gt;Node1 -->
<g id="edge1" class="edge">
<title>Node0&#45;&gt;Node1</title>
<path fill="none" stroke="#191970" d="M133.6967,-107.9741C112.875,-97.8348 85.3022,-84.408 67.0112,-75.5011"/>
<polygon fill="#191970" stroke="#191970" points="132.2078,-111.1419 142.7308,-112.3733 135.2724,-104.8484 132.2078,-111.1419"/>
</g>
<!-- Node2 -->
<g id="node3" class="node">
<title>Node2</title>
<g id="a_node3"><a xlink:href="classSHA1Summation.xhtml" target="_top" xlink:title="SHA1Summation">
<polygon fill="#ffffff" stroke="#000000" points="113,-56.5 113,-75.5 212,-75.5 212,-56.5 113,-56.5"/>
<text text-anchor="middle" x="162.5" y="-63.5" font-family="Helvetica,sans-Serif" font-size="10.00" fill="#000000">SHA1Summation</text>
</a>
</g>
</g>
<!-- Node0&#45;&gt;Node2 -->
<g id="edge2" class="edge">
<title>Node0&#45;&gt;Node2</title>
<path fill="none" stroke="#191970" d="M162.5,-102.1575C162.5,-93.155 162.5,-82.9199 162.5,-75.6427"/>
<polygon fill="#191970" stroke="#191970" points="159.0001,-102.2455 162.5,-112.2455 166.0001,-102.2456 159.0001,-102.2455"/>
</g>
<!-- Node3 -->
<g id="node4" class="node">
<title>Node3</title>
<g id="a_node4"><a xlink:href="classSHA2SummationBase.xhtml" target="_top" xlink:title="SHA2SummationBase">
<polygon fill="#ffffff" stroke="#000000" points="230,-56.5 230,-75.5 353,-75.5 353,-56.5 230,-56.5"/>
<text text-anchor="middle" x="291.5" y="-63.5" font-family="Helvetica,sans-Serif" font-size="10.00" fill="#000000">SHA2SummationBase</text>
</a>
</g>
</g>
<!-- Node0&#45;&gt;Node3 -->
<g id="edge3" class="edge">
<title>Node0&#45;&gt;Node3</title>
<path fill="none" stroke="#191970" d="M193.8671,-108.3833C217.3284,-98.1985 248.8185,-84.5284 269.6135,-75.5011"/>
<polygon fill="#191970" stroke="#191970" points="192.4551,-105.1806 184.6759,-112.3733 195.2426,-111.6017 192.4551,-105.1806"/>
</g>
<!-- Node4 -->
<g id="node5" class="node">
<title>Node4</title>
<g id="a_node5"><a xlink:href="classSHA256Summation.xhtml" target="_top" xlink:title="SHA256Summation">
<polygon fill="#ffffff" stroke="#000000" points="171,-.5 171,-19.5 282,-19.5 282,-.5 171,-.5"/>
<text text-anchor="middle" x="226.5" y="-7.5" font-family="Helvetica,sans-Serif" font-size="10.00" fill="#000000">SHA256Summation</text>
</a>
</g>
</g>
<!-- Node3&#45;&gt;Node4 -->
<g id="edge4" class="edge">
<title>Node3&#45;&gt;Node4</title>
<path fill="none" stroke="#191970" d="M272.5165,-49.645C261.2121,-39.9058 247.253,-27.8795 237.6924,-19.6427"/>
<polygon fill="#191970" stroke="#191970" points="270.3173,-52.3701 280.1779,-56.2455 274.8862,-47.0668 270.3173,-52.3701"/>
</g>
<!-- Node5 -->
<g id="node6" class="node">
<title>Node5</title>
<g id="a_node6"><a xlink:href="classSHA512Summation.xhtml" target="_top" xlink:title="SHA512Summation">
<polygon fill="#ffffff" stroke="#000000" points="300,-.5 300,-19.5 411,-19.5 411,-.5 300,-.5"/>
<text text-anchor="middle" x="355.5" y="-7.5" font-family="Helvetica,sans-Serif" font-size="10.00" fill="#000000">SHA512Summation</text>
</a>
</g>
</g>
<!-- Node3&#45;&gt;Node5 -->
<g id="edge5" class="edge">
<title>Node3&#45;&gt;Node5</title>
<path fill="none" stroke="#191970" d="M310.1914,-49.645C321.3219,-39.9058 335.0663,-27.8795 344.4798,-19.6427"/>
<polygon fill="#191970" stroke="#191970" points="307.869,-47.0264 302.6479,-56.2455 312.4785,-52.2945 307.869,-47.0264"/>
</g>
</g>
</svg>
