<?xml version="1.0" encoding="UTF-8" standalone="no"?>
<!DOCTYPE svg PUBLIC "-//W3C//DTD SVG 1.1//EN"
 "http://www.w3.org/Graphics/SVG/1.1/DTD/svg11.dtd">
<!-- Generated by graphviz version 2.40.1 (20161225.0304)
 -->
<!-- Title: debStringPackageIndex Pages: 1 -->
<svg width="236pt" height="209pt"
 viewBox="0.00 0.00 236.00 209.00" xmlns="http://www.w3.org/2000/svg" xmlns:xlink="http://www.w3.org/1999/xlink">
<g id="graph0" class="graph" transform="scale(1 1) rotate(0) translate(4 205)">
<title>debStringPackageIndex</title>
<polygon fill="#ffffff" stroke="transparent" points="-4,4 -4,-205 232,-205 232,4 -4,4"/>
<!-- Node4 -->
<g id="node1" class="node">
<title>Node4</title>
<polygon fill="#bfbfbf" stroke="#000000" points="39,-.5 39,-19.5 170,-19.5 170,-.5 39,-.5"/>
<text text-anchor="middle" x="104.5" y="-7.5" font-family="Helvetica,sans-Serif" font-size="10.00" fill="#000000">debStringPackageIndex</text>
</g>
<!-- Node5 -->
<g id="node2" class="node">
<title>Node5</title>
<g id="a_node2"><a xlink:href="classpkgDebianIndexRealFile.xhtml" target="_top" xlink:title="pkgDebianIndexRealFile">
<polygon fill="#ffffff" stroke="#000000" points="37.5,-57.5 37.5,-76.5 171.5,-76.5 171.5,-57.5 37.5,-57.5"/>
<text text-anchor="middle" x="104.5" y="-64.5" font-family="Helvetica,sans-Serif" font-size="10.00" fill="#000000">pkgDebianIndexRealFile</text>
</a>
</g>
</g>
<!-- Node5&#45;&gt;Node4 -->
<g id="edge1" class="edge">
<title>Node5&#45;&gt;Node4</title>
<path fill="none" stroke="#191970" d="M104.5,-47.2342C104.5,-37.8491 104.5,-27.0651 104.5,-19.5265"/>
<polygon fill="#191970" stroke="#191970" points="101.0001,-47.3307 104.5,-57.3307 108.0001,-47.3308 101.0001,-47.3307"/>
</g>
<!-- Node6 -->
<g id="node3" class="node">
<title>Node6</title>
<g id="a_node3"><a xlink:href="classpkgDebianIndexFile.xhtml" target="_top" xlink:title="pkgDebianIndexFile">
<polygon fill="#ffffff" stroke="#000000" points="0,-124.5 0,-143.5 113,-143.5 113,-124.5 0,-124.5"/>
<text text-anchor="middle" x="56.5" y="-131.5" font-family="Helvetica,sans-Serif" font-size="10.00" fill="#000000">pkgDebianIndexFile</text>
</a>
</g>
</g>
<!-- Node6&#45;&gt;Node5 -->
<g id="edge2" class="edge">
<title>Node6&#45;&gt;Node5</title>
<path fill="none" stroke="#191970" d="M69.4096,-115.9803C78.4948,-103.2989 90.2981,-86.8235 97.6355,-76.5817"/>
<polygon fill="#191970" stroke="#191970" points="66.3559,-114.233 63.3772,-124.4005 72.0463,-118.3097 66.3559,-114.233"/>
</g>
<!-- Node7 -->
<g id="node4" class="node">
<title>Node7</title>
<g id="a_node4"><a xlink:href="classpkgIndexFile.xhtml" target="_top" xlink:title="pkgIndexFile">
<polygon fill="#ffffff" stroke="#000000" points="12.5,-181.5 12.5,-200.5 90.5,-200.5 90.5,-181.5 12.5,-181.5"/>
<text text-anchor="middle" x="51.5" y="-188.5" font-family="Helvetica,sans-Serif" font-size="10.00" fill="#000000">pkgIndexFile</text>
</a>
</g>
</g>
<!-- Node7&#45;&gt;Node6 -->
<g id="edge3" class="edge">
<title>Node7&#45;&gt;Node6</title>
<path fill="none" stroke="#191970" d="M53.2338,-171.2342C54.0571,-161.8491 55.0031,-151.0651 55.6643,-143.5265"/>
<polygon fill="#191970" stroke="#191970" points="49.7355,-171.0631 52.3482,-181.3307 56.7087,-171.6749 49.7355,-171.0631"/>
</g>
<!-- Node8 -->
<g id="node5" class="node">
<title>Node8</title>
<g id="a_node5"><a xlink:title="STL class. ">
<polygon fill="#ffffff" stroke="#bfbfbf" points="141.5,-124.5 141.5,-143.5 185.5,-143.5 185.5,-124.5 141.5,-124.5"/>
<text text-anchor="middle" x="163.5" y="-131.5" font-family="Helvetica,sans-Serif" font-size="10.00" fill="#000000">string</text>
</a>
</g>
</g>
<!-- Node8&#45;&gt;Node5 -->
<g id="edge4" class="edge">
<title>Node8&#45;&gt;Node5</title>
<path fill="none" stroke="#9a32cd" stroke-dasharray="5,2" d="M148.2786,-116.7147C137.0302,-103.941 122.1316,-87.0224 112.9376,-76.5817"/>
<polygon fill="#9a32cd" stroke="#9a32cd" points="145.8112,-119.2087 155.0467,-124.4005 151.0646,-114.5825 145.8112,-119.2087"/>
<text text-anchor="middle" x="148.5" y="-98" font-family="Helvetica,sans-Serif" font-size="10.00" fill="#000000"> File</text>
</g>
<!-- Node9 -->
<g id="node6" class="node">
<title>Node9</title>
<g id="a_node6"><a xlink:title="STL class. ">
<polygon fill="#ffffff" stroke="#bfbfbf" points="109,-181.5 109,-200.5 228,-200.5 228,-181.5 109,-181.5"/>
<text text-anchor="middle" x="168.5" y="-188.5" font-family="Helvetica,sans-Serif" font-size="10.00" fill="#000000">basic_string&lt; char &gt;</text>
</a>
</g>
</g>
<!-- Node9&#45;&gt;Node8 -->
<g id="edge5" class="edge">
<title>Node9&#45;&gt;Node8</title>
<path fill="none" stroke="#191970" d="M166.7662,-171.2342C165.9429,-161.8491 164.9969,-151.0651 164.3357,-143.5265"/>
<polygon fill="#191970" stroke="#191970" points="163.2913,-171.6749 167.6518,-181.3307 170.2645,-171.0631 163.2913,-171.6749"/>
</g>
</g>
</svg>
