<?xml version="1.0" encoding="UTF-8" standalone="no"?>
<!DOCTYPE svg PUBLIC "-//W3C//DTD SVG 1.1//EN"
 "http://www.w3.org/Graphics/SVG/1.1/DTD/svg11.dtd">
<!-- Generated by graphviz version 2.40.1 (20161225.0304)
 -->
<!-- Title: PackageArchitectureMatchesSpecification Pages: 1 -->
<svg width="165pt" height="151pt"
 viewBox="0.00 0.00 165.00 151.00" xmlns="http://www.w3.org/2000/svg" xmlns:xlink="http://www.w3.org/1999/xlink">
<g id="graph0" class="graph" transform="scale(1 1) rotate(0) translate(4 147)">
<title>PackageArchitectureMatchesSpecification</title>
<polygon fill="#ffffff" stroke="transparent" points="-4,4 -4,-147 161,-147 161,4 -4,4"/>
<!-- Node3 -->
<g id="node1" class="node">
<title>Node3</title>
<polygon fill="#bfbfbf" stroke="#000000" points="0,-.5 0,-30.5 157,-30.5 157,-.5 0,-.5"/>
<text text-anchor="start" x="8" y="-18.5" font-family="Helvetica,sans-Serif" font-size="10.00" fill="#000000">PackageArchitectureMatches</text>
<text text-anchor="middle" x="78.5" y="-7.5" font-family="Helvetica,sans-Serif" font-size="10.00" fill="#000000">Specification</text>
</g>
<!-- Node4 -->
<g id="node2" class="node">
<title>Node4</title>
<g id="a_node2"><a xlink:href="classAPT_1_1CacheFilter_1_1PackageMatcher.xhtml" target="_top" xlink:title="PackageMatcher">
<polygon fill="#ffffff" stroke="#000000" points="30.5,-67.5 30.5,-86.5 126.5,-86.5 126.5,-67.5 30.5,-67.5"/>
<text text-anchor="middle" x="78.5" y="-74.5" font-family="Helvetica,sans-Serif" font-size="10.00" fill="#000000">PackageMatcher</text>
</a>
</g>
</g>
<!-- Node4&#45;&gt;Node3 -->
<g id="edge1" class="edge">
<title>Node4&#45;&gt;Node3</title>
<path fill="none" stroke="#191970" d="M78.5,-57.3693C78.5,-48.681 78.5,-38.6241 78.5,-30.5446"/>
<polygon fill="#191970" stroke="#191970" points="75.0001,-57.3906 78.5,-67.3906 82.0001,-57.3907 75.0001,-57.3906"/>
</g>
<!-- Node5 -->
<g id="node3" class="node">
<title>Node5</title>
<g id="a_node3"><a xlink:href="classAPT_1_1CacheFilter_1_1Matcher.xhtml" target="_top" xlink:title="Matcher">
<polygon fill="#ffffff" stroke="#000000" points="50.5,-123.5 50.5,-142.5 106.5,-142.5 106.5,-123.5 50.5,-123.5"/>
<text text-anchor="middle" x="78.5" y="-130.5" font-family="Helvetica,sans-Serif" font-size="10.00" fill="#000000">Matcher</text>
</a>
</g>
</g>
<!-- Node5&#45;&gt;Node4 -->
<g id="edge2" class="edge">
<title>Node5&#45;&gt;Node4</title>
<path fill="none" stroke="#191970" d="M78.5,-113.1575C78.5,-104.155 78.5,-93.9199 78.5,-86.6427"/>
<polygon fill="#191970" stroke="#191970" points="75.0001,-113.2455 78.5,-123.2455 82.0001,-113.2456 75.0001,-113.2455"/>
</g>
</g>
</svg>
