<?xml version="1.0" encoding="UTF-8" standalone="no"?>
<!DOCTYPE svg PUBLIC "-//W3C//DTD SVG 1.1//EN"
 "http://www.w3.org/Graphics/SVG/1.1/DTD/svg11.dtd">
<!-- Generated by graphviz version 2.40.1 (20161225.0304)
 -->
<!-- Title: pkgAcquire::Item Pages: 1 -->
<!--zoomable 308 -->
<svg id="main" version="1.1" xmlns="http://www.w3.org/2000/svg" xmlns:xlink="http://www.w3.org/1999/xlink" xml:space="preserve" onload="init(evt)">
<style type="text/css"><![CDATA[
.edge:hover path { stroke: red; }
.edge:hover polygon { stroke: red; fill: red; }
]]></style>
<script type="text/javascript"><![CDATA[
var edges = document.getElementsByTagName('g');
if (edges && edges.length) {
  for (var i=0;i<edges.length;i++) {
    if (edges[i].id.substr(0,4)=='edge') {
      edges[i].setAttribute('class','edge');
    }
  }
}
]]></script>
        <defs>
                <circle id="rim" cx="0" cy="0" r="7"/>
                <circle id="rim2" cx="0" cy="0" r="3.5"/>
                <g id="zoomPlus">
                        <use xlink:href="#rim" fill="#404040">
                                <set attributeName="fill" to="#808080" begin="zoomplus.mouseover" end="zoomplus.mouseout"/>
                        </use>
                        <path d="M-4,0h8M0,-4v8" fill="none" stroke="white" stroke-width="1.5" pointer-events="none"/>
                </g>
                <g id="zoomMin">
                        <use xlink:href="#rim" fill="#404040">
                                <set attributeName="fill" to="#808080" begin="zoomminus.mouseover" end="zoomminus.mouseout"/>
                        </use>
                        <path d="M-4,0h8" fill="none" stroke="white" stroke-width="1.5" pointer-events="none"/>
                </g>
                <g id="dirArrow">
                        <path fill="none" stroke="white" stroke-width="1.5" d="M0,-3.0v7 M-2.5,-0.5L0,-3.0L2.5,-0.5"/>
                </g>
               <g id="resetDef">
                       <use xlink:href="#rim2" fill="#404040">
                               <set attributeName="fill" to="#808080" begin="reset.mouseover" end="reset.mouseout"/>
                       </use>
               </g>
        </defs>

<script type="text/javascript">
var viewWidth = 821;
var viewHeight = 308;
var sectionId = 'dynsection-0';
</script>
<script xlink:href="svgpan.js"/>
<svg id="graph" class="graph">
<g id="viewport">
<title>pkgAcquire::Item</title>
<polygon fill="#ffffff" stroke="transparent" points="-4,4 -4,-304 816.5,-304 816.5,4 -4,4"/>
<!-- Node0 -->
<g id="node1" class="node">
<title>Node0</title>
<polygon fill="#bfbfbf" stroke="#000000" points="210.5,-224.5 210.5,-243.5 310.5,-243.5 310.5,-224.5 210.5,-224.5"/>
<text text-anchor="middle" x="260.5" y="-231.5" font-family="Helvetica,sans-Serif" font-size="10.00" fill="#000000">pkgAcquire::Item</text>
</g>
<!-- Node2 -->
<g id="node3" class="node">
<title>Node2</title>
<g id="a_node3"><a xlink:href="classNoActionItem.xhtml" target="_top" xlink:title="NoActionItem">
<polygon fill="#ffffff" stroke="#000000" points="0,-168.5 0,-187.5 83,-187.5 83,-168.5 0,-168.5"/>
<text text-anchor="middle" x="41.5" y="-175.5" font-family="Helvetica,sans-Serif" font-size="10.00" fill="#000000">NoActionItem</text>
</a>
</g>
</g>
<!-- Node0&#45;&gt;Node2 -->
<g id="edge2" class="edge">
<title>Node0&#45;&gt;Node2</title>
<path fill="none" stroke="#191970" d="M212.9892,-221.8511C172.6898,-211.5462 115.6852,-196.9697 78.6562,-187.5011"/>
<polygon fill="#191970" stroke="#191970" points="212.2972,-225.2867 222.8526,-224.3733 214.0314,-218.5049 212.2972,-225.2867"/>
</g>
<!-- Node3 -->
<g id="node4" class="node">
<title>Node3</title>
<g id="a_node4"><a xlink:href="classpkgAcqArchive.xhtml" target="_top" xlink:title="An item that is responsible for fetching a package file. {{{. ">
<polygon fill="#ffffff" stroke="#000000" points="101,-168.5 101,-187.5 190,-187.5 190,-168.5 101,-168.5"/>
<text text-anchor="middle" x="145.5" y="-175.5" font-family="Helvetica,sans-Serif" font-size="10.00" fill="#000000">pkgAcqArchive</text>
</a>
</g>
</g>
<!-- Node0&#45;&gt;Node3 -->
<g id="edge3" class="edge">
<title>Node0&#45;&gt;Node3</title>
<path fill="none" stroke="#191970" d="M231.6967,-219.9741C210.875,-209.8348 183.3022,-196.408 165.0112,-187.5011"/>
<polygon fill="#191970" stroke="#191970" points="230.2078,-223.1419 240.7308,-224.3733 233.2724,-216.8484 230.2078,-223.1419"/>
</g>
<!-- Node4 -->
<g id="node5" class="node">
<title>Node4</title>
<g id="a_node5"><a xlink:href="classpkgAcqChangelog.xhtml" target="_top" xlink:title="Retrieve the changelog for the given version {{{. ">
<polygon fill="#ffffff" stroke="#000000" points="208.5,-168.5 208.5,-187.5 312.5,-187.5 312.5,-168.5 208.5,-168.5"/>
<text text-anchor="middle" x="260.5" y="-175.5" font-family="Helvetica,sans-Serif" font-size="10.00" fill="#000000">pkgAcqChangelog</text>
</a>
</g>
</g>
<!-- Node0&#45;&gt;Node4 -->
<g id="edge4" class="edge">
<title>Node0&#45;&gt;Node4</title>
<path fill="none" stroke="#191970" d="M260.5,-214.1575C260.5,-205.155 260.5,-194.9199 260.5,-187.6427"/>
<polygon fill="#191970" stroke="#191970" points="257.0001,-214.2455 260.5,-224.2455 264.0001,-214.2456 257.0001,-214.2455"/>
</g>
<!-- Node5 -->
<g id="node6" class="node">
<title>Node5</title>
<g id="a_node6"><a xlink:href="classpkgAcqFile.xhtml" target="_top" xlink:title="Retrieve an arbitrary file to the current directory. {{{. ">
<polygon fill="#ffffff" stroke="#000000" points="331,-168.5 331,-187.5 400,-187.5 400,-168.5 331,-168.5"/>
<text text-anchor="middle" x="365.5" y="-175.5" font-family="Helvetica,sans-Serif" font-size="10.00" fill="#000000">pkgAcqFile</text>
</a>
</g>
</g>
<!-- Node0&#45;&gt;Node5 -->
<g id="edge5" class="edge">
<title>Node0&#45;&gt;Node5</title>
<path fill="none" stroke="#191970" d="M287.7625,-219.46C306.5522,-209.4388 331.0013,-196.3993 347.42,-187.6427"/>
<polygon fill="#191970" stroke="#191970" points="285.9661,-216.4514 278.7896,-224.2455 289.2602,-222.6278 285.9661,-216.4514"/>
</g>
<!-- Node7 -->
<g id="node8" class="node">
<title>Node7</title>
<g id="a_node8"><a xlink:href="classpkgAcqTransactionItem.xhtml" target="_top" xlink:title="baseclass for the indexes files to manage them all together ">
<polygon fill="#ffffff" stroke="#000000" points="465,-168.5 465,-187.5 596,-187.5 596,-168.5 465,-168.5"/>
<text text-anchor="middle" x="530.5" y="-175.5" font-family="Helvetica,sans-Serif" font-size="10.00" fill="#000000">pkgAcqTransactionItem</text>
</a>
</g>
</g>
<!-- Node0&#45;&gt;Node7 -->
<g id="edge7" class="edge">
<title>Node0&#45;&gt;Node7</title>
<path fill="none" stroke="#191970" d="M316.5636,-222.372C366.328,-212.0505 438.1519,-197.1537 484.5823,-187.5237"/>
<polygon fill="#191970" stroke="#191970" points="315.6887,-218.9789 306.6079,-224.4369 317.1103,-225.833 315.6887,-218.9789"/>
</g>
<!-- Node1 -->
<g id="node2" class="node">
<title>Node1</title>
<g id="a_node2"><a xlink:href="classWeakPointable.xhtml" target="_top" xlink:title="WeakPointable">
<polygon fill="#ffffff" stroke="#000000" points="216,-280.5 216,-299.5 305,-299.5 305,-280.5 216,-280.5"/>
<text text-anchor="middle" x="260.5" y="-287.5" font-family="Helvetica,sans-Serif" font-size="10.00" fill="#000000">WeakPointable</text>
</a>
</g>
</g>
<!-- Node1&#45;&gt;Node0 -->
<g id="edge1" class="edge">
<title>Node1&#45;&gt;Node0</title>
<path fill="none" stroke="#191970" d="M260.5,-270.1575C260.5,-261.155 260.5,-250.9199 260.5,-243.6427"/>
<polygon fill="#191970" stroke="#191970" points="257.0001,-270.2455 260.5,-280.2455 264.0001,-270.2456 257.0001,-270.2455"/>
</g>
<!-- Node6 -->
<g id="node7" class="node">
<title>Node6</title>
<g id="a_node7"><a xlink:href="classpkgAcqAuxFile.xhtml" target="_top" xlink:title="pkgAcqAuxFile">
<polygon fill="#ffffff" stroke="#000000" points="275.5,-112.5 275.5,-131.5 363.5,-131.5 363.5,-112.5 275.5,-112.5"/>
<text text-anchor="middle" x="319.5" y="-119.5" font-family="Helvetica,sans-Serif" font-size="10.00" fill="#000000">pkgAcqAuxFile</text>
</a>
</g>
</g>
<!-- Node5&#45;&gt;Node6 -->
<g id="edge6" class="edge">
<title>Node5&#45;&gt;Node6</title>
<path fill="none" stroke="#191970" d="M351.1253,-160.5004C343.3029,-150.9775 333.924,-139.5596 327.4208,-131.6427"/>
<polygon fill="#191970" stroke="#191970" points="348.4354,-162.7399 357.4874,-168.2455 353.8445,-158.2967 348.4354,-162.7399"/>
</g>
<!-- Node8 -->
<g id="node9" class="node">
<title>Node8</title>
<g id="a_node9"><a xlink:href="classCleanupItem.xhtml" target="_top" xlink:title="CleanupItem">
<polygon fill="#ffffff" stroke="#000000" points="381,-112.5 381,-131.5 460,-131.5 460,-112.5 381,-112.5"/>
<text text-anchor="middle" x="420.5" y="-119.5" font-family="Helvetica,sans-Serif" font-size="10.00" fill="#000000">CleanupItem</text>
</a>
</g>
</g>
<!-- Node7&#45;&gt;Node8 -->
<g id="edge8" class="edge">
<title>Node7&#45;&gt;Node8</title>
<path fill="none" stroke="#191970" d="M502.2086,-163.5971C482.4889,-153.558 456.72,-140.4393 439.441,-131.6427"/>
<polygon fill="#191970" stroke="#191970" points="500.8399,-166.8277 511.3395,-168.2455 504.0157,-160.5896 500.8399,-166.8277"/>
</g>
<!-- Node9 -->
<g id="node10" class="node">
<title>Node9</title>
<g id="a_node10"><a xlink:href="classpkgAcqBaseIndex.xhtml" target="_top" xlink:title="Common base class for all classes that deal with fetching indexes {{{. ">
<polygon fill="#ffffff" stroke="#000000" points="478.5,-112.5 478.5,-131.5 582.5,-131.5 582.5,-112.5 478.5,-112.5"/>
<text text-anchor="middle" x="530.5" y="-119.5" font-family="Helvetica,sans-Serif" font-size="10.00" fill="#000000">pkgAcqBaseIndex</text>
</a>
</g>
</g>
<!-- Node7&#45;&gt;Node9 -->
<g id="edge9" class="edge">
<title>Node7&#45;&gt;Node9</title>
<path fill="none" stroke="#191970" d="M530.5,-158.1575C530.5,-149.155 530.5,-138.9199 530.5,-131.6427"/>
<polygon fill="#191970" stroke="#191970" points="527.0001,-158.2455 530.5,-168.2455 534.0001,-158.2456 527.0001,-158.2455"/>
</g>
<!-- Node14 -->
<g id="node15" class="node">
<title>Node14</title>
<g id="a_node15"><a xlink:href="classpkgAcqMetaBase.xhtml" target="_top" xlink:title="the manager of a transaction ">
<polygon fill="#ffffff" stroke="#000000" points="601,-112.5 601,-131.5 702,-131.5 702,-112.5 601,-112.5"/>
<text text-anchor="middle" x="651.5" y="-119.5" font-family="Helvetica,sans-Serif" font-size="10.00" fill="#000000">pkgAcqMetaBase</text>
</a>
</g>
</g>
<!-- Node7&#45;&gt;Node14 -->
<g id="edge14" class="edge">
<title>Node7&#45;&gt;Node14</title>
<path fill="none" stroke="#191970" d="M560.5104,-164.1109C582.4525,-153.9559 611.6388,-140.4482 630.9708,-131.5011"/>
<polygon fill="#191970" stroke="#191970" points="558.9058,-160.9968 551.3006,-168.3733 561.8459,-167.3494 558.9058,-160.9968"/>
</g>
<!-- Node17 -->
<g id="node18" class="node">
<title>Node17</title>
<g id="a_node18"><a xlink:href="classpkgAcqMetaSig.xhtml" target="_top" xlink:title="An acquire item that downloads the detached signature {{{ of a meta&#45;index (Release) file...">
<polygon fill="#ffffff" stroke="#000000" points="720.5,-112.5 720.5,-131.5 812.5,-131.5 812.5,-112.5 720.5,-112.5"/>
<text text-anchor="middle" x="766.5" y="-119.5" font-family="Helvetica,sans-Serif" font-size="10.00" fill="#000000">pkgAcqMetaSig</text>
</a>
</g>
</g>
<!-- Node7&#45;&gt;Node17 -->
<g id="edge17" class="edge">
<title>Node7&#45;&gt;Node17</title>
<path fill="none" stroke="#191970" d="M580.5974,-166.1125C624.0484,-155.8021 686.1198,-141.0733 726.3645,-131.5237"/>
<polygon fill="#191970" stroke="#191970" points="579.7234,-162.7226 570.8017,-168.4369 581.3396,-169.5335 579.7234,-162.7226"/>
</g>
<!-- Node10 -->
<g id="node11" class="node">
<title>Node10</title>
<g id="a_node11"><a xlink:href="classpkgAcqIndex.xhtml" target="_top" xlink:title="An acquire item that is responsible for fetching an index {{{ file (e.g., Packages or Sources)...">
<polygon fill="#ffffff" stroke="#000000" points="314.5,-56.5 314.5,-75.5 394.5,-75.5 394.5,-56.5 314.5,-56.5"/>
<text text-anchor="middle" x="354.5" y="-63.5" font-family="Helvetica,sans-Serif" font-size="10.00" fill="#000000">pkgAcqIndex</text>
</a>
</g>
</g>
<!-- Node9&#45;&gt;Node10 -->
<g id="edge10" class="edge">
<title>Node9&#45;&gt;Node10</title>
<path fill="none" stroke="#191970" d="M490.6596,-109.3235C458.3827,-99.0536 413.6148,-84.8093 384.3607,-75.5011"/>
<polygon fill="#191970" stroke="#191970" points="489.654,-112.6764 500.2445,-112.3733 491.7765,-106.0059 489.654,-112.6764"/>
</g>
<!-- Node12 -->
<g id="node13" class="node">
<title>Node12</title>
<g id="a_node13"><a xlink:href="classpkgAcqIndexDiffs.xhtml" target="_top" xlink:title="An item that is responsible for fetching server&#45;merge patches {{{ that need to be applied to a given ...">
<polygon fill="#ffffff" stroke="#000000" points="412.5,-56.5 412.5,-75.5 514.5,-75.5 514.5,-56.5 412.5,-56.5"/>
<text text-anchor="middle" x="463.5" y="-63.5" font-family="Helvetica,sans-Serif" font-size="10.00" fill="#000000">pkgAcqIndexDiffs</text>
</a>
</g>
</g>
<!-- Node9&#45;&gt;Node12 -->
<g id="edge12" class="edge">
<title>Node9&#45;&gt;Node12</title>
<path fill="none" stroke="#191970" d="M510.9324,-105.645C499.2802,-95.9058 484.8916,-83.8795 475.0368,-75.6427"/>
<polygon fill="#191970" stroke="#191970" points="508.9121,-108.5179 518.8295,-112.2455 513.4012,-103.1469 508.9121,-108.5179"/>
</g>
<!-- Node13 -->
<g id="node14" class="node">
<title>Node13</title>
<g id="a_node14"><a xlink:href="classpkgAcqIndexMergeDiffs.xhtml" target="_top" xlink:title="An item that is responsible for fetching client&#45;merge patches {{{ that need to be applied to a given ...">
<polygon fill="#ffffff" stroke="#000000" points="532.5,-56.5 532.5,-75.5 664.5,-75.5 664.5,-56.5 532.5,-56.5"/>
<text text-anchor="middle" x="598.5" y="-63.5" font-family="Helvetica,sans-Serif" font-size="10.00" fill="#000000">pkgAcqIndexMergeDiffs</text>
</a>
</g>
</g>
<!-- Node9&#45;&gt;Node13 -->
<g id="edge13" class="edge">
<title>Node9&#45;&gt;Node13</title>
<path fill="none" stroke="#191970" d="M550.3596,-105.645C562.1858,-95.9058 576.7892,-83.8795 586.791,-75.6427"/>
<polygon fill="#191970" stroke="#191970" points="547.839,-103.1867 542.3447,-112.2455 552.289,-108.5902 547.839,-103.1867"/>
</g>
<!-- Node11 -->
<g id="node12" class="node">
<title>Node11</title>
<g id="a_node12"><a xlink:href="classpkgAcqDiffIndex.xhtml" target="_top" xlink:title="An item that is responsible for fetching an index file of {{{ package list diffs and starting the pac...">
<polygon fill="#ffffff" stroke="#000000" points="306,-.5 306,-19.5 403,-19.5 403,-.5 306,-.5"/>
<text text-anchor="middle" x="354.5" y="-7.5" font-family="Helvetica,sans-Serif" font-size="10.00" fill="#000000">pkgAcqDiffIndex</text>
</a>
</g>
</g>
<!-- Node10&#45;&gt;Node11 -->
<g id="edge11" class="edge">
<title>Node10&#45;&gt;Node11</title>
<path fill="none" stroke="#191970" d="M354.5,-46.1575C354.5,-37.155 354.5,-26.9199 354.5,-19.6427"/>
<polygon fill="#191970" stroke="#191970" points="351.0001,-46.2455 354.5,-56.2455 358.0001,-46.2456 351.0001,-46.2455"/>
</g>
<!-- Node15 -->
<g id="node16" class="node">
<title>Node15</title>
<g id="a_node16"><a xlink:href="classpkgAcqMetaIndex.xhtml" target="_top" xlink:title="An item that is responsible for downloading the meta&#45;index {{{ file (i.e., Release) itself and verify...">
<polygon fill="#ffffff" stroke="#000000" points="682.5,-56.5 682.5,-75.5 786.5,-75.5 786.5,-56.5 682.5,-56.5"/>
<text text-anchor="middle" x="734.5" y="-63.5" font-family="Helvetica,sans-Serif" font-size="10.00" fill="#000000">pkgAcqMetaIndex</text>
</a>
</g>
</g>
<!-- Node14&#45;&gt;Node15 -->
<g id="edge15" class="edge">
<title>Node14&#45;&gt;Node15</title>
<path fill="none" stroke="#191970" d="M674.488,-106.49C689.1322,-96.6096 707.6444,-84.1194 720.2082,-75.6427"/>
<polygon fill="#191970" stroke="#191970" points="672.2896,-103.7511 665.9575,-112.2455 676.2047,-109.5539 672.2896,-103.7511"/>
</g>
<!-- Node16 -->
<g id="node17" class="node">
<title>Node16</title>
<g id="a_node17"><a xlink:href="classpkgAcqMetaClearSig.xhtml" target="_top" xlink:title="An item responsible for downloading clearsigned metaindexes {{{. ">
<polygon fill="#ffffff" stroke="#000000" points="676,-.5 676,-19.5 793,-19.5 793,-.5 676,-.5"/>
<text text-anchor="middle" x="734.5" y="-7.5" font-family="Helvetica,sans-Serif" font-size="10.00" fill="#000000">pkgAcqMetaClearSig</text>
</a>
</g>
</g>
<!-- Node15&#45;&gt;Node16 -->
<g id="edge16" class="edge">
<title>Node15&#45;&gt;Node16</title>
<path fill="none" stroke="#191970" d="M734.5,-46.1575C734.5,-37.155 734.5,-26.9199 734.5,-19.6427"/>
<polygon fill="#191970" stroke="#191970" points="731.0001,-46.2455 734.5,-56.2455 738.0001,-46.2456 731.0001,-46.2455"/>
</g>
</g>
</svg>
        <g id="navigator" transform="translate(0 0)" fill="#404254">
                <rect fill="#f2f5e9" fill-opacity="0.5" stroke="#606060" stroke-width=".5" x="0" y="0" width="60" height="60"/>
                <use id="zoomplus" xlink:href="#zoomPlus" x="17" y="9" onmousedown="handleZoom(evt,'in')"/>
                <use id="zoomminus" xlink:href="#zoomMin" x="42" y="9" onmousedown="handleZoom(evt,'out')"/>
                <use id="reset" xlink:href="#resetDef" x="30" y="36" onmousedown="handleReset()"/>
                <g id="arrowUp" xlink:href="#dirArrow" transform="translate(30 24)" onmousedown="handlePan(0,-1)">
                  <use xlink:href="#rim" fill="#404040">
                        <set attributeName="fill" to="#808080" begin="arrowUp.mouseover" end="arrowUp.mouseout"/>
                  </use>
                  <path fill="none" stroke="white" stroke-width="1.5" d="M0,-3.0v7 M-2.5,-0.5L0,-3.0L2.5,-0.5"/>
                </g>
                <g id="arrowRight" xlink:href="#dirArrow" transform="rotate(90) translate(36 -43)" onmousedown="handlePan(1,0)">
                  <use xlink:href="#rim" fill="#404040">
                        <set attributeName="fill" to="#808080" begin="arrowRight.mouseover" end="arrowRight.mouseout"/>
                  </use>
                  <path fill="none" stroke="white" stroke-width="1.5" d="M0,-3.0v7 M-2.5,-0.5L0,-3.0L2.5,-0.5"/>
                </g>
                <g id="arrowDown" xlink:href="#dirArrow" transform="rotate(180) translate(-30 -48)" onmousedown="handlePan(0,1)">
                  <use xlink:href="#rim" fill="#404040">
                        <set attributeName="fill" to="#808080" begin="arrowDown.mouseover" end="arrowDown.mouseout"/>
                  </use>
                  <path fill="none" stroke="white" stroke-width="1.5" d="M0,-3.0v7 M-2.5,-0.5L0,-3.0L2.5,-0.5"/>
                </g>
                <g id="arrowLeft" xlink:href="#dirArrow" transform="rotate(270) translate(-36 17)" onmousedown="handlePan(-1,0)">
                  <use xlink:href="#rim" fill="#404040">
                        <set attributeName="fill" to="#808080" begin="arrowLeft.mouseover" end="arrowLeft.mouseout"/>
                  </use>
                  <path fill="none" stroke="white" stroke-width="1.5" d="M0,-3.0v7 M-2.5,-0.5L0,-3.0L2.5,-0.5"/>
                </g>
        </g>
        <svg viewBox="0 0 15 15" width="100%" height="30px" preserveAspectRatio="xMaxYMin meet">
         <g id="arrow_out" transform="scale(0.3 0.3)">
          <a xlink:href="classpkgAcquire_1_1Item__inherit__graph_org.svg" target="_base">
           <rect id="button" ry="5" rx="5" y="6" x="6" height="38" width="38"
                fill="#f2f5e9" fill-opacity="0.5" stroke="#606060" stroke-width="1.0"/>
           <path id="arrow"
             d="M 11.500037,31.436501 C 11.940474,20.09759 22.043105,11.32322 32.158766,21.979434 L 37.068811,17.246167 C 37.068811,17.246167 37.088388,32 37.088388,32 L 22.160133,31.978069 C 22.160133,31.978069 26.997745,27.140456 26.997745,27.140456 C 18.528582,18.264221 13.291696,25.230495 11.500037,31.436501 z"
             style="fill:#404040;"/>
          </a>
         </g>
        </svg>
</svg>
