<?xml version="1.0" encoding="UTF-8" standalone="no"?>
<!DOCTYPE svg PUBLIC "-//W3C//DTD SVG 1.1//EN"
 "http://www.w3.org/Graphics/SVG/1.1/DTD/svg11.dtd">
<!-- Generated by graphviz version 2.40.1 (20161225.0304)
 -->
<!-- Title: URI Pages: 1 -->
<svg width="127pt" height="196pt"
 viewBox="0.00 0.00 127.00 196.00" xmlns="http://www.w3.org/2000/svg" xmlns:xlink="http://www.w3.org/1999/xlink">
<g id="graph0" class="graph" transform="scale(1 1) rotate(0) translate(4 192)">
<title>URI</title>
<polygon fill="#ffffff" stroke="transparent" points="-4,4 -4,-192 123,-192 123,4 -4,4"/>
<!-- Node1 -->
<g id="node1" class="node">
<title>Node1</title>
<polygon fill="#bfbfbf" stroke="#000000" points="42.5,-.5 42.5,-19.5 76.5,-19.5 76.5,-.5 42.5,-.5"/>
<text text-anchor="middle" x="59.5" y="-7.5" font-family="Helvetica,sans-Serif" font-size="10.00" fill="#000000">URI</text>
</g>
<!-- Node2 -->
<g id="node2" class="node">
<title>Node2</title>
<g id="a_node2"><a xlink:title="STL class. ">
<polygon fill="#ffffff" stroke="#bfbfbf" points="37.5,-111.5 37.5,-130.5 81.5,-130.5 81.5,-111.5 37.5,-111.5"/>
<text text-anchor="middle" x="59.5" y="-118.5" font-family="Helvetica,sans-Serif" font-size="10.00" fill="#000000">string</text>
</a>
</g>
</g>
<!-- Node2&#45;&gt;Node1 -->
<g id="edge1" class="edge">
<title>Node2&#45;&gt;Node1</title>
<path fill="none" stroke="#9a32cd" stroke-dasharray="5,2" d="M59.5,-101.0467C59.5,-77.0543 59.5,-37.7599 59.5,-19.6699"/>
<polygon fill="#9a32cd" stroke="#9a32cd" points="56.0001,-101.1495 59.5,-111.1495 63.0001,-101.1495 56.0001,-101.1495"/>
<text text-anchor="middle" x="82.5" y="-85" font-family="Helvetica,sans-Serif" font-size="10.00" fill="#000000"> Access</text>
<text text-anchor="middle" x="82.5" y="-74" font-family="Helvetica,sans-Serif" font-size="10.00" fill="#000000">Password</text>
<text text-anchor="middle" x="82.5" y="-63" font-family="Helvetica,sans-Serif" font-size="10.00" fill="#000000">Path</text>
<text text-anchor="middle" x="82.5" y="-52" font-family="Helvetica,sans-Serif" font-size="10.00" fill="#000000">Host</text>
<text text-anchor="middle" x="82.5" y="-41" font-family="Helvetica,sans-Serif" font-size="10.00" fill="#000000">User</text>
</g>
<!-- Node3 -->
<g id="node3" class="node">
<title>Node3</title>
<g id="a_node3"><a xlink:title="STL class. ">
<polygon fill="#ffffff" stroke="#bfbfbf" points="0,-168.5 0,-187.5 119,-187.5 119,-168.5 0,-168.5"/>
<text text-anchor="middle" x="59.5" y="-175.5" font-family="Helvetica,sans-Serif" font-size="10.00" fill="#000000">basic_string&lt; char &gt;</text>
</a>
</g>
</g>
<!-- Node3&#45;&gt;Node2 -->
<g id="edge2" class="edge">
<title>Node3&#45;&gt;Node2</title>
<path fill="none" stroke="#191970" d="M59.5,-158.2342C59.5,-148.8491 59.5,-138.0651 59.5,-130.5265"/>
<polygon fill="#191970" stroke="#191970" points="56.0001,-158.3307 59.5,-168.3307 63.0001,-158.3308 56.0001,-158.3307"/>
</g>
</g>
</svg>
