<?xml version="1.0" encoding="UTF-8" standalone="no"?>
<!DOCTYPE svg PUBLIC "-//W3C//DTD SVG 1.1//EN"
 "http://www.w3.org/Graphics/SVG/1.1/DTD/svg11.dtd">
<!-- Generated by graphviz version 2.40.1 (20161225.0304)
 -->
<!-- Title: debReleaseIndex Pages: 1 -->
<svg width="440pt" height="398pt"
 viewBox="0.00 0.00 440.00 398.00" xmlns="http://www.w3.org/2000/svg" xmlns:xlink="http://www.w3.org/1999/xlink">
<g id="graph0" class="graph" transform="scale(1 1) rotate(0) translate(4 394)">
<title>debReleaseIndex</title>
<polygon fill="#ffffff" stroke="transparent" points="-4,4 -4,-394 436,-394 436,4 -4,4"/>
<!-- Node2 -->
<g id="node1" class="node">
<title>Node2</title>
<polygon fill="#bfbfbf" stroke="#000000" points="216.5,-.5 216.5,-19.5 316.5,-19.5 316.5,-.5 216.5,-.5"/>
<text text-anchor="middle" x="266.5" y="-7.5" font-family="Helvetica,sans-Serif" font-size="10.00" fill="#000000">debReleaseIndex</text>
</g>
<!-- Node3 -->
<g id="node2" class="node">
<title>Node3</title>
<g id="a_node2"><a xlink:href="classmetaIndex.xhtml" target="_top" xlink:title="metaIndex">
<polygon fill="#ffffff" stroke="#000000" points="232,-57.5 232,-76.5 301,-76.5 301,-57.5 232,-57.5"/>
<text text-anchor="middle" x="266.5" y="-64.5" font-family="Helvetica,sans-Serif" font-size="10.00" fill="#000000">metaIndex</text>
</a>
</g>
</g>
<!-- Node3&#45;&gt;Node2 -->
<g id="edge1" class="edge">
<title>Node3&#45;&gt;Node2</title>
<path fill="none" stroke="#191970" d="M266.5,-47.2342C266.5,-37.8491 266.5,-27.0651 266.5,-19.5265"/>
<polygon fill="#191970" stroke="#191970" points="263.0001,-47.3307 266.5,-57.3307 270.0001,-47.3308 263.0001,-47.3307"/>
</g>
<!-- Node4 -->
<g id="node3" class="node">
<title>Node4</title>
<polygon fill="#ffffff" stroke="#bfbfbf" points="81,-124.5 81,-154.5 238,-154.5 238,-124.5 81,-124.5"/>
<text text-anchor="start" x="89" y="-142.5" font-family="Helvetica,sans-Serif" font-size="10.00" fill="#000000">map&lt; std::string, metaIndex</text>
<text text-anchor="middle" x="159.5" y="-131.5" font-family="Helvetica,sans-Serif" font-size="10.00" fill="#000000">::checkSum *&gt;</text>
</g>
<!-- Node4&#45;&gt;Node3 -->
<g id="edge2" class="edge">
<title>Node4&#45;&gt;Node3</title>
<path fill="none" stroke="#9a32cd" stroke-dasharray="5,2" d="M184.8681,-117.8491C194.2339,-110.2606 205.1026,-101.9132 215.5,-95 225.5935,-88.2888 237.4304,-81.717 247.1584,-76.6286"/>
<polygon fill="#9a32cd" stroke="#9a32cd" points="182.5687,-115.2086 177.0741,-124.2673 187.0185,-120.6123 182.5687,-115.2086"/>
<text text-anchor="middle" x="234" y="-98" font-family="Helvetica,sans-Serif" font-size="10.00" fill="#000000"> Entries</text>
</g>
<!-- Node5 -->
<g id="node4" class="node">
<title>Node5</title>
<g id="a_node4"><a xlink:title="STL class. ">
<polygon fill="#ffffff" stroke="#bfbfbf" points="189.5,-313.5 189.5,-332.5 233.5,-332.5 233.5,-313.5 189.5,-313.5"/>
<text text-anchor="middle" x="211.5" y="-320.5" font-family="Helvetica,sans-Serif" font-size="10.00" fill="#000000">string</text>
</a>
</g>
</g>
<!-- Node5&#45;&gt;Node3 -->
<g id="edge10" class="edge">
<title>Node5&#45;&gt;Node3</title>
<path fill="none" stroke="#9a32cd" stroke-dasharray="5,2" d="M225.8857,-305.178C233.6939,-294.4734 242.7068,-280.2094 247.5,-266 270.9064,-196.6124 268.6362,-106.4179 267.1149,-76.853"/>
<polygon fill="#9a32cd" stroke="#9a32cd" points="223.0087,-303.1789 219.7293,-313.2534 228.5755,-307.4228 223.0087,-303.1789"/>
<text text-anchor="middle" x="293.5" y="-220" font-family="Helvetica,sans-Serif" font-size="10.00" fill="#000000"> Codename</text>
<text text-anchor="middle" x="293.5" y="-209" font-family="Helvetica,sans-Serif" font-size="10.00" fill="#000000">Dist</text>
<text text-anchor="middle" x="293.5" y="-198" font-family="Helvetica,sans-Serif" font-size="10.00" fill="#000000">Suite</text>
<text text-anchor="middle" x="293.5" y="-187" font-family="Helvetica,sans-Serif" font-size="10.00" fill="#000000">URI</text>
<text text-anchor="middle" x="293.5" y="-176" font-family="Helvetica,sans-Serif" font-size="10.00" fill="#000000">SignedBy</text>
</g>
<!-- Node5&#45;&gt;Node4 -->
<g id="edge3" class="edge">
<title>Node5&#45;&gt;Node4</title>
<path fill="none" stroke="#9a32cd" stroke-dasharray="5,2" d="M214.0888,-303.1703C217.0605,-273.2007 219.0597,-215.3742 197.5,-173 193.9106,-165.9453 188.1484,-159.7105 182.1847,-154.591"/>
<polygon fill="#9a32cd" stroke="#9a32cd" points="210.6004,-302.871 212.9494,-313.2021 217.5557,-303.661 210.6004,-302.871"/>
<text text-anchor="middle" x="230" y="-253.5" font-family="Helvetica,sans-Serif" font-size="10.00" fill="#000000"> keys</text>
</g>
<!-- Node7 -->
<g id="node6" class="node">
<title>Node7</title>
<g id="a_node6"><a xlink:href="structmetaIndex_1_1checkSum.xhtml" target="_top" xlink:title="checkSum">
<polygon fill="#ffffff" stroke="#000000" points="73,-246.5 73,-265.5 140,-265.5 140,-246.5 73,-246.5"/>
<text text-anchor="middle" x="106.5" y="-253.5" font-family="Helvetica,sans-Serif" font-size="10.00" fill="#000000">checkSum</text>
</a>
</g>
</g>
<!-- Node5&#45;&gt;Node7 -->
<g id="edge7" class="edge">
<title>Node5&#45;&gt;Node7</title>
<path fill="none" stroke="#9a32cd" stroke-dasharray="5,2" d="M179.519,-318.6206C152.365,-314.1783 116.4205,-306.3359 107.5,-295 101.0497,-286.8031 101.998,-274.3549 103.7777,-265.7365"/>
<polygon fill="#9a32cd" stroke="#9a32cd" points="179.0026,-322.0823 189.421,-320.1569 180.0759,-315.1651 179.0026,-322.0823"/>
<text text-anchor="middle" x="152.5" y="-287" font-family="Helvetica,sans-Serif" font-size="10.00" fill="#000000"> MetaKeyFilename</text>
</g>
<!-- Node6 -->
<g id="node5" class="node">
<title>Node6</title>
<g id="a_node5"><a xlink:title="STL class. ">
<polygon fill="#ffffff" stroke="#bfbfbf" points="152,-370.5 152,-389.5 271,-389.5 271,-370.5 152,-370.5"/>
<text text-anchor="middle" x="211.5" y="-377.5" font-family="Helvetica,sans-Serif" font-size="10.00" fill="#000000">basic_string&lt; char &gt;</text>
</a>
</g>
</g>
<!-- Node6&#45;&gt;Node5 -->
<g id="edge4" class="edge">
<title>Node6&#45;&gt;Node5</title>
<path fill="none" stroke="#191970" d="M211.5,-360.2342C211.5,-350.8491 211.5,-340.0651 211.5,-332.5265"/>
<polygon fill="#191970" stroke="#191970" points="208.0001,-360.3307 211.5,-370.3307 215.0001,-360.3308 208.0001,-360.3307"/>
</g>
<!-- Node7&#45;&gt;Node4 -->
<g id="edge5" class="edge">
<title>Node7&#45;&gt;Node4</title>
<path fill="none" stroke="#9a32cd" stroke-dasharray="5,2" d="M115.1004,-237.0953C125.5665,-214.0897 143.0273,-175.7089 152.6374,-154.5848"/>
<polygon fill="#9a32cd" stroke="#9a32cd" points="111.7924,-235.9146 110.8372,-246.4663 118.1641,-238.8133 111.7924,-235.9146"/>
<text text-anchor="middle" x="169" y="-198" font-family="Helvetica,sans-Serif" font-size="10.00" fill="#000000"> elements</text>
</g>
<!-- Node8 -->
<g id="node7" class="node">
<title>Node8</title>
<g id="a_node7"><a xlink:href="classHashStringList.xhtml" target="_top" xlink:title="HashStringList">
<polygon fill="#ffffff" stroke="#000000" points="0,-313.5 0,-332.5 87,-332.5 87,-313.5 0,-313.5"/>
<text text-anchor="middle" x="43.5" y="-320.5" font-family="Helvetica,sans-Serif" font-size="10.00" fill="#000000">HashStringList</text>
</a>
</g>
</g>
<!-- Node8&#45;&gt;Node7 -->
<g id="edge6" class="edge">
<title>Node8&#45;&gt;Node7</title>
<path fill="none" stroke="#9a32cd" stroke-dasharray="5,2" d="M39.9802,-303.2207C39.8081,-296.635 40.8039,-289.5668 44.5,-284 51.0329,-274.1606 61.9224,-267.7358 72.7681,-263.5593"/>
<polygon fill="#9a32cd" stroke="#9a32cd" points="36.5375,-303.937 41.102,-313.4982 43.4962,-303.1774 36.5375,-303.937"/>
<text text-anchor="middle" x="64.5" y="-287" font-family="Helvetica,sans-Serif" font-size="10.00" fill="#000000"> Hashes</text>
</g>
<!-- Node9 -->
<g id="node8" class="node">
<title>Node9</title>
<polygon fill="#ffffff" stroke="#bfbfbf" points="295,-130 295,-149 432,-149 432,-130 295,-130"/>
<text text-anchor="middle" x="363.5" y="-137" font-family="Helvetica,sans-Serif" font-size="10.00" fill="#000000">vector&lt; pkgIndexFile *&gt;</text>
</g>
<!-- Node9&#45;&gt;Node3 -->
<g id="edge8" class="edge">
<title>Node9&#45;&gt;Node3</title>
<path fill="none" stroke="#9a32cd" stroke-dasharray="5,2" d="M342.2625,-123.6266C323.0624,-109.276 295.4194,-88.615 279.3746,-76.6228"/>
<polygon fill="#9a32cd" stroke="#9a32cd" points="340.3128,-126.539 350.4181,-129.7223 344.5036,-120.932 340.3128,-126.539"/>
<text text-anchor="middle" x="339.5" y="-98" font-family="Helvetica,sans-Serif" font-size="10.00" fill="#000000"> Indexes</text>
</g>
<!-- Node10 -->
<g id="node9" class="node">
<title>Node10</title>
<g id="a_node9"><a xlink:href="classpkgIndexFile.xhtml" target="_top" xlink:title="pkgIndexFile">
<polygon fill="#ffffff" stroke="#000000" points="324.5,-246.5 324.5,-265.5 402.5,-265.5 402.5,-246.5 324.5,-246.5"/>
<text text-anchor="middle" x="363.5" y="-253.5" font-family="Helvetica,sans-Serif" font-size="10.00" fill="#000000">pkgIndexFile</text>
</a>
</g>
</g>
<!-- Node10&#45;&gt;Node9 -->
<g id="edge9" class="edge">
<title>Node10&#45;&gt;Node9</title>
<path fill="none" stroke="#9a32cd" stroke-dasharray="5,2" d="M363.5,-236.2359C363.5,-210.9699 363.5,-168.2196 363.5,-149.1654"/>
<polygon fill="#9a32cd" stroke="#9a32cd" points="360.0001,-236.4663 363.5,-246.4663 367.0001,-236.4664 360.0001,-236.4663"/>
<text text-anchor="middle" x="388" y="-198" font-family="Helvetica,sans-Serif" font-size="10.00" fill="#000000"> elements</text>
</g>
</g>
</svg>
