<?xml version="1.0" encoding="UTF-8" standalone="no"?>
<!DOCTYPE svg PUBLIC "-//W3C//DTD SVG 1.1//EN"
 "http://www.w3.org/Graphics/SVG/1.1/DTD/svg11.dtd">
<!-- Generated by graphviz version 2.40.1 (20161225.0304)
 -->
<!-- Title: pkgOrderList Pages: 1 -->
<svg width="1098pt" height="619pt"
 viewBox="0.00 0.00 1098.00 619.00" xmlns="http://www.w3.org/2000/svg" xmlns:xlink="http://www.w3.org/1999/xlink">
<g id="graph0" class="graph" transform="scale(1 1) rotate(0) translate(4 615)">
<title>pkgOrderList</title>
<polygon fill="#ffffff" stroke="transparent" points="-4,4 -4,-615 1094,-615 1094,4 -4,4"/>
<!-- Node2 -->
<g id="node1" class="node">
<title>Node2</title>
<polygon fill="#bfbfbf" stroke="#000000" points="1011,-280.5 1011,-299.5 1090,-299.5 1090,-280.5 1011,-280.5"/>
<text text-anchor="middle" x="1050.5" y="-287.5" font-family="Helvetica,sans-Serif" font-size="10.00" fill="#000000">pkgOrderList</text>
</g>
<!-- Node3 -->
<g id="node2" class="node">
<title>Node3</title>
<g id="a_node2"><a xlink:href="classpkgCache_1_1Namespace.xhtml" target="_top" xlink:title="Namespace">
<polygon fill="#ffffff" stroke="#000000" points="677,-344.5 677,-363.5 751,-363.5 751,-344.5 677,-344.5"/>
<text text-anchor="middle" x="714" y="-351.5" font-family="Helvetica,sans-Serif" font-size="10.00" fill="#000000">Namespace</text>
</a>
</g>
</g>
<!-- Node3&#45;&gt;Node2 -->
<g id="edge1" class="edge">
<title>Node3&#45;&gt;Node2</title>
<path fill="none" stroke="#006400" d="M761.1659,-351.5721C784.6653,-349.9259 813.4476,-347.2508 839,-343 908.5416,-331.4313 924.669,-322.3424 993,-305 999.8998,-303.2488 1007.2574,-301.352 1014.3247,-299.5151"/>
<polygon fill="#006400" stroke="#006400" points="760.8554,-348.0848 751.1082,-352.237 761.3173,-355.0696 760.8554,-348.0848"/>
</g>
<!-- Node4 -->
<g id="node3" class="node">
<title>Node4</title>
<g id="a_node3"><a xlink:href="classpkgDepCache.xhtml" target="_top" xlink:title="pkgDepCache">
<polygon fill="#ffffff" stroke="#000000" points="857,-280.5 857,-299.5 941,-299.5 941,-280.5 857,-280.5"/>
<text text-anchor="middle" x="899" y="-287.5" font-family="Helvetica,sans-Serif" font-size="10.00" fill="#000000">pkgDepCache</text>
</a>
</g>
</g>
<!-- Node3&#45;&gt;Node4 -->
<g id="edge3" class="edge">
<title>Node3&#45;&gt;Node4</title>
<path fill="none" stroke="#006400" d="M761.0098,-342.9431C784.7196,-336.8387 813.7321,-328.5576 839,-319 853.6088,-313.4742 869.4954,-305.7118 881.2495,-299.6083"/>
<polygon fill="#006400" stroke="#006400" points="760.0365,-339.5789 751.1995,-345.4233 761.7523,-346.3654 760.0365,-339.5789"/>
</g>
<!-- Node4&#45;&gt;Node2 -->
<g id="edge2" class="edge">
<title>Node4&#45;&gt;Node2</title>
<path fill="none" stroke="#9a32cd" stroke-dasharray="5,2" d="M951.4542,-290C970.9435,-290 992.7119,-290 1010.8668,-290"/>
<polygon fill="#9a32cd" stroke="#9a32cd" points="951.2012,-286.5001 941.2012,-290 951.2012,-293.5001 951.2012,-286.5001"/>
<text text-anchor="middle" x="976" y="-293" font-family="Helvetica,sans-Serif" font-size="10.00" fill="#000000"> Cache</text>
</g>
<!-- Node5 -->
<g id="node4" class="node">
<title>Node5</title>
<g id="a_node4"><a xlink:href="classpkgDepCache_1_1Policy.xhtml" target="_top" xlink:title="Policy">
<polygon fill="#ffffff" stroke="#000000" points="691,-218.5 691,-237.5 737,-237.5 737,-218.5 691,-218.5"/>
<text text-anchor="middle" x="714" y="-225.5" font-family="Helvetica,sans-Serif" font-size="10.00" fill="#000000">Policy</text>
</a>
</g>
</g>
<!-- Node5&#45;&gt;Node4 -->
<g id="edge4" class="edge">
<title>Node5&#45;&gt;Node4</title>
<path fill="none" stroke="#9a32cd" stroke-dasharray="5,2" d="M747.0979,-227.5872C773.0117,-228.3467 809.4851,-231.8437 839,-244 859.3896,-252.3978 878.8577,-269.584 889.8327,-280.4073"/>
<polygon fill="#9a32cd" stroke="#9a32cd" points="747.0929,-224.0867 737.034,-227.4137 746.9722,-231.0857 747.0929,-224.0867"/>
<text text-anchor="middle" x="804" y="-258" font-family="Helvetica,sans-Serif" font-size="10.00" fill="#000000"> LocalPolicy</text>
<text text-anchor="middle" x="804" y="-247" font-family="Helvetica,sans-Serif" font-size="10.00" fill="#000000">delLocalPolicy</text>
</g>
<!-- Node6 -->
<g id="node5" class="node">
<title>Node6</title>
<g id="a_node5"><a xlink:href="classpkgCache.xhtml" target="_top" xlink:title="pkgCache">
<polygon fill="#ffffff" stroke="#000000" points="681.5,-304.5 681.5,-323.5 746.5,-323.5 746.5,-304.5 681.5,-304.5"/>
<text text-anchor="middle" x="714" y="-311.5" font-family="Helvetica,sans-Serif" font-size="10.00" fill="#000000">pkgCache</text>
</a>
</g>
</g>
<!-- Node6&#45;&gt;Node4 -->
<g id="edge5" class="edge">
<title>Node6&#45;&gt;Node4</title>
<path fill="none" stroke="#9a32cd" stroke-dasharray="5,2" d="M756.845,-308.4417C786.9406,-304.5374 827.0033,-299.3401 856.9266,-295.4582"/>
<polygon fill="#9a32cd" stroke="#9a32cd" points="756.115,-305.007 746.6484,-309.7645 757.0156,-311.9488 756.115,-305.007"/>
<text text-anchor="middle" x="804" y="-309" font-family="Helvetica,sans-Serif" font-size="10.00" fill="#000000"> Cache</text>
</g>
<!-- Node7 -->
<g id="node6" class="node">
<title>Node7</title>
<g id="a_node6"><a xlink:href="structpkgCache_1_1DependencyData.xhtml" target="_top" xlink:title="information for a single dependency record ">
<polygon fill="#ffffff" stroke="#000000" points="477.5,-551.5 477.5,-570.5 578.5,-570.5 578.5,-551.5 477.5,-551.5"/>
<text text-anchor="middle" x="528" y="-558.5" font-family="Helvetica,sans-Serif" font-size="10.00" fill="#000000">DependencyData</text>
</a>
</g>
</g>
<!-- Node7&#45;&gt;Node6 -->
<g id="edge6" class="edge">
<title>Node7&#45;&gt;Node6</title>
<path fill="none" stroke="#9a32cd" stroke-dasharray="5,2" d="M588.8995,-563.9351C614.1493,-561.7676 641.5598,-554.3976 659,-535 688.8353,-501.8162 652.8383,-372.5169 677,-335 680.0394,-330.2806 684.5352,-326.5125 689.3547,-323.5468"/>
<polygon fill="#9a32cd" stroke="#9a32cd" points="588.3898,-560.4593 578.6177,-564.5526 588.8095,-567.4467 588.3898,-560.4593"/>
<text text-anchor="middle" x="633" y="-563" font-family="Helvetica,sans-Serif" font-size="10.00" fill="#000000"> DepDataP</text>
</g>
<!-- Node8 -->
<g id="node7" class="node">
<title>Node8</title>
<g id="a_node7"><a xlink:href="structpkgCache_1_1Dependency.xhtml" target="_top" xlink:title="Dependency">
<polygon fill="#ffffff" stroke="#000000" points="489.5,-513.5 489.5,-532.5 566.5,-532.5 566.5,-513.5 489.5,-513.5"/>
<text text-anchor="middle" x="528" y="-520.5" font-family="Helvetica,sans-Serif" font-size="10.00" fill="#000000">Dependency</text>
</a>
</g>
</g>
<!-- Node8&#45;&gt;Node6 -->
<g id="edge7" class="edge">
<title>Node8&#45;&gt;Node6</title>
<path fill="none" stroke="#9a32cd" stroke-dasharray="5,2" d="M576.6471,-525.2298C604.802,-523.7349 638.5985,-516.6675 659,-494 706.5763,-441.1392 637.8089,-394.3451 677,-335 680.0934,-330.3158 684.6111,-326.562 689.4348,-323.5991"/>
<polygon fill="#9a32cd" stroke="#9a32cd" points="576.4497,-521.7341 566.5648,-525.547 576.6699,-528.7307 576.4497,-521.7341"/>
<text text-anchor="middle" x="633" y="-523" font-family="Helvetica,sans-Serif" font-size="10.00" fill="#000000"> DepP</text>
</g>
<!-- Node9 -->
<g id="node8" class="node">
<title>Node9</title>
<g id="a_node8"><a xlink:href="structpkgCache_1_1Description.xhtml" target="_top" xlink:title="datamember of a linked list of available description for a version ">
<polygon fill="#ffffff" stroke="#000000" points="492,-475.5 492,-494.5 564,-494.5 564,-475.5 492,-475.5"/>
<text text-anchor="middle" x="528" y="-482.5" font-family="Helvetica,sans-Serif" font-size="10.00" fill="#000000">Description</text>
</a>
</g>
</g>
<!-- Node9&#45;&gt;Node6 -->
<g id="edge8" class="edge">
<title>Node9&#45;&gt;Node6</title>
<path fill="none" stroke="#9a32cd" stroke-dasharray="5,2" d="M574.1975,-485.1298C602.7223,-482.6287 637.8006,-474.4328 659,-451 694.0018,-412.3108 647.3582,-377.9341 677,-335 680.1893,-330.3805 684.7459,-326.6531 689.5769,-323.6951"/>
<polygon fill="#9a32cd" stroke="#9a32cd" points="573.7665,-481.6507 564.0228,-485.8112 574.2343,-488.6351 573.7665,-481.6507"/>
<text text-anchor="middle" x="633" y="-482" font-family="Helvetica,sans-Serif" font-size="10.00" fill="#000000"> DescP</text>
</g>
<!-- Node10 -->
<g id="node9" class="node">
<title>Node10</title>
<g id="a_node9"><a xlink:href="structpkgCache_1_1Header.xhtml" target="_top" xlink:title="Header">
<polygon fill="#ffffff" stroke="#000000" points="502,-437.5 502,-456.5 554,-456.5 554,-437.5 502,-437.5"/>
<text text-anchor="middle" x="528" y="-444.5" font-family="Helvetica,sans-Serif" font-size="10.00" fill="#000000">Header</text>
</a>
</g>
</g>
<!-- Node10&#45;&gt;Node6 -->
<g id="edge9" class="edge">
<title>Node10&#45;&gt;Node6</title>
<path fill="none" stroke="#9a32cd" stroke-dasharray="5,2" d="M564.3676,-445.7051C593.8873,-442.6779 634.4985,-433.6964 659,-408 682.0598,-383.8155 656.826,-361.6393 677,-335 680.4781,-330.4072 685.2717,-326.6636 690.2561,-323.6781"/>
<polygon fill="#9a32cd" stroke="#9a32cd" points="563.7166,-442.2473 554.0441,-446.5709 564.3017,-449.2228 563.7166,-442.2473"/>
<text text-anchor="middle" x="633" y="-439" font-family="Helvetica,sans-Serif" font-size="10.00" fill="#000000"> HeaderP</text>
</g>
<!-- Node11 -->
<g id="node10" class="node">
<title>Node11</title>
<g id="a_node10"><a xlink:href="structDynamicMMap_1_1Pool.xhtml" target="_top" xlink:title="Pool">
<polygon fill="#ffffff" stroke="#000000" points="340,-437.5 340,-456.5 378,-456.5 378,-437.5 340,-437.5"/>
<text text-anchor="middle" x="359" y="-444.5" font-family="Helvetica,sans-Serif" font-size="10.00" fill="#000000">Pool</text>
</a>
</g>
</g>
<!-- Node11&#45;&gt;Node10 -->
<g id="edge10" class="edge">
<title>Node11&#45;&gt;Node10</title>
<path fill="none" stroke="#9a32cd" stroke-dasharray="5,2" d="M388.1285,-447C420.1301,-447 471.0611,-447 501.8334,-447"/>
<polygon fill="#9a32cd" stroke="#9a32cd" points="388.058,-443.5001 378.0579,-447 388.0579,-450.5001 388.058,-443.5001"/>
<text text-anchor="middle" x="424" y="-450" font-family="Helvetica,sans-Serif" font-size="10.00" fill="#000000"> Pools</text>
</g>
<!-- Node12 -->
<g id="node11" class="node">
<title>Node12</title>
<g id="a_node11"><a xlink:href="structpkgCache_1_1PackageFile.xhtml" target="_top" xlink:title="stores information about the files used to generate the cache ">
<polygon fill="#ffffff" stroke="#000000" points="491,-399.5 491,-418.5 565,-418.5 565,-399.5 491,-399.5"/>
<text text-anchor="middle" x="528" y="-406.5" font-family="Helvetica,sans-Serif" font-size="10.00" fill="#000000">PackageFile</text>
</a>
</g>
</g>
<!-- Node12&#45;&gt;Node6 -->
<g id="edge11" class="edge">
<title>Node12&#45;&gt;Node6</title>
<path fill="none" stroke="#9a32cd" stroke-dasharray="5,2" d="M575.1868,-403.1549C602.1638,-397.7815 635.2477,-387.5231 659,-368 671.9064,-357.3917 665.2868,-346.9127 677,-335 681.3499,-330.576 686.8289,-326.7942 692.2276,-323.7096"/>
<polygon fill="#9a32cd" stroke="#9a32cd" points="574.3865,-399.7431 565.1789,-404.9842 575.6453,-406.629 574.3865,-399.7431"/>
<text text-anchor="middle" x="633" y="-396" font-family="Helvetica,sans-Serif" font-size="10.00" fill="#000000"> PkgFileP</text>
</g>
<!-- Node13 -->
<g id="node12" class="node">
<title>Node13</title>
<g id="a_node12"><a xlink:href="structpkgCache_1_1ReleaseFile.xhtml" target="_top" xlink:title="stores information about the release files used to generate the cache ">
<polygon fill="#ffffff" stroke="#000000" points="492.5,-361.5 492.5,-380.5 563.5,-380.5 563.5,-361.5 492.5,-361.5"/>
<text text-anchor="middle" x="528" y="-368.5" font-family="Helvetica,sans-Serif" font-size="10.00" fill="#000000">ReleaseFile</text>
</a>
</g>
</g>
<!-- Node13&#45;&gt;Node6 -->
<g id="edge12" class="edge">
<title>Node13&#45;&gt;Node6</title>
<path fill="none" stroke="#9a32cd" stroke-dasharray="5,2" d="M573.6607,-362.0452C599.1141,-356.5085 631.1927,-348.6213 659,-339 671.3903,-334.713 684.7937,-328.6521 695.2668,-323.5716"/>
<polygon fill="#9a32cd" stroke="#9a32cd" points="572.5979,-358.6929 563.5457,-364.1983 574.0553,-365.5396 572.5979,-358.6929"/>
<text text-anchor="middle" x="633" y="-356" font-family="Helvetica,sans-Serif" font-size="10.00" fill="#000000"> RlsFileP</text>
</g>
<!-- Node14 -->
<g id="node13" class="node">
<title>Node14</title>
<g id="a_node13"><a xlink:href="structpkgCache_1_1DescFile.xhtml" target="_top" xlink:title="associates a description with a Translation file ">
<polygon fill="#ffffff" stroke="#000000" points="499.5,-323.5 499.5,-342.5 556.5,-342.5 556.5,-323.5 499.5,-323.5"/>
<text text-anchor="middle" x="528" y="-330.5" font-family="Helvetica,sans-Serif" font-size="10.00" fill="#000000">DescFile</text>
</a>
</g>
</g>
<!-- Node14&#45;&gt;Node6 -->
<g id="edge13" class="edge">
<title>Node14&#45;&gt;Node6</title>
<path fill="none" stroke="#9a32cd" stroke-dasharray="5,2" d="M566.6584,-329.051C600.5375,-325.5903 649.2371,-320.6156 681.2368,-317.3468"/>
<polygon fill="#9a32cd" stroke="#9a32cd" points="566.2474,-325.5747 556.6549,-330.0729 566.9588,-332.5385 566.2474,-325.5747"/>
<text text-anchor="middle" x="633" y="-327" font-family="Helvetica,sans-Serif" font-size="10.00" fill="#000000"> DescFileP</text>
</g>
<!-- Node15 -->
<g id="node14" class="node">
<title>Node15</title>
<g id="a_node14"><a xlink:href="structpkgCache_1_1Provides.xhtml" target="_top" xlink:title="handles virtual packages ">
<polygon fill="#ffffff" stroke="#000000" points="498.5,-285.5 498.5,-304.5 557.5,-304.5 557.5,-285.5 498.5,-285.5"/>
<text text-anchor="middle" x="528" y="-292.5" font-family="Helvetica,sans-Serif" font-size="10.00" fill="#000000">Provides</text>
</a>
</g>
</g>
<!-- Node15&#45;&gt;Node6 -->
<g id="edge14" class="edge">
<title>Node15&#45;&gt;Node6</title>
<path fill="none" stroke="#9a32cd" stroke-dasharray="5,2" d="M567.9467,-297.1553C593.9395,-298.7779 628.5455,-301.3527 659,-305 666.3013,-305.8744 674.1148,-307.0229 681.493,-308.2056"/>
<polygon fill="#9a32cd" stroke="#9a32cd" points="567.9196,-293.6474 557.7268,-296.5385 567.4978,-300.6346 567.9196,-293.6474"/>
<text text-anchor="middle" x="633" y="-308" font-family="Helvetica,sans-Serif" font-size="10.00" fill="#000000"> ProvideP</text>
</g>
<!-- Node16 -->
<g id="node15" class="node">
<title>Node16</title>
<g id="a_node15"><a xlink:title="STL class. ">
<polygon fill="#ffffff" stroke="#bfbfbf" points="156,-209.5 156,-228.5 200,-228.5 200,-209.5 156,-209.5"/>
<text text-anchor="middle" x="178" y="-216.5" font-family="Helvetica,sans-Serif" font-size="10.00" fill="#000000">string</text>
</a>
</g>
</g>
<!-- Node16&#45;&gt;Node2 -->
<g id="edge27" class="edge">
<title>Node16&#45;&gt;Node2</title>
<path fill="none" stroke="#9a32cd" stroke-dasharray="5,2" d="M183.6151,-199.638C200.4562,-146.1 255.8625,0 359,0 359,0 359,0 899,0 1028.5121,0 1047.5025,-230.0317 1050.1073,-280.3512"/>
<polygon fill="#9a32cd" stroke="#9a32cd" points="180.2356,-198.7218 180.6805,-209.3073 186.9339,-200.7547 180.2356,-198.7218"/>
<text text-anchor="middle" x="633" y="-3" font-family="Helvetica,sans-Serif" font-size="10.00" fill="#000000"> FileList</text>
</g>
<!-- Node16&#45;&gt;Node6 -->
<g id="edge15" class="edge">
<title>Node16&#45;&gt;Node6</title>
<path fill="none" stroke="#9a32cd" stroke-dasharray="5,2" d="M199.1457,-234.0933C205.0007,-237.5877 211.531,-240.8952 218,-243 375.4169,-294.2189 426.2396,-245.7924 589,-276 624.2359,-282.5396 663.5925,-295.4819 688.5613,-304.4324"/>
<polygon fill="#9a32cd" stroke="#9a32cd" points="200.9094,-231.0662 190.6069,-228.5945 197.1194,-236.9514 200.9094,-231.0662"/>
<text text-anchor="middle" x="424" y="-270" font-family="Helvetica,sans-Serif" font-size="10.00" fill="#000000"> CacheFile</text>
</g>
<!-- Node24 -->
<g id="node23" class="node">
<title>Node24</title>
<g id="a_node23"><a xlink:href="classFileFd.xhtml" target="_top" xlink:title="FileFd">
<polygon fill="#ffffff" stroke="#000000" points="337,-209.5 337,-228.5 381,-228.5 381,-209.5 337,-209.5"/>
<text text-anchor="middle" x="359" y="-216.5" font-family="Helvetica,sans-Serif" font-size="10.00" fill="#000000">FileFd</text>
</a>
</g>
</g>
<!-- Node16&#45;&gt;Node24 -->
<g id="edge25" class="edge">
<title>Node16&#45;&gt;Node24</title>
<path fill="none" stroke="#9a32cd" stroke-dasharray="5,2" d="M210.3175,-219C246.8252,-219 305.2614,-219 336.9077,-219"/>
<polygon fill="#9a32cd" stroke="#9a32cd" points="210.1942,-215.5001 200.1942,-219 210.1941,-222.5001 210.1942,-215.5001"/>
<text text-anchor="middle" x="268.5" y="-233" font-family="Helvetica,sans-Serif" font-size="10.00" fill="#000000"> TemporaryFileName</text>
<text text-anchor="middle" x="268.5" y="-222" font-family="Helvetica,sans-Serif" font-size="10.00" fill="#000000">FileName</text>
</g>
<!-- Node17 -->
<g id="node16" class="node">
<title>Node17</title>
<g id="a_node16"><a xlink:title="STL class. ">
<polygon fill="#ffffff" stroke="#bfbfbf" points="0,-209.5 0,-228.5 119,-228.5 119,-209.5 0,-209.5"/>
<text text-anchor="middle" x="59.5" y="-216.5" font-family="Helvetica,sans-Serif" font-size="10.00" fill="#000000">basic_string&lt; char &gt;</text>
</a>
</g>
</g>
<!-- Node17&#45;&gt;Node16 -->
<g id="edge16" class="edge">
<title>Node17&#45;&gt;Node16</title>
<path fill="none" stroke="#191970" d="M129.2118,-219C138.8284,-219 148.0652,-219 155.8653,-219"/>
<polygon fill="#191970" stroke="#191970" points="129.0972,-215.5001 119.0972,-219 129.0971,-222.5001 129.0972,-215.5001"/>
</g>
<!-- Node18 -->
<g id="node17" class="node">
<title>Node18</title>
<g id="a_node17"><a xlink:href="structpkgCache_1_1Group.xhtml" target="_top" xlink:title="groups architecture depending packages together ">
<polygon fill="#ffffff" stroke="#000000" points="505,-171.5 505,-190.5 551,-190.5 551,-171.5 505,-171.5"/>
<text text-anchor="middle" x="528" y="-178.5" font-family="Helvetica,sans-Serif" font-size="10.00" fill="#000000">Group</text>
</a>
</g>
</g>
<!-- Node18&#45;&gt;Node6 -->
<g id="edge17" class="edge">
<title>Node18&#45;&gt;Node6</title>
<path fill="none" stroke="#9a32cd" stroke-dasharray="5,2" d="M561.2503,-175.1422C590.7827,-171.9861 633.1563,-172.8012 659,-197 690.3687,-226.3721 652.3535,-256.7968 677,-292 680.5147,-297.0201 685.574,-301.0814 690.8277,-304.2831"/>
<polygon fill="#9a32cd" stroke="#9a32cd" points="560.4822,-171.7117 551.0054,-176.4486 561.3678,-178.6554 560.4822,-171.7117"/>
<text text-anchor="middle" x="633" y="-200" font-family="Helvetica,sans-Serif" font-size="10.00" fill="#000000"> GrpP</text>
</g>
<!-- Node19 -->
<g id="node18" class="node">
<title>Node19</title>
<g id="a_node18"><a xlink:href="classpkgVersioningSystem.xhtml" target="_top" xlink:title="pkgVersioningSystem">
<polygon fill="#ffffff" stroke="#000000" points="467,-104.5 467,-123.5 589,-123.5 589,-104.5 467,-104.5"/>
<text text-anchor="middle" x="528" y="-111.5" font-family="Helvetica,sans-Serif" font-size="10.00" fill="#000000">pkgVersioningSystem</text>
</a>
</g>
</g>
<!-- Node19&#45;&gt;Node6 -->
<g id="edge18" class="edge">
<title>Node19&#45;&gt;Node6</title>
<path fill="none" stroke="#9a32cd" stroke-dasharray="5,2" d="M599.0619,-124.5944C621.3918,-131.4115 644.0845,-142.6094 659,-161 696.0193,-206.6443 644.5253,-243.0181 677,-292 680.3863,-297.1076 685.3994,-301.2003 690.6498,-304.4043"/>
<polygon fill="#9a32cd" stroke="#9a32cd" points="599.7713,-121.1588 589.1988,-121.8466 597.8926,-127.902 599.7713,-121.1588"/>
<text text-anchor="middle" x="633" y="-164" font-family="Helvetica,sans-Serif" font-size="10.00" fill="#000000"> VS</text>
</g>
<!-- Node19&#45;&gt;Node19 -->
<g id="edge19" class="edge">
<title>Node19&#45;&gt;Node19</title>
<path fill="none" stroke="#9a32cd" stroke-dasharray="5,2" d="M508.7417,-133.4C510.0278,-138.3146 516.4473,-142 528,-142 546.4844,-142 551.8275,-132.5653 544.0294,-123.7571"/>
<polygon fill="#9a32cd" stroke="#9a32cd" points="512.1142,-134.3509 511.9706,-123.7571 505.4765,-132.1283 512.1142,-134.3509"/>
<text text-anchor="middle" x="528" y="-145" font-family="Helvetica,sans-Serif" font-size="10.00" fill="#000000"> GlobalList</text>
</g>
<!-- Node20 -->
<g id="node19" class="node">
<title>Node20</title>
<g id="a_node19"><a xlink:href="structpkgCache_1_1Version.xhtml" target="_top" xlink:title="information for a single version of a package ">
<polygon fill="#ffffff" stroke="#000000" points="501.5,-66.5 501.5,-85.5 554.5,-85.5 554.5,-66.5 501.5,-66.5"/>
<text text-anchor="middle" x="528" y="-73.5" font-family="Helvetica,sans-Serif" font-size="10.00" fill="#000000">Version</text>
</a>
</g>
</g>
<!-- Node20&#45;&gt;Node6 -->
<g id="edge20" class="edge">
<title>Node20&#45;&gt;Node6</title>
<path fill="none" stroke="#9a32cd" stroke-dasharray="5,2" d="M564.9158,-76.1006C595.0417,-78.3225 636.2206,-86.6584 659,-114 684.4485,-144.5453 655.6271,-258.4763 677,-292 680.2944,-297.1673 685.2745,-301.2815 690.5225,-304.4871"/>
<polygon fill="#9a32cd" stroke="#9a32cd" points="564.9445,-72.5971 554.7691,-75.5485 564.5641,-79.5867 564.9445,-72.5971"/>
<text text-anchor="middle" x="633" y="-117" font-family="Helvetica,sans-Serif" font-size="10.00" fill="#000000"> VerP</text>
</g>
<!-- Node21 -->
<g id="node20" class="node">
<title>Node21</title>
<g id="a_node20"><a xlink:href="structpkgCache_1_1VerFile.xhtml" target="_top" xlink:title="associates a version with a PackageFile ">
<polygon fill="#ffffff" stroke="#000000" points="503.5,-28.5 503.5,-47.5 552.5,-47.5 552.5,-28.5 503.5,-28.5"/>
<text text-anchor="middle" x="528" y="-35.5" font-family="Helvetica,sans-Serif" font-size="10.00" fill="#000000">VerFile</text>
</a>
</g>
</g>
<!-- Node21&#45;&gt;Node6 -->
<g id="edge21" class="edge">
<title>Node21&#45;&gt;Node6</title>
<path fill="none" stroke="#9a32cd" stroke-dasharray="5,2" d="M562.7592,-36.1274C593.0304,-36.5691 635.628,-42.5906 659,-70 691.1145,-107.6622 650.8082,-250.0028 677,-292 680.1638,-297.073 684.9635,-301.1238 690.0677,-304.2959"/>
<polygon fill="#9a32cd" stroke="#9a32cd" points="562.6,-32.628 552.6177,-36.1779 562.635,-39.6279 562.6,-32.628"/>
<text text-anchor="middle" x="633" y="-73" font-family="Helvetica,sans-Serif" font-size="10.00" fill="#000000"> VerFileP</text>
</g>
<!-- Node22 -->
<g id="node21" class="node">
<title>Node22</title>
<g id="a_node21"><a xlink:href="structpkgCache_1_1Package.xhtml" target="_top" xlink:title="contains information for a single unique package ">
<polygon fill="#ffffff" stroke="#000000" points="499.5,-589.5 499.5,-608.5 556.5,-608.5 556.5,-589.5 499.5,-589.5"/>
<text text-anchor="middle" x="528" y="-596.5" font-family="Helvetica,sans-Serif" font-size="10.00" fill="#000000">Package</text>
</a>
</g>
</g>
<!-- Node22&#45;&gt;Node6 -->
<g id="edge22" class="edge">
<title>Node22&#45;&gt;Node6</title>
<path fill="none" stroke="#9a32cd" stroke-dasharray="5,2" d="M566.8457,-603.4058C596.6169,-604.4214 636.3234,-600.2259 659,-575 694.755,-535.2254 648.3773,-380.1795 677,-335 680.0042,-330.2581 684.4856,-326.4808 689.3024,-323.5134"/>
<polygon fill="#9a32cd" stroke="#9a32cd" points="566.95,-599.9064 556.7738,-602.8552 566.5678,-606.8959 566.95,-599.9064"/>
<text text-anchor="middle" x="633" y="-603" font-family="Helvetica,sans-Serif" font-size="10.00" fill="#000000"> PkgP</text>
</g>
<!-- Node23 -->
<g id="node22" class="node">
<title>Node23</title>
<g id="a_node22"><a xlink:href="classMMap.xhtml" target="_top" xlink:title="MMap">
<polygon fill="#ffffff" stroke="#000000" points="505.5,-209.5 505.5,-228.5 550.5,-228.5 550.5,-209.5 505.5,-209.5"/>
<text text-anchor="middle" x="528" y="-216.5" font-family="Helvetica,sans-Serif" font-size="10.00" fill="#000000">MMap</text>
</a>
</g>
</g>
<!-- Node23&#45;&gt;Node6 -->
<g id="edge23" class="edge">
<title>Node23&#45;&gt;Node6</title>
<path fill="none" stroke="#9a32cd" stroke-dasharray="5,2" d="M560.8359,-212.8933C589.9048,-209.4613 631.8216,-209.6086 659,-232 680.4876,-249.7029 659.8664,-270.0557 677,-292 680.9553,-297.0659 686.4287,-301.2109 691.9539,-304.4821"/>
<polygon fill="#9a32cd" stroke="#9a32cd" points="560.1858,-209.4498 550.7587,-214.2851 561.1435,-216.384 560.1858,-209.4498"/>
<text text-anchor="middle" x="633" y="-235" font-family="Helvetica,sans-Serif" font-size="10.00" fill="#000000"> Map</text>
</g>
<!-- Node24&#45;&gt;Node23 -->
<g id="edge24" class="edge">
<title>Node24&#45;&gt;Node23</title>
<path fill="none" stroke="#9a32cd" stroke-dasharray="5,2" d="M391.2616,-219C424.6753,-219 476.0218,-219 505.3614,-219"/>
<polygon fill="#9a32cd" stroke="#9a32cd" points="391.0938,-215.5001 381.0938,-219 391.0938,-222.5001 391.0938,-215.5001"/>
<text text-anchor="middle" x="424" y="-222" font-family="Helvetica,sans-Serif" font-size="10.00" fill="#000000"> SyncToFd</text>
</g>
<!-- Node25 -->
<g id="node24" class="node">
<title>Node25</title>
<g id="a_node24"><a xlink:href="structpkgDepCache_1_1StateCache.xhtml" target="_top" xlink:title="StateCache">
<polygon fill="#ffffff" stroke="#000000" points="678,-263.5 678,-282.5 750,-282.5 750,-263.5 678,-263.5"/>
<text text-anchor="middle" x="714" y="-270.5" font-family="Helvetica,sans-Serif" font-size="10.00" fill="#000000">StateCache</text>
</a>
</g>
</g>
<!-- Node25&#45;&gt;Node4 -->
<g id="edge26" class="edge">
<title>Node25&#45;&gt;Node4</title>
<path fill="none" stroke="#9a32cd" stroke-dasharray="5,2" d="M760.1195,-270.6029C783.7998,-270.0707 813.053,-270.4942 839,-274 848.9357,-275.3425 859.5709,-277.8211 869.0862,-280.4333"/>
<polygon fill="#9a32cd" stroke="#9a32cd" points="759.8964,-267.1078 750.0016,-270.8951 760.0985,-274.1049 759.8964,-267.1078"/>
<text text-anchor="middle" x="804" y="-277" font-family="Helvetica,sans-Serif" font-size="10.00" fill="#000000"> PkgState</text>
</g>
</g>
</svg>
