<?xml version="1.0" encoding="UTF-8" standalone="no"?>
<!DOCTYPE svg PUBLIC "-//W3C//DTD SVG 1.1//EN"
 "http://www.w3.org/Graphics/SVG/1.1/DTD/svg11.dtd">
<!-- Generated by graphviz version 2.40.1 (20161225.0304)
 -->
<!-- Title: pkgPolicy Pages: 1 -->
<!--zoomable 727 -->
<svg id="main" version="1.1" xmlns="http://www.w3.org/2000/svg" xmlns:xlink="http://www.w3.org/1999/xlink" xml:space="preserve" onload="init(evt)">
<style type="text/css"><![CDATA[
.edge:hover path { stroke: red; }
.edge:hover polygon { stroke: red; fill: red; }
]]></style>
<script type="text/javascript"><![CDATA[
var edges = document.getElementsByTagName('g');
if (edges && edges.length) {
  for (var i=0;i<edges.length;i++) {
    if (edges[i].id.substr(0,4)=='edge') {
      edges[i].setAttribute('class','edge');
    }
  }
}
]]></script>
        <defs>
                <circle id="rim" cx="0" cy="0" r="7"/>
                <circle id="rim2" cx="0" cy="0" r="3.5"/>
                <g id="zoomPlus">
                        <use xlink:href="#rim" fill="#404040">
                                <set attributeName="fill" to="#808080" begin="zoomplus.mouseover" end="zoomplus.mouseout"/>
                        </use>
                        <path d="M-4,0h8M0,-4v8" fill="none" stroke="white" stroke-width="1.5" pointer-events="none"/>
                </g>
                <g id="zoomMin">
                        <use xlink:href="#rim" fill="#404040">
                                <set attributeName="fill" to="#808080" begin="zoomminus.mouseover" end="zoomminus.mouseout"/>
                        </use>
                        <path d="M-4,0h8" fill="none" stroke="white" stroke-width="1.5" pointer-events="none"/>
                </g>
                <g id="dirArrow">
                        <path fill="none" stroke="white" stroke-width="1.5" d="M0,-3.0v7 M-2.5,-0.5L0,-3.0L2.5,-0.5"/>
                </g>
               <g id="resetDef">
                       <use xlink:href="#rim2" fill="#404040">
                               <set attributeName="fill" to="#808080" begin="reset.mouseover" end="reset.mouseout"/>
                       </use>
               </g>
        </defs>

<script type="text/javascript">
var viewWidth = 1015;
var viewHeight = 727;
var sectionId = 'dynsection-1';
</script>
<script xlink:href="svgpan.js"/>
<svg id="graph" class="graph">
<g id="viewport">
<title>pkgPolicy</title>
<polygon fill="#ffffff" stroke="transparent" points="-4,4 -4,-722.5 1011,-722.5 1011,4 -4,4"/>
<!-- Node2 -->
<g id="node1" class="node">
<title>Node2</title>
<polygon fill="#bfbfbf" stroke="#000000" points="943,-96 943,-115 1007,-115 1007,-96 943,-96"/>
<text text-anchor="middle" x="975" y="-103" font-family="Helvetica,sans-Serif" font-size="10.00" fill="#000000">pkgPolicy</text>
</g>
<!-- Node3 -->
<g id="node2" class="node">
<title>Node3</title>
<g id="a_node2"><a xlink:href="classpkgDepCache_1_1Policy.xhtml" target="_top" xlink:title="Policy">
<polygon fill="#ffffff" stroke="#000000" points="768.5,-421 768.5,-440 814.5,-440 814.5,-421 768.5,-421"/>
<text text-anchor="middle" x="791.5" y="-428" font-family="Helvetica,sans-Serif" font-size="10.00" fill="#000000">Policy</text>
</a>
</g>
</g>
<!-- Node3&#45;&gt;Node2 -->
<g id="edge1" class="edge">
<title>Node3&#45;&gt;Node2</title>
<path fill="none" stroke="#191970" d="M824.122,-423.3691C832.1465,-420.5716 840.3384,-416.7333 847,-411.5 897.6082,-371.7427 898.9289,-348.3398 925,-289.5 953.161,-225.9435 968.766,-142.8435 973.4648,-115.0315"/>
<polygon fill="#191970" stroke="#191970" points="823.0781,-420.0282 814.531,-426.2889 825.1168,-426.7248 823.0781,-420.0282"/>
</g>
<!-- Node4 -->
<g id="node3" class="node">
<title>Node4</title>
<g id="a_node3"><a xlink:href="classpkgCache.xhtml" target="_top" xlink:title="pkgCache">
<polygon fill="#ffffff" stroke="#000000" points="759,-383 759,-402 824,-402 824,-383 759,-383"/>
<text text-anchor="middle" x="791.5" y="-390" font-family="Helvetica,sans-Serif" font-size="10.00" fill="#000000">pkgCache</text>
</a>
</g>
</g>
<!-- Node4&#45;&gt;Node2 -->
<g id="edge2" class="edge">
<title>Node4&#45;&gt;Node2</title>
<path fill="none" stroke="#9a32cd" stroke-dasharray="5,2" d="M803.1599,-374.2636C838.3169,-319.2768 942.4859,-156.3532 968.8717,-115.0849"/>
<polygon fill="#9a32cd" stroke="#9a32cd" points="800.0434,-372.6405 797.6054,-382.951 805.941,-376.4113 800.0434,-372.6405"/>
<text text-anchor="middle" x="895" y="-277.5" font-family="Helvetica,sans-Serif" font-size="10.00" fill="#000000"> Cache</text>
</g>
<!-- Node5 -->
<g id="node4" class="node">
<title>Node5</title>
<g id="a_node4"><a xlink:href="structpkgCache_1_1DependencyData.xhtml" target="_top" xlink:title="information for a single dependency record ">
<polygon fill="#ffffff" stroke="#000000" points="477.5,-687 477.5,-706 578.5,-706 578.5,-687 477.5,-687"/>
<text text-anchor="middle" x="528" y="-694" font-family="Helvetica,sans-Serif" font-size="10.00" fill="#000000">DependencyData</text>
</a>
</g>
</g>
<!-- Node5&#45;&gt;Node4 -->
<g id="edge3" class="edge">
<title>Node5&#45;&gt;Node4</title>
<path fill="none" stroke="#9a32cd" stroke-dasharray="5,2" d="M588.7755,-706.9263C631.17,-710.4153 685.7265,-706.6606 718,-672.5 757.9258,-630.2397 700.5891,-457.6093 736,-411.5 741.5829,-404.2304 750.0999,-399.724 758.7979,-396.9363"/>
<polygon fill="#9a32cd" stroke="#9a32cd" points="588.849,-703.417 578.5562,-705.9286 588.1687,-710.3838 588.849,-703.417"/>
<text text-anchor="middle" x="662.5" y="-710.5" font-family="Helvetica,sans-Serif" font-size="10.00" fill="#000000"> DepDataP</text>
</g>
<!-- Node6 -->
<g id="node5" class="node">
<title>Node6</title>
<g id="a_node5"><a xlink:href="structpkgCache_1_1Dependency.xhtml" target="_top" xlink:title="Dependency">
<polygon fill="#ffffff" stroke="#000000" points="489.5,-649 489.5,-668 566.5,-668 566.5,-649 489.5,-649"/>
<text text-anchor="middle" x="528" y="-656" font-family="Helvetica,sans-Serif" font-size="10.00" fill="#000000">Dependency</text>
</a>
</g>
</g>
<!-- Node6&#45;&gt;Node4 -->
<g id="edge4" class="edge">
<title>Node6&#45;&gt;Node4</title>
<path fill="none" stroke="#9a32cd" stroke-dasharray="5,2" d="M576.8338,-658.7906C626.6456,-657.9584 699.2141,-653.248 718,-633.5 752.114,-597.639 705.6172,-450.5726 736,-411.5 741.6266,-404.2642 750.1565,-399.7677 758.853,-396.9788"/>
<polygon fill="#9a32cd" stroke="#9a32cd" points="576.5348,-655.2939 566.5775,-658.9134 576.6187,-662.2934 576.5348,-655.2939"/>
<text text-anchor="middle" x="662.5" y="-660.5" font-family="Helvetica,sans-Serif" font-size="10.00" fill="#000000"> DepP</text>
</g>
<!-- Node7 -->
<g id="node6" class="node">
<title>Node7</title>
<g id="a_node6"><a xlink:href="structpkgCache_1_1Description.xhtml" target="_top" xlink:title="datamember of a linked list of available description for a version ">
<polygon fill="#ffffff" stroke="#000000" points="492,-611 492,-630 564,-630 564,-611 492,-611"/>
<text text-anchor="middle" x="528" y="-618" font-family="Helvetica,sans-Serif" font-size="10.00" fill="#000000">Description</text>
</a>
</g>
</g>
<!-- Node7&#45;&gt;Node4 -->
<g id="edge5" class="edge">
<title>Node7&#45;&gt;Node4</title>
<path fill="none" stroke="#9a32cd" stroke-dasharray="5,2" d="M574.239,-620.7717C624.0329,-620.0038 698.7268,-615.4262 718,-595.5 746.563,-565.9694 710.5119,-443.722 736,-411.5 741.6865,-404.3112 750.2342,-399.8287 758.9286,-397.0381"/>
<polygon fill="#9a32cd" stroke="#9a32cd" points="573.982,-617.2742 564.0203,-620.8819 574.0575,-624.2738 573.982,-617.2742"/>
<text text-anchor="middle" x="662.5" y="-621.5" font-family="Helvetica,sans-Serif" font-size="10.00" fill="#000000"> DescP</text>
</g>
<!-- Node8 -->
<g id="node7" class="node">
<title>Node8</title>
<g id="a_node7"><a xlink:href="structpkgCache_1_1Header.xhtml" target="_top" xlink:title="Header">
<polygon fill="#ffffff" stroke="#000000" points="502,-573 502,-592 554,-592 554,-573 502,-573"/>
<text text-anchor="middle" x="528" y="-580" font-family="Helvetica,sans-Serif" font-size="10.00" fill="#000000">Header</text>
</a>
</g>
</g>
<!-- Node8&#45;&gt;Node4 -->
<g id="edge6" class="edge">
<title>Node8&#45;&gt;Node4</title>
<path fill="none" stroke="#9a32cd" stroke-dasharray="5,2" d="M564.4066,-582.8063C613.4891,-582.395 697.1543,-578.5165 718,-557.5 764.0418,-511.081 694.7972,-462.2632 736,-411.5 741.7122,-404.4623 750.1607,-400.0216 758.7524,-397.2228"/>
<polygon fill="#9a32cd" stroke="#9a32cd" points="564.1855,-579.3071 554.1993,-582.8463 564.213,-586.307 564.1855,-579.3071"/>
<text text-anchor="middle" x="662.5" y="-583.5" font-family="Helvetica,sans-Serif" font-size="10.00" fill="#000000"> HeaderP</text>
</g>
<!-- Node9 -->
<g id="node8" class="node">
<title>Node9</title>
<g id="a_node8"><a xlink:href="structDynamicMMap_1_1Pool.xhtml" target="_top" xlink:title="Pool">
<polygon fill="#ffffff" stroke="#000000" points="340,-573 340,-592 378,-592 378,-573 340,-573"/>
<text text-anchor="middle" x="359" y="-580" font-family="Helvetica,sans-Serif" font-size="10.00" fill="#000000">Pool</text>
</a>
</g>
</g>
<!-- Node9&#45;&gt;Node8 -->
<g id="edge7" class="edge">
<title>Node9&#45;&gt;Node8</title>
<path fill="none" stroke="#9a32cd" stroke-dasharray="5,2" d="M388.1285,-582.5C420.1301,-582.5 471.0611,-582.5 501.8334,-582.5"/>
<polygon fill="#9a32cd" stroke="#9a32cd" points="388.058,-579.0001 378.0579,-582.5 388.0579,-586.0001 388.058,-579.0001"/>
<text text-anchor="middle" x="424" y="-585.5" font-family="Helvetica,sans-Serif" font-size="10.00" fill="#000000"> Pools</text>
</g>
<!-- Node10 -->
<g id="node9" class="node">
<title>Node10</title>
<g id="a_node9"><a xlink:href="structpkgCache_1_1PackageFile.xhtml" target="_top" xlink:title="stores information about the files used to generate the cache ">
<polygon fill="#ffffff" stroke="#000000" points="491,-535 491,-554 565,-554 565,-535 491,-535"/>
<text text-anchor="middle" x="528" y="-542" font-family="Helvetica,sans-Serif" font-size="10.00" fill="#000000">PackageFile</text>
</a>
</g>
</g>
<!-- Node10&#45;&gt;Node4 -->
<g id="edge8" class="edge">
<title>Node10&#45;&gt;Node4</title>
<path fill="none" stroke="#9a32cd" stroke-dasharray="5,2" d="M575.2517,-544.5037C624.8184,-543.4596 698.2316,-538.6013 718,-519.5 752.9947,-485.6862 704.5375,-448.6229 736,-411.5 741.8604,-404.5852 750.354,-400.182 758.9416,-397.3797"/>
<polygon fill="#9a32cd" stroke="#9a32cd" points="575.0053,-541.0072 565.0646,-544.6723 575.1212,-548.0062 575.0053,-541.0072"/>
<text text-anchor="middle" x="662.5" y="-545.5" font-family="Helvetica,sans-Serif" font-size="10.00" fill="#000000"> PkgFileP</text>
</g>
<!-- Node11 -->
<g id="node10" class="node">
<title>Node11</title>
<g id="a_node10"><a xlink:href="structpkgCache_1_1ReleaseFile.xhtml" target="_top" xlink:title="stores information about the release files used to generate the cache ">
<polygon fill="#ffffff" stroke="#000000" points="492.5,-497 492.5,-516 563.5,-516 563.5,-497 492.5,-497"/>
<text text-anchor="middle" x="528" y="-504" font-family="Helvetica,sans-Serif" font-size="10.00" fill="#000000">ReleaseFile</text>
</a>
</g>
</g>
<!-- Node11&#45;&gt;Node4 -->
<g id="edge9" class="edge">
<title>Node11&#45;&gt;Node4</title>
<path fill="none" stroke="#9a32cd" stroke-dasharray="5,2" d="M573.6981,-506.4768C622.9999,-505.4812 697.247,-500.8521 718,-482.5 742.3864,-460.9349 713.9384,-435.4382 736,-411.5 742.0047,-404.9846 750.338,-400.7032 758.7236,-397.8899"/>
<polygon fill="#9a32cd" stroke="#9a32cd" points="573.5275,-502.979 563.5845,-506.6378 573.639,-509.9781 573.5275,-502.979"/>
<text text-anchor="middle" x="662.5" y="-507.5" font-family="Helvetica,sans-Serif" font-size="10.00" fill="#000000"> RlsFileP</text>
</g>
<!-- Node12 -->
<g id="node11" class="node">
<title>Node12</title>
<g id="a_node11"><a xlink:href="structpkgCache_1_1DescFile.xhtml" target="_top" xlink:title="associates a description with a Translation file ">
<polygon fill="#ffffff" stroke="#000000" points="499.5,-459 499.5,-478 556.5,-478 556.5,-459 499.5,-459"/>
<text text-anchor="middle" x="528" y="-466" font-family="Helvetica,sans-Serif" font-size="10.00" fill="#000000">DescFile</text>
</a>
</g>
</g>
<!-- Node12&#45;&gt;Node4 -->
<g id="edge10" class="edge">
<title>Node12&#45;&gt;Node4</title>
<path fill="none" stroke="#9a32cd" stroke-dasharray="5,2" d="M566.7121,-469.8845C607.2987,-469.5788 671.5149,-463.9767 718,-435.5 729.3696,-428.535 725.215,-419.3398 736,-411.5 742.7551,-406.5896 750.877,-402.8755 758.797,-400.0952"/>
<polygon fill="#9a32cd" stroke="#9a32cd" points="566.6877,-466.3845 556.6776,-469.8555 566.6674,-473.3845 566.6877,-466.3845"/>
<text text-anchor="middle" x="662.5" y="-470.5" font-family="Helvetica,sans-Serif" font-size="10.00" fill="#000000"> DescFileP</text>
</g>
<!-- Node13 -->
<g id="node12" class="node">
<title>Node13</title>
<g id="a_node12"><a xlink:href="structpkgCache_1_1Provides.xhtml" target="_top" xlink:title="handles virtual packages ">
<polygon fill="#ffffff" stroke="#000000" points="498.5,-421 498.5,-440 557.5,-440 557.5,-421 498.5,-421"/>
<text text-anchor="middle" x="528" y="-428" font-family="Helvetica,sans-Serif" font-size="10.00" fill="#000000">Provides</text>
</a>
</g>
</g>
<!-- Node13&#45;&gt;Node4 -->
<g id="edge11" class="edge">
<title>Node13&#45;&gt;Node4</title>
<path fill="none" stroke="#9a32cd" stroke-dasharray="5,2" d="M567.9745,-426.1867C606.4947,-421.8568 666.3699,-414.6698 718,-406.5 731.3434,-404.3886 745.9757,-401.6821 758.6474,-399.2126"/>
<polygon fill="#9a32cd" stroke="#9a32cd" points="567.252,-422.7455 557.7007,-427.3307 568.0267,-429.7025 567.252,-422.7455"/>
<text text-anchor="middle" x="662.5" y="-423.5" font-family="Helvetica,sans-Serif" font-size="10.00" fill="#000000"> ProvideP</text>
</g>
<!-- Node14 -->
<g id="node13" class="node">
<title>Node14</title>
<g id="a_node13"><a xlink:title="STL class. ">
<polygon fill="#ffffff" stroke="#bfbfbf" points="156,-94 156,-113 200,-113 200,-94 156,-94"/>
<text text-anchor="middle" x="178" y="-101" font-family="Helvetica,sans-Serif" font-size="10.00" fill="#000000">string</text>
</a>
</g>
</g>
<!-- Node14&#45;&gt;Node4 -->
<g id="edge12" class="edge">
<title>Node14&#45;&gt;Node4</title>
<path fill="none" stroke="#9a32cd" stroke-dasharray="5,2" d="M190.0734,-121.4058C225.4606,-172.1407 334.8081,-316.8367 467,-373.5 566.3292,-416.0769 698.6344,-405.5867 758.9984,-397.5978"/>
<polygon fill="#9a32cd" stroke="#9a32cd" points="192.8891,-119.3234 184.3377,-113.0684 187.122,-123.2909 192.8891,-119.3234"/>
<text text-anchor="middle" x="424" y="-367.5" font-family="Helvetica,sans-Serif" font-size="10.00" fill="#000000"> CacheFile</text>
</g>
<!-- Node22 -->
<g id="node21" class="node">
<title>Node22</title>
<g id="a_node21"><a xlink:href="classFileFd.xhtml" target="_top" xlink:title="FileFd">
<polygon fill="#ffffff" stroke="#000000" points="337,-105 337,-124 381,-124 381,-105 337,-105"/>
<text text-anchor="middle" x="359" y="-112" font-family="Helvetica,sans-Serif" font-size="10.00" fill="#000000">FileFd</text>
</a>
</g>
</g>
<!-- Node14&#45;&gt;Node22 -->
<g id="edge22" class="edge">
<title>Node14&#45;&gt;Node22</title>
<path fill="none" stroke="#9a32cd" stroke-dasharray="5,2" d="M210.3175,-105.464C246.8252,-107.6827 305.2614,-111.2341 336.9077,-113.1574"/>
<polygon fill="#9a32cd" stroke="#9a32cd" points="210.3881,-101.962 200.1942,-104.8488 209.9634,-108.9491 210.3881,-101.962"/>
<text text-anchor="middle" x="268.5" y="-126.5" font-family="Helvetica,sans-Serif" font-size="10.00" fill="#000000"> TemporaryFileName</text>
<text text-anchor="middle" x="268.5" y="-115.5" font-family="Helvetica,sans-Serif" font-size="10.00" fill="#000000">FileName</text>
</g>
<!-- Node24 -->
<g id="node23" class="node">
<title>Node24</title>
<g id="a_node23"><a xlink:href="structpkgPolicy_1_1Pin.xhtml" target="_top" xlink:title="Pin">
<polygon fill="#ffffff" stroke="#000000" points="343,-52 343,-71 375,-71 375,-52 343,-52"/>
<text text-anchor="middle" x="359" y="-59" font-family="Helvetica,sans-Serif" font-size="10.00" fill="#000000">Pin</text>
</a>
</g>
</g>
<!-- Node14&#45;&gt;Node24 -->
<g id="edge25" class="edge">
<title>Node14&#45;&gt;Node24</title>
<path fill="none" stroke="#9a32cd" stroke-dasharray="5,2" d="M209.9951,-93.6493C212.6953,-92.8947 215.3902,-92.1679 218,-91.5 262.8545,-80.0206 316.515,-69.4655 342.8295,-64.4938"/>
<polygon fill="#9a32cd" stroke="#9a32cd" points="208.966,-90.3034 200.3348,-96.4477 210.9138,-97.027 208.966,-90.3034"/>
<text text-anchor="middle" x="268.5" y="-94.5" font-family="Helvetica,sans-Serif" font-size="10.00" fill="#000000"> Data</text>
</g>
<!-- Node26 -->
<g id="node25" class="node">
<title>Node26</title>
<g id="a_node25"><a xlink:href="structpkgPolicy_1_1PkgPin.xhtml" target="_top" xlink:title="PkgPin">
<polygon fill="#ffffff" stroke="#000000" points="503,-6 503,-25 553,-25 553,-6 503,-6"/>
<text text-anchor="middle" x="528" y="-13" font-family="Helvetica,sans-Serif" font-size="10.00" fill="#000000">PkgPin</text>
</a>
</g>
</g>
<!-- Node14&#45;&gt;Node26 -->
<g id="edge30" class="edge">
<title>Node14&#45;&gt;Node26</title>
<path fill="none" stroke="#9a32cd" stroke-dasharray="5,2" d="M192.6846,-86.2194C199.692,-78.9154 208.5939,-70.8735 218,-65.5 312.1974,-11.6873 447.2689,-11.3234 502.748,-13.8291"/>
<polygon fill="#9a32cd" stroke="#9a32cd" points="190.0265,-83.9402 185.89,-93.6942 195.2063,-88.6487 190.0265,-83.9402"/>
<text text-anchor="middle" x="359" y="-27.5" font-family="Helvetica,sans-Serif" font-size="10.00" fill="#000000"> Pkg</text>
</g>
<!-- Node15 -->
<g id="node14" class="node">
<title>Node15</title>
<g id="a_node14"><a xlink:title="STL class. ">
<polygon fill="#ffffff" stroke="#bfbfbf" points="0,-94 0,-113 119,-113 119,-94 0,-94"/>
<text text-anchor="middle" x="59.5" y="-101" font-family="Helvetica,sans-Serif" font-size="10.00" fill="#000000">basic_string&lt; char &gt;</text>
</a>
</g>
</g>
<!-- Node15&#45;&gt;Node14 -->
<g id="edge13" class="edge">
<title>Node15&#45;&gt;Node14</title>
<path fill="none" stroke="#191970" d="M129.2118,-103.5C138.8284,-103.5 148.0652,-103.5 155.8653,-103.5"/>
<polygon fill="#191970" stroke="#191970" points="129.0972,-100.0001 119.0972,-103.5 129.0971,-107.0001 129.0972,-100.0001"/>
</g>
<!-- Node16 -->
<g id="node15" class="node">
<title>Node16</title>
<g id="a_node15"><a xlink:href="structpkgCache_1_1Group.xhtml" target="_top" xlink:title="groups architecture depending packages together ">
<polygon fill="#ffffff" stroke="#000000" points="505,-345 505,-364 551,-364 551,-345 505,-345"/>
<text text-anchor="middle" x="528" y="-352" font-family="Helvetica,sans-Serif" font-size="10.00" fill="#000000">Group</text>
</a>
</g>
</g>
<!-- Node16&#45;&gt;Node4 -->
<g id="edge14" class="edge">
<title>Node16&#45;&gt;Node4</title>
<path fill="none" stroke="#9a32cd" stroke-dasharray="5,2" d="M561.1088,-354.1801C599.2929,-354.4052 663.7755,-356.6161 718,-367.5 735.3114,-370.9747 754.1521,-377.4397 768.4238,-382.9247"/>
<polygon fill="#9a32cd" stroke="#9a32cd" points="561.0724,-350.6801 551.0666,-354.1637 561.0609,-357.6801 561.0724,-350.6801"/>
<text text-anchor="middle" x="662.5" y="-370.5" font-family="Helvetica,sans-Serif" font-size="10.00" fill="#000000"> GrpP</text>
</g>
<!-- Node17 -->
<g id="node16" class="node">
<title>Node17</title>
<g id="a_node16"><a xlink:href="classpkgVersioningSystem.xhtml" target="_top" xlink:title="pkgVersioningSystem">
<polygon fill="#ffffff" stroke="#000000" points="467,-278 467,-297 589,-297 589,-278 467,-278"/>
<text text-anchor="middle" x="528" y="-285" font-family="Helvetica,sans-Serif" font-size="10.00" fill="#000000">pkgVersioningSystem</text>
</a>
</g>
</g>
<!-- Node17&#45;&gt;Node4 -->
<g id="edge15" class="edge">
<title>Node17&#45;&gt;Node4</title>
<path fill="none" stroke="#9a32cd" stroke-dasharray="5,2" d="M592.5217,-299.1514C630.2822,-307.4219 678.2053,-320.4758 718,-339.5 742.4127,-351.1707 767.1999,-371.084 780.8381,-382.8955"/>
<polygon fill="#9a32cd" stroke="#9a32cd" points="593.1653,-295.71 582.6552,-297.0479 591.7057,-302.5561 593.1653,-295.71"/>
<text text-anchor="middle" x="662.5" y="-342.5" font-family="Helvetica,sans-Serif" font-size="10.00" fill="#000000"> VS</text>
</g>
<!-- Node17&#45;&gt;Node17 -->
<g id="edge16" class="edge">
<title>Node17&#45;&gt;Node17</title>
<path fill="none" stroke="#9a32cd" stroke-dasharray="5,2" d="M508.7417,-306.9C510.0278,-311.8146 516.4473,-315.5 528,-315.5 546.4844,-315.5 551.8275,-306.0653 544.0294,-297.2571"/>
<polygon fill="#9a32cd" stroke="#9a32cd" points="512.1142,-307.8509 511.9706,-297.2571 505.4765,-305.6283 512.1142,-307.8509"/>
<text text-anchor="middle" x="528" y="-318.5" font-family="Helvetica,sans-Serif" font-size="10.00" fill="#000000"> GlobalList</text>
</g>
<!-- Node18 -->
<g id="node17" class="node">
<title>Node18</title>
<g id="a_node17"><a xlink:href="structpkgCache_1_1Version.xhtml" target="_top" xlink:title="information for a single version of a package ">
<polygon fill="#ffffff" stroke="#000000" points="501.5,-240 501.5,-259 554.5,-259 554.5,-240 501.5,-240"/>
<text text-anchor="middle" x="528" y="-247" font-family="Helvetica,sans-Serif" font-size="10.00" fill="#000000">Version</text>
</a>
</g>
</g>
<!-- Node18&#45;&gt;Node4 -->
<g id="edge17" class="edge">
<title>Node18&#45;&gt;Node4</title>
<path fill="none" stroke="#9a32cd" stroke-dasharray="5,2" d="M564.5708,-248.9617C605.2043,-250.0426 671.2391,-256.9484 718,-287.5 755.0697,-311.7199 778.921,-361.7331 787.7045,-382.8038"/>
<polygon fill="#9a32cd" stroke="#9a32cd" points="564.6217,-245.4621 554.5665,-248.8 564.5086,-252.4612 564.6217,-245.4621"/>
<text text-anchor="middle" x="662.5" y="-290.5" font-family="Helvetica,sans-Serif" font-size="10.00" fill="#000000"> VerP</text>
</g>
<!-- Node19 -->
<g id="node18" class="node">
<title>Node19</title>
<g id="a_node18"><a xlink:href="structpkgCache_1_1VerFile.xhtml" target="_top" xlink:title="associates a version with a PackageFile ">
<polygon fill="#ffffff" stroke="#000000" points="503.5,-202 503.5,-221 552.5,-221 552.5,-202 503.5,-202"/>
<text text-anchor="middle" x="528" y="-209" font-family="Helvetica,sans-Serif" font-size="10.00" fill="#000000">VerFile</text>
</a>
</g>
</g>
<!-- Node19&#45;&gt;Node4 -->
<g id="edge18" class="edge">
<title>Node19&#45;&gt;Node4</title>
<path fill="none" stroke="#9a32cd" stroke-dasharray="5,2" d="M562.6539,-206.7588C603.7449,-203.0675 672.3939,-203.2019 718,-236.5 768.7776,-273.5739 785.7073,-354.7978 790.1519,-382.7906"/>
<polygon fill="#9a32cd" stroke="#9a32cd" points="562.1742,-203.2895 552.583,-207.7904 562.8876,-210.2531 562.1742,-203.2895"/>
<text text-anchor="middle" x="662.5" y="-239.5" font-family="Helvetica,sans-Serif" font-size="10.00" fill="#000000"> VerFileP</text>
</g>
<!-- Node20 -->
<g id="node19" class="node">
<title>Node20</title>
<g id="a_node19"><a xlink:href="structpkgCache_1_1Package.xhtml" target="_top" xlink:title="contains information for a single unique package ">
<polygon fill="#ffffff" stroke="#000000" points="499.5,-164 499.5,-183 556.5,-183 556.5,-164 499.5,-164"/>
<text text-anchor="middle" x="528" y="-171" font-family="Helvetica,sans-Serif" font-size="10.00" fill="#000000">Package</text>
</a>
</g>
</g>
<!-- Node20&#45;&gt;Node4 -->
<g id="edge19" class="edge">
<title>Node20&#45;&gt;Node4</title>
<path fill="none" stroke="#9a32cd" stroke-dasharray="5,2" d="M566.858,-165.4855C608.6029,-159.2229 674.7581,-156.3734 718,-189.5 750.6555,-214.5166 781.3471,-345.8736 789.4351,-382.8223"/>
<polygon fill="#9a32cd" stroke="#9a32cd" points="566.1032,-162.0624 556.7996,-167.1314 567.2336,-168.9705 566.1032,-162.0624"/>
<text text-anchor="middle" x="662.5" y="-192.5" font-family="Helvetica,sans-Serif" font-size="10.00" fill="#000000"> PkgP</text>
</g>
<!-- Node21 -->
<g id="node20" class="node">
<title>Node21</title>
<g id="a_node20"><a xlink:href="classMMap.xhtml" target="_top" xlink:title="MMap">
<polygon fill="#ffffff" stroke="#000000" points="505.5,-126 505.5,-145 550.5,-145 550.5,-126 505.5,-126"/>
<text text-anchor="middle" x="528" y="-133" font-family="Helvetica,sans-Serif" font-size="10.00" fill="#000000">MMap</text>
</a>
</g>
</g>
<!-- Node21&#45;&gt;Node4 -->
<g id="edge20" class="edge">
<title>Node21&#45;&gt;Node4</title>
<path fill="none" stroke="#9a32cd" stroke-dasharray="5,2" d="M560.6038,-127.0836C601.9016,-118.5111 673.0842,-110.9778 718,-146.5 756.9822,-177.3296 783.8222,-341.1141 790.0941,-382.8275"/>
<polygon fill="#9a32cd" stroke="#9a32cd" points="559.7884,-123.6793 550.7824,-129.2599 561.3028,-130.5135 559.7884,-123.6793"/>
<text text-anchor="middle" x="662.5" y="-149.5" font-family="Helvetica,sans-Serif" font-size="10.00" fill="#000000"> Map</text>
</g>
<!-- Node22&#45;&gt;Node21 -->
<g id="edge21" class="edge">
<title>Node22&#45;&gt;Node21</title>
<path fill="none" stroke="#9a32cd" stroke-dasharray="5,2" d="M391.2616,-118.5088C424.6753,-122.6608 476.0218,-129.0412 505.3614,-132.6869"/>
<polygon fill="#9a32cd" stroke="#9a32cd" points="391.4491,-115.0053 381.0938,-117.2454 390.5859,-121.9519 391.4491,-115.0053"/>
<text text-anchor="middle" x="424" y="-129.5" font-family="Helvetica,sans-Serif" font-size="10.00" fill="#000000"> SyncToFd</text>
</g>
<!-- Node23 -->
<g id="node22" class="node">
<title>Node23</title>
<polygon fill="#ffffff" stroke="#bfbfbf" points="607,-87.5 607,-117.5 718,-117.5 718,-87.5 607,-87.5"/>
<text text-anchor="start" x="615" y="-105.5" font-family="Helvetica,sans-Serif" font-size="10.00" fill="#000000">vector&lt; pkgPolicy::</text>
<text text-anchor="middle" x="662.5" y="-94.5" font-family="Helvetica,sans-Serif" font-size="10.00" fill="#000000">Pin &gt;</text>
</g>
<!-- Node23&#45;&gt;Node2 -->
<g id="edge23" class="edge">
<title>Node23&#45;&gt;Node2</title>
<path fill="none" stroke="#9a32cd" stroke-dasharray="5,2" d="M728.2805,-103.1315C794.1073,-103.7634 892.6159,-104.7091 942.9261,-105.1921"/>
<polygon fill="#9a32cd" stroke="#9a32cd" points="728.0418,-99.6291 718.0086,-103.0329 727.9746,-106.6288 728.0418,-99.6291"/>
<text text-anchor="middle" x="791.5" y="-107.5" font-family="Helvetica,sans-Serif" font-size="10.00" fill="#000000"> Defaults</text>
</g>
<!-- Node24&#45;&gt;Node2 -->
<g id="edge26" class="edge">
<title>Node24&#45;&gt;Node2</title>
<path fill="none" stroke="#9a32cd" stroke-dasharray="5,2" d="M385.1625,-59.0512C444.5192,-53.9349 593.8745,-43.5377 718,-55.5 799.8934,-63.3923 894.457,-85.1191 942.8363,-97.1722"/>
<polygon fill="#9a32cd" stroke="#9a32cd" points="384.8049,-55.5691 375.153,-59.9385 385.423,-62.5417 384.8049,-55.5691"/>
<text text-anchor="middle" x="662.5" y="-69.5" font-family="Helvetica,sans-Serif" font-size="10.00" fill="#000000"> VerPins</text>
<text text-anchor="middle" x="662.5" y="-58.5" font-family="Helvetica,sans-Serif" font-size="10.00" fill="#000000">Pins</text>
</g>
<!-- Node24&#45;&gt;Node23 -->
<g id="edge24" class="edge">
<title>Node24&#45;&gt;Node23</title>
<path fill="none" stroke="#9a32cd" stroke-dasharray="5,2" d="M384.915,-70.0196C389.5674,-71.3351 394.3996,-72.5649 399,-73.5 469.9205,-87.9159 553.1359,-95.5637 606.7826,-99.3188"/>
<polygon fill="#9a32cd" stroke="#9a32cd" points="385.7617,-66.6193 375.1771,-67.0838 383.7411,-73.3214 385.7617,-66.6193"/>
<text text-anchor="middle" x="424" y="-85.5" font-family="Helvetica,sans-Serif" font-size="10.00" fill="#000000"> elements</text>
</g>
<!-- Node24&#45;&gt;Node26 -->
<g id="edge29" class="edge">
<title>Node24&#45;&gt;Node26</title>
<path fill="none" stroke="#191970" d="M385.0147,-52.7798C389.6564,-51.2998 394.4592,-49.8172 399,-48.5 434.7448,-38.1309 476.5518,-27.7519 502.658,-21.4767"/>
<polygon fill="#191970" stroke="#191970" points="383.7003,-49.5268 375.2749,-55.9504 385.8672,-56.183 383.7003,-49.5268"/>
</g>
<!-- Node25 -->
<g id="node24" class="node">
<title>Node25</title>
<polygon fill="#ffffff" stroke="#bfbfbf" points="736,-.5 736,-30.5 847,-30.5 847,-.5 736,-.5"/>
<text text-anchor="start" x="744" y="-18.5" font-family="Helvetica,sans-Serif" font-size="10.00" fill="#000000">vector&lt; pkgPolicy::</text>
<text text-anchor="middle" x="791.5" y="-7.5" font-family="Helvetica,sans-Serif" font-size="10.00" fill="#000000">PkgPin &gt;</text>
</g>
<!-- Node25&#45;&gt;Node2 -->
<g id="edge27" class="edge">
<title>Node25&#45;&gt;Node2</title>
<path fill="none" stroke="#9a32cd" stroke-dasharray="5,2" d="M857.1432,-14.4104C879.9925,-16.6367 904.9113,-22.2027 925,-34.5 948.9164,-49.1405 964.474,-79.9869 971.1938,-95.7614"/>
<polygon fill="#9a32cd" stroke="#9a32cd" points="857.3998,-10.9198 847.1576,-13.6304 856.8546,-17.8986 857.3998,-10.9198"/>
<text text-anchor="middle" x="895" y="-37.5" font-family="Helvetica,sans-Serif" font-size="10.00" fill="#000000"> Unmatched</text>
</g>
<!-- Node26&#45;&gt;Node25 -->
<g id="edge28" class="edge">
<title>Node26&#45;&gt;Node25</title>
<path fill="none" stroke="#9a32cd" stroke-dasharray="5,2" d="M563.5295,-15.5C607.7762,-15.5 683.8644,-15.5 735.8688,-15.5"/>
<polygon fill="#9a32cd" stroke="#9a32cd" points="563.2655,-12.0001 553.2655,-15.5 563.2655,-19.0001 563.2655,-12.0001"/>
<text text-anchor="middle" x="662.5" y="-18.5" font-family="Helvetica,sans-Serif" font-size="10.00" fill="#000000"> elements</text>
</g>
</g>
</svg>
        <g id="navigator" transform="translate(0 0)" fill="#404254">
                <rect fill="#f2f5e9" fill-opacity="0.5" stroke="#606060" stroke-width=".5" x="0" y="0" width="60" height="60"/>
                <use id="zoomplus" xlink:href="#zoomPlus" x="17" y="9" onmousedown="handleZoom(evt,'in')"/>
                <use id="zoomminus" xlink:href="#zoomMin" x="42" y="9" onmousedown="handleZoom(evt,'out')"/>
                <use id="reset" xlink:href="#resetDef" x="30" y="36" onmousedown="handleReset()"/>
                <g id="arrowUp" xlink:href="#dirArrow" transform="translate(30 24)" onmousedown="handlePan(0,-1)">
                  <use xlink:href="#rim" fill="#404040">
                        <set attributeName="fill" to="#808080" begin="arrowUp.mouseover" end="arrowUp.mouseout"/>
                  </use>
                  <path fill="none" stroke="white" stroke-width="1.5" d="M0,-3.0v7 M-2.5,-0.5L0,-3.0L2.5,-0.5"/>
                </g>
                <g id="arrowRight" xlink:href="#dirArrow" transform="rotate(90) translate(36 -43)" onmousedown="handlePan(1,0)">
                  <use xlink:href="#rim" fill="#404040">
                        <set attributeName="fill" to="#808080" begin="arrowRight.mouseover" end="arrowRight.mouseout"/>
                  </use>
                  <path fill="none" stroke="white" stroke-width="1.5" d="M0,-3.0v7 M-2.5,-0.5L0,-3.0L2.5,-0.5"/>
                </g>
                <g id="arrowDown" xlink:href="#dirArrow" transform="rotate(180) translate(-30 -48)" onmousedown="handlePan(0,1)">
                  <use xlink:href="#rim" fill="#404040">
                        <set attributeName="fill" to="#808080" begin="arrowDown.mouseover" end="arrowDown.mouseout"/>
                  </use>
                  <path fill="none" stroke="white" stroke-width="1.5" d="M0,-3.0v7 M-2.5,-0.5L0,-3.0L2.5,-0.5"/>
                </g>
                <g id="arrowLeft" xlink:href="#dirArrow" transform="rotate(270) translate(-36 17)" onmousedown="handlePan(-1,0)">
                  <use xlink:href="#rim" fill="#404040">
                        <set attributeName="fill" to="#808080" begin="arrowLeft.mouseover" end="arrowLeft.mouseout"/>
                  </use>
                  <path fill="none" stroke="white" stroke-width="1.5" d="M0,-3.0v7 M-2.5,-0.5L0,-3.0L2.5,-0.5"/>
                </g>
        </g>
        <svg viewBox="0 0 15 15" width="100%" height="30px" preserveAspectRatio="xMaxYMin meet">
         <g id="arrow_out" transform="scale(0.3 0.3)">
          <a xlink:href="classpkgPolicy__coll__graph_org.svg" target="_base">
           <rect id="button" ry="5" rx="5" y="6" x="6" height="38" width="38"
                fill="#f2f5e9" fill-opacity="0.5" stroke="#606060" stroke-width="1.0"/>
           <path id="arrow"
             d="M 11.500037,31.436501 C 11.940474,20.09759 22.043105,11.32322 32.158766,21.979434 L 37.068811,17.246167 C 37.068811,17.246167 37.088388,32 37.088388,32 L 22.160133,31.978069 C 22.160133,31.978069 26.997745,27.140456 26.997745,27.140456 C 18.528582,18.264221 13.291696,25.230495 11.500037,31.436501 z"
             style="fill:#404040;"/>
          </a>
         </g>
        </svg>
</svg>
