<?xml version="1.0" encoding="UTF-8" standalone="no"?>
<!DOCTYPE svg PUBLIC "-//W3C//DTD SVG 1.1//EN"
 "http://www.w3.org/Graphics/SVG/1.1/DTD/svg11.dtd">
<!-- Generated by graphviz version 2.40.1 (20161225.0304)
 -->
<!-- Title: pkgAcquire::Item Pages: 1 -->
<!--zoomable 577 -->
<svg id="main" version="1.1" xmlns="http://www.w3.org/2000/svg" xmlns:xlink="http://www.w3.org/1999/xlink" xml:space="preserve" onload="init(evt)">
<style type="text/css"><![CDATA[
.edge:hover path { stroke: red; }
.edge:hover polygon { stroke: red; fill: red; }
]]></style>
<script type="text/javascript"><![CDATA[
var edges = document.getElementsByTagName('g');
if (edges && edges.length) {
  for (var i=0;i<edges.length;i++) {
    if (edges[i].id.substr(0,4)=='edge') {
      edges[i].setAttribute('class','edge');
    }
  }
}
]]></script>
        <defs>
                <circle id="rim" cx="0" cy="0" r="7"/>
                <circle id="rim2" cx="0" cy="0" r="3.5"/>
                <g id="zoomPlus">
                        <use xlink:href="#rim" fill="#404040">
                                <set attributeName="fill" to="#808080" begin="zoomplus.mouseover" end="zoomplus.mouseout"/>
                        </use>
                        <path d="M-4,0h8M0,-4v8" fill="none" stroke="white" stroke-width="1.5" pointer-events="none"/>
                </g>
                <g id="zoomMin">
                        <use xlink:href="#rim" fill="#404040">
                                <set attributeName="fill" to="#808080" begin="zoomminus.mouseover" end="zoomminus.mouseout"/>
                        </use>
                        <path d="M-4,0h8" fill="none" stroke="white" stroke-width="1.5" pointer-events="none"/>
                </g>
                <g id="dirArrow">
                        <path fill="none" stroke="white" stroke-width="1.5" d="M0,-3.0v7 M-2.5,-0.5L0,-3.0L2.5,-0.5"/>
                </g>
               <g id="resetDef">
                       <use xlink:href="#rim2" fill="#404040">
                               <set attributeName="fill" to="#808080" begin="reset.mouseover" end="reset.mouseout"/>
                       </use>
               </g>
        </defs>

<script type="text/javascript">
var viewWidth = 866;
var viewHeight = 577;
var sectionId = 'dynsection-1';
</script>
<script xlink:href="svgpan.js"/>
<svg id="graph" class="graph">
<g id="viewport">
<title>pkgAcquire::Item</title>
<polygon fill="#ffffff" stroke="transparent" points="-4,4 -4,-573 861.5,-573 861.5,4 -4,4"/>
<!-- Node18 -->
<g id="node1" class="node">
<title>Node18</title>
<polygon fill="#bfbfbf" stroke="#000000" points="72.5,-386 72.5,-405 172.5,-405 172.5,-386 72.5,-386"/>
<text text-anchor="middle" x="122.5" y="-393" font-family="Helvetica,sans-Serif" font-size="10.00" fill="#000000">pkgAcquire::Item</text>
</g>
<!-- Node21 -->
<g id="node4" class="node">
<title>Node21</title>
<polygon fill="#ffffff" stroke="#bfbfbf" points="193,-292.5 193,-322.5 306,-322.5 306,-292.5 193,-292.5"/>
<text text-anchor="start" x="201" y="-310.5" font-family="Helvetica,sans-Serif" font-size="10.00" fill="#000000">vector&lt; pkgAcquire</text>
<text text-anchor="middle" x="249.5" y="-299.5" font-family="Helvetica,sans-Serif" font-size="10.00" fill="#000000">::Item *&gt;</text>
</g>
<!-- Node18&#45;&gt;Node21 -->
<g id="edge4" class="edge">
<title>Node18&#45;&gt;Node21</title>
<path fill="none" stroke="#9a32cd" stroke-dasharray="5,2" d="M151.7089,-381.4007C162.8979,-375.5796 175.5879,-368.4529 186.5,-361 203.5629,-349.3462 221.3636,-333.8752 233.6733,-322.5687"/>
<polygon fill="#9a32cd" stroke="#9a32cd" points="150.0639,-378.3106 142.7351,-385.9617 153.2356,-384.5508 150.0639,-378.3106"/>
<text text-anchor="middle" x="236" y="-348.5" font-family="Helvetica,sans-Serif" font-size="10.00" fill="#000000"> elements</text>
</g>
<!-- Node24 -->
<g id="node7" class="node">
<title>Node24</title>
<g id="a_node7"><a xlink:href="structpkgAcquire_1_1ItemDesc.xhtml" target="_top" xlink:title="Represents a single download source from which an item should be downloaded. ">
<polygon fill="#ffffff" stroke="#000000" points="40,-298 40,-317 103,-317 103,-298 40,-298"/>
<text text-anchor="middle" x="71.5" y="-305" font-family="Helvetica,sans-Serif" font-size="10.00" fill="#000000">ItemDesc</text>
</a>
</g>
</g>
<!-- Node18&#45;&gt;Node24 -->
<g id="edge12" class="edge">
<title>Node18&#45;&gt;Node24</title>
<path fill="none" stroke="#9a32cd" stroke-dasharray="5,2" d="M116.429,-376.098C112.6388,-365.3439 107.2045,-351.97 100.5,-341 95.1246,-332.2047 87.4309,-323.4384 81.3187,-317.0806"/>
<polygon fill="#9a32cd" stroke="#9a32cd" points="113.1771,-377.4107 119.6573,-385.7927 119.8185,-375.1991 113.1771,-377.4107"/>
<text text-anchor="middle" x="127" y="-348.5" font-family="Helvetica,sans-Serif" font-size="10.00" fill="#000000"> Owner</text>
</g>
<!-- Node19 -->
<g id="node2" class="node">
<title>Node19</title>
<g id="a_node2"><a xlink:href="classWeakPointable.xhtml" target="_top" xlink:title="WeakPointable">
<polygon fill="#ffffff" stroke="#000000" points="0,-492.5 0,-511.5 89,-511.5 89,-492.5 0,-492.5"/>
<text text-anchor="middle" x="44.5" y="-499.5" font-family="Helvetica,sans-Serif" font-size="10.00" fill="#000000">WeakPointable</text>
</a>
</g>
</g>
<!-- Node19&#45;&gt;Node18 -->
<g id="edge1" class="edge">
<title>Node19&#45;&gt;Node18</title>
<path fill="none" stroke="#191970" d="M57.2538,-483.4831C67.4283,-468.8369 82.1395,-447.9381 95.5,-430 101.8605,-421.4603 109.3391,-411.9429 114.8107,-405.0712"/>
<polygon fill="#191970" stroke="#191970" points="54.0955,-481.8964 51.2825,-492.111 59.8514,-485.88 54.0955,-481.8964"/>
</g>
<!-- Node19&#45;&gt;Node24 -->
<g id="edge9" class="edge">
<title>Node19&#45;&gt;Node24</title>
<path fill="none" stroke="#191970" d="M44.7519,-482.2572C45.4966,-451.6506 48.3879,-391.0598 59.5,-341 61.3207,-332.7978 64.5936,-323.8558 67.2619,-317.275"/>
<polygon fill="#191970" stroke="#191970" points="41.2492,-482.3703 44.559,-492.4349 48.248,-482.503 41.2492,-482.3703"/>
</g>
<!-- Node27 -->
<g id="node10" class="node">
<title>Node27</title>
<g id="a_node10"><a xlink:href="classpkgAcquire_1_1Worker.xhtml" target="_top" xlink:title="A fetch subprocess. ">
<polygon fill="#ffffff" stroke="#000000" points="430,-68.5 430,-87.5 481,-87.5 481,-68.5 430,-68.5"/>
<text text-anchor="middle" x="455.5" y="-75.5" font-family="Helvetica,sans-Serif" font-size="10.00" fill="#000000">Worker</text>
</a>
</g>
</g>
<!-- Node19&#45;&gt;Node27 -->
<g id="edge16" class="edge">
<title>Node19&#45;&gt;Node27</title>
<path fill="none" stroke="#191970" d="M36.7222,-482.8781C22.26,-444.0653 -4.2897,-354.4359 30.5,-292 68.5315,-223.7461 257.2372,-136.7165 329.5,-107 362.7161,-93.3406 403.6309,-85.4273 429.6459,-81.4132"/>
<polygon fill="#191970" stroke="#191970" points="33.5409,-484.355 40.4198,-492.413 40.0674,-481.824 33.5409,-484.355"/>
</g>
<!-- Node20 -->
<g id="node3" class="node">
<title>Node20</title>
<g id="a_node3"><a xlink:href="classpkgAcquire.xhtml" target="_top" xlink:title="The core download scheduler. {{{. ">
<polygon fill="#ffffff" stroke="#000000" points="369,-203.5 369,-222.5 440,-222.5 440,-203.5 369,-203.5"/>
<text text-anchor="middle" x="404.5" y="-210.5" font-family="Helvetica,sans-Serif" font-size="10.00" fill="#000000">pkgAcquire</text>
</a>
</g>
</g>
<!-- Node20&#45;&gt;Node18 -->
<g id="edge2" class="edge">
<title>Node20&#45;&gt;Node18</title>
<path fill="none" stroke="#9a32cd" stroke-dasharray="5,2" d="M358.6173,-220.5339C292.1455,-232.4956 174.2771,-258.0022 149.5,-292 131.4363,-316.786 158.4428,-331.9865 148.5,-361 145.2419,-370.5072 138.271,-379.5141 132.3667,-385.9396"/>
<polygon fill="#9a32cd" stroke="#9a32cd" points="359.5835,-223.9175 368.8221,-218.7312 358.3657,-217.0242 359.5835,-223.9175"/>
<text text-anchor="middle" x="167" y="-305" font-family="Helvetica,sans-Serif" font-size="10.00" fill="#000000"> Owner</text>
</g>
<!-- Node22 -->
<g id="node5" class="node">
<title>Node22</title>
<g id="a_node5"><a xlink:href="classpkgAcquire_1_1Queue.xhtml" target="_top" xlink:title="A single download queue in a pkgAcquire object. {{{. ">
<polygon fill="#ffffff" stroke="#000000" points="317.5,-136.5 317.5,-155.5 365.5,-155.5 365.5,-136.5 317.5,-136.5"/>
<text text-anchor="middle" x="341.5" y="-143.5" font-family="Helvetica,sans-Serif" font-size="10.00" fill="#000000">Queue</text>
</a>
</g>
</g>
<!-- Node20&#45;&gt;Node22 -->
<g id="edge6" class="edge">
<title>Node20&#45;&gt;Node22</title>
<path fill="none" stroke="#9a32cd" stroke-dasharray="5,2" d="M359.8851,-198.9512C353.8909,-195.2928 348.4561,-190.7153 344.5,-185 338.5479,-176.4012 338.6713,-164.0346 339.7145,-155.545"/>
<polygon fill="#9a32cd" stroke="#9a32cd" points="358.4747,-202.1629 368.9605,-203.679 361.7088,-195.9548 358.4747,-202.1629"/>
<text text-anchor="middle" x="362" y="-177" font-family="Helvetica,sans-Serif" font-size="10.00" fill="#000000"> Owner</text>
</g>
<!-- Node21&#45;&gt;Node20 -->
<g id="edge3" class="edge">
<title>Node21&#45;&gt;Node20</title>
<path fill="none" stroke="#9a32cd" stroke-dasharray="5,2" d="M282.9487,-287.0811C304.5124,-273.9205 333.1582,-256.4432 358.5,-241 368.5594,-234.8699 379.86,-227.9911 388.7431,-222.5857"/>
<polygon fill="#9a32cd" stroke="#9a32cd" points="280.8833,-284.2413 274.171,-292.4386 284.5302,-290.2163 280.8833,-284.2413"/>
<text text-anchor="middle" x="374" y="-255" font-family="Helvetica,sans-Serif" font-size="10.00" fill="#000000"> Items</text>
</g>
<!-- Node23 -->
<g id="node6" class="node">
<title>Node23</title>
<g id="a_node6"><a xlink:href="structpkgAcquire_1_1Queue_1_1QItem.xhtml" target="_top" xlink:title="A single item placed in this queue. ">
<polygon fill="#ffffff" stroke="#000000" points="280,-.5 280,-19.5 327,-19.5 327,-.5 280,-.5"/>
<text text-anchor="middle" x="303.5" y="-7.5" font-family="Helvetica,sans-Serif" font-size="10.00" fill="#000000">QItem</text>
</a>
</g>
</g>
<!-- Node21&#45;&gt;Node23 -->
<g id="edge13" class="edge">
<title>Node21&#45;&gt;Node23</title>
<path fill="none" stroke="#9a32cd" stroke-dasharray="5,2" d="M214.1908,-286.7876C190.8371,-270.1634 164.5,-244.4448 164.5,-213 164.5,-213 164.5,-213 164.5,-78 164.5,-52.6127 240.2632,-27.6473 279.9205,-16.3184"/>
<polygon fill="#9a32cd" stroke="#9a32cd" points="212.3648,-289.7781 222.6055,-292.4945 216.2939,-283.9848 212.3648,-289.7781"/>
<text text-anchor="middle" x="184.5" y="-143.5" font-family="Helvetica,sans-Serif" font-size="10.00" fill="#000000"> Owners</text>
</g>
<!-- Node22&#45;&gt;Node20 -->
<g id="edge5" class="edge">
<title>Node22&#45;&gt;Node20</title>
<path fill="none" stroke="#9a32cd" stroke-dasharray="5,2" d="M368.8747,-161.4079C374.1087,-165.1067 379.2678,-169.3497 383.5,-174 391.3675,-182.6447 397.2957,-194.7728 400.8139,-203.2002"/>
<polygon fill="#9a32cd" stroke="#9a32cd" points="370.4353,-158.2473 360.1461,-155.721 366.6141,-164.1124 370.4353,-158.2473"/>
<text text-anchor="middle" x="410.5" y="-177" font-family="Helvetica,sans-Serif" font-size="10.00" fill="#000000"> Queues</text>
</g>
<!-- Node22&#45;&gt;Node27 -->
<g id="edge17" class="edge">
<title>Node22&#45;&gt;Node27</title>
<path fill="none" stroke="#9a32cd" stroke-dasharray="5,2" d="M334.2142,-126.3839C332.9862,-119.6306 333.256,-112.4133 337.5,-107 348.7586,-92.6394 398.6888,-84.4443 429.8819,-80.6399"/>
<polygon fill="#9a32cd" stroke="#9a32cd" points="330.927,-127.6214 337.021,-136.2883 337.6618,-125.7129 330.927,-127.6214"/>
<text text-anchor="middle" x="359" y="-110" font-family="Helvetica,sans-Serif" font-size="10.00" fill="#000000"> OwnerQ</text>
</g>
<!-- Node23&#45;&gt;Node22 -->
<g id="edge7" class="edge">
<title>Node23&#45;&gt;Node22</title>
<path fill="none" stroke="#9a32cd" stroke-dasharray="5,2" d="M307.2032,-29.7092C311.551,-51.5751 319.4605,-87.7625 329.5,-118 331.5665,-124.2239 334.4465,-130.9878 336.8671,-136.3082"/>
<polygon fill="#9a32cd" stroke="#9a32cd" points="310.5999,-28.8394 305.2619,-19.6876 303.7276,-30.1707 310.5999,-28.8394"/>
<text text-anchor="middle" x="336" y="-75.5" font-family="Helvetica,sans-Serif" font-size="10.00" fill="#000000"> Items</text>
</g>
<!-- Node23&#45;&gt;Node23 -->
<g id="edge14" class="edge">
<title>Node23&#45;&gt;Node23</title>
<path fill="none" stroke="#9a32cd" stroke-dasharray="5,2" d="M337.5148,-15.294C342.0146,-14.3926 345,-12.6279 345,-10 345,-5.6875 336.9604,-3.6997 327.3819,-4.0366"/>
<polygon fill="#9a32cd" stroke="#9a32cd" points="337.1295,-11.8118 327.3819,-15.9634 337.5909,-18.7965 337.1295,-11.8118"/>
<text text-anchor="middle" x="358.5" y="-7.5" font-family="Helvetica,sans-Serif" font-size="10.00" fill="#000000"> Next</text>
</g>
<!-- Node23&#45;&gt;Node27 -->
<g id="edge22" class="edge">
<title>Node23&#45;&gt;Node27</title>
<path fill="none" stroke="#9a32cd" stroke-dasharray="5,2" d="M321.5193,-26.0783C331.067,-33.9081 343.3171,-42.9202 355.5,-49 379.4379,-60.946 409.1204,-68.772 429.9047,-73.2492"/>
<polygon fill="#9a32cd" stroke="#9a32cd" points="323.7829,-23.4087 313.8943,-19.6053 319.2527,-28.7452 323.7829,-23.4087"/>
<text text-anchor="middle" x="386.5" y="-41" font-family="Helvetica,sans-Serif" font-size="10.00" fill="#000000"> CurrentItem</text>
</g>
<!-- Node24&#45;&gt;Node18 -->
<g id="edge35" class="edge">
<title>Node24&#45;&gt;Node18</title>
<path fill="none" stroke="#9a32cd" stroke-dasharray="5,2" d="M65.5432,-327.2583C63.4949,-337.8719 62.9274,-350.8269 68.5,-361 74.6998,-372.3182 86.3685,-380.4629 97.2769,-385.9862"/>
<polygon fill="#9a32cd" stroke="#9a32cd" points="69.0127,-327.8082 68.0186,-317.2601 62.2178,-326.1259 69.0127,-327.8082"/>
<text text-anchor="middle" x="82.5" y="-348.5" font-family="Helvetica,sans-Serif" font-size="10.00" fill="#000000"> Desc</text>
</g>
<!-- Node24&#45;&gt;Node23 -->
<g id="edge8" class="edge">
<title>Node24&#45;&gt;Node23</title>
<path fill="none" stroke="#191970" d="M79.373,-288.276C86.3706,-269.4323 95.5,-239.7263 95.5,-213 95.5,-213 95.5,-213 95.5,-78 95.5,-39.6282 225.0049,-19.4738 279.6398,-12.6784"/>
<polygon fill="#191970" stroke="#191970" points="76.0414,-287.1866 75.6805,-297.7753 82.5658,-289.7228 76.0414,-287.1866"/>
</g>
<!-- Node25 -->
<g id="node8" class="node">
<title>Node25</title>
<g id="a_node8"><a xlink:title="STL class. ">
<polygon fill="#ffffff" stroke="#bfbfbf" points="381.5,-492.5 381.5,-511.5 425.5,-511.5 425.5,-492.5 381.5,-492.5"/>
<text text-anchor="middle" x="403.5" y="-499.5" font-family="Helvetica,sans-Serif" font-size="10.00" fill="#000000">string</text>
</a>
</g>
</g>
<!-- Node25&#45;&gt;Node18 -->
<g id="edge34" class="edge">
<title>Node25&#45;&gt;Node18</title>
<path fill="none" stroke="#9a32cd" stroke-dasharray="5,2" d="M371.1866,-501.2173C300.1198,-499.1622 135.2148,-492.4375 118.5,-474 101.269,-454.9932 111.5033,-421.567 118.156,-405.1505"/>
<polygon fill="#9a32cd" stroke="#9a32cd" points="371.2639,-504.7207 381.3566,-501.4979 371.457,-497.7234 371.2639,-504.7207"/>
<text text-anchor="middle" x="163.5" y="-466" font-family="Helvetica,sans-Serif" font-size="10.00" fill="#000000"> ActiveSubprocess</text>
<text text-anchor="middle" x="163.5" y="-455" font-family="Helvetica,sans-Serif" font-size="10.00" fill="#000000">DestFile</text>
<text text-anchor="middle" x="163.5" y="-444" font-family="Helvetica,sans-Serif" font-size="10.00" fill="#000000">ErrorText</text>
<text text-anchor="middle" x="163.5" y="-433" font-family="Helvetica,sans-Serif" font-size="10.00" fill="#000000">UsedMirror</text>
</g>
<!-- Node25&#45;&gt;Node20 -->
<g id="edge31" class="edge">
<title>Node25&#45;&gt;Node20</title>
<path fill="none" stroke="#9a32cd" stroke-dasharray="5,2" d="M403.5684,-482.2386C403.7645,-425.5576 404.324,-263.8634 404.4666,-222.6517"/>
<polygon fill="#9a32cd" stroke="#9a32cd" points="400.068,-482.3724 403.5333,-492.3845 407.068,-482.3967 400.068,-482.3724"/>
<text text-anchor="middle" x="416.5" y="-348.5" font-family="Helvetica,sans-Serif" font-size="10.00" fill="#000000"> Lock</text>
</g>
<!-- Node25&#45;&gt;Node22 -->
<g id="edge28" class="edge">
<title>Node25&#45;&gt;Node22</title>
<path fill="none" stroke="#9a32cd" stroke-dasharray="5,2" d="M395.2089,-482.7788C379.0419,-444.1316 343.8122,-353.8749 331.5,-274 329.2656,-259.5045 331.0628,-255.6601 331.5,-241 332.3893,-211.1825 331.4744,-203.5579 335.5,-174 336.3453,-167.7933 337.812,-160.9133 339.0837,-155.5264"/>
<polygon fill="#9a32cd" stroke="#9a32cd" points="392.1025,-484.4188 399.2284,-492.2592 398.5472,-481.6863 392.1025,-484.4188"/>
<text text-anchor="middle" x="357" y="-305" font-family="Helvetica,sans-Serif" font-size="10.00" fill="#000000"> Name</text>
</g>
<!-- Node25&#45;&gt;Node24 -->
<g id="edge10" class="edge">
<title>Node25&#45;&gt;Node24</title>
<path fill="none" stroke="#9a32cd" stroke-dasharray="5,2" d="M371.9403,-492.4127C358.2079,-487.6898 342.1663,-481.4098 328.5,-474 241.0568,-426.5888 234.6548,-390.7139 148.5,-341 132.2111,-331.6008 112.7864,-323.1679 97.5223,-317.1141"/>
<polygon fill="#9a32cd" stroke="#9a32cd" points="370.871,-495.7455 381.4644,-495.5705 373.074,-489.1012 370.871,-495.7455"/>
<text text-anchor="middle" x="270" y="-404" font-family="Helvetica,sans-Serif" font-size="10.00" fill="#000000"> Description</text>
<text text-anchor="middle" x="270" y="-393" font-family="Helvetica,sans-Serif" font-size="10.00" fill="#000000">URI</text>
<text text-anchor="middle" x="270" y="-382" font-family="Helvetica,sans-Serif" font-size="10.00" fill="#000000">ShortDesc</text>
</g>
<!-- Node25&#45;&gt;Node27 -->
<g id="edge23" class="edge">
<title>Node25&#45;&gt;Node27</title>
<path fill="none" stroke="#9a32cd" stroke-dasharray="5,2" d="M436.2455,-497.6687C514.9944,-486.3395 708.5,-452.6829 708.5,-395.5 708.5,-395.5 708.5,-395.5 708.5,-146 708.5,-99.2668 545.4712,-83.7443 481.1513,-79.4387"/>
<polygon fill="#9a32cd" stroke="#9a32cd" points="435.3427,-494.2611 425.9274,-499.1193 436.3173,-501.193 435.3427,-494.2611"/>
<text text-anchor="middle" x="734.5" y="-266" font-family="Helvetica,sans-Serif" font-size="10.00" fill="#000000"> OutQueue</text>
<text text-anchor="middle" x="734.5" y="-255" font-family="Helvetica,sans-Serif" font-size="10.00" fill="#000000">Access</text>
<text text-anchor="middle" x="734.5" y="-244" font-family="Helvetica,sans-Serif" font-size="10.00" fill="#000000">Status</text>
</g>
<!-- Node28 -->
<g id="node11" class="node">
<title>Node28</title>
<g id="a_node11"><a xlink:href="structpkgAcquire_1_1MethodConfig.xhtml" target="_top" xlink:title="Information about the properties of a single acquire method. {{{. ">
<polygon fill="#ffffff" stroke="#000000" points="552,-298 552,-317 635,-317 635,-298 552,-298"/>
<text text-anchor="middle" x="593.5" y="-305" font-family="Helvetica,sans-Serif" font-size="10.00" fill="#000000">MethodConfig</text>
</a>
</g>
</g>
<!-- Node25&#45;&gt;Node28 -->
<g id="edge20" class="edge">
<title>Node25&#45;&gt;Node28</title>
<path fill="none" stroke="#9a32cd" stroke-dasharray="5,2" d="M435.5151,-492.862C472.6375,-480.5965 533.0034,-455.1978 566.5,-412 589.0055,-382.9766 592.8763,-337.1393 593.4546,-317.2474"/>
<polygon fill="#9a32cd" stroke="#9a32cd" points="434.1748,-489.6153 425.7027,-495.9771 436.293,-496.2871 434.1748,-489.6153"/>
<text text-anchor="middle" x="601" y="-398.5" font-family="Helvetica,sans-Serif" font-size="10.00" fill="#000000"> Access</text>
<text text-anchor="middle" x="601" y="-387.5" font-family="Helvetica,sans-Serif" font-size="10.00" fill="#000000">Version</text>
</g>
<!-- Node31 -->
<g id="node14" class="node">
<title>Node31</title>
<polygon fill="#ffffff" stroke="#bfbfbf" points="724,-341.5 724,-360.5 843,-360.5 843,-341.5 724,-341.5"/>
<text text-anchor="middle" x="783.5" y="-348.5" font-family="Helvetica,sans-Serif" font-size="10.00" fill="#000000">vector&lt; std::string &gt;</text>
</g>
<!-- Node25&#45;&gt;Node31 -->
<g id="edge26" class="edge">
<title>Node25&#45;&gt;Node31</title>
<path fill="none" stroke="#9a32cd" stroke-dasharray="5,2" d="M435.9129,-500.9401C512.3488,-498.1892 699.2027,-489.9036 722.5,-474 762.6603,-446.5851 777.5507,-384.7565 781.9429,-360.7698"/>
<polygon fill="#9a32cd" stroke="#9a32cd" points="435.7599,-497.4432 425.8888,-501.2918 436.0054,-504.4389 435.7599,-497.4432"/>
<text text-anchor="middle" x="782" y="-449.5" font-family="Helvetica,sans-Serif" font-size="10.00" fill="#000000"> elements</text>
</g>
<!-- Node26 -->
<g id="node9" class="node">
<title>Node26</title>
<g id="a_node9"><a xlink:title="STL class. ">
<polygon fill="#ffffff" stroke="#bfbfbf" points="344,-549.5 344,-568.5 463,-568.5 463,-549.5 344,-549.5"/>
<text text-anchor="middle" x="403.5" y="-556.5" font-family="Helvetica,sans-Serif" font-size="10.00" fill="#000000">basic_string&lt; char &gt;</text>
</a>
</g>
</g>
<!-- Node26&#45;&gt;Node25 -->
<g id="edge11" class="edge">
<title>Node26&#45;&gt;Node25</title>
<path fill="none" stroke="#191970" d="M403.5,-539.2342C403.5,-529.8491 403.5,-519.0651 403.5,-511.5265"/>
<polygon fill="#191970" stroke="#191970" points="400.0001,-539.3307 403.5,-549.3307 407.0001,-539.3308 400.0001,-539.3307"/>
</g>
<!-- Node27&#45;&gt;Node20 -->
<g id="edge33" class="edge">
<title>Node27&#45;&gt;Node20</title>
<path fill="none" stroke="#9a32cd" stroke-dasharray="5,2" d="M455.2128,-97.8212C454.1021,-120.2891 449.8374,-157.3755 434.5,-185 430.5576,-192.1008 424.1773,-198.4299 418.3121,-203.2666"/>
<polygon fill="#9a32cd" stroke="#9a32cd" points="458.7205,-97.6407 455.5481,-87.532 451.7242,-97.4126 458.7205,-97.6407"/>
<text text-anchor="middle" x="472" y="-143.5" font-family="Helvetica,sans-Serif" font-size="10.00" fill="#000000"> Workers</text>
</g>
<!-- Node27&#45;&gt;Node22 -->
<g id="edge29" class="edge">
<title>Node27&#45;&gt;Node22</title>
<path fill="none" stroke="#9a32cd" stroke-dasharray="5,2" d="M428.7711,-92.5526C420.6083,-97.0916 411.6402,-102.1745 403.5,-107 387.0919,-116.7268 368.626,-128.4446 356.1471,-136.4808"/>
<polygon fill="#9a32cd" stroke="#9a32cd" points="430.4951,-95.5989 437.5581,-87.7017 427.112,-89.4707 430.4951,-95.5989"/>
<text text-anchor="middle" x="425" y="-110" font-family="Helvetica,sans-Serif" font-size="10.00" fill="#000000"> Workers</text>
</g>
<!-- Node27&#45;&gt;Node23 -->
<g id="edge15" class="edge">
<title>Node27&#45;&gt;Node23</title>
<path fill="none" stroke="#9a32cd" stroke-dasharray="5,2" d="M444.0219,-59.9049C438.1789,-52.0727 430.4217,-43.4656 421.5,-38 405.8353,-28.4036 356.6992,-18.8801 327.001,-13.7888"/>
<polygon fill="#9a32cd" stroke="#9a32cd" points="441.1987,-61.9759 449.7656,-68.2097 446.9559,-57.9942 441.1987,-61.9759"/>
<text text-anchor="middle" x="453.5" y="-41" font-family="Helvetica,sans-Serif" font-size="10.00" fill="#000000"> Worker</text>
</g>
<!-- Node27&#45;&gt;Node27 -->
<g id="edge27" class="edge">
<title>Node27&#45;&gt;Node27</title>
<path fill="none" stroke="#9a32cd" stroke-dasharray="5,2" d="M491.5602,-83.5393C496.0495,-82.5577 499,-80.7112 499,-78 499,-73.5508 491.0544,-71.4305 481.4017,-71.639"/>
<polygon fill="#9a32cd" stroke="#9a32cd" points="491.0869,-80.0661 481.4017,-84.361 491.6514,-87.0433 491.0869,-80.0661"/>
<text text-anchor="middle" x="529.5" y="-81" font-family="Helvetica,sans-Serif" font-size="10.00" fill="#000000"> NextQueue</text>
<text text-anchor="middle" x="529.5" y="-70" font-family="Helvetica,sans-Serif" font-size="10.00" fill="#000000">NextAcquire</text>
</g>
<!-- Node28&#45;&gt;Node20 -->
<g id="edge30" class="edge">
<title>Node28&#45;&gt;Node20</title>
<path fill="none" stroke="#9a32cd" stroke-dasharray="5,2" d="M569.7864,-292.4596C546.7409,-278.1932 510.4889,-256.6676 477.5,-241 462.9091,-234.0702 446.1093,-227.5327 432.3071,-222.5202"/>
<polygon fill="#9a32cd" stroke="#9a32cd" points="568.1803,-295.5829 578.5168,-297.9087 571.8867,-289.6447 568.1803,-295.5829"/>
<text text-anchor="middle" x="558.5" y="-255" font-family="Helvetica,sans-Serif" font-size="10.00" fill="#000000"> Configs</text>
</g>
<!-- Node28&#45;&gt;Node27 -->
<g id="edge18" class="edge">
<title>Node28&#45;&gt;Node27</title>
<path fill="none" stroke="#9a32cd" stroke-dasharray="5,2" d="M592.2734,-287.6177C590.9478,-274.1154 588.1973,-256.0478 582.5,-241 557.6115,-175.2641 547.3651,-157.5256 498.5,-107 491.1134,-99.3624 481.4004,-92.6043 473.075,-87.5376"/>
<polygon fill="#9a32cd" stroke="#9a32cd" points="588.7953,-288.0319 593.0852,-297.7194 595.7728,-287.4711 588.7953,-288.0319"/>
<text text-anchor="middle" x="575.5" y="-177" font-family="Helvetica,sans-Serif" font-size="10.00" fill="#000000"> Config</text>
</g>
<!-- Node28&#45;&gt;Node28 -->
<g id="edge19" class="edge">
<title>Node28&#45;&gt;Node28</title>
<path fill="none" stroke="#9a32cd" stroke-dasharray="5,2" d="M645.319,-313.7581C650.0342,-312.4571 653,-310.3711 653,-307.5 653,-302.9063 645.4076,-300.3223 635.2052,-299.748"/>
<polygon fill="#9a32cd" stroke="#9a32cd" points="644.5864,-310.3282 635.2052,-315.252 645.6093,-317.2531 644.5864,-310.3282"/>
<text text-anchor="middle" x="666.5" y="-305" font-family="Helvetica,sans-Serif" font-size="10.00" fill="#000000"> Next</text>
</g>
<!-- Node29 -->
<g id="node12" class="node">
<title>Node29</title>
<g id="a_node12"><a xlink:href="classpkgAcquire_1_1MethodConfig_1_1Private.xhtml" target="_top" xlink:title="Private">
<polygon fill="#ffffff" stroke="#000000" points="506,-386 506,-405 557,-405 557,-386 506,-386"/>
<text text-anchor="middle" x="531.5" y="-393" font-family="Helvetica,sans-Serif" font-size="10.00" fill="#000000">Private</text>
</a>
</g>
</g>
<!-- Node29&#45;&gt;Node28 -->
<g id="edge21" class="edge">
<title>Node29&#45;&gt;Node28</title>
<path fill="none" stroke="#9a32cd" stroke-dasharray="5,2" d="M544.0413,-377.3897C551.4203,-366.7651 560.9523,-353.0937 569.5,-341 575.1986,-332.9374 581.7275,-323.8326 586.5356,-317.1521"/>
<polygon fill="#9a32cd" stroke="#9a32cd" points="541.0133,-375.6143 538.1898,-385.826 546.7651,-379.6039 541.0133,-375.6143"/>
<text text-anchor="middle" x="574.5" y="-348.5" font-family="Helvetica,sans-Serif" font-size="10.00" fill="#000000"> d</text>
</g>
<!-- Node30 -->
<g id="node13" class="node">
<title>Node30</title>
<g id="a_node13"><a xlink:href="classpkgAcquireStatus.xhtml" target="_top" xlink:title="A monitor object for downloads controlled by the pkgAcquire class. {{{. ">
<polygon fill="#ffffff" stroke="#000000" points="431.5,-298 431.5,-317 533.5,-317 533.5,-298 431.5,-298"/>
<text text-anchor="middle" x="482.5" y="-305" font-family="Helvetica,sans-Serif" font-size="10.00" fill="#000000">pkgAcquireStatus</text>
</a>
</g>
</g>
<!-- Node30&#45;&gt;Node20 -->
<g id="edge32" class="edge">
<title>Node30&#45;&gt;Node20</title>
<path fill="none" stroke="#9a32cd" stroke-dasharray="5,2" d="M468.0776,-290.0267C451.6595,-270.1356 425.433,-238.3611 412.3936,-222.5634"/>
<polygon fill="#9a32cd" stroke="#9a32cd" points="465.3814,-292.2585 474.4464,-297.7428 470.78,-287.8025 465.3814,-292.2585"/>
<text text-anchor="middle" x="463" y="-255" font-family="Helvetica,sans-Serif" font-size="10.00" fill="#000000"> Log</text>
</g>
<!-- Node30&#45;&gt;Node27 -->
<g id="edge24" class="edge">
<title>Node30&#45;&gt;Node27</title>
<path fill="none" stroke="#9a32cd" stroke-dasharray="5,2" d="M488.9564,-288.3621C498.8052,-256.0814 514.7177,-189.1331 497.5,-136 491.2147,-116.604 475.7457,-98.2559 465.439,-87.5732"/>
<polygon fill="#9a32cd" stroke="#9a32cd" points="485.6153,-287.3196 485.9055,-297.9105 492.2832,-289.4502 485.6153,-287.3196"/>
<text text-anchor="middle" x="515" y="-177" font-family="Helvetica,sans-Serif" font-size="10.00" fill="#000000"> Log</text>
</g>
<!-- Node31&#45;&gt;Node27 -->
<g id="edge25" class="edge">
<title>Node31&#45;&gt;Node27</title>
<path fill="none" stroke="#9a32cd" stroke-dasharray="5,2" d="M782.1737,-331.4021C781.0093,-312.491 779.5,-283.0498 779.5,-257.5 779.5,-257.5 779.5,-257.5 779.5,-146 779.5,-115.3044 751.291,-117.6442 722.5,-107 678.5476,-90.7506 539.0166,-82.1402 481.0907,-79.1905"/>
<polygon fill="#9a32cd" stroke="#9a32cd" points="778.6852,-331.6951 782.8215,-341.4491 785.6707,-331.2446 778.6852,-331.6951"/>
<text text-anchor="middle" x="818.5" y="-210.5" font-family="Helvetica,sans-Serif" font-size="10.00" fill="#000000"> MessageQueue</text>
</g>
</g>
</svg>
        <g id="navigator" transform="translate(0 0)" fill="#404254">
                <rect fill="#f2f5e9" fill-opacity="0.5" stroke="#606060" stroke-width=".5" x="0" y="0" width="60" height="60"/>
                <use id="zoomplus" xlink:href="#zoomPlus" x="17" y="9" onmousedown="handleZoom(evt,'in')"/>
                <use id="zoomminus" xlink:href="#zoomMin" x="42" y="9" onmousedown="handleZoom(evt,'out')"/>
                <use id="reset" xlink:href="#resetDef" x="30" y="36" onmousedown="handleReset()"/>
                <g id="arrowUp" xlink:href="#dirArrow" transform="translate(30 24)" onmousedown="handlePan(0,-1)">
                  <use xlink:href="#rim" fill="#404040">
                        <set attributeName="fill" to="#808080" begin="arrowUp.mouseover" end="arrowUp.mouseout"/>
                  </use>
                  <path fill="none" stroke="white" stroke-width="1.5" d="M0,-3.0v7 M-2.5,-0.5L0,-3.0L2.5,-0.5"/>
                </g>
                <g id="arrowRight" xlink:href="#dirArrow" transform="rotate(90) translate(36 -43)" onmousedown="handlePan(1,0)">
                  <use xlink:href="#rim" fill="#404040">
                        <set attributeName="fill" to="#808080" begin="arrowRight.mouseover" end="arrowRight.mouseout"/>
                  </use>
                  <path fill="none" stroke="white" stroke-width="1.5" d="M0,-3.0v7 M-2.5,-0.5L0,-3.0L2.5,-0.5"/>
                </g>
                <g id="arrowDown" xlink:href="#dirArrow" transform="rotate(180) translate(-30 -48)" onmousedown="handlePan(0,1)">
                  <use xlink:href="#rim" fill="#404040">
                        <set attributeName="fill" to="#808080" begin="arrowDown.mouseover" end="arrowDown.mouseout"/>
                  </use>
                  <path fill="none" stroke="white" stroke-width="1.5" d="M0,-3.0v7 M-2.5,-0.5L0,-3.0L2.5,-0.5"/>
                </g>
                <g id="arrowLeft" xlink:href="#dirArrow" transform="rotate(270) translate(-36 17)" onmousedown="handlePan(-1,0)">
                  <use xlink:href="#rim" fill="#404040">
                        <set attributeName="fill" to="#808080" begin="arrowLeft.mouseover" end="arrowLeft.mouseout"/>
                  </use>
                  <path fill="none" stroke="white" stroke-width="1.5" d="M0,-3.0v7 M-2.5,-0.5L0,-3.0L2.5,-0.5"/>
                </g>
        </g>
        <svg viewBox="0 0 15 15" width="100%" height="30px" preserveAspectRatio="xMaxYMin meet">
         <g id="arrow_out" transform="scale(0.3 0.3)">
          <a xlink:href="classpkgAcquire_1_1Item__coll__graph_org.svg" target="_base">
           <rect id="button" ry="5" rx="5" y="6" x="6" height="38" width="38"
                fill="#f2f5e9" fill-opacity="0.5" stroke="#606060" stroke-width="1.0"/>
           <path id="arrow"
             d="M 11.500037,31.436501 C 11.940474,20.09759 22.043105,11.32322 32.158766,21.979434 L 37.068811,17.246167 C 37.068811,17.246167 37.088388,32 37.088388,32 L 22.160133,31.978069 C 22.160133,31.978069 26.997745,27.140456 26.997745,27.140456 C 18.528582,18.264221 13.291696,25.230495 11.500037,31.436501 z"
             style="fill:#404040;"/>
          </a>
         </g>
        </svg>
</svg>
