<?xml version="1.0" encoding="UTF-8" standalone="no"?>
<!DOCTYPE svg PUBLIC "-//W3C//DTD SVG 1.1//EN"
 "http://www.w3.org/Graphics/SVG/1.1/DTD/svg11.dtd">
<!-- Generated by graphviz version 2.40.1 (20161225.0304)
 -->
<!-- Title: pkgAcquire::Worker Pages: 1 -->
<svg width="859pt" height="637pt"
 viewBox="0.00 0.00 858.50 637.00" xmlns="http://www.w3.org/2000/svg" xmlns:xlink="http://www.w3.org/1999/xlink">
<g id="graph0" class="graph" transform="scale(1 1) rotate(0) translate(4 633)">
<title>pkgAcquire::Worker</title>
<polygon fill="#ffffff" stroke="transparent" points="-4,4 -4,-633 854.5,-633 854.5,4 -4,4"/>
<!-- Node2 -->
<g id="node1" class="node">
<title>Node2</title>
<polygon fill="#bfbfbf" stroke="#000000" points="221.5,-393.5 221.5,-412.5 333.5,-412.5 333.5,-393.5 221.5,-393.5"/>
<text text-anchor="middle" x="277.5" y="-400.5" font-family="Helvetica,sans-Serif" font-size="10.00" fill="#000000">pkgAcquire::Worker</text>
</g>
<!-- Node2&#45;&gt;Node2 -->
<g id="edge35" class="edge">
<title>Node2&#45;&gt;Node2</title>
<path fill="none" stroke="#9a32cd" stroke-dasharray="5,2" d="M343.8989,-407.6737C348.618,-406.6123 351.5,-405.0544 351.5,-403 351.5,-399.7129 344.1221,-397.697 333.6461,-396.9522"/>
<polygon fill="#9a32cd" stroke="#9a32cd" points="343.0926,-404.2503 333.6461,-409.0478 344.0225,-411.1883 343.0926,-404.2503"/>
<text text-anchor="middle" x="382" y="-406" font-family="Helvetica,sans-Serif" font-size="10.00" fill="#000000"> NextQueue</text>
<text text-anchor="middle" x="382" y="-395" font-family="Helvetica,sans-Serif" font-size="10.00" fill="#000000">NextAcquire</text>
</g>
<!-- Node4 -->
<g id="node3" class="node">
<title>Node4</title>
<g id="a_node3"><a xlink:href="classpkgAcquire_1_1Queue.xhtml" target="_top" xlink:title="A single download queue in a pkgAcquire object. {{{. ">
<polygon fill="#ffffff" stroke="#000000" points="242.5,-286 242.5,-305 290.5,-305 290.5,-286 242.5,-286"/>
<text text-anchor="middle" x="266.5" y="-293" font-family="Helvetica,sans-Serif" font-size="10.00" fill="#000000">Queue</text>
</a>
</g>
</g>
<!-- Node2&#45;&gt;Node4 -->
<g id="edge28" class="edge">
<title>Node2&#45;&gt;Node4</title>
<path fill="none" stroke="#9a32cd" stroke-dasharray="5,2" d="M291.5966,-384.8902C293.6159,-381.4424 295.3845,-377.7382 296.5,-374 302.092,-355.261 303.35,-348.3166 296.5,-330 292.83,-320.1865 284.9686,-311.3207 278.2139,-305.0343"/>
<polygon fill="#9a32cd" stroke="#9a32cd" points="288.637,-383.0188 285.9415,-393.2651 294.4383,-386.9361 288.637,-383.0188"/>
<text text-anchor="middle" x="322" y="-349.5" font-family="Helvetica,sans-Serif" font-size="10.00" fill="#000000"> Workers</text>
</g>
<!-- Node5 -->
<g id="node4" class="node">
<title>Node5</title>
<g id="a_node4"><a xlink:href="classpkgAcquire.xhtml" target="_top" xlink:title="The core download scheduler. {{{. ">
<polygon fill="#ffffff" stroke="#000000" points="358,-212.5 358,-231.5 429,-231.5 429,-212.5 358,-212.5"/>
<text text-anchor="middle" x="393.5" y="-219.5" font-family="Helvetica,sans-Serif" font-size="10.00" fill="#000000">pkgAcquire</text>
</a>
</g>
</g>
<!-- Node2&#45;&gt;Node5 -->
<g id="edge21" class="edge">
<title>Node2&#45;&gt;Node5</title>
<path fill="none" stroke="#9a32cd" stroke-dasharray="5,2" d="M326.5226,-389.316C334.3306,-385.3886 341.7243,-380.3771 347.5,-374 385.9969,-331.4946 392.3035,-257.7167 393.3151,-231.5444"/>
<polygon fill="#9a32cd" stroke="#9a32cd" points="324.9531,-386.1834 317.2385,-393.4454 327.7979,-392.5793 324.9531,-386.1834"/>
<text text-anchor="middle" x="409" y="-293" font-family="Helvetica,sans-Serif" font-size="10.00" fill="#000000"> Workers</text>
</g>
<!-- Node14 -->
<g id="node13" class="node">
<title>Node14</title>
<g id="a_node13"><a xlink:href="structpkgAcquire_1_1Queue_1_1QItem.xhtml" target="_top" xlink:title="A single item placed in this queue. ">
<polygon fill="#ffffff" stroke="#000000" points="224,-.5 224,-19.5 271,-19.5 271,-.5 224,-.5"/>
<text text-anchor="middle" x="247.5" y="-7.5" font-family="Helvetica,sans-Serif" font-size="10.00" fill="#000000">QItem</text>
</a>
</g>
</g>
<!-- Node2&#45;&gt;Node14 -->
<g id="edge26" class="edge">
<title>Node2&#45;&gt;Node14</title>
<path fill="none" stroke="#9a32cd" stroke-dasharray="5,2" d="M211.2268,-397.7236C171.1456,-393.3848 124.7422,-385.9607 108.5,-374 76.9696,-350.7811 68.5,-334.6572 68.5,-295.5 68.5,-295.5 68.5,-295.5 68.5,-82.5 68.5,-49.3905 175.0387,-24.2168 223.7302,-14.4406"/>
<polygon fill="#9a32cd" stroke="#9a32cd" points="210.9514,-401.2137 221.2585,-398.7611 211.6716,-394.2509 210.9514,-401.2137"/>
<text text-anchor="middle" x="87.5" y="-186" font-family="Helvetica,sans-Serif" font-size="10.00" fill="#000000"> Worker</text>
</g>
<!-- Node3 -->
<g id="node2" class="node">
<title>Node3</title>
<g id="a_node2"><a xlink:href="classWeakPointable.xhtml" target="_top" xlink:title="WeakPointable">
<polygon fill="#ffffff" stroke="#000000" points="569,-468 569,-487 658,-487 658,-468 569,-468"/>
<text text-anchor="middle" x="613.5" y="-475" font-family="Helvetica,sans-Serif" font-size="10.00" fill="#000000">WeakPointable</text>
</a>
</g>
</g>
<!-- Node3&#45;&gt;Node2 -->
<g id="edge1" class="edge">
<title>Node3&#45;&gt;Node2</title>
<path fill="none" stroke="#191970" d="M560.7653,-465.8073C494.4152,-451.0958 381.7484,-426.1146 320.4056,-412.5133"/>
<polygon fill="#191970" stroke="#191970" points="560.0835,-469.2411 570.6041,-467.9889 561.5989,-462.4071 560.0835,-469.2411"/>
</g>
<!-- Node7 -->
<g id="node6" class="node">
<title>Node7</title>
<g id="a_node6"><a xlink:href="classpkgAcquire_1_1Item.xhtml" target="_top" xlink:title="Represents the process by which a pkgAcquire object should retrieve a file or a collection of files...">
<polygon fill="#ffffff" stroke="#000000" points="539,-145.5 539,-164.5 578,-164.5 578,-145.5 539,-145.5"/>
<text text-anchor="middle" x="558.5" y="-152.5" font-family="Helvetica,sans-Serif" font-size="10.00" fill="#000000">Item</text>
</a>
</g>
</g>
<!-- Node3&#45;&gt;Node7 -->
<g id="edge6" class="edge">
<title>Node3&#45;&gt;Node7</title>
<path fill="none" stroke="#191970" d="M605.688,-457.9978C600.448,-443.1657 594.5,-422.119 594.5,-403 594.5,-403 594.5,-403 594.5,-222 594.5,-199.2879 578.249,-176.8503 567.5843,-164.571"/>
<polygon fill="#191970" stroke="#191970" points="602.4942,-459.4493 609.2833,-467.5831 609.0484,-456.9909 602.4942,-459.4493"/>
</g>
<!-- Node10 -->
<g id="node9" class="node">
<title>Node10</title>
<g id="a_node9"><a xlink:href="structpkgAcquire_1_1ItemDesc.xhtml" target="_top" xlink:title="Represents a single download source from which an item should be downloaded. ">
<polygon fill="#ffffff" stroke="#000000" points="558,-73 558,-92 621,-92 621,-73 558,-73"/>
<text text-anchor="middle" x="589.5" y="-80" font-family="Helvetica,sans-Serif" font-size="10.00" fill="#000000">ItemDesc</text>
</a>
</g>
</g>
<!-- Node3&#45;&gt;Node10 -->
<g id="edge11" class="edge">
<title>Node3&#45;&gt;Node10</title>
<path fill="none" stroke="#191970" d="M621.312,-457.9978C626.552,-443.1657 632.5,-422.119 632.5,-403 632.5,-403 632.5,-403 632.5,-155 632.5,-129.5366 612.6351,-105.1943 599.9091,-92.2126"/>
<polygon fill="#191970" stroke="#191970" points="617.9516,-456.9909 617.7167,-467.5831 624.5058,-459.4493 617.9516,-456.9909"/>
</g>
<!-- Node4&#45;&gt;Node2 -->
<g id="edge2" class="edge">
<title>Node4&#45;&gt;Node2</title>
<path fill="none" stroke="#9a32cd" stroke-dasharray="5,2" d="M258.062,-314.6652C252.1579,-330.8676 246.4737,-354.4893 253.5,-374 256.1572,-381.3784 261.5967,-388.2116 266.6262,-393.3896"/>
<polygon fill="#9a32cd" stroke="#9a32cd" points="261.3808,-315.7918 261.8421,-305.207 254.8808,-313.1939 261.3808,-315.7918"/>
<text text-anchor="middle" x="275" y="-349.5" font-family="Helvetica,sans-Serif" font-size="10.00" fill="#000000"> OwnerQ</text>
</g>
<!-- Node4&#45;&gt;Node5 -->
<g id="edge14" class="edge">
<title>Node4&#45;&gt;Node5</title>
<path fill="none" stroke="#9a32cd" stroke-dasharray="5,2" d="M269.1519,-275.5727C271.3281,-266.6067 275.2896,-256.5821 282.5,-250 293.5088,-239.9505 329.7255,-232.0647 357.83,-227.2573"/>
<polygon fill="#9a32cd" stroke="#9a32cd" points="265.6594,-275.2123 267.2844,-285.6818 272.5429,-276.484 265.6594,-275.2123"/>
<text text-anchor="middle" x="302.5" y="-253" font-family="Helvetica,sans-Serif" font-size="10.00" fill="#000000"> Queues</text>
</g>
<!-- Node5&#45;&gt;Node4 -->
<g id="edge3" class="edge">
<title>Node5&#45;&gt;Node4</title>
<path fill="none" stroke="#9a32cd" stroke-dasharray="5,2" d="M367.6873,-236.6928C360.2,-240.9702 352.0173,-245.6598 344.5,-250 323.1844,-262.3069 298.6769,-276.6318 282.9096,-285.8707"/>
<polygon fill="#9a32cd" stroke="#9a32cd" points="369.7454,-239.5483 376.6968,-231.5527 366.2766,-233.4682 369.7454,-239.5483"/>
<text text-anchor="middle" x="362" y="-253" font-family="Helvetica,sans-Serif" font-size="10.00" fill="#000000"> Owner</text>
</g>
<!-- Node5&#45;&gt;Node7 -->
<g id="edge7" class="edge">
<title>Node5&#45;&gt;Node7</title>
<path fill="none" stroke="#9a32cd" stroke-dasharray="5,2" d="M426.5395,-208.584C460.1206,-194.948 511.0327,-174.2746 538.7777,-163.0085"/>
<polygon fill="#9a32cd" stroke="#9a32cd" points="425.0889,-205.3954 417.1405,-212.4005 427.7226,-211.8811 425.0889,-205.3954"/>
<text text-anchor="middle" x="503" y="-186" font-family="Helvetica,sans-Serif" font-size="10.00" fill="#000000"> Owner</text>
</g>
<!-- Node6 -->
<g id="node5" class="node">
<title>Node6</title>
<polygon fill="#ffffff" stroke="#bfbfbf" points="337,-67.5 337,-97.5 450,-97.5 450,-67.5 337,-67.5"/>
<text text-anchor="start" x="345" y="-85.5" font-family="Helvetica,sans-Serif" font-size="10.00" fill="#000000">vector&lt; pkgAcquire</text>
<text text-anchor="middle" x="393.5" y="-74.5" font-family="Helvetica,sans-Serif" font-size="10.00" fill="#000000">::Item *&gt;</text>
</g>
<!-- Node6&#45;&gt;Node5 -->
<g id="edge4" class="edge">
<title>Node6&#45;&gt;Node5</title>
<path fill="none" stroke="#9a32cd" stroke-dasharray="5,2" d="M393.5,-108.0901C393.5,-139.4856 393.5,-191.1568 393.5,-212.4116"/>
<polygon fill="#9a32cd" stroke="#9a32cd" points="397.0001,-107.9137 393.5,-97.9137 390.0001,-107.9138 397.0001,-107.9137"/>
<text text-anchor="middle" x="409" y="-152.5" font-family="Helvetica,sans-Serif" font-size="10.00" fill="#000000"> Items</text>
</g>
<!-- Node6&#45;&gt;Node14 -->
<g id="edge24" class="edge">
<title>Node6&#45;&gt;Node14</title>
<path fill="none" stroke="#9a32cd" stroke-dasharray="5,2" d="M354.0497,-62.91C325.8621,-48.9127 289.1456,-30.6802 266.9986,-19.6825"/>
<polygon fill="#9a32cd" stroke="#9a32cd" points="352.7355,-66.1651 363.2487,-67.478 355.8489,-59.8955 352.7355,-66.1651"/>
<text text-anchor="middle" x="344.5" y="-41" font-family="Helvetica,sans-Serif" font-size="10.00" fill="#000000"> Owners</text>
</g>
<!-- Node7&#45;&gt;Node6 -->
<g id="edge5" class="edge">
<title>Node7&#45;&gt;Node6</title>
<path fill="none" stroke="#9a32cd" stroke-dasharray="5,2" d="M529.1694,-146.2665C513.334,-141.2331 493.5848,-134.4377 476.5,-127 456.7117,-118.3853 435.2629,-106.8234 419.1272,-97.6439"/>
<polygon fill="#9a32cd" stroke="#9a32cd" points="528.3546,-149.6785 538.943,-149.3088 530.4351,-142.9948 528.3546,-149.6785"/>
<text text-anchor="middle" x="501" y="-119" font-family="Helvetica,sans-Serif" font-size="10.00" fill="#000000"> elements</text>
</g>
<!-- Node7&#45;&gt;Node10 -->
<g id="edge13" class="edge">
<title>Node7&#45;&gt;Node10</title>
<path fill="none" stroke="#9a32cd" stroke-dasharray="5,2" d="M536.878,-138.1051C530.9382,-131.3859 527.1798,-123.4843 531.5,-116 537.8365,-105.0226 549.2919,-97.32 560.3583,-92.0935"/>
<polygon fill="#9a32cd" stroke="#9a32cd" points="534.8414,-140.9983 544.4996,-145.3538 539.6656,-135.9261 534.8414,-140.9983"/>
<text text-anchor="middle" x="549" y="-119" font-family="Helvetica,sans-Serif" font-size="10.00" fill="#000000"> Owner</text>
</g>
<!-- Node8 -->
<g id="node7" class="node">
<title>Node8</title>
<g id="a_node7"><a xlink:title="STL class. ">
<polygon fill="#ffffff" stroke="#bfbfbf" points="318.5,-552.5 318.5,-571.5 362.5,-571.5 362.5,-552.5 318.5,-552.5"/>
<text text-anchor="middle" x="340.5" y="-559.5" font-family="Helvetica,sans-Serif" font-size="10.00" fill="#000000">string</text>
</a>
</g>
</g>
<!-- Node8&#45;&gt;Node2 -->
<g id="edge31" class="edge">
<title>Node8&#45;&gt;Node2</title>
<path fill="none" stroke="#9a32cd" stroke-dasharray="5,2" d="M343.5483,-542.0383C346.6173,-514.8593 348.2133,-465.739 326.5,-432 320.9899,-423.4381 311.9815,-417.0713 303.1819,-412.5193"/>
<polygon fill="#9a32cd" stroke="#9a32cd" points="340.0412,-541.8631 342.2065,-552.2343 346.9814,-542.7765 340.0412,-541.8631"/>
<text text-anchor="middle" x="370.5" y="-486" font-family="Helvetica,sans-Serif" font-size="10.00" fill="#000000"> OutQueue</text>
<text text-anchor="middle" x="370.5" y="-475" font-family="Helvetica,sans-Serif" font-size="10.00" fill="#000000">Access</text>
<text text-anchor="middle" x="370.5" y="-464" font-family="Helvetica,sans-Serif" font-size="10.00" fill="#000000">Status</text>
</g>
<!-- Node8&#45;&gt;Node4 -->
<g id="edge27" class="edge">
<title>Node8&#45;&gt;Node4</title>
<path fill="none" stroke="#9a32cd" stroke-dasharray="5,2" d="M308.0943,-559.479C268.6022,-554.4369 203.6634,-539.3181 175.5,-494 133.0777,-425.7376 223.3243,-334.4053 255.5998,-305.0263"/>
<polygon fill="#9a32cd" stroke="#9a32cd" points="307.9376,-562.9835 318.2671,-560.6273 308.7228,-556.0276 307.9376,-562.9835"/>
<text text-anchor="middle" x="184" y="-435" font-family="Helvetica,sans-Serif" font-size="10.00" fill="#000000"> Name</text>
</g>
<!-- Node8&#45;&gt;Node5 -->
<g id="edge19" class="edge">
<title>Node8&#45;&gt;Node5</title>
<path fill="none" stroke="#9a32cd" stroke-dasharray="5,2" d="M372.5399,-555.4066C429.0458,-542.85 540.5,-513.5177 540.5,-477.5 540.5,-477.5 540.5,-477.5 540.5,-295.5 540.5,-245.8523 472.5897,-229.7393 429.0846,-224.5107"/>
<polygon fill="#9a32cd" stroke="#9a32cd" points="371.6953,-552.0084 362.6677,-557.5538 373.1831,-558.8484 371.6953,-552.0084"/>
<text text-anchor="middle" x="553.5" y="-400.5" font-family="Helvetica,sans-Serif" font-size="10.00" fill="#000000"> Lock</text>
</g>
<!-- Node8&#45;&gt;Node7 -->
<g id="edge8" class="edge">
<title>Node8&#45;&gt;Node7</title>
<path fill="none" stroke="#9a32cd" stroke-dasharray="5,2" d="M372.9014,-560.9647C458.9195,-557.3417 686.5,-541.6908 686.5,-477.5 686.5,-477.5 686.5,-477.5 686.5,-222 686.5,-173.7163 614.1245,-160.1627 578.2195,-156.4096"/>
<polygon fill="#9a32cd" stroke="#9a32cd" points="372.5252,-557.4766 362.6702,-561.3664 372.7998,-564.4712 372.5252,-557.4766"/>
<text text-anchor="middle" x="731.5" y="-366" font-family="Helvetica,sans-Serif" font-size="10.00" fill="#000000"> ActiveSubprocess</text>
<text text-anchor="middle" x="731.5" y="-355" font-family="Helvetica,sans-Serif" font-size="10.00" fill="#000000">DestFile</text>
<text text-anchor="middle" x="731.5" y="-344" font-family="Helvetica,sans-Serif" font-size="10.00" fill="#000000">ErrorText</text>
<text text-anchor="middle" x="731.5" y="-333" font-family="Helvetica,sans-Serif" font-size="10.00" fill="#000000">UsedMirror</text>
</g>
<!-- Node8&#45;&gt;Node10 -->
<g id="edge12" class="edge">
<title>Node8&#45;&gt;Node10</title>
<path fill="none" stroke="#9a32cd" stroke-dasharray="5,2" d="M372.8396,-560.1285C440.0315,-556.0575 592.7031,-545.8088 643.5,-534 712.0793,-518.0573 791.5,-547.908 791.5,-477.5 791.5,-477.5 791.5,-477.5 791.5,-155 791.5,-119.2306 677.875,-96.334 621.0625,-87.1214"/>
<polygon fill="#9a32cd" stroke="#9a32cd" points="372.5914,-556.637 362.8183,-560.7281 373.0095,-563.6245 372.5914,-556.637"/>
<text text-anchor="middle" x="821" y="-304" font-family="Helvetica,sans-Serif" font-size="10.00" fill="#000000"> Description</text>
<text text-anchor="middle" x="821" y="-293" font-family="Helvetica,sans-Serif" font-size="10.00" fill="#000000">URI</text>
<text text-anchor="middle" x="821" y="-282" font-family="Helvetica,sans-Serif" font-size="10.00" fill="#000000">ShortDesc</text>
</g>
<!-- Node11 -->
<g id="node10" class="node">
<title>Node11</title>
<g id="a_node10"><a xlink:href="structpkgAcquire_1_1MethodConfig.xhtml" target="_top" xlink:title="Information about the properties of a single acquire method. {{{. ">
<polygon fill="#ffffff" stroke="#000000" points="0,-468 0,-487 83,-487 83,-468 0,-468"/>
<text text-anchor="middle" x="41.5" y="-475" font-family="Helvetica,sans-Serif" font-size="10.00" fill="#000000">MethodConfig</text>
</a>
</g>
</g>
<!-- Node8&#45;&gt;Node11 -->
<g id="edge17" class="edge">
<title>Node8&#45;&gt;Node11</title>
<path fill="none" stroke="#9a32cd" stroke-dasharray="5,2" d="M308.1827,-560.5242C252.4917,-557.5902 140.9946,-549.8898 105.5,-534 81.4206,-523.2204 59.8852,-500.1157 48.9975,-487.037"/>
<polygon fill="#9a32cd" stroke="#9a32cd" points="308.0553,-564.0221 318.2197,-561.033 308.4098,-557.0311 308.0553,-564.0221"/>
<text text-anchor="middle" x="124" y="-526" font-family="Helvetica,sans-Serif" font-size="10.00" fill="#000000"> Access</text>
<text text-anchor="middle" x="124" y="-515" font-family="Helvetica,sans-Serif" font-size="10.00" fill="#000000">Version</text>
</g>
<!-- Node15 -->
<g id="node14" class="node">
<title>Node15</title>
<polygon fill="#ffffff" stroke="#bfbfbf" points="185,-468 185,-487 304,-487 304,-468 185,-468"/>
<text text-anchor="middle" x="244.5" y="-475" font-family="Helvetica,sans-Serif" font-size="10.00" fill="#000000">vector&lt; std::string &gt;</text>
</g>
<!-- Node8&#45;&gt;Node15 -->
<g id="edge34" class="edge">
<title>Node8&#45;&gt;Node15</title>
<path fill="none" stroke="#9a32cd" stroke-dasharray="5,2" d="M308.8591,-552.4122C298.0499,-548.0382 286.444,-542.0073 277.5,-534 262.7737,-520.8159 252.8208,-499.4524 247.9556,-487.119"/>
<polygon fill="#9a32cd" stroke="#9a32cd" points="307.8697,-555.7782 318.4628,-555.9726 310.303,-549.2147 307.8697,-555.7782"/>
<text text-anchor="middle" x="302" y="-520.5" font-family="Helvetica,sans-Serif" font-size="10.00" fill="#000000"> elements</text>
</g>
<!-- Node9 -->
<g id="node8" class="node">
<title>Node9</title>
<g id="a_node8"><a xlink:title="STL class. ">
<polygon fill="#ffffff" stroke="#bfbfbf" points="281,-609.5 281,-628.5 400,-628.5 400,-609.5 281,-609.5"/>
<text text-anchor="middle" x="340.5" y="-616.5" font-family="Helvetica,sans-Serif" font-size="10.00" fill="#000000">basic_string&lt; char &gt;</text>
</a>
</g>
</g>
<!-- Node9&#45;&gt;Node8 -->
<g id="edge9" class="edge">
<title>Node9&#45;&gt;Node8</title>
<path fill="none" stroke="#191970" d="M340.5,-599.2342C340.5,-589.8491 340.5,-579.0651 340.5,-571.5265"/>
<polygon fill="#191970" stroke="#191970" points="337.0001,-599.3307 340.5,-609.3307 344.0001,-599.3308 337.0001,-599.3307"/>
</g>
<!-- Node10&#45;&gt;Node7 -->
<g id="edge10" class="edge">
<title>Node10&#45;&gt;Node7</title>
<path fill="none" stroke="#9a32cd" stroke-dasharray="5,2" d="M581.4299,-101.3737C575.4239,-115.42 567.4684,-134.0256 562.6808,-145.2223"/>
<polygon fill="#9a32cd" stroke="#9a32cd" points="584.672,-102.6936 585.3854,-92.1228 578.2357,-99.9414 584.672,-102.6936"/>
<text text-anchor="middle" x="588.5" y="-119" font-family="Helvetica,sans-Serif" font-size="10.00" fill="#000000"> Desc</text>
</g>
<!-- Node10&#45;&gt;Node14 -->
<g id="edge23" class="edge">
<title>Node10&#45;&gt;Node14</title>
<path fill="none" stroke="#191970" d="M547.8013,-73.6604C475.2961,-58.2901 328.2691,-27.1221 271.0407,-14.9904"/>
<polygon fill="#191970" stroke="#191970" points="547.43,-77.1594 557.9385,-75.8093 548.8817,-70.3115 547.43,-77.1594"/>
</g>
<!-- Node11&#45;&gt;Node2 -->
<g id="edge29" class="edge">
<title>Node11&#45;&gt;Node2</title>
<path fill="none" stroke="#9a32cd" stroke-dasharray="5,2" d="M58.5235,-460.6662C69.5767,-450.7359 84.805,-438.8152 100.5,-432 121.7075,-422.7911 177.8699,-414.5077 221.2978,-409.1748"/>
<polygon fill="#9a32cd" stroke="#9a32cd" points="55.8581,-458.3669 50.9463,-467.7544 60.6401,-463.4789 55.8581,-458.3669"/>
<text text-anchor="middle" x="117.5" y="-435" font-family="Helvetica,sans-Serif" font-size="10.00" fill="#000000"> Config</text>
</g>
<!-- Node11&#45;&gt;Node5 -->
<g id="edge15" class="edge">
<title>Node11&#45;&gt;Node5</title>
<path fill="none" stroke="#9a32cd" stroke-dasharray="5,2" d="M52.5549,-458.7662C70.6557,-429.113 108.8922,-370.5731 151.5,-330 197.652,-286.052 211.998,-275.2774 270.5,-250 298.6458,-237.8389 332.793,-230.605 357.9599,-226.5462"/>
<polygon fill="#9a32cd" stroke="#9a32cd" points="49.3678,-457.2744 47.2111,-467.6474 55.3658,-460.8834 49.3678,-457.2744"/>
<text text-anchor="middle" x="171.5" y="-349.5" font-family="Helvetica,sans-Serif" font-size="10.00" fill="#000000"> Configs</text>
</g>
<!-- Node11&#45;&gt;Node11 -->
<g id="edge16" class="edge">
<title>Node11&#45;&gt;Node11</title>
<path fill="none" stroke="#9a32cd" stroke-dasharray="5,2" d="M93.319,-483.4601C98.0342,-482.2211 101,-480.2344 101,-477.5 101,-473.125 93.4076,-470.6641 83.2052,-470.1172"/>
<polygon fill="#9a32cd" stroke="#9a32cd" points="92.6201,-480.0239 83.2052,-484.8828 93.5953,-486.9556 92.6201,-480.0239"/>
<text text-anchor="middle" x="114.5" y="-475" font-family="Helvetica,sans-Serif" font-size="10.00" fill="#000000"> Next</text>
</g>
<!-- Node12 -->
<g id="node11" class="node">
<title>Node12</title>
<g id="a_node11"><a xlink:href="classpkgAcquire_1_1MethodConfig_1_1Private.xhtml" target="_top" xlink:title="Private">
<polygon fill="#ffffff" stroke="#000000" points="16,-552.5 16,-571.5 67,-571.5 67,-552.5 16,-552.5"/>
<text text-anchor="middle" x="41.5" y="-559.5" font-family="Helvetica,sans-Serif" font-size="10.00" fill="#000000">Private</text>
</a>
</g>
</g>
<!-- Node12&#45;&gt;Node11 -->
<g id="edge18" class="edge">
<title>Node12&#45;&gt;Node11</title>
<path fill="none" stroke="#9a32cd" stroke-dasharray="5,2" d="M41.5,-542.1221C41.5,-524.7864 41.5,-500.3886 41.5,-487.0802"/>
<polygon fill="#9a32cd" stroke="#9a32cd" points="38.0001,-542.3067 41.5,-552.3068 45.0001,-542.3068 38.0001,-542.3067"/>
<text text-anchor="middle" x="46.5" y="-520.5" font-family="Helvetica,sans-Serif" font-size="10.00" fill="#000000"> d</text>
</g>
<!-- Node13 -->
<g id="node12" class="node">
<title>Node13</title>
<g id="a_node12"><a xlink:href="classpkgAcquireStatus.xhtml" target="_top" xlink:title="A monitor object for downloads controlled by the pkgAcquire class. {{{. ">
<polygon fill="#ffffff" stroke="#000000" points="410.5,-468 410.5,-487 512.5,-487 512.5,-468 410.5,-468"/>
<text text-anchor="middle" x="461.5" y="-475" font-family="Helvetica,sans-Serif" font-size="10.00" fill="#000000">pkgAcquireStatus</text>
</a>
</g>
</g>
<!-- Node13&#45;&gt;Node2 -->
<g id="edge32" class="edge">
<title>Node13&#45;&gt;Node2</title>
<path fill="none" stroke="#9a32cd" stroke-dasharray="5,2" d="M430.6841,-463.9916C409.3814,-454.7531 380.3361,-442.3531 354.5,-432 337.6602,-425.2519 318.5782,-418.062 303.6232,-412.5294"/>
<polygon fill="#9a32cd" stroke="#9a32cd" points="429.3215,-467.2157 439.8877,-467.9952 432.1138,-460.7967 429.3215,-467.2157"/>
<text text-anchor="middle" x="391" y="-435" font-family="Helvetica,sans-Serif" font-size="10.00" fill="#000000"> Log</text>
</g>
<!-- Node13&#45;&gt;Node5 -->
<g id="edge20" class="edge">
<title>Node13&#45;&gt;Node5</title>
<path fill="none" stroke="#9a32cd" stroke-dasharray="5,2" d="M461.9195,-457.7124C462.0315,-421.0798 459.1393,-340.8008 434.5,-279 427.0963,-260.43 412.3522,-242.26 402.711,-231.5986"/>
<polygon fill="#9a32cd" stroke="#9a32cd" points="458.4165,-457.9542 461.8013,-467.9938 465.4161,-458.0347 458.4165,-457.9542"/>
<text text-anchor="middle" x="467" y="-349.5" font-family="Helvetica,sans-Serif" font-size="10.00" fill="#000000"> Log</text>
</g>
<!-- Node14&#45;&gt;Node2 -->
<g id="edge30" class="edge">
<title>Node14&#45;&gt;Node2</title>
<path fill="none" stroke="#9a32cd" stroke-dasharray="5,2" d="M215.959,-24.4326C194.6944,-36.5619 170.5,-56.1517 170.5,-82.5 170.5,-222 170.5,-222 170.5,-222 170.5,-297.5294 201.3225,-313.4716 246.5,-374 251.878,-381.2054 259.1706,-388.1294 265.3315,-393.4038"/>
<polygon fill="#9a32cd" stroke="#9a32cd" points="217.649,-27.498 224.8139,-19.6932 214.3457,-21.3264 217.649,-27.498"/>
<text text-anchor="middle" x="201.5" y="-186" font-family="Helvetica,sans-Serif" font-size="10.00" fill="#000000"> CurrentItem</text>
</g>
<!-- Node14&#45;&gt;Node4 -->
<g id="edge22" class="edge">
<title>Node14&#45;&gt;Node4</title>
<path fill="none" stroke="#9a32cd" stroke-dasharray="5,2" d="M247.5,-30.172C247.5,-44.7181 247.5,-64.8214 247.5,-82.5 247.5,-222 247.5,-222 247.5,-222 247.5,-245.4602 256.6857,-271.8303 262.2833,-285.7217"/>
<polygon fill="#9a32cd" stroke="#9a32cd" points="251.0001,-29.8503 247.5,-19.8504 244.0001,-29.8504 251.0001,-29.8503"/>
<text text-anchor="middle" x="263" y="-152.5" font-family="Helvetica,sans-Serif" font-size="10.00" fill="#000000"> Items</text>
</g>
<!-- Node14&#45;&gt;Node14 -->
<g id="edge25" class="edge">
<title>Node14&#45;&gt;Node14</title>
<path fill="none" stroke="#9a32cd" stroke-dasharray="5,2" d="M281.5148,-15.294C286.0146,-14.3926 289,-12.6279 289,-10 289,-5.6875 280.9604,-3.6997 271.3819,-4.0366"/>
<polygon fill="#9a32cd" stroke="#9a32cd" points="281.1295,-11.8118 271.3819,-15.9634 281.5909,-18.7965 281.1295,-11.8118"/>
<text text-anchor="middle" x="302.5" y="-7.5" font-family="Helvetica,sans-Serif" font-size="10.00" fill="#000000"> Next</text>
</g>
<!-- Node15&#45;&gt;Node2 -->
<g id="edge33" class="edge">
<title>Node15&#45;&gt;Node2</title>
<path fill="none" stroke="#9a32cd" stroke-dasharray="5,2" d="M243.3204,-457.696C243.5548,-449.417 244.8119,-439.9047 248.5,-432 252.0524,-424.3861 258.4913,-417.6299 264.4011,-412.5583"/>
<polygon fill="#9a32cd" stroke="#9a32cd" points="239.8255,-458.0179 243.5025,-467.9541 246.8244,-457.8936 239.8255,-458.0179"/>
<text text-anchor="middle" x="287.5" y="-435" font-family="Helvetica,sans-Serif" font-size="10.00" fill="#000000"> MessageQueue</text>
</g>
</g>
</svg>
