<?xml version="1.0" encoding="UTF-8" standalone="no"?>
<!DOCTYPE svg PUBLIC "-//W3C//DTD SVG 1.1//EN"
 "http://www.w3.org/Graphics/SVG/1.1/DTD/svg11.dtd">
<!-- Generated by graphviz version 2.40.1 (20161225.0304)
 -->
<!-- Title: pkgAcqTransactionItem Pages: 1 -->
<svg width="515pt" height="308pt"
 viewBox="0.00 0.00 514.50 308.00" xmlns="http://www.w3.org/2000/svg" xmlns:xlink="http://www.w3.org/1999/xlink">
<g id="graph0" class="graph" transform="scale(1 1) rotate(0) translate(4 304)">
<title>pkgAcqTransactionItem</title>
<polygon fill="#ffffff" stroke="transparent" points="-4,4 -4,-304 510.5,-304 510.5,4 -4,4"/>
<!-- Node0 -->
<g id="node1" class="node">
<title>Node0</title>
<polygon fill="#bfbfbf" stroke="#000000" points="219,-168.5 219,-187.5 350,-187.5 350,-168.5 219,-168.5"/>
<text text-anchor="middle" x="284.5" y="-175.5" font-family="Helvetica,sans-Serif" font-size="10.00" fill="#000000">pkgAcqTransactionItem</text>
</g>
<!-- Node3 -->
<g id="node4" class="node">
<title>Node3</title>
<g id="a_node4"><a xlink:href="classCleanupItem.xhtml" target="_top" xlink:title="CleanupItem">
<polygon fill="#ffffff" stroke="#000000" points="75,-112.5 75,-131.5 154,-131.5 154,-112.5 75,-112.5"/>
<text text-anchor="middle" x="114.5" y="-119.5" font-family="Helvetica,sans-Serif" font-size="10.00" fill="#000000">CleanupItem</text>
</a>
</g>
</g>
<!-- Node0&#45;&gt;Node3 -->
<g id="edge3" class="edge">
<title>Node0&#45;&gt;Node3</title>
<path fill="none" stroke="#191970" d="M245.614,-165.1905C214.4688,-154.9309 171.4777,-140.7691 143.3427,-131.5011"/>
<polygon fill="#191970" stroke="#191970" points="244.6829,-168.5687 255.276,-168.3733 246.8731,-161.9202 244.6829,-168.5687"/>
</g>
<!-- Node4 -->
<g id="node5" class="node">
<title>Node4</title>
<g id="a_node5"><a xlink:href="classpkgAcqBaseIndex.xhtml" target="_top" xlink:title="Common base class for all classes that deal with fetching indexes {{{. ">
<polygon fill="#ffffff" stroke="#000000" points="172.5,-112.5 172.5,-131.5 276.5,-131.5 276.5,-112.5 172.5,-112.5"/>
<text text-anchor="middle" x="224.5" y="-119.5" font-family="Helvetica,sans-Serif" font-size="10.00" fill="#000000">pkgAcqBaseIndex</text>
</a>
</g>
</g>
<!-- Node0&#45;&gt;Node4 -->
<g id="edge4" class="edge">
<title>Node0&#45;&gt;Node4</title>
<path fill="none" stroke="#191970" d="M266.6722,-161.3607C256.2922,-151.6727 243.5709,-139.7995 234.8314,-131.6427"/>
<polygon fill="#191970" stroke="#191970" points="264.3501,-163.981 274.0488,-168.2455 269.1263,-158.8636 264.3501,-163.981"/>
</g>
<!-- Node9 -->
<g id="node10" class="node">
<title>Node9</title>
<g id="a_node10"><a xlink:href="classpkgAcqMetaBase.xhtml" target="_top" xlink:title="the manager of a transaction ">
<polygon fill="#ffffff" stroke="#000000" points="295,-112.5 295,-131.5 396,-131.5 396,-112.5 295,-112.5"/>
<text text-anchor="middle" x="345.5" y="-119.5" font-family="Helvetica,sans-Serif" font-size="10.00" fill="#000000">pkgAcqMetaBase</text>
</a>
</g>
</g>
<!-- Node0&#45;&gt;Node9 -->
<g id="edge9" class="edge">
<title>Node0&#45;&gt;Node9</title>
<path fill="none" stroke="#191970" d="M302.6249,-161.3607C313.178,-151.6727 326.1112,-139.7995 334.9964,-131.6427"/>
<polygon fill="#191970" stroke="#191970" points="300.125,-158.9045 295.1254,-168.2455 304.8589,-164.0611 300.125,-158.9045"/>
</g>
<!-- Node12 -->
<g id="node13" class="node">
<title>Node12</title>
<g id="a_node13"><a xlink:href="classpkgAcqMetaSig.xhtml" target="_top" xlink:title="An acquire item that downloads the detached signature {{{ of a meta&#45;index (Release) file...">
<polygon fill="#ffffff" stroke="#000000" points="414.5,-112.5 414.5,-131.5 506.5,-131.5 506.5,-112.5 414.5,-112.5"/>
<text text-anchor="middle" x="460.5" y="-119.5" font-family="Helvetica,sans-Serif" font-size="10.00" fill="#000000">pkgAcqMetaSig</text>
</a>
</g>
</g>
<!-- Node0&#45;&gt;Node12 -->
<g id="edge12" class="edge">
<title>Node0&#45;&gt;Node12</title>
<path fill="none" stroke="#191970" d="M324.3404,-165.3235C356.6173,-155.0536 401.3852,-140.8093 430.6393,-131.5011"/>
<polygon fill="#191970" stroke="#191970" points="323.2235,-162.0059 314.7555,-168.3733 325.346,-168.6764 323.2235,-162.0059"/>
</g>
<!-- Node1 -->
<g id="node2" class="node">
<title>Node1</title>
<g id="a_node2"><a xlink:href="classpkgAcquire_1_1Item.xhtml" target="_top" xlink:title="Represents the process by which a pkgAcquire object should retrieve a file or a collection of files...">
<polygon fill="#ffffff" stroke="#000000" points="265,-224.5 265,-243.5 304,-243.5 304,-224.5 265,-224.5"/>
<text text-anchor="middle" x="284.5" y="-231.5" font-family="Helvetica,sans-Serif" font-size="10.00" fill="#000000">Item</text>
</a>
</g>
</g>
<!-- Node1&#45;&gt;Node0 -->
<g id="edge1" class="edge">
<title>Node1&#45;&gt;Node0</title>
<path fill="none" stroke="#191970" d="M284.5,-214.1575C284.5,-205.155 284.5,-194.9199 284.5,-187.6427"/>
<polygon fill="#191970" stroke="#191970" points="281.0001,-214.2455 284.5,-224.2455 288.0001,-214.2456 281.0001,-214.2455"/>
</g>
<!-- Node2 -->
<g id="node3" class="node">
<title>Node2</title>
<g id="a_node3"><a xlink:href="classWeakPointable.xhtml" target="_top" xlink:title="WeakPointable">
<polygon fill="#ffffff" stroke="#000000" points="240,-280.5 240,-299.5 329,-299.5 329,-280.5 240,-280.5"/>
<text text-anchor="middle" x="284.5" y="-287.5" font-family="Helvetica,sans-Serif" font-size="10.00" fill="#000000">WeakPointable</text>
</a>
</g>
</g>
<!-- Node2&#45;&gt;Node1 -->
<g id="edge2" class="edge">
<title>Node2&#45;&gt;Node1</title>
<path fill="none" stroke="#191970" d="M284.5,-270.1575C284.5,-261.155 284.5,-250.9199 284.5,-243.6427"/>
<polygon fill="#191970" stroke="#191970" points="281.0001,-270.2455 284.5,-280.2455 288.0001,-270.2456 281.0001,-270.2455"/>
</g>
<!-- Node5 -->
<g id="node6" class="node">
<title>Node5</title>
<g id="a_node6"><a xlink:href="classpkgAcqIndex.xhtml" target="_top" xlink:title="An acquire item that is responsible for fetching an index {{{ file (e.g., Packages or Sources)...">
<polygon fill="#ffffff" stroke="#000000" points="8.5,-56.5 8.5,-75.5 88.5,-75.5 88.5,-56.5 8.5,-56.5"/>
<text text-anchor="middle" x="48.5" y="-63.5" font-family="Helvetica,sans-Serif" font-size="10.00" fill="#000000">pkgAcqIndex</text>
</a>
</g>
</g>
<!-- Node4&#45;&gt;Node5 -->
<g id="edge5" class="edge">
<title>Node4&#45;&gt;Node5</title>
<path fill="none" stroke="#191970" d="M184.6596,-109.3235C152.3827,-99.0536 107.6148,-84.8093 78.3607,-75.5011"/>
<polygon fill="#191970" stroke="#191970" points="183.654,-112.6764 194.2445,-112.3733 185.7765,-106.0059 183.654,-112.6764"/>
</g>
<!-- Node7 -->
<g id="node8" class="node">
<title>Node7</title>
<g id="a_node8"><a xlink:href="classpkgAcqIndexDiffs.xhtml" target="_top" xlink:title="An item that is responsible for fetching server&#45;merge patches {{{ that need to be applied to a given ...">
<polygon fill="#ffffff" stroke="#000000" points="106.5,-56.5 106.5,-75.5 208.5,-75.5 208.5,-56.5 106.5,-56.5"/>
<text text-anchor="middle" x="157.5" y="-63.5" font-family="Helvetica,sans-Serif" font-size="10.00" fill="#000000">pkgAcqIndexDiffs</text>
</a>
</g>
</g>
<!-- Node4&#45;&gt;Node7 -->
<g id="edge7" class="edge">
<title>Node4&#45;&gt;Node7</title>
<path fill="none" stroke="#191970" d="M204.9324,-105.645C193.2802,-95.9058 178.8916,-83.8795 169.0368,-75.6427"/>
<polygon fill="#191970" stroke="#191970" points="202.9121,-108.5179 212.8295,-112.2455 207.4012,-103.1469 202.9121,-108.5179"/>
</g>
<!-- Node8 -->
<g id="node9" class="node">
<title>Node8</title>
<g id="a_node9"><a xlink:href="classpkgAcqIndexMergeDiffs.xhtml" target="_top" xlink:title="An item that is responsible for fetching client&#45;merge patches {{{ that need to be applied to a given ...">
<polygon fill="#ffffff" stroke="#000000" points="226.5,-56.5 226.5,-75.5 358.5,-75.5 358.5,-56.5 226.5,-56.5"/>
<text text-anchor="middle" x="292.5" y="-63.5" font-family="Helvetica,sans-Serif" font-size="10.00" fill="#000000">pkgAcqIndexMergeDiffs</text>
</a>
</g>
</g>
<!-- Node4&#45;&gt;Node8 -->
<g id="edge8" class="edge">
<title>Node4&#45;&gt;Node8</title>
<path fill="none" stroke="#191970" d="M244.3596,-105.645C256.1858,-95.9058 270.7892,-83.8795 280.791,-75.6427"/>
<polygon fill="#191970" stroke="#191970" points="241.839,-103.1867 236.3447,-112.2455 246.289,-108.5902 241.839,-103.1867"/>
</g>
<!-- Node6 -->
<g id="node7" class="node">
<title>Node6</title>
<g id="a_node7"><a xlink:href="classpkgAcqDiffIndex.xhtml" target="_top" xlink:title="An item that is responsible for fetching an index file of {{{ package list diffs and starting the pac...">
<polygon fill="#ffffff" stroke="#000000" points="0,-.5 0,-19.5 97,-19.5 97,-.5 0,-.5"/>
<text text-anchor="middle" x="48.5" y="-7.5" font-family="Helvetica,sans-Serif" font-size="10.00" fill="#000000">pkgAcqDiffIndex</text>
</a>
</g>
</g>
<!-- Node5&#45;&gt;Node6 -->
<g id="edge6" class="edge">
<title>Node5&#45;&gt;Node6</title>
<path fill="none" stroke="#191970" d="M48.5,-46.1575C48.5,-37.155 48.5,-26.9199 48.5,-19.6427"/>
<polygon fill="#191970" stroke="#191970" points="45.0001,-46.2455 48.5,-56.2455 52.0001,-46.2456 45.0001,-46.2455"/>
</g>
<!-- Node10 -->
<g id="node11" class="node">
<title>Node10</title>
<g id="a_node11"><a xlink:href="classpkgAcqMetaIndex.xhtml" target="_top" xlink:title="An item that is responsible for downloading the meta&#45;index {{{ file (i.e., Release) itself and verify...">
<polygon fill="#ffffff" stroke="#000000" points="376.5,-56.5 376.5,-75.5 480.5,-75.5 480.5,-56.5 376.5,-56.5"/>
<text text-anchor="middle" x="428.5" y="-63.5" font-family="Helvetica,sans-Serif" font-size="10.00" fill="#000000">pkgAcqMetaIndex</text>
</a>
</g>
</g>
<!-- Node9&#45;&gt;Node10 -->
<g id="edge10" class="edge">
<title>Node9&#45;&gt;Node10</title>
<path fill="none" stroke="#191970" d="M368.488,-106.49C383.1322,-96.6096 401.6444,-84.1194 414.2082,-75.6427"/>
<polygon fill="#191970" stroke="#191970" points="366.2896,-103.7511 359.9575,-112.2455 370.2047,-109.5539 366.2896,-103.7511"/>
</g>
<!-- Node11 -->
<g id="node12" class="node">
<title>Node11</title>
<g id="a_node12"><a xlink:href="classpkgAcqMetaClearSig.xhtml" target="_top" xlink:title="An item responsible for downloading clearsigned metaindexes {{{. ">
<polygon fill="#ffffff" stroke="#000000" points="370,-.5 370,-19.5 487,-19.5 487,-.5 370,-.5"/>
<text text-anchor="middle" x="428.5" y="-7.5" font-family="Helvetica,sans-Serif" font-size="10.00" fill="#000000">pkgAcqMetaClearSig</text>
</a>
</g>
</g>
<!-- Node10&#45;&gt;Node11 -->
<g id="edge11" class="edge">
<title>Node10&#45;&gt;Node11</title>
<path fill="none" stroke="#191970" d="M428.5,-46.1575C428.5,-37.155 428.5,-26.9199 428.5,-19.6427"/>
<polygon fill="#191970" stroke="#191970" points="425.0001,-46.2455 428.5,-56.2455 432.0001,-46.2456 425.0001,-46.2455"/>
</g>
</g>
</svg>
