<?xml version="1.0" encoding="UTF-8" standalone="no"?>
<!DOCTYPE svg PUBLIC "-//W3C//DTD SVG 1.1//EN"
 "http://www.w3.org/Graphics/SVG/1.1/DTD/svg11.dtd">
<!-- Generated by graphviz version 2.40.1 (20161225.0304)
 -->
<!-- Title: pkgCache::VerIterator Pages: 1 -->
<!--zoomable 590 -->
<svg id="main" version="1.1" xmlns="http://www.w3.org/2000/svg" xmlns:xlink="http://www.w3.org/1999/xlink" xml:space="preserve" onload="init(evt)">
<style type="text/css"><![CDATA[
.edge:hover path { stroke: red; }
.edge:hover polygon { stroke: red; fill: red; }
]]></style>
<script type="text/javascript"><![CDATA[
var edges = document.getElementsByTagName('g');
if (edges && edges.length) {
  for (var i=0;i<edges.length;i++) {
    if (edges[i].id.substr(0,4)=='edge') {
      edges[i].setAttribute('class','edge');
    }
  }
}
]]></script>
        <defs>
                <circle id="rim" cx="0" cy="0" r="7"/>
                <circle id="rim2" cx="0" cy="0" r="3.5"/>
                <g id="zoomPlus">
                        <use xlink:href="#rim" fill="#404040">
                                <set attributeName="fill" to="#808080" begin="zoomplus.mouseover" end="zoomplus.mouseout"/>
                        </use>
                        <path d="M-4,0h8M0,-4v8" fill="none" stroke="white" stroke-width="1.5" pointer-events="none"/>
                </g>
                <g id="zoomMin">
                        <use xlink:href="#rim" fill="#404040">
                                <set attributeName="fill" to="#808080" begin="zoomminus.mouseover" end="zoomminus.mouseout"/>
                        </use>
                        <path d="M-4,0h8" fill="none" stroke="white" stroke-width="1.5" pointer-events="none"/>
                </g>
                <g id="dirArrow">
                        <path fill="none" stroke="white" stroke-width="1.5" d="M0,-3.0v7 M-2.5,-0.5L0,-3.0L2.5,-0.5"/>
                </g>
               <g id="resetDef">
                       <use xlink:href="#rim2" fill="#404040">
                               <set attributeName="fill" to="#808080" begin="reset.mouseover" end="reset.mouseout"/>
                       </use>
               </g>
        </defs>

<script type="text/javascript">
var viewWidth = 1150;
var viewHeight = 590;
var sectionId = 'dynsection-1';
</script>
<script xlink:href="svgpan.js"/>
<svg id="graph" class="graph">
<g id="viewport">
<title>pkgCache::VerIterator</title>
<polygon fill="#ffffff" stroke="transparent" points="-4,4 -4,-586 1146,-586 1146,4 -4,4"/>
<!-- Node3 -->
<g id="node1" class="node">
<title>Node3</title>
<polygon fill="#bfbfbf" stroke="#000000" points="1020,-276.5 1020,-295.5 1142,-295.5 1142,-276.5 1020,-276.5"/>
<text text-anchor="middle" x="1081" y="-283.5" font-family="Helvetica,sans-Serif" font-size="10.00" fill="#000000">pkgCache::VerIterator</text>
</g>
<!-- Node4 -->
<g id="node2" class="node">
<title>Node4</title>
<g id="a_node2"><a xlink:href="classpkgCache_1_1Iterator.xhtml" target="_top" xlink:title="Iterator\&lt; Version,\l VerIterator \&gt;">
<polygon fill="#ffffff" stroke="#000000" points="880,-271 880,-301 983,-301 983,-271 880,-271"/>
<text text-anchor="start" x="888" y="-289" font-family="Helvetica,sans-Serif" font-size="10.00" fill="#000000">Iterator&lt; Version,</text>
<text text-anchor="middle" x="931.5" y="-278" font-family="Helvetica,sans-Serif" font-size="10.00" fill="#000000"> VerIterator &gt;</text>
</a>
</g>
</g>
<!-- Node4&#45;&gt;Node3 -->
<g id="edge1" class="edge">
<title>Node4&#45;&gt;Node3</title>
<path fill="none" stroke="#191970" d="M993.5004,-286C1002.2509,-286 1011.2416,-286 1019.9736,-286"/>
<polygon fill="#191970" stroke="#191970" points="993.3683,-282.5001 983.3683,-286 993.3682,-289.5001 993.3683,-282.5001"/>
</g>
<!-- Node5 -->
<g id="node3" class="node">
<title>Node5</title>
<polygon fill="#ffffff" stroke="#bfbfbf" points="677,-315 677,-345 809,-345 809,-315 677,-315"/>
<text text-anchor="start" x="685" y="-333" font-family="Helvetica,sans-Serif" font-size="10.00" fill="#000000">iterator&lt; std::forward</text>
<text text-anchor="middle" x="743" y="-322" font-family="Helvetica,sans-Serif" font-size="10.00" fill="#000000">_iterator_tag, Version &gt;</text>
</g>
<!-- Node5&#45;&gt;Node4 -->
<g id="edge2" class="edge">
<title>Node5&#45;&gt;Node4</title>
<path fill="none" stroke="#191970" d="M817.1951,-312.6813C838.1872,-307.7812 860.5711,-302.5563 879.9156,-298.0409"/>
<polygon fill="#191970" stroke="#191970" points="816.2864,-309.2992 807.3438,-314.9808 817.8776,-316.1159 816.2864,-309.2992"/>
</g>
<!-- Node6 -->
<g id="node4" class="node">
<title>Node6</title>
<g id="a_node4"><a xlink:href="classpkgCache.xhtml" target="_top" xlink:title="pkgCache">
<polygon fill="#ffffff" stroke="#000000" points="710.5,-276.5 710.5,-295.5 775.5,-295.5 775.5,-276.5 710.5,-276.5"/>
<text text-anchor="middle" x="743" y="-283.5" font-family="Helvetica,sans-Serif" font-size="10.00" fill="#000000">pkgCache</text>
</a>
</g>
</g>
<!-- Node6&#45;&gt;Node4 -->
<g id="edge3" class="edge">
<title>Node6&#45;&gt;Node4</title>
<path fill="none" stroke="#9a32cd" stroke-dasharray="5,2" d="M786.0698,-286C813.9578,-286 850.4261,-286 879.8669,-286"/>
<polygon fill="#9a32cd" stroke="#9a32cd" points="785.8342,-282.5001 775.8342,-286 785.8342,-289.5001 785.8342,-282.5001"/>
<text text-anchor="middle" x="844.5" y="-289" font-family="Helvetica,sans-Serif" font-size="10.00" fill="#000000"> Owner</text>
</g>
<!-- Node7 -->
<g id="node5" class="node">
<title>Node7</title>
<g id="a_node5"><a xlink:href="structpkgCache_1_1DependencyData.xhtml" target="_top" xlink:title="information for a single dependency record ">
<polygon fill="#ffffff" stroke="#000000" points="477.5,-523.5 477.5,-542.5 578.5,-542.5 578.5,-523.5 477.5,-523.5"/>
<text text-anchor="middle" x="528" y="-530.5" font-family="Helvetica,sans-Serif" font-size="10.00" fill="#000000">DependencyData</text>
</a>
</g>
</g>
<!-- Node7&#45;&gt;Node6 -->
<g id="edge4" class="edge">
<title>Node7&#45;&gt;Node6</title>
<path fill="none" stroke="#9a32cd" stroke-dasharray="5,2" d="M588.9804,-534.9262C614.2455,-532.3582 641.6456,-524.5799 659,-505 688.4522,-471.7709 648.9632,-340.4317 677,-306 685.0891,-296.0659 697.9463,-290.9421 710.1726,-288.343"/>
<polygon fill="#9a32cd" stroke="#9a32cd" points="588.3969,-531.4604 578.6909,-535.7082 588.9274,-538.4402 588.3969,-531.4604"/>
<text text-anchor="middle" x="633" y="-534" font-family="Helvetica,sans-Serif" font-size="10.00" fill="#000000"> DepDataP</text>
</g>
<!-- Node8 -->
<g id="node6" class="node">
<title>Node8</title>
<g id="a_node6"><a xlink:href="structpkgCache_1_1Dependency.xhtml" target="_top" xlink:title="Dependency">
<polygon fill="#ffffff" stroke="#000000" points="489.5,-485.5 489.5,-504.5 566.5,-504.5 566.5,-485.5 489.5,-485.5"/>
<text text-anchor="middle" x="528" y="-492.5" font-family="Helvetica,sans-Serif" font-size="10.00" fill="#000000">Dependency</text>
</a>
</g>
</g>
<!-- Node8&#45;&gt;Node6 -->
<g id="edge5" class="edge">
<title>Node8&#45;&gt;Node6</title>
<path fill="none" stroke="#9a32cd" stroke-dasharray="5,2" d="M576.7669,-495.6051C604.9654,-493.1997 638.7657,-485.096 659,-462 704.9918,-409.5036 632.2668,-359.5729 677,-306 685.211,-296.1664 698.0882,-291.0591 710.2965,-288.4451"/>
<polygon fill="#9a32cd" stroke="#9a32cd" points="576.4232,-492.1198 566.6669,-496.2506 576.8698,-499.1055 576.4232,-492.1198"/>
<text text-anchor="middle" x="633" y="-493" font-family="Helvetica,sans-Serif" font-size="10.00" fill="#000000"> DepP</text>
</g>
<!-- Node9 -->
<g id="node7" class="node">
<title>Node9</title>
<g id="a_node7"><a xlink:href="structpkgCache_1_1Description.xhtml" target="_top" xlink:title="datamember of a linked list of available description for a version ">
<polygon fill="#ffffff" stroke="#000000" points="492,-447.5 492,-466.5 564,-466.5 564,-447.5 492,-447.5"/>
<text text-anchor="middle" x="528" y="-454.5" font-family="Helvetica,sans-Serif" font-size="10.00" fill="#000000">Description</text>
</a>
</g>
</g>
<!-- Node9&#45;&gt;Node6 -->
<g id="edge6" class="edge">
<title>Node9&#45;&gt;Node6</title>
<path fill="none" stroke="#9a32cd" stroke-dasharray="5,2" d="M574.2971,-455.1919C602.8621,-451.5315 637.9479,-441.9837 659,-418 692.2589,-380.1098 643.8336,-343.9713 677,-306 685.3489,-296.4416 698.0994,-291.3698 710.1751,-288.7079"/>
<polygon fill="#9a32cd" stroke="#9a32cd" points="573.6737,-451.7388 564.1062,-456.29 574.4237,-458.6985 573.6737,-451.7388"/>
<text text-anchor="middle" x="633" y="-450" font-family="Helvetica,sans-Serif" font-size="10.00" fill="#000000"> DescP</text>
</g>
<!-- Node10 -->
<g id="node8" class="node">
<title>Node10</title>
<g id="a_node8"><a xlink:href="structpkgCache_1_1Header.xhtml" target="_top" xlink:title="Header">
<polygon fill="#ffffff" stroke="#000000" points="502,-409.5 502,-428.5 554,-428.5 554,-409.5 502,-409.5"/>
<text text-anchor="middle" x="528" y="-416.5" font-family="Helvetica,sans-Serif" font-size="10.00" fill="#000000">Header</text>
</a>
</g>
</g>
<!-- Node10&#45;&gt;Node6 -->
<g id="edge7" class="edge">
<title>Node10&#45;&gt;Node6</title>
<path fill="none" stroke="#9a32cd" stroke-dasharray="5,2" d="M564.2052,-415.4391C593.8946,-410.5797 634.8316,-399.1004 659,-372 679.2368,-349.3082 655.8035,-327.798 677,-306 685.7642,-296.9871 698.442,-292.003 710.3488,-289.2591"/>
<polygon fill="#9a32cd" stroke="#9a32cd" points="563.6084,-411.989 554.2187,-416.8966 564.6193,-418.9157 563.6084,-411.989"/>
<text text-anchor="middle" x="633" y="-406" font-family="Helvetica,sans-Serif" font-size="10.00" fill="#000000"> HeaderP</text>
</g>
<!-- Node11 -->
<g id="node9" class="node">
<title>Node11</title>
<g id="a_node9"><a xlink:href="structDynamicMMap_1_1Pool.xhtml" target="_top" xlink:title="Pool">
<polygon fill="#ffffff" stroke="#000000" points="340,-409.5 340,-428.5 378,-428.5 378,-409.5 340,-409.5"/>
<text text-anchor="middle" x="359" y="-416.5" font-family="Helvetica,sans-Serif" font-size="10.00" fill="#000000">Pool</text>
</a>
</g>
</g>
<!-- Node11&#45;&gt;Node10 -->
<g id="edge8" class="edge">
<title>Node11&#45;&gt;Node10</title>
<path fill="none" stroke="#9a32cd" stroke-dasharray="5,2" d="M388.1285,-419C420.1301,-419 471.0611,-419 501.8334,-419"/>
<polygon fill="#9a32cd" stroke="#9a32cd" points="388.058,-415.5001 378.0579,-419 388.0579,-422.5001 388.058,-415.5001"/>
<text text-anchor="middle" x="424" y="-422" font-family="Helvetica,sans-Serif" font-size="10.00" fill="#000000"> Pools</text>
</g>
<!-- Node12 -->
<g id="node10" class="node">
<title>Node12</title>
<g id="a_node10"><a xlink:href="structpkgCache_1_1PackageFile.xhtml" target="_top" xlink:title="stores information about the files used to generate the cache ">
<polygon fill="#ffffff" stroke="#000000" points="491,-371.5 491,-390.5 565,-390.5 565,-371.5 491,-371.5"/>
<text text-anchor="middle" x="528" y="-378.5" font-family="Helvetica,sans-Serif" font-size="10.00" fill="#000000">PackageFile</text>
</a>
</g>
</g>
<!-- Node12&#45;&gt;Node6 -->
<g id="edge9" class="edge">
<title>Node12&#45;&gt;Node6</title>
<path fill="none" stroke="#9a32cd" stroke-dasharray="5,2" d="M568.5327,-368.391C575.3657,-366.2608 582.3854,-364.0696 589,-362 620.1236,-352.262 633.936,-360.8639 659,-340 672.141,-329.0611 663.803,-316.8713 677,-306 686.426,-298.2352 698.8183,-293.4829 710.3167,-290.5753"/>
<polygon fill="#9a32cd" stroke="#9a32cd" points="567.2303,-365.1307 558.7242,-371.447 569.3126,-371.8139 567.2303,-365.1307"/>
<text text-anchor="middle" x="633" y="-360" font-family="Helvetica,sans-Serif" font-size="10.00" fill="#000000"> PkgFileP</text>
</g>
<!-- Node13 -->
<g id="node11" class="node">
<title>Node13</title>
<g id="a_node11"><a xlink:href="structpkgCache_1_1ReleaseFile.xhtml" target="_top" xlink:title="stores information about the release files used to generate the cache ">
<polygon fill="#ffffff" stroke="#000000" points="492.5,-333.5 492.5,-352.5 563.5,-352.5 563.5,-333.5 492.5,-333.5"/>
<text text-anchor="middle" x="528" y="-340.5" font-family="Helvetica,sans-Serif" font-size="10.00" fill="#000000">ReleaseFile</text>
</a>
</g>
</g>
<!-- Node13&#45;&gt;Node6 -->
<g id="edge10" class="edge">
<title>Node13&#45;&gt;Node6</title>
<path fill="none" stroke="#9a32cd" stroke-dasharray="5,2" d="M573.5799,-333.2657C598.8841,-327.5987 630.8452,-320.0064 659,-312 667.1112,-309.6934 668.9641,-308.5564 677,-306 687.9531,-302.5156 699.9726,-298.8321 710.7185,-295.5887"/>
<polygon fill="#9a32cd" stroke="#9a32cd" points="572.5326,-329.9128 563.5273,-335.4944 574.0478,-336.7469 572.5326,-329.9128"/>
<text text-anchor="middle" x="633" y="-328" font-family="Helvetica,sans-Serif" font-size="10.00" fill="#000000"> RlsFileP</text>
</g>
<!-- Node14 -->
<g id="node12" class="node">
<title>Node14</title>
<g id="a_node12"><a xlink:href="structpkgCache_1_1DescFile.xhtml" target="_top" xlink:title="associates a description with a Translation file ">
<polygon fill="#ffffff" stroke="#000000" points="499.5,-295.5 499.5,-314.5 556.5,-314.5 556.5,-295.5 499.5,-295.5"/>
<text text-anchor="middle" x="528" y="-302.5" font-family="Helvetica,sans-Serif" font-size="10.00" fill="#000000">DescFile</text>
</a>
</g>
</g>
<!-- Node14&#45;&gt;Node6 -->
<g id="edge11" class="edge">
<title>Node14&#45;&gt;Node6</title>
<path fill="none" stroke="#9a32cd" stroke-dasharray="5,2" d="M566.7163,-301.5786C607.7766,-297.95 671.9192,-292.2816 710.462,-288.8755"/>
<polygon fill="#9a32cd" stroke="#9a32cd" points="566.2034,-298.1102 556.5503,-302.4769 566.8197,-305.083 566.2034,-298.1102"/>
<text text-anchor="middle" x="633" y="-300" font-family="Helvetica,sans-Serif" font-size="10.00" fill="#000000"> DescFileP</text>
</g>
<!-- Node15 -->
<g id="node13" class="node">
<title>Node15</title>
<g id="a_node13"><a xlink:href="structpkgCache_1_1Provides.xhtml" target="_top" xlink:title="handles virtual packages ">
<polygon fill="#ffffff" stroke="#000000" points="498.5,-257.5 498.5,-276.5 557.5,-276.5 557.5,-257.5 498.5,-257.5"/>
<text text-anchor="middle" x="528" y="-264.5" font-family="Helvetica,sans-Serif" font-size="10.00" fill="#000000">Provides</text>
</a>
</g>
</g>
<!-- Node15&#45;&gt;Node6 -->
<g id="edge12" class="edge">
<title>Node15&#45;&gt;Node6</title>
<path fill="none" stroke="#9a32cd" stroke-dasharray="5,2" d="M567.8697,-270.2315C593.8315,-272.3644 628.4316,-275.261 659,-278 675.9254,-279.5165 694.7592,-281.3013 710.2968,-282.7998"/>
<polygon fill="#9a32cd" stroke="#9a32cd" points="567.9163,-266.7236 557.6639,-269.3957 567.3449,-273.7003 567.9163,-266.7236"/>
<text text-anchor="middle" x="633" y="-281" font-family="Helvetica,sans-Serif" font-size="10.00" fill="#000000"> ProvideP</text>
</g>
<!-- Node16 -->
<g id="node14" class="node">
<title>Node16</title>
<g id="a_node14"><a xlink:title="STL class. ">
<polygon fill="#ffffff" stroke="#bfbfbf" points="156,-200.5 156,-219.5 200,-219.5 200,-200.5 156,-200.5"/>
<text text-anchor="middle" x="178" y="-207.5" font-family="Helvetica,sans-Serif" font-size="10.00" fill="#000000">string</text>
</a>
</g>
</g>
<!-- Node16&#45;&gt;Node6 -->
<g id="edge13" class="edge">
<title>Node16&#45;&gt;Node6</title>
<path fill="none" stroke="#9a32cd" stroke-dasharray="5,2" d="M210.6041,-214.1731C213.1056,-214.4634 215.5927,-214.7426 218,-215 382.6014,-232.6025 425.7171,-220.7578 589,-248 631.5094,-255.0923 679.5976,-267.7146 710.557,-276.4551"/>
<polygon fill="#9a32cd" stroke="#9a32cd" points="210.7558,-210.6661 200.4087,-212.9439 209.9179,-217.6158 210.7558,-210.6661"/>
<text text-anchor="middle" x="424" y="-233" font-family="Helvetica,sans-Serif" font-size="10.00" fill="#000000"> CacheFile</text>
</g>
<!-- Node24 -->
<g id="node22" class="node">
<title>Node24</title>
<g id="a_node22"><a xlink:href="classFileFd.xhtml" target="_top" xlink:title="FileFd">
<polygon fill="#ffffff" stroke="#000000" points="337,-181.5 337,-200.5 381,-200.5 381,-181.5 337,-181.5"/>
<text text-anchor="middle" x="359" y="-188.5" font-family="Helvetica,sans-Serif" font-size="10.00" fill="#000000">FileFd</text>
</a>
</g>
</g>
<!-- Node16&#45;&gt;Node24 -->
<g id="edge23" class="edge">
<title>Node16&#45;&gt;Node24</title>
<path fill="none" stroke="#9a32cd" stroke-dasharray="5,2" d="M205.8134,-196.577C209.8246,-195.1162 213.9625,-193.8522 218,-193 259.2006,-184.3034 308.6875,-186.39 336.7274,-188.6957"/>
<polygon fill="#9a32cd" stroke="#9a32cd" points="204.1663,-193.469 196.2332,-200.4915 206.8141,-199.949 204.1663,-193.469"/>
<text text-anchor="middle" x="268.5" y="-207" font-family="Helvetica,sans-Serif" font-size="10.00" fill="#000000"> TemporaryFileName</text>
<text text-anchor="middle" x="268.5" y="-196" font-family="Helvetica,sans-Serif" font-size="10.00" fill="#000000">FileName</text>
</g>
<!-- Node17 -->
<g id="node15" class="node">
<title>Node17</title>
<g id="a_node15"><a xlink:title="STL class. ">
<polygon fill="#ffffff" stroke="#bfbfbf" points="0,-200.5 0,-219.5 119,-219.5 119,-200.5 0,-200.5"/>
<text text-anchor="middle" x="59.5" y="-207.5" font-family="Helvetica,sans-Serif" font-size="10.00" fill="#000000">basic_string&lt; char &gt;</text>
</a>
</g>
</g>
<!-- Node17&#45;&gt;Node16 -->
<g id="edge14" class="edge">
<title>Node17&#45;&gt;Node16</title>
<path fill="none" stroke="#191970" d="M129.2118,-210C138.8284,-210 148.0652,-210 155.8653,-210"/>
<polygon fill="#191970" stroke="#191970" points="129.0972,-206.5001 119.0972,-210 129.0971,-213.5001 129.0972,-206.5001"/>
</g>
<!-- Node18 -->
<g id="node16" class="node">
<title>Node18</title>
<g id="a_node16"><a xlink:href="structpkgCache_1_1Group.xhtml" target="_top" xlink:title="groups architecture depending packages together ">
<polygon fill="#ffffff" stroke="#000000" points="505,-143.5 505,-162.5 551,-162.5 551,-143.5 505,-143.5"/>
<text text-anchor="middle" x="528" y="-150.5" font-family="Helvetica,sans-Serif" font-size="10.00" fill="#000000">Group</text>
</a>
</g>
</g>
<!-- Node18&#45;&gt;Node6 -->
<g id="edge15" class="edge">
<title>Node18&#45;&gt;Node6</title>
<path fill="none" stroke="#9a32cd" stroke-dasharray="5,2" d="M561.1478,-151.9638C589.1284,-152.5597 629.2671,-156.9873 659,-175 700.5461,-200.1693 728.6354,-254.2432 738.7873,-276.3162"/>
<polygon fill="#9a32cd" stroke="#9a32cd" points="561.0873,-148.4635 551.0663,-151.9027 561.0448,-155.4634 561.0873,-148.4635"/>
<text text-anchor="middle" x="633" y="-178" font-family="Helvetica,sans-Serif" font-size="10.00" fill="#000000"> GrpP</text>
</g>
<!-- Node19 -->
<g id="node17" class="node">
<title>Node19</title>
<g id="a_node17"><a xlink:href="classpkgVersioningSystem.xhtml" target="_top" xlink:title="pkgVersioningSystem">
<polygon fill="#ffffff" stroke="#000000" points="467,-76.5 467,-95.5 589,-95.5 589,-76.5 467,-76.5"/>
<text text-anchor="middle" x="528" y="-83.5" font-family="Helvetica,sans-Serif" font-size="10.00" fill="#000000">pkgVersioningSystem</text>
</a>
</g>
</g>
<!-- Node19&#45;&gt;Node6 -->
<g id="edge16" class="edge">
<title>Node19&#45;&gt;Node6</title>
<path fill="none" stroke="#9a32cd" stroke-dasharray="5,2" d="M577.8828,-98.5519C604.2886,-107.1321 635.9296,-120.6998 659,-141 704.211,-180.7824 731.2285,-251.0336 739.9148,-276.4692"/>
<polygon fill="#9a32cd" stroke="#9a32cd" points="578.6355,-95.121 568.0476,-95.504 576.5634,-101.8073 578.6355,-95.121"/>
<text text-anchor="middle" x="633" y="-144" font-family="Helvetica,sans-Serif" font-size="10.00" fill="#000000"> VS</text>
</g>
<!-- Node19&#45;&gt;Node19 -->
<g id="edge17" class="edge">
<title>Node19&#45;&gt;Node19</title>
<path fill="none" stroke="#9a32cd" stroke-dasharray="5,2" d="M508.7417,-105.4C510.0278,-110.3146 516.4473,-114 528,-114 546.4844,-114 551.8275,-104.5653 544.0294,-95.7571"/>
<polygon fill="#9a32cd" stroke="#9a32cd" points="512.1142,-106.3509 511.9706,-95.7571 505.4765,-104.1283 512.1142,-106.3509"/>
<text text-anchor="middle" x="528" y="-117" font-family="Helvetica,sans-Serif" font-size="10.00" fill="#000000"> GlobalList</text>
</g>
<!-- Node20 -->
<g id="node18" class="node">
<title>Node20</title>
<g id="a_node18"><a xlink:href="structpkgCache_1_1Version.xhtml" target="_top" xlink:title="information for a single version of a package ">
<polygon fill="#ffffff" stroke="#000000" points="501.5,-.5 501.5,-19.5 554.5,-19.5 554.5,-.5 501.5,-.5"/>
<text text-anchor="middle" x="528" y="-7.5" font-family="Helvetica,sans-Serif" font-size="10.00" fill="#000000">Version</text>
</a>
</g>
</g>
<!-- Node20&#45;&gt;Node4 -->
<g id="edge24" class="edge">
<title>Node20&#45;&gt;Node4</title>
<path fill="none" stroke="#9a32cd" stroke-dasharray="5,2" d="M564.9538,-7.697C592.1749,-7.4509 629.4419,-10.2248 659,-24 785.4077,-82.9108 889.7194,-224.5463 921.5193,-270.9792"/>
<polygon fill="#9a32cd" stroke="#9a32cd" points="564.6019,-4.2041 554.6861,-7.936 564.7649,-11.2022 564.6019,-4.2041"/>
<text text-anchor="middle" x="743" y="-134" font-family="Helvetica,sans-Serif" font-size="10.00" fill="#000000"> S</text>
</g>
<!-- Node20&#45;&gt;Node6 -->
<g id="edge18" class="edge">
<title>Node20&#45;&gt;Node6</title>
<path fill="none" stroke="#9a32cd" stroke-dasharray="5,2" d="M564.7785,-12.3815C593.8295,-16.1378 633.5802,-25.7136 659,-50 727.5507,-115.4941 740.2643,-240.581 742.5282,-276.2731"/>
<polygon fill="#9a32cd" stroke="#9a32cd" points="564.933,-8.877 554.6061,-11.2444 564.1553,-15.8337 564.933,-8.877"/>
<text text-anchor="middle" x="633" y="-53" font-family="Helvetica,sans-Serif" font-size="10.00" fill="#000000"> VerP</text>
</g>
<!-- Node21 -->
<g id="node19" class="node">
<title>Node21</title>
<g id="a_node19"><a xlink:href="structpkgCache_1_1VerFile.xhtml" target="_top" xlink:title="associates a version with a PackageFile ">
<polygon fill="#ffffff" stroke="#000000" points="503.5,-38.5 503.5,-57.5 552.5,-57.5 552.5,-38.5 503.5,-38.5"/>
<text text-anchor="middle" x="528" y="-45.5" font-family="Helvetica,sans-Serif" font-size="10.00" fill="#000000">VerFile</text>
</a>
</g>
</g>
<!-- Node21&#45;&gt;Node6 -->
<g id="edge19" class="edge">
<title>Node21&#45;&gt;Node6</title>
<path fill="none" stroke="#9a32cd" stroke-dasharray="5,2" d="M562.8196,-52.44C591.926,-57.8517 632.7751,-69.6475 659,-95 714.4745,-148.6291 735.7872,-245.2408 741.3817,-276.1832"/>
<polygon fill="#9a32cd" stroke="#9a32cd" points="563.1204,-48.9412 552.6763,-50.7218 561.9512,-55.8429 563.1204,-48.9412"/>
<text text-anchor="middle" x="633" y="-98" font-family="Helvetica,sans-Serif" font-size="10.00" fill="#000000"> VerFileP</text>
</g>
<!-- Node22 -->
<g id="node20" class="node">
<title>Node22</title>
<g id="a_node20"><a xlink:href="structpkgCache_1_1Package.xhtml" target="_top" xlink:title="contains information for a single unique package ">
<polygon fill="#ffffff" stroke="#000000" points="499.5,-561.5 499.5,-580.5 556.5,-580.5 556.5,-561.5 499.5,-561.5"/>
<text text-anchor="middle" x="528" y="-568.5" font-family="Helvetica,sans-Serif" font-size="10.00" fill="#000000">Package</text>
</a>
</g>
</g>
<!-- Node22&#45;&gt;Node6 -->
<g id="edge20" class="edge">
<title>Node22&#45;&gt;Node6</title>
<path fill="none" stroke="#9a32cd" stroke-dasharray="5,2" d="M566.6074,-575.0722C596.4275,-575.8782 636.3165,-571.4215 659,-546 694.6081,-506.0938 643.5489,-347.7309 677,-306 685.0875,-295.9107 698.0978,-290.7746 710.4378,-288.2082"/>
<polygon fill="#9a32cd" stroke="#9a32cd" points="566.6791,-571.5717 556.5243,-574.5933 566.347,-578.5638 566.6791,-571.5717"/>
<text text-anchor="middle" x="633" y="-574" font-family="Helvetica,sans-Serif" font-size="10.00" fill="#000000"> PkgP</text>
</g>
<!-- Node23 -->
<g id="node21" class="node">
<title>Node23</title>
<g id="a_node21"><a xlink:href="classMMap.xhtml" target="_top" xlink:title="MMap">
<polygon fill="#ffffff" stroke="#000000" points="505.5,-181.5 505.5,-200.5 550.5,-200.5 550.5,-181.5 505.5,-181.5"/>
<text text-anchor="middle" x="528" y="-188.5" font-family="Helvetica,sans-Serif" font-size="10.00" fill="#000000">MMap</text>
</a>
</g>
</g>
<!-- Node23&#45;&gt;Node6 -->
<g id="edge21" class="edge">
<title>Node23&#45;&gt;Node6</title>
<path fill="none" stroke="#9a32cd" stroke-dasharray="5,2" d="M561.2409,-188.3786C588.7173,-187.5654 628.0936,-189.5957 659,-204 694.4666,-220.5297 723.9833,-258.3898 736.525,-276.2868"/>
<polygon fill="#9a32cd" stroke="#9a32cd" points="560.812,-184.894 550.9756,-188.8304 561.1199,-191.8872 560.812,-184.894"/>
<text text-anchor="middle" x="633" y="-207" font-family="Helvetica,sans-Serif" font-size="10.00" fill="#000000"> Map</text>
</g>
<!-- Node24&#45;&gt;Node23 -->
<g id="edge22" class="edge">
<title>Node24&#45;&gt;Node23</title>
<path fill="none" stroke="#9a32cd" stroke-dasharray="5,2" d="M391.2616,-191C424.6753,-191 476.0218,-191 505.3614,-191"/>
<polygon fill="#9a32cd" stroke="#9a32cd" points="391.0938,-187.5001 381.0938,-191 391.0938,-194.5001 391.0938,-187.5001"/>
<text text-anchor="middle" x="424" y="-194" font-family="Helvetica,sans-Serif" font-size="10.00" fill="#000000"> SyncToFd</text>
</g>
</g>
</svg>
        <g id="navigator" transform="translate(0 0)" fill="#404254">
                <rect fill="#f2f5e9" fill-opacity="0.5" stroke="#606060" stroke-width=".5" x="0" y="0" width="60" height="60"/>
                <use id="zoomplus" xlink:href="#zoomPlus" x="17" y="9" onmousedown="handleZoom(evt,'in')"/>
                <use id="zoomminus" xlink:href="#zoomMin" x="42" y="9" onmousedown="handleZoom(evt,'out')"/>
                <use id="reset" xlink:href="#resetDef" x="30" y="36" onmousedown="handleReset()"/>
                <g id="arrowUp" xlink:href="#dirArrow" transform="translate(30 24)" onmousedown="handlePan(0,-1)">
                  <use xlink:href="#rim" fill="#404040">
                        <set attributeName="fill" to="#808080" begin="arrowUp.mouseover" end="arrowUp.mouseout"/>
                  </use>
                  <path fill="none" stroke="white" stroke-width="1.5" d="M0,-3.0v7 M-2.5,-0.5L0,-3.0L2.5,-0.5"/>
                </g>
                <g id="arrowRight" xlink:href="#dirArrow" transform="rotate(90) translate(36 -43)" onmousedown="handlePan(1,0)">
                  <use xlink:href="#rim" fill="#404040">
                        <set attributeName="fill" to="#808080" begin="arrowRight.mouseover" end="arrowRight.mouseout"/>
                  </use>
                  <path fill="none" stroke="white" stroke-width="1.5" d="M0,-3.0v7 M-2.5,-0.5L0,-3.0L2.5,-0.5"/>
                </g>
                <g id="arrowDown" xlink:href="#dirArrow" transform="rotate(180) translate(-30 -48)" onmousedown="handlePan(0,1)">
                  <use xlink:href="#rim" fill="#404040">
                        <set attributeName="fill" to="#808080" begin="arrowDown.mouseover" end="arrowDown.mouseout"/>
                  </use>
                  <path fill="none" stroke="white" stroke-width="1.5" d="M0,-3.0v7 M-2.5,-0.5L0,-3.0L2.5,-0.5"/>
                </g>
                <g id="arrowLeft" xlink:href="#dirArrow" transform="rotate(270) translate(-36 17)" onmousedown="handlePan(-1,0)">
                  <use xlink:href="#rim" fill="#404040">
                        <set attributeName="fill" to="#808080" begin="arrowLeft.mouseover" end="arrowLeft.mouseout"/>
                  </use>
                  <path fill="none" stroke="white" stroke-width="1.5" d="M0,-3.0v7 M-2.5,-0.5L0,-3.0L2.5,-0.5"/>
                </g>
        </g>
        <svg viewBox="0 0 15 15" width="100%" height="30px" preserveAspectRatio="xMaxYMin meet">
         <g id="arrow_out" transform="scale(0.3 0.3)">
          <a xlink:href="classpkgCache_1_1VerIterator__coll__graph_org.svg" target="_base">
           <rect id="button" ry="5" rx="5" y="6" x="6" height="38" width="38"
                fill="#f2f5e9" fill-opacity="0.5" stroke="#606060" stroke-width="1.0"/>
           <path id="arrow"
             d="M 11.500037,31.436501 C 11.940474,20.09759 22.043105,11.32322 32.158766,21.979434 L 37.068811,17.246167 C 37.068811,17.246167 37.088388,32 37.088388,32 L 22.160133,31.978069 C 22.160133,31.978069 26.997745,27.140456 26.997745,27.140456 C 18.528582,18.264221 13.291696,25.230495 11.500037,31.436501 z"
             style="fill:#404040;"/>
          </a>
         </g>
        </svg>
</svg>
