<?xml version="1.0" encoding="UTF-8" standalone="no"?>
<!DOCTYPE svg PUBLIC "-//W3C//DTD SVG 1.1//EN"
 "http://www.w3.org/Graphics/SVG/1.1/DTD/svg11.dtd">
<!-- Generated by graphviz version 2.40.1 (20161225.0304)
 -->
<!-- Title: pkgAcquire::Item::Private Pages: 1 -->
<!--zoomable 127 -->
<svg id="main" version="1.1" xmlns="http://www.w3.org/2000/svg" xmlns:xlink="http://www.w3.org/1999/xlink" xml:space="preserve" onload="init(evt)">
<style type="text/css"><![CDATA[
.edge:hover path { stroke: red; }
.edge:hover polygon { stroke: red; fill: red; }
]]></style>
<script type="text/javascript"><![CDATA[
var edges = document.getElementsByTagName('g');
if (edges && edges.length) {
  for (var i=0;i<edges.length;i++) {
    if (edges[i].id.substr(0,4)=='edge') {
      edges[i].setAttribute('class','edge');
    }
  }
}
]]></script>
        <defs>
                <circle id="rim" cx="0" cy="0" r="7"/>
                <circle id="rim2" cx="0" cy="0" r="3.5"/>
                <g id="zoomPlus">
                        <use xlink:href="#rim" fill="#404040">
                                <set attributeName="fill" to="#808080" begin="zoomplus.mouseover" end="zoomplus.mouseout"/>
                        </use>
                        <path d="M-4,0h8M0,-4v8" fill="none" stroke="white" stroke-width="1.5" pointer-events="none"/>
                </g>
                <g id="zoomMin">
                        <use xlink:href="#rim" fill="#404040">
                                <set attributeName="fill" to="#808080" begin="zoomminus.mouseover" end="zoomminus.mouseout"/>
                        </use>
                        <path d="M-4,0h8" fill="none" stroke="white" stroke-width="1.5" pointer-events="none"/>
                </g>
                <g id="dirArrow">
                        <path fill="none" stroke="white" stroke-width="1.5" d="M0,-3.0v7 M-2.5,-0.5L0,-3.0L2.5,-0.5"/>
                </g>
               <g id="resetDef">
                       <use xlink:href="#rim2" fill="#404040">
                               <set attributeName="fill" to="#808080" begin="reset.mouseover" end="reset.mouseout"/>
                       </use>
               </g>
        </defs>

<script type="text/javascript">
var viewWidth = 1175;
var viewHeight = 127;
var sectionId = 'dynsection-0';
</script>
<script xlink:href="svgpan.js"/>
<svg id="graph" class="graph">
<g id="viewport">
<title>pkgAcquire::Item::Private</title>
<polygon fill="#ffffff" stroke="transparent" points="-4,4 -4,-123 1171,-123 1171,4 -4,4"/>
<!-- Node1 -->
<g id="node1" class="node">
<title>Node1</title>
<polygon fill="#bfbfbf" stroke="#000000" points="1027,-41.5 1027,-60.5 1167,-60.5 1167,-41.5 1027,-41.5"/>
<text text-anchor="middle" x="1097" y="-48.5" font-family="Helvetica,sans-Serif" font-size="10.00" fill="#000000">pkgAcquire::Item::Private</text>
</g>
<!-- Node2 -->
<g id="node2" class="node">
<title>Node2</title>
<polygon fill="#ffffff" stroke="#bfbfbf" points="774,-80 774,-110 911,-110 911,-80 774,-80"/>
<text text-anchor="start" x="782" y="-98" font-family="Helvetica,sans-Serif" font-size="10.00" fill="#000000">list&lt; pkgAcquire::Item</text>
<text text-anchor="middle" x="842.5" y="-87" font-family="Helvetica,sans-Serif" font-size="10.00" fill="#000000">::Private::AlternateURI &gt;</text>
</g>
<!-- Node2&#45;&gt;Node1 -->
<g id="edge1" class="edge">
<title>Node2&#45;&gt;Node1</title>
<path fill="none" stroke="#9a32cd" stroke-dasharray="5,2" d="M921.3426,-81.3691C960.4775,-74.6031 1006.791,-66.5961 1042.035,-60.5028"/>
<polygon fill="#9a32cd" stroke="#9a32cd" points="920.2936,-77.9984 911.0361,-83.1509 921.4862,-84.8961 920.2936,-77.9984"/>
<text text-anchor="middle" x="969" y="-83" font-family="Helvetica,sans-Serif" font-size="10.00" fill="#000000"> AlternativeURIs</text>
</g>
<!-- Node3 -->
<g id="node3" class="node">
<title>Node3</title>
<g id="a_node3"><a xlink:href="structpkgAcquire_1_1Item_1_1Private_1_1AlternateURI.xhtml" target="_top" xlink:title="AlternateURI">
<polygon fill="#ffffff" stroke="#000000" points="559,-85.5 559,-104.5 638,-104.5 638,-85.5 559,-85.5"/>
<text text-anchor="middle" x="598.5" y="-92.5" font-family="Helvetica,sans-Serif" font-size="10.00" fill="#000000">AlternateURI</text>
</a>
</g>
</g>
<!-- Node3&#45;&gt;Node2 -->
<g id="edge2" class="edge">
<title>Node3&#45;&gt;Node2</title>
<path fill="none" stroke="#9a32cd" stroke-dasharray="5,2" d="M648.5355,-95C684.647,-95 733.8502,-95 773.6633,-95"/>
<polygon fill="#9a32cd" stroke="#9a32cd" points="648.2459,-91.5001 638.2459,-95 648.2458,-98.5001 648.2459,-91.5001"/>
<text text-anchor="middle" x="706" y="-98" font-family="Helvetica,sans-Serif" font-size="10.00" fill="#000000"> elements</text>
</g>
<!-- Node4 -->
<g id="node4" class="node">
<title>Node4</title>
<polygon fill="#ffffff" stroke="#bfbfbf" points="285,-42 285,-72 404,-72 404,-42 285,-42"/>
<text text-anchor="start" x="293" y="-60" font-family="Helvetica,sans-Serif" font-size="10.00" fill="#000000">unordered_map&lt; std</text>
<text text-anchor="middle" x="344.5" y="-49" font-family="Helvetica,sans-Serif" font-size="10.00" fill="#000000">::string, std::string &gt;</text>
</g>
<!-- Node4&#45;&gt;Node1 -->
<g id="edge7" class="edge">
<title>Node4&#45;&gt;Node1</title>
<path fill="none" stroke="#9a32cd" stroke-dasharray="5,2" d="M414.593,-56.4411C557.971,-55.2979 883.3102,-52.7038 1026.7885,-51.5598"/>
<polygon fill="#9a32cd" stroke="#9a32cd" points="414.1481,-52.9445 404.1764,-56.5242 414.204,-59.9442 414.1481,-52.9445"/>
<text text-anchor="middle" x="706" y="-58" font-family="Helvetica,sans-Serif" font-size="10.00" fill="#000000"> CustomFields</text>
</g>
<!-- Node4&#45;&gt;Node3 -->
<g id="edge3" class="edge">
<title>Node4&#45;&gt;Node3</title>
<path fill="none" stroke="#9a32cd" stroke-dasharray="5,2" d="M414.6584,-66.4657C452.183,-71.6625 499.1556,-78.3817 541,-85 546.8047,-85.9181 552.9306,-86.9335 558.9343,-87.955"/>
<polygon fill="#9a32cd" stroke="#9a32cd" points="414.7217,-62.9413 404.3371,-65.0416 413.7649,-69.8756 414.7217,-62.9413"/>
<text text-anchor="middle" x="481.5" y="-88" font-family="Helvetica,sans-Serif" font-size="10.00" fill="#000000"> changefields</text>
</g>
<!-- Node5 -->
<g id="node5" class="node">
<title>Node5</title>
<g id="a_node5"><a xlink:title="STL class. ">
<polygon fill="#ffffff" stroke="#bfbfbf" points="156,-47.5 156,-66.5 200,-66.5 200,-47.5 156,-47.5"/>
<text text-anchor="middle" x="178" y="-54.5" font-family="Helvetica,sans-Serif" font-size="10.00" fill="#000000">string</text>
</a>
</g>
</g>
<!-- Node5&#45;&gt;Node3 -->
<g id="edge6" class="edge">
<title>Node5&#45;&gt;Node3</title>
<path fill="none" stroke="#9a32cd" stroke-dasharray="5,2" d="M197.7126,-72.6568C203.8748,-76.7427 210.9217,-80.6543 218,-83 354.378,-128.1953 397.3337,-97.2492 541,-96 546.7906,-95.9497 552.9088,-95.8708 558.909,-95.7789"/>
<polygon fill="#9a32cd" stroke="#9a32cd" points="199.583,-69.6912 189.4168,-66.7078 195.5036,-75.3797 199.583,-69.6912"/>
<text text-anchor="middle" x="344.5" y="-111" font-family="Helvetica,sans-Serif" font-size="10.00" fill="#000000"> URI</text>
</g>
<!-- Node5&#45;&gt;Node4 -->
<g id="edge4" class="edge">
<title>Node5&#45;&gt;Node4</title>
<path fill="none" stroke="#9a32cd" stroke-dasharray="5,2" d="M210.1845,-57C231.3752,-57 259.7586,-57 284.9738,-57"/>
<polygon fill="#9a32cd" stroke="#9a32cd" points="210.1099,-53.5001 200.1099,-57 210.1099,-60.5001 210.1099,-53.5001"/>
<text text-anchor="middle" x="242.5" y="-71" font-family="Helvetica,sans-Serif" font-size="10.00" fill="#000000"> keys</text>
<text text-anchor="middle" x="242.5" y="-60" font-family="Helvetica,sans-Serif" font-size="10.00" fill="#000000">elements</text>
</g>
<!-- Node7 -->
<g id="node7" class="node">
<title>Node7</title>
<polygon fill="#ffffff" stroke="#bfbfbf" points="422,-.5 422,-19.5 541,-19.5 541,-.5 422,-.5"/>
<text text-anchor="middle" x="481.5" y="-7.5" font-family="Helvetica,sans-Serif" font-size="10.00" fill="#000000">vector&lt; std::string &gt;</text>
</g>
<!-- Node5&#45;&gt;Node7 -->
<g id="edge9" class="edge">
<title>Node5&#45;&gt;Node7</title>
<path fill="none" stroke="#9a32cd" stroke-dasharray="5,2" d="M209.8681,-44.3712C212.5963,-43.4975 215.3323,-42.691 218,-42 286.5883,-24.2331 367.8356,-16.2648 421.7963,-12.7339"/>
<polygon fill="#9a32cd" stroke="#9a32cd" points="208.4553,-41.1568 200.1577,-47.7447 210.7525,-47.7691 208.4553,-41.1568"/>
<text text-anchor="middle" x="242.5" y="-45" font-family="Helvetica,sans-Serif" font-size="10.00" fill="#000000"> elements</text>
</g>
<!-- Node6 -->
<g id="node6" class="node">
<title>Node6</title>
<g id="a_node6"><a xlink:title="STL class. ">
<polygon fill="#ffffff" stroke="#bfbfbf" points="0,-47.5 0,-66.5 119,-66.5 119,-47.5 0,-47.5"/>
<text text-anchor="middle" x="59.5" y="-54.5" font-family="Helvetica,sans-Serif" font-size="10.00" fill="#000000">basic_string&lt; char &gt;</text>
</a>
</g>
</g>
<!-- Node6&#45;&gt;Node5 -->
<g id="edge5" class="edge">
<title>Node6&#45;&gt;Node5</title>
<path fill="none" stroke="#191970" d="M129.2118,-57C138.8284,-57 148.0652,-57 155.8653,-57"/>
<polygon fill="#191970" stroke="#191970" points="129.0972,-53.5001 119.0972,-57 129.0971,-60.5001 129.0972,-53.5001"/>
</g>
<!-- Node7&#45;&gt;Node1 -->
<g id="edge8" class="edge">
<title>Node7&#45;&gt;Node1</title>
<path fill="none" stroke="#9a32cd" stroke-dasharray="5,2" d="M551.3818,-8.5241C583.2831,-7.9209 621.552,-7.2961 656,-7 700.4428,-6.618 711.6329,-4.3787 756,-7 869.0351,-13.6783 896.8427,-21.435 1009,-37 1018.8068,-38.361 1029.2101,-39.9164 1039.2989,-41.4841"/>
<polygon fill="#9a32cd" stroke="#9a32cd" points="551.1918,-5.027 541.2609,-8.7187 551.3264,-12.0257 551.1918,-5.027"/>
<text text-anchor="middle" x="706" y="-21" font-family="Helvetica,sans-Serif" font-size="10.00" fill="#000000"> BadAlternativeSites</text>
<text text-anchor="middle" x="706" y="-10" font-family="Helvetica,sans-Serif" font-size="10.00" fill="#000000">PastRedirections</text>
</g>
</g>
</svg>
        <g id="navigator" transform="translate(0 0)" fill="#404254">
                <rect fill="#f2f5e9" fill-opacity="0.5" stroke="#606060" stroke-width=".5" x="0" y="0" width="60" height="60"/>
                <use id="zoomplus" xlink:href="#zoomPlus" x="17" y="9" onmousedown="handleZoom(evt,'in')"/>
                <use id="zoomminus" xlink:href="#zoomMin" x="42" y="9" onmousedown="handleZoom(evt,'out')"/>
                <use id="reset" xlink:href="#resetDef" x="30" y="36" onmousedown="handleReset()"/>
                <g id="arrowUp" xlink:href="#dirArrow" transform="translate(30 24)" onmousedown="handlePan(0,-1)">
                  <use xlink:href="#rim" fill="#404040">
                        <set attributeName="fill" to="#808080" begin="arrowUp.mouseover" end="arrowUp.mouseout"/>
                  </use>
                  <path fill="none" stroke="white" stroke-width="1.5" d="M0,-3.0v7 M-2.5,-0.5L0,-3.0L2.5,-0.5"/>
                </g>
                <g id="arrowRight" xlink:href="#dirArrow" transform="rotate(90) translate(36 -43)" onmousedown="handlePan(1,0)">
                  <use xlink:href="#rim" fill="#404040">
                        <set attributeName="fill" to="#808080" begin="arrowRight.mouseover" end="arrowRight.mouseout"/>
                  </use>
                  <path fill="none" stroke="white" stroke-width="1.5" d="M0,-3.0v7 M-2.5,-0.5L0,-3.0L2.5,-0.5"/>
                </g>
                <g id="arrowDown" xlink:href="#dirArrow" transform="rotate(180) translate(-30 -48)" onmousedown="handlePan(0,1)">
                  <use xlink:href="#rim" fill="#404040">
                        <set attributeName="fill" to="#808080" begin="arrowDown.mouseover" end="arrowDown.mouseout"/>
                  </use>
                  <path fill="none" stroke="white" stroke-width="1.5" d="M0,-3.0v7 M-2.5,-0.5L0,-3.0L2.5,-0.5"/>
                </g>
                <g id="arrowLeft" xlink:href="#dirArrow" transform="rotate(270) translate(-36 17)" onmousedown="handlePan(-1,0)">
                  <use xlink:href="#rim" fill="#404040">
                        <set attributeName="fill" to="#808080" begin="arrowLeft.mouseover" end="arrowLeft.mouseout"/>
                  </use>
                  <path fill="none" stroke="white" stroke-width="1.5" d="M0,-3.0v7 M-2.5,-0.5L0,-3.0L2.5,-0.5"/>
                </g>
        </g>
        <svg viewBox="0 0 15 15" width="100%" height="30px" preserveAspectRatio="xMaxYMin meet">
         <g id="arrow_out" transform="scale(0.3 0.3)">
          <a xlink:href="classpkgAcquire_1_1Item_1_1Private__coll__graph_org.svg" target="_base">
           <rect id="button" ry="5" rx="5" y="6" x="6" height="38" width="38"
                fill="#f2f5e9" fill-opacity="0.5" stroke="#606060" stroke-width="1.0"/>
           <path id="arrow"
             d="M 11.500037,31.436501 C 11.940474,20.09759 22.043105,11.32322 32.158766,21.979434 L 37.068811,17.246167 C 37.068811,17.246167 37.088388,32 37.088388,32 L 22.160133,31.978069 C 22.160133,31.978069 26.997745,27.140456 26.997745,27.140456 C 18.528582,18.264221 13.291696,25.230495 11.500037,31.436501 z"
             style="fill:#404040;"/>
          </a>
         </g>
        </svg>
</svg>
