<?xml version="1.0" encoding="UTF-8" standalone="no"?>
<!DOCTYPE svg PUBLIC "-//W3C//DTD SVG 1.1//EN"
 "http://www.w3.org/Graphics/SVG/1.1/DTD/svg11.dtd">
<!-- Generated by graphviz version 2.40.1 (20161225.0304)
 -->
<!-- Title: pkgAcqIndexMergeDiffs Pages: 1 -->
<svg width="140pt" height="252pt"
 viewBox="0.00 0.00 140.00 252.00" xmlns="http://www.w3.org/2000/svg" xmlns:xlink="http://www.w3.org/1999/xlink">
<g id="graph0" class="graph" transform="scale(1 1) rotate(0) translate(4 248)">
<title>pkgAcqIndexMergeDiffs</title>
<polygon fill="#ffffff" stroke="transparent" points="-4,4 -4,-248 136,-248 136,4 -4,4"/>
<!-- Node0 -->
<g id="node1" class="node">
<title>Node0</title>
<polygon fill="#bfbfbf" stroke="#000000" points="0,-.5 0,-19.5 132,-19.5 132,-.5 0,-.5"/>
<text text-anchor="middle" x="66" y="-7.5" font-family="Helvetica,sans-Serif" font-size="10.00" fill="#000000">pkgAcqIndexMergeDiffs</text>
</g>
<!-- Node1 -->
<g id="node2" class="node">
<title>Node1</title>
<g id="a_node2"><a xlink:href="classpkgAcqBaseIndex.xhtml" target="_top" xlink:title="Common base class for all classes that deal with fetching indexes {{{. ">
<polygon fill="#ffffff" stroke="#000000" points="14,-56.5 14,-75.5 118,-75.5 118,-56.5 14,-56.5"/>
<text text-anchor="middle" x="66" y="-63.5" font-family="Helvetica,sans-Serif" font-size="10.00" fill="#000000">pkgAcqBaseIndex</text>
</a>
</g>
</g>
<!-- Node1&#45;&gt;Node0 -->
<g id="edge1" class="edge">
<title>Node1&#45;&gt;Node0</title>
<path fill="none" stroke="#191970" d="M66,-46.1575C66,-37.155 66,-26.9199 66,-19.6427"/>
<polygon fill="#191970" stroke="#191970" points="62.5001,-46.2455 66,-56.2455 69.5001,-46.2456 62.5001,-46.2455"/>
</g>
<!-- Node2 -->
<g id="node3" class="node">
<title>Node2</title>
<g id="a_node3"><a xlink:href="classpkgAcqTransactionItem.xhtml" target="_top" xlink:title="baseclass for the indexes files to manage them all together ">
<polygon fill="#ffffff" stroke="#000000" points=".5,-112.5 .5,-131.5 131.5,-131.5 131.5,-112.5 .5,-112.5"/>
<text text-anchor="middle" x="66" y="-119.5" font-family="Helvetica,sans-Serif" font-size="10.00" fill="#000000">pkgAcqTransactionItem</text>
</a>
</g>
</g>
<!-- Node2&#45;&gt;Node1 -->
<g id="edge2" class="edge">
<title>Node2&#45;&gt;Node1</title>
<path fill="none" stroke="#191970" d="M66,-102.1575C66,-93.155 66,-82.9199 66,-75.6427"/>
<polygon fill="#191970" stroke="#191970" points="62.5001,-102.2455 66,-112.2455 69.5001,-102.2456 62.5001,-102.2455"/>
</g>
<!-- Node3 -->
<g id="node4" class="node">
<title>Node3</title>
<g id="a_node4"><a xlink:href="classpkgAcquire_1_1Item.xhtml" target="_top" xlink:title="Represents the process by which a pkgAcquire object should retrieve a file or a collection of files...">
<polygon fill="#ffffff" stroke="#000000" points="46.5,-168.5 46.5,-187.5 85.5,-187.5 85.5,-168.5 46.5,-168.5"/>
<text text-anchor="middle" x="66" y="-175.5" font-family="Helvetica,sans-Serif" font-size="10.00" fill="#000000">Item</text>
</a>
</g>
</g>
<!-- Node3&#45;&gt;Node2 -->
<g id="edge3" class="edge">
<title>Node3&#45;&gt;Node2</title>
<path fill="none" stroke="#191970" d="M66,-158.1575C66,-149.155 66,-138.9199 66,-131.6427"/>
<polygon fill="#191970" stroke="#191970" points="62.5001,-158.2455 66,-168.2455 69.5001,-158.2456 62.5001,-158.2455"/>
</g>
<!-- Node4 -->
<g id="node5" class="node">
<title>Node4</title>
<g id="a_node5"><a xlink:href="classWeakPointable.xhtml" target="_top" xlink:title="WeakPointable">
<polygon fill="#ffffff" stroke="#000000" points="21.5,-224.5 21.5,-243.5 110.5,-243.5 110.5,-224.5 21.5,-224.5"/>
<text text-anchor="middle" x="66" y="-231.5" font-family="Helvetica,sans-Serif" font-size="10.00" fill="#000000">WeakPointable</text>
</a>
</g>
</g>
<!-- Node4&#45;&gt;Node3 -->
<g id="edge4" class="edge">
<title>Node4&#45;&gt;Node3</title>
<path fill="none" stroke="#191970" d="M66,-214.1575C66,-205.155 66,-194.9199 66,-187.6427"/>
<polygon fill="#191970" stroke="#191970" points="62.5001,-214.2455 66,-224.2455 69.5001,-214.2456 62.5001,-214.2455"/>
</g>
</g>
</svg>
