<?xml version="1.0" encoding="UTF-8" standalone="no"?>
<!DOCTYPE svg PUBLIC "-//W3C//DTD SVG 1.1//EN"
 "http://www.w3.org/Graphics/SVG/1.1/DTD/svg11.dtd">
<!-- Generated by graphviz version 2.40.1 (20161225.0304)
 -->
<!-- Title: pkgAcqIndex Pages: 1 -->
<svg width="139pt" height="308pt"
 viewBox="0.00 0.00 139.00 308.00" xmlns="http://www.w3.org/2000/svg" xmlns:xlink="http://www.w3.org/1999/xlink">
<g id="graph0" class="graph" transform="scale(1 1) rotate(0) translate(4 304)">
<title>pkgAcqIndex</title>
<polygon fill="#ffffff" stroke="transparent" points="-4,4 -4,-304 135,-304 135,4 -4,4"/>
<!-- Node0 -->
<g id="node1" class="node">
<title>Node0</title>
<polygon fill="#bfbfbf" stroke="#000000" points="25.5,-56.5 25.5,-75.5 105.5,-75.5 105.5,-56.5 25.5,-56.5"/>
<text text-anchor="middle" x="65.5" y="-63.5" font-family="Helvetica,sans-Serif" font-size="10.00" fill="#000000">pkgAcqIndex</text>
</g>
<!-- Node5 -->
<g id="node6" class="node">
<title>Node5</title>
<g id="a_node6"><a xlink:href="classpkgAcqDiffIndex.xhtml" target="_top" xlink:title="An item that is responsible for fetching an index file of {{{ package list diffs and starting the pac...">
<polygon fill="#ffffff" stroke="#000000" points="17,-.5 17,-19.5 114,-19.5 114,-.5 17,-.5"/>
<text text-anchor="middle" x="65.5" y="-7.5" font-family="Helvetica,sans-Serif" font-size="10.00" fill="#000000">pkgAcqDiffIndex</text>
</a>
</g>
</g>
<!-- Node0&#45;&gt;Node5 -->
<g id="edge5" class="edge">
<title>Node0&#45;&gt;Node5</title>
<path fill="none" stroke="#191970" d="M65.5,-46.1575C65.5,-37.155 65.5,-26.9199 65.5,-19.6427"/>
<polygon fill="#191970" stroke="#191970" points="62.0001,-46.2455 65.5,-56.2455 69.0001,-46.2456 62.0001,-46.2455"/>
</g>
<!-- Node1 -->
<g id="node2" class="node">
<title>Node1</title>
<g id="a_node2"><a xlink:href="classpkgAcqBaseIndex.xhtml" target="_top" xlink:title="Common base class for all classes that deal with fetching indexes {{{. ">
<polygon fill="#ffffff" stroke="#000000" points="13.5,-112.5 13.5,-131.5 117.5,-131.5 117.5,-112.5 13.5,-112.5"/>
<text text-anchor="middle" x="65.5" y="-119.5" font-family="Helvetica,sans-Serif" font-size="10.00" fill="#000000">pkgAcqBaseIndex</text>
</a>
</g>
</g>
<!-- Node1&#45;&gt;Node0 -->
<g id="edge1" class="edge">
<title>Node1&#45;&gt;Node0</title>
<path fill="none" stroke="#191970" d="M65.5,-102.1575C65.5,-93.155 65.5,-82.9199 65.5,-75.6427"/>
<polygon fill="#191970" stroke="#191970" points="62.0001,-102.2455 65.5,-112.2455 69.0001,-102.2456 62.0001,-102.2455"/>
</g>
<!-- Node2 -->
<g id="node3" class="node">
<title>Node2</title>
<g id="a_node3"><a xlink:href="classpkgAcqTransactionItem.xhtml" target="_top" xlink:title="baseclass for the indexes files to manage them all together ">
<polygon fill="#ffffff" stroke="#000000" points="0,-168.5 0,-187.5 131,-187.5 131,-168.5 0,-168.5"/>
<text text-anchor="middle" x="65.5" y="-175.5" font-family="Helvetica,sans-Serif" font-size="10.00" fill="#000000">pkgAcqTransactionItem</text>
</a>
</g>
</g>
<!-- Node2&#45;&gt;Node1 -->
<g id="edge2" class="edge">
<title>Node2&#45;&gt;Node1</title>
<path fill="none" stroke="#191970" d="M65.5,-158.1575C65.5,-149.155 65.5,-138.9199 65.5,-131.6427"/>
<polygon fill="#191970" stroke="#191970" points="62.0001,-158.2455 65.5,-168.2455 69.0001,-158.2456 62.0001,-158.2455"/>
</g>
<!-- Node3 -->
<g id="node4" class="node">
<title>Node3</title>
<g id="a_node4"><a xlink:href="classpkgAcquire_1_1Item.xhtml" target="_top" xlink:title="Represents the process by which a pkgAcquire object should retrieve a file or a collection of files...">
<polygon fill="#ffffff" stroke="#000000" points="46,-224.5 46,-243.5 85,-243.5 85,-224.5 46,-224.5"/>
<text text-anchor="middle" x="65.5" y="-231.5" font-family="Helvetica,sans-Serif" font-size="10.00" fill="#000000">Item</text>
</a>
</g>
</g>
<!-- Node3&#45;&gt;Node2 -->
<g id="edge3" class="edge">
<title>Node3&#45;&gt;Node2</title>
<path fill="none" stroke="#191970" d="M65.5,-214.1575C65.5,-205.155 65.5,-194.9199 65.5,-187.6427"/>
<polygon fill="#191970" stroke="#191970" points="62.0001,-214.2455 65.5,-224.2455 69.0001,-214.2456 62.0001,-214.2455"/>
</g>
<!-- Node4 -->
<g id="node5" class="node">
<title>Node4</title>
<g id="a_node5"><a xlink:href="classWeakPointable.xhtml" target="_top" xlink:title="WeakPointable">
<polygon fill="#ffffff" stroke="#000000" points="21,-280.5 21,-299.5 110,-299.5 110,-280.5 21,-280.5"/>
<text text-anchor="middle" x="65.5" y="-287.5" font-family="Helvetica,sans-Serif" font-size="10.00" fill="#000000">WeakPointable</text>
</a>
</g>
</g>
<!-- Node4&#45;&gt;Node3 -->
<g id="edge4" class="edge">
<title>Node4&#45;&gt;Node3</title>
<path fill="none" stroke="#191970" d="M65.5,-270.1575C65.5,-261.155 65.5,-250.9199 65.5,-243.6427"/>
<polygon fill="#191970" stroke="#191970" points="62.0001,-270.2455 65.5,-280.2455 69.0001,-270.2456 62.0001,-270.2455"/>
</g>
</g>
</svg>
