<?xml version="1.0" encoding="UTF-8" standalone="no"?>
<!DOCTYPE svg PUBLIC "-//W3C//DTD SVG 1.1//EN"
 "http://www.w3.org/Graphics/SVG/1.1/DTD/svg11.dtd">
<!-- Generated by graphviz version 2.40.1 (20161225.0304)
 -->
<!-- Title: pkgCacheFile Pages: 1 -->
<svg width="1549pt" height="926pt"
 viewBox="0.00 0.00 1549.00 926.00" xmlns="http://www.w3.org/2000/svg" xmlns:xlink="http://www.w3.org/1999/xlink">
<g id="graph0" class="graph" transform="scale(1 1) rotate(0) translate(4 922)">
<title>pkgCacheFile</title>
<polygon fill="#ffffff" stroke="transparent" points="-4,4 -4,-922 1545,-922 1545,4 -4,4"/>
<!-- Node1 -->
<g id="node1" class="node">
<title>Node1</title>
<polygon fill="#bfbfbf" stroke="#000000" points="1460,-533.5 1460,-552.5 1541,-552.5 1541,-533.5 1460,-533.5"/>
<text text-anchor="middle" x="1500.5" y="-540.5" font-family="Helvetica,sans-Serif" font-size="10.00" fill="#000000">pkgCacheFile</text>
</g>
<!-- Node2 -->
<g id="node2" class="node">
<title>Node2</title>
<g id="a_node2"><a xlink:href="classpkgCache.xhtml" target="_top" xlink:title="pkgCache">
<polygon fill="#ffffff" stroke="#000000" points="877,-564.5 877,-583.5 942,-583.5 942,-564.5 877,-564.5"/>
<text text-anchor="middle" x="909.5" y="-571.5" font-family="Helvetica,sans-Serif" font-size="10.00" fill="#000000">pkgCache</text>
</a>
</g>
</g>
<!-- Node2&#45;&gt;Node1 -->
<g id="edge1" class="edge">
<title>Node2&#45;&gt;Node1</title>
<path fill="none" stroke="#9a32cd" stroke-dasharray="5,2" d="M952.1552,-571.7626C1061.8575,-566.0083 1352.6832,-550.7535 1459.9864,-545.1251"/>
<polygon fill="#9a32cd" stroke="#9a32cd" points="951.9195,-568.27 942.1166,-572.2891 952.2862,-575.2604 951.9195,-568.27"/>
<text text-anchor="middle" x="1251" y="-560" font-family="Helvetica,sans-Serif" font-size="10.00" fill="#000000"> Cache</text>
</g>
<!-- Node21 -->
<g id="node21" class="node">
<title>Node21</title>
<g id="a_node21"><a xlink:href="classpkgDepCache.xhtml" target="_top" xlink:title="pkgDepCache">
<polygon fill="#ffffff" stroke="#000000" points="1093,-579.5 1093,-598.5 1177,-598.5 1177,-579.5 1093,-579.5"/>
<text text-anchor="middle" x="1135" y="-586.5" font-family="Helvetica,sans-Serif" font-size="10.00" fill="#000000">pkgDepCache</text>
</a>
</g>
</g>
<!-- Node2&#45;&gt;Node21 -->
<g id="edge25" class="edge">
<title>Node2&#45;&gt;Node21</title>
<path fill="none" stroke="#9a32cd" stroke-dasharray="5,2" d="M952.3574,-576.8508C992.7282,-579.5362 1052.8406,-583.5348 1092.9467,-586.2027"/>
<polygon fill="#9a32cd" stroke="#9a32cd" points="952.4999,-573.3527 942.2896,-576.1811 952.0353,-580.3372 952.4999,-573.3527"/>
<text text-anchor="middle" x="1018" y="-586" font-family="Helvetica,sans-Serif" font-size="10.00" fill="#000000"> Cache</text>
</g>
<!-- Node25 -->
<g id="node25" class="node">
<title>Node25</title>
<g id="a_node25"><a xlink:href="classpkgPolicy.xhtml" target="_top" xlink:title="pkgPolicy">
<polygon fill="#ffffff" stroke="#000000" points="1103,-332.5 1103,-351.5 1167,-351.5 1167,-332.5 1103,-332.5"/>
<text text-anchor="middle" x="1135" y="-339.5" font-family="Helvetica,sans-Serif" font-size="10.00" fill="#000000">pkgPolicy</text>
</a>
</g>
</g>
<!-- Node2&#45;&gt;Node25 -->
<g id="edge29" class="edge">
<title>Node2&#45;&gt;Node25</title>
<path fill="none" stroke="#9a32cd" stroke-dasharray="5,2" d="M924.1474,-556.1428C938.6722,-538.6581 961.7672,-511.4498 983,-489 1033.9555,-435.1238 1099.135,-374.7459 1124.3654,-351.6712"/>
<polygon fill="#9a32cd" stroke="#9a32cd" points="921.0598,-554.3847 917.3883,-564.323 926.4561,-558.8435 921.0598,-554.3847"/>
<text text-anchor="middle" x="1018" y="-492" font-family="Helvetica,sans-Serif" font-size="10.00" fill="#000000"> Cache</text>
</g>
<!-- Node3 -->
<g id="node3" class="node">
<title>Node3</title>
<g id="a_node3"><a xlink:href="structpkgCache_1_1DependencyData.xhtml" target="_top" xlink:title="information for a single dependency record ">
<polygon fill="#ffffff" stroke="#000000" points="578,-640.5 578,-659.5 679,-659.5 679,-640.5 578,-640.5"/>
<text text-anchor="middle" x="628.5" y="-647.5" font-family="Helvetica,sans-Serif" font-size="10.00" fill="#000000">DependencyData</text>
</a>
</g>
</g>
<!-- Node3&#45;&gt;Node2 -->
<g id="edge2" class="edge">
<title>Node3&#45;&gt;Node2</title>
<path fill="none" stroke="#9a32cd" stroke-dasharray="5,2" d="M689.2349,-652.0967C732.9437,-650.9343 791.7508,-643.6752 836,-617 847.4189,-610.1162 843.215,-600.8398 854,-593 860.7551,-588.0896 868.877,-584.3755 876.797,-581.5952"/>
<polygon fill="#9a32cd" stroke="#9a32cd" points="688.9697,-648.6006 679.029,-652.2656 689.0856,-655.5996 688.9697,-648.6006"/>
<text text-anchor="middle" x="780.5" y="-652" font-family="Helvetica,sans-Serif" font-size="10.00" fill="#000000"> DepDataP</text>
</g>
<!-- Node4 -->
<g id="node4" class="node">
<title>Node4</title>
<g id="a_node4"><a xlink:href="structpkgCache_1_1Dependency.xhtml" target="_top" xlink:title="Dependency">
<polygon fill="#ffffff" stroke="#000000" points="590,-602.5 590,-621.5 667,-621.5 667,-602.5 590,-602.5"/>
<text text-anchor="middle" x="628.5" y="-609.5" font-family="Helvetica,sans-Serif" font-size="10.00" fill="#000000">Dependency</text>
</a>
</g>
</g>
<!-- Node4&#45;&gt;Node2 -->
<g id="edge3" class="edge">
<title>Node4&#45;&gt;Node2</title>
<path fill="none" stroke="#9a32cd" stroke-dasharray="5,2" d="M677.2621,-607.8573C719.4181,-603.9749 781.9171,-597.498 836,-589 849.3802,-586.8976 864.0194,-584.0278 876.6863,-581.3611"/>
<polygon fill="#9a32cd" stroke="#9a32cd" points="676.9083,-604.3749 667.2656,-608.7644 677.541,-611.3463 676.9083,-604.3749"/>
<text text-anchor="middle" x="780.5" y="-605" font-family="Helvetica,sans-Serif" font-size="10.00" fill="#000000"> DepP</text>
</g>
<!-- Node5 -->
<g id="node5" class="node">
<title>Node5</title>
<g id="a_node5"><a xlink:href="structpkgCache_1_1Description.xhtml" target="_top" xlink:title="datamember of a linked list of available description for a version ">
<polygon fill="#ffffff" stroke="#000000" points="592.5,-564.5 592.5,-583.5 664.5,-583.5 664.5,-564.5 592.5,-564.5"/>
<text text-anchor="middle" x="628.5" y="-571.5" font-family="Helvetica,sans-Serif" font-size="10.00" fill="#000000">Description</text>
</a>
</g>
</g>
<!-- Node5&#45;&gt;Node2 -->
<g id="edge4" class="edge">
<title>Node5&#45;&gt;Node2</title>
<path fill="none" stroke="#9a32cd" stroke-dasharray="5,2" d="M674.8391,-574C731.844,-574 827.1645,-574 876.9611,-574"/>
<polygon fill="#9a32cd" stroke="#9a32cd" points="674.6606,-570.5001 664.6606,-574 674.6605,-577.5001 674.6606,-570.5001"/>
<text text-anchor="middle" x="780.5" y="-577" font-family="Helvetica,sans-Serif" font-size="10.00" fill="#000000"> DescP</text>
</g>
<!-- Node6 -->
<g id="node6" class="node">
<title>Node6</title>
<g id="a_node6"><a xlink:href="structpkgCache_1_1Header.xhtml" target="_top" xlink:title="Header">
<polygon fill="#ffffff" stroke="#000000" points="602.5,-526.5 602.5,-545.5 654.5,-545.5 654.5,-526.5 602.5,-526.5"/>
<text text-anchor="middle" x="628.5" y="-533.5" font-family="Helvetica,sans-Serif" font-size="10.00" fill="#000000">Header</text>
</a>
</g>
</g>
<!-- Node6&#45;&gt;Node2 -->
<g id="edge5" class="edge">
<title>Node6&#45;&gt;Node2</title>
<path fill="none" stroke="#9a32cd" stroke-dasharray="5,2" d="M664.988,-539.0327C706.5361,-542.7204 776.3816,-549.6322 836,-559 849.3802,-561.1024 864.0194,-563.9722 876.6863,-566.6389"/>
<polygon fill="#9a32cd" stroke="#9a32cd" points="665.0732,-535.5269 654.8065,-538.1435 664.4641,-542.5004 665.0732,-535.5269"/>
<text text-anchor="middle" x="780.5" y="-562" font-family="Helvetica,sans-Serif" font-size="10.00" fill="#000000"> HeaderP</text>
</g>
<!-- Node7 -->
<g id="node7" class="node">
<title>Node7</title>
<g id="a_node7"><a xlink:href="structDynamicMMap_1_1Pool.xhtml" target="_top" xlink:title="Pool">
<polygon fill="#ffffff" stroke="#000000" points="400,-526.5 400,-545.5 438,-545.5 438,-526.5 400,-526.5"/>
<text text-anchor="middle" x="419" y="-533.5" font-family="Helvetica,sans-Serif" font-size="10.00" fill="#000000">Pool</text>
</a>
</g>
</g>
<!-- Node7&#45;&gt;Node6 -->
<g id="edge6" class="edge">
<title>Node7&#45;&gt;Node6</title>
<path fill="none" stroke="#9a32cd" stroke-dasharray="5,2" d="M448.5102,-536C489.5665,-536 563.2746,-536 602.4167,-536"/>
<polygon fill="#9a32cd" stroke="#9a32cd" points="448.3338,-532.5001 438.3337,-536 448.3337,-539.5001 448.3338,-532.5001"/>
<text text-anchor="middle" x="504" y="-539" font-family="Helvetica,sans-Serif" font-size="10.00" fill="#000000"> Pools</text>
</g>
<!-- Node8 -->
<g id="node8" class="node">
<title>Node8</title>
<g id="a_node8"><a xlink:href="structpkgCache_1_1PackageFile.xhtml" target="_top" xlink:title="stores information about the files used to generate the cache ">
<polygon fill="#ffffff" stroke="#000000" points="591.5,-488.5 591.5,-507.5 665.5,-507.5 665.5,-488.5 591.5,-488.5"/>
<text text-anchor="middle" x="628.5" y="-495.5" font-family="Helvetica,sans-Serif" font-size="10.00" fill="#000000">PackageFile</text>
</a>
</g>
</g>
<!-- Node8&#45;&gt;Node2 -->
<g id="edge7" class="edge">
<title>Node8&#45;&gt;Node2</title>
<path fill="none" stroke="#9a32cd" stroke-dasharray="5,2" d="M675.6926,-500.1032C718.5999,-503.2129 783.1017,-510.9172 836,-530 859.083,-538.3271 882.944,-554.1985 896.9909,-564.43"/>
<polygon fill="#9a32cd" stroke="#9a32cd" points="675.7495,-496.5993 665.5382,-499.424 675.2822,-503.5837 675.7495,-496.5993"/>
<text text-anchor="middle" x="780.5" y="-533" font-family="Helvetica,sans-Serif" font-size="10.00" fill="#000000"> PkgFileP</text>
</g>
<!-- Node9 -->
<g id="node9" class="node">
<title>Node9</title>
<g id="a_node9"><a xlink:href="structpkgCache_1_1ReleaseFile.xhtml" target="_top" xlink:title="stores information about the release files used to generate the cache ">
<polygon fill="#ffffff" stroke="#000000" points="593,-450.5 593,-469.5 664,-469.5 664,-450.5 593,-450.5"/>
<text text-anchor="middle" x="628.5" y="-457.5" font-family="Helvetica,sans-Serif" font-size="10.00" fill="#000000">ReleaseFile</text>
</a>
</g>
</g>
<!-- Node9&#45;&gt;Node2 -->
<g id="edge8" class="edge">
<title>Node9&#45;&gt;Node2</title>
<path fill="none" stroke="#9a32cd" stroke-dasharray="5,2" d="M674.357,-457.7504C718.4023,-457.5585 785.5182,-462.5673 836,-490 868.8608,-507.8571 893.9492,-546.5325 904.3073,-564.4866"/>
<polygon fill="#9a32cd" stroke="#9a32cd" points="674.1806,-454.2523 664.2291,-457.8879 674.2758,-461.2517 674.1806,-454.2523"/>
<text text-anchor="middle" x="780.5" y="-493" font-family="Helvetica,sans-Serif" font-size="10.00" fill="#000000"> RlsFileP</text>
</g>
<!-- Node10 -->
<g id="node10" class="node">
<title>Node10</title>
<g id="a_node10"><a xlink:href="structpkgCache_1_1DescFile.xhtml" target="_top" xlink:title="associates a description with a Translation file ">
<polygon fill="#ffffff" stroke="#000000" points="600,-412.5 600,-431.5 657,-431.5 657,-412.5 600,-412.5"/>
<text text-anchor="middle" x="628.5" y="-419.5" font-family="Helvetica,sans-Serif" font-size="10.00" fill="#000000">DescFile</text>
</a>
</g>
</g>
<!-- Node10&#45;&gt;Node2 -->
<g id="edge9" class="edge">
<title>Node10&#45;&gt;Node2</title>
<path fill="none" stroke="#9a32cd" stroke-dasharray="5,2" d="M667.2517,-416.2613C711.8474,-411.7721 785.4252,-411.0698 836,-445 849.8736,-454.3077 845.8185,-463.4338 854,-478 871.8184,-509.7237 893.5776,-546.931 903.7467,-564.2338"/>
<polygon fill="#9a32cd" stroke="#9a32cd" points="666.6595,-412.8057 657.1117,-417.3981 667.4395,-419.7621 666.6595,-412.8057"/>
<text text-anchor="middle" x="780.5" y="-448" font-family="Helvetica,sans-Serif" font-size="10.00" fill="#000000"> DescFileP</text>
</g>
<!-- Node11 -->
<g id="node11" class="node">
<title>Node11</title>
<g id="a_node11"><a xlink:href="structpkgCache_1_1Provides.xhtml" target="_top" xlink:title="handles virtual packages ">
<polygon fill="#ffffff" stroke="#000000" points="599,-374.5 599,-393.5 658,-393.5 658,-374.5 599,-374.5"/>
<text text-anchor="middle" x="628.5" y="-381.5" font-family="Helvetica,sans-Serif" font-size="10.00" fill="#000000">Provides</text>
</a>
</g>
</g>
<!-- Node11&#45;&gt;Node2 -->
<g id="edge10" class="edge">
<title>Node11&#45;&gt;Node2</title>
<path fill="none" stroke="#9a32cd" stroke-dasharray="5,2" d="M668.2742,-374.2016C714.3269,-365.4172 789.7602,-359.2983 836,-399 863.3218,-422.4586 840.8403,-444.4797 854,-478 867.2262,-511.6895 890.9579,-547.671 902.6322,-564.4091"/>
<polygon fill="#9a32cd" stroke="#9a32cd" points="667.4551,-370.7965 658.3548,-376.2218 668.8521,-377.6557 667.4551,-370.7965"/>
<text text-anchor="middle" x="780.5" y="-402" font-family="Helvetica,sans-Serif" font-size="10.00" fill="#000000"> ProvideP</text>
</g>
<!-- Node12 -->
<g id="node12" class="node">
<title>Node12</title>
<g id="a_node12"><a xlink:title="STL class. ">
<polygon fill="#ffffff" stroke="#bfbfbf" points="177.5,-215.5 177.5,-234.5 221.5,-234.5 221.5,-215.5 177.5,-215.5"/>
<text text-anchor="middle" x="199.5" y="-222.5" font-family="Helvetica,sans-Serif" font-size="10.00" fill="#000000">string</text>
</a>
</g>
</g>
<!-- Node12&#45;&gt;Node2 -->
<g id="edge11" class="edge">
<title>Node12&#45;&gt;Node2</title>
<path fill="none" stroke="#9a32cd" stroke-dasharray="5,2" d="M216.5097,-241.7335C228.0945,-252.1279 244.3074,-264.832 261,-272 290.726,-284.7646 813.1481,-341.1011 836,-364 872.2333,-400.3078 836.8751,-429.6487 854,-478 866.0832,-512.1162 890.3507,-547.8977 902.3903,-564.4994"/>
<polygon fill="#9a32cd" stroke="#9a32cd" points="218.652,-238.9456 208.9515,-234.6852 213.878,-244.065 218.652,-238.9456"/>
<text text-anchor="middle" x="504" y="-314" font-family="Helvetica,sans-Serif" font-size="10.00" fill="#000000"> CacheFile</text>
</g>
<!-- Node20 -->
<g id="node20" class="node">
<title>Node20</title>
<g id="a_node20"><a xlink:href="classFileFd.xhtml" target="_top" xlink:title="FileFd">
<polygon fill="#ffffff" stroke="#000000" points="397,-647.5 397,-666.5 441,-666.5 441,-647.5 397,-647.5"/>
<text text-anchor="middle" x="419" y="-654.5" font-family="Helvetica,sans-Serif" font-size="10.00" fill="#000000">FileFd</text>
</a>
</g>
</g>
<!-- Node12&#45;&gt;Node20 -->
<g id="edge21" class="edge">
<title>Node12&#45;&gt;Node20</title>
<path fill="none" stroke="#9a32cd" stroke-dasharray="5,2" d="M207.7608,-244.105C219.2388,-270.4187 240.8749,-319.1942 261,-360 317.5759,-474.7139 392.9826,-610.512 413.598,-647.3699"/>
<polygon fill="#9a32cd" stroke="#9a32cd" points="210.8207,-242.3643 203.6256,-234.5874 204.4005,-245.1538 210.8207,-242.3643"/>
<text text-anchor="middle" x="311.5" y="-565" font-family="Helvetica,sans-Serif" font-size="10.00" fill="#000000"> TemporaryFileName</text>
<text text-anchor="middle" x="311.5" y="-554" font-family="Helvetica,sans-Serif" font-size="10.00" fill="#000000">FileName</text>
</g>
<!-- Node27 -->
<g id="node27" class="node">
<title>Node27</title>
<g id="a_node27"><a xlink:href="structpkgPolicy_1_1Pin.xhtml" target="_top" xlink:title="Pin">
<polygon fill="#ffffff" stroke="#000000" points="403,-256.5 403,-275.5 435,-275.5 435,-256.5 403,-256.5"/>
<text text-anchor="middle" x="419" y="-263.5" font-family="Helvetica,sans-Serif" font-size="10.00" fill="#000000">Pin</text>
</a>
</g>
</g>
<!-- Node12&#45;&gt;Node27 -->
<g id="edge32" class="edge">
<title>Node12&#45;&gt;Node27</title>
<path fill="none" stroke="#9a32cd" stroke-dasharray="5,2" d="M231.4778,-232.6275C240.9584,-234.7946 251.3781,-237.0842 261,-239 312.5827,-249.2706 374.1197,-259.0926 402.7972,-263.5303"/>
<polygon fill="#9a32cd" stroke="#9a32cd" points="232.1732,-229.196 221.6411,-230.3475 230.5926,-236.0152 232.1732,-229.196"/>
<text text-anchor="middle" x="311.5" y="-260" font-family="Helvetica,sans-Serif" font-size="10.00" fill="#000000"> Data</text>
</g>
<!-- Node29 -->
<g id="node29" class="node">
<title>Node29</title>
<g id="a_node29"><a xlink:href="structpkgPolicy_1_1PkgPin.xhtml" target="_top" xlink:title="PkgPin">
<polygon fill="#ffffff" stroke="#000000" points="603.5,-208.5 603.5,-227.5 653.5,-227.5 653.5,-208.5 603.5,-208.5"/>
<text text-anchor="middle" x="628.5" y="-215.5" font-family="Helvetica,sans-Serif" font-size="10.00" fill="#000000">PkgPin</text>
</a>
</g>
</g>
<!-- Node12&#45;&gt;Node29 -->
<g id="edge37" class="edge">
<title>Node12&#45;&gt;Node29</title>
<path fill="none" stroke="#9a32cd" stroke-dasharray="5,2" d="M231.9055,-224.4712C314.1241,-223.1297 529.5325,-219.6149 603.2963,-218.4112"/>
<polygon fill="#9a32cd" stroke="#9a32cd" points="231.6031,-220.9756 221.6615,-224.6384 231.7173,-227.9747 231.6031,-220.9756"/>
<text text-anchor="middle" x="419" y="-225" font-family="Helvetica,sans-Serif" font-size="10.00" fill="#000000"> Pkg</text>
</g>
<!-- Node33 -->
<g id="node33" class="node">
<title>Node33</title>
<g id="a_node33"><a xlink:href="classmetaIndex.xhtml" target="_top" xlink:title="metaIndex">
<polygon fill="#ffffff" stroke="#000000" points="875,-162.5 875,-181.5 944,-181.5 944,-162.5 875,-162.5"/>
<text text-anchor="middle" x="909.5" y="-169.5" font-family="Helvetica,sans-Serif" font-size="10.00" fill="#000000">metaIndex</text>
</a>
</g>
</g>
<!-- Node12&#45;&gt;Node33 -->
<g id="edge49" class="edge">
<title>Node12&#45;&gt;Node33</title>
<path fill="none" stroke="#9a32cd" stroke-dasharray="5,2" d="M202.3603,-205.1218C207.8798,-174.4625 223.0074,-116.0438 261,-86 337.2385,-25.7123 379.2156,-54.9266 476,-46 644.1844,-30.488 836.4022,-130.3783 893.0118,-162.3724"/>
<polygon fill="#9a32cd" stroke="#9a32cd" points="198.84,-204.9636 200.6877,-215.396 205.7491,-206.0884 198.84,-204.9636"/>
<text text-anchor="middle" x="504" y="-93" font-family="Helvetica,sans-Serif" font-size="10.00" fill="#000000"> Codename</text>
<text text-anchor="middle" x="504" y="-82" font-family="Helvetica,sans-Serif" font-size="10.00" fill="#000000">Dist</text>
<text text-anchor="middle" x="504" y="-71" font-family="Helvetica,sans-Serif" font-size="10.00" fill="#000000">Suite</text>
<text text-anchor="middle" x="504" y="-60" font-family="Helvetica,sans-Serif" font-size="10.00" fill="#000000">URI</text>
<text text-anchor="middle" x="504" y="-49" font-family="Helvetica,sans-Serif" font-size="10.00" fill="#000000">SignedBy</text>
</g>
<!-- Node34 -->
<g id="node34" class="node">
<title>Node34</title>
<polygon fill="#ffffff" stroke="#bfbfbf" points="550,-120 550,-150 707,-150 707,-120 550,-120"/>
<text text-anchor="start" x="558" y="-138" font-family="Helvetica,sans-Serif" font-size="10.00" fill="#000000">map&lt; std::string, metaIndex</text>
<text text-anchor="middle" x="628.5" y="-127" font-family="Helvetica,sans-Serif" font-size="10.00" fill="#000000">::checkSum *&gt;</text>
</g>
<!-- Node12&#45;&gt;Node34 -->
<g id="edge43" class="edge">
<title>Node12&#45;&gt;Node34</title>
<path fill="none" stroke="#9a32cd" stroke-dasharray="5,2" d="M225.6466,-210.6057C259.9247,-192.5404 322.4695,-162.3127 380,-149 435.7803,-136.0923 500.3892,-132.7956 549.7449,-132.6189"/>
<polygon fill="#9a32cd" stroke="#9a32cd" points="223.9275,-207.5559 216.7557,-215.3543 227.2253,-213.7304 223.9275,-207.5559"/>
<text text-anchor="middle" x="419" y="-152" font-family="Helvetica,sans-Serif" font-size="10.00" fill="#000000"> keys</text>
</g>
<!-- Node35 -->
<g id="node35" class="node">
<title>Node35</title>
<g id="a_node35"><a xlink:href="structmetaIndex_1_1checkSum.xhtml" target="_top" xlink:title="checkSum">
<polygon fill="#ffffff" stroke="#000000" points="385.5,-84.5 385.5,-103.5 452.5,-103.5 452.5,-84.5 385.5,-84.5"/>
<text text-anchor="middle" x="419" y="-91.5" font-family="Helvetica,sans-Serif" font-size="10.00" fill="#000000">checkSum</text>
</a>
</g>
</g>
<!-- Node12&#45;&gt;Node35 -->
<g id="edge46" class="edge">
<title>Node12&#45;&gt;Node35</title>
<path fill="none" stroke="#9a32cd" stroke-dasharray="5,2" d="M204.5496,-205.4312C212.1991,-180.0601 229.3086,-136.522 261,-115 297.9706,-89.8929 351.1761,-88.1062 385.4189,-90.2084"/>
<polygon fill="#9a32cd" stroke="#9a32cd" points="201.0924,-204.797 201.7585,-215.3708 207.8317,-206.6894 201.0924,-204.797"/>
<text text-anchor="middle" x="311.5" y="-118" font-family="Helvetica,sans-Serif" font-size="10.00" fill="#000000"> MetaKeyFilename</text>
</g>
<!-- Node13 -->
<g id="node13" class="node">
<title>Node13</title>
<g id="a_node13"><a xlink:title="STL class. ">
<polygon fill="#ffffff" stroke="#bfbfbf" points="0,-215.5 0,-234.5 119,-234.5 119,-215.5 0,-215.5"/>
<text text-anchor="middle" x="59.5" y="-222.5" font-family="Helvetica,sans-Serif" font-size="10.00" fill="#000000">basic_string&lt; char &gt;</text>
</a>
</g>
</g>
<!-- Node13&#45;&gt;Node12 -->
<g id="edge12" class="edge">
<title>Node13&#45;&gt;Node12</title>
<path fill="none" stroke="#191970" d="M129.513,-225C146.9505,-225 164.3868,-225 177.4939,-225"/>
<polygon fill="#191970" stroke="#191970" points="129.2787,-221.5001 119.2787,-225 129.2787,-228.5001 129.2787,-221.5001"/>
</g>
<!-- Node14 -->
<g id="node14" class="node">
<title>Node14</title>
<g id="a_node14"><a xlink:href="structpkgCache_1_1Group.xhtml" target="_top" xlink:title="groups architecture depending packages together ">
<polygon fill="#ffffff" stroke="#000000" points="605.5,-859.5 605.5,-878.5 651.5,-878.5 651.5,-859.5 605.5,-859.5"/>
<text text-anchor="middle" x="628.5" y="-866.5" font-family="Helvetica,sans-Serif" font-size="10.00" fill="#000000">Group</text>
</a>
</g>
</g>
<!-- Node14&#45;&gt;Node2 -->
<g id="edge13" class="edge">
<title>Node14&#45;&gt;Node2</title>
<path fill="none" stroke="#9a32cd" stroke-dasharray="5,2" d="M661.9081,-861.6969C719.1292,-849.0396 830.3251,-823.7338 836,-817 868.1814,-778.8138 823.3595,-632.4333 854,-593 859.6239,-585.7622 868.1531,-581.2651 876.8497,-578.4763"/>
<polygon fill="#9a32cd" stroke="#9a32cd" points="660.9013,-858.3347 651.8894,-863.9057 662.4084,-865.1705 660.9013,-858.3347"/>
<text text-anchor="middle" x="780.5" y="-849" font-family="Helvetica,sans-Serif" font-size="10.00" fill="#000000"> GrpP</text>
</g>
<!-- Node15 -->
<g id="node15" class="node">
<title>Node15</title>
<g id="a_node15"><a xlink:href="classpkgVersioningSystem.xhtml" target="_top" xlink:title="pkgVersioningSystem">
<polygon fill="#ffffff" stroke="#000000" points="567.5,-792.5 567.5,-811.5 689.5,-811.5 689.5,-792.5 567.5,-792.5"/>
<text text-anchor="middle" x="628.5" y="-799.5" font-family="Helvetica,sans-Serif" font-size="10.00" fill="#000000">pkgVersioningSystem</text>
</a>
</g>
</g>
<!-- Node15&#45;&gt;Node2 -->
<g id="edge14" class="edge">
<title>Node15&#45;&gt;Node2</title>
<path fill="none" stroke="#9a32cd" stroke-dasharray="5,2" d="M699.9668,-802.9816C752.3468,-802.056 817.4197,-796.9208 836,-778 864.9408,-748.5288 828.3832,-625.4022 854,-593 859.6846,-585.8097 868.2318,-581.3267 876.9262,-578.5362"/>
<polygon fill="#9a32cd" stroke="#9a32cd" points="699.6319,-799.4855 689.6776,-803.1134 699.7217,-806.4849 699.6319,-799.4855"/>
<text text-anchor="middle" x="780.5" y="-805" font-family="Helvetica,sans-Serif" font-size="10.00" fill="#000000"> VS</text>
</g>
<!-- Node15&#45;&gt;Node15 -->
<g id="edge15" class="edge">
<title>Node15&#45;&gt;Node15</title>
<path fill="none" stroke="#9a32cd" stroke-dasharray="5,2" d="M605.4346,-821.0292C606.6928,-826.128 614.3812,-830 628.5,-830 650.5391,-830 656.9097,-820.5653 647.612,-811.7571"/>
<polygon fill="#9a32cd" stroke="#9a32cd" points="608.6854,-822.3286 609.388,-811.7571 602.2463,-819.5831 608.6854,-822.3286"/>
<text text-anchor="middle" x="628.5" y="-833" font-family="Helvetica,sans-Serif" font-size="10.00" fill="#000000"> GlobalList</text>
</g>
<!-- Node16 -->
<g id="node16" class="node">
<title>Node16</title>
<g id="a_node16"><a xlink:href="structpkgCache_1_1Version.xhtml" target="_top" xlink:title="information for a single version of a package ">
<polygon fill="#ffffff" stroke="#000000" points="602,-754.5 602,-773.5 655,-773.5 655,-754.5 602,-754.5"/>
<text text-anchor="middle" x="628.5" y="-761.5" font-family="Helvetica,sans-Serif" font-size="10.00" fill="#000000">Version</text>
</a>
</g>
</g>
<!-- Node16&#45;&gt;Node2 -->
<g id="edge16" class="edge">
<title>Node16&#45;&gt;Node2</title>
<path fill="none" stroke="#9a32cd" stroke-dasharray="5,2" d="M665.1415,-764.9789C718.2063,-765.5604 812.6634,-763.1809 836,-740 882.6982,-693.6133 812.5404,-644.1228 854,-593 859.7093,-585.96 868.1569,-581.5185 876.7487,-578.7197"/>
<polygon fill="#9a32cd" stroke="#9a32cd" points="665.1652,-761.4789 655.1138,-764.8284 665.0601,-768.4781 665.1652,-761.4789"/>
<text text-anchor="middle" x="780.5" y="-767" font-family="Helvetica,sans-Serif" font-size="10.00" fill="#000000"> VerP</text>
</g>
<!-- Node17 -->
<g id="node17" class="node">
<title>Node17</title>
<g id="a_node17"><a xlink:href="structpkgCache_1_1VerFile.xhtml" target="_top" xlink:title="associates a version with a PackageFile ">
<polygon fill="#ffffff" stroke="#000000" points="604,-716.5 604,-735.5 653,-735.5 653,-716.5 604,-716.5"/>
<text text-anchor="middle" x="628.5" y="-723.5" font-family="Helvetica,sans-Serif" font-size="10.00" fill="#000000">VerFile</text>
</a>
</g>
</g>
<!-- Node17&#45;&gt;Node2 -->
<g id="edge17" class="edge">
<title>Node17&#45;&gt;Node2</title>
<path fill="none" stroke="#9a32cd" stroke-dasharray="5,2" d="M663.324,-726.6554C715.8945,-726.8693 811.9504,-723.9854 836,-701 871.1788,-667.3779 822.5375,-630.1229 854,-593 859.8604,-586.0852 868.354,-581.682 876.9416,-578.8797"/>
<polygon fill="#9a32cd" stroke="#9a32cd" points="663.1438,-723.1539 653.1157,-726.5727 663.087,-730.1537 663.1438,-723.1539"/>
<text text-anchor="middle" x="780.5" y="-728" font-family="Helvetica,sans-Serif" font-size="10.00" fill="#000000"> VerFileP</text>
</g>
<!-- Node18 -->
<g id="node18" class="node">
<title>Node18</title>
<g id="a_node18"><a xlink:href="structpkgCache_1_1Package.xhtml" target="_top" xlink:title="contains information for a single unique package ">
<polygon fill="#ffffff" stroke="#000000" points="600,-678.5 600,-697.5 657,-697.5 657,-678.5 600,-678.5"/>
<text text-anchor="middle" x="628.5" y="-685.5" font-family="Helvetica,sans-Serif" font-size="10.00" fill="#000000">Package</text>
</a>
</g>
</g>
<!-- Node18&#45;&gt;Node2 -->
<g id="edge18" class="edge">
<title>Node18&#45;&gt;Node2</title>
<path fill="none" stroke="#9a32cd" stroke-dasharray="5,2" d="M667.2562,-688.5931C720.2739,-688.5762 811.6293,-685.3243 836,-664 860.4993,-642.5632 831.9384,-616.9382 854,-593 860.0047,-586.4846 868.338,-582.2032 876.7236,-579.3899"/>
<polygon fill="#9a32cd" stroke="#9a32cd" points="667.2072,-685.093 657.195,-688.5577 667.1826,-692.0929 667.2072,-685.093"/>
<text text-anchor="middle" x="780.5" y="-689" font-family="Helvetica,sans-Serif" font-size="10.00" fill="#000000"> PkgP</text>
</g>
<!-- Node19 -->
<g id="node19" class="node">
<title>Node19</title>
<g id="a_node19"><a xlink:href="classMMap.xhtml" target="_top" xlink:title="MMap">
<polygon fill="#ffffff" stroke="#000000" points="606,-897.5 606,-916.5 651,-916.5 651,-897.5 606,-897.5"/>
<text text-anchor="middle" x="628.5" y="-904.5" font-family="Helvetica,sans-Serif" font-size="10.00" fill="#000000">MMap</text>
</a>
</g>
</g>
<!-- Node19&#45;&gt;Node1 -->
<g id="edge50" class="edge">
<title>Node19&#45;&gt;Node1</title>
<path fill="none" stroke="#9a32cd" stroke-dasharray="5,2" d="M661.1197,-907C713.4943,-907 819.5884,-907 909.5,-907 909.5,-907 909.5,-907 1345.5,-907 1424.8315,-907 1487.1992,-610.6224 1498.6238,-552.7361"/>
<polygon fill="#9a32cd" stroke="#9a32cd" points="661.0827,-903.5001 651.0827,-907 661.0826,-910.5001 661.0827,-903.5001"/>
<text text-anchor="middle" x="1135" y="-910" font-family="Helvetica,sans-Serif" font-size="10.00" fill="#000000"> Map</text>
</g>
<!-- Node19&#45;&gt;Node2 -->
<g id="edge19" class="edge">
<title>Node19&#45;&gt;Node2</title>
<path fill="none" stroke="#9a32cd" stroke-dasharray="5,2" d="M661.1073,-899.7569C675.2808,-896.4416 692.0338,-892.2973 707,-888 715.1052,-885.6727 716.8573,-884.1926 725,-882 773.6484,-868.9003 802.8923,-896.9756 836,-859 874.9333,-814.3422 817.9442,-640.0117 854,-593 859.5782,-585.7268 868.0938,-581.2193 876.792,-578.4317"/>
<polygon fill="#9a32cd" stroke="#9a32cd" points="660.2642,-896.3594 651.305,-902.0149 661.8355,-903.1808 660.2642,-896.3594"/>
<text text-anchor="middle" x="780.5" y="-885" font-family="Helvetica,sans-Serif" font-size="10.00" fill="#000000"> Map</text>
</g>
<!-- Node20&#45;&gt;Node19 -->
<g id="edge20" class="edge">
<title>Node20&#45;&gt;Node19</title>
<path fill="none" stroke="#9a32cd" stroke-dasharray="5,2" d="M424.2197,-676.415C437.3006,-721.184 475.8694,-832.0893 550,-888 566.1206,-900.1585 588.9434,-904.6504 605.8278,-906.2536"/>
<polygon fill="#9a32cd" stroke="#9a32cd" points="427.5795,-675.4336 421.4982,-666.7578 420.8419,-677.3323 427.5795,-675.4336"/>
<text text-anchor="middle" x="504" y="-872" font-family="Helvetica,sans-Serif" font-size="10.00" fill="#000000"> SyncToFd</text>
</g>
<!-- Node21&#45;&gt;Node1 -->
<g id="edge22" class="edge">
<title>Node21&#45;&gt;Node1</title>
<path fill="none" stroke="#9a32cd" stroke-dasharray="5,2" d="M1187.3999,-585.6379C1248.742,-581.2178 1353.2461,-572.1785 1442,-557 1449.1026,-555.7853 1456.6263,-554.2084 1463.8281,-552.5527"/>
<polygon fill="#9a32cd" stroke="#9a32cd" points="1186.9269,-582.1625 1177.1985,-586.3589 1187.4204,-589.1451 1186.9269,-582.1625"/>
<text text-anchor="middle" x="1345.5" y="-578" font-family="Helvetica,sans-Serif" font-size="10.00" fill="#000000"> DCache</text>
</g>
<!-- Node22 -->
<g id="node22" class="node">
<title>Node22</title>
<g id="a_node22"><a xlink:href="classpkgCache_1_1Namespace.xhtml" target="_top" xlink:title="Namespace">
<polygon fill="#ffffff" stroke="#000000" points="872.5,-602.5 872.5,-621.5 946.5,-621.5 946.5,-602.5 872.5,-602.5"/>
<text text-anchor="middle" x="909.5" y="-609.5" font-family="Helvetica,sans-Serif" font-size="10.00" fill="#000000">Namespace</text>
</a>
</g>
</g>
<!-- Node22&#45;&gt;Node21 -->
<g id="edge23" class="edge">
<title>Node22&#45;&gt;Node21</title>
<path fill="none" stroke="#006400" d="M956.9727,-607.5135C984.9335,-604.8348 1020.9875,-601.3182 1053,-598 1065.9632,-596.6563 1080.0717,-595.1307 1092.8733,-593.7222"/>
<polygon fill="#006400" stroke="#006400" points="956.2999,-604.0618 946.6781,-608.497 956.9656,-611.03 956.2999,-604.0618"/>
</g>
<!-- Node23 -->
<g id="node23" class="node">
<title>Node23</title>
<g id="a_node23"><a xlink:href="classpkgDepCache_1_1Policy.xhtml" target="_top" xlink:title="Policy">
<polygon fill="#ffffff" stroke="#000000" points="886.5,-449.5 886.5,-468.5 932.5,-468.5 932.5,-449.5 886.5,-449.5"/>
<text text-anchor="middle" x="909.5" y="-456.5" font-family="Helvetica,sans-Serif" font-size="10.00" fill="#000000">Policy</text>
</a>
</g>
</g>
<!-- Node23&#45;&gt;Node21 -->
<g id="edge24" class="edge">
<title>Node23&#45;&gt;Node21</title>
<path fill="none" stroke="#9a32cd" stroke-dasharray="5,2" d="M934.9463,-473.6697C981.5401,-500.5309 1079.3557,-556.9213 1118.3941,-579.4268"/>
<polygon fill="#9a32cd" stroke="#9a32cd" points="936.4931,-470.5215 926.0816,-468.5592 932.9969,-476.5859 936.4931,-470.5215"/>
<text text-anchor="middle" x="1018" y="-553" font-family="Helvetica,sans-Serif" font-size="10.00" fill="#000000"> LocalPolicy</text>
<text text-anchor="middle" x="1018" y="-542" font-family="Helvetica,sans-Serif" font-size="10.00" fill="#000000">delLocalPolicy</text>
</g>
<!-- Node23&#45;&gt;Node25 -->
<g id="edge28" class="edge">
<title>Node23&#45;&gt;Node25</title>
<path fill="none" stroke="#191970" d="M930.2465,-443.3855C944.624,-432.9445 964.4456,-419.2878 983,-409 1025.8762,-385.2266 1078.8363,-363.4817 1109.58,-351.5547"/>
<polygon fill="#191970" stroke="#191970" points="928.0372,-440.6657 922.0579,-449.4121 932.1864,-446.3034 928.0372,-440.6657"/>
</g>
<!-- Node24 -->
<g id="node24" class="node">
<title>Node24</title>
<g id="a_node24"><a xlink:href="structpkgDepCache_1_1StateCache.xhtml" target="_top" xlink:title="StateCache">
<polygon fill="#ffffff" stroke="#000000" points="873.5,-640.5 873.5,-659.5 945.5,-659.5 945.5,-640.5 873.5,-640.5"/>
<text text-anchor="middle" x="909.5" y="-647.5" font-family="Helvetica,sans-Serif" font-size="10.00" fill="#000000">StateCache</text>
</a>
</g>
</g>
<!-- Node24&#45;&gt;Node21 -->
<g id="edge26" class="edge">
<title>Node24&#45;&gt;Node21</title>
<path fill="none" stroke="#9a32cd" stroke-dasharray="5,2" d="M955.6417,-639.5849C983.878,-633.0038 1020.6716,-624.0565 1053,-615 1070.9762,-609.9641 1090.9478,-603.6472 1106.6804,-598.5009"/>
<polygon fill="#9a32cd" stroke="#9a32cd" points="954.6029,-636.2328 945.6501,-641.8983 956.1819,-643.0524 954.6029,-636.2328"/>
<text text-anchor="middle" x="1018" y="-635" font-family="Helvetica,sans-Serif" font-size="10.00" fill="#000000"> PkgState</text>
</g>
<!-- Node25&#45;&gt;Node1 -->
<g id="edge27" class="edge">
<title>Node25&#45;&gt;Node1</title>
<path fill="none" stroke="#9a32cd" stroke-dasharray="5,2" d="M1161.8208,-356.7496C1232.8136,-395.7908 1424.2056,-501.0433 1483.0481,-533.4026"/>
<polygon fill="#9a32cd" stroke="#9a32cd" points="1163.0778,-353.4466 1152.6288,-351.6946 1159.7047,-359.5803 1163.0778,-353.4466"/>
<text text-anchor="middle" x="1345.5" y="-481" font-family="Helvetica,sans-Serif" font-size="10.00" fill="#000000"> Policy</text>
</g>
<!-- Node26 -->
<g id="node26" class="node">
<title>Node26</title>
<polygon fill="#ffffff" stroke="#bfbfbf" points="725,-255 725,-285 836,-285 836,-255 725,-255"/>
<text text-anchor="start" x="733" y="-273" font-family="Helvetica,sans-Serif" font-size="10.00" fill="#000000">vector&lt; pkgPolicy::</text>
<text text-anchor="middle" x="780.5" y="-262" font-family="Helvetica,sans-Serif" font-size="10.00" fill="#000000">Pin &gt;</text>
</g>
<!-- Node26&#45;&gt;Node25 -->
<g id="edge30" class="edge">
<title>Node26&#45;&gt;Node25</title>
<path fill="none" stroke="#9a32cd" stroke-dasharray="5,2" d="M846.4329,-260.4021C905.0542,-255.3063 990.8587,-256.5946 1053,-295 1065.2683,-302.5822 1059.4565,-313.3543 1071,-322 1080.2243,-328.9087 1091.8854,-333.4649 1102.7192,-336.455"/>
<polygon fill="#9a32cd" stroke="#9a32cd" points="845.8003,-256.9466 836.1788,-261.3824 846.4666,-263.9148 845.8003,-256.9466"/>
<text text-anchor="middle" x="909.5" y="-267" font-family="Helvetica,sans-Serif" font-size="10.00" fill="#000000"> Defaults</text>
</g>
<!-- Node27&#45;&gt;Node25 -->
<g id="edge33" class="edge">
<title>Node27&#45;&gt;Node25</title>
<path fill="none" stroke="#9a32cd" stroke-dasharray="5,2" d="M445.0055,-275.0389C454.6321,-278.0428 465.7082,-281.1022 476,-283 633.7891,-312.0966 676.2107,-295.461 836,-310 933.2239,-318.8463 1047.9516,-331.8434 1102.7339,-338.207"/>
<polygon fill="#9a32cd" stroke="#9a32cd" points="445.8266,-271.6255 435.2343,-271.8587 443.6602,-278.2818 445.8266,-271.6255"/>
<text text-anchor="middle" x="780.5" y="-324" font-family="Helvetica,sans-Serif" font-size="10.00" fill="#000000"> VerPins</text>
<text text-anchor="middle" x="780.5" y="-313" font-family="Helvetica,sans-Serif" font-size="10.00" fill="#000000">Pins</text>
</g>
<!-- Node27&#45;&gt;Node26 -->
<g id="edge31" class="edge">
<title>Node27&#45;&gt;Node26</title>
<path fill="none" stroke="#9a32cd" stroke-dasharray="5,2" d="M445.7603,-266.2961C504.487,-266.9459 645.7025,-268.5085 724.6658,-269.3822"/>
<polygon fill="#9a32cd" stroke="#9a32cd" points="445.5104,-262.7932 435.4723,-266.1823 445.4329,-269.7928 445.5104,-262.7932"/>
<text text-anchor="middle" x="504" y="-271" font-family="Helvetica,sans-Serif" font-size="10.00" fill="#000000"> elements</text>
</g>
<!-- Node27&#45;&gt;Node29 -->
<g id="edge36" class="edge">
<title>Node27&#45;&gt;Node29</title>
<path fill="none" stroke="#191970" d="M445.0283,-260.0365C485.6267,-250.7347 563.507,-232.891 603.4789,-223.7328"/>
<polygon fill="#191970" stroke="#191970" points="444.057,-256.6682 435.0912,-262.3132 445.6204,-263.4914 444.057,-256.6682"/>
</g>
<!-- Node28 -->
<g id="node28" class="node">
<title>Node28</title>
<polygon fill="#ffffff" stroke="#bfbfbf" points="854,-203 854,-233 965,-233 965,-203 854,-203"/>
<text text-anchor="start" x="862" y="-221" font-family="Helvetica,sans-Serif" font-size="10.00" fill="#000000">vector&lt; pkgPolicy::</text>
<text text-anchor="middle" x="909.5" y="-210" font-family="Helvetica,sans-Serif" font-size="10.00" fill="#000000">PkgPin &gt;</text>
</g>
<!-- Node28&#45;&gt;Node25 -->
<g id="edge34" class="edge">
<title>Node28&#45;&gt;Node25</title>
<path fill="none" stroke="#9a32cd" stroke-dasharray="5,2" d="M975.3646,-215.3991C1002.6061,-217.7818 1032.5401,-225.4145 1053,-245 1078.3877,-269.3027 1047.0754,-296.2556 1071,-322 1079.2415,-330.8684 1091.3493,-335.832 1102.8218,-338.5998"/>
<polygon fill="#9a32cd" stroke="#9a32cd" points="975.2877,-211.8867 965.0812,-214.729 974.8325,-218.8719 975.2877,-211.8867"/>
<text text-anchor="middle" x="1018" y="-248" font-family="Helvetica,sans-Serif" font-size="10.00" fill="#000000"> Unmatched</text>
</g>
<!-- Node29&#45;&gt;Node28 -->
<g id="edge35" class="edge">
<title>Node29&#45;&gt;Node28</title>
<path fill="none" stroke="#9a32cd" stroke-dasharray="5,2" d="M664.1122,-218C711.9555,-218 797.4759,-218 853.8529,-218"/>
<polygon fill="#9a32cd" stroke="#9a32cd" points="663.9325,-214.5001 653.9325,-218 663.9324,-221.5001 663.9325,-214.5001"/>
<text text-anchor="middle" x="780.5" y="-221" font-family="Helvetica,sans-Serif" font-size="10.00" fill="#000000"> elements</text>
</g>
<!-- Node30 -->
<g id="node30" class="node">
<title>Node30</title>
<g id="a_node30"><a xlink:href="classpkgSourceList.xhtml" target="_top" xlink:title="pkgSourceList">
<polygon fill="#ffffff" stroke="#000000" points="1303,-293.5 1303,-312.5 1388,-312.5 1388,-293.5 1303,-293.5"/>
<text text-anchor="middle" x="1345.5" y="-300.5" font-family="Helvetica,sans-Serif" font-size="10.00" fill="#000000">pkgSourceList</text>
</a>
</g>
</g>
<!-- Node30&#45;&gt;Node1 -->
<g id="edge38" class="edge">
<title>Node30&#45;&gt;Node1</title>
<path fill="none" stroke="#9a32cd" stroke-dasharray="5,2" d="M1357.2213,-321.1491C1388.1187,-368.9902 1471.0105,-497.3389 1494.3237,-533.4366"/>
<polygon fill="#9a32cd" stroke="#9a32cd" points="1360.1336,-319.2071 1351.7682,-312.7055 1354.2533,-323.0048 1360.1336,-319.2071"/>
<text text-anchor="middle" x="1424" y="-454" font-family="Helvetica,sans-Serif" font-size="10.00" fill="#000000"> SrcList</text>
</g>
<!-- Node31 -->
<g id="node31" class="node">
<title>Node31</title>
<polygon fill="#ffffff" stroke="#bfbfbf" points="1072.5,-293.5 1072.5,-312.5 1197.5,-312.5 1197.5,-293.5 1072.5,-293.5"/>
<text text-anchor="middle" x="1135" y="-300.5" font-family="Helvetica,sans-Serif" font-size="10.00" fill="#000000">vector&lt; const char *&gt;</text>
</g>
<!-- Node31&#45;&gt;Node30 -->
<g id="edge39" class="edge">
<title>Node31&#45;&gt;Node30</title>
<path fill="none" stroke="#9a32cd" stroke-dasharray="5,2" d="M1207.7155,-303C1239.4359,-303 1275.5289,-303 1302.815,-303"/>
<polygon fill="#9a32cd" stroke="#9a32cd" points="1207.587,-299.5001 1197.587,-303 1207.587,-306.5001 1207.587,-299.5001"/>
<text text-anchor="middle" x="1251" y="-306" font-family="Helvetica,sans-Serif" font-size="10.00" fill="#000000"> VolatileCmdL</text>
</g>
<!-- Node32 -->
<g id="node32" class="node">
<title>Node32</title>
<polygon fill="#ffffff" stroke="#bfbfbf" points="1071,-174.5 1071,-193.5 1199,-193.5 1199,-174.5 1071,-174.5"/>
<text text-anchor="middle" x="1135" y="-181.5" font-family="Helvetica,sans-Serif" font-size="10.00" fill="#000000">vector&lt; metaIndex *&gt;</text>
</g>
<!-- Node32&#45;&gt;Node30 -->
<g id="edge40" class="edge">
<title>Node32&#45;&gt;Node30</title>
<path fill="none" stroke="#9a32cd" stroke-dasharray="5,2" d="M1160.7341,-198.548C1204.3794,-223.2216 1291.7556,-272.6172 1328.5494,-293.4175"/>
<polygon fill="#9a32cd" stroke="#9a32cd" points="1162.298,-195.4116 1151.8703,-193.5371 1158.8531,-201.5053 1162.298,-195.4116"/>
<text text-anchor="middle" x="1251" y="-271" font-family="Helvetica,sans-Serif" font-size="10.00" fill="#000000"> SrcList</text>
</g>
<!-- Node33&#45;&gt;Node32 -->
<g id="edge41" class="edge">
<title>Node33&#45;&gt;Node32</title>
<path fill="none" stroke="#9a32cd" stroke-dasharray="5,2" d="M954.5771,-174.3988C987.8478,-176.1693 1033.597,-178.6038 1070.7014,-180.5783"/>
<polygon fill="#9a32cd" stroke="#9a32cd" points="954.4121,-170.8851 944.2402,-173.8487 954.04,-177.8752 954.4121,-170.8851"/>
<text text-anchor="middle" x="1018" y="-183" font-family="Helvetica,sans-Serif" font-size="10.00" fill="#000000"> elements</text>
</g>
<!-- Node34&#45;&gt;Node33 -->
<g id="edge42" class="edge">
<title>Node34&#45;&gt;Node33</title>
<path fill="none" stroke="#9a32cd" stroke-dasharray="5,2" d="M717.654,-144.1271C754.3721,-148.1938 797.2964,-153.3441 836,-159 848.6941,-160.855 862.5621,-163.2195 874.7977,-165.4219"/>
<polygon fill="#9a32cd" stroke="#9a32cd" points="717.7931,-140.6214 707.4709,-143.0093 717.0292,-147.5796 717.7931,-140.6214"/>
<text text-anchor="middle" x="780.5" y="-162" font-family="Helvetica,sans-Serif" font-size="10.00" fill="#000000"> Entries</text>
</g>
<!-- Node35&#45;&gt;Node34 -->
<g id="edge44" class="edge">
<title>Node35&#45;&gt;Node34</title>
<path fill="none" stroke="#9a32cd" stroke-dasharray="5,2" d="M462.5718,-101.8808C483.5749,-105.7349 509.1165,-110.5028 532,-115 540.0584,-116.5837 548.4875,-118.2766 556.865,-119.9821"/>
<polygon fill="#9a32cd" stroke="#9a32cd" points="463.1239,-98.4238 452.6574,-100.0674 461.8644,-105.3095 463.1239,-98.4238"/>
<text text-anchor="middle" x="504" y="-118" font-family="Helvetica,sans-Serif" font-size="10.00" fill="#000000"> elements</text>
</g>
<!-- Node36 -->
<g id="node36" class="node">
<title>Node36</title>
<g id="a_node36"><a xlink:href="classHashStringList.xhtml" target="_top" xlink:title="HashStringList">
<polygon fill="#ffffff" stroke="#000000" points="156,-.5 156,-19.5 243,-19.5 243,-.5 156,-.5"/>
<text text-anchor="middle" x="199.5" y="-7.5" font-family="Helvetica,sans-Serif" font-size="10.00" fill="#000000">HashStringList</text>
</a>
</g>
</g>
<!-- Node36&#45;&gt;Node35 -->
<g id="edge45" class="edge">
<title>Node36&#45;&gt;Node35</title>
<path fill="none" stroke="#9a32cd" stroke-dasharray="5,2" d="M235.1188,-23.0862C268.1054,-35.2727 318.4842,-54.0558 362,-71 373.1371,-75.3366 385.4394,-80.281 395.7556,-84.4713"/>
<polygon fill="#9a32cd" stroke="#9a32cd" points="236.0601,-19.7029 225.4668,-19.5253 233.6372,-26.2702 236.0601,-19.7029"/>
<text text-anchor="middle" x="311.5" y="-74" font-family="Helvetica,sans-Serif" font-size="10.00" fill="#000000"> Hashes</text>
</g>
<!-- Node37 -->
<g id="node37" class="node">
<title>Node37</title>
<polygon fill="#ffffff" stroke="#bfbfbf" points="560,-169.5 560,-188.5 697,-188.5 697,-169.5 560,-169.5"/>
<text text-anchor="middle" x="628.5" y="-176.5" font-family="Helvetica,sans-Serif" font-size="10.00" fill="#000000">vector&lt; pkgIndexFile *&gt;</text>
</g>
<!-- Node37&#45;&gt;Node33 -->
<g id="edge47" class="edge">
<title>Node37&#45;&gt;Node33</title>
<path fill="none" stroke="#9a32cd" stroke-dasharray="5,2" d="M707.3273,-177.0363C762.3883,-175.6647 833.2148,-173.9003 874.7598,-172.8654"/>
<polygon fill="#9a32cd" stroke="#9a32cd" points="707.15,-173.5396 697.2403,-177.2876 707.3244,-180.5374 707.15,-173.5396"/>
<text text-anchor="middle" x="780.5" y="-180" font-family="Helvetica,sans-Serif" font-size="10.00" fill="#000000"> Indexes</text>
</g>
<!-- Node38 -->
<g id="node38" class="node">
<title>Node38</title>
<g id="a_node38"><a xlink:href="classpkgIndexFile.xhtml" target="_top" xlink:title="pkgIndexFile">
<polygon fill="#ffffff" stroke="#000000" points="380,-169.5 380,-188.5 458,-188.5 458,-169.5 380,-169.5"/>
<text text-anchor="middle" x="419" y="-176.5" font-family="Helvetica,sans-Serif" font-size="10.00" fill="#000000">pkgIndexFile</text>
</a>
</g>
</g>
<!-- Node38&#45;&gt;Node37 -->
<g id="edge48" class="edge">
<title>Node38&#45;&gt;Node37</title>
<path fill="none" stroke="#9a32cd" stroke-dasharray="5,2" d="M468.5048,-179C495.8154,-179 530.1446,-179 559.9947,-179"/>
<polygon fill="#9a32cd" stroke="#9a32cd" points="468.4054,-175.5001 458.4053,-179 468.4053,-182.5001 468.4054,-175.5001"/>
<text text-anchor="middle" x="504" y="-182" font-family="Helvetica,sans-Serif" font-size="10.00" fill="#000000"> elements</text>
</g>
</g>
</svg>
