<?xml version="1.0" encoding="UTF-8" standalone="no"?>
<!DOCTYPE svg PUBLIC "-//W3C//DTD SVG 1.1//EN"
 "http://www.w3.org/Graphics/SVG/1.1/DTD/svg11.dtd">
<!-- Generated by graphviz version 2.40.1 (20161225.0304)
 -->
<!-- Title: pkgCache::RlsFileIterator Pages: 1 -->
<!--zoomable 656 -->
<svg id="main" version="1.1" xmlns="http://www.w3.org/2000/svg" xmlns:xlink="http://www.w3.org/1999/xlink" xml:space="preserve" onload="init(evt)">
<style type="text/css"><![CDATA[
.edge:hover path { stroke: red; }
.edge:hover polygon { stroke: red; fill: red; }
]]></style>
<script type="text/javascript"><![CDATA[
var edges = document.getElementsByTagName('g');
if (edges && edges.length) {
  for (var i=0;i<edges.length;i++) {
    if (edges[i].id.substr(0,4)=='edge') {
      edges[i].setAttribute('class','edge');
    }
  }
}
]]></script>
        <defs>
                <circle id="rim" cx="0" cy="0" r="7"/>
                <circle id="rim2" cx="0" cy="0" r="3.5"/>
                <g id="zoomPlus">
                        <use xlink:href="#rim" fill="#404040">
                                <set attributeName="fill" to="#808080" begin="zoomplus.mouseover" end="zoomplus.mouseout"/>
                        </use>
                        <path d="M-4,0h8M0,-4v8" fill="none" stroke="white" stroke-width="1.5" pointer-events="none"/>
                </g>
                <g id="zoomMin">
                        <use xlink:href="#rim" fill="#404040">
                                <set attributeName="fill" to="#808080" begin="zoomminus.mouseover" end="zoomminus.mouseout"/>
                        </use>
                        <path d="M-4,0h8" fill="none" stroke="white" stroke-width="1.5" pointer-events="none"/>
                </g>
                <g id="dirArrow">
                        <path fill="none" stroke="white" stroke-width="1.5" d="M0,-3.0v7 M-2.5,-0.5L0,-3.0L2.5,-0.5"/>
                </g>
               <g id="resetDef">
                       <use xlink:href="#rim2" fill="#404040">
                               <set attributeName="fill" to="#808080" begin="reset.mouseover" end="reset.mouseout"/>
                       </use>
               </g>
        </defs>

<script type="text/javascript">
var viewWidth = 1204;
var viewHeight = 656;
var sectionId = 'dynsection-1';
</script>
<script xlink:href="svgpan.js"/>
<svg id="graph" class="graph">
<g id="viewport">
<title>pkgCache::RlsFileIterator</title>
<polygon fill="#ffffff" stroke="transparent" points="-4,4 -4,-651.5 1200,-651.5 1200,4 -4,4"/>
<!-- Node3 -->
<g id="node1" class="node">
<title>Node3</title>
<polygon fill="#bfbfbf" stroke="#000000" points="1058,-577.5 1058,-596.5 1196,-596.5 1196,-577.5 1058,-577.5"/>
<text text-anchor="middle" x="1127" y="-584.5" font-family="Helvetica,sans-Serif" font-size="10.00" fill="#000000">pkgCache::RlsFileIterator</text>
</g>
<!-- Node4 -->
<g id="node2" class="node">
<title>Node4</title>
<g id="a_node2"><a xlink:href="classpkgCache_1_1Iterator.xhtml" target="_top" xlink:title="Iterator\&lt; ReleaseFile,\l RlsFileIterator \&gt;">
<polygon fill="#ffffff" stroke="#000000" points="899,-572 899,-602 1021,-602 1021,-572 899,-572"/>
<text text-anchor="start" x="907" y="-590" font-family="Helvetica,sans-Serif" font-size="10.00" fill="#000000">Iterator&lt; ReleaseFile,</text>
<text text-anchor="middle" x="960" y="-579" font-family="Helvetica,sans-Serif" font-size="10.00" fill="#000000"> RlsFileIterator &gt;</text>
</a>
</g>
</g>
<!-- Node4&#45;&gt;Node3 -->
<g id="edge1" class="edge">
<title>Node4&#45;&gt;Node3</title>
<path fill="none" stroke="#191970" d="M1031.421,-587C1040.1882,-587 1049.1368,-587 1057.8692,-587"/>
<polygon fill="#191970" stroke="#191970" points="1031.2364,-583.5001 1021.2364,-587 1031.2363,-590.5001 1031.2364,-583.5001"/>
</g>
<!-- Node5 -->
<g id="node3" class="node">
<title>Node5</title>
<polygon fill="#ffffff" stroke="#bfbfbf" points="677,-617 677,-647 828,-647 828,-617 677,-617"/>
<text text-anchor="start" x="685" y="-635" font-family="Helvetica,sans-Serif" font-size="10.00" fill="#000000">iterator&lt; std::forward</text>
<text text-anchor="middle" x="752.5" y="-624" font-family="Helvetica,sans-Serif" font-size="10.00" fill="#000000">_iterator_tag, ReleaseFile &gt;</text>
</g>
<!-- Node5&#45;&gt;Node4 -->
<g id="edge2" class="edge">
<title>Node5&#45;&gt;Node4</title>
<path fill="none" stroke="#191970" d="M831.9292,-614.7744C854.0683,-609.9731 877.7732,-604.8323 898.6954,-600.295"/>
<polygon fill="#191970" stroke="#191970" points="830.914,-611.4131 821.883,-616.9531 832.3976,-618.2541 830.914,-611.4131"/>
</g>
<!-- Node6 -->
<g id="node4" class="node">
<title>Node6</title>
<g id="a_node4"><a xlink:href="classpkgCache.xhtml" target="_top" xlink:title="pkgCache">
<polygon fill="#ffffff" stroke="#000000" points="720,-312.5 720,-331.5 785,-331.5 785,-312.5 720,-312.5"/>
<text text-anchor="middle" x="752.5" y="-319.5" font-family="Helvetica,sans-Serif" font-size="10.00" fill="#000000">pkgCache</text>
</a>
</g>
</g>
<!-- Node6&#45;&gt;Node4 -->
<g id="edge3" class="edge">
<title>Node6&#45;&gt;Node4</title>
<path fill="none" stroke="#9a32cd" stroke-dasharray="5,2" d="M766.4979,-339.8768C805.0518,-389.1143 912.2978,-526.0791 948.1529,-571.87"/>
<polygon fill="#9a32cd" stroke="#9a32cd" points="769.052,-337.4615 760.1311,-331.7458 763.5405,-341.7771 769.052,-337.4615"/>
<text text-anchor="middle" x="863.5" y="-489" font-family="Helvetica,sans-Serif" font-size="10.00" fill="#000000"> Owner</text>
</g>
<!-- Node7 -->
<g id="node5" class="node">
<title>Node7</title>
<g id="a_node5"><a xlink:href="structpkgCache_1_1DependencyData.xhtml" target="_top" xlink:title="information for a single dependency record ">
<polygon fill="#ffffff" stroke="#000000" points="477.5,-523.5 477.5,-542.5 578.5,-542.5 578.5,-523.5 477.5,-523.5"/>
<text text-anchor="middle" x="528" y="-530.5" font-family="Helvetica,sans-Serif" font-size="10.00" fill="#000000">DependencyData</text>
</a>
</g>
</g>
<!-- Node7&#45;&gt;Node6 -->
<g id="edge4" class="edge">
<title>Node7&#45;&gt;Node6</title>
<path fill="none" stroke="#9a32cd" stroke-dasharray="5,2" d="M588.5608,-522.28C612.5814,-515.616 639.1496,-504.9497 659,-488 711.8239,-442.8953 740.9009,-360.087 749.6449,-331.7841"/>
<polygon fill="#9a32cd" stroke="#9a32cd" points="587.6019,-518.9128 578.8017,-524.8125 589.3602,-525.6884 587.6019,-518.9128"/>
<text text-anchor="middle" x="633" y="-518" font-family="Helvetica,sans-Serif" font-size="10.00" fill="#000000"> DepDataP</text>
</g>
<!-- Node8 -->
<g id="node6" class="node">
<title>Node8</title>
<g id="a_node6"><a xlink:href="structpkgCache_1_1Dependency.xhtml" target="_top" xlink:title="Dependency">
<polygon fill="#ffffff" stroke="#000000" points="489.5,-485.5 489.5,-504.5 566.5,-504.5 566.5,-485.5 489.5,-485.5"/>
<text text-anchor="middle" x="528" y="-492.5" font-family="Helvetica,sans-Serif" font-size="10.00" fill="#000000">Dependency</text>
</a>
</g>
</g>
<!-- Node8&#45;&gt;Node6 -->
<g id="edge5" class="edge">
<title>Node8&#45;&gt;Node6</title>
<path fill="none" stroke="#9a32cd" stroke-dasharray="5,2" d="M576.4606,-484.5121C602.8534,-477.0229 634.9368,-464.8616 659,-446 701.8644,-412.4014 735.2984,-354.6208 747.4961,-331.7395"/>
<polygon fill="#9a32cd" stroke="#9a32cd" points="575.3958,-481.1742 566.6525,-487.1579 577.219,-487.9326 575.3958,-481.1742"/>
<text text-anchor="middle" x="633" y="-476" font-family="Helvetica,sans-Serif" font-size="10.00" fill="#000000"> DepP</text>
</g>
<!-- Node9 -->
<g id="node7" class="node">
<title>Node9</title>
<g id="a_node7"><a xlink:href="structpkgCache_1_1Description.xhtml" target="_top" xlink:title="datamember of a linked list of available description for a version ">
<polygon fill="#ffffff" stroke="#000000" points="492,-409.5 492,-428.5 564,-428.5 564,-409.5 492,-409.5"/>
<text text-anchor="middle" x="528" y="-416.5" font-family="Helvetica,sans-Serif" font-size="10.00" fill="#000000">Description</text>
</a>
</g>
</g>
<!-- Node9&#45;&gt;Node6 -->
<g id="edge6" class="edge">
<title>Node9&#45;&gt;Node6</title>
<path fill="none" stroke="#9a32cd" stroke-dasharray="5,2" d="M568.7763,-406.3953C575.5369,-404.2779 582.4699,-402.0896 589,-400 620.1894,-390.0193 629.1603,-390.4903 659,-377 688.5162,-363.656 720.5774,-343.4151 738.4397,-331.5687"/>
<polygon fill="#9a32cd" stroke="#9a32cd" points="567.5648,-403.1068 559.0616,-409.4271 569.6502,-409.789 567.5648,-403.1068"/>
<text text-anchor="middle" x="633" y="-397" font-family="Helvetica,sans-Serif" font-size="10.00" fill="#000000"> DescP</text>
</g>
<!-- Node10 -->
<g id="node8" class="node">
<title>Node10</title>
<g id="a_node8"><a xlink:href="structpkgCache_1_1Header.xhtml" target="_top" xlink:title="Header">
<polygon fill="#ffffff" stroke="#000000" points="502,-333.5 502,-352.5 554,-352.5 554,-333.5 502,-333.5"/>
<text text-anchor="middle" x="528" y="-340.5" font-family="Helvetica,sans-Serif" font-size="10.00" fill="#000000">Header</text>
</a>
</g>
</g>
<!-- Node10&#45;&gt;Node6 -->
<g id="edge7" class="edge">
<title>Node10&#45;&gt;Node6</title>
<path fill="none" stroke="#9a32cd" stroke-dasharray="5,2" d="M564.2415,-339.6099C607.3216,-335.5802 678.5706,-328.9154 719.957,-325.0441"/>
<polygon fill="#9a32cd" stroke="#9a32cd" points="563.8229,-336.1337 554.1924,-340.5499 564.4749,-343.1033 563.8229,-336.1337"/>
<text text-anchor="middle" x="633" y="-338" font-family="Helvetica,sans-Serif" font-size="10.00" fill="#000000"> HeaderP</text>
</g>
<!-- Node11 -->
<g id="node9" class="node">
<title>Node11</title>
<g id="a_node9"><a xlink:href="structDynamicMMap_1_1Pool.xhtml" target="_top" xlink:title="Pool">
<polygon fill="#ffffff" stroke="#000000" points="340,-333.5 340,-352.5 378,-352.5 378,-333.5 340,-333.5"/>
<text text-anchor="middle" x="359" y="-340.5" font-family="Helvetica,sans-Serif" font-size="10.00" fill="#000000">Pool</text>
</a>
</g>
</g>
<!-- Node11&#45;&gt;Node10 -->
<g id="edge8" class="edge">
<title>Node11&#45;&gt;Node10</title>
<path fill="none" stroke="#9a32cd" stroke-dasharray="5,2" d="M388.1285,-343C420.1301,-343 471.0611,-343 501.8334,-343"/>
<polygon fill="#9a32cd" stroke="#9a32cd" points="388.058,-339.5001 378.0579,-343 388.0579,-346.5001 388.058,-339.5001"/>
<text text-anchor="middle" x="424" y="-346" font-family="Helvetica,sans-Serif" font-size="10.00" fill="#000000"> Pools</text>
</g>
<!-- Node12 -->
<g id="node10" class="node">
<title>Node12</title>
<g id="a_node10"><a xlink:href="structpkgCache_1_1PackageFile.xhtml" target="_top" xlink:title="stores information about the files used to generate the cache ">
<polygon fill="#ffffff" stroke="#000000" points="491,-295.5 491,-314.5 565,-314.5 565,-295.5 491,-295.5"/>
<text text-anchor="middle" x="528" y="-302.5" font-family="Helvetica,sans-Serif" font-size="10.00" fill="#000000">PackageFile</text>
</a>
</g>
</g>
<!-- Node12&#45;&gt;Node6 -->
<g id="edge9" class="edge">
<title>Node12&#45;&gt;Node6</title>
<path fill="none" stroke="#9a32cd" stroke-dasharray="5,2" d="M575.3351,-304.6511C600.2686,-304.8291 631.334,-305.6215 659,-308 679.2781,-309.7434 701.8486,-313.0825 719.7332,-316.0625"/>
<polygon fill="#9a32cd" stroke="#9a32cd" points="575.0666,-301.15 565.0526,-304.6095 575.0383,-308.15 575.0666,-301.15"/>
<text text-anchor="middle" x="633" y="-311" font-family="Helvetica,sans-Serif" font-size="10.00" fill="#000000"> PkgFileP</text>
</g>
<!-- Node13 -->
<g id="node11" class="node">
<title>Node13</title>
<g id="a_node11"><a xlink:href="structpkgCache_1_1ReleaseFile.xhtml" target="_top" xlink:title="stores information about the release files used to generate the cache ">
<polygon fill="#ffffff" stroke="#000000" points="492.5,-569.5 492.5,-588.5 563.5,-588.5 563.5,-569.5 492.5,-569.5"/>
<text text-anchor="middle" x="528" y="-576.5" font-family="Helvetica,sans-Serif" font-size="10.00" fill="#000000">ReleaseFile</text>
</a>
</g>
</g>
<!-- Node13&#45;&gt;Node4 -->
<g id="edge24" class="edge">
<title>Node13&#45;&gt;Node4</title>
<path fill="none" stroke="#9a32cd" stroke-dasharray="5,2" d="M573.7358,-579.847C651.8364,-581.2933 810.9545,-584.2399 898.6295,-585.8635"/>
<polygon fill="#9a32cd" stroke="#9a32cd" points="573.783,-576.3473 563.7199,-579.6615 573.6534,-583.3461 573.783,-576.3473"/>
<text text-anchor="middle" x="752.5" y="-587" font-family="Helvetica,sans-Serif" font-size="10.00" fill="#000000"> S</text>
</g>
<!-- Node13&#45;&gt;Node6 -->
<g id="edge10" class="edge">
<title>Node13&#45;&gt;Node6</title>
<path fill="none" stroke="#9a32cd" stroke-dasharray="5,2" d="M573.5324,-571.1861C601.1547,-564.3953 635.4919,-552.0383 659,-530 721.1007,-471.7821 744.8407,-364.6419 750.852,-331.8168"/>
<polygon fill="#9a32cd" stroke="#9a32cd" points="572.6561,-567.7961 563.692,-573.4438 574.2214,-574.6189 572.6561,-567.7961"/>
<text text-anchor="middle" x="633" y="-563" font-family="Helvetica,sans-Serif" font-size="10.00" fill="#000000"> RlsFileP</text>
</g>
<!-- Node14 -->
<g id="node12" class="node">
<title>Node14</title>
<g id="a_node12"><a xlink:href="structpkgCache_1_1DescFile.xhtml" target="_top" xlink:title="associates a description with a Translation file ">
<polygon fill="#ffffff" stroke="#000000" points="499.5,-219.5 499.5,-238.5 556.5,-238.5 556.5,-219.5 499.5,-219.5"/>
<text text-anchor="middle" x="528" y="-226.5" font-family="Helvetica,sans-Serif" font-size="10.00" fill="#000000">DescFile</text>
</a>
</g>
</g>
<!-- Node14&#45;&gt;Node6 -->
<g id="edge11" class="edge">
<title>Node14&#45;&gt;Node6</title>
<path fill="none" stroke="#9a32cd" stroke-dasharray="5,2" d="M566.7417,-236.2148C593.3617,-241.9212 629.1477,-251.0908 659,-264 689.8581,-277.3442 722.4797,-299.7542 739.8547,-312.4573"/>
<polygon fill="#9a32cd" stroke="#9a32cd" points="567.163,-232.7278 556.6606,-234.1248 565.7419,-239.5821 567.163,-232.7278"/>
<text text-anchor="middle" x="633" y="-267" font-family="Helvetica,sans-Serif" font-size="10.00" fill="#000000"> DescFileP</text>
</g>
<!-- Node15 -->
<g id="node13" class="node">
<title>Node15</title>
<g id="a_node13"><a xlink:href="structpkgCache_1_1Provides.xhtml" target="_top" xlink:title="handles virtual packages ">
<polygon fill="#ffffff" stroke="#000000" points="498.5,-181.5 498.5,-200.5 557.5,-200.5 557.5,-181.5 498.5,-181.5"/>
<text text-anchor="middle" x="528" y="-188.5" font-family="Helvetica,sans-Serif" font-size="10.00" fill="#000000">Provides</text>
</a>
</g>
</g>
<!-- Node15&#45;&gt;Node6 -->
<g id="edge12" class="edge">
<title>Node15&#45;&gt;Node6</title>
<path fill="none" stroke="#9a32cd" stroke-dasharray="5,2" d="M567.6435,-197.9706C594.7235,-203.9271 630.6873,-214.2548 659,-231 696.6289,-253.2552 730.6635,-293.6758 745.136,-312.2225"/>
<polygon fill="#9a32cd" stroke="#9a32cd" points="568.2392,-194.5195 557.7343,-195.8975 566.8057,-201.3712 568.2392,-194.5195"/>
<text text-anchor="middle" x="633" y="-234" font-family="Helvetica,sans-Serif" font-size="10.00" fill="#000000"> ProvideP</text>
</g>
<!-- Node16 -->
<g id="node14" class="node">
<title>Node16</title>
<g id="a_node14"><a xlink:title="STL class. ">
<polygon fill="#ffffff" stroke="#bfbfbf" points="156,-159.5 156,-178.5 200,-178.5 200,-159.5 156,-159.5"/>
<text text-anchor="middle" x="178" y="-166.5" font-family="Helvetica,sans-Serif" font-size="10.00" fill="#000000">string</text>
</a>
</g>
</g>
<!-- Node16&#45;&gt;Node6 -->
<g id="edge13" class="edge">
<title>Node16&#45;&gt;Node6</title>
<path fill="none" stroke="#9a32cd" stroke-dasharray="5,2" d="M210.1509,-164.7261C280.0837,-156.4052 450.8376,-141.3886 589,-172 622.3979,-179.3997 632.0761,-182.8985 659,-204 700.3502,-236.408 734.4076,-290.6688 747.1331,-312.4881"/>
<polygon fill="#9a32cd" stroke="#9a32cd" points="209.6953,-161.2557 200.196,-165.9476 210.5479,-168.2036 209.6953,-161.2557"/>
<text text-anchor="middle" x="424" y="-157" font-family="Helvetica,sans-Serif" font-size="10.00" fill="#000000"> CacheFile</text>
</g>
<!-- Node24 -->
<g id="node22" class="node">
<title>Node24</title>
<g id="a_node22"><a xlink:href="classFileFd.xhtml" target="_top" xlink:title="FileFd">
<polygon fill="#ffffff" stroke="#000000" points="337,-208.5 337,-227.5 381,-227.5 381,-208.5 337,-208.5"/>
<text text-anchor="middle" x="359" y="-215.5" font-family="Helvetica,sans-Serif" font-size="10.00" fill="#000000">FileFd</text>
</a>
</g>
</g>
<!-- Node16&#45;&gt;Node24 -->
<g id="edge23" class="edge">
<title>Node16&#45;&gt;Node24</title>
<path fill="none" stroke="#9a32cd" stroke-dasharray="5,2" d="M209.8487,-177.622C246.3231,-187.4963 305.1256,-203.4152 336.9077,-212.0192"/>
<polygon fill="#9a32cd" stroke="#9a32cd" points="210.7613,-174.2432 200.1942,-175.0084 208.9321,-180.9999 210.7613,-174.2432"/>
<text text-anchor="middle" x="268.5" y="-220" font-family="Helvetica,sans-Serif" font-size="10.00" fill="#000000"> TemporaryFileName</text>
<text text-anchor="middle" x="268.5" y="-209" font-family="Helvetica,sans-Serif" font-size="10.00" fill="#000000">FileName</text>
</g>
<!-- Node17 -->
<g id="node15" class="node">
<title>Node17</title>
<g id="a_node15"><a xlink:title="STL class. ">
<polygon fill="#ffffff" stroke="#bfbfbf" points="0,-159.5 0,-178.5 119,-178.5 119,-159.5 0,-159.5"/>
<text text-anchor="middle" x="59.5" y="-166.5" font-family="Helvetica,sans-Serif" font-size="10.00" fill="#000000">basic_string&lt; char &gt;</text>
</a>
</g>
</g>
<!-- Node17&#45;&gt;Node16 -->
<g id="edge14" class="edge">
<title>Node17&#45;&gt;Node16</title>
<path fill="none" stroke="#191970" d="M129.2118,-169C138.8284,-169 148.0652,-169 155.8653,-169"/>
<polygon fill="#191970" stroke="#191970" points="129.0972,-165.5001 119.0972,-169 129.0971,-172.5001 129.0972,-165.5001"/>
</g>
<!-- Node18 -->
<g id="node16" class="node">
<title>Node18</title>
<g id="a_node16"><a xlink:href="structpkgCache_1_1Group.xhtml" target="_top" xlink:title="groups architecture depending packages together ">
<polygon fill="#ffffff" stroke="#000000" points="505,-105.5 505,-124.5 551,-124.5 551,-105.5 505,-105.5"/>
<text text-anchor="middle" x="528" y="-112.5" font-family="Helvetica,sans-Serif" font-size="10.00" fill="#000000">Group</text>
</a>
</g>
</g>
<!-- Node18&#45;&gt;Node6 -->
<g id="edge15" class="edge">
<title>Node18&#45;&gt;Node6</title>
<path fill="none" stroke="#9a32cd" stroke-dasharray="5,2" d="M561.4079,-109.8168C589.8865,-107.2448 630.6015,-108.1391 659,-128 724.8733,-174.0695 746.0491,-279.5921 751.1423,-312.2106"/>
<polygon fill="#9a32cd" stroke="#9a32cd" points="560.7034,-106.3729 551.1435,-110.94 561.4649,-113.3314 560.7034,-106.3729"/>
<text text-anchor="middle" x="633" y="-131" font-family="Helvetica,sans-Serif" font-size="10.00" fill="#000000"> GrpP</text>
</g>
<!-- Node19 -->
<g id="node17" class="node">
<title>Node19</title>
<g id="a_node17"><a xlink:href="classpkgVersioningSystem.xhtml" target="_top" xlink:title="pkgVersioningSystem">
<polygon fill="#ffffff" stroke="#000000" points="467,-38.5 467,-57.5 589,-57.5 589,-38.5 467,-38.5"/>
<text text-anchor="middle" x="528" y="-45.5" font-family="Helvetica,sans-Serif" font-size="10.00" fill="#000000">pkgVersioningSystem</text>
</a>
</g>
</g>
<!-- Node19&#45;&gt;Node6 -->
<g id="edge16" class="edge">
<title>Node19&#45;&gt;Node6</title>
<path fill="none" stroke="#9a32cd" stroke-dasharray="5,2" d="M594.4632,-60.278C617.2055,-67.2631 641.3384,-78.1368 659,-95 725.8945,-158.8704 746.5636,-277.5648 751.3087,-312.2472"/>
<polygon fill="#9a32cd" stroke="#9a32cd" points="595.4018,-56.9062 584.8246,-57.5164 593.4737,-63.6354 595.4018,-56.9062"/>
<text text-anchor="middle" x="633" y="-98" font-family="Helvetica,sans-Serif" font-size="10.00" fill="#000000"> VS</text>
</g>
<!-- Node19&#45;&gt;Node19 -->
<g id="edge17" class="edge">
<title>Node19&#45;&gt;Node19</title>
<path fill="none" stroke="#9a32cd" stroke-dasharray="5,2" d="M508.7417,-67.4C510.0278,-72.3146 516.4473,-76 528,-76 546.4844,-76 551.8275,-66.5653 544.0294,-57.7571"/>
<polygon fill="#9a32cd" stroke="#9a32cd" points="512.1142,-68.3509 511.9706,-57.7571 505.4765,-66.1283 512.1142,-68.3509"/>
<text text-anchor="middle" x="528" y="-79" font-family="Helvetica,sans-Serif" font-size="10.00" fill="#000000"> GlobalList</text>
</g>
<!-- Node20 -->
<g id="node18" class="node">
<title>Node20</title>
<g id="a_node18"><a xlink:href="structpkgCache_1_1Version.xhtml" target="_top" xlink:title="information for a single version of a package ">
<polygon fill="#ffffff" stroke="#000000" points="501.5,-.5 501.5,-19.5 554.5,-19.5 554.5,-.5 501.5,-.5"/>
<text text-anchor="middle" x="528" y="-7.5" font-family="Helvetica,sans-Serif" font-size="10.00" fill="#000000">Version</text>
</a>
</g>
</g>
<!-- Node20&#45;&gt;Node6 -->
<g id="edge18" class="edge">
<title>Node20&#45;&gt;Node6</title>
<path fill="none" stroke="#9a32cd" stroke-dasharray="5,2" d="M564.8493,-12.3078C593.9411,-16.0215 633.7123,-25.576 659,-50 738.3764,-126.6654 750.3858,-273.6724 752.1859,-312.4366"/>
<polygon fill="#9a32cd" stroke="#9a32cd" points="564.9838,-8.8016 554.6611,-11.1871 564.2184,-15.7596 564.9838,-8.8016"/>
<text text-anchor="middle" x="633" y="-53" font-family="Helvetica,sans-Serif" font-size="10.00" fill="#000000"> VerP</text>
</g>
<!-- Node21 -->
<g id="node19" class="node">
<title>Node21</title>
<g id="a_node19"><a xlink:href="structpkgCache_1_1VerFile.xhtml" target="_top" xlink:title="associates a version with a PackageFile ">
<polygon fill="#ffffff" stroke="#000000" points="503.5,-447.5 503.5,-466.5 552.5,-466.5 552.5,-447.5 503.5,-447.5"/>
<text text-anchor="middle" x="528" y="-454.5" font-family="Helvetica,sans-Serif" font-size="10.00" fill="#000000">VerFile</text>
</a>
</g>
</g>
<!-- Node21&#45;&gt;Node6 -->
<g id="edge19" class="edge">
<title>Node21&#45;&gt;Node6</title>
<path fill="none" stroke="#9a32cd" stroke-dasharray="5,2" d="M562.1163,-446.9732C570.927,-444.2202 580.3613,-441.1275 589,-438 620.6641,-426.5365 630.6684,-427.2029 659,-409 694.6299,-386.108 729.1406,-348.9461 744.3686,-331.5506"/>
<polygon fill="#9a32cd" stroke="#9a32cd" points="561.0427,-443.6415 552.5093,-449.9208 563.0961,-450.3336 561.0427,-443.6415"/>
<text text-anchor="middle" x="633" y="-434" font-family="Helvetica,sans-Serif" font-size="10.00" fill="#000000"> VerFileP</text>
</g>
<!-- Node22 -->
<g id="node20" class="node">
<title>Node22</title>
<g id="a_node20"><a xlink:href="structpkgCache_1_1Package.xhtml" target="_top" xlink:title="contains information for a single unique package ">
<polygon fill="#ffffff" stroke="#000000" points="499.5,-371.5 499.5,-390.5 556.5,-390.5 556.5,-371.5 499.5,-371.5"/>
<text text-anchor="middle" x="528" y="-378.5" font-family="Helvetica,sans-Serif" font-size="10.00" fill="#000000">Package</text>
</a>
</g>
</g>
<!-- Node22&#45;&gt;Node6 -->
<g id="edge20" class="edge">
<title>Node22&#45;&gt;Node6</title>
<path fill="none" stroke="#9a32cd" stroke-dasharray="5,2" d="M566.6481,-372.4801C592.8133,-366.5588 628.1084,-358.273 659,-350 680.2785,-344.3015 704.0572,-337.1701 722.3097,-331.5305"/>
<polygon fill="#9a32cd" stroke="#9a32cd" points="565.7311,-369.0988 556.7426,-374.7076 567.2669,-375.9283 565.7311,-369.0988"/>
<text text-anchor="middle" x="633" y="-365" font-family="Helvetica,sans-Serif" font-size="10.00" fill="#000000"> PkgP</text>
</g>
<!-- Node23 -->
<g id="node21" class="node">
<title>Node23</title>
<g id="a_node21"><a xlink:href="classMMap.xhtml" target="_top" xlink:title="MMap">
<polygon fill="#ffffff" stroke="#000000" points="505.5,-257.5 505.5,-276.5 550.5,-276.5 550.5,-257.5 505.5,-257.5"/>
<text text-anchor="middle" x="528" y="-264.5" font-family="Helvetica,sans-Serif" font-size="10.00" fill="#000000">MMap</text>
</a>
</g>
</g>
<!-- Node23&#45;&gt;Node6 -->
<g id="edge21" class="edge">
<title>Node23&#45;&gt;Node6</title>
<path fill="none" stroke="#9a32cd" stroke-dasharray="5,2" d="M560.9107,-271.3255C587.5879,-275.1783 626.0304,-281.5191 659,-290 682.761,-296.1121 709.151,-305.3807 727.8189,-312.3723"/>
<polygon fill="#9a32cd" stroke="#9a32cd" points="561.3396,-267.8514 550.9493,-269.9234 560.3639,-274.7831 561.3396,-267.8514"/>
<text text-anchor="middle" x="633" y="-293" font-family="Helvetica,sans-Serif" font-size="10.00" fill="#000000"> Map</text>
</g>
<!-- Node24&#45;&gt;Node23 -->
<g id="edge22" class="edge">
<title>Node24&#45;&gt;Node23</title>
<path fill="none" stroke="#9a32cd" stroke-dasharray="5,2" d="M390.8287,-227.2284C424.2303,-236.9129 475.8948,-251.8926 505.3614,-260.4361"/>
<polygon fill="#9a32cd" stroke="#9a32cd" points="391.6729,-223.8291 381.0938,-224.4059 389.7236,-230.5522 391.6729,-223.8291"/>
<text text-anchor="middle" x="424" y="-246" font-family="Helvetica,sans-Serif" font-size="10.00" fill="#000000"> SyncToFd</text>
</g>
</g>
</svg>
        <g id="navigator" transform="translate(0 0)" fill="#404254">
                <rect fill="#f2f5e9" fill-opacity="0.5" stroke="#606060" stroke-width=".5" x="0" y="0" width="60" height="60"/>
                <use id="zoomplus" xlink:href="#zoomPlus" x="17" y="9" onmousedown="handleZoom(evt,'in')"/>
                <use id="zoomminus" xlink:href="#zoomMin" x="42" y="9" onmousedown="handleZoom(evt,'out')"/>
                <use id="reset" xlink:href="#resetDef" x="30" y="36" onmousedown="handleReset()"/>
                <g id="arrowUp" xlink:href="#dirArrow" transform="translate(30 24)" onmousedown="handlePan(0,-1)">
                  <use xlink:href="#rim" fill="#404040">
                        <set attributeName="fill" to="#808080" begin="arrowUp.mouseover" end="arrowUp.mouseout"/>
                  </use>
                  <path fill="none" stroke="white" stroke-width="1.5" d="M0,-3.0v7 M-2.5,-0.5L0,-3.0L2.5,-0.5"/>
                </g>
                <g id="arrowRight" xlink:href="#dirArrow" transform="rotate(90) translate(36 -43)" onmousedown="handlePan(1,0)">
                  <use xlink:href="#rim" fill="#404040">
                        <set attributeName="fill" to="#808080" begin="arrowRight.mouseover" end="arrowRight.mouseout"/>
                  </use>
                  <path fill="none" stroke="white" stroke-width="1.5" d="M0,-3.0v7 M-2.5,-0.5L0,-3.0L2.5,-0.5"/>
                </g>
                <g id="arrowDown" xlink:href="#dirArrow" transform="rotate(180) translate(-30 -48)" onmousedown="handlePan(0,1)">
                  <use xlink:href="#rim" fill="#404040">
                        <set attributeName="fill" to="#808080" begin="arrowDown.mouseover" end="arrowDown.mouseout"/>
                  </use>
                  <path fill="none" stroke="white" stroke-width="1.5" d="M0,-3.0v7 M-2.5,-0.5L0,-3.0L2.5,-0.5"/>
                </g>
                <g id="arrowLeft" xlink:href="#dirArrow" transform="rotate(270) translate(-36 17)" onmousedown="handlePan(-1,0)">
                  <use xlink:href="#rim" fill="#404040">
                        <set attributeName="fill" to="#808080" begin="arrowLeft.mouseover" end="arrowLeft.mouseout"/>
                  </use>
                  <path fill="none" stroke="white" stroke-width="1.5" d="M0,-3.0v7 M-2.5,-0.5L0,-3.0L2.5,-0.5"/>
                </g>
        </g>
        <svg viewBox="0 0 15 15" width="100%" height="30px" preserveAspectRatio="xMaxYMin meet">
         <g id="arrow_out" transform="scale(0.3 0.3)">
          <a xlink:href="classpkgCache_1_1RlsFileIterator__coll__graph_org.svg" target="_base">
           <rect id="button" ry="5" rx="5" y="6" x="6" height="38" width="38"
                fill="#f2f5e9" fill-opacity="0.5" stroke="#606060" stroke-width="1.0"/>
           <path id="arrow"
             d="M 11.500037,31.436501 C 11.940474,20.09759 22.043105,11.32322 32.158766,21.979434 L 37.068811,17.246167 C 37.068811,17.246167 37.088388,32 37.088388,32 L 22.160133,31.978069 C 22.160133,31.978069 26.997745,27.140456 26.997745,27.140456 C 18.528582,18.264221 13.291696,25.230495 11.500037,31.436501 z"
             style="fill:#404040;"/>
          </a>
         </g>
        </svg>
</svg>
