<?xml version="1.0" encoding="UTF-8" standalone="no"?>
<!DOCTYPE svg PUBLIC "-//W3C//DTD SVG 1.1//EN"
 "http://www.w3.org/Graphics/SVG/1.1/DTD/svg11.dtd">
<!-- Generated by graphviz version 2.40.1 (20161225.0304)
 -->
<!-- Title: pkgAcqChangelog Pages: 1 -->
<svg width="1042pt" height="577pt"
 viewBox="0.00 0.00 1041.60 577.00" xmlns="http://www.w3.org/2000/svg" xmlns:xlink="http://www.w3.org/1999/xlink">
<g id="graph0" class="graph" transform="scale(1 1) rotate(0) translate(4 573)">
<title>pkgAcqChangelog</title>
<polygon fill="#ffffff" stroke="transparent" points="-4,4 -4,-573 1037.6026,-573 1037.6026,4 -4,4"/>
<!-- Node3 -->
<g id="node1" class="node">
<title>Node3</title>
<polygon fill="#bfbfbf" stroke="#000000" points="166.6026,-298 166.6026,-317 270.6026,-317 270.6026,-298 166.6026,-298"/>
<text text-anchor="middle" x="218.6026" y="-305" font-family="Helvetica,sans-Serif" font-size="10.00" fill="#000000">pkgAcqChangelog</text>
</g>
<!-- Node4 -->
<g id="node2" class="node">
<title>Node4</title>
<g id="a_node2"><a xlink:href="classpkgAcquire_1_1Item.xhtml" target="_top" xlink:title="Represents the process by which a pkgAcquire object should retrieve a file or a collection of files...">
<polygon fill="#ffffff" stroke="#000000" points="204.1026,-386 204.1026,-405 243.1026,-405 243.1026,-386 204.1026,-386"/>
<text text-anchor="middle" x="223.6026" y="-393" font-family="Helvetica,sans-Serif" font-size="10.00" fill="#000000">Item</text>
</a>
</g>
</g>
<!-- Node4&#45;&gt;Node3 -->
<g id="edge1" class="edge">
<title>Node4&#45;&gt;Node3</title>
<path fill="none" stroke="#191970" d="M222.4707,-375.5775C221.4315,-357.2889 219.9368,-330.9812 219.1441,-317.03"/>
<polygon fill="#191970" stroke="#191970" points="218.9867,-375.9609 223.0484,-385.7462 225.9754,-375.5638 218.9867,-375.9609"/>
</g>
<!-- Node7 -->
<g id="node5" class="node">
<title>Node7</title>
<polygon fill="#ffffff" stroke="#bfbfbf" points="289.1026,-292.5 289.1026,-322.5 402.1026,-322.5 402.1026,-292.5 289.1026,-292.5"/>
<text text-anchor="start" x="297.1026" y="-310.5" font-family="Helvetica,sans-Serif" font-size="10.00" fill="#000000">vector&lt; pkgAcquire</text>
<text text-anchor="middle" x="345.6026" y="-299.5" font-family="Helvetica,sans-Serif" font-size="10.00" fill="#000000">::Item *&gt;</text>
</g>
<!-- Node4&#45;&gt;Node7 -->
<g id="edge5" class="edge">
<title>Node4&#45;&gt;Node7</title>
<path fill="none" stroke="#9a32cd" stroke-dasharray="5,2" d="M245.3521,-379.8119C267.7932,-363.6248 302.5532,-338.552 324.6843,-322.5887"/>
<polygon fill="#9a32cd" stroke="#9a32cd" points="243.1877,-377.0575 237.1249,-385.7462 247.2827,-382.7347 243.1877,-377.0575"/>
<text text-anchor="middle" x="324.1026" y="-348.5" font-family="Helvetica,sans-Serif" font-size="10.00" fill="#000000"> elements</text>
</g>
<!-- Node10 -->
<g id="node8" class="node">
<title>Node10</title>
<g id="a_node8"><a xlink:href="structpkgAcquire_1_1ItemDesc.xhtml" target="_top" xlink:title="Represents a single download source from which an item should be downloaded. ">
<polygon fill="#ffffff" stroke="#000000" points="43.1026,-298 43.1026,-317 106.1026,-317 106.1026,-298 43.1026,-298"/>
<text text-anchor="middle" x="74.6026" y="-305" font-family="Helvetica,sans-Serif" font-size="10.00" fill="#000000">ItemDesc</text>
</a>
</g>
</g>
<!-- Node4&#45;&gt;Node10 -->
<g id="edge13" class="edge">
<title>Node4&#45;&gt;Node10</title>
<path fill="none" stroke="#9a32cd" stroke-dasharray="5,2" d="M193.8286,-392.8158C154.9863,-388.6326 90.2401,-379.0922 75.6026,-361 65.6694,-348.7224 68.4878,-329.1586 71.5024,-317.3998"/>
<polygon fill="#9a32cd" stroke="#9a32cd" points="193.7306,-396.3239 204.0341,-393.8563 194.4407,-389.36 193.7306,-396.3239"/>
<text text-anchor="middle" x="93.1026" y="-348.5" font-family="Helvetica,sans-Serif" font-size="10.00" fill="#000000"> Owner</text>
</g>
<!-- Node5 -->
<g id="node3" class="node">
<title>Node5</title>
<g id="a_node3"><a xlink:href="classWeakPointable.xhtml" target="_top" xlink:title="WeakPointable">
<polygon fill="#ffffff" stroke="#000000" points="131.1026,-492.5 131.1026,-511.5 220.1026,-511.5 220.1026,-492.5 131.1026,-492.5"/>
<text text-anchor="middle" x="175.6026" y="-499.5" font-family="Helvetica,sans-Serif" font-size="10.00" fill="#000000">WeakPointable</text>
</a>
</g>
</g>
<!-- Node5&#45;&gt;Node4 -->
<g id="edge2" class="edge">
<title>Node5&#45;&gt;Node4</title>
<path fill="none" stroke="#191970" d="M185.1564,-483.2469C186.6723,-480.1708 188.2012,-477.0064 189.6026,-474 201.0226,-449.5005 213.3895,-420.1598 219.5849,-405.2443"/>
<polygon fill="#191970" stroke="#191970" points="181.8834,-481.9657 180.5284,-492.4736 188.1404,-485.1042 181.8834,-481.9657"/>
</g>
<!-- Node5&#45;&gt;Node10 -->
<g id="edge10" class="edge">
<title>Node5&#45;&gt;Node10</title>
<path fill="none" stroke="#191970" d="M120.668,-498.263C84.0014,-494.5672 40.2709,-487.434 27.6026,-474 -12.9516,-430.9944 -4.7682,-390.4596 27.6026,-341 34.2972,-330.7712 45.2853,-322.6835 54.9542,-317.0192"/>
<polygon fill="#191970" stroke="#191970" points="120.5066,-501.7632 130.7908,-499.2167 121.1632,-494.7941 120.5066,-501.7632"/>
</g>
<!-- Node13 -->
<g id="node11" class="node">
<title>Node13</title>
<g id="a_node11"><a xlink:href="classpkgAcquire_1_1Worker.xhtml" target="_top" xlink:title="A fetch subprocess. ">
<polygon fill="#ffffff" stroke="#000000" points="504.1026,-68.5 504.1026,-87.5 555.1026,-87.5 555.1026,-68.5 504.1026,-68.5"/>
<text text-anchor="middle" x="529.6026" y="-75.5" font-family="Helvetica,sans-Serif" font-size="10.00" fill="#000000">Worker</text>
</a>
</g>
</g>
<!-- Node5&#45;&gt;Node13 -->
<g id="edge17" class="edge">
<title>Node5&#45;&gt;Node13</title>
<path fill="none" stroke="#191970" d="M174.7109,-481.9583C173.1598,-451.4051 169.3604,-391.4075 161.6026,-341 160.356,-332.9002 158.4968,-331.1462 157.6026,-323 156.0992,-309.3045 153.4346,-305.1322 157.6026,-292 165.9959,-265.5551 172.4521,-258.9564 193.6026,-241 293.1945,-156.4483 444.1728,-104.0143 503.9428,-85.5209"/>
<polygon fill="#191970" stroke="#191970" points="171.2243,-482.324 175.1988,-492.1451 178.2163,-481.989 171.2243,-482.324"/>
</g>
<!-- Node6 -->
<g id="node4" class="node">
<title>Node6</title>
<g id="a_node4"><a xlink:href="classpkgAcquire.xhtml" target="_top" xlink:title="The core download scheduler. {{{. ">
<polygon fill="#ffffff" stroke="#000000" points="521.1026,-203.5 521.1026,-222.5 592.1026,-222.5 592.1026,-203.5 521.1026,-203.5"/>
<text text-anchor="middle" x="556.6026" y="-210.5" font-family="Helvetica,sans-Serif" font-size="10.00" fill="#000000">pkgAcquire</text>
</a>
</g>
</g>
<!-- Node6&#45;&gt;Node4 -->
<g id="edge3" class="edge">
<title>Node6&#45;&gt;Node4</title>
<path fill="none" stroke="#9a32cd" stroke-dasharray="5,2" d="M558.0782,-232.556C558.786,-257.2384 555.9562,-299.3226 531.6026,-323 489.6556,-363.7825 304.29,-386.8904 243.2023,-393.5026"/>
<polygon fill="#9a32cd" stroke="#9a32cd" points="561.5737,-232.3772 557.5686,-222.5686 554.5828,-232.734 561.5737,-232.3772"/>
<text text-anchor="middle" x="567.1026" y="-305" font-family="Helvetica,sans-Serif" font-size="10.00" fill="#000000"> Owner</text>
</g>
<!-- Node8 -->
<g id="node6" class="node">
<title>Node8</title>
<g id="a_node6"><a xlink:href="classpkgAcquire_1_1Queue.xhtml" target="_top" xlink:title="A single download queue in a pkgAcquire object. {{{. ">
<polygon fill="#ffffff" stroke="#000000" points="588.6026,-136.5 588.6026,-155.5 636.6026,-155.5 636.6026,-136.5 588.6026,-136.5"/>
<text text-anchor="middle" x="612.6026" y="-143.5" font-family="Helvetica,sans-Serif" font-size="10.00" fill="#000000">Queue</text>
</a>
</g>
</g>
<!-- Node6&#45;&gt;Node8 -->
<g id="edge7" class="edge">
<title>Node6&#45;&gt;Node8</title>
<path fill="none" stroke="#9a32cd" stroke-dasharray="5,2" d="M549.1804,-193.555C547.8747,-186.918 547.9268,-179.7318 551.6026,-174 559.7173,-161.3465 575.1431,-154.3356 588.4513,-150.4935"/>
<polygon fill="#9a32cd" stroke="#9a32cd" points="545.8496,-194.635 552.0242,-203.2445 552.5663,-192.6636 545.8496,-194.635"/>
<text text-anchor="middle" x="569.1026" y="-177" font-family="Helvetica,sans-Serif" font-size="10.00" fill="#000000"> Owner</text>
</g>
<!-- Node7&#45;&gt;Node6 -->
<g id="edge4" class="edge">
<title>Node7&#45;&gt;Node6</title>
<path fill="none" stroke="#9a32cd" stroke-dasharray="5,2" d="M377.7908,-287.2544C401.4404,-272.9833 434.702,-254.1472 465.6026,-241 483.3984,-233.4284 503.9356,-226.9292 520.9913,-222.1036"/>
<polygon fill="#9a32cd" stroke="#9a32cd" points="375.9382,-284.2846 369.2224,-292.479 379.5825,-290.2611 375.9382,-284.2846"/>
<text text-anchor="middle" x="481.1026" y="-255" font-family="Helvetica,sans-Serif" font-size="10.00" fill="#000000"> Items</text>
</g>
<!-- Node9 -->
<g id="node7" class="node">
<title>Node9</title>
<g id="a_node7"><a xlink:href="structpkgAcquire_1_1Queue_1_1QItem.xhtml" target="_top" xlink:title="A single item placed in this queue. ">
<polygon fill="#ffffff" stroke="#000000" points="421.1026,-.5 421.1026,-19.5 468.1026,-19.5 468.1026,-.5 421.1026,-.5"/>
<text text-anchor="middle" x="444.6026" y="-7.5" font-family="Helvetica,sans-Serif" font-size="10.00" fill="#000000">QItem</text>
</a>
</g>
</g>
<!-- Node7&#45;&gt;Node9 -->
<g id="edge14" class="edge">
<title>Node7&#45;&gt;Node9</title>
<path fill="none" stroke="#9a32cd" stroke-dasharray="5,2" d="M291.549,-288.7234C242.1035,-269.8477 176.6026,-239.7875 176.6026,-213 176.6026,-213 176.6026,-213 176.6026,-78 176.6026,-27.8378 355.2298,-14.2578 420.8194,-10.9621"/>
<polygon fill="#9a32cd" stroke="#9a32cd" points="290.6077,-292.1084 301.1999,-292.3451 293.0672,-285.5547 290.6077,-292.1084"/>
<text text-anchor="middle" x="196.6026" y="-143.5" font-family="Helvetica,sans-Serif" font-size="10.00" fill="#000000"> Owners</text>
</g>
<!-- Node8&#45;&gt;Node6 -->
<g id="edge6" class="edge">
<title>Node8&#45;&gt;Node6</title>
<path fill="none" stroke="#9a32cd" stroke-dasharray="5,2" d="M603.8411,-164.7384C600.2356,-171.48 595.7033,-178.9164 590.6026,-185 584.8053,-191.9144 577.1287,-198.4036 570.5369,-203.3905"/>
<polygon fill="#9a32cd" stroke="#9a32cd" points="607.0708,-166.1055 608.4189,-155.5967 600.8117,-162.9711 607.0708,-166.1055"/>
<text text-anchor="middle" x="617.6026" y="-177" font-family="Helvetica,sans-Serif" font-size="10.00" fill="#000000"> Queues</text>
</g>
<!-- Node8&#45;&gt;Node13 -->
<g id="edge18" class="edge">
<title>Node8&#45;&gt;Node13</title>
<path fill="none" stroke="#9a32cd" stroke-dasharray="5,2" d="M604.7443,-126.8052C601.2065,-119.9079 596.4853,-112.4856 590.6026,-107 580.5687,-97.6433 566.9649,-90.7818 555.1501,-86.0891"/>
<polygon fill="#9a32cd" stroke="#9a32cd" points="601.7259,-128.6195 609.078,-136.2482 608.0879,-125.6997 601.7259,-128.6195"/>
<text text-anchor="middle" x="620.1026" y="-110" font-family="Helvetica,sans-Serif" font-size="10.00" fill="#000000"> OwnerQ</text>
</g>
<!-- Node9&#45;&gt;Node8 -->
<g id="edge8" class="edge">
<title>Node9&#45;&gt;Node8</title>
<path fill="none" stroke="#9a32cd" stroke-dasharray="5,2" d="M478.3758,-14.755C529.7456,-22.7552 623.6703,-40.6581 643.6026,-67 659.0283,-87.3861 650.6389,-107.122 645.6026,-118 642.1303,-125.5001 635.5491,-131.7245 629.1719,-136.3847"/>
<polygon fill="#9a32cd" stroke="#9a32cd" points="478.8144,-11.2816 468.4027,-13.243 477.7651,-18.2025 478.8144,-11.2816"/>
<text text-anchor="middle" x="667.1026" y="-75.5" font-family="Helvetica,sans-Serif" font-size="10.00" fill="#000000"> Items</text>
</g>
<!-- Node9&#45;&gt;Node9 -->
<g id="edge15" class="edge">
<title>Node9&#45;&gt;Node9</title>
<path fill="none" stroke="#9a32cd" stroke-dasharray="5,2" d="M478.6174,-15.294C483.1172,-14.3926 486.1026,-12.6279 486.1026,-10 486.1026,-5.6875 478.063,-3.6997 468.4846,-4.0366"/>
<polygon fill="#9a32cd" stroke="#9a32cd" points="478.2321,-11.8118 468.4846,-15.9634 478.6935,-18.7965 478.2321,-11.8118"/>
<text text-anchor="middle" x="499.6026" y="-7.5" font-family="Helvetica,sans-Serif" font-size="10.00" fill="#000000"> Next</text>
</g>
<!-- Node9&#45;&gt;Node13 -->
<g id="edge23" class="edge">
<title>Node9&#45;&gt;Node13</title>
<path fill="none" stroke="#9a32cd" stroke-dasharray="5,2" d="M438.216,-29.4542C437.2013,-36.191 437.5803,-43.4393 441.6026,-49 449.0507,-59.2965 480.826,-67.93 504.0626,-73.031"/>
<polygon fill="#9a32cd" stroke="#9a32cd" points="441.6488,-30.1509 440.6342,-19.6048 434.8507,-28.4818 441.6488,-30.1509"/>
<text text-anchor="middle" x="472.6026" y="-41" font-family="Helvetica,sans-Serif" font-size="10.00" fill="#000000"> CurrentItem</text>
</g>
<!-- Node10&#45;&gt;Node4 -->
<g id="edge36" class="edge">
<title>Node10&#45;&gt;Node4</title>
<path fill="none" stroke="#9a32cd" stroke-dasharray="5,2" d="M99.6254,-322.2786C130.3001,-340.3952 181.3989,-370.5743 207.3734,-385.9149"/>
<polygon fill="#9a32cd" stroke="#9a32cd" points="101.2022,-319.145 90.8119,-317.0732 97.6424,-325.1723 101.2022,-319.145"/>
<text text-anchor="middle" x="176.6026" y="-348.5" font-family="Helvetica,sans-Serif" font-size="10.00" fill="#000000"> Desc</text>
</g>
<!-- Node10&#45;&gt;Node9 -->
<g id="edge9" class="edge">
<title>Node10&#45;&gt;Node9</title>
<path fill="none" stroke="#191970" d="M79.5148,-288.0932C83.8894,-269.0889 89.6026,-239.2451 89.6026,-213 89.6026,-213 89.6026,-213 89.6026,-78 89.6026,-25.5612 149.5455,-49.9582 200.6026,-38 280.1051,-19.3796 377.2005,-12.949 421.0806,-10.8906"/>
<polygon fill="#191970" stroke="#191970" points="76.0868,-287.3793 77.1472,-297.9209 82.892,-289.0189 76.0868,-287.3793"/>
</g>
<!-- Node11 -->
<g id="node9" class="node">
<title>Node11</title>
<g id="a_node9"><a xlink:title="STL class. ">
<polygon fill="#ffffff" stroke="#bfbfbf" points="645.6026,-492.5 645.6026,-511.5 689.6026,-511.5 689.6026,-492.5 645.6026,-492.5"/>
<text text-anchor="middle" x="667.6026" y="-499.5" font-family="Helvetica,sans-Serif" font-size="10.00" fill="#000000">string</text>
</a>
</g>
</g>
<!-- Node11&#45;&gt;Node4 -->
<g id="edge35" class="edge">
<title>Node11&#45;&gt;Node4</title>
<path fill="none" stroke="#9a32cd" stroke-dasharray="5,2" d="M635.3261,-496.7088C604.8498,-491.5397 557.9332,-483.1344 517.6026,-474 413.5226,-450.427 290.6437,-415.1795 243.4351,-401.3583"/>
<polygon fill="#9a32cd" stroke="#9a32cd" points="634.9409,-500.1931 645.3826,-498.3982 636.1006,-493.2898 634.9409,-500.1931"/>
<text text-anchor="middle" x="562.6026" y="-466" font-family="Helvetica,sans-Serif" font-size="10.00" fill="#000000"> ActiveSubprocess</text>
<text text-anchor="middle" x="562.6026" y="-455" font-family="Helvetica,sans-Serif" font-size="10.00" fill="#000000">DestFile</text>
<text text-anchor="middle" x="562.6026" y="-444" font-family="Helvetica,sans-Serif" font-size="10.00" fill="#000000">ErrorText</text>
<text text-anchor="middle" x="562.6026" y="-433" font-family="Helvetica,sans-Serif" font-size="10.00" fill="#000000">UsedMirror</text>
</g>
<!-- Node11&#45;&gt;Node6 -->
<g id="edge32" class="edge">
<title>Node11&#45;&gt;Node6</title>
<path fill="none" stroke="#9a32cd" stroke-dasharray="5,2" d="M657.8024,-483.178C656.3326,-480.138 654.8826,-477.0029 653.6026,-474 610.4977,-372.8738 613.7075,-342.1262 570.6026,-241 567.9601,-234.8004 564.5928,-228.0374 561.8229,-222.7112"/>
<polygon fill="#9a32cd" stroke="#9a32cd" points="654.7638,-484.9261 662.3823,-492.2888 661.018,-481.7821 654.7638,-484.9261"/>
<text text-anchor="middle" x="625.6026" y="-348.5" font-family="Helvetica,sans-Serif" font-size="10.00" fill="#000000"> Lock</text>
</g>
<!-- Node11&#45;&gt;Node8 -->
<g id="edge29" class="edge">
<title>Node11&#45;&gt;Node8</title>
<path fill="none" stroke="#9a32cd" stroke-dasharray="5,2" d="M667.6026,-482.2136C667.6026,-460.8297 667.6026,-425.7485 667.6026,-395.5 667.6026,-395.5 667.6026,-395.5 667.6026,-213 667.6026,-187.8679 644.1972,-167.0133 627.9232,-155.5505"/>
<polygon fill="#9a32cd" stroke="#9a32cd" points="664.1027,-482.3084 667.6026,-492.3084 671.1027,-482.3084 664.1027,-482.3084"/>
<text text-anchor="middle" x="684.1026" y="-305" font-family="Helvetica,sans-Serif" font-size="10.00" fill="#000000"> Name</text>
</g>
<!-- Node11&#45;&gt;Node10 -->
<g id="edge11" class="edge">
<title>Node11&#45;&gt;Node10</title>
<path fill="none" stroke="#9a32cd" stroke-dasharray="5,2" d="M635.5733,-501.3086C577.4961,-499.5903 451.1391,-493.7146 346.6026,-474 250.5533,-455.886 223.2837,-455.1928 135.6026,-412 101.0724,-394.99 83.0551,-395.3087 65.6026,-361 58.4283,-346.8965 64.5462,-328.2633 69.6001,-317.1195"/>
<polygon fill="#9a32cd" stroke="#9a32cd" points="635.5101,-504.808 645.6023,-501.5834 635.702,-497.8107 635.5101,-504.808"/>
<text text-anchor="middle" x="165.1026" y="-404" font-family="Helvetica,sans-Serif" font-size="10.00" fill="#000000"> Description</text>
<text text-anchor="middle" x="165.1026" y="-393" font-family="Helvetica,sans-Serif" font-size="10.00" fill="#000000">URI</text>
<text text-anchor="middle" x="165.1026" y="-382" font-family="Helvetica,sans-Serif" font-size="10.00" fill="#000000">ShortDesc</text>
</g>
<!-- Node11&#45;&gt;Node13 -->
<g id="edge24" class="edge">
<title>Node11&#45;&gt;Node13</title>
<path fill="none" stroke="#9a32cd" stroke-dasharray="5,2" d="M700.0458,-500.1103C752.8168,-496.6651 854.6667,-488.3615 887.6026,-474 937.4956,-452.2444 981.6026,-449.9299 981.6026,-395.5 981.6026,-395.5 981.6026,-395.5 981.6026,-146 981.6026,-67.1816 886.3808,-119.7633 808.6026,-107 796.1982,-104.9645 622.2689,-87.3434 555.471,-80.6051"/>
<polygon fill="#9a32cd" stroke="#9a32cd" points="699.6355,-496.6292 689.8765,-500.7536 700.0775,-503.6152 699.6355,-496.6292"/>
<text text-anchor="middle" x="1007.6026" y="-266" font-family="Helvetica,sans-Serif" font-size="10.00" fill="#000000"> OutQueue</text>
<text text-anchor="middle" x="1007.6026" y="-255" font-family="Helvetica,sans-Serif" font-size="10.00" fill="#000000">Access</text>
<text text-anchor="middle" x="1007.6026" y="-244" font-family="Helvetica,sans-Serif" font-size="10.00" fill="#000000">Status</text>
</g>
<!-- Node14 -->
<g id="node12" class="node">
<title>Node14</title>
<g id="a_node12"><a xlink:href="structpkgAcquire_1_1MethodConfig.xhtml" target="_top" xlink:title="Information about the properties of a single acquire method. {{{. ">
<polygon fill="#ffffff" stroke="#000000" points="719.1026,-298 719.1026,-317 802.1026,-317 802.1026,-298 719.1026,-298"/>
<text text-anchor="middle" x="760.6026" y="-305" font-family="Helvetica,sans-Serif" font-size="10.00" fill="#000000">MethodConfig</text>
</a>
</g>
</g>
<!-- Node11&#45;&gt;Node14 -->
<g id="edge21" class="edge">
<title>Node11&#45;&gt;Node14</title>
<path fill="none" stroke="#9a32cd" stroke-dasharray="5,2" d="M690.4481,-486.5339C711.8001,-470.6318 742.4497,-443.7533 756.6026,-412 770.9417,-379.8289 765.8452,-336.4049 762.5356,-317.2584"/>
<polygon fill="#9a32cd" stroke="#9a32cd" points="688.2848,-483.7788 682.2196,-492.4658 692.3783,-489.4571 688.2848,-483.7788"/>
<text text-anchor="middle" x="783.1026" y="-398.5" font-family="Helvetica,sans-Serif" font-size="10.00" fill="#000000"> Access</text>
<text text-anchor="middle" x="783.1026" y="-387.5" font-family="Helvetica,sans-Serif" font-size="10.00" fill="#000000">Version</text>
</g>
<!-- Node17 -->
<g id="node15" class="node">
<title>Node17</title>
<polygon fill="#ffffff" stroke="#bfbfbf" points="809.1026,-341.5 809.1026,-360.5 928.1026,-360.5 928.1026,-341.5 809.1026,-341.5"/>
<text text-anchor="middle" x="868.6026" y="-348.5" font-family="Helvetica,sans-Serif" font-size="10.00" fill="#000000">vector&lt; std::string &gt;</text>
</g>
<!-- Node11&#45;&gt;Node17 -->
<g id="edge27" class="edge">
<title>Node11&#45;&gt;Node17</title>
<path fill="none" stroke="#9a32cd" stroke-dasharray="5,2" d="M699.8379,-498.0891C733.1179,-493.5276 782.2812,-485.1643 797.6026,-474 838.0549,-444.5234 858.9972,-384.4525 865.9347,-360.8428"/>
<polygon fill="#9a32cd" stroke="#9a32cd" points="699.1089,-494.6549 689.6538,-499.4352 700.0262,-501.5945 699.1089,-494.6549"/>
<text text-anchor="middle" x="859.1026" y="-449.5" font-family="Helvetica,sans-Serif" font-size="10.00" fill="#000000"> elements</text>
</g>
<!-- Node12 -->
<g id="node10" class="node">
<title>Node12</title>
<g id="a_node10"><a xlink:title="STL class. ">
<polygon fill="#ffffff" stroke="#bfbfbf" points="608.1026,-549.5 608.1026,-568.5 727.1026,-568.5 727.1026,-549.5 608.1026,-549.5"/>
<text text-anchor="middle" x="667.6026" y="-556.5" font-family="Helvetica,sans-Serif" font-size="10.00" fill="#000000">basic_string&lt; char &gt;</text>
</a>
</g>
</g>
<!-- Node12&#45;&gt;Node11 -->
<g id="edge12" class="edge">
<title>Node12&#45;&gt;Node11</title>
<path fill="none" stroke="#191970" d="M667.6026,-539.2342C667.6026,-529.8491 667.6026,-519.0651 667.6026,-511.5265"/>
<polygon fill="#191970" stroke="#191970" points="664.1027,-539.3307 667.6026,-549.3307 671.1027,-539.3308 664.1027,-539.3307"/>
</g>
<!-- Node13&#45;&gt;Node6 -->
<g id="edge34" class="edge">
<title>Node13&#45;&gt;Node6</title>
<path fill="none" stroke="#9a32cd" stroke-dasharray="5,2" d="M529.7883,-97.8042C530.5386,-119.7118 533.4049,-155.7779 543.6026,-185 545.7923,-191.2747 548.9108,-198.0401 551.5445,-203.3487"/>
<polygon fill="#9a32cd" stroke="#9a32cd" points="533.2862,-97.6682 529.5611,-87.7499 526.288,-97.8264 533.2862,-97.6682"/>
<text text-anchor="middle" x="557.1026" y="-143.5" font-family="Helvetica,sans-Serif" font-size="10.00" fill="#000000"> Workers</text>
</g>
<!-- Node13&#45;&gt;Node8 -->
<g id="edge30" class="edge">
<title>Node13&#45;&gt;Node8</title>
<path fill="none" stroke="#9a32cd" stroke-dasharray="5,2" d="M532.9193,-97.532C534.9742,-104.6989 538.2844,-112.4156 543.6026,-118 555.4603,-130.4512 573.6211,-137.5224 588.3351,-141.443"/>
<polygon fill="#9a32cd" stroke="#9a32cd" points="536.3258,-96.7271 530.719,-87.7374 529.496,-98.2614 536.3258,-96.7271"/>
<text text-anchor="middle" x="565.1026" y="-110" font-family="Helvetica,sans-Serif" font-size="10.00" fill="#000000"> Workers</text>
</g>
<!-- Node13&#45;&gt;Node9 -->
<g id="edge16" class="edge">
<title>Node13&#45;&gt;Node9</title>
<path fill="none" stroke="#9a32cd" stroke-dasharray="5,2" d="M522.2911,-59.0042C518.738,-51.7037 513.8619,-43.7509 507.6026,-38 496.4972,-27.7967 481.062,-20.8543 468.2495,-16.4346"/>
<polygon fill="#9a32cd" stroke="#9a32cd" points="519.1286,-60.5086 526.3221,-68.287 525.5493,-57.7204 519.1286,-60.5086"/>
<text text-anchor="middle" x="534.6026" y="-41" font-family="Helvetica,sans-Serif" font-size="10.00" fill="#000000"> Worker</text>
</g>
<!-- Node13&#45;&gt;Node13 -->
<g id="edge28" class="edge">
<title>Node13&#45;&gt;Node13</title>
<path fill="none" stroke="#9a32cd" stroke-dasharray="5,2" d="M565.6628,-83.5393C570.1521,-82.5577 573.1026,-80.7112 573.1026,-78 573.1026,-73.5508 565.157,-71.4305 555.5043,-71.639"/>
<polygon fill="#9a32cd" stroke="#9a32cd" points="565.1896,-80.0661 555.5043,-84.361 565.754,-87.0433 565.1896,-80.0661"/>
<text text-anchor="middle" x="603.6026" y="-81" font-family="Helvetica,sans-Serif" font-size="10.00" fill="#000000"> NextQueue</text>
<text text-anchor="middle" x="603.6026" y="-70" font-family="Helvetica,sans-Serif" font-size="10.00" fill="#000000">NextAcquire</text>
</g>
<!-- Node14&#45;&gt;Node6 -->
<g id="edge31" class="edge">
<title>Node14&#45;&gt;Node6</title>
<path fill="none" stroke="#9a32cd" stroke-dasharray="5,2" d="M735.6403,-292.8018C710.7915,-278.5123 671.3105,-256.7226 635.6026,-241 619.888,-234.0807 601.8757,-227.5911 587.0227,-222.6053"/>
<polygon fill="#9a32cd" stroke="#9a32cd" points="734.0018,-295.8975 744.409,-297.8829 737.5114,-289.8409 734.0018,-295.8975"/>
<text text-anchor="middle" x="720.6026" y="-255" font-family="Helvetica,sans-Serif" font-size="10.00" fill="#000000"> Configs</text>
</g>
<!-- Node14&#45;&gt;Node13 -->
<g id="edge19" class="edge">
<title>Node14&#45;&gt;Node13</title>
<path fill="none" stroke="#9a32cd" stroke-dasharray="5,2" d="M757.926,-287.4575C755.6049,-273.8847 751.5011,-255.7987 744.6026,-241 713.3178,-173.8873 707.1415,-148.1804 645.6026,-107 630.9382,-97.1869 584.5964,-87.6184 555.1154,-82.2971"/>
<polygon fill="#9a32cd" stroke="#9a32cd" points="754.5092,-288.2688 759.4786,-297.6259 761.429,-287.2122 754.5092,-288.2688"/>
<text text-anchor="middle" x="734.6026" y="-177" font-family="Helvetica,sans-Serif" font-size="10.00" fill="#000000"> Config</text>
</g>
<!-- Node14&#45;&gt;Node14 -->
<g id="edge20" class="edge">
<title>Node14&#45;&gt;Node14</title>
<path fill="none" stroke="#9a32cd" stroke-dasharray="5,2" d="M812.4217,-313.7581C817.1368,-312.4571 820.1026,-310.3711 820.1026,-307.5 820.1026,-302.9063 812.5102,-300.3223 802.3078,-299.748"/>
<polygon fill="#9a32cd" stroke="#9a32cd" points="811.689,-310.3282 802.3078,-315.252 812.7119,-317.2531 811.689,-310.3282"/>
<text text-anchor="middle" x="833.6026" y="-305" font-family="Helvetica,sans-Serif" font-size="10.00" fill="#000000"> Next</text>
</g>
<!-- Node15 -->
<g id="node13" class="node">
<title>Node15</title>
<g id="a_node13"><a xlink:href="classpkgAcquire_1_1MethodConfig_1_1Private.xhtml" target="_top" xlink:title="Private">
<polygon fill="#ffffff" stroke="#000000" points="696.1026,-386 696.1026,-405 747.1026,-405 747.1026,-386 696.1026,-386"/>
<text text-anchor="middle" x="721.6026" y="-393" font-family="Helvetica,sans-Serif" font-size="10.00" fill="#000000">Private</text>
</a>
</g>
</g>
<!-- Node15&#45;&gt;Node14 -->
<g id="edge22" class="edge">
<title>Node15&#45;&gt;Node14</title>
<path fill="none" stroke="#9a32cd" stroke-dasharray="5,2" d="M730.09,-376.349C738.206,-358.0359 750.1087,-331.1786 756.3791,-317.03"/>
<polygon fill="#9a32cd" stroke="#9a32cd" points="726.7773,-375.1857 725.9253,-385.7462 733.177,-378.022 726.7773,-375.1857"/>
<text text-anchor="middle" x="750.6026" y="-348.5" font-family="Helvetica,sans-Serif" font-size="10.00" fill="#000000"> d</text>
</g>
<!-- Node16 -->
<g id="node14" class="node">
<title>Node16</title>
<g id="a_node14"><a xlink:href="classpkgAcquireStatus.xhtml" target="_top" xlink:title="A monitor object for downloads controlled by the pkgAcquire class. {{{. ">
<polygon fill="#ffffff" stroke="#000000" points="420.6026,-298 420.6026,-317 522.6026,-317 522.6026,-298 420.6026,-298"/>
<text text-anchor="middle" x="471.6026" y="-305" font-family="Helvetica,sans-Serif" font-size="10.00" fill="#000000">pkgAcquireStatus</text>
</a>
</g>
</g>
<!-- Node16&#45;&gt;Node6 -->
<g id="edge33" class="edge">
<title>Node16&#45;&gt;Node6</title>
<path fill="none" stroke="#9a32cd" stroke-dasharray="5,2" d="M487.44,-289.9055C491.8146,-284.8595 496.4876,-279.29 500.6026,-274 511.5792,-259.889 511.5753,-254.2268 523.6026,-241 529.6684,-234.3292 537.2985,-227.76 543.6936,-222.6628"/>
<polygon fill="#9a32cd" stroke="#9a32cd" points="484.5008,-287.9467 480.5108,-297.7615 489.7506,-292.5771 484.5008,-287.9467"/>
<text text-anchor="middle" x="534.1026" y="-255" font-family="Helvetica,sans-Serif" font-size="10.00" fill="#000000"> Log</text>
</g>
<!-- Node16&#45;&gt;Node13 -->
<g id="edge25" class="edge">
<title>Node16&#45;&gt;Node13</title>
<path fill="none" stroke="#9a32cd" stroke-dasharray="5,2" d="M457.0159,-289.4095C453.9737,-284.6622 451.206,-279.3623 449.6026,-274 445.401,-259.948 446.2857,-255.2867 449.6026,-241 464.1461,-178.3588 506.3117,-112.0454 522.8414,-87.6902"/>
<polygon fill="#9a32cd" stroke="#9a32cd" points="454.3037,-291.6338 462.97,-297.7286 459.996,-287.5597 454.3037,-291.6338"/>
<text text-anchor="middle" x="484.1026" y="-177" font-family="Helvetica,sans-Serif" font-size="10.00" fill="#000000"> Log</text>
</g>
<!-- Node17&#45;&gt;Node13 -->
<g id="edge26" class="edge">
<title>Node17&#45;&gt;Node13</title>
<path fill="none" stroke="#9a32cd" stroke-dasharray="5,2" d="M870.9236,-331.4235C872.9613,-312.5281 875.6026,-283.0979 875.6026,-257.5 875.6026,-257.5 875.6026,-257.5 875.6026,-146 875.6026,-113.3629 635.5125,-87.9144 555.3262,-80.3251"/>
<polygon fill="#9a32cd" stroke="#9a32cd" points="867.4345,-331.1314 869.7901,-341.461 874.3903,-331.917 867.4345,-331.1314"/>
<text text-anchor="middle" x="914.6026" y="-210.5" font-family="Helvetica,sans-Serif" font-size="10.00" fill="#000000"> MessageQueue</text>
</g>
</g>
</svg>
