<?xml version="1.0" encoding="UTF-8" standalone="no"?>
<!DOCTYPE svg PUBLIC "-//W3C//DTD SVG 1.1//EN"
 "http://www.w3.org/Graphics/SVG/1.1/DTD/svg11.dtd">
<!-- Generated by graphviz version 2.40.1 (20161225.0304)
 -->
<!-- Title: pkgCache::VerFileIterator Pages: 1 -->
<svg width="1159pt" height="590pt"
 viewBox="0.00 0.00 1159.00 590.00" xmlns="http://www.w3.org/2000/svg" xmlns:xlink="http://www.w3.org/1999/xlink">
<g id="graph0" class="graph" transform="scale(1 1) rotate(0) translate(4 586)">
<title>pkgCache::VerFileIterator</title>
<polygon fill="#ffffff" stroke="transparent" points="-4,4 -4,-586 1155,-586 1155,4 -4,4"/>
<!-- Node3 -->
<g id="node1" class="node">
<title>Node3</title>
<polygon fill="#bfbfbf" stroke="#000000" points="1012,-276.5 1012,-295.5 1151,-295.5 1151,-276.5 1012,-276.5"/>
<text text-anchor="middle" x="1081.5" y="-283.5" font-family="Helvetica,sans-Serif" font-size="10.00" fill="#000000">pkgCache::VerFileIterator</text>
</g>
<!-- Node4 -->
<g id="node2" class="node">
<title>Node4</title>
<g id="a_node2"><a xlink:href="classpkgCache_1_1Iterator.xhtml" target="_top" xlink:title="Iterator\&lt; VerFile,\l VerFileIterator \&gt;">
<polygon fill="#ffffff" stroke="#000000" points="876,-271 876,-301 975,-301 975,-271 876,-271"/>
<text text-anchor="start" x="884" y="-289" font-family="Helvetica,sans-Serif" font-size="10.00" fill="#000000">Iterator&lt; VerFile,</text>
<text text-anchor="middle" x="925.5" y="-278" font-family="Helvetica,sans-Serif" font-size="10.00" fill="#000000"> VerFileIterator &gt;</text>
</a>
</g>
</g>
<!-- Node4&#45;&gt;Node3 -->
<g id="edge1" class="edge">
<title>Node4&#45;&gt;Node3</title>
<path fill="none" stroke="#191970" d="M985.3476,-286C994.066,-286 1003.1047,-286 1011.9945,-286"/>
<polygon fill="#191970" stroke="#191970" points="985.2883,-282.5001 975.2883,-286 985.2883,-289.5001 985.2883,-282.5001"/>
</g>
<!-- Node5 -->
<g id="node3" class="node">
<title>Node5</title>
<polygon fill="#ffffff" stroke="#bfbfbf" points="677,-315 677,-345 805,-345 805,-315 677,-315"/>
<text text-anchor="start" x="685" y="-333" font-family="Helvetica,sans-Serif" font-size="10.00" fill="#000000">iterator&lt; std::forward</text>
<text text-anchor="middle" x="741" y="-322" font-family="Helvetica,sans-Serif" font-size="10.00" fill="#000000">_iterator_tag, VerFile &gt;</text>
</g>
<!-- Node5&#45;&gt;Node4 -->
<g id="edge2" class="edge">
<title>Node5&#45;&gt;Node4</title>
<path fill="none" stroke="#191970" d="M813.7526,-312.6498C834.5828,-307.6822 856.8028,-302.3831 875.8972,-297.8294"/>
<polygon fill="#191970" stroke="#191970" points="812.8937,-309.2564 803.9784,-314.9808 814.5176,-316.0654 812.8937,-309.2564"/>
</g>
<!-- Node6 -->
<g id="node4" class="node">
<title>Node6</title>
<g id="a_node4"><a xlink:href="classpkgCache.xhtml" target="_top" xlink:title="pkgCache">
<polygon fill="#ffffff" stroke="#000000" points="708.5,-276.5 708.5,-295.5 773.5,-295.5 773.5,-276.5 708.5,-276.5"/>
<text text-anchor="middle" x="741" y="-283.5" font-family="Helvetica,sans-Serif" font-size="10.00" fill="#000000">pkgCache</text>
</a>
</g>
</g>
<!-- Node6&#45;&gt;Node4 -->
<g id="edge3" class="edge">
<title>Node6&#45;&gt;Node4</title>
<path fill="none" stroke="#9a32cd" stroke-dasharray="5,2" d="M783.6681,-286C811.1966,-286 847.1058,-286 875.9038,-286"/>
<polygon fill="#9a32cd" stroke="#9a32cd" points="783.5602,-282.5001 773.5602,-286 783.5602,-289.5001 783.5602,-282.5001"/>
<text text-anchor="middle" x="840.5" y="-289" font-family="Helvetica,sans-Serif" font-size="10.00" fill="#000000"> Owner</text>
</g>
<!-- Node7 -->
<g id="node5" class="node">
<title>Node7</title>
<g id="a_node5"><a xlink:href="structpkgCache_1_1DependencyData.xhtml" target="_top" xlink:title="information for a single dependency record ">
<polygon fill="#ffffff" stroke="#000000" points="477.5,-523.5 477.5,-542.5 578.5,-542.5 578.5,-523.5 477.5,-523.5"/>
<text text-anchor="middle" x="528" y="-530.5" font-family="Helvetica,sans-Serif" font-size="10.00" fill="#000000">DependencyData</text>
</a>
</g>
</g>
<!-- Node7&#45;&gt;Node6 -->
<g id="edge4" class="edge">
<title>Node7&#45;&gt;Node6</title>
<path fill="none" stroke="#9a32cd" stroke-dasharray="5,2" d="M588.9804,-534.9262C614.2455,-532.3582 641.6456,-524.5799 659,-505 688.4522,-471.7709 649.1124,-340.5526 677,-306 684.6768,-296.4885 696.8229,-291.4148 708.4805,-288.7387"/>
<polygon fill="#9a32cd" stroke="#9a32cd" points="588.3969,-531.4604 578.6909,-535.7082 588.9274,-538.4402 588.3969,-531.4604"/>
<text text-anchor="middle" x="633" y="-534" font-family="Helvetica,sans-Serif" font-size="10.00" fill="#000000"> DepDataP</text>
</g>
<!-- Node8 -->
<g id="node6" class="node">
<title>Node8</title>
<g id="a_node6"><a xlink:href="structpkgCache_1_1Dependency.xhtml" target="_top" xlink:title="Dependency">
<polygon fill="#ffffff" stroke="#000000" points="489.5,-485.5 489.5,-504.5 566.5,-504.5 566.5,-485.5 489.5,-485.5"/>
<text text-anchor="middle" x="528" y="-492.5" font-family="Helvetica,sans-Serif" font-size="10.00" fill="#000000">Dependency</text>
</a>
</g>
</g>
<!-- Node8&#45;&gt;Node6 -->
<g id="edge5" class="edge">
<title>Node8&#45;&gt;Node6</title>
<path fill="none" stroke="#9a32cd" stroke-dasharray="5,2" d="M576.7669,-495.6051C604.9654,-493.1997 638.7657,-485.096 659,-462 704.9918,-409.5036 632.4989,-359.7659 677,-306 684.7193,-296.6735 696.7292,-291.6241 708.2696,-288.9157"/>
<polygon fill="#9a32cd" stroke="#9a32cd" points="576.4232,-492.1198 566.6669,-496.2506 576.8698,-499.1055 576.4232,-492.1198"/>
<text text-anchor="middle" x="633" y="-493" font-family="Helvetica,sans-Serif" font-size="10.00" fill="#000000"> DepP</text>
</g>
<!-- Node9 -->
<g id="node7" class="node">
<title>Node9</title>
<g id="a_node7"><a xlink:href="structpkgCache_1_1Description.xhtml" target="_top" xlink:title="datamember of a linked list of available description for a version ">
<polygon fill="#ffffff" stroke="#000000" points="492,-447.5 492,-466.5 564,-466.5 564,-447.5 492,-447.5"/>
<text text-anchor="middle" x="528" y="-454.5" font-family="Helvetica,sans-Serif" font-size="10.00" fill="#000000">Description</text>
</a>
</g>
</g>
<!-- Node9&#45;&gt;Node6 -->
<g id="edge6" class="edge">
<title>Node9&#45;&gt;Node6</title>
<path fill="none" stroke="#9a32cd" stroke-dasharray="5,2" d="M574.2971,-455.1919C602.8621,-451.5315 637.9479,-441.9837 659,-418 692.2589,-380.1098 643.9982,-344.1144 677,-306 684.9248,-296.8475 696.9732,-291.8306 708.4869,-289.0997"/>
<polygon fill="#9a32cd" stroke="#9a32cd" points="573.6737,-451.7388 564.1062,-456.29 574.4237,-458.6985 573.6737,-451.7388"/>
<text text-anchor="middle" x="633" y="-450" font-family="Helvetica,sans-Serif" font-size="10.00" fill="#000000"> DescP</text>
</g>
<!-- Node10 -->
<g id="node8" class="node">
<title>Node10</title>
<g id="a_node8"><a xlink:href="structpkgCache_1_1Header.xhtml" target="_top" xlink:title="Header">
<polygon fill="#ffffff" stroke="#000000" points="502,-409.5 502,-428.5 554,-428.5 554,-409.5 502,-409.5"/>
<text text-anchor="middle" x="528" y="-416.5" font-family="Helvetica,sans-Serif" font-size="10.00" fill="#000000">Header</text>
</a>
</g>
</g>
<!-- Node10&#45;&gt;Node6 -->
<g id="edge7" class="edge">
<title>Node10&#45;&gt;Node6</title>
<path fill="none" stroke="#9a32cd" stroke-dasharray="5,2" d="M564.2052,-415.4391C593.8946,-410.5797 634.8316,-399.1004 659,-372 679.2368,-349.3082 655.898,-327.8895 677,-306 685.2409,-297.4516 697.075,-292.5401 708.3307,-289.7245"/>
<polygon fill="#9a32cd" stroke="#9a32cd" points="563.6084,-411.989 554.2187,-416.8966 564.6193,-418.9157 563.6084,-411.989"/>
<text text-anchor="middle" x="633" y="-406" font-family="Helvetica,sans-Serif" font-size="10.00" fill="#000000"> HeaderP</text>
</g>
<!-- Node11 -->
<g id="node9" class="node">
<title>Node11</title>
<g id="a_node9"><a xlink:href="structDynamicMMap_1_1Pool.xhtml" target="_top" xlink:title="Pool">
<polygon fill="#ffffff" stroke="#000000" points="340,-409.5 340,-428.5 378,-428.5 378,-409.5 340,-409.5"/>
<text text-anchor="middle" x="359" y="-416.5" font-family="Helvetica,sans-Serif" font-size="10.00" fill="#000000">Pool</text>
</a>
</g>
</g>
<!-- Node11&#45;&gt;Node10 -->
<g id="edge8" class="edge">
<title>Node11&#45;&gt;Node10</title>
<path fill="none" stroke="#9a32cd" stroke-dasharray="5,2" d="M388.1285,-419C420.1301,-419 471.0611,-419 501.8334,-419"/>
<polygon fill="#9a32cd" stroke="#9a32cd" points="388.058,-415.5001 378.0579,-419 388.0579,-422.5001 388.058,-415.5001"/>
<text text-anchor="middle" x="424" y="-422" font-family="Helvetica,sans-Serif" font-size="10.00" fill="#000000"> Pools</text>
</g>
<!-- Node12 -->
<g id="node10" class="node">
<title>Node12</title>
<g id="a_node10"><a xlink:href="structpkgCache_1_1PackageFile.xhtml" target="_top" xlink:title="stores information about the files used to generate the cache ">
<polygon fill="#ffffff" stroke="#000000" points="491,-371.5 491,-390.5 565,-390.5 565,-371.5 491,-371.5"/>
<text text-anchor="middle" x="528" y="-378.5" font-family="Helvetica,sans-Serif" font-size="10.00" fill="#000000">PackageFile</text>
</a>
</g>
</g>
<!-- Node12&#45;&gt;Node6 -->
<g id="edge9" class="edge">
<title>Node12&#45;&gt;Node6</title>
<path fill="none" stroke="#9a32cd" stroke-dasharray="5,2" d="M568.5327,-368.391C575.3657,-366.2608 582.3854,-364.0696 589,-362 620.1236,-352.262 633.936,-360.8639 659,-340 672.141,-329.0611 663.8501,-316.9282 677,-306 685.8634,-298.6341 697.4428,-293.9742 708.312,-291.029"/>
<polygon fill="#9a32cd" stroke="#9a32cd" points="567.2303,-365.1307 558.7242,-371.447 569.3126,-371.8139 567.2303,-365.1307"/>
<text text-anchor="middle" x="633" y="-360" font-family="Helvetica,sans-Serif" font-size="10.00" fill="#000000"> PkgFileP</text>
</g>
<!-- Node13 -->
<g id="node11" class="node">
<title>Node13</title>
<g id="a_node11"><a xlink:href="structpkgCache_1_1ReleaseFile.xhtml" target="_top" xlink:title="stores information about the release files used to generate the cache ">
<polygon fill="#ffffff" stroke="#000000" points="492.5,-333.5 492.5,-352.5 563.5,-352.5 563.5,-333.5 492.5,-333.5"/>
<text text-anchor="middle" x="528" y="-340.5" font-family="Helvetica,sans-Serif" font-size="10.00" fill="#000000">ReleaseFile</text>
</a>
</g>
</g>
<!-- Node13&#45;&gt;Node6 -->
<g id="edge10" class="edge">
<title>Node13&#45;&gt;Node6</title>
<path fill="none" stroke="#9a32cd" stroke-dasharray="5,2" d="M573.5799,-333.2657C598.8841,-327.5987 630.8452,-320.0064 659,-312 667.1112,-309.6934 668.9752,-308.5911 677,-306 687.7455,-302.5304 699.5364,-298.8187 710.0378,-295.5465"/>
<polygon fill="#9a32cd" stroke="#9a32cd" points="572.5326,-329.9128 563.5273,-335.4944 574.0478,-336.7469 572.5326,-329.9128"/>
<text text-anchor="middle" x="633" y="-328" font-family="Helvetica,sans-Serif" font-size="10.00" fill="#000000"> RlsFileP</text>
</g>
<!-- Node14 -->
<g id="node12" class="node">
<title>Node14</title>
<g id="a_node12"><a xlink:href="structpkgCache_1_1DescFile.xhtml" target="_top" xlink:title="associates a description with a Translation file ">
<polygon fill="#ffffff" stroke="#000000" points="499.5,-295.5 499.5,-314.5 556.5,-314.5 556.5,-295.5 499.5,-295.5"/>
<text text-anchor="middle" x="528" y="-302.5" font-family="Helvetica,sans-Serif" font-size="10.00" fill="#000000">DescFile</text>
</a>
</g>
</g>
<!-- Node14&#45;&gt;Node6 -->
<g id="edge11" class="edge">
<title>Node14&#45;&gt;Node6</title>
<path fill="none" stroke="#9a32cd" stroke-dasharray="5,2" d="M566.762,-301.5424C607.2549,-297.9303 670.0822,-292.326 708.1983,-288.926"/>
<polygon fill="#9a32cd" stroke="#9a32cd" points="566.3756,-298.0628 556.7261,-302.4376 566.9976,-305.0352 566.3756,-298.0628"/>
<text text-anchor="middle" x="633" y="-300" font-family="Helvetica,sans-Serif" font-size="10.00" fill="#000000"> DescFileP</text>
</g>
<!-- Node15 -->
<g id="node13" class="node">
<title>Node15</title>
<g id="a_node13"><a xlink:href="structpkgCache_1_1Provides.xhtml" target="_top" xlink:title="handles virtual packages ">
<polygon fill="#ffffff" stroke="#000000" points="498.5,-257.5 498.5,-276.5 557.5,-276.5 557.5,-257.5 498.5,-257.5"/>
<text text-anchor="middle" x="528" y="-264.5" font-family="Helvetica,sans-Serif" font-size="10.00" fill="#000000">Provides</text>
</a>
</g>
</g>
<!-- Node15&#45;&gt;Node6 -->
<g id="edge12" class="edge">
<title>Node15&#45;&gt;Node6</title>
<path fill="none" stroke="#9a32cd" stroke-dasharray="5,2" d="M567.8719,-270.2077C593.8345,-272.331 628.4348,-275.2259 659,-278 675.2395,-279.4739 693.2765,-281.2215 708.2899,-282.7068"/>
<polygon fill="#9a32cd" stroke="#9a32cd" points="567.9169,-266.6998 557.6657,-269.3763 567.3485,-273.6767 567.9169,-266.6998"/>
<text text-anchor="middle" x="633" y="-281" font-family="Helvetica,sans-Serif" font-size="10.00" fill="#000000"> ProvideP</text>
</g>
<!-- Node16 -->
<g id="node14" class="node">
<title>Node16</title>
<g id="a_node14"><a xlink:title="STL class. ">
<polygon fill="#ffffff" stroke="#bfbfbf" points="156,-200.5 156,-219.5 200,-219.5 200,-200.5 156,-200.5"/>
<text text-anchor="middle" x="178" y="-207.5" font-family="Helvetica,sans-Serif" font-size="10.00" fill="#000000">string</text>
</a>
</g>
</g>
<!-- Node16&#45;&gt;Node6 -->
<g id="edge13" class="edge">
<title>Node16&#45;&gt;Node6</title>
<path fill="none" stroke="#9a32cd" stroke-dasharray="5,2" d="M210.6041,-214.1731C213.1056,-214.4634 215.5927,-214.7426 218,-215 382.6014,-232.6025 425.7589,-220.5081 589,-248 630.9785,-255.0697 678.4375,-267.697 708.9879,-276.4448"/>
<polygon fill="#9a32cd" stroke="#9a32cd" points="210.7558,-210.6661 200.4087,-212.9439 209.9179,-217.6158 210.7558,-210.6661"/>
<text text-anchor="middle" x="424" y="-233" font-family="Helvetica,sans-Serif" font-size="10.00" fill="#000000"> CacheFile</text>
</g>
<!-- Node24 -->
<g id="node22" class="node">
<title>Node24</title>
<g id="a_node22"><a xlink:href="classFileFd.xhtml" target="_top" xlink:title="FileFd">
<polygon fill="#ffffff" stroke="#000000" points="337,-181.5 337,-200.5 381,-200.5 381,-181.5 337,-181.5"/>
<text text-anchor="middle" x="359" y="-188.5" font-family="Helvetica,sans-Serif" font-size="10.00" fill="#000000">FileFd</text>
</a>
</g>
</g>
<!-- Node16&#45;&gt;Node24 -->
<g id="edge23" class="edge">
<title>Node16&#45;&gt;Node24</title>
<path fill="none" stroke="#9a32cd" stroke-dasharray="5,2" d="M205.8134,-196.577C209.8246,-195.1162 213.9625,-193.8522 218,-193 259.2006,-184.3034 308.6875,-186.39 336.7274,-188.6957"/>
<polygon fill="#9a32cd" stroke="#9a32cd" points="204.1663,-193.469 196.2332,-200.4915 206.8141,-199.949 204.1663,-193.469"/>
<text text-anchor="middle" x="268.5" y="-207" font-family="Helvetica,sans-Serif" font-size="10.00" fill="#000000"> TemporaryFileName</text>
<text text-anchor="middle" x="268.5" y="-196" font-family="Helvetica,sans-Serif" font-size="10.00" fill="#000000">FileName</text>
</g>
<!-- Node17 -->
<g id="node15" class="node">
<title>Node17</title>
<g id="a_node15"><a xlink:title="STL class. ">
<polygon fill="#ffffff" stroke="#bfbfbf" points="0,-200.5 0,-219.5 119,-219.5 119,-200.5 0,-200.5"/>
<text text-anchor="middle" x="59.5" y="-207.5" font-family="Helvetica,sans-Serif" font-size="10.00" fill="#000000">basic_string&lt; char &gt;</text>
</a>
</g>
</g>
<!-- Node17&#45;&gt;Node16 -->
<g id="edge14" class="edge">
<title>Node17&#45;&gt;Node16</title>
<path fill="none" stroke="#191970" d="M129.2118,-210C138.8284,-210 148.0652,-210 155.8653,-210"/>
<polygon fill="#191970" stroke="#191970" points="129.0972,-206.5001 119.0972,-210 129.0971,-213.5001 129.0972,-206.5001"/>
</g>
<!-- Node18 -->
<g id="node16" class="node">
<title>Node18</title>
<g id="a_node16"><a xlink:href="structpkgCache_1_1Group.xhtml" target="_top" xlink:title="groups architecture depending packages together ">
<polygon fill="#ffffff" stroke="#000000" points="505,-143.5 505,-162.5 551,-162.5 551,-143.5 505,-143.5"/>
<text text-anchor="middle" x="528" y="-150.5" font-family="Helvetica,sans-Serif" font-size="10.00" fill="#000000">Group</text>
</a>
</g>
</g>
<!-- Node18&#45;&gt;Node6 -->
<g id="edge15" class="edge">
<title>Node18&#45;&gt;Node6</title>
<path fill="none" stroke="#9a32cd" stroke-dasharray="5,2" d="M561.2008,-151.8768C589.2144,-152.4186 629.3717,-156.8158 659,-175 700.0438,-200.1904 727.1866,-254.2522 736.955,-276.3192"/>
<polygon fill="#9a32cd" stroke="#9a32cd" points="561.1199,-148.3766 551.1062,-151.8373 561.0924,-155.3765 561.1199,-148.3766"/>
<text text-anchor="middle" x="633" y="-178" font-family="Helvetica,sans-Serif" font-size="10.00" fill="#000000"> GrpP</text>
</g>
<!-- Node19 -->
<g id="node17" class="node">
<title>Node19</title>
<g id="a_node17"><a xlink:href="classpkgVersioningSystem.xhtml" target="_top" xlink:title="pkgVersioningSystem">
<polygon fill="#ffffff" stroke="#000000" points="467,-76.5 467,-95.5 589,-95.5 589,-76.5 467,-76.5"/>
<text text-anchor="middle" x="528" y="-83.5" font-family="Helvetica,sans-Serif" font-size="10.00" fill="#000000">pkgVersioningSystem</text>
</a>
</g>
</g>
<!-- Node19&#45;&gt;Node6 -->
<g id="edge16" class="edge">
<title>Node19&#45;&gt;Node6</title>
<path fill="none" stroke="#9a32cd" stroke-dasharray="5,2" d="M578.2488,-98.5489C604.6223,-107.106 636.1171,-120.6529 659,-141 703.7369,-180.7794 729.7394,-251.0325 738.0545,-276.4689"/>
<polygon fill="#9a32cd" stroke="#9a32cd" points="579.0079,-95.1202 568.4202,-95.5098 576.94,-101.8078 579.0079,-95.1202"/>
<text text-anchor="middle" x="633" y="-144" font-family="Helvetica,sans-Serif" font-size="10.00" fill="#000000"> VS</text>
</g>
<!-- Node19&#45;&gt;Node19 -->
<g id="edge17" class="edge">
<title>Node19&#45;&gt;Node19</title>
<path fill="none" stroke="#9a32cd" stroke-dasharray="5,2" d="M508.7417,-105.4C510.0278,-110.3146 516.4473,-114 528,-114 546.4844,-114 551.8275,-104.5653 544.0294,-95.7571"/>
<polygon fill="#9a32cd" stroke="#9a32cd" points="512.1142,-106.3509 511.9706,-95.7571 505.4765,-104.1283 512.1142,-106.3509"/>
<text text-anchor="middle" x="528" y="-117" font-family="Helvetica,sans-Serif" font-size="10.00" fill="#000000"> GlobalList</text>
</g>
<!-- Node20 -->
<g id="node18" class="node">
<title>Node20</title>
<g id="a_node18"><a xlink:href="structpkgCache_1_1Version.xhtml" target="_top" xlink:title="information for a single version of a package ">
<polygon fill="#ffffff" stroke="#000000" points="501.5,-38.5 501.5,-57.5 554.5,-57.5 554.5,-38.5 501.5,-38.5"/>
<text text-anchor="middle" x="528" y="-45.5" font-family="Helvetica,sans-Serif" font-size="10.00" fill="#000000">Version</text>
</a>
</g>
</g>
<!-- Node20&#45;&gt;Node6 -->
<g id="edge18" class="edge">
<title>Node20&#45;&gt;Node6</title>
<path fill="none" stroke="#9a32cd" stroke-dasharray="5,2" d="M564.6961,-52.7231C593.6994,-58.2492 633.4262,-70.0581 659,-95 714.0268,-148.6671 734.2522,-245.2535 739.4942,-276.1864"/>
<polygon fill="#9a32cd" stroke="#9a32cd" points="564.9935,-49.2224 554.5419,-50.9587 563.7951,-56.119 564.9935,-49.2224"/>
<text text-anchor="middle" x="633" y="-98" font-family="Helvetica,sans-Serif" font-size="10.00" fill="#000000"> VerP</text>
</g>
<!-- Node21 -->
<g id="node19" class="node">
<title>Node21</title>
<g id="a_node19"><a xlink:href="structpkgCache_1_1VerFile.xhtml" target="_top" xlink:title="associates a version with a PackageFile ">
<polygon fill="#ffffff" stroke="#000000" points="503.5,-.5 503.5,-19.5 552.5,-19.5 552.5,-.5 503.5,-.5"/>
<text text-anchor="middle" x="528" y="-7.5" font-family="Helvetica,sans-Serif" font-size="10.00" fill="#000000">VerFile</text>
</a>
</g>
</g>
<!-- Node21&#45;&gt;Node4 -->
<g id="edge24" class="edge">
<title>Node21&#45;&gt;Node4</title>
<path fill="none" stroke="#9a32cd" stroke-dasharray="5,2" d="M563.2422,-7.6236C590.6239,-7.1911 628.8801,-9.7585 659,-24 783.6431,-82.9348 884.9856,-224.5544 915.8273,-270.9813"/>
<polygon fill="#9a32cd" stroke="#9a32cd" points="562.8471,-4.1339 552.9573,-7.9342 563.0584,-11.1307 562.8471,-4.1339"/>
<text text-anchor="middle" x="741" y="-134" font-family="Helvetica,sans-Serif" font-size="10.00" fill="#000000"> S</text>
</g>
<!-- Node21&#45;&gt;Node6 -->
<g id="edge19" class="edge">
<title>Node21&#45;&gt;Node6</title>
<path fill="none" stroke="#9a32cd" stroke-dasharray="5,2" d="M562.7445,-12.0709C591.9822,-15.6048 633.0616,-25.0304 659,-50 727.1223,-115.5779 738.6868,-240.6059 740.6191,-276.2787"/>
<polygon fill="#9a32cd" stroke="#9a32cd" points="562.8655,-8.5648 552.5585,-11.0176 562.1454,-15.5277 562.8655,-8.5648"/>
<text text-anchor="middle" x="633" y="-53" font-family="Helvetica,sans-Serif" font-size="10.00" fill="#000000"> VerFileP</text>
</g>
<!-- Node22 -->
<g id="node20" class="node">
<title>Node22</title>
<g id="a_node20"><a xlink:href="structpkgCache_1_1Package.xhtml" target="_top" xlink:title="contains information for a single unique package ">
<polygon fill="#ffffff" stroke="#000000" points="499.5,-561.5 499.5,-580.5 556.5,-580.5 556.5,-561.5 499.5,-561.5"/>
<text text-anchor="middle" x="528" y="-568.5" font-family="Helvetica,sans-Serif" font-size="10.00" fill="#000000">Package</text>
</a>
</g>
</g>
<!-- Node22&#45;&gt;Node6 -->
<g id="edge20" class="edge">
<title>Node22&#45;&gt;Node6</title>
<path fill="none" stroke="#9a32cd" stroke-dasharray="5,2" d="M566.6074,-575.0722C596.4275,-575.8782 636.3165,-571.4215 659,-546 694.6081,-506.0938 643.7297,-347.8752 677,-306 684.6036,-296.4298 696.7365,-291.3456 708.4041,-288.6775"/>
<polygon fill="#9a32cd" stroke="#9a32cd" points="566.6791,-571.5717 556.5243,-574.5933 566.347,-578.5638 566.6791,-571.5717"/>
<text text-anchor="middle" x="633" y="-574" font-family="Helvetica,sans-Serif" font-size="10.00" fill="#000000"> PkgP</text>
</g>
<!-- Node23 -->
<g id="node21" class="node">
<title>Node23</title>
<g id="a_node21"><a xlink:href="classMMap.xhtml" target="_top" xlink:title="MMap">
<polygon fill="#ffffff" stroke="#000000" points="505.5,-181.5 505.5,-200.5 550.5,-200.5 550.5,-181.5 505.5,-181.5"/>
<text text-anchor="middle" x="528" y="-188.5" font-family="Helvetica,sans-Serif" font-size="10.00" fill="#000000">MMap</text>
</a>
</g>
</g>
<!-- Node23&#45;&gt;Node6 -->
<g id="edge21" class="edge">
<title>Node23&#45;&gt;Node6</title>
<path fill="none" stroke="#9a32cd" stroke-dasharray="5,2" d="M560.7995,-188.2973C588.3237,-187.3871 627.9986,-189.3234 659,-204 693.9378,-220.5401 722.5939,-258.3951 734.7383,-276.2888"/>
<polygon fill="#9a32cd" stroke="#9a32cd" points="560.3514,-184.8146 550.5295,-188.7871 560.685,-191.8066 560.3514,-184.8146"/>
<text text-anchor="middle" x="633" y="-207" font-family="Helvetica,sans-Serif" font-size="10.00" fill="#000000"> Map</text>
</g>
<!-- Node24&#45;&gt;Node23 -->
<g id="edge22" class="edge">
<title>Node24&#45;&gt;Node23</title>
<path fill="none" stroke="#9a32cd" stroke-dasharray="5,2" d="M391.2616,-191C424.6753,-191 476.0218,-191 505.3614,-191"/>
<polygon fill="#9a32cd" stroke="#9a32cd" points="391.0938,-187.5001 381.0938,-191 391.0938,-194.5001 391.0938,-187.5001"/>
<text text-anchor="middle" x="424" y="-194" font-family="Helvetica,sans-Serif" font-size="10.00" fill="#000000"> SyncToFd</text>
</g>
</g>
</svg>
