<?xml version="1.0" encoding="UTF-8" standalone="no"?>
<!DOCTYPE svg PUBLIC "-//W3C//DTD SVG 1.1//EN"
 "http://www.w3.org/Graphics/SVG/1.1/DTD/svg11.dtd">
<!-- Generated by graphviz version 2.40.1 (20161225.0304)
 -->
<!-- Title: edspSystem Pages: 1 -->
<svg width="345pt" height="219pt"
 viewBox="0.00 0.00 345.00 219.00" xmlns="http://www.w3.org/2000/svg" xmlns:xlink="http://www.w3.org/1999/xlink">
<g id="graph0" class="graph" transform="scale(1 1) rotate(0) translate(4 215)">
<title>edspSystem</title>
<polygon fill="#ffffff" stroke="transparent" points="-4,4 -4,-215 341,-215 341,4 -4,4"/>
<!-- Node3 -->
<g id="node1" class="node">
<title>Node3</title>
<polygon fill="#bfbfbf" stroke="#000000" points="121.5,-.5 121.5,-19.5 198.5,-19.5 198.5,-.5 121.5,-.5"/>
<text text-anchor="middle" x="160" y="-7.5" font-family="Helvetica,sans-Serif" font-size="10.00" fill="#000000">edspSystem</text>
</g>
<!-- Node4 -->
<g id="node2" class="node">
<title>Node4</title>
<g id="a_node2"><a xlink:href="classedspLikeSystem.xhtml" target="_top" xlink:title="edspLikeSystem">
<polygon fill="#ffffff" stroke="#000000" points="111.5,-57.5 111.5,-76.5 208.5,-76.5 208.5,-57.5 111.5,-57.5"/>
<text text-anchor="middle" x="160" y="-64.5" font-family="Helvetica,sans-Serif" font-size="10.00" fill="#000000">edspLikeSystem</text>
</a>
</g>
</g>
<!-- Node4&#45;&gt;Node3 -->
<g id="edge1" class="edge">
<title>Node4&#45;&gt;Node3</title>
<path fill="none" stroke="#191970" d="M160,-47.2342C160,-37.8491 160,-27.0651 160,-19.5265"/>
<polygon fill="#191970" stroke="#191970" points="156.5001,-47.3307 160,-57.3307 163.5001,-47.3308 156.5001,-47.3307"/>
</g>
<!-- Node5 -->
<g id="node3" class="node">
<title>Node5</title>
<g id="a_node3"><a xlink:href="classpkgSystem.xhtml" target="_top" xlink:title="pkgSystem">
<polygon fill="#ffffff" stroke="#000000" points="25.5,-124.5 25.5,-143.5 96.5,-143.5 96.5,-124.5 25.5,-124.5"/>
<text text-anchor="middle" x="61" y="-131.5" font-family="Helvetica,sans-Serif" font-size="10.00" fill="#000000">pkgSystem</text>
</a>
</g>
</g>
<!-- Node5&#45;&gt;Node4 -->
<g id="edge2" class="edge">
<title>Node5&#45;&gt;Node4</title>
<path fill="none" stroke="#191970" d="M83.6276,-118.6864C102.7703,-105.7312 129.6066,-87.5693 145.842,-76.5817"/>
<polygon fill="#191970" stroke="#191970" points="81.5043,-115.8971 75.1843,-124.4005 85.4277,-121.6943 81.5043,-115.8971"/>
</g>
<!-- Node5&#45;&gt;Node5 -->
<g id="edge3" class="edge">
<title>Node5&#45;&gt;Node5</title>
<path fill="none" stroke="#9a32cd" stroke-dasharray="5,2" d="M106.7805,-138.9469C111.4895,-137.9732 114.5,-136.3242 114.5,-134 114.5,-130.2813 106.7932,-128.2911 96.7532,-128.0297"/>
<polygon fill="#9a32cd" stroke="#9a32cd" points="106.3461,-135.473 96.7532,-139.9703 107.0569,-142.4368 106.3461,-135.473"/>
<text text-anchor="middle" x="140.5" y="-131.5" font-family="Helvetica,sans-Serif" font-size="10.00" fill="#000000"> GlobalList</text>
</g>
<!-- Node6 -->
<g id="node4" class="node">
<title>Node6</title>
<g id="a_node4"><a xlink:href="classpkgVersioningSystem.xhtml" target="_top" xlink:title="pkgVersioningSystem">
<polygon fill="#ffffff" stroke="#000000" points="0,-191.5 0,-210.5 122,-210.5 122,-191.5 0,-191.5"/>
<text text-anchor="middle" x="61" y="-198.5" font-family="Helvetica,sans-Serif" font-size="10.00" fill="#000000">pkgVersioningSystem</text>
</a>
</g>
</g>
<!-- Node6&#45;&gt;Node5 -->
<g id="edge4" class="edge">
<title>Node6&#45;&gt;Node5</title>
<path fill="none" stroke="#9a32cd" stroke-dasharray="5,2" d="M61,-181.1079C61,-168.714 61,-153.3263 61,-143.5817"/>
<polygon fill="#9a32cd" stroke="#9a32cd" points="57.5001,-181.4005 61,-191.4005 64.5001,-181.4006 57.5001,-181.4005"/>
<text text-anchor="middle" x="69" y="-165" font-family="Helvetica,sans-Serif" font-size="10.00" fill="#000000"> VS</text>
</g>
<!-- Node6&#45;&gt;Node6 -->
<g id="edge5" class="edge">
<title>Node6&#45;&gt;Node6</title>
<path fill="none" stroke="#9a32cd" stroke-dasharray="5,2" d="M132.4863,-205.2754C137.1669,-204.2806 140,-202.8555 140,-201 140,-198.0313 132.7472,-196.1642 122.2789,-195.3988"/>
<polygon fill="#9a32cd" stroke="#9a32cd" points="131.7448,-201.8422 122.2789,-206.6012 132.6465,-208.7839 131.7448,-201.8422"/>
<text text-anchor="middle" x="166" y="-198.5" font-family="Helvetica,sans-Serif" font-size="10.00" fill="#000000"> GlobalList</text>
</g>
<!-- Node7 -->
<g id="node5" class="node">
<title>Node7</title>
<polygon fill="#ffffff" stroke="#bfbfbf" points="185,-124.5 185,-143.5 337,-143.5 337,-124.5 185,-124.5"/>
<text text-anchor="middle" x="261" y="-131.5" font-family="Helvetica,sans-Serif" font-size="10.00" fill="#000000">unique_ptr&lt; pkgIndexFile &gt;</text>
</g>
<!-- Node7&#45;&gt;Node4 -->
<g id="edge6" class="edge">
<title>Node7&#45;&gt;Node4</title>
<path fill="none" stroke="#9a32cd" stroke-dasharray="5,2" d="M238.1799,-118.8619C218.6339,-105.8957 191.0823,-87.619 174.444,-76.5817"/>
<polygon fill="#9a32cd" stroke="#9a32cd" points="236.2612,-121.7892 246.5292,-124.4005 240.1308,-115.9559 236.2612,-121.7892"/>
<text text-anchor="middle" x="242.5" y="-98" font-family="Helvetica,sans-Serif" font-size="10.00" fill="#000000"> StatusFile</text>
</g>
<!-- Node8 -->
<g id="node6" class="node">
<title>Node8</title>
<g id="a_node6"><a xlink:href="classpkgIndexFile.xhtml" target="_top" xlink:title="pkgIndexFile">
<polygon fill="#ffffff" stroke="#000000" points="222,-191.5 222,-210.5 300,-210.5 300,-191.5 222,-191.5"/>
<text text-anchor="middle" x="261" y="-198.5" font-family="Helvetica,sans-Serif" font-size="10.00" fill="#000000">pkgIndexFile</text>
</a>
</g>
</g>
<!-- Node8&#45;&gt;Node7 -->
<g id="edge7" class="edge">
<title>Node8&#45;&gt;Node7</title>
<path fill="none" stroke="#9a32cd" stroke-dasharray="5,2" d="M261,-181.1079C261,-168.714 261,-153.3263 261,-143.5817"/>
<polygon fill="#9a32cd" stroke="#9a32cd" points="257.5001,-181.4005 261,-191.4005 264.5001,-181.4006 257.5001,-181.4005"/>
<text text-anchor="middle" x="269.5" y="-165" font-family="Helvetica,sans-Serif" font-size="10.00" fill="#000000"> ptr</text>
</g>
</g>
</svg>
