<?xml version="1.0" encoding="UTF-8" standalone="no"?>
<!DOCTYPE svg PUBLIC "-//W3C//DTD SVG 1.1//EN"
 "http://www.w3.org/Graphics/SVG/1.1/DTD/svg11.dtd">
<!-- Generated by graphviz version 2.40.1 (20161225.0304)
 -->
<!-- Title: pkgAcqFile Pages: 1 -->
<!--zoomable 577 -->
<svg id="main" version="1.1" xmlns="http://www.w3.org/2000/svg" xmlns:xlink="http://www.w3.org/1999/xlink" xml:space="preserve" onload="init(evt)">
<style type="text/css"><![CDATA[
.edge:hover path { stroke: red; }
.edge:hover polygon { stroke: red; fill: red; }
]]></style>
<script type="text/javascript"><![CDATA[
var edges = document.getElementsByTagName('g');
if (edges && edges.length) {
  for (var i=0;i<edges.length;i++) {
    if (edges[i].id.substr(0,4)=='edge') {
      edges[i].setAttribute('class','edge');
    }
  }
}
]]></script>
        <defs>
                <circle id="rim" cx="0" cy="0" r="7"/>
                <circle id="rim2" cx="0" cy="0" r="3.5"/>
                <g id="zoomPlus">
                        <use xlink:href="#rim" fill="#404040">
                                <set attributeName="fill" to="#808080" begin="zoomplus.mouseover" end="zoomplus.mouseout"/>
                        </use>
                        <path d="M-4,0h8M0,-4v8" fill="none" stroke="white" stroke-width="1.5" pointer-events="none"/>
                </g>
                <g id="zoomMin">
                        <use xlink:href="#rim" fill="#404040">
                                <set attributeName="fill" to="#808080" begin="zoomminus.mouseover" end="zoomminus.mouseout"/>
                        </use>
                        <path d="M-4,0h8" fill="none" stroke="white" stroke-width="1.5" pointer-events="none"/>
                </g>
                <g id="dirArrow">
                        <path fill="none" stroke="white" stroke-width="1.5" d="M0,-3.0v7 M-2.5,-0.5L0,-3.0L2.5,-0.5"/>
                </g>
               <g id="resetDef">
                       <use xlink:href="#rim2" fill="#404040">
                               <set attributeName="fill" to="#808080" begin="reset.mouseover" end="reset.mouseout"/>
                       </use>
               </g>
        </defs>

<script type="text/javascript">
var viewWidth = 1017;
var viewHeight = 577;
var sectionId = 'dynsection-1';
</script>
<script xlink:href="svgpan.js"/>
<svg id="graph" class="graph">
<g id="viewport">
<title>pkgAcqFile</title>
<polygon fill="#ffffff" stroke="transparent" points="-4,4 -4,-573 1012.6026,-573 1012.6026,4 -4,4"/>
<!-- Node4 -->
<g id="node1" class="node">
<title>Node4</title>
<polygon fill="#bfbfbf" stroke="#000000" points="177.1026,-298 177.1026,-317 246.1026,-317 246.1026,-298 177.1026,-298"/>
<text text-anchor="middle" x="211.6026" y="-305" font-family="Helvetica,sans-Serif" font-size="10.00" fill="#000000">pkgAcqFile</text>
</g>
<!-- Node5 -->
<g id="node2" class="node">
<title>Node5</title>
<g id="a_node2"><a xlink:href="classpkgAcquire_1_1Item.xhtml" target="_top" xlink:title="Represents the process by which a pkgAcquire object should retrieve a file or a collection of files...">
<polygon fill="#ffffff" stroke="#000000" points="204.1026,-386 204.1026,-405 243.1026,-405 243.1026,-386 204.1026,-386"/>
<text text-anchor="middle" x="223.6026" y="-393" font-family="Helvetica,sans-Serif" font-size="10.00" fill="#000000">Item</text>
</a>
</g>
</g>
<!-- Node5&#45;&gt;Node4 -->
<g id="edge1" class="edge">
<title>Node5&#45;&gt;Node4</title>
<path fill="none" stroke="#191970" d="M220.9211,-375.8357C218.4259,-357.5373 214.8136,-331.047 212.9022,-317.03"/>
<polygon fill="#191970" stroke="#191970" points="217.4534,-376.3109 222.2726,-385.7462 224.3892,-375.365 217.4534,-376.3109"/>
</g>
<!-- Node8 -->
<g id="node5" class="node">
<title>Node8</title>
<polygon fill="#ffffff" stroke="#bfbfbf" points="264.1026,-292.5 264.1026,-322.5 377.1026,-322.5 377.1026,-292.5 264.1026,-292.5"/>
<text text-anchor="start" x="272.1026" y="-310.5" font-family="Helvetica,sans-Serif" font-size="10.00" fill="#000000">vector&lt; pkgAcquire</text>
<text text-anchor="middle" x="320.6026" y="-299.5" font-family="Helvetica,sans-Serif" font-size="10.00" fill="#000000">::Item *&gt;</text>
</g>
<!-- Node5&#45;&gt;Node8 -->
<g id="edge5" class="edge">
<title>Node5&#45;&gt;Node8</title>
<path fill="none" stroke="#9a32cd" stroke-dasharray="5,2" d="M241.8517,-378.9441C259.7129,-362.7401 286.6863,-338.2695 303.9708,-322.5887"/>
<polygon fill="#9a32cd" stroke="#9a32cd" points="239.4086,-376.4349 234.3539,-385.7462 244.112,-381.6193 239.4086,-376.4349"/>
<text text-anchor="middle" x="309.1026" y="-348.5" font-family="Helvetica,sans-Serif" font-size="10.00" fill="#000000"> elements</text>
</g>
<!-- Node11 -->
<g id="node8" class="node">
<title>Node11</title>
<g id="a_node8"><a xlink:href="structpkgAcquire_1_1ItemDesc.xhtml" target="_top" xlink:title="Represents a single download source from which an item should be downloaded. ">
<polygon fill="#ffffff" stroke="#000000" points="43.1026,-298 43.1026,-317 106.1026,-317 106.1026,-298 43.1026,-298"/>
<text text-anchor="middle" x="74.6026" y="-305" font-family="Helvetica,sans-Serif" font-size="10.00" fill="#000000">ItemDesc</text>
</a>
</g>
</g>
<!-- Node5&#45;&gt;Node11 -->
<g id="edge13" class="edge">
<title>Node5&#45;&gt;Node11</title>
<path fill="none" stroke="#9a32cd" stroke-dasharray="5,2" d="M193.8286,-392.8158C154.9863,-388.6326 90.2401,-379.0922 75.6026,-361 65.6694,-348.7224 68.4878,-329.1586 71.5024,-317.3998"/>
<polygon fill="#9a32cd" stroke="#9a32cd" points="193.7306,-396.3239 204.0341,-393.8563 194.4407,-389.36 193.7306,-396.3239"/>
<text text-anchor="middle" x="93.1026" y="-348.5" font-family="Helvetica,sans-Serif" font-size="10.00" fill="#000000"> Owner</text>
</g>
<!-- Node6 -->
<g id="node3" class="node">
<title>Node6</title>
<g id="a_node3"><a xlink:href="classWeakPointable.xhtml" target="_top" xlink:title="WeakPointable">
<polygon fill="#ffffff" stroke="#000000" points="131.1026,-492.5 131.1026,-511.5 220.1026,-511.5 220.1026,-492.5 131.1026,-492.5"/>
<text text-anchor="middle" x="175.6026" y="-499.5" font-family="Helvetica,sans-Serif" font-size="10.00" fill="#000000">WeakPointable</text>
</a>
</g>
</g>
<!-- Node6&#45;&gt;Node5 -->
<g id="edge2" class="edge">
<title>Node6&#45;&gt;Node5</title>
<path fill="none" stroke="#191970" d="M185.1564,-483.2469C186.6723,-480.1708 188.2012,-477.0064 189.6026,-474 201.0226,-449.5005 213.3895,-420.1598 219.5849,-405.2443"/>
<polygon fill="#191970" stroke="#191970" points="181.8834,-481.9657 180.5284,-492.4736 188.1404,-485.1042 181.8834,-481.9657"/>
</g>
<!-- Node6&#45;&gt;Node11 -->
<g id="edge10" class="edge">
<title>Node6&#45;&gt;Node11</title>
<path fill="none" stroke="#191970" d="M120.668,-498.263C84.0014,-494.5672 40.2709,-487.434 27.6026,-474 -12.9516,-430.9944 -4.7682,-390.4596 27.6026,-341 34.2972,-330.7712 45.2853,-322.6835 54.9542,-317.0192"/>
<polygon fill="#191970" stroke="#191970" points="120.5066,-501.7632 130.7908,-499.2167 121.1632,-494.7941 120.5066,-501.7632"/>
</g>
<!-- Node14 -->
<g id="node11" class="node">
<title>Node14</title>
<g id="a_node11"><a xlink:href="classpkgAcquire_1_1Worker.xhtml" target="_top" xlink:title="A fetch subprocess. ">
<polygon fill="#ffffff" stroke="#000000" points="479.1026,-68.5 479.1026,-87.5 530.1026,-87.5 530.1026,-68.5 479.1026,-68.5"/>
<text text-anchor="middle" x="504.6026" y="-75.5" font-family="Helvetica,sans-Serif" font-size="10.00" fill="#000000">Worker</text>
</a>
</g>
</g>
<!-- Node6&#45;&gt;Node14 -->
<g id="edge17" class="edge">
<title>Node6&#45;&gt;Node14</title>
<path fill="none" stroke="#191970" d="M173.5043,-482.0107C168.9719,-436.7729 159.3201,-327.7137 167.6026,-292 173.3056,-267.4091 174.9833,-259.0774 192.6026,-241 278.1272,-153.2521 421.0686,-102.9677 479.0273,-85.2889"/>
<polygon fill="#191970" stroke="#191970" points="170.0321,-482.4616 174.5323,-492.0532 176.9957,-481.7488 170.0321,-482.4616"/>
</g>
<!-- Node7 -->
<g id="node4" class="node">
<title>Node7</title>
<g id="a_node4"><a xlink:href="classpkgAcquire.xhtml" target="_top" xlink:title="The core download scheduler. {{{. ">
<polygon fill="#ffffff" stroke="#000000" points="496.1026,-203.5 496.1026,-222.5 567.1026,-222.5 567.1026,-203.5 496.1026,-203.5"/>
<text text-anchor="middle" x="531.6026" y="-210.5" font-family="Helvetica,sans-Serif" font-size="10.00" fill="#000000">pkgAcquire</text>
</a>
</g>
</g>
<!-- Node7&#45;&gt;Node5 -->
<g id="edge3" class="edge">
<title>Node7&#45;&gt;Node5</title>
<path fill="none" stroke="#9a32cd" stroke-dasharray="5,2" d="M533.0136,-232.8154C533.6088,-257.4631 530.6142,-299.1927 506.6026,-323 468.6054,-360.674 300.992,-385.4967 243.2395,-393.0593"/>
<polygon fill="#9a32cd" stroke="#9a32cd" points="536.4959,-232.3538 532.53,-222.5292 529.5036,-232.6826 536.4959,-232.3538"/>
<text text-anchor="middle" x="542.1026" y="-305" font-family="Helvetica,sans-Serif" font-size="10.00" fill="#000000"> Owner</text>
</g>
<!-- Node9 -->
<g id="node6" class="node">
<title>Node9</title>
<g id="a_node6"><a xlink:href="classpkgAcquire_1_1Queue.xhtml" target="_top" xlink:title="A single download queue in a pkgAcquire object. {{{. ">
<polygon fill="#ffffff" stroke="#000000" points="563.6026,-136.5 563.6026,-155.5 611.6026,-155.5 611.6026,-136.5 563.6026,-136.5"/>
<text text-anchor="middle" x="587.6026" y="-143.5" font-family="Helvetica,sans-Serif" font-size="10.00" fill="#000000">Queue</text>
</a>
</g>
</g>
<!-- Node7&#45;&gt;Node9 -->
<g id="edge7" class="edge">
<title>Node7&#45;&gt;Node9</title>
<path fill="none" stroke="#9a32cd" stroke-dasharray="5,2" d="M524.1804,-193.555C522.8747,-186.918 522.9268,-179.7318 526.6026,-174 534.7173,-161.3465 550.1431,-154.3356 563.4513,-150.4935"/>
<polygon fill="#9a32cd" stroke="#9a32cd" points="520.8496,-194.635 527.0242,-203.2445 527.5663,-192.6636 520.8496,-194.635"/>
<text text-anchor="middle" x="544.1026" y="-177" font-family="Helvetica,sans-Serif" font-size="10.00" fill="#000000"> Owner</text>
</g>
<!-- Node8&#45;&gt;Node7 -->
<g id="edge4" class="edge">
<title>Node8&#45;&gt;Node7</title>
<path fill="none" stroke="#9a32cd" stroke-dasharray="5,2" d="M352.7908,-287.2544C376.4404,-272.9833 409.702,-254.1472 440.6026,-241 458.3984,-233.4284 478.9356,-226.9292 495.9913,-222.1036"/>
<polygon fill="#9a32cd" stroke="#9a32cd" points="350.9382,-284.2846 344.2224,-292.479 354.5825,-290.2611 350.9382,-284.2846"/>
<text text-anchor="middle" x="456.1026" y="-255" font-family="Helvetica,sans-Serif" font-size="10.00" fill="#000000"> Items</text>
</g>
<!-- Node10 -->
<g id="node7" class="node">
<title>Node10</title>
<g id="a_node7"><a xlink:href="structpkgAcquire_1_1Queue_1_1QItem.xhtml" target="_top" xlink:title="A single item placed in this queue. ">
<polygon fill="#ffffff" stroke="#000000" points="396.1026,-.5 396.1026,-19.5 443.1026,-19.5 443.1026,-.5 396.1026,-.5"/>
<text text-anchor="middle" x="419.6026" y="-7.5" font-family="Helvetica,sans-Serif" font-size="10.00" fill="#000000">QItem</text>
</a>
</g>
</g>
<!-- Node8&#45;&gt;Node10 -->
<g id="edge14" class="edge">
<title>Node8&#45;&gt;Node10</title>
<path fill="none" stroke="#9a32cd" stroke-dasharray="5,2" d="M256.0895,-288.6395C221.7814,-274.2244 186.6026,-250.3397 186.6026,-213 186.6026,-213 186.6026,-213 186.6026,-78 186.6026,-34.7023 336.7437,-17.0997 395.9791,-11.8398"/>
<polygon fill="#9a32cd" stroke="#9a32cd" points="255.1271,-292.023 265.7131,-292.4574 257.7086,-285.5164 255.1271,-292.023"/>
<text text-anchor="middle" x="206.6026" y="-143.5" font-family="Helvetica,sans-Serif" font-size="10.00" fill="#000000"> Owners</text>
</g>
<!-- Node9&#45;&gt;Node7 -->
<g id="edge6" class="edge">
<title>Node9&#45;&gt;Node7</title>
<path fill="none" stroke="#9a32cd" stroke-dasharray="5,2" d="M578.8411,-164.7384C575.2356,-171.48 570.7033,-178.9164 565.6026,-185 559.8053,-191.9144 552.1287,-198.4036 545.5369,-203.3905"/>
<polygon fill="#9a32cd" stroke="#9a32cd" points="582.0708,-166.1055 583.4189,-155.5967 575.8117,-162.9711 582.0708,-166.1055"/>
<text text-anchor="middle" x="592.6026" y="-177" font-family="Helvetica,sans-Serif" font-size="10.00" fill="#000000"> Queues</text>
</g>
<!-- Node9&#45;&gt;Node14 -->
<g id="edge18" class="edge">
<title>Node9&#45;&gt;Node14</title>
<path fill="none" stroke="#9a32cd" stroke-dasharray="5,2" d="M579.7443,-126.8052C576.2065,-119.9079 571.4853,-112.4856 565.6026,-107 555.5687,-97.6433 541.9649,-90.7818 530.1501,-86.0891"/>
<polygon fill="#9a32cd" stroke="#9a32cd" points="576.7259,-128.6195 584.078,-136.2482 583.0879,-125.6997 576.7259,-128.6195"/>
<text text-anchor="middle" x="595.1026" y="-110" font-family="Helvetica,sans-Serif" font-size="10.00" fill="#000000"> OwnerQ</text>
</g>
<!-- Node10&#45;&gt;Node9 -->
<g id="edge8" class="edge">
<title>Node10&#45;&gt;Node9</title>
<path fill="none" stroke="#9a32cd" stroke-dasharray="5,2" d="M453.3758,-14.755C504.7456,-22.7552 598.6703,-40.6581 618.6026,-67 634.0283,-87.3861 625.6389,-107.122 620.6026,-118 617.1303,-125.5001 610.5491,-131.7245 604.1719,-136.3847"/>
<polygon fill="#9a32cd" stroke="#9a32cd" points="453.8144,-11.2816 443.4027,-13.243 452.7651,-18.2025 453.8144,-11.2816"/>
<text text-anchor="middle" x="642.1026" y="-75.5" font-family="Helvetica,sans-Serif" font-size="10.00" fill="#000000"> Items</text>
</g>
<!-- Node10&#45;&gt;Node10 -->
<g id="edge15" class="edge">
<title>Node10&#45;&gt;Node10</title>
<path fill="none" stroke="#9a32cd" stroke-dasharray="5,2" d="M453.6174,-15.294C458.1172,-14.3926 461.1026,-12.6279 461.1026,-10 461.1026,-5.6875 453.063,-3.6997 443.4846,-4.0366"/>
<polygon fill="#9a32cd" stroke="#9a32cd" points="453.2321,-11.8118 443.4846,-15.9634 453.6935,-18.7965 453.2321,-11.8118"/>
<text text-anchor="middle" x="474.6026" y="-7.5" font-family="Helvetica,sans-Serif" font-size="10.00" fill="#000000"> Next</text>
</g>
<!-- Node10&#45;&gt;Node14 -->
<g id="edge23" class="edge">
<title>Node10&#45;&gt;Node14</title>
<path fill="none" stroke="#9a32cd" stroke-dasharray="5,2" d="M413.216,-29.4542C412.2013,-36.191 412.5803,-43.4393 416.6026,-49 424.0507,-59.2965 455.826,-67.93 479.0626,-73.031"/>
<polygon fill="#9a32cd" stroke="#9a32cd" points="416.6488,-30.1509 415.6342,-19.6048 409.8507,-28.4818 416.6488,-30.1509"/>
<text text-anchor="middle" x="447.6026" y="-41" font-family="Helvetica,sans-Serif" font-size="10.00" fill="#000000"> CurrentItem</text>
</g>
<!-- Node11&#45;&gt;Node5 -->
<g id="edge36" class="edge">
<title>Node11&#45;&gt;Node5</title>
<path fill="none" stroke="#9a32cd" stroke-dasharray="5,2" d="M99.6254,-322.2786C130.3001,-340.3952 181.3989,-370.5743 207.3734,-385.9149"/>
<polygon fill="#9a32cd" stroke="#9a32cd" points="101.2022,-319.145 90.8119,-317.0732 97.6424,-325.1723 101.2022,-319.145"/>
<text text-anchor="middle" x="176.6026" y="-348.5" font-family="Helvetica,sans-Serif" font-size="10.00" fill="#000000"> Desc</text>
</g>
<!-- Node11&#45;&gt;Node10 -->
<g id="edge9" class="edge">
<title>Node11&#45;&gt;Node10</title>
<path fill="none" stroke="#191970" d="M82.4757,-288.276C89.4732,-269.4323 98.6026,-239.7263 98.6026,-213 98.6026,-213 98.6026,-213 98.6026,-78 98.6026,-24.7241 159.8161,-50.5093 211.6026,-38 277.3033,-22.1297 357.0016,-14.5573 395.9151,-11.5901"/>
<polygon fill="#191970" stroke="#191970" points="79.144,-287.1866 78.7831,-297.7753 85.6685,-289.7228 79.144,-287.1866"/>
</g>
<!-- Node12 -->
<g id="node9" class="node">
<title>Node12</title>
<g id="a_node9"><a xlink:title="STL class. ">
<polygon fill="#ffffff" stroke="#bfbfbf" points="620.6026,-492.5 620.6026,-511.5 664.6026,-511.5 664.6026,-492.5 620.6026,-492.5"/>
<text text-anchor="middle" x="642.6026" y="-499.5" font-family="Helvetica,sans-Serif" font-size="10.00" fill="#000000">string</text>
</a>
</g>
</g>
<!-- Node12&#45;&gt;Node5 -->
<g id="edge35" class="edge">
<title>Node12&#45;&gt;Node5</title>
<path fill="none" stroke="#9a32cd" stroke-dasharray="5,2" d="M610.5387,-496.9637C580.0347,-491.949 532.9407,-483.6255 492.6026,-474 398.1977,-451.4731 287.567,-416.3831 243.3324,-401.9915"/>
<polygon fill="#9a32cd" stroke="#9a32cd" points="610.1667,-500.449 620.5982,-498.5961 611.288,-493.5394 610.1667,-500.449"/>
<text text-anchor="middle" x="537.6026" y="-466" font-family="Helvetica,sans-Serif" font-size="10.00" fill="#000000"> ActiveSubprocess</text>
<text text-anchor="middle" x="537.6026" y="-455" font-family="Helvetica,sans-Serif" font-size="10.00" fill="#000000">DestFile</text>
<text text-anchor="middle" x="537.6026" y="-444" font-family="Helvetica,sans-Serif" font-size="10.00" fill="#000000">ErrorText</text>
<text text-anchor="middle" x="537.6026" y="-433" font-family="Helvetica,sans-Serif" font-size="10.00" fill="#000000">UsedMirror</text>
</g>
<!-- Node12&#45;&gt;Node7 -->
<g id="edge32" class="edge">
<title>Node12&#45;&gt;Node7</title>
<path fill="none" stroke="#9a32cd" stroke-dasharray="5,2" d="M632.8046,-483.1771C631.3345,-480.1372 629.8838,-477.0024 628.6026,-474 594.8907,-394.9995 593.0407,-372.6906 563.6026,-292 555.3125,-269.2765 553.925,-263.3199 544.6026,-241 542,-234.7687 538.8101,-227.8884 536.2415,-222.5074"/>
<polygon fill="#9a32cd" stroke="#9a32cd" points="629.7659,-484.9252 637.3843,-492.2879 636.0202,-481.7813 629.7659,-484.9252"/>
<text text-anchor="middle" x="599.6026" y="-348.5" font-family="Helvetica,sans-Serif" font-size="10.00" fill="#000000"> Lock</text>
</g>
<!-- Node12&#45;&gt;Node9 -->
<g id="edge29" class="edge">
<title>Node12&#45;&gt;Node9</title>
<path fill="none" stroke="#9a32cd" stroke-dasharray="5,2" d="M642.6026,-482.2136C642.6026,-460.8297 642.6026,-425.7485 642.6026,-395.5 642.6026,-395.5 642.6026,-395.5 642.6026,-213 642.6026,-187.8679 619.1972,-167.0133 602.9232,-155.5505"/>
<polygon fill="#9a32cd" stroke="#9a32cd" points="639.1027,-482.3084 642.6026,-492.3084 646.1027,-482.3084 639.1027,-482.3084"/>
<text text-anchor="middle" x="659.1026" y="-305" font-family="Helvetica,sans-Serif" font-size="10.00" fill="#000000"> Name</text>
</g>
<!-- Node12&#45;&gt;Node11 -->
<g id="edge11" class="edge">
<title>Node12&#45;&gt;Node11</title>
<path fill="none" stroke="#9a32cd" stroke-dasharray="5,2" d="M610.3418,-501.2759C554.059,-499.5215 434.4869,-493.6107 335.6026,-474 244.3184,-455.8965 218.7782,-453.7416 135.6026,-412 101.1993,-394.7347 83.0551,-395.3087 65.6026,-361 58.4283,-346.8965 64.5462,-328.2633 69.6001,-317.1195"/>
<polygon fill="#9a32cd" stroke="#9a32cd" points="610.3162,-504.7766 620.4128,-501.5659 610.5177,-497.7795 610.3162,-504.7766"/>
<text text-anchor="middle" x="165.1026" y="-404" font-family="Helvetica,sans-Serif" font-size="10.00" fill="#000000"> Description</text>
<text text-anchor="middle" x="165.1026" y="-393" font-family="Helvetica,sans-Serif" font-size="10.00" fill="#000000">URI</text>
<text text-anchor="middle" x="165.1026" y="-382" font-family="Helvetica,sans-Serif" font-size="10.00" fill="#000000">ShortDesc</text>
</g>
<!-- Node12&#45;&gt;Node14 -->
<g id="edge24" class="edge">
<title>Node12&#45;&gt;Node14</title>
<path fill="none" stroke="#9a32cd" stroke-dasharray="5,2" d="M675.0458,-500.1103C727.8168,-496.6651 829.6667,-488.3615 862.6026,-474 912.4956,-452.2444 956.6026,-449.9299 956.6026,-395.5 956.6026,-395.5 956.6026,-395.5 956.6026,-146 956.6026,-67.1816 861.3808,-119.7633 783.6026,-107 771.1982,-104.9645 597.2689,-87.3434 530.471,-80.6051"/>
<polygon fill="#9a32cd" stroke="#9a32cd" points="674.6355,-496.6292 664.8765,-500.7536 675.0775,-503.6152 674.6355,-496.6292"/>
<text text-anchor="middle" x="982.6026" y="-266" font-family="Helvetica,sans-Serif" font-size="10.00" fill="#000000"> OutQueue</text>
<text text-anchor="middle" x="982.6026" y="-255" font-family="Helvetica,sans-Serif" font-size="10.00" fill="#000000">Access</text>
<text text-anchor="middle" x="982.6026" y="-244" font-family="Helvetica,sans-Serif" font-size="10.00" fill="#000000">Status</text>
</g>
<!-- Node15 -->
<g id="node12" class="node">
<title>Node15</title>
<g id="a_node12"><a xlink:href="structpkgAcquire_1_1MethodConfig.xhtml" target="_top" xlink:title="Information about the properties of a single acquire method. {{{. ">
<polygon fill="#ffffff" stroke="#000000" points="694.1026,-298 694.1026,-317 777.1026,-317 777.1026,-298 694.1026,-298"/>
<text text-anchor="middle" x="735.6026" y="-305" font-family="Helvetica,sans-Serif" font-size="10.00" fill="#000000">MethodConfig</text>
</a>
</g>
</g>
<!-- Node12&#45;&gt;Node15 -->
<g id="edge21" class="edge">
<title>Node12&#45;&gt;Node15</title>
<path fill="none" stroke="#9a32cd" stroke-dasharray="5,2" d="M665.4481,-486.5339C686.8001,-470.6318 717.4497,-443.7533 731.6026,-412 745.9417,-379.8289 740.8452,-336.4049 737.5356,-317.2584"/>
<polygon fill="#9a32cd" stroke="#9a32cd" points="663.2848,-483.7788 657.2196,-492.4658 667.3783,-489.4571 663.2848,-483.7788"/>
<text text-anchor="middle" x="758.1026" y="-398.5" font-family="Helvetica,sans-Serif" font-size="10.00" fill="#000000"> Access</text>
<text text-anchor="middle" x="758.1026" y="-387.5" font-family="Helvetica,sans-Serif" font-size="10.00" fill="#000000">Version</text>
</g>
<!-- Node18 -->
<g id="node15" class="node">
<title>Node18</title>
<polygon fill="#ffffff" stroke="#bfbfbf" points="784.1026,-341.5 784.1026,-360.5 903.1026,-360.5 903.1026,-341.5 784.1026,-341.5"/>
<text text-anchor="middle" x="843.6026" y="-348.5" font-family="Helvetica,sans-Serif" font-size="10.00" fill="#000000">vector&lt; std::string &gt;</text>
</g>
<!-- Node12&#45;&gt;Node18 -->
<g id="edge27" class="edge">
<title>Node12&#45;&gt;Node18</title>
<path fill="none" stroke="#9a32cd" stroke-dasharray="5,2" d="M674.8379,-498.0891C708.1179,-493.5276 757.2812,-485.1643 772.6026,-474 813.0549,-444.5234 833.9972,-384.4525 840.9347,-360.8428"/>
<polygon fill="#9a32cd" stroke="#9a32cd" points="674.1089,-494.6549 664.6538,-499.4352 675.0262,-501.5945 674.1089,-494.6549"/>
<text text-anchor="middle" x="834.1026" y="-449.5" font-family="Helvetica,sans-Serif" font-size="10.00" fill="#000000"> elements</text>
</g>
<!-- Node13 -->
<g id="node10" class="node">
<title>Node13</title>
<g id="a_node10"><a xlink:title="STL class. ">
<polygon fill="#ffffff" stroke="#bfbfbf" points="583.1026,-549.5 583.1026,-568.5 702.1026,-568.5 702.1026,-549.5 583.1026,-549.5"/>
<text text-anchor="middle" x="642.6026" y="-556.5" font-family="Helvetica,sans-Serif" font-size="10.00" fill="#000000">basic_string&lt; char &gt;</text>
</a>
</g>
</g>
<!-- Node13&#45;&gt;Node12 -->
<g id="edge12" class="edge">
<title>Node13&#45;&gt;Node12</title>
<path fill="none" stroke="#191970" d="M642.6026,-539.2342C642.6026,-529.8491 642.6026,-519.0651 642.6026,-511.5265"/>
<polygon fill="#191970" stroke="#191970" points="639.1027,-539.3307 642.6026,-549.3307 646.1027,-539.3308 639.1027,-539.3307"/>
</g>
<!-- Node14&#45;&gt;Node7 -->
<g id="edge34" class="edge">
<title>Node14&#45;&gt;Node7</title>
<path fill="none" stroke="#9a32cd" stroke-dasharray="5,2" d="M504.7883,-97.8042C505.5386,-119.7118 508.4049,-155.7779 518.6026,-185 520.7923,-191.2747 523.9108,-198.0401 526.5445,-203.3487"/>
<polygon fill="#9a32cd" stroke="#9a32cd" points="508.2862,-97.6682 504.5611,-87.7499 501.288,-97.8264 508.2862,-97.6682"/>
<text text-anchor="middle" x="532.1026" y="-143.5" font-family="Helvetica,sans-Serif" font-size="10.00" fill="#000000"> Workers</text>
</g>
<!-- Node14&#45;&gt;Node9 -->
<g id="edge30" class="edge">
<title>Node14&#45;&gt;Node9</title>
<path fill="none" stroke="#9a32cd" stroke-dasharray="5,2" d="M507.9193,-97.532C509.9742,-104.6989 513.2844,-112.4156 518.6026,-118 530.4603,-130.4512 548.6211,-137.5224 563.3351,-141.443"/>
<polygon fill="#9a32cd" stroke="#9a32cd" points="511.3258,-96.7271 505.719,-87.7374 504.496,-98.2614 511.3258,-96.7271"/>
<text text-anchor="middle" x="540.1026" y="-110" font-family="Helvetica,sans-Serif" font-size="10.00" fill="#000000"> Workers</text>
</g>
<!-- Node14&#45;&gt;Node10 -->
<g id="edge16" class="edge">
<title>Node14&#45;&gt;Node10</title>
<path fill="none" stroke="#9a32cd" stroke-dasharray="5,2" d="M497.2911,-59.0042C493.738,-51.7037 488.8619,-43.7509 482.6026,-38 471.4972,-27.7967 456.062,-20.8543 443.2495,-16.4346"/>
<polygon fill="#9a32cd" stroke="#9a32cd" points="494.1286,-60.5086 501.3221,-68.287 500.5493,-57.7204 494.1286,-60.5086"/>
<text text-anchor="middle" x="509.6026" y="-41" font-family="Helvetica,sans-Serif" font-size="10.00" fill="#000000"> Worker</text>
</g>
<!-- Node14&#45;&gt;Node14 -->
<g id="edge28" class="edge">
<title>Node14&#45;&gt;Node14</title>
<path fill="none" stroke="#9a32cd" stroke-dasharray="5,2" d="M540.6628,-83.5393C545.1521,-82.5577 548.1026,-80.7112 548.1026,-78 548.1026,-73.5508 540.157,-71.4305 530.5043,-71.639"/>
<polygon fill="#9a32cd" stroke="#9a32cd" points="540.1896,-80.0661 530.5043,-84.361 540.754,-87.0433 540.1896,-80.0661"/>
<text text-anchor="middle" x="578.6026" y="-81" font-family="Helvetica,sans-Serif" font-size="10.00" fill="#000000"> NextQueue</text>
<text text-anchor="middle" x="578.6026" y="-70" font-family="Helvetica,sans-Serif" font-size="10.00" fill="#000000">NextAcquire</text>
</g>
<!-- Node15&#45;&gt;Node7 -->
<g id="edge31" class="edge">
<title>Node15&#45;&gt;Node7</title>
<path fill="none" stroke="#9a32cd" stroke-dasharray="5,2" d="M710.6403,-292.8018C685.7915,-278.5123 646.3105,-256.7226 610.6026,-241 594.888,-234.0807 576.8757,-227.5911 562.0227,-222.6053"/>
<polygon fill="#9a32cd" stroke="#9a32cd" points="709.0018,-295.8975 719.409,-297.8829 712.5114,-289.8409 709.0018,-295.8975"/>
<text text-anchor="middle" x="695.6026" y="-255" font-family="Helvetica,sans-Serif" font-size="10.00" fill="#000000"> Configs</text>
</g>
<!-- Node15&#45;&gt;Node14 -->
<g id="edge19" class="edge">
<title>Node15&#45;&gt;Node14</title>
<path fill="none" stroke="#9a32cd" stroke-dasharray="5,2" d="M732.926,-287.4575C730.6049,-273.8847 726.5011,-255.7987 719.6026,-241 688.3178,-173.8873 682.1415,-148.1804 620.6026,-107 605.9382,-97.1869 559.5964,-87.6184 530.1154,-82.2971"/>
<polygon fill="#9a32cd" stroke="#9a32cd" points="729.5092,-288.2688 734.4786,-297.6259 736.429,-287.2122 729.5092,-288.2688"/>
<text text-anchor="middle" x="709.6026" y="-177" font-family="Helvetica,sans-Serif" font-size="10.00" fill="#000000"> Config</text>
</g>
<!-- Node15&#45;&gt;Node15 -->
<g id="edge20" class="edge">
<title>Node15&#45;&gt;Node15</title>
<path fill="none" stroke="#9a32cd" stroke-dasharray="5,2" d="M787.4217,-313.7581C792.1368,-312.4571 795.1026,-310.3711 795.1026,-307.5 795.1026,-302.9063 787.5102,-300.3223 777.3078,-299.748"/>
<polygon fill="#9a32cd" stroke="#9a32cd" points="786.689,-310.3282 777.3078,-315.252 787.7119,-317.2531 786.689,-310.3282"/>
<text text-anchor="middle" x="808.6026" y="-305" font-family="Helvetica,sans-Serif" font-size="10.00" fill="#000000"> Next</text>
</g>
<!-- Node16 -->
<g id="node13" class="node">
<title>Node16</title>
<g id="a_node13"><a xlink:href="classpkgAcquire_1_1MethodConfig_1_1Private.xhtml" target="_top" xlink:title="Private">
<polygon fill="#ffffff" stroke="#000000" points="671.1026,-386 671.1026,-405 722.1026,-405 722.1026,-386 671.1026,-386"/>
<text text-anchor="middle" x="696.6026" y="-393" font-family="Helvetica,sans-Serif" font-size="10.00" fill="#000000">Private</text>
</a>
</g>
</g>
<!-- Node16&#45;&gt;Node15 -->
<g id="edge22" class="edge">
<title>Node16&#45;&gt;Node15</title>
<path fill="none" stroke="#9a32cd" stroke-dasharray="5,2" d="M705.09,-376.349C713.206,-358.0359 725.1087,-331.1786 731.3791,-317.03"/>
<polygon fill="#9a32cd" stroke="#9a32cd" points="701.7773,-375.1857 700.9253,-385.7462 708.177,-378.022 701.7773,-375.1857"/>
<text text-anchor="middle" x="725.6026" y="-348.5" font-family="Helvetica,sans-Serif" font-size="10.00" fill="#000000"> d</text>
</g>
<!-- Node17 -->
<g id="node14" class="node">
<title>Node17</title>
<g id="a_node14"><a xlink:href="classpkgAcquireStatus.xhtml" target="_top" xlink:title="A monitor object for downloads controlled by the pkgAcquire class. {{{. ">
<polygon fill="#ffffff" stroke="#000000" points="395.6026,-298 395.6026,-317 497.6026,-317 497.6026,-298 395.6026,-298"/>
<text text-anchor="middle" x="446.6026" y="-305" font-family="Helvetica,sans-Serif" font-size="10.00" fill="#000000">pkgAcquireStatus</text>
</a>
</g>
</g>
<!-- Node17&#45;&gt;Node7 -->
<g id="edge33" class="edge">
<title>Node17&#45;&gt;Node7</title>
<path fill="none" stroke="#9a32cd" stroke-dasharray="5,2" d="M462.44,-289.9055C466.8146,-284.8595 471.4876,-279.29 475.6026,-274 486.5792,-259.889 486.5753,-254.2268 498.6026,-241 504.6684,-234.3292 512.2985,-227.76 518.6936,-222.6628"/>
<polygon fill="#9a32cd" stroke="#9a32cd" points="459.5008,-287.9467 455.5108,-297.7615 464.7506,-292.5771 459.5008,-287.9467"/>
<text text-anchor="middle" x="509.1026" y="-255" font-family="Helvetica,sans-Serif" font-size="10.00" fill="#000000"> Log</text>
</g>
<!-- Node17&#45;&gt;Node14 -->
<g id="edge25" class="edge">
<title>Node17&#45;&gt;Node14</title>
<path fill="none" stroke="#9a32cd" stroke-dasharray="5,2" d="M432.0159,-289.4095C428.9737,-284.6622 426.206,-279.3623 424.6026,-274 420.401,-259.948 421.2857,-255.2867 424.6026,-241 439.1461,-178.3588 481.3117,-112.0454 497.8414,-87.6902"/>
<polygon fill="#9a32cd" stroke="#9a32cd" points="429.3037,-291.6338 437.97,-297.7286 434.996,-287.5597 429.3037,-291.6338"/>
<text text-anchor="middle" x="459.1026" y="-177" font-family="Helvetica,sans-Serif" font-size="10.00" fill="#000000"> Log</text>
</g>
<!-- Node18&#45;&gt;Node14 -->
<g id="edge26" class="edge">
<title>Node18&#45;&gt;Node14</title>
<path fill="none" stroke="#9a32cd" stroke-dasharray="5,2" d="M845.9236,-331.4235C847.9613,-312.5281 850.6026,-283.0979 850.6026,-257.5 850.6026,-257.5 850.6026,-257.5 850.6026,-146 850.6026,-113.3629 610.5125,-87.9144 530.3262,-80.3251"/>
<polygon fill="#9a32cd" stroke="#9a32cd" points="842.4345,-331.1314 844.7901,-341.461 849.3903,-331.917 842.4345,-331.1314"/>
<text text-anchor="middle" x="889.6026" y="-210.5" font-family="Helvetica,sans-Serif" font-size="10.00" fill="#000000"> MessageQueue</text>
</g>
</g>
</svg>
        <g id="navigator" transform="translate(0 0)" fill="#404254">
                <rect fill="#f2f5e9" fill-opacity="0.5" stroke="#606060" stroke-width=".5" x="0" y="0" width="60" height="60"/>
                <use id="zoomplus" xlink:href="#zoomPlus" x="17" y="9" onmousedown="handleZoom(evt,'in')"/>
                <use id="zoomminus" xlink:href="#zoomMin" x="42" y="9" onmousedown="handleZoom(evt,'out')"/>
                <use id="reset" xlink:href="#resetDef" x="30" y="36" onmousedown="handleReset()"/>
                <g id="arrowUp" xlink:href="#dirArrow" transform="translate(30 24)" onmousedown="handlePan(0,-1)">
                  <use xlink:href="#rim" fill="#404040">
                        <set attributeName="fill" to="#808080" begin="arrowUp.mouseover" end="arrowUp.mouseout"/>
                  </use>
                  <path fill="none" stroke="white" stroke-width="1.5" d="M0,-3.0v7 M-2.5,-0.5L0,-3.0L2.5,-0.5"/>
                </g>
                <g id="arrowRight" xlink:href="#dirArrow" transform="rotate(90) translate(36 -43)" onmousedown="handlePan(1,0)">
                  <use xlink:href="#rim" fill="#404040">
                        <set attributeName="fill" to="#808080" begin="arrowRight.mouseover" end="arrowRight.mouseout"/>
                  </use>
                  <path fill="none" stroke="white" stroke-width="1.5" d="M0,-3.0v7 M-2.5,-0.5L0,-3.0L2.5,-0.5"/>
                </g>
                <g id="arrowDown" xlink:href="#dirArrow" transform="rotate(180) translate(-30 -48)" onmousedown="handlePan(0,1)">
                  <use xlink:href="#rim" fill="#404040">
                        <set attributeName="fill" to="#808080" begin="arrowDown.mouseover" end="arrowDown.mouseout"/>
                  </use>
                  <path fill="none" stroke="white" stroke-width="1.5" d="M0,-3.0v7 M-2.5,-0.5L0,-3.0L2.5,-0.5"/>
                </g>
                <g id="arrowLeft" xlink:href="#dirArrow" transform="rotate(270) translate(-36 17)" onmousedown="handlePan(-1,0)">
                  <use xlink:href="#rim" fill="#404040">
                        <set attributeName="fill" to="#808080" begin="arrowLeft.mouseover" end="arrowLeft.mouseout"/>
                  </use>
                  <path fill="none" stroke="white" stroke-width="1.5" d="M0,-3.0v7 M-2.5,-0.5L0,-3.0L2.5,-0.5"/>
                </g>
        </g>
        <svg viewBox="0 0 15 15" width="100%" height="30px" preserveAspectRatio="xMaxYMin meet">
         <g id="arrow_out" transform="scale(0.3 0.3)">
          <a xlink:href="classpkgAcqFile__coll__graph_org.svg" target="_base">
           <rect id="button" ry="5" rx="5" y="6" x="6" height="38" width="38"
                fill="#f2f5e9" fill-opacity="0.5" stroke="#606060" stroke-width="1.0"/>
           <path id="arrow"
             d="M 11.500037,31.436501 C 11.940474,20.09759 22.043105,11.32322 32.158766,21.979434 L 37.068811,17.246167 C 37.068811,17.246167 37.088388,32 37.088388,32 L 22.160133,31.978069 C 22.160133,31.978069 26.997745,27.140456 26.997745,27.140456 C 18.528582,18.264221 13.291696,25.230495 11.500037,31.436501 z"
             style="fill:#404040;"/>
          </a>
         </g>
        </svg>
</svg>
