<?xml version="1.0" encoding="UTF-8" standalone="no"?>
<!DOCTYPE svg PUBLIC "-//W3C//DTD SVG 1.1//EN"
 "http://www.w3.org/Graphics/SVG/1.1/DTD/svg11.dtd">
<!-- Generated by graphviz version 2.40.1 (20161225.0304)
 -->
<!-- Title: pkgCache::PkgFileIterator Pages: 1 -->
<svg width="1211pt" height="656pt"
 viewBox="0.00 0.00 1211.00 655.50" xmlns="http://www.w3.org/2000/svg" xmlns:xlink="http://www.w3.org/1999/xlink">
<g id="graph0" class="graph" transform="scale(1 1) rotate(0) translate(4 651.5)">
<title>pkgCache::PkgFileIterator</title>
<polygon fill="#ffffff" stroke="transparent" points="-4,4 -4,-651.5 1207,-651.5 1207,4 -4,4"/>
<!-- Node3 -->
<g id="node1" class="node">
<title>Node3</title>
<polygon fill="#bfbfbf" stroke="#000000" points="1062,-577.5 1062,-596.5 1203,-596.5 1203,-577.5 1062,-577.5"/>
<text text-anchor="middle" x="1132.5" y="-584.5" font-family="Helvetica,sans-Serif" font-size="10.00" fill="#000000">pkgCache::PkgFileIterator</text>
</g>
<!-- Node4 -->
<g id="node2" class="node">
<title>Node4</title>
<g id="a_node2"><a xlink:href="classpkgCache_1_1Iterator.xhtml" target="_top" xlink:title="Iterator\&lt; PackageFile,\l PkgFileIterator \&gt;">
<polygon fill="#ffffff" stroke="#000000" points="901,-572 901,-602 1025,-602 1025,-572 901,-572"/>
<text text-anchor="start" x="909" y="-590" font-family="Helvetica,sans-Serif" font-size="10.00" fill="#000000">Iterator&lt; PackageFile,</text>
<text text-anchor="middle" x="963" y="-579" font-family="Helvetica,sans-Serif" font-size="10.00" fill="#000000"> PkgFileIterator &gt;</text>
</a>
</g>
</g>
<!-- Node4&#45;&gt;Node3 -->
<g id="edge1" class="edge">
<title>Node4&#45;&gt;Node3</title>
<path fill="none" stroke="#191970" d="M1035.327,-587C1044.0841,-587 1053.0221,-587 1061.756,-587"/>
<polygon fill="#191970" stroke="#191970" points="1035.1531,-583.5001 1025.1531,-587 1035.153,-590.5001 1035.1531,-583.5001"/>
</g>
<!-- Node5 -->
<g id="node3" class="node">
<title>Node5</title>
<polygon fill="#ffffff" stroke="#bfbfbf" points="677,-617 677,-647 830,-647 830,-617 677,-617"/>
<text text-anchor="start" x="685" y="-635" font-family="Helvetica,sans-Serif" font-size="10.00" fill="#000000">iterator&lt; std::forward</text>
<text text-anchor="middle" x="753.5" y="-624" font-family="Helvetica,sans-Serif" font-size="10.00" fill="#000000">_iterator_tag, PackageFile &gt;</text>
</g>
<!-- Node5&#45;&gt;Node4 -->
<g id="edge2" class="edge">
<title>Node5&#45;&gt;Node4</title>
<path fill="none" stroke="#191970" d="M833.3456,-614.8494C855.6758,-610.0529 879.6089,-604.9122 900.7579,-600.3694"/>
<polygon fill="#191970" stroke="#191970" points="832.5937,-611.431 823.5517,-616.9531 834.0638,-618.2749 832.5937,-611.431"/>
</g>
<!-- Node6 -->
<g id="node4" class="node">
<title>Node6</title>
<g id="a_node4"><a xlink:href="classpkgCache.xhtml" target="_top" xlink:title="pkgCache">
<polygon fill="#ffffff" stroke="#000000" points="721,-312.5 721,-331.5 786,-331.5 786,-312.5 721,-312.5"/>
<text text-anchor="middle" x="753.5" y="-319.5" font-family="Helvetica,sans-Serif" font-size="10.00" fill="#000000">pkgCache</text>
</a>
</g>
</g>
<!-- Node6&#45;&gt;Node4 -->
<g id="edge3" class="edge">
<title>Node6&#45;&gt;Node4</title>
<path fill="none" stroke="#9a32cd" stroke-dasharray="5,2" d="M767.6328,-339.8768C806.5583,-389.1143 914.838,-526.0791 951.0387,-571.87"/>
<polygon fill="#9a32cd" stroke="#9a32cd" points="770.1521,-337.4198 761.2047,-331.7458 764.6608,-341.7611 770.1521,-337.4198"/>
<text text-anchor="middle" x="865.5" y="-481" font-family="Helvetica,sans-Serif" font-size="10.00" fill="#000000"> Owner</text>
</g>
<!-- Node7 -->
<g id="node5" class="node">
<title>Node7</title>
<g id="a_node5"><a xlink:href="structpkgCache_1_1DependencyData.xhtml" target="_top" xlink:title="information for a single dependency record ">
<polygon fill="#ffffff" stroke="#000000" points="477.5,-523.5 477.5,-542.5 578.5,-542.5 578.5,-523.5 477.5,-523.5"/>
<text text-anchor="middle" x="528" y="-530.5" font-family="Helvetica,sans-Serif" font-size="10.00" fill="#000000">DependencyData</text>
</a>
</g>
</g>
<!-- Node7&#45;&gt;Node6 -->
<g id="edge4" class="edge">
<title>Node7&#45;&gt;Node6</title>
<path fill="none" stroke="#9a32cd" stroke-dasharray="5,2" d="M588.5224,-522.2349C612.5369,-515.5637 639.1109,-504.9043 659,-488 712.0636,-442.8996 741.66,-360.0885 750.5829,-331.7845"/>
<polygon fill="#9a32cd" stroke="#9a32cd" points="587.5641,-518.8676 578.7664,-524.7711 589.3253,-525.6425 587.5641,-518.8676"/>
<text text-anchor="middle" x="633" y="-518" font-family="Helvetica,sans-Serif" font-size="10.00" fill="#000000"> DepDataP</text>
</g>
<!-- Node8 -->
<g id="node6" class="node">
<title>Node8</title>
<g id="a_node6"><a xlink:href="structpkgCache_1_1Dependency.xhtml" target="_top" xlink:title="Dependency">
<polygon fill="#ffffff" stroke="#000000" points="489.5,-485.5 489.5,-504.5 566.5,-504.5 566.5,-485.5 489.5,-485.5"/>
<text text-anchor="middle" x="528" y="-492.5" font-family="Helvetica,sans-Serif" font-size="10.00" fill="#000000">Dependency</text>
</a>
</g>
</g>
<!-- Node8&#45;&gt;Node6 -->
<g id="edge5" class="edge">
<title>Node8&#45;&gt;Node6</title>
<path fill="none" stroke="#9a32cd" stroke-dasharray="5,2" d="M576.4232,-484.4644C602.8044,-476.9602 634.8886,-464.7999 659,-446 702.1174,-412.381 736.0277,-354.6122 748.4151,-331.7368"/>
<polygon fill="#9a32cd" stroke="#9a32cd" points="575.359,-481.1264 566.6201,-487.1166 577.1872,-487.8834 575.359,-481.1264"/>
<text text-anchor="middle" x="633" y="-476" font-family="Helvetica,sans-Serif" font-size="10.00" fill="#000000"> DepP</text>
</g>
<!-- Node9 -->
<g id="node7" class="node">
<title>Node9</title>
<g id="a_node7"><a xlink:href="structpkgCache_1_1Description.xhtml" target="_top" xlink:title="datamember of a linked list of available description for a version ">
<polygon fill="#ffffff" stroke="#000000" points="492,-409.5 492,-428.5 564,-428.5 564,-409.5 492,-409.5"/>
<text text-anchor="middle" x="528" y="-416.5" font-family="Helvetica,sans-Serif" font-size="10.00" fill="#000000">Description</text>
</a>
</g>
</g>
<!-- Node9&#45;&gt;Node6 -->
<g id="edge6" class="edge">
<title>Node9&#45;&gt;Node6</title>
<path fill="none" stroke="#9a32cd" stroke-dasharray="5,2" d="M568.7763,-406.3953C575.5369,-404.2779 582.4699,-402.0896 589,-400 620.1894,-390.0193 629.1291,-390.421 659,-377 688.7822,-363.6188 721.2034,-343.3907 739.2732,-331.5567"/>
<polygon fill="#9a32cd" stroke="#9a32cd" points="567.5648,-403.1068 559.0616,-409.4271 569.6502,-409.789 567.5648,-403.1068"/>
<text text-anchor="middle" x="633" y="-397" font-family="Helvetica,sans-Serif" font-size="10.00" fill="#000000"> DescP</text>
</g>
<!-- Node10 -->
<g id="node8" class="node">
<title>Node10</title>
<g id="a_node8"><a xlink:href="structpkgCache_1_1Header.xhtml" target="_top" xlink:title="Header">
<polygon fill="#ffffff" stroke="#000000" points="502,-371.5 502,-390.5 554,-390.5 554,-371.5 502,-371.5"/>
<text text-anchor="middle" x="528" y="-378.5" font-family="Helvetica,sans-Serif" font-size="10.00" fill="#000000">Header</text>
</a>
</g>
</g>
<!-- Node10&#45;&gt;Node6 -->
<g id="edge7" class="edge">
<title>Node10&#45;&gt;Node6</title>
<path fill="none" stroke="#9a32cd" stroke-dasharray="5,2" d="M564.1375,-373.0177C590.5205,-367.0518 627.0995,-358.4934 659,-350 680.4958,-344.2768 704.529,-337.1458 722.9793,-331.5126"/>
<polygon fill="#9a32cd" stroke="#9a32cd" points="563.1938,-369.6424 554.2047,-375.2502 564.7289,-376.472 563.1938,-369.6424"/>
<text text-anchor="middle" x="633" y="-365" font-family="Helvetica,sans-Serif" font-size="10.00" fill="#000000"> HeaderP</text>
</g>
<!-- Node11 -->
<g id="node9" class="node">
<title>Node11</title>
<g id="a_node9"><a xlink:href="structDynamicMMap_1_1Pool.xhtml" target="_top" xlink:title="Pool">
<polygon fill="#ffffff" stroke="#000000" points="340,-371.5 340,-390.5 378,-390.5 378,-371.5 340,-371.5"/>
<text text-anchor="middle" x="359" y="-378.5" font-family="Helvetica,sans-Serif" font-size="10.00" fill="#000000">Pool</text>
</a>
</g>
</g>
<!-- Node11&#45;&gt;Node10 -->
<g id="edge8" class="edge">
<title>Node11&#45;&gt;Node10</title>
<path fill="none" stroke="#9a32cd" stroke-dasharray="5,2" d="M388.1285,-381C420.1301,-381 471.0611,-381 501.8334,-381"/>
<polygon fill="#9a32cd" stroke="#9a32cd" points="388.058,-377.5001 378.0579,-381 388.0579,-384.5001 388.058,-377.5001"/>
<text text-anchor="middle" x="424" y="-384" font-family="Helvetica,sans-Serif" font-size="10.00" fill="#000000"> Pools</text>
</g>
<!-- Node12 -->
<g id="node10" class="node">
<title>Node12</title>
<g id="a_node10"><a xlink:href="structpkgCache_1_1PackageFile.xhtml" target="_top" xlink:title="stores information about the files used to generate the cache ">
<polygon fill="#ffffff" stroke="#000000" points="491,-569.5 491,-588.5 565,-588.5 565,-569.5 491,-569.5"/>
<text text-anchor="middle" x="528" y="-576.5" font-family="Helvetica,sans-Serif" font-size="10.00" fill="#000000">PackageFile</text>
</a>
</g>
</g>
<!-- Node12&#45;&gt;Node4 -->
<g id="edge24" class="edge">
<title>Node12&#45;&gt;Node4</title>
<path fill="none" stroke="#9a32cd" stroke-dasharray="5,2" d="M575.2251,-579.8685C654.1705,-581.3204 812.9236,-584.24 900.8449,-585.8569"/>
<polygon fill="#9a32cd" stroke="#9a32cd" points="575.1506,-576.3666 565.0879,-579.6821 575.0218,-583.3655 575.1506,-576.3666"/>
<text text-anchor="middle" x="753.5" y="-587" font-family="Helvetica,sans-Serif" font-size="10.00" fill="#000000"> S</text>
</g>
<!-- Node12&#45;&gt;Node6 -->
<g id="edge9" class="edge">
<title>Node12&#45;&gt;Node6</title>
<path fill="none" stroke="#9a32cd" stroke-dasharray="5,2" d="M574.8972,-570.8063C602.2616,-563.9326 635.8431,-551.6223 659,-530 721.3292,-471.8013 745.6192,-364.648 751.8009,-331.8183"/>
<polygon fill="#9a32cd" stroke="#9a32cd" points="574.063,-567.4068 565.1277,-573.0998 575.6629,-574.2216 574.063,-567.4068"/>
<text text-anchor="middle" x="633" y="-563" font-family="Helvetica,sans-Serif" font-size="10.00" fill="#000000"> PkgFileP</text>
</g>
<!-- Node13 -->
<g id="node11" class="node">
<title>Node13</title>
<g id="a_node11"><a xlink:href="structpkgCache_1_1ReleaseFile.xhtml" target="_top" xlink:title="stores information about the release files used to generate the cache ">
<polygon fill="#ffffff" stroke="#000000" points="492.5,-295.5 492.5,-314.5 563.5,-314.5 563.5,-295.5 492.5,-295.5"/>
<text text-anchor="middle" x="528" y="-302.5" font-family="Helvetica,sans-Serif" font-size="10.00" fill="#000000">ReleaseFile</text>
</a>
</g>
</g>
<!-- Node13&#45;&gt;Node6 -->
<g id="edge10" class="edge">
<title>Node13&#45;&gt;Node6</title>
<path fill="none" stroke="#9a32cd" stroke-dasharray="5,2" d="M573.6626,-304.6572C598.8691,-304.8168 630.7106,-305.59 659,-308 679.6568,-309.7598 702.6715,-313.1389 720.8165,-316.1364"/>
<polygon fill="#9a32cd" stroke="#9a32cd" points="573.6601,-301.1573 563.6484,-304.6236 573.6365,-308.1573 573.6601,-301.1573"/>
<text text-anchor="middle" x="633" y="-311" font-family="Helvetica,sans-Serif" font-size="10.00" fill="#000000"> RlsFileP</text>
</g>
<!-- Node14 -->
<g id="node12" class="node">
<title>Node14</title>
<g id="a_node12"><a xlink:href="structpkgCache_1_1DescFile.xhtml" target="_top" xlink:title="associates a description with a Translation file ">
<polygon fill="#ffffff" stroke="#000000" points="499.5,-257.5 499.5,-276.5 556.5,-276.5 556.5,-257.5 499.5,-257.5"/>
<text text-anchor="middle" x="528" y="-264.5" font-family="Helvetica,sans-Serif" font-size="10.00" fill="#000000">DescFile</text>
</a>
</g>
</g>
<!-- Node14&#45;&gt;Node6 -->
<g id="edge11" class="edge">
<title>Node14&#45;&gt;Node6</title>
<path fill="none" stroke="#9a32cd" stroke-dasharray="5,2" d="M566.5754,-272.1888C592.8446,-276.108 628.288,-282.1529 659,-290 682.9986,-296.1318 709.6728,-305.3981 728.5453,-312.3837"/>
<polygon fill="#9a32cd" stroke="#9a32cd" points="567.0316,-268.7184 556.6317,-270.7412 566.0231,-275.6454 567.0316,-268.7184"/>
<text text-anchor="middle" x="633" y="-293" font-family="Helvetica,sans-Serif" font-size="10.00" fill="#000000"> DescFileP</text>
</g>
<!-- Node15 -->
<g id="node13" class="node">
<title>Node15</title>
<g id="a_node13"><a xlink:href="structpkgCache_1_1Provides.xhtml" target="_top" xlink:title="handles virtual packages ">
<polygon fill="#ffffff" stroke="#000000" points="498.5,-219.5 498.5,-238.5 557.5,-238.5 557.5,-219.5 498.5,-219.5"/>
<text text-anchor="middle" x="528" y="-226.5" font-family="Helvetica,sans-Serif" font-size="10.00" fill="#000000">Provides</text>
</a>
</g>
</g>
<!-- Node15&#45;&gt;Node6 -->
<g id="edge12" class="edge">
<title>Node15&#45;&gt;Node6</title>
<path fill="none" stroke="#9a32cd" stroke-dasharray="5,2" d="M567.7469,-236.4812C594.2472,-242.2217 629.4989,-251.3258 659,-264 690.1287,-277.3734 723.1214,-299.7725 740.702,-312.4658"/>
<polygon fill="#9a32cd" stroke="#9a32cd" points="568.1958,-232.9993 557.6903,-234.3725 566.7592,-239.8503 568.1958,-232.9993"/>
<text text-anchor="middle" x="633" y="-267" font-family="Helvetica,sans-Serif" font-size="10.00" fill="#000000"> ProvideP</text>
</g>
<!-- Node16 -->
<g id="node14" class="node">
<title>Node16</title>
<g id="a_node14"><a xlink:title="STL class. ">
<polygon fill="#ffffff" stroke="#bfbfbf" points="156,-197.5 156,-216.5 200,-216.5 200,-197.5 156,-197.5"/>
<text text-anchor="middle" x="178" y="-204.5" font-family="Helvetica,sans-Serif" font-size="10.00" fill="#000000">string</text>
</a>
</g>
</g>
<!-- Node16&#45;&gt;Node6 -->
<g id="edge13" class="edge">
<title>Node16&#45;&gt;Node6</title>
<path fill="none" stroke="#9a32cd" stroke-dasharray="5,2" d="M210.1509,-202.7261C280.0837,-194.4052 450.8376,-179.3886 589,-210 658.1506,-225.3211 722.0379,-287.9246 744.7486,-312.2601"/>
<polygon fill="#9a32cd" stroke="#9a32cd" points="209.6953,-199.2557 200.196,-203.9476 210.5479,-206.2036 209.6953,-199.2557"/>
<text text-anchor="middle" x="424" y="-195" font-family="Helvetica,sans-Serif" font-size="10.00" fill="#000000"> CacheFile</text>
</g>
<!-- Node24 -->
<g id="node22" class="node">
<title>Node24</title>
<g id="a_node22"><a xlink:href="classFileFd.xhtml" target="_top" xlink:title="FileFd">
<polygon fill="#ffffff" stroke="#000000" points="337,-276.5 337,-295.5 381,-295.5 381,-276.5 337,-276.5"/>
<text text-anchor="middle" x="359" y="-283.5" font-family="Helvetica,sans-Serif" font-size="10.00" fill="#000000">FileFd</text>
</a>
</g>
</g>
<!-- Node16&#45;&gt;Node24 -->
<g id="edge23" class="edge">
<title>Node16&#45;&gt;Node24</title>
<path fill="none" stroke="#9a32cd" stroke-dasharray="5,2" d="M209.0209,-220.5395C245.4968,-236.4599 305.1098,-262.4789 337.0897,-276.437"/>
<polygon fill="#9a32cd" stroke="#9a32cd" points="210.398,-217.3218 199.8328,-216.5292 207.5978,-223.7373 210.398,-217.3218"/>
<text text-anchor="middle" x="268.5" y="-280" font-family="Helvetica,sans-Serif" font-size="10.00" fill="#000000"> TemporaryFileName</text>
<text text-anchor="middle" x="268.5" y="-269" font-family="Helvetica,sans-Serif" font-size="10.00" fill="#000000">FileName</text>
</g>
<!-- Node17 -->
<g id="node15" class="node">
<title>Node17</title>
<g id="a_node15"><a xlink:title="STL class. ">
<polygon fill="#ffffff" stroke="#bfbfbf" points="0,-197.5 0,-216.5 119,-216.5 119,-197.5 0,-197.5"/>
<text text-anchor="middle" x="59.5" y="-204.5" font-family="Helvetica,sans-Serif" font-size="10.00" fill="#000000">basic_string&lt; char &gt;</text>
</a>
</g>
</g>
<!-- Node17&#45;&gt;Node16 -->
<g id="edge14" class="edge">
<title>Node17&#45;&gt;Node16</title>
<path fill="none" stroke="#191970" d="M129.2118,-207C138.8284,-207 148.0652,-207 155.8653,-207"/>
<polygon fill="#191970" stroke="#191970" points="129.0972,-203.5001 119.0972,-207 129.0971,-210.5001 129.0972,-203.5001"/>
</g>
<!-- Node18 -->
<g id="node16" class="node">
<title>Node18</title>
<g id="a_node16"><a xlink:href="structpkgCache_1_1Group.xhtml" target="_top" xlink:title="groups architecture depending packages together ">
<polygon fill="#ffffff" stroke="#000000" points="505,-143.5 505,-162.5 551,-162.5 551,-143.5 505,-143.5"/>
<text text-anchor="middle" x="528" y="-150.5" font-family="Helvetica,sans-Serif" font-size="10.00" fill="#000000">Group</text>
</a>
</g>
</g>
<!-- Node18&#45;&gt;Node6 -->
<g id="edge15" class="edge">
<title>Node18&#45;&gt;Node6</title>
<path fill="none" stroke="#9a32cd" stroke-dasharray="5,2" d="M561.4469,-148.4672C589.6134,-146.383 629.8569,-147.6259 659,-166 715.25,-201.4644 742.8051,-283.7194 750.8915,-312.1347"/>
<polygon fill="#9a32cd" stroke="#9a32cd" points="560.9293,-144.9999 551.2915,-149.4001 561.5697,-151.9706 560.9293,-144.9999"/>
<text text-anchor="middle" x="633" y="-169" font-family="Helvetica,sans-Serif" font-size="10.00" fill="#000000"> GrpP</text>
</g>
<!-- Node19 -->
<g id="node17" class="node">
<title>Node19</title>
<g id="a_node17"><a xlink:href="classpkgVersioningSystem.xhtml" target="_top" xlink:title="pkgVersioningSystem">
<polygon fill="#ffffff" stroke="#000000" points="467,-76.5 467,-95.5 589,-95.5 589,-76.5 467,-76.5"/>
<text text-anchor="middle" x="528" y="-83.5" font-family="Helvetica,sans-Serif" font-size="10.00" fill="#000000">pkgVersioningSystem</text>
</a>
</g>
</g>
<!-- Node19&#45;&gt;Node6 -->
<g id="edge16" class="edge">
<title>Node19&#45;&gt;Node6</title>
<path fill="none" stroke="#9a32cd" stroke-dasharray="5,2" d="M589.6632,-98.2796C613.4851,-105.4903 639.6138,-116.7164 659,-134 717.079,-185.7798 743.931,-281.5427 751.313,-312.2521"/>
<polygon fill="#9a32cd" stroke="#9a32cd" points="590.548,-94.8925 579.9719,-95.5225 588.6325,-101.6253 590.548,-94.8925"/>
<text text-anchor="middle" x="633" y="-137" font-family="Helvetica,sans-Serif" font-size="10.00" fill="#000000"> VS</text>
</g>
<!-- Node19&#45;&gt;Node19 -->
<g id="edge17" class="edge">
<title>Node19&#45;&gt;Node19</title>
<path fill="none" stroke="#9a32cd" stroke-dasharray="5,2" d="M508.7417,-105.4C510.0278,-110.3146 516.4473,-114 528,-114 546.4844,-114 551.8275,-104.5653 544.0294,-95.7571"/>
<polygon fill="#9a32cd" stroke="#9a32cd" points="512.1142,-106.3509 511.9706,-95.7571 505.4765,-104.1283 512.1142,-106.3509"/>
<text text-anchor="middle" x="528" y="-117" font-family="Helvetica,sans-Serif" font-size="10.00" fill="#000000"> GlobalList</text>
</g>
<!-- Node20 -->
<g id="node18" class="node">
<title>Node20</title>
<g id="a_node18"><a xlink:href="structpkgCache_1_1Version.xhtml" target="_top" xlink:title="information for a single version of a package ">
<polygon fill="#ffffff" stroke="#000000" points="501.5,-38.5 501.5,-57.5 554.5,-57.5 554.5,-38.5 501.5,-38.5"/>
<text text-anchor="middle" x="528" y="-45.5" font-family="Helvetica,sans-Serif" font-size="10.00" fill="#000000">Version</text>
</a>
</g>
</g>
<!-- Node20&#45;&gt;Node6 -->
<g id="edge18" class="edge">
<title>Node20&#45;&gt;Node6</title>
<path fill="none" stroke="#9a32cd" stroke-dasharray="5,2" d="M564.8267,-51.2971C593.7315,-55.7009 633.2592,-65.9852 659,-90 728.3248,-154.6766 748.1083,-277.4377 752.454,-312.4573"/>
<polygon fill="#9a32cd" stroke="#9a32cd" points="565.0827,-47.7999 554.7034,-49.9262 564.1433,-54.7366 565.0827,-47.7999"/>
<text text-anchor="middle" x="633" y="-93" font-family="Helvetica,sans-Serif" font-size="10.00" fill="#000000"> VerP</text>
</g>
<!-- Node21 -->
<g id="node19" class="node">
<title>Node21</title>
<g id="a_node19"><a xlink:href="structpkgCache_1_1VerFile.xhtml" target="_top" xlink:title="associates a version with a PackageFile ">
<polygon fill="#ffffff" stroke="#000000" points="503.5,-.5 503.5,-19.5 552.5,-19.5 552.5,-.5 503.5,-.5"/>
<text text-anchor="middle" x="528" y="-7.5" font-family="Helvetica,sans-Serif" font-size="10.00" fill="#000000">VerFile</text>
</a>
</g>
</g>
<!-- Node21&#45;&gt;Node6 -->
<g id="edge19" class="edge">
<title>Node21&#45;&gt;Node6</title>
<path fill="none" stroke="#9a32cd" stroke-dasharray="5,2" d="M562.7155,-11.1695C591.9348,-13.967 633.0036,-22.4133 659,-47 740.0576,-123.6623 751.5907,-272.9073 753.2292,-312.2836"/>
<polygon fill="#9a32cd" stroke="#9a32cd" points="562.7785,-7.6638 552.5364,-10.3749 562.2337,-14.6426 562.7785,-7.6638"/>
<text text-anchor="middle" x="633" y="-50" font-family="Helvetica,sans-Serif" font-size="10.00" fill="#000000"> VerFileP</text>
</g>
<!-- Node22 -->
<g id="node20" class="node">
<title>Node22</title>
<g id="a_node20"><a xlink:href="structpkgCache_1_1Package.xhtml" target="_top" xlink:title="contains information for a single unique package ">
<polygon fill="#ffffff" stroke="#000000" points="499.5,-447.5 499.5,-466.5 556.5,-466.5 556.5,-447.5 499.5,-447.5"/>
<text text-anchor="middle" x="528" y="-454.5" font-family="Helvetica,sans-Serif" font-size="10.00" fill="#000000">Package</text>
</a>
</g>
</g>
<!-- Node22&#45;&gt;Node6 -->
<g id="edge20" class="edge">
<title>Node22&#45;&gt;Node6</title>
<path fill="none" stroke="#9a32cd" stroke-dasharray="5,2" d="M566.4019,-445.6223C573.9356,-443.2263 581.7481,-440.6254 589,-438 620.6641,-426.5365 630.6203,-427.1277 659,-409 694.8955,-386.0715 729.8322,-348.9276 745.2593,-331.5436"/>
<polygon fill="#9a32cd" stroke="#9a32cd" points="565.2338,-442.3203 556.7294,-448.6389 567.318,-449.0028 565.2338,-442.3203"/>
<text text-anchor="middle" x="633" y="-434" font-family="Helvetica,sans-Serif" font-size="10.00" fill="#000000"> PkgP</text>
</g>
<!-- Node23 -->
<g id="node21" class="node">
<title>Node23</title>
<g id="a_node21"><a xlink:href="classMMap.xhtml" target="_top" xlink:title="MMap">
<polygon fill="#ffffff" stroke="#000000" points="505.5,-333.5 505.5,-352.5 550.5,-352.5 550.5,-333.5 505.5,-333.5"/>
<text text-anchor="middle" x="528" y="-340.5" font-family="Helvetica,sans-Serif" font-size="10.00" fill="#000000">MMap</text>
</a>
</g>
</g>
<!-- Node23&#45;&gt;Node6 -->
<g id="edge21" class="edge">
<title>Node23&#45;&gt;Node6</title>
<path fill="none" stroke="#9a32cd" stroke-dasharray="5,2" d="M561.038,-339.9233C603.8728,-335.9342 678.1281,-329.0191 720.7979,-325.0454"/>
<polygon fill="#9a32cd" stroke="#9a32cd" points="560.4955,-336.4586 550.8631,-340.8708 561.1446,-343.4284 560.4955,-336.4586"/>
<text text-anchor="middle" x="633" y="-338" font-family="Helvetica,sans-Serif" font-size="10.00" fill="#000000"> Map</text>
</g>
<!-- Node24&#45;&gt;Node23 -->
<g id="edge22" class="edge">
<title>Node24&#45;&gt;Node23</title>
<path fill="none" stroke="#9a32cd" stroke-dasharray="5,2" d="M390.842,-297.5459C412.295,-305.2403 441.2659,-315.4681 467,-324 479.6342,-328.1888 493.8272,-332.6254 505.3415,-336.1571"/>
<polygon fill="#9a32cd" stroke="#9a32cd" points="391.8523,-294.1898 381.2578,-294.0976 389.4824,-300.7765 391.8523,-294.1898"/>
<text text-anchor="middle" x="424" y="-319" font-family="Helvetica,sans-Serif" font-size="10.00" fill="#000000"> SyncToFd</text>
</g>
</g>
</svg>
