<?xml version="1.0" encoding="UTF-8" standalone="no"?>
<!DOCTYPE svg PUBLIC "-//W3C//DTD SVG 1.1//EN"
 "http://www.w3.org/Graphics/SVG/1.1/DTD/svg11.dtd">
<!-- Generated by graphviz version 2.40.1 (20161225.0304)
 -->
<!-- Title: Graphical Class Hierarchy Pages: 1 -->
<svg width="433pt" height="28pt"
 viewBox="0.00 0.00 433.00 28.00" xmlns="http://www.w3.org/2000/svg" xmlns:xlink="http://www.w3.org/1999/xlink">
<g id="graph0" class="graph" transform="scale(1 1) rotate(0) translate(4 24)">
<title>Graphical Class Hierarchy</title>
<polygon fill="#ffffff" stroke="transparent" points="-4,4 -4,-24 429,-24 429,4 -4,4"/>
<!-- Node0 -->
<g id="node1" class="node">
<title>Node0</title>
<g id="a_node1"><a xlink:href="classpkgSrcRecords_1_1Parser.xhtml" target="_top" xlink:title="pkgSrcRecords::Parser">
<polygon fill="#ffffff" stroke="#000000" points="0,-.5 0,-19.5 124,-19.5 124,-.5 0,-.5"/>
<text text-anchor="middle" x="62" y="-7.5" font-family="Helvetica,sans-Serif" font-size="10.00" fill="#000000">pkgSrcRecords::Parser</text>
</a>
</g>
</g>
<!-- Node1 -->
<g id="node2" class="node">
<title>Node1</title>
<g id="a_node2"><a xlink:href="classdebSrcRecordParser.xhtml" target="_top" xlink:title="debSrcRecordParser">
<polygon fill="#ffffff" stroke="#000000" points="160,-.5 160,-19.5 273,-19.5 273,-.5 160,-.5"/>
<text text-anchor="middle" x="216.5" y="-7.5" font-family="Helvetica,sans-Serif" font-size="10.00" fill="#000000">debSrcRecordParser</text>
</a>
</g>
</g>
<!-- Node0&#45;&gt;Node1 -->
<g id="edge1" class="edge">
<title>Node0&#45;&gt;Node1</title>
<path fill="none" stroke="#191970" d="M134.6549,-10C143.118,-10 151.6549,-10 159.8575,-10"/>
<polygon fill="#191970" stroke="#191970" points="134.3958,-6.5001 124.3957,-10 134.3957,-13.5001 134.3958,-6.5001"/>
</g>
<!-- Node2 -->
<g id="node3" class="node">
<title>Node2</title>
<g id="a_node3"><a xlink:href="classdebDscRecordParser.xhtml" target="_top" xlink:title="debDscRecordParser">
<polygon fill="#ffffff" stroke="#000000" points="309,-.5 309,-19.5 425,-19.5 425,-.5 309,-.5"/>
<text text-anchor="middle" x="367" y="-7.5" font-family="Helvetica,sans-Serif" font-size="10.00" fill="#000000">debDscRecordParser</text>
</a>
</g>
</g>
<!-- Node1&#45;&gt;Node2 -->
<g id="edge2" class="edge">
<title>Node1&#45;&gt;Node2</title>
<path fill="none" stroke="#191970" d="M283.5571,-10C291.9658,-10 300.5126,-10 308.7707,-10"/>
<polygon fill="#191970" stroke="#191970" points="283.3976,-6.5001 273.3976,-10 283.3976,-13.5001 283.3976,-6.5001"/>
</g>
</g>
</svg>
