<?xml version="1.0" encoding="UTF-8" standalone="no"?>
<!DOCTYPE svg PUBLIC "-//W3C//DTD SVG 1.1//EN"
 "http://www.w3.org/Graphics/SVG/1.1/DTD/svg11.dtd">
<!-- Generated by graphviz version 2.40.1 (20161225.0304)
 -->
<!-- Title: Graphical Class Hierarchy Pages: 1 -->
<svg width="760pt" height="294pt"
 viewBox="0.00 0.00 760.00 294.00" xmlns="http://www.w3.org/2000/svg" xmlns:xlink="http://www.w3.org/1999/xlink">
<g id="graph0" class="graph" transform="scale(1 1) rotate(0) translate(4 290)">
<title>Graphical Class Hierarchy</title>
<polygon fill="#ffffff" stroke="transparent" points="-4,4 -4,-290 756,-290 756,4 -4,4"/>
<!-- Node0 -->
<g id="node1" class="node">
<title>Node0</title>
<g id="a_node1"><a xlink:href="classpkgIndexFile.xhtml" target="_top" xlink:title="pkgIndexFile">
<polygon fill="#ffffff" stroke="#000000" points="0,-95.5 0,-114.5 78,-114.5 78,-95.5 0,-95.5"/>
<text text-anchor="middle" x="39" y="-102.5" font-family="Helvetica,sans-Serif" font-size="10.00" fill="#000000">pkgIndexFile</text>
</a>
</g>
</g>
<!-- Node1 -->
<g id="node2" class="node">
<title>Node1</title>
<g id="a_node2"><a xlink:href="classpkgDebianIndexFile.xhtml" target="_top" xlink:title="pkgDebianIndexFile">
<polygon fill="#ffffff" stroke="#000000" points="114,-95.5 114,-114.5 227,-114.5 227,-95.5 114,-95.5"/>
<text text-anchor="middle" x="170.5" y="-102.5" font-family="Helvetica,sans-Serif" font-size="10.00" fill="#000000">pkgDebianIndexFile</text>
</a>
</g>
</g>
<!-- Node0&#45;&gt;Node1 -->
<g id="edge1" class="edge">
<title>Node0&#45;&gt;Node1</title>
<path fill="none" stroke="#191970" d="M88.363,-105C96.6577,-105 105.3242,-105 113.787,-105"/>
<polygon fill="#191970" stroke="#191970" points="88.0983,-101.5001 78.0983,-105 88.0983,-108.5001 88.0983,-101.5001"/>
</g>
<!-- Node2 -->
<g id="node3" class="node">
<title>Node2</title>
<g id="a_node3"><a xlink:href="classpkgDebianIndexRealFile.xhtml" target="_top" xlink:title="pkgDebianIndexRealFile">
<polygon fill="#ffffff" stroke="#000000" points="267.5,-171.5 267.5,-190.5 401.5,-190.5 401.5,-171.5 267.5,-171.5"/>
<text text-anchor="middle" x="334.5" y="-178.5" font-family="Helvetica,sans-Serif" font-size="10.00" fill="#000000">pkgDebianIndexRealFile</text>
</a>
</g>
</g>
<!-- Node1&#45;&gt;Node2 -->
<g id="edge2" class="edge">
<title>Node1&#45;&gt;Node2</title>
<path fill="none" stroke="#191970" d="M200.4128,-118.862C233.305,-134.1048 285.2775,-158.1896 313.8979,-171.4527"/>
<polygon fill="#191970" stroke="#191970" points="201.8155,-115.6545 191.2707,-114.6255 198.8722,-122.0057 201.8155,-115.6545"/>
</g>
<!-- Node11 -->
<g id="node12" class="node">
<title>Node11</title>
<g id="a_node12"><a xlink:href="classpkgDebianIndexTargetFile.xhtml" target="_top" xlink:title="pkgDebianIndexTargetFile">
<polygon fill="#ffffff" stroke="#000000" points="263,-57.5 263,-76.5 406,-76.5 406,-57.5 263,-57.5"/>
<text text-anchor="middle" x="334.5" y="-64.5" font-family="Helvetica,sans-Serif" font-size="10.00" fill="#000000">pkgDebianIndexTargetFile</text>
</a>
</g>
</g>
<!-- Node1&#45;&gt;Node11 -->
<g id="edge11" class="edge">
<title>Node1&#45;&gt;Node11</title>
<path fill="none" stroke="#191970" d="M221.841,-93.1039C244.8929,-87.7626 271.7211,-81.5463 293.4135,-76.5201"/>
<polygon fill="#191970" stroke="#191970" points="220.836,-89.744 211.8841,-95.411 222.4161,-96.5633 220.836,-89.744"/>
</g>
<!-- Node3 -->
<g id="node4" class="node">
<title>Node3</title>
<g id="a_node4"><a xlink:href="classdebDebPkgFileIndex.xhtml" target="_top" xlink:title="debDebPkgFileIndex">
<polygon fill="#ffffff" stroke="#000000" points="449.5,-266.5 449.5,-285.5 565.5,-285.5 565.5,-266.5 449.5,-266.5"/>
<text text-anchor="middle" x="507.5" y="-273.5" font-family="Helvetica,sans-Serif" font-size="10.00" fill="#000000">debDebPkgFileIndex</text>
</a>
</g>
</g>
<!-- Node2&#45;&gt;Node3 -->
<g id="edge3" class="edge">
<title>Node2&#45;&gt;Node3</title>
<path fill="none" stroke="#191970" d="M353.2284,-197.2062C373.7673,-214.2401 408.3061,-240.7713 442,-257 449.6805,-260.6993 458.2219,-263.8207 466.5324,-266.3966"/>
<polygon fill="#191970" stroke="#191970" points="355.2282,-194.3143 345.3265,-190.5451 350.7166,-199.6664 355.2282,-194.3143"/>
</g>
<!-- Node4 -->
<g id="node5" class="node">
<title>Node4</title>
<g id="a_node5"><a xlink:href="classdebDscFileIndex.xhtml" target="_top" xlink:title="debDscFileIndex">
<polygon fill="#ffffff" stroke="#000000" points="459.5,-228.5 459.5,-247.5 555.5,-247.5 555.5,-228.5 459.5,-228.5"/>
<text text-anchor="middle" x="507.5" y="-235.5" font-family="Helvetica,sans-Serif" font-size="10.00" fill="#000000">debDscFileIndex</text>
</a>
</g>
</g>
<!-- Node2&#45;&gt;Node4 -->
<g id="edge4" class="edge">
<title>Node2&#45;&gt;Node4</title>
<path fill="none" stroke="#191970" d="M369.852,-194.0726C390.7393,-201.6518 417.7599,-211.2071 442,-219 452.0322,-222.2252 463.0055,-225.5044 473.053,-228.4101"/>
<polygon fill="#191970" stroke="#191970" points="371.0191,-190.7727 360.4251,-190.6351 368.621,-197.3492 371.0191,-190.7727"/>
</g>
<!-- Node6 -->
<g id="node7" class="node">
<title>Node6</title>
<g id="a_node7"><a xlink:href="classdebStatusIndex.xhtml" target="_top" xlink:title="debStatusIndex">
<polygon fill="#ffffff" stroke="#000000" points="461.5,-190.5 461.5,-209.5 553.5,-209.5 553.5,-190.5 461.5,-190.5"/>
<text text-anchor="middle" x="507.5" y="-197.5" font-family="Helvetica,sans-Serif" font-size="10.00" fill="#000000">debStatusIndex</text>
</a>
</g>
</g>
<!-- Node2&#45;&gt;Node6 -->
<g id="edge6" class="edge">
<title>Node2&#45;&gt;Node6</title>
<path fill="none" stroke="#191970" d="M412.2581,-189.5399C429.0522,-191.3843 446.2903,-193.2776 461.4055,-194.9376"/>
<polygon fill="#191970" stroke="#191970" points="412.204,-186.013 401.8817,-188.4003 411.4398,-192.9712 412.204,-186.013"/>
</g>
<!-- Node7 -->
<g id="node8" class="node">
<title>Node7</title>
<g id="a_node8"><a xlink:href="classdebStringPackageIndex.xhtml" target="_top" xlink:title="debStringPackageIndex">
<polygon fill="#ffffff" stroke="#000000" points="442,-152.5 442,-171.5 573,-171.5 573,-152.5 442,-152.5"/>
<text text-anchor="middle" x="507.5" y="-159.5" font-family="Helvetica,sans-Serif" font-size="10.00" fill="#000000">debStringPackageIndex</text>
</a>
</g>
</g>
<!-- Node2&#45;&gt;Node7 -->
<g id="edge7" class="edge">
<title>Node2&#45;&gt;Node7</title>
<path fill="none" stroke="#191970" d="M412.1087,-172.4765C421.998,-171.3904 432.044,-170.2871 441.7222,-169.2242"/>
<polygon fill="#191970" stroke="#191970" points="411.4398,-169.0288 401.8817,-173.5997 412.204,-175.987 411.4398,-169.0288"/>
</g>
<!-- Node8 -->
<g id="node9" class="node">
<title>Node8</title>
<g id="a_node9"><a xlink:href="classedspLikeIndex.xhtml" target="_top" xlink:title="edspLikeIndex">
<polygon fill="#ffffff" stroke="#000000" points="464,-114.5 464,-133.5 551,-133.5 551,-114.5 464,-114.5"/>
<text text-anchor="middle" x="507.5" y="-121.5" font-family="Helvetica,sans-Serif" font-size="10.00" fill="#000000">edspLikeIndex</text>
</a>
</g>
</g>
<!-- Node2&#45;&gt;Node8 -->
<g id="edge8" class="edge">
<title>Node2&#45;&gt;Node8</title>
<path fill="none" stroke="#191970" d="M369.852,-167.9274C390.7393,-160.3482 417.7599,-150.7929 442,-143 452.0322,-139.7748 463.0055,-136.4956 473.053,-133.5899"/>
<polygon fill="#191970" stroke="#191970" points="368.621,-164.6508 360.4251,-171.3649 371.0191,-171.2273 368.621,-164.6508"/>
</g>
<!-- Node5 -->
<g id="node6" class="node">
<title>Node5</title>
<g id="a_node6"><a xlink:href="classdebDebianSourceDirIndex.xhtml" target="_top" xlink:title="debDebianSourceDirIndex">
<polygon fill="#ffffff" stroke="#000000" points="609,-228.5 609,-247.5 752,-247.5 752,-228.5 609,-228.5"/>
<text text-anchor="middle" x="680.5" y="-235.5" font-family="Helvetica,sans-Serif" font-size="10.00" fill="#000000">debDebianSourceDirIndex</text>
</a>
</g>
</g>
<!-- Node4&#45;&gt;Node5 -->
<g id="edge5" class="edge">
<title>Node4&#45;&gt;Node5</title>
<path fill="none" stroke="#191970" d="M566.0041,-238C579.7983,-238 594.6571,-238 608.9538,-238"/>
<polygon fill="#191970" stroke="#191970" points="565.6902,-234.5001 555.6901,-238 565.6901,-241.5001 565.6902,-234.5001"/>
</g>
<!-- Node9 -->
<g id="node10" class="node">
<title>Node9</title>
<g id="a_node10"><a xlink:href="classedspIndex.xhtml" target="_top" xlink:title="edspIndex">
<polygon fill="#ffffff" stroke="#000000" points="647,-133.5 647,-152.5 714,-152.5 714,-133.5 647,-133.5"/>
<text text-anchor="middle" x="680.5" y="-140.5" font-family="Helvetica,sans-Serif" font-size="10.00" fill="#000000">edspIndex</text>
</a>
</g>
</g>
<!-- Node8&#45;&gt;Node9 -->
<g id="edge9" class="edge">
<title>Node8&#45;&gt;Node9</title>
<path fill="none" stroke="#191970" d="M561.2074,-129.8985C589.2263,-132.9757 622.6334,-136.6447 646.958,-139.3162"/>
<polygon fill="#191970" stroke="#191970" points="561.4776,-126.4072 551.1552,-128.7945 560.7133,-133.3654 561.4776,-126.4072"/>
</g>
<!-- Node10 -->
<g id="node11" class="node">
<title>Node10</title>
<g id="a_node11"><a xlink:href="classeippIndex.xhtml" target="_top" xlink:title="eippIndex">
<polygon fill="#ffffff" stroke="#000000" points="648,-95.5 648,-114.5 713,-114.5 713,-95.5 648,-95.5"/>
<text text-anchor="middle" x="680.5" y="-102.5" font-family="Helvetica,sans-Serif" font-size="10.00" fill="#000000">eippIndex</text>
</a>
</g>
</g>
<!-- Node8&#45;&gt;Node10 -->
<g id="edge10" class="edge">
<title>Node8&#45;&gt;Node10</title>
<path fill="none" stroke="#191970" d="M561.3117,-118.09C589.6271,-114.9803 623.4218,-111.2687 647.7821,-108.5933"/>
<polygon fill="#191970" stroke="#191970" points="560.7133,-114.6346 551.1552,-119.2055 561.4776,-121.5928 560.7133,-114.6346"/>
</g>
<!-- Node12 -->
<g id="node13" class="node">
<title>Node12</title>
<g id="a_node13"><a xlink:href="classdebPackagesIndex.xhtml" target="_top" xlink:title="debPackagesIndex">
<polygon fill="#ffffff" stroke="#000000" points="454,-76.5 454,-95.5 561,-95.5 561,-76.5 454,-76.5"/>
<text text-anchor="middle" x="507.5" y="-83.5" font-family="Helvetica,sans-Serif" font-size="10.00" fill="#000000">debPackagesIndex</text>
</a>
</g>
</g>
<!-- Node11&#45;&gt;Node12 -->
<g id="edge12" class="edge">
<title>Node11&#45;&gt;Node12</title>
<path fill="none" stroke="#191970" d="M416.3042,-75.9843C429.0731,-77.3866 441.9788,-78.804 453.904,-80.1137"/>
<polygon fill="#191970" stroke="#191970" points="416.4369,-72.4779 406.1145,-74.8652 415.6726,-79.436 416.4369,-72.4779"/>
</g>
<!-- Node13 -->
<g id="node14" class="node">
<title>Node13</title>
<g id="a_node14"><a xlink:href="classdebSourcesIndex.xhtml" target="_top" xlink:title="debSourcesIndex">
<polygon fill="#ffffff" stroke="#000000" points="457.5,-38.5 457.5,-57.5 557.5,-57.5 557.5,-38.5 457.5,-38.5"/>
<text text-anchor="middle" x="507.5" y="-45.5" font-family="Helvetica,sans-Serif" font-size="10.00" fill="#000000">debSourcesIndex</text>
</a>
</g>
</g>
<!-- Node11&#45;&gt;Node13 -->
<g id="edge13" class="edge">
<title>Node11&#45;&gt;Node13</title>
<path fill="none" stroke="#191970" d="M416.2623,-58.0203C430.2679,-56.4821 444.4396,-54.9257 457.3029,-53.513"/>
<polygon fill="#191970" stroke="#191970" points="415.6726,-54.564 406.1145,-59.1348 416.4369,-61.5221 415.6726,-54.564"/>
</g>
<!-- Node14 -->
<g id="node15" class="node">
<title>Node14</title>
<g id="a_node15"><a xlink:href="classdebTranslationsIndex.xhtml" target="_top" xlink:title="debTranslationsIndex">
<polygon fill="#ffffff" stroke="#000000" points="447.5,-.5 447.5,-19.5 567.5,-19.5 567.5,-.5 447.5,-.5"/>
<text text-anchor="middle" x="507.5" y="-7.5" font-family="Helvetica,sans-Serif" font-size="10.00" fill="#000000">debTranslationsIndex</text>
</a>
</g>
</g>
<!-- Node11&#45;&gt;Node14 -->
<g id="edge14" class="edge">
<title>Node11&#45;&gt;Node14</title>
<path fill="none" stroke="#191970" d="M369.852,-53.9274C390.7393,-46.3482 417.7599,-36.7929 442,-29 452.0322,-25.7748 463.0055,-22.4956 473.053,-19.5899"/>
<polygon fill="#191970" stroke="#191970" points="368.621,-50.6508 360.4251,-57.3649 371.0191,-57.2273 368.621,-50.6508"/>
</g>
</g>
</svg>
