<?xml version="1.0" encoding="UTF-8" standalone="no"?>
<!DOCTYPE svg PUBLIC "-//W3C//DTD SVG 1.1//EN"
 "http://www.w3.org/Graphics/SVG/1.1/DTD/svg11.dtd">
<!-- Generated by graphviz version 2.40.1 (20161225.0304)
 -->
<!-- Title: Graphical Class Hierarchy Pages: 1 -->
<svg width="269pt" height="294pt"
 viewBox="0.00 0.00 269.00 294.00" xmlns="http://www.w3.org/2000/svg" xmlns:xlink="http://www.w3.org/1999/xlink">
<g id="graph0" class="graph" transform="scale(1 1) rotate(0) translate(4 290)">
<title>Graphical Class Hierarchy</title>
<polygon fill="#ffffff" stroke="transparent" points="-4,4 -4,-290 265,-290 265,4 -4,4"/>
<!-- Node0 -->
<g id="node1" class="node">
<title>Node0</title>
<g id="a_node1"><a xlink:href="classFileFdPrivate.xhtml" target="_top" xlink:title="FileFdPrivate">
<polygon fill="#ffffff" stroke="#000000" points="0,-133.5 0,-152.5 79,-152.5 79,-133.5 0,-133.5"/>
<text text-anchor="middle" x="39.5" y="-140.5" font-family="Helvetica,sans-Serif" font-size="10.00" fill="#000000">FileFdPrivate</text>
</a>
</g>
</g>
<!-- Node1 -->
<g id="node2" class="node">
<title>Node1</title>
<g id="a_node2"><a xlink:href="classBufferedWriteFileFdPrivate.xhtml" target="_top" xlink:title="BufferedWriteFileFdPrivate">
<polygon fill="#ffffff" stroke="#000000" points="115,-266.5 115,-285.5 261,-285.5 261,-266.5 115,-266.5"/>
<text text-anchor="middle" x="188" y="-273.5" font-family="Helvetica,sans-Serif" font-size="10.00" fill="#000000">BufferedWriteFileFdPrivate</text>
</a>
</g>
</g>
<!-- Node0&#45;&gt;Node1 -->
<g id="edge1" class="edge">
<title>Node0&#45;&gt;Node1</title>
<path fill="none" stroke="#191970" d="M46.9271,-162.0387C57.8937,-187.6039 80.8743,-232.6255 115,-257 120.4349,-260.8819 126.6016,-263.9712 132.9927,-266.4296"/>
<polygon fill="#191970" stroke="#191970" points="50.1209,-160.6022 43.0808,-152.6847 43.6468,-163.2644 50.1209,-160.6022"/>
</g>
<!-- Node2 -->
<g id="node3" class="node">
<title>Node2</title>
<g id="a_node3"><a xlink:href="classBz2FileFdPrivate.xhtml" target="_top" xlink:title="Bz2FileFdPrivate">
<polygon fill="#ffffff" stroke="#000000" points="139.5,-228.5 139.5,-247.5 236.5,-247.5 236.5,-228.5 139.5,-228.5"/>
<text text-anchor="middle" x="188" y="-235.5" font-family="Helvetica,sans-Serif" font-size="10.00" fill="#000000">Bz2FileFdPrivate</text>
</a>
</g>
</g>
<!-- Node0&#45;&gt;Node2 -->
<g id="edge2" class="edge">
<title>Node0&#45;&gt;Node2</title>
<path fill="none" stroke="#191970" d="M52.4805,-160.7604C66.1311,-178.1604 89.1853,-204.1625 115,-219 122.4936,-223.3071 130.9755,-226.6563 139.4379,-229.2551"/>
<polygon fill="#191970" stroke="#191970" points="55.0747,-158.3897 46.2344,-152.5501 49.5036,-162.628 55.0747,-158.3897"/>
</g>
<!-- Node3 -->
<g id="node4" class="node">
<title>Node3</title>
<g id="a_node4"><a xlink:href="classDirectFileFdPrivate.xhtml" target="_top" xlink:title="DirectFileFdPrivate">
<polygon fill="#ffffff" stroke="#000000" points="134,-190.5 134,-209.5 242,-209.5 242,-190.5 134,-190.5"/>
<text text-anchor="middle" x="188" y="-197.5" font-family="Helvetica,sans-Serif" font-size="10.00" fill="#000000">DirectFileFdPrivate</text>
</a>
</g>
</g>
<!-- Node0&#45;&gt;Node3 -->
<g id="edge3" class="edge">
<title>Node0&#45;&gt;Node3</title>
<path fill="none" stroke="#191970" d="M64.9188,-157.4914C79.2836,-165.244 97.7663,-174.5041 115,-181 124.5583,-184.6028 135.0689,-187.774 145.0642,-190.4421"/>
<polygon fill="#191970" stroke="#191970" points="66.5776,-154.4093 56.1283,-152.6587 63.2052,-160.5434 66.5776,-154.4093"/>
</g>
<!-- Node4 -->
<g id="node5" class="node">
<title>Node4</title>
<g id="a_node5"><a xlink:href="classGzipFileFdPrivate.xhtml" target="_top" xlink:title="GzipFileFdPrivate">
<polygon fill="#ffffff" stroke="#000000" points="137.5,-152.5 137.5,-171.5 238.5,-171.5 238.5,-152.5 137.5,-152.5"/>
<text text-anchor="middle" x="188" y="-159.5" font-family="Helvetica,sans-Serif" font-size="10.00" fill="#000000">GzipFileFdPrivate</text>
</a>
</g>
</g>
<!-- Node0&#45;&gt;Node4 -->
<g id="edge4" class="edge">
<title>Node0&#45;&gt;Node4</title>
<path fill="none" stroke="#191970" d="M89.2264,-149.3623C104.7422,-151.3475 121.8674,-153.5386 137.4397,-155.531"/>
<polygon fill="#191970" stroke="#191970" points="89.6586,-145.8892 79.2953,-148.0917 88.7702,-152.8326 89.6586,-145.8892"/>
</g>
<!-- Node5 -->
<g id="node6" class="node">
<title>Node5</title>
<g id="a_node6"><a xlink:href="classLz4FileFdPrivate.xhtml" target="_top" xlink:title="Lz4FileFdPrivate">
<polygon fill="#ffffff" stroke="#000000" points="140.5,-114.5 140.5,-133.5 235.5,-133.5 235.5,-114.5 140.5,-114.5"/>
<text text-anchor="middle" x="188" y="-121.5" font-family="Helvetica,sans-Serif" font-size="10.00" fill="#000000">Lz4FileFdPrivate</text>
</a>
</g>
</g>
<!-- Node0&#45;&gt;Node5 -->
<g id="edge5" class="edge">
<title>Node0&#45;&gt;Node5</title>
<path fill="none" stroke="#191970" d="M89.2989,-136.6284C105.7961,-134.5177 124.1061,-132.175 140.4313,-130.0862"/>
<polygon fill="#191970" stroke="#191970" points="88.7702,-133.1674 79.2953,-137.9083 89.6586,-140.1108 88.7702,-133.1674"/>
</g>
<!-- Node6 -->
<g id="node7" class="node">
<title>Node6</title>
<g id="a_node7"><a xlink:href="classLzmaFileFdPrivate.xhtml" target="_top" xlink:title="LzmaFileFdPrivate">
<polygon fill="#ffffff" stroke="#000000" points="135.5,-76.5 135.5,-95.5 240.5,-95.5 240.5,-76.5 135.5,-76.5"/>
<text text-anchor="middle" x="188" y="-83.5" font-family="Helvetica,sans-Serif" font-size="10.00" fill="#000000">LzmaFileFdPrivate</text>
</a>
</g>
</g>
<!-- Node0&#45;&gt;Node6 -->
<g id="edge6" class="edge">
<title>Node0&#45;&gt;Node6</title>
<path fill="none" stroke="#191970" d="M64.9188,-128.5086C79.2836,-120.756 97.7663,-111.4959 115,-105 124.5583,-101.3972 135.0689,-98.226 145.0642,-95.5579"/>
<polygon fill="#191970" stroke="#191970" points="63.2052,-125.4566 56.1283,-133.3413 66.5776,-131.5907 63.2052,-125.4566"/>
</g>
<!-- Node7 -->
<g id="node8" class="node">
<title>Node7</title>
<g id="a_node8"><a xlink:href="classPipedFileFdPrivate.xhtml" target="_top" xlink:title="PipedFileFdPrivate">
<polygon fill="#ffffff" stroke="#000000" points="135,-38.5 135,-57.5 241,-57.5 241,-38.5 135,-38.5"/>
<text text-anchor="middle" x="188" y="-45.5" font-family="Helvetica,sans-Serif" font-size="10.00" fill="#000000">PipedFileFdPrivate</text>
</a>
</g>
</g>
<!-- Node0&#45;&gt;Node7 -->
<g id="edge7" class="edge">
<title>Node0&#45;&gt;Node7</title>
<path fill="none" stroke="#191970" d="M52.4805,-125.2396C66.1311,-107.8396 89.1853,-81.8375 115,-67 121.6989,-63.1497 129.1874,-60.0649 136.7459,-57.5974"/>
<polygon fill="#191970" stroke="#191970" points="49.5036,-123.372 46.2344,-133.4499 55.0747,-127.6103 49.5036,-123.372"/>
</g>
<!-- Node8 -->
<g id="node9" class="node">
<title>Node8</title>
<g id="a_node9"><a xlink:href="classZstdFileFdPrivate.xhtml" target="_top" xlink:title="ZstdFileFdPrivate">
<polygon fill="#ffffff" stroke="#000000" points="137.5,-.5 137.5,-19.5 238.5,-19.5 238.5,-.5 137.5,-.5"/>
<text text-anchor="middle" x="188" y="-7.5" font-family="Helvetica,sans-Serif" font-size="10.00" fill="#000000">ZstdFileFdPrivate</text>
</a>
</g>
</g>
<!-- Node0&#45;&gt;Node8 -->
<g id="edge8" class="edge">
<title>Node0&#45;&gt;Node8</title>
<path fill="none" stroke="#191970" d="M46.9271,-123.9613C57.8937,-98.3961 80.8743,-53.3745 115,-29 121.6071,-24.2808 129.2957,-20.733 137.1544,-18.0661"/>
<polygon fill="#191970" stroke="#191970" points="43.6468,-122.7356 43.0808,-133.3153 50.1209,-125.3978 43.6468,-122.7356"/>
</g>
</g>
</svg>
