<?xml version="1.0" encoding="UTF-8" standalone="no"?>
<!DOCTYPE svg PUBLIC "-//W3C//DTD SVG 1.1//EN"
 "http://www.w3.org/Graphics/SVG/1.1/DTD/svg11.dtd">
<!-- Generated by graphviz version 2.40.1 (20161225.0304)
 -->
<!-- Title: Graphical Class Hierarchy Pages: 1 -->
<svg width="194pt" height="66pt"
 viewBox="0.00 0.00 194.00 66.00" xmlns="http://www.w3.org/2000/svg" xmlns:xlink="http://www.w3.org/1999/xlink">
<g id="graph0" class="graph" transform="scale(1 1) rotate(0) translate(4 62)">
<title>Graphical Class Hierarchy</title>
<polygon fill="#ffffff" stroke="transparent" points="-4,4 -4,-62 190,-62 190,4 -4,4"/>
<!-- Node0 -->
<g id="node1" class="node">
<title>Node0</title>
<g id="a_node1"><a xlink:href="classIndexCopy.xhtml" target="_top" xlink:title="IndexCopy">
<polygon fill="#ffffff" stroke="#000000" points="0,-19.5 0,-38.5 68,-38.5 68,-19.5 0,-19.5"/>
<text text-anchor="middle" x="34" y="-26.5" font-family="Helvetica,sans-Serif" font-size="10.00" fill="#000000">IndexCopy</text>
</a>
</g>
</g>
<!-- Node1 -->
<g id="node2" class="node">
<title>Node1</title>
<g id="a_node2"><a xlink:href="classPackageCopy.xhtml" target="_top" xlink:title="PackageCopy">
<polygon fill="#ffffff" stroke="#000000" points="104,-38.5 104,-57.5 186,-57.5 186,-38.5 104,-38.5"/>
<text text-anchor="middle" x="145" y="-45.5" font-family="Helvetica,sans-Serif" font-size="10.00" fill="#000000">PackageCopy</text>
</a>
</g>
</g>
<!-- Node0&#45;&gt;Node1 -->
<g id="edge1" class="edge">
<title>Node0&#45;&gt;Node1</title>
<path fill="none" stroke="#191970" d="M78.2194,-36.5691C86.6169,-38.0065 95.3741,-39.5055 103.6776,-40.9268"/>
<polygon fill="#191970" stroke="#191970" points="78.6566,-33.0931 68.2094,-34.8557 77.4755,-39.9927 78.6566,-33.0931"/>
</g>
<!-- Node2 -->
<g id="node3" class="node">
<title>Node2</title>
<g id="a_node3"><a xlink:href="classSourceCopy.xhtml" target="_top" xlink:title="SourceCopy">
<polygon fill="#ffffff" stroke="#000000" points="108,-.5 108,-19.5 182,-19.5 182,-.5 108,-.5"/>
<text text-anchor="middle" x="145" y="-7.5" font-family="Helvetica,sans-Serif" font-size="10.00" fill="#000000">SourceCopy</text>
</a>
</g>
</g>
<!-- Node0&#45;&gt;Node2 -->
<g id="edge2" class="edge">
<title>Node0&#45;&gt;Node2</title>
<path fill="none" stroke="#191970" d="M78.1502,-21.4428C87.9107,-19.772 98.1605,-18.0176 107.6211,-16.3982"/>
<polygon fill="#191970" stroke="#191970" points="77.4755,-18.0073 68.2094,-23.1443 78.6566,-24.9069 77.4755,-18.0073"/>
</g>
</g>
</svg>
