<?xml version="1.0" encoding="UTF-8" standalone="no"?>
<!DOCTYPE svg PUBLIC "-//W3C//DTD SVG 1.1//EN"
 "http://www.w3.org/Graphics/SVG/1.1/DTD/svg11.dtd">
<!-- Generated by graphviz version 2.40.1 (20161225.0304)
 -->
<!-- Title: Graphical Class Hierarchy Pages: 1 -->
<svg width="325pt" height="85pt"
 viewBox="0.00 0.00 325.00 85.00" xmlns="http://www.w3.org/2000/svg" xmlns:xlink="http://www.w3.org/1999/xlink">
<g id="graph0" class="graph" transform="scale(1 1) rotate(0) translate(4 81)">
<title>Graphical Class Hierarchy</title>
<polygon fill="#ffffff" stroke="transparent" points="-4,4 -4,-81 321,-81 321,4 -4,4"/>
<!-- Node0 -->
<g id="node1" class="node">
<title>Node0</title>
<g id="a_node1"><a xlink:href="classpkgSystem.xhtml" target="_top" xlink:title="pkgSystem">
<polygon fill="#ffffff" stroke="#000000" points="0,-38.5 0,-57.5 71,-57.5 71,-38.5 0,-38.5"/>
<text text-anchor="middle" x="35.5" y="-45.5" font-family="Helvetica,sans-Serif" font-size="10.00" fill="#000000">pkgSystem</text>
</a>
</g>
</g>
<!-- Node1 -->
<g id="node2" class="node">
<title>Node1</title>
<g id="a_node2"><a xlink:href="classdebSystem.xhtml" target="_top" xlink:title="debSystem">
<polygon fill="#ffffff" stroke="#000000" points="120,-57.5 120,-76.5 191,-76.5 191,-57.5 120,-57.5"/>
<text text-anchor="middle" x="155.5" y="-64.5" font-family="Helvetica,sans-Serif" font-size="10.00" fill="#000000">debSystem</text>
</a>
</g>
</g>
<!-- Node0&#45;&gt;Node1 -->
<g id="edge1" class="edge">
<title>Node0&#45;&gt;Node1</title>
<path fill="none" stroke="#191970" d="M81.1776,-55.2323C93.9504,-57.2547 107.6429,-59.4226 119.7512,-61.3398"/>
<polygon fill="#191970" stroke="#191970" points="81.6034,-51.7562 71.1791,-53.6492 80.5086,-58.6701 81.6034,-51.7562"/>
</g>
<!-- Node2 -->
<g id="node3" class="node">
<title>Node2</title>
<g id="a_node3"><a xlink:href="classedspLikeSystem.xhtml" target="_top" xlink:title="edspLikeSystem">
<polygon fill="#ffffff" stroke="#000000" points="107,-19.5 107,-38.5 204,-38.5 204,-19.5 107,-19.5"/>
<text text-anchor="middle" x="155.5" y="-26.5" font-family="Helvetica,sans-Serif" font-size="10.00" fill="#000000">edspLikeSystem</text>
</a>
</g>
</g>
<!-- Node0&#45;&gt;Node2 -->
<g id="edge2" class="edge">
<title>Node0&#45;&gt;Node2</title>
<path fill="none" stroke="#191970" d="M81.1776,-40.7677C89.5755,-39.4381 98.3709,-38.0454 106.8522,-36.7026"/>
<polygon fill="#191970" stroke="#191970" points="80.5086,-37.3299 71.1791,-42.3508 81.6034,-44.2438 80.5086,-37.3299"/>
</g>
<!-- Node3 -->
<g id="node4" class="node">
<title>Node3</title>
<g id="a_node4"><a xlink:href="classedspSystem.xhtml" target="_top" xlink:title="edspSystem">
<polygon fill="#ffffff" stroke="#000000" points="240,-38.5 240,-57.5 317,-57.5 317,-38.5 240,-38.5"/>
<text text-anchor="middle" x="278.5" y="-45.5" font-family="Helvetica,sans-Serif" font-size="10.00" fill="#000000">edspSystem</text>
</a>
</g>
</g>
<!-- Node2&#45;&gt;Node3 -->
<g id="edge3" class="edge">
<title>Node2&#45;&gt;Node3</title>
<path fill="none" stroke="#191970" d="M214.2011,-38.0676C222.8589,-39.405 231.5908,-40.7539 239.7087,-42.0078"/>
<polygon fill="#191970" stroke="#191970" points="214.53,-34.577 204.1129,-36.5093 213.4613,-41.495 214.53,-34.577"/>
</g>
<!-- Node4 -->
<g id="node5" class="node">
<title>Node4</title>
<g id="a_node5"><a xlink:href="classeippSystem.xhtml" target="_top" xlink:title="eippSystem">
<polygon fill="#ffffff" stroke="#000000" points="241.5,-.5 241.5,-19.5 315.5,-19.5 315.5,-.5 241.5,-.5"/>
<text text-anchor="middle" x="278.5" y="-7.5" font-family="Helvetica,sans-Serif" font-size="10.00" fill="#000000">eippSystem</text>
</a>
</g>
</g>
<!-- Node2&#45;&gt;Node4 -->
<g id="edge4" class="edge">
<title>Node2&#45;&gt;Node4</title>
<path fill="none" stroke="#191970" d="M214.0728,-19.9522C223.3201,-18.5237 232.6559,-17.0816 241.2413,-15.7554"/>
<polygon fill="#191970" stroke="#191970" points="213.4613,-16.505 204.1129,-21.4907 214.53,-23.423 213.4613,-16.505"/>
</g>
</g>
</svg>
