<?xml version="1.0" encoding="UTF-8" standalone="no"?>
<!DOCTYPE svg PUBLIC "-//W3C//DTD SVG 1.1//EN"
 "http://www.w3.org/Graphics/SVG/1.1/DTD/svg11.dtd">
<!-- Generated by graphviz version 2.40.1 (20161225.0304)
 -->
<!-- Title: Graphical Class Hierarchy Pages: 1 -->
<svg width="403pt" height="123pt"
 viewBox="0.00 0.00 403.00 123.00" xmlns="http://www.w3.org/2000/svg" xmlns:xlink="http://www.w3.org/1999/xlink">
<g id="graph0" class="graph" transform="scale(1 1) rotate(0) translate(4 119)">
<title>Graphical Class Hierarchy</title>
<polygon fill="#ffffff" stroke="transparent" points="-4,4 -4,-119 399,-119 399,4 -4,4"/>
<!-- Node0 -->
<g id="node1" class="node">
<title>Node0</title>
<g id="a_node1"><a xlink:href="classpkgCache_1_1Namespace.xhtml" target="_top" xlink:title="pkgCache::Namespace">
<polygon fill="#ffffff" stroke="#000000" points="0,-57.5 0,-76.5 128,-76.5 128,-57.5 0,-57.5"/>
<text text-anchor="middle" x="64" y="-64.5" font-family="Helvetica,sans-Serif" font-size="10.00" fill="#000000">pkgCache::Namespace</text>
</a>
</g>
</g>
<!-- Node1 -->
<g id="node2" class="node">
<title>Node1</title>
<g id="a_node2"><a xlink:href="classpkgDepCache.xhtml" target="_top" xlink:title="pkgDepCache">
<polygon fill="#ffffff" stroke="#000000" points="180.5,-95.5 180.5,-114.5 264.5,-114.5 264.5,-95.5 180.5,-95.5"/>
<text text-anchor="middle" x="222.5" y="-102.5" font-family="Helvetica,sans-Serif" font-size="10.00" fill="#000000">pkgDepCache</text>
</a>
</g>
</g>
<!-- Node0&#45;&gt;Node1 -->
<g id="edge1" class="edge">
<title>Node0&#45;&gt;Node1</title>
<path fill="none" stroke="#006400" d="M113.9191,-78.968C136.1304,-84.2931 161.9205,-90.4762 182.7914,-95.4799"/>
<polygon fill="#006400" stroke="#006400" points="114.5367,-75.5169 103.9962,-76.589 112.9047,-82.324 114.5367,-75.5169"/>
</g>
<!-- Node2 -->
<g id="node3" class="node">
<title>Node2</title>
<g id="a_node3"><a xlink:href="classpkgOrderList.xhtml" target="_top" xlink:title="pkgOrderList">
<polygon fill="#ffffff" stroke="#000000" points="183,-57.5 183,-76.5 262,-76.5 262,-57.5 183,-57.5"/>
<text text-anchor="middle" x="222.5" y="-64.5" font-family="Helvetica,sans-Serif" font-size="10.00" fill="#000000">pkgOrderList</text>
</a>
</g>
</g>
<!-- Node0&#45;&gt;Node2 -->
<g id="edge2" class="edge">
<title>Node0&#45;&gt;Node2</title>
<path fill="none" stroke="#006400" d="M138.1025,-67C153.5541,-67 169.2678,-67 182.8807,-67"/>
<polygon fill="#006400" stroke="#006400" points="138.0112,-63.5001 128.0111,-67 138.0111,-70.5001 138.0112,-63.5001"/>
</g>
<!-- Node3 -->
<g id="node4" class="node">
<title>Node3</title>
<g id="a_node4"><a xlink:href="classpkgPackageManager.xhtml" target="_top" xlink:title="pkgPackageManager">
<polygon fill="#ffffff" stroke="#000000" points="164,-19.5 164,-38.5 281,-38.5 281,-19.5 164,-19.5"/>
<text text-anchor="middle" x="222.5" y="-26.5" font-family="Helvetica,sans-Serif" font-size="10.00" fill="#000000">pkgPackageManager</text>
</a>
</g>
</g>
<!-- Node0&#45;&gt;Node3 -->
<g id="edge3" class="edge">
<title>Node0&#45;&gt;Node3</title>
<path fill="none" stroke="#006400" d="M113.9191,-55.032C136.1304,-49.7069 161.9205,-43.5238 182.7914,-38.5201"/>
<polygon fill="#006400" stroke="#006400" points="112.9047,-51.676 103.9962,-57.411 114.5367,-58.4831 112.9047,-51.676"/>
</g>
<!-- Node4 -->
<g id="node5" class="node">
<title>Node4</title>
<g id="a_node5"><a xlink:href="classpkgDPkgPM.xhtml" target="_top" xlink:title="pkgDPkgPM">
<polygon fill="#ffffff" stroke="#000000" points="319,-38.5 319,-57.5 393,-57.5 393,-38.5 319,-38.5"/>
<text text-anchor="middle" x="356" y="-45.5" font-family="Helvetica,sans-Serif" font-size="10.00" fill="#000000">pkgDPkgPM</text>
</a>
</g>
</g>
<!-- Node3&#45;&gt;Node4 -->
<g id="edge4" class="edge">
<title>Node3&#45;&gt;Node4</title>
<path fill="none" stroke="#191970" d="M290.965,-38.7441C300.4897,-40.0997 309.9677,-41.4486 318.6228,-42.6804"/>
<polygon fill="#191970" stroke="#191970" points="291.4485,-35.2777 281.055,-37.3337 290.4621,-42.2079 291.4485,-35.2777"/>
</g>
<!-- Node5 -->
<g id="node6" class="node">
<title>Node5</title>
<g id="a_node6"><a xlink:href="classpkgSimulate.xhtml" target="_top" xlink:title="pkgSimulate">
<polygon fill="#ffffff" stroke="#000000" points="317,-.5 317,-19.5 395,-19.5 395,-.5 317,-.5"/>
<text text-anchor="middle" x="356" y="-7.5" font-family="Helvetica,sans-Serif" font-size="10.00" fill="#000000">pkgSimulate</text>
</a>
</g>
</g>
<!-- Node3&#45;&gt;Node5 -->
<g id="edge5" class="edge">
<title>Node3&#45;&gt;Node5</title>
<path fill="none" stroke="#191970" d="M290.9882,-19.2526C299.7999,-17.9985 308.5712,-16.7502 316.6873,-15.5951"/>
<polygon fill="#191970" stroke="#191970" points="290.4621,-15.7921 281.055,-20.6663 291.4485,-22.7223 290.4621,-15.7921"/>
</g>
</g>
</svg>
