<?xml version="1.0" encoding="UTF-8" standalone="no"?>
<!DOCTYPE svg PUBLIC "-//W3C//DTD SVG 1.1//EN"
 "http://www.w3.org/Graphics/SVG/1.1/DTD/svg11.dtd">
<!-- Generated by graphviz version 2.40.1 (20161225.0304)
 -->
<!-- Title: Graphical Class Hierarchy Pages: 1 -->
<svg width="465pt" height="123pt"
 viewBox="0.00 0.00 465.00 123.00" xmlns="http://www.w3.org/2000/svg" xmlns:xlink="http://www.w3.org/1999/xlink">
<g id="graph0" class="graph" transform="scale(1 1) rotate(0) translate(4 119)">
<title>Graphical Class Hierarchy</title>
<polygon fill="#ffffff" stroke="transparent" points="-4,4 -4,-119 461,-119 461,4 -4,4"/>
<!-- Node0 -->
<g id="node1" class="node">
<title>Node0</title>
<g id="a_node1"><a xlink:href="classSummationImplementation.xhtml" target="_top" xlink:title="SummationImplementation">
<polygon fill="#ffffff" stroke="#000000" points="0,-57.5 0,-76.5 151,-76.5 151,-57.5 0,-57.5"/>
<text text-anchor="middle" x="75.5" y="-64.5" font-family="Helvetica,sans-Serif" font-size="10.00" fill="#000000">SummationImplementation</text>
</a>
</g>
</g>
<!-- Node1 -->
<g id="node2" class="node">
<title>Node1</title>
<g id="a_node2"><a xlink:href="classMD5Summation.xhtml" target="_top" xlink:title="MD5Summation">
<polygon fill="#ffffff" stroke="#000000" points="201,-95.5 201,-114.5 296,-114.5 296,-95.5 201,-95.5"/>
<text text-anchor="middle" x="248.5" y="-102.5" font-family="Helvetica,sans-Serif" font-size="10.00" fill="#000000">MD5Summation</text>
</a>
</g>
</g>
<!-- Node0&#45;&gt;Node1 -->
<g id="edge1" class="edge">
<title>Node0&#45;&gt;Node1</title>
<path fill="none" stroke="#191970" d="M129.0051,-78.7526C153.4673,-84.1258 182.0707,-90.4086 205.1587,-95.4799"/>
<polygon fill="#191970" stroke="#191970" points="129.6733,-75.316 119.1552,-76.589 128.1714,-82.153 129.6733,-75.316"/>
</g>
<!-- Node2 -->
<g id="node3" class="node">
<title>Node2</title>
<g id="a_node3"><a xlink:href="classSHA1Summation.xhtml" target="_top" xlink:title="SHA1Summation">
<polygon fill="#ffffff" stroke="#000000" points="199,-57.5 199,-76.5 298,-76.5 298,-57.5 199,-57.5"/>
<text text-anchor="middle" x="248.5" y="-64.5" font-family="Helvetica,sans-Serif" font-size="10.00" fill="#000000">SHA1Summation</text>
</a>
</g>
</g>
<!-- Node0&#45;&gt;Node2 -->
<g id="edge2" class="edge">
<title>Node0&#45;&gt;Node2</title>
<path fill="none" stroke="#191970" d="M161.4172,-67C174.2778,-67 187.1556,-67 198.9134,-67"/>
<polygon fill="#191970" stroke="#191970" points="161.1287,-63.5001 151.1286,-67 161.1286,-70.5001 161.1287,-63.5001"/>
</g>
<!-- Node3 -->
<g id="node4" class="node">
<title>Node3</title>
<g id="a_node4"><a xlink:href="classSHA2SummationBase.xhtml" target="_top" xlink:title="SHA2SummationBase">
<polygon fill="#ffffff" stroke="#000000" points="187,-19.5 187,-38.5 310,-38.5 310,-19.5 187,-19.5"/>
<text text-anchor="middle" x="248.5" y="-26.5" font-family="Helvetica,sans-Serif" font-size="10.00" fill="#000000">SHA2SummationBase</text>
</a>
</g>
</g>
<!-- Node0&#45;&gt;Node3 -->
<g id="edge3" class="edge">
<title>Node0&#45;&gt;Node3</title>
<path fill="none" stroke="#191970" d="M129.0051,-55.2474C153.4673,-49.8742 182.0707,-43.5914 205.1587,-38.5201"/>
<polygon fill="#191970" stroke="#191970" points="128.1714,-51.847 119.1552,-57.411 129.6733,-58.684 128.1714,-51.847"/>
</g>
<!-- Node4 -->
<g id="node5" class="node">
<title>Node4</title>
<g id="a_node5"><a xlink:href="classSHA256Summation.xhtml" target="_top" xlink:title="SHA256Summation">
<polygon fill="#ffffff" stroke="#000000" points="346,-38.5 346,-57.5 457,-57.5 457,-38.5 346,-38.5"/>
<text text-anchor="middle" x="401.5" y="-45.5" font-family="Helvetica,sans-Serif" font-size="10.00" fill="#000000">SHA256Summation</text>
</a>
</g>
</g>
<!-- Node3&#45;&gt;Node4 -->
<g id="edge4" class="edge">
<title>Node3&#45;&gt;Node4</title>
<path fill="none" stroke="#191970" d="M320.3153,-37.9182C328.9086,-38.9854 337.581,-40.0623 345.8967,-41.095"/>
<polygon fill="#191970" stroke="#191970" points="320.6451,-34.4324 310.2899,-36.6733 319.7824,-41.379 320.6451,-34.4324"/>
</g>
<!-- Node5 -->
<g id="node6" class="node">
<title>Node5</title>
<g id="a_node6"><a xlink:href="classSHA512Summation.xhtml" target="_top" xlink:title="SHA512Summation">
<polygon fill="#ffffff" stroke="#000000" points="346,-.5 346,-19.5 457,-19.5 457,-.5 346,-.5"/>
<text text-anchor="middle" x="401.5" y="-7.5" font-family="Helvetica,sans-Serif" font-size="10.00" fill="#000000">SHA512Summation</text>
</a>
</g>
</g>
<!-- Node3&#45;&gt;Node5 -->
<g id="edge5" class="edge">
<title>Node3&#45;&gt;Node5</title>
<path fill="none" stroke="#191970" d="M320.3153,-20.0818C328.9086,-19.0146 337.581,-17.9377 345.8967,-16.905"/>
<polygon fill="#191970" stroke="#191970" points="319.7824,-16.621 310.2899,-21.3267 320.6451,-23.5676 319.7824,-16.621"/>
</g>
</g>
</svg>
