<?xml version="1.0" encoding="UTF-8" standalone="no"?>
<!DOCTYPE svg PUBLIC "-//W3C//DTD SVG 1.1//EN"
 "http://www.w3.org/Graphics/SVG/1.1/DTD/svg11.dtd">
<!-- Generated by graphviz version 2.40.1 (20161225.0304)
 -->
<!-- Title: apt&#45;pkg/pkgcache.h Pages: 1 -->
<svg width="2053pt" height="588pt"
 viewBox="0.00 0.00 2053.00 588.00" xmlns="http://www.w3.org/2000/svg" xmlns:xlink="http://www.w3.org/1999/xlink">
<g id="graph0" class="graph" transform="scale(1 1) rotate(0) translate(4 584)">
<title>apt&#45;pkg/pkgcache.h</title>
<polygon fill="#ffffff" stroke="transparent" points="-4,4 -4,-584 2049,-584 2049,4 -4,4"/>
<!-- Node10 -->
<g id="node1" class="node">
<title>Node10</title>
<polygon fill="#bfbfbf" stroke="#000000" points="835.5,-560.5 835.5,-579.5 948.5,-579.5 948.5,-560.5 835.5,-560.5"/>
<text text-anchor="middle" x="892" y="-567.5" font-family="Helvetica,sans-Serif" font-size="10.00" fill="#000000">apt&#45;pkg/pkgcache.h</text>
</g>
<!-- Node11 -->
<g id="node2" class="node">
<title>Node11</title>
<g id="a_node2"><a xlink:href="acquire-item_8h.xhtml" target="_top" xlink:title="apt&#45;pkg/acquire&#45;item.h">
<polygon fill="#ffffff" stroke="#000000" points="1469,-224.5 1469,-243.5 1597,-243.5 1597,-224.5 1469,-224.5"/>
<text text-anchor="middle" x="1533" y="-231.5" font-family="Helvetica,sans-Serif" font-size="10.00" fill="#000000">apt&#45;pkg/acquire&#45;item.h</text>
</a>
</g>
</g>
<!-- Node10&#45;&gt;Node11 -->
<g id="edge1" class="edge">
<title>Node10&#45;&gt;Node11</title>
<path fill="none" stroke="#191970" d="M958.9699,-569.1401C1193.9049,-565.8793 1968.8062,-552.9656 2013,-524 2040.2649,-506.1299 2045,-490.5993 2045,-458 2045,-458 2045,-458 2045,-346 2045,-300.6468 1734.4501,-258.0037 1597.0681,-241.3581"/>
<polygon fill="#191970" stroke="#191970" points="958.8053,-565.6419 948.8544,-569.2791 958.9015,-572.6413 958.8053,-565.6419"/>
</g>
<!-- Node12 -->
<g id="node3" class="node">
<title>Node12</title>
<g id="a_node3"><a xlink:href="algorithms_8h_source.xhtml" target="_top" xlink:title="apt&#45;pkg/algorithms.h">
<polygon fill="#ffffff" stroke="#000000" points="290.5,-.5 290.5,-19.5 409.5,-19.5 409.5,-.5 290.5,-.5"/>
<text text-anchor="middle" x="350" y="-7.5" font-family="Helvetica,sans-Serif" font-size="10.00" fill="#000000">apt&#45;pkg/algorithms.h</text>
</a>
</g>
</g>
<!-- Node10&#45;&gt;Node12 -->
<g id="edge2" class="edge">
<title>Node10&#45;&gt;Node12</title>
<path fill="none" stroke="#191970" d="M825.0495,-569.3744C638.6675,-567.2071 123.0056,-558.1587 55,-524 20.879,-506.8613 0,-496.1834 0,-458 0,-458 0,-458 0,-122 0,-61.7895 190.2664,-29.4807 290.2305,-16.6611"/>
<polygon fill="#191970" stroke="#191970" points="825.223,-572.8765 835.2621,-569.4901 825.3024,-565.877 825.223,-572.8765"/>
</g>
<!-- Node13 -->
<g id="node4" class="node">
<title>Node13</title>
<g id="a_node4"><a xlink:href="cachefile_8h_source.xhtml" target="_top" xlink:title="apt&#45;pkg/cachefile.h">
<polygon fill="#ffffff" stroke="#000000" points="136,-224.5 136,-243.5 246,-243.5 246,-224.5 136,-224.5"/>
<text text-anchor="middle" x="191" y="-231.5" font-family="Helvetica,sans-Serif" font-size="10.00" fill="#000000">apt&#45;pkg/cachefile.h</text>
</a>
</g>
</g>
<!-- Node10&#45;&gt;Node13 -->
<g id="edge3" class="edge">
<title>Node10&#45;&gt;Node13</title>
<path fill="none" stroke="#191970" d="M825.3926,-569.0168C656.2127,-566.0678 219.2584,-555.4639 162,-524 130.2125,-506.5325 114,-494.2706 114,-458 114,-458 114,-458 114,-346 114,-301.1668 156.4149,-261.1885 178.285,-243.5547"/>
<polygon fill="#191970" stroke="#191970" points="825.3618,-572.5166 835.4201,-569.188 825.4814,-565.5177 825.3618,-572.5166"/>
</g>
<!-- Node14 -->
<g id="node5" class="node">
<title>Node14</title>
<g id="a_node5"><a xlink:href="cacheset_8h.xhtml" target="_top" xlink:title="apt&#45;pkg/cacheset.h">
<polygon fill="#ffffff" stroke="#000000" points="115,-168.5 115,-187.5 225,-187.5 225,-168.5 115,-168.5"/>
<text text-anchor="middle" x="170" y="-175.5" font-family="Helvetica,sans-Serif" font-size="10.00" fill="#000000">apt&#45;pkg/cacheset.h</text>
</a>
</g>
</g>
<!-- Node10&#45;&gt;Node14 -->
<g id="edge11" class="edge">
<title>Node10&#45;&gt;Node14</title>
<path fill="none" stroke="#191970" d="M825.2389,-569.0511C650.6807,-566.1385 189.9671,-555.5244 129,-524 95.5824,-506.7207 76,-495.6206 76,-458 76,-458 76,-458 76,-290 76,-242.5296 126.157,-204.649 153.1947,-187.6776"/>
<polygon fill="#191970" stroke="#191970" points="825.2686,-572.5519 835.3246,-569.2161 825.3832,-565.5529 825.2686,-572.5519"/>
</g>
<!-- Node15 -->
<g id="node6" class="node">
<title>Node15</title>
<g id="a_node6"><a xlink:href="edsp_8h.xhtml" target="_top" xlink:title="apt&#45;pkg/edsp.h">
<polygon fill="#ffffff" stroke="#000000" points="231.5,-112.5 231.5,-131.5 320.5,-131.5 320.5,-112.5 231.5,-112.5"/>
<text text-anchor="middle" x="276" y="-119.5" font-family="Helvetica,sans-Serif" font-size="10.00" fill="#000000">apt&#45;pkg/edsp.h</text>
</a>
</g>
</g>
<!-- Node10&#45;&gt;Node15 -->
<g id="edge41" class="edge">
<title>Node10&#45;&gt;Node15</title>
<path fill="none" stroke="#191970" d="M825.1054,-567.8755C690.8983,-563.0867 398.3926,-549.8004 361,-524 318.1412,-494.4279 274,-389.9475 274,-290 274,-290 274,-290 274,-234 274,-196.0773 275.1604,-150.9433 275.7134,-131.5873"/>
<polygon fill="#191970" stroke="#191970" points="825.1482,-571.3791 835.265,-568.2326 825.3941,-564.3834 825.1482,-571.3791"/>
</g>
<!-- Node16 -->
<g id="node7" class="node">
<title>Node16</title>
<g id="a_node7"><a xlink:href="packagemanager_8h_source.xhtml" target="_top" xlink:title="apt&#45;pkg/packagemanager.h">
<polygon fill="#ffffff" stroke="#000000" points="383,-56.5 383,-75.5 533,-75.5 533,-56.5 383,-56.5"/>
<text text-anchor="middle" x="458" y="-63.5" font-family="Helvetica,sans-Serif" font-size="10.00" fill="#000000">apt&#45;pkg/packagemanager.h</text>
</a>
</g>
</g>
<!-- Node10&#45;&gt;Node16 -->
<g id="edge52" class="edge">
<title>Node10&#45;&gt;Node16</title>
<path fill="none" stroke="#191970" d="M852.437,-557.1617C828.1772,-548.7831 796.7468,-537.0099 770,-524 754.5776,-516.4984 752.4803,-511.3813 737,-504 627.8691,-451.9641 563.6806,-500.2111 481,-412 460.1253,-389.729 462,-376.5246 462,-346 462,-346 462,-346 462,-178 462,-140.0592 459.6791,-94.9347 458.5731,-75.5843"/>
<polygon fill="#191970" stroke="#191970" points="851.4306,-560.5163 862.0251,-560.4259 853.6866,-553.8898 851.4306,-560.5163"/>
</g>
<!-- Node17 -->
<g id="node8" class="node">
<title>Node17</title>
<g id="a_node8"><a xlink:href="dpkgpm_8h_source.xhtml" target="_top" xlink:title="apt&#45;pkg/deb/dpkgpm.h">
<polygon fill="#ffffff" stroke="#000000" points="665.5,-.5 665.5,-19.5 792.5,-19.5 792.5,-.5 665.5,-.5"/>
<text text-anchor="middle" x="729" y="-7.5" font-family="Helvetica,sans-Serif" font-size="10.00" fill="#000000">apt&#45;pkg/deb/dpkgpm.h</text>
</a>
</g>
</g>
<!-- Node10&#45;&gt;Node17 -->
<g id="edge17" class="edge">
<title>Node10&#45;&gt;Node17</title>
<path fill="none" stroke="#191970" d="M902.489,-551.4209C913.7366,-529.7168 930,-492.3882 930,-458 930,-458 930,-458 930,-122 930,-58.0839 851.4844,-30.313 792.5977,-18.4729"/>
<polygon fill="#191970" stroke="#191970" points="899.2683,-550.0196 897.607,-560.4834 905.431,-553.3395 899.2683,-550.0196"/>
</g>
<!-- Node18 -->
<g id="node9" class="node">
<title>Node18</title>
<g id="a_node9"><a xlink:href="statechanges_8h_source.xhtml" target="_top" xlink:title="apt&#45;pkg/statechanges.h">
<polygon fill="#ffffff" stroke="#000000" points="54.5,-112.5 54.5,-131.5 185.5,-131.5 185.5,-112.5 54.5,-112.5"/>
<text text-anchor="middle" x="120" y="-119.5" font-family="Helvetica,sans-Serif" font-size="10.00" fill="#000000">apt&#45;pkg/statechanges.h</text>
</a>
</g>
</g>
<!-- Node10&#45;&gt;Node18 -->
<g id="edge65" class="edge">
<title>Node10&#45;&gt;Node18</title>
<path fill="none" stroke="#191970" d="M825.1927,-569.2219C644.6973,-566.6915 156.4828,-556.8567 92,-524 58.2307,-506.7931 38,-495.9005 38,-458 38,-458 38,-458 38,-234 38,-188.4532 82.6949,-149.1125 106.0898,-131.6399"/>
<polygon fill="#191970" stroke="#191970" points="825.3041,-572.7237 835.3511,-569.3612 825.4,-565.7244 825.3041,-572.7237"/>
</g>
<!-- Node19 -->
<g id="node10" class="node">
<title>Node19</title>
<g id="a_node10"><a xlink:href="cachefilter_8h.xhtml" target="_top" xlink:title="apt&#45;pkg/cachefilter.h">
<polygon fill="#ffffff" stroke="#000000" points="502,-504.5 502,-523.5 618,-523.5 618,-504.5 502,-504.5"/>
<text text-anchor="middle" x="560" y="-511.5" font-family="Helvetica,sans-Serif" font-size="10.00" fill="#000000">apt&#45;pkg/cachefilter.h</text>
</a>
</g>
</g>
<!-- Node10&#45;&gt;Node19 -->
<g id="edge10" class="edge">
<title>Node10&#45;&gt;Node19</title>
<path fill="none" stroke="#191970" d="M825.3492,-558.7577C764.0882,-548.4245 674.2692,-533.2743 616.4618,-523.5237"/>
<polygon fill="#191970" stroke="#191970" points="824.8615,-562.2248 835.3044,-560.4369 826.0259,-555.3223 824.8615,-562.2248"/>
</g>
<!-- Node20 -->
<g id="node11" class="node">
<title>Node20</title>
<g id="a_node11"><a xlink:href="clean_8h_source.xhtml" target="_top" xlink:title="apt&#45;pkg/clean.h">
<polygon fill="#ffffff" stroke="#000000" points="636,-504.5 636,-523.5 728,-523.5 728,-504.5 636,-504.5"/>
<text text-anchor="middle" x="682" y="-511.5" font-family="Helvetica,sans-Serif" font-size="10.00" fill="#000000">apt&#45;pkg/clean.h</text>
</a>
</g>
</g>
<!-- Node10&#45;&gt;Node20 -->
<g id="edge12" class="edge">
<title>Node10&#45;&gt;Node20</title>
<path fill="none" stroke="#191970" d="M845.9496,-557.7199C807.3355,-547.4228 752.9861,-532.9296 717.6292,-523.5011"/>
<polygon fill="#191970" stroke="#191970" points="845.3355,-561.1784 855.8997,-560.3733 847.1392,-554.4147 845.3355,-561.1784"/>
</g>
<!-- Node21 -->
<g id="node12" class="node">
<title>Node21</title>
<g id="a_node12"><a xlink:href="debindexfile_8h_source.xhtml" target="_top" xlink:title="apt&#45;pkg/deb/debindexfile.h">
<polygon fill="#ffffff" stroke="#000000" points="1231.5,-392.5 1231.5,-411.5 1378.5,-411.5 1378.5,-392.5 1231.5,-392.5"/>
<text text-anchor="middle" x="1305" y="-399.5" font-family="Helvetica,sans-Serif" font-size="10.00" fill="#000000">apt&#45;pkg/deb/debindexfile.h</text>
</a>
</g>
</g>
<!-- Node10&#45;&gt;Node21 -->
<g id="edge13" class="edge">
<title>Node10&#45;&gt;Node21</title>
<path fill="none" stroke="#191970" d="M939.8058,-557.8501C970.7709,-549.4838 1011.7479,-537.4747 1047,-524 1140.0254,-488.4422 1246.0212,-433.5119 1287.2724,-411.5503"/>
<polygon fill="#191970" stroke="#191970" points="938.8823,-554.474 930.124,-560.4356 940.6885,-561.237 938.8823,-554.474"/>
</g>
<!-- Node22 -->
<g id="node13" class="node">
<title>Node22</title>
<g id="a_node13"><a xlink:href="deblistparser_8h_source.xhtml" target="_top" xlink:title="apt&#45;pkg/deb/deblistparser.h">
<polygon fill="#ffffff" stroke="#000000" points="1687,-392.5 1687,-411.5 1837,-411.5 1837,-392.5 1687,-392.5"/>
<text text-anchor="middle" x="1762" y="-399.5" font-family="Helvetica,sans-Serif" font-size="10.00" fill="#000000">apt&#45;pkg/deb/deblistparser.h</text>
</a>
</g>
</g>
<!-- Node10&#45;&gt;Node22 -->
<g id="edge14" class="edge">
<title>Node10&#45;&gt;Node22</title>
<path fill="none" stroke="#191970" d="M959.096,-568.1978C1053.6301,-564.6356 1231.0239,-554.1929 1379,-524 1518.4874,-495.5391 1678.8755,-434.9666 1738.2779,-411.5333"/>
<polygon fill="#191970" stroke="#191970" points="958.6864,-564.7103 948.8197,-568.5701 958.9399,-571.7057 958.6864,-564.7103"/>
</g>
<!-- Node23 -->
<g id="node14" class="node">
<title>Node23</title>
<g id="a_node14"><a xlink:href="debrecords_8h_source.xhtml" target="_top" xlink:title="apt&#45;pkg/deb/debrecords.h">
<polygon fill="#ffffff" stroke="#000000" points="1072.5,-392.5 1072.5,-411.5 1213.5,-411.5 1213.5,-392.5 1072.5,-392.5"/>
<text text-anchor="middle" x="1143" y="-399.5" font-family="Helvetica,sans-Serif" font-size="10.00" fill="#000000">apt&#45;pkg/deb/debrecords.h</text>
</a>
</g>
</g>
<!-- Node10&#45;&gt;Node23 -->
<g id="edge15" class="edge">
<title>Node10&#45;&gt;Node23</title>
<path fill="none" stroke="#191970" d="M941.9951,-557.5671C966.6483,-550.0942 996.1331,-539.0686 1020,-524 1071.373,-491.5652 1118.2552,-434.357 1135.7478,-411.6654"/>
<polygon fill="#191970" stroke="#191970" points="940.7254,-554.2917 932.1076,-560.4549 942.6879,-561.0109 940.7254,-554.2917"/>
</g>
<!-- Node24 -->
<g id="node15" class="node">
<title>Node24</title>
<g id="a_node15"><a xlink:href="debsystem_8h_source.xhtml" target="_top" xlink:title="apt&#45;pkg/deb/debsystem.h">
<polygon fill="#ffffff" stroke="#000000" points="490.5,-392.5 490.5,-411.5 631.5,-411.5 631.5,-392.5 490.5,-392.5"/>
<text text-anchor="middle" x="561" y="-399.5" font-family="Helvetica,sans-Serif" font-size="10.00" fill="#000000">apt&#45;pkg/deb/debsystem.h</text>
</a>
</g>
</g>
<!-- Node10&#45;&gt;Node24 -->
<g id="edge16" class="edge">
<title>Node10&#45;&gt;Node24</title>
<path fill="none" stroke="#191970" d="M865.6934,-555.3559C841.0993,-541.7636 803.2747,-521.1107 770,-504 701.4193,-468.734 618.8328,-429.3126 581.3156,-411.5674"/>
<polygon fill="#191970" stroke="#191970" points="864.303,-558.5868 874.7466,-560.3707 867.6949,-552.4634 864.303,-558.5868"/>
</g>
<!-- Node25 -->
<g id="node16" class="node">
<title>Node25</title>
<g id="a_node16"><a xlink:href="depcache_8h_source.xhtml" target="_top" xlink:title="apt&#45;pkg/depcache.h">
<polygon fill="#ffffff" stroke="#000000" points="370.5,-504.5 370.5,-523.5 483.5,-523.5 483.5,-504.5 370.5,-504.5"/>
<text text-anchor="middle" x="427" y="-511.5" font-family="Helvetica,sans-Serif" font-size="10.00" fill="#000000">apt&#45;pkg/depcache.h</text>
</a>
</g>
</g>
<!-- Node10&#45;&gt;Node25 -->
<g id="edge18" class="edge">
<title>Node10&#45;&gt;Node25</title>
<path fill="none" stroke="#191970" d="M825.092,-563.0217C745.7584,-554.5773 609.5856,-539.5477 493,-524 489.8984,-523.5864 486.7169,-523.1488 483.5068,-522.6968"/>
<polygon fill="#191970" stroke="#191970" points="825.1135,-566.5435 835.4271,-564.1187 825.8524,-559.5826 825.1135,-566.5435"/>
</g>
<!-- Node26 -->
<g id="node17" class="node">
<title>Node26</title>
<g id="a_node17"><a xlink:href="pkgsystem_8h_source.xhtml" target="_top" xlink:title="apt&#45;pkg/pkgsystem.h">
<polygon fill="#ffffff" stroke="#000000" points="744,-448.5 744,-467.5 864,-467.5 864,-448.5 744,-448.5"/>
<text text-anchor="middle" x="804" y="-455.5" font-family="Helvetica,sans-Serif" font-size="10.00" fill="#000000">apt&#45;pkg/pkgsystem.h</text>
</a>
</g>
</g>
<!-- Node10&#45;&gt;Node26 -->
<g id="edge61" class="edge">
<title>Node10&#45;&gt;Node26</title>
<path fill="none" stroke="#191970" d="M878.2715,-552.5274C859.4469,-528.5688 826.2754,-486.3505 811.4838,-467.5249"/>
<polygon fill="#191970" stroke="#191970" points="875.5668,-554.7501 884.4972,-560.4509 881.071,-550.4253 875.5668,-554.7501"/>
</g>
<!-- Node27 -->
<g id="node18" class="node">
<title>Node27</title>
<g id="a_node18"><a xlink:href="edspsystem_8h_source.xhtml" target="_top" xlink:title="apt&#45;pkg/edsp/edspsystem.h">
<polygon fill="#ffffff" stroke="#000000" points="750,-392.5 750,-411.5 902,-411.5 902,-392.5 750,-392.5"/>
<text text-anchor="middle" x="826" y="-399.5" font-family="Helvetica,sans-Serif" font-size="10.00" fill="#000000">apt&#45;pkg/edsp/edspsystem.h</text>
</a>
</g>
</g>
<!-- Node10&#45;&gt;Node27 -->
<g id="edge40" class="edge">
<title>Node10&#45;&gt;Node27</title>
<path fill="none" stroke="#191970" d="M892.6553,-550.0532C892.6678,-524.8769 889.9285,-480.8912 873,-448 865.2671,-432.9753 850.7666,-419.9484 839.9081,-411.631"/>
<polygon fill="#191970" stroke="#191970" points="889.1536,-550.1362 892.497,-560.1896 896.1528,-550.2455 889.1536,-550.1362"/>
</g>
<!-- Node31 -->
<g id="node22" class="node">
<title>Node31</title>
<g id="a_node22"><a xlink:href="metaindex_8h_source.xhtml" target="_top" xlink:title="apt&#45;pkg/metaindex.h">
<polygon fill="#ffffff" stroke="#000000" points="996.5,-336.5 996.5,-355.5 1115.5,-355.5 1115.5,-336.5 996.5,-336.5"/>
<text text-anchor="middle" x="1056" y="-343.5" font-family="Helvetica,sans-Serif" font-size="10.00" fill="#000000">apt&#45;pkg/metaindex.h</text>
</a>
</g>
</g>
<!-- Node10&#45;&gt;Node31 -->
<g id="edge50" class="edge">
<title>Node10&#45;&gt;Node31</title>
<path fill="none" stroke="#191970" d="M932.2458,-556.6176C949.4059,-549.2412 968.5325,-538.5685 982,-524 1029.9345,-472.1466 1049.1229,-384.8484 1054.3877,-355.7598"/>
<polygon fill="#191970" stroke="#191970" points="930.9159,-553.38 922.9631,-560.3802 933.5455,-559.8673 930.9159,-553.38"/>
</g>
<!-- Node32 -->
<g id="node23" class="node">
<title>Node32</title>
<g id="a_node23"><a xlink:href="sourcelist_8h_source.xhtml" target="_top" xlink:title="apt&#45;pkg/sourcelist.h">
<polygon fill="#ffffff" stroke="#000000" points="958.5,-280.5 958.5,-299.5 1071.5,-299.5 1071.5,-280.5 958.5,-280.5"/>
<text text-anchor="middle" x="1015" y="-287.5" font-family="Helvetica,sans-Serif" font-size="10.00" fill="#000000">apt&#45;pkg/sourcelist.h</text>
</a>
</g>
</g>
<!-- Node10&#45;&gt;Node32 -->
<g id="edge64" class="edge">
<title>Node10&#45;&gt;Node32</title>
<path fill="none" stroke="#191970" d="M914.6849,-554.0669C924.7918,-546.0183 936.1578,-535.5207 944,-524 961.5636,-498.198 968,-489.2125 968,-458 968,-458 968,-458 968,-402 968,-361.3018 994.7136,-318.3109 1007.8617,-299.6161"/>
<polygon fill="#191970" stroke="#191970" points="912.4358,-551.3802 906.5962,-560.2204 916.6741,-556.9513 912.4358,-551.3802"/>
</g>
<!-- Node33 -->
<g id="node24" class="node">
<title>Node33</title>
<g id="a_node24"><a xlink:href="policy_8h_source.xhtml" target="_top" xlink:title="apt&#45;pkg/policy.h">
<polygon fill="#ffffff" stroke="#000000" points="147,-448.5 147,-467.5 241,-467.5 241,-448.5 147,-448.5"/>
<text text-anchor="middle" x="194" y="-455.5" font-family="Helvetica,sans-Serif" font-size="10.00" fill="#000000">apt&#45;pkg/policy.h</text>
</a>
</g>
</g>
<!-- Node10&#45;&gt;Node33 -->
<g id="edge62" class="edge">
<title>Node10&#45;&gt;Node33</title>
<path fill="none" stroke="#191970" d="M825.3119,-568.1908C650.9143,-563.1366 193.2064,-547.6683 171,-524 156.0555,-508.0716 173.4975,-481.9131 185.1709,-467.7854"/>
<polygon fill="#191970" stroke="#191970" points="825.2946,-571.6916 835.3911,-568.4804 825.4958,-564.6945 825.2946,-571.6916"/>
</g>
<!-- Node34 -->
<g id="node25" class="node">
<title>Node34</title>
<g id="a_node25"><a xlink:href="edsplistparser_8h_source.xhtml" target="_top" xlink:title="apt&#45;pkg/edsp/edsplistparser.h">
<polygon fill="#ffffff" stroke="#000000" points="1855.5,-392.5 1855.5,-411.5 2016.5,-411.5 2016.5,-392.5 1855.5,-392.5"/>
<text text-anchor="middle" x="1936" y="-399.5" font-family="Helvetica,sans-Serif" font-size="10.00" fill="#000000">apt&#45;pkg/edsp/edsplistparser.h</text>
</a>
</g>
</g>
<!-- Node10&#45;&gt;Node34 -->
<g id="edge39" class="edge">
<title>Node10&#45;&gt;Node34</title>
<path fill="none" stroke="#191970" d="M958.8725,-568.2604C1145.7394,-563.1329 1664.5488,-546.9845 1738,-524 1816.9944,-499.2809 1896.442,-435.9184 1924.9617,-411.6535"/>
<polygon fill="#191970" stroke="#191970" points="958.5362,-564.7681 948.6353,-568.5393 958.727,-571.7655 958.5362,-564.7681"/>
</g>
<!-- Node35 -->
<g id="node26" class="node">
<title>Node35</title>
<g id="a_node26"><a xlink:href="indexfile_8h_source.xhtml" target="_top" xlink:title="apt&#45;pkg/indexfile.h">
<polygon fill="#ffffff" stroke="#000000" points="1435,-448.5 1435,-467.5 1543,-467.5 1543,-448.5 1435,-448.5"/>
<text text-anchor="middle" x="1489" y="-455.5" font-family="Helvetica,sans-Serif" font-size="10.00" fill="#000000">apt&#45;pkg/indexfile.h</text>
</a>
</g>
</g>
<!-- Node10&#45;&gt;Node35 -->
<g id="edge42" class="edge">
<title>Node10&#45;&gt;Node35</title>
<path fill="none" stroke="#191970" d="M958.8374,-565.6459C1065.2146,-558.2884 1268.1545,-542.3875 1338,-524 1388.9079,-510.598 1444.6425,-482.3657 1471.9664,-467.5451"/>
<polygon fill="#191970" stroke="#191970" points="958.2771,-562.176 948.5401,-566.3523 958.7562,-569.1596 958.2771,-562.176"/>
</g>
<!-- Node37 -->
<g id="node28" class="node">
<title>Node37</title>
<g id="a_node28"><a xlink:href="orderlist_8h_source.xhtml" target="_top" xlink:title="apt&#45;pkg/orderlist.h">
<polygon fill="#ffffff" stroke="#000000" points="1599.5,-504.5 1599.5,-523.5 1706.5,-523.5 1706.5,-504.5 1599.5,-504.5"/>
<text text-anchor="middle" x="1653" y="-511.5" font-family="Helvetica,sans-Serif" font-size="10.00" fill="#000000">apt&#45;pkg/orderlist.h</text>
</a>
</g>
</g>
<!-- Node10&#45;&gt;Node37 -->
<g id="edge51" class="edge">
<title>Node10&#45;&gt;Node37</title>
<path fill="none" stroke="#191970" d="M958.8046,-567.339C1082.5822,-562.0148 1355.8414,-548.4162 1585,-524 1589.6275,-523.507 1594.4232,-522.932 1599.2286,-522.3117"/>
<polygon fill="#191970" stroke="#191970" points="958.5661,-563.8459 948.7242,-567.7685 958.8642,-570.8395 958.5661,-563.8459"/>
</g>
<!-- Node38 -->
<g id="node29" class="node">
<title>Node38</title>
<g id="a_node29"><a xlink:href="pkgcachegen_8h_source.xhtml" target="_top" xlink:title="apt&#45;pkg/pkgcachegen.h">
<polygon fill="#ffffff" stroke="#000000" points="1682.5,-448.5 1682.5,-467.5 1813.5,-467.5 1813.5,-448.5 1682.5,-448.5"/>
<text text-anchor="middle" x="1748" y="-455.5" font-family="Helvetica,sans-Serif" font-size="10.00" fill="#000000">apt&#45;pkg/pkgcachegen.h</text>
</a>
</g>
</g>
<!-- Node10&#45;&gt;Node38 -->
<g id="edge53" class="edge">
<title>Node10&#45;&gt;Node38</title>
<path fill="none" stroke="#191970" d="M958.8569,-568.1083C1149.5893,-562.4689 1684.6769,-544.8619 1716,-524 1735.5014,-511.0117 1743.5008,-482.5984 1746.4578,-467.6433"/>
<polygon fill="#191970" stroke="#191970" points="958.577,-564.6149 948.6842,-568.4074 958.7827,-571.6119 958.577,-564.6149"/>
</g>
<!-- Node39 -->
<g id="node30" class="node">
<title>Node39</title>
<g id="a_node30"><a xlink:href="pkgrecords_8h_source.xhtml" target="_top" xlink:title="apt&#45;pkg/pkgrecords.h">
<polygon fill="#ffffff" stroke="#000000" points="1209,-504.5 1209,-523.5 1329,-523.5 1329,-504.5 1209,-504.5"/>
<text text-anchor="middle" x="1269" y="-511.5" font-family="Helvetica,sans-Serif" font-size="10.00" fill="#000000">apt&#45;pkg/pkgrecords.h</text>
</a>
</g>
</g>
<!-- Node10&#45;&gt;Node39 -->
<g id="edge56" class="edge">
<title>Node10&#45;&gt;Node39</title>
<path fill="none" stroke="#191970" d="M959.0078,-560.0466C1029.8937,-549.5171 1140.7183,-533.0551 1208.8777,-522.9306"/>
<polygon fill="#191970" stroke="#191970" points="958.2261,-556.6242 948.8489,-561.5556 959.2546,-563.5482 958.2261,-556.6242"/>
</g>
<!-- Node40 -->
<g id="node31" class="node">
<title>Node40</title>
<g id="a_node31"><a xlink:href="prettyprinters_8h_source.xhtml" target="_top" xlink:title="apt&#45;pkg/prettyprinters.h">
<polygon fill="#ffffff" stroke="#000000" points="1870.5,-504.5 1870.5,-523.5 2003.5,-523.5 2003.5,-504.5 1870.5,-504.5"/>
<text text-anchor="middle" x="1937" y="-511.5" font-family="Helvetica,sans-Serif" font-size="10.00" fill="#000000">apt&#45;pkg/prettyprinters.h</text>
</a>
</g>
</g>
<!-- Node10&#45;&gt;Node40 -->
<g id="edge63" class="edge">
<title>Node10&#45;&gt;Node40</title>
<path fill="none" stroke="#191970" d="M959.0283,-568.535C1116.0429,-564.7249 1519.8219,-552.7317 1856,-524 1860.6589,-523.6018 1865.4626,-523.1401 1870.2964,-522.6379"/>
<polygon fill="#191970" stroke="#191970" points="958.5131,-565.0463 948.5998,-568.7848 958.6808,-572.0443 958.5131,-565.0463"/>
</g>
<!-- Node41 -->
<g id="node32" class="node">
<title>Node41</title>
<g id="a_node32"><a xlink:href="versionmatch_8h_source.xhtml" target="_top" xlink:title="apt&#45;pkg/versionmatch.h">
<polygon fill="#ffffff" stroke="#000000" points="180.5,-504.5 180.5,-523.5 313.5,-523.5 313.5,-504.5 180.5,-504.5"/>
<text text-anchor="middle" x="247" y="-511.5" font-family="Helvetica,sans-Serif" font-size="10.00" fill="#000000">apt&#45;pkg/versionmatch.h</text>
</a>
</g>
</g>
<!-- Node10&#45;&gt;Node41 -->
<g id="edge66" class="edge">
<title>Node10&#45;&gt;Node41</title>
<path fill="none" stroke="#191970" d="M825.2995,-565.4592C719.6703,-558.0657 507.4667,-542.3889 328,-524 323.3485,-523.5234 318.5502,-523.0035 313.7204,-522.4594"/>
<polygon fill="#191970" stroke="#191970" points="825.2728,-568.9657 835.4921,-566.17 825.7598,-561.9827 825.2728,-568.9657"/>
</g>
<!-- Node13&#45;&gt;Node14 -->
<g id="edge4" class="edge">
<title>Node13&#45;&gt;Node14</title>
<path fill="none" stroke="#191970" d="M183.781,-214.7493C180.3524,-205.6064 176.4049,-195.0798 173.616,-187.6427"/>
<polygon fill="#191970" stroke="#191970" points="180.5536,-216.1112 187.3421,-224.2455 187.1079,-213.6533 180.5536,-216.1112"/>
</g>
<!-- Node14&#45;&gt;Node15 -->
<g id="edge5" class="edge">
<title>Node14&#45;&gt;Node15</title>
<path fill="none" stroke="#191970" d="M197.5222,-163.46C216.4908,-153.4388 241.1727,-140.3993 257.7478,-131.6427"/>
<polygon fill="#191970" stroke="#191970" points="195.6708,-160.4796 188.4638,-168.2455 198.9407,-166.669 195.6708,-160.4796"/>
</g>
<!-- Node14&#45;&gt;Node18 -->
<g id="edge9" class="edge">
<title>Node14&#45;&gt;Node18</title>
<path fill="none" stroke="#191970" d="M154.3753,-160.5004C145.8727,-150.9775 135.6782,-139.5596 128.6095,-131.6427"/>
<polygon fill="#191970" stroke="#191970" points="152.0197,-163.1172 161.2907,-168.2455 157.2413,-158.4551 152.0197,-163.1172"/>
</g>
<!-- Node15&#45;&gt;Node16 -->
<g id="edge6" class="edge">
<title>Node15&#45;&gt;Node16</title>
<path fill="none" stroke="#191970" d="M317.1986,-109.3235C350.5758,-99.0536 396.8699,-84.8093 427.1214,-75.5011"/>
<polygon fill="#191970" stroke="#191970" points="315.8154,-106.0871 307.2869,-112.3733 317.874,-112.7776 315.8154,-106.0871"/>
</g>
<!-- Node16&#45;&gt;Node12 -->
<g id="edge7" class="edge">
<title>Node16&#45;&gt;Node12</title>
<path fill="none" stroke="#191970" d="M430.2229,-51.5971C410.8618,-41.558 385.5615,-28.4393 368.5966,-19.6427"/>
<polygon fill="#191970" stroke="#191970" points="428.6992,-54.7495 439.1878,-56.2455 431.9214,-48.5352 428.6992,-54.7495"/>
</g>
<!-- Node16&#45;&gt;Node17 -->
<g id="edge8" class="edge">
<title>Node16&#45;&gt;Node17</title>
<path fill="none" stroke="#191970" d="M514.2712,-54.372C564.2199,-44.0505 636.3098,-29.1537 682.9122,-19.5237"/>
<polygon fill="#191970" stroke="#191970" points="513.3634,-50.9856 504.2786,-56.4369 514.7801,-57.8407 513.3634,-50.9856"/>
</g>
<!-- Node25&#45;&gt;Node12 -->
<g id="edge19" class="edge">
<title>Node25&#45;&gt;Node12</title>
<path fill="none" stroke="#191970" d="M413.5244,-495.9976C407.9778,-487.8211 401.9417,-477.8002 398,-468 358.3836,-369.503 350,-340.1655 350,-234 350,-234 350,-234 350,-122 350,-84.0833 350,-38.9462 350,-19.5884"/>
<polygon fill="#191970" stroke="#191970" points="410.7995,-498.2056 419.441,-504.3354 416.5082,-494.1546 410.7995,-498.2056"/>
</g>
<!-- Node25&#45;&gt;Node13 -->
<g id="edge20" class="edge">
<title>Node25&#45;&gt;Node13</title>
<path fill="none" stroke="#191970" d="M388.0163,-500.5126C370.1147,-492.9495 349.4773,-482.1547 334,-468 257.7608,-398.276 208.0224,-278.622 194.6371,-243.7832"/>
<polygon fill="#191970" stroke="#191970" points="387.0465,-503.895 397.6301,-504.3826 389.6605,-497.4014 387.0465,-503.895"/>
</g>
<!-- Node25&#45;&gt;Node15 -->
<g id="edge21" class="edge">
<title>Node25&#45;&gt;Node15</title>
<path fill="none" stroke="#191970" d="M419.6535,-494.9282C392.6707,-424.8803 299.5767,-183.2059 279.7373,-131.7021"/>
<polygon fill="#191970" stroke="#191970" points="416.4067,-496.2366 423.2674,-504.3101 422.9388,-493.7203 416.4067,-496.2366"/>
</g>
<!-- Node25&#45;&gt;Node16 -->
<g id="edge22" class="edge">
<title>Node25&#45;&gt;Node16</title>
<path fill="none" stroke="#191970" d="M426.1492,-494.1995C425.2622,-471.8209 424,-434.3 424,-402 424,-402 424,-402 424,-178 424,-138.5779 443.5255,-94.5856 452.9832,-75.5891"/>
<polygon fill="#191970" stroke="#191970" points="422.6613,-494.5666 426.5702,-504.4139 429.6553,-494.2783 422.6613,-494.5666"/>
</g>
<!-- Node25&#45;&gt;Node26 -->
<g id="edge23" class="edge">
<title>Node25&#45;&gt;Node26</title>
<path fill="none" stroke="#191970" d="M493.4477,-503.9371C587.0325,-489.9374 683.2748,-475.7422 743.7891,-466.8416"/>
<polygon fill="#191970" stroke="#191970" points="492.8954,-500.4807 483.5237,-505.4224 493.9316,-507.4035 492.8954,-500.4807"/>
</g>
<!-- Node25&#45;&gt;Node33 -->
<g id="edge37" class="edge">
<title>Node25&#45;&gt;Node33</title>
<path fill="none" stroke="#191970" d="M377.2682,-502.0473C334.3828,-491.7401 273.2748,-477.0532 233.6253,-467.5237"/>
<polygon fill="#191970" stroke="#191970" points="376.6696,-505.503 387.2106,-504.4369 378.3054,-498.6968 376.6696,-505.503"/>
</g>
<!-- Node26&#45;&gt;Node24 -->
<g id="edge24" class="edge">
<title>Node26&#45;&gt;Node24</title>
<path fill="none" stroke="#191970" d="M752.6989,-446.1775C707.946,-435.8641 643.8516,-421.0934 602.3259,-411.5237"/>
<polygon fill="#191970" stroke="#191970" points="751.9723,-449.6017 762.5029,-448.4369 753.5443,-442.7805 751.9723,-449.6017"/>
</g>
<!-- Node26&#45;&gt;Node27 -->
<g id="edge25" class="edge">
<title>Node26&#45;&gt;Node27</title>
<path fill="none" stroke="#191970" d="M811.5628,-438.7493C815.1546,-429.6064 819.2901,-419.0798 822.2118,-411.6427"/>
<polygon fill="#191970" stroke="#191970" points="808.2311,-437.6582 807.8321,-448.2455 814.7463,-440.2178 808.2311,-437.6582"/>
</g>
<!-- Node28 -->
<g id="node19" class="node">
<title>Node28</title>
<g id="a_node19"><a xlink:href="init_8h_source.xhtml" target="_top" xlink:title="apt&#45;pkg/init.h">
<polygon fill="#ffffff" stroke="#000000" points="650,-392.5 650,-411.5 732,-411.5 732,-392.5 650,-392.5"/>
<text text-anchor="middle" x="691" y="-399.5" font-family="Helvetica,sans-Serif" font-size="10.00" fill="#000000">apt&#45;pkg/init.h</text>
</a>
</g>
</g>
<!-- Node26&#45;&gt;Node28 -->
<g id="edge26" class="edge">
<title>Node26&#45;&gt;Node28</title>
<path fill="none" stroke="#191970" d="M775.4208,-443.8368C754.9942,-433.7139 728.0638,-420.3679 710.1719,-411.5011"/>
<polygon fill="#191970" stroke="#191970" points="774.0604,-447.0688 784.5746,-448.3733 777.1687,-440.7968 774.0604,-447.0688"/>
</g>
<!-- Node28&#45;&gt;Node16 -->
<g id="edge36" class="edge">
<title>Node28&#45;&gt;Node16</title>
<path fill="none" stroke="#191970" d="M649.3727,-388.8158C630.8141,-381.3922 609.658,-370.6259 594,-356 569.4251,-333.0449 557,-323.6283 557,-290 557,-290 557,-290 557,-178 557,-129.7296 504.7386,-92.4781 476.1581,-75.7153"/>
<polygon fill="#191970" stroke="#191970" points="648.2068,-392.1169 658.798,-392.396 650.6925,-385.5731 648.2068,-392.1169"/>
</g>
<!-- Node28&#45;&gt;Node17 -->
<g id="edge29" class="edge">
<title>Node28&#45;&gt;Node17</title>
<path fill="none" stroke="#191970" d="M701.489,-383.4209C712.7366,-361.7168 729,-324.3882 729,-290 729,-290 729,-290 729,-122 729,-84.0833 729,-38.9462 729,-19.5884"/>
<polygon fill="#191970" stroke="#191970" points="698.2683,-382.0196 696.607,-392.4834 704.431,-385.3395 698.2683,-382.0196"/>
</g>
<!-- Node29 -->
<g id="node20" class="node">
<title>Node29</title>
<g id="a_node20"><a xlink:href="cdrom_8h_source.xhtml" target="_top" xlink:title="apt&#45;pkg/cdrom.h">
<polygon fill="#ffffff" stroke="#000000" points="603.5,-336.5 603.5,-355.5 700.5,-355.5 700.5,-336.5 603.5,-336.5"/>
<text text-anchor="middle" x="652" y="-343.5" font-family="Helvetica,sans-Serif" font-size="10.00" fill="#000000">apt&#45;pkg/cdrom.h</text>
</a>
</g>
</g>
<!-- Node28&#45;&gt;Node29 -->
<g id="edge27" class="edge">
<title>Node28&#45;&gt;Node29</title>
<path fill="none" stroke="#191970" d="M678.4092,-383.9209C671.8605,-374.5176 664.1176,-363.3997 658.7154,-355.6427"/>
<polygon fill="#191970" stroke="#191970" points="675.6196,-386.0397 684.2067,-392.2455 681.3639,-382.0392 675.6196,-386.0397"/>
</g>
<!-- Node30 -->
<g id="node21" class="node">
<title>Node30</title>
<g id="a_node21"><a xlink:href="debmetaindex_8h_source.xhtml" target="_top" xlink:title="apt&#45;pkg/deb/debmetaindex.h">
<polygon fill="#ffffff" stroke="#000000" points="958,-224.5 958,-243.5 1116,-243.5 1116,-224.5 958,-224.5"/>
<text text-anchor="middle" x="1037" y="-231.5" font-family="Helvetica,sans-Serif" font-size="10.00" fill="#000000">apt&#45;pkg/deb/debmetaindex.h</text>
</a>
</g>
</g>
<!-- Node28&#45;&gt;Node30 -->
<g id="edge28" class="edge">
<title>Node28&#45;&gt;Node30</title>
<path fill="none" stroke="#191970" d="M719.9299,-387.9531C788.4032,-354.7059 959.0068,-271.8695 1017.1922,-243.6177"/>
<polygon fill="#191970" stroke="#191970" points="718.0607,-384.9699 710.5938,-392.4862 721.1183,-391.2668 718.0607,-384.9699"/>
</g>
<!-- Node28&#45;&gt;Node31 -->
<g id="edge30" class="edge">
<title>Node28&#45;&gt;Node31</title>
<path fill="none" stroke="#191970" d="M742.1811,-391.8632C836.6446,-375.6964 935.0525,-361.9546 996.3429,-353.7641"/>
<polygon fill="#191970" stroke="#191970" points="741.4291,-388.4412 732.1688,-393.5886 742.6179,-395.3395 741.4291,-388.4412"/>
</g>
<!-- Node31&#45;&gt;Node30 -->
<g id="edge31" class="edge">
<title>Node31&#45;&gt;Node30</title>
<path fill="none" stroke="#191970" d="M1070.4277,-327.8227C1079.1524,-314.525 1087.4508,-296.0765 1081,-280 1074.9091,-264.8205 1061.1548,-251.8178 1050.6336,-243.5484"/>
<polygon fill="#191970" stroke="#191970" points="1067.4682,-325.9442 1064.4956,-336.1135 1073.161,-330.0176 1067.4682,-325.9442"/>
</g>
<!-- Node31&#45;&gt;Node32 -->
<g id="edge32" class="edge">
<title>Node31&#45;&gt;Node32</title>
<path fill="none" stroke="#191970" d="M1042.7636,-327.9209C1035.8789,-318.5176 1027.7391,-307.3997 1022.0598,-299.6427"/>
<polygon fill="#191970" stroke="#191970" points="1040.1269,-330.2445 1048.8583,-336.2455 1045.7749,-326.1093 1040.1269,-330.2445"/>
</g>
<!-- Node32&#45;&gt;Node11 -->
<g id="edge33" class="edge">
<title>Node32&#45;&gt;Node11</title>
<path fill="none" stroke="#191970" d="M1081.9275,-282.7646C1182.1684,-271.9277 1370.0372,-251.6176 1468.7133,-240.9499"/>
<polygon fill="#191970" stroke="#191970" points="1081.4827,-279.2922 1071.9168,-283.8468 1082.2351,-286.2516 1081.4827,-279.2922"/>
</g>
<!-- Node32&#45;&gt;Node13 -->
<g id="edge34" class="edge">
<title>Node32&#45;&gt;Node13</title>
<path fill="none" stroke="#191970" d="M948.2644,-285.4646C789.6284,-274.6835 392.3463,-247.6837 246.1324,-237.7469"/>
<polygon fill="#191970" stroke="#191970" points="948.1488,-288.9647 958.3631,-286.1509 948.6235,-281.9808 948.1488,-288.9647"/>
</g>
<!-- Node32&#45;&gt;Node30 -->
<g id="edge35" class="edge">
<title>Node32&#45;&gt;Node30</title>
<path fill="none" stroke="#191970" d="M1022.5628,-270.7493C1026.1546,-261.6064 1030.2901,-251.0798 1033.2118,-243.6427"/>
<polygon fill="#191970" stroke="#191970" points="1019.2311,-269.6582 1018.8321,-280.2455 1025.7463,-272.2178 1019.2311,-269.6582"/>
</g>
<!-- Node33&#45;&gt;Node13 -->
<g id="edge38" class="edge">
<title>Node33&#45;&gt;Node13</title>
<path fill="none" stroke="#191970" d="M193.7337,-438.1177C193.1117,-391.6713 191.5815,-277.4223 191.1284,-243.5891"/>
<polygon fill="#191970" stroke="#191970" points="190.2374,-438.4228 193.8711,-448.375 197.2368,-438.329 190.2374,-438.4228"/>
</g>
<!-- Node35&#45;&gt;Node11 -->
<g id="edge43" class="edge">
<title>Node35&#45;&gt;Node11</title>
<path fill="none" stroke="#191970" d="M1553.3172,-446.3226C1589.3748,-438.3245 1629.2274,-426.5431 1640,-412 1684.8549,-351.4455 1585.1526,-271.1247 1547.0313,-243.673"/>
<polygon fill="#191970" stroke="#191970" points="1552.3183,-442.9572 1543.2751,-448.4773 1553.7869,-449.8014 1552.3183,-442.9572"/>
</g>
<!-- Node35&#45;&gt;Node21 -->
<g id="edge44" class="edge">
<title>Node35&#45;&gt;Node21</title>
<path fill="none" stroke="#191970" d="M1447.7843,-445.4561C1414.0084,-435.1765 1366.9337,-420.8494 1336.218,-411.5011"/>
<polygon fill="#191970" stroke="#191970" points="1446.7834,-448.8099 1457.3693,-448.3733 1448.8216,-442.1132 1446.7834,-448.8099"/>
</g>
<!-- Node35&#45;&gt;Node22 -->
<g id="edge45" class="edge">
<title>Node35&#45;&gt;Node22</title>
<path fill="none" stroke="#191970" d="M1545.6865,-446.372C1596.0038,-436.0505 1668.6258,-421.1537 1715.5721,-411.5237"/>
<polygon fill="#191970" stroke="#191970" points="1544.7129,-442.9988 1535.6202,-448.4369 1546.1195,-449.856 1544.7129,-442.9988"/>
</g>
<!-- Node35&#45;&gt;Node23 -->
<g id="edge46" class="edge">
<title>Node35&#45;&gt;Node23</title>
<path fill="none" stroke="#191970" d="M1424.9876,-447.6396C1361.1386,-437.3057 1263.8752,-421.5636 1201.8902,-411.5314"/>
<polygon fill="#191970" stroke="#191970" points="1424.5067,-451.1073 1434.9375,-449.25 1425.6252,-444.1972 1424.5067,-451.1073"/>
</g>
<!-- Node35&#45;&gt;Node31 -->
<g id="edge49" class="edge">
<title>Node35&#45;&gt;Node31</title>
<path fill="none" stroke="#191970" d="M1470.1258,-441.9476C1450.8204,-426.4698 1419.301,-403.719 1388,-392 1339.431,-373.8159 1197.5384,-358.6529 1115.8298,-351.1199"/>
<polygon fill="#191970" stroke="#191970" points="1468.1402,-444.8457 1478.0917,-448.4814 1472.5795,-439.4334 1468.1402,-444.8457"/>
</g>
<!-- Node35&#45;&gt;Node34 -->
<g id="edge48" class="edge">
<title>Node35&#45;&gt;Node34</title>
<path fill="none" stroke="#191970" d="M1553.4482,-449.9259C1634.5908,-439.7604 1773.78,-422.3229 1860.0188,-411.5189"/>
<polygon fill="#191970" stroke="#191970" points="1552.8514,-446.4733 1543.3641,-451.1893 1553.7216,-453.419 1552.8514,-446.4733"/>
</g>
<!-- Node36 -->
<g id="node27" class="node">
<title>Node36</title>
<g id="a_node27"><a xlink:href="edspindexfile_8h_source.xhtml" target="_top" xlink:title="apt&#45;pkg/edsp/edspindexfile.h">
<polygon fill="#ffffff" stroke="#000000" points="1473,-392.5 1473,-411.5 1631,-411.5 1631,-392.5 1473,-392.5"/>
<text text-anchor="middle" x="1552" y="-399.5" font-family="Helvetica,sans-Serif" font-size="10.00" fill="#000000">apt&#45;pkg/edsp/edspindexfile.h</text>
</a>
</g>
</g>
<!-- Node35&#45;&gt;Node36 -->
<g id="edge47" class="edge">
<title>Node35&#45;&gt;Node36</title>
<path fill="none" stroke="#191970" d="M1507.7192,-441.3607C1518.6182,-431.6727 1531.9755,-419.7995 1541.152,-411.6427"/>
<polygon fill="#191970" stroke="#191970" points="1505.1226,-438.9859 1499.9738,-448.2455 1509.7732,-444.2178 1505.1226,-438.9859"/>
</g>
<!-- Node38&#45;&gt;Node22 -->
<g id="edge54" class="edge">
<title>Node38&#45;&gt;Node22</title>
<path fill="none" stroke="#191970" d="M1752.8865,-438.4538C1755.1549,-429.3803 1757.75,-418.9998 1759.5893,-411.6427"/>
<polygon fill="#191970" stroke="#191970" points="1749.4685,-437.6952 1750.4386,-448.2455 1756.2595,-439.393 1749.4685,-437.6952"/>
</g>
<!-- Node38&#45;&gt;Node34 -->
<g id="edge55" class="edge">
<title>Node38&#45;&gt;Node34</title>
<path fill="none" stroke="#191970" d="M1790.1117,-445.4561C1824.6218,-435.1765 1872.7199,-420.8494 1904.1034,-411.5011"/>
<polygon fill="#191970" stroke="#191970" points="1788.903,-442.1641 1780.3184,-448.3733 1790.9014,-448.8728 1788.903,-442.1641"/>
</g>
<!-- Node39&#45;&gt;Node11 -->
<g id="edge57" class="edge">
<title>Node39&#45;&gt;Node11</title>
<path fill="none" stroke="#191970" d="M1309.0717,-500.8423C1349.8185,-484.6412 1407,-452.8472 1407,-402 1407,-402 1407,-402 1407,-346 1407,-293.0253 1469.9865,-258.9721 1506.8927,-243.5659"/>
<polygon fill="#191970" stroke="#191970" points="1307.7259,-497.6096 1299.6267,-504.44 1310.2176,-504.1511 1307.7259,-497.6096"/>
</g>
<!-- Node39&#45;&gt;Node23 -->
<g id="edge58" class="edge">
<title>Node39&#45;&gt;Node23</title>
<path fill="none" stroke="#191970" d="M1250.7427,-497.7713C1224.0645,-474.0573 1175.2658,-430.6807 1153.7155,-411.5249"/>
<polygon fill="#191970" stroke="#191970" points="1248.4579,-500.4232 1258.2573,-504.4509 1253.1085,-495.1913 1248.4579,-500.4232"/>
</g>
<!-- Node39&#45;&gt;Node31 -->
<g id="edge60" class="edge">
<title>Node39&#45;&gt;Node31</title>
<path fill="none" stroke="#191970" d="M1212.8511,-501.7844C1165.1467,-488.2871 1099.0025,-461.5659 1064,-412 1052.0155,-395.0291 1052.9291,-369.2941 1054.5278,-355.5097"/>
<polygon fill="#191970" stroke="#191970" points="1212.1653,-505.2249 1222.733,-504.4674 1213.9994,-498.4694 1212.1653,-505.2249"/>
</g>
<!-- Node39&#45;&gt;Node35 -->
<g id="edge59" class="edge">
<title>Node39&#45;&gt;Node35</title>
<path fill="none" stroke="#191970" d="M1316.7278,-501.8511C1357.2112,-491.5462 1414.476,-476.9697 1451.6742,-467.5011"/>
<polygon fill="#191970" stroke="#191970" points="1315.6469,-498.5145 1306.8193,-504.3733 1317.3737,-505.2982 1315.6469,-498.5145"/>
</g>
<!-- Node41&#45;&gt;Node33 -->
<g id="edge67" class="edge">
<title>Node41&#45;&gt;Node33</title>
<path fill="none" stroke="#191970" d="M230.7104,-496.7884C221.6438,-487.2085 210.6946,-475.6396 203.1261,-467.6427"/>
<polygon fill="#191970" stroke="#191970" points="228.3522,-499.3884 237.7681,-504.2455 233.4363,-494.5767 228.3522,-499.3884"/>
</g>
</g>
</svg>
