<?xml version="1.0" encoding="UTF-8" standalone="no"?>
<!DOCTYPE svg PUBLIC "-//W3C//DTD SVG 1.1//EN"
 "http://www.w3.org/Graphics/SVG/1.1/DTD/svg11.dtd">
<!-- Generated by graphviz version 2.40.1 (20161225.0304)
 -->
<!-- Title: pkgAcquireStatus::ReleaseInfoChange Pages: 1 -->
<svg width="154pt" height="196pt"
 viewBox="0.00 0.00 154.00 196.00" xmlns="http://www.w3.org/2000/svg" xmlns:xlink="http://www.w3.org/1999/xlink">
<g id="graph0" class="graph" transform="scale(1 1) rotate(0) translate(4 192)">
<title>pkgAcquireStatus::ReleaseInfoChange</title>
<polygon fill="#ffffff" stroke="transparent" points="-4,4 -4,-192 150,-192 150,4 -4,4"/>
<!-- Node1 -->
<g id="node1" class="node">
<title>Node1</title>
<polygon fill="#bfbfbf" stroke="#000000" points="0,-.5 0,-30.5 146,-30.5 146,-.5 0,-.5"/>
<text text-anchor="start" x="8" y="-18.5" font-family="Helvetica,sans-Serif" font-size="10.00" fill="#000000">pkgAcquireStatus::Release</text>
<text text-anchor="middle" x="73" y="-7.5" font-family="Helvetica,sans-Serif" font-size="10.00" fill="#000000">InfoChange</text>
</g>
<!-- Node2 -->
<g id="node2" class="node">
<title>Node2</title>
<g id="a_node2"><a xlink:title="STL class. ">
<polygon fill="#ffffff" stroke="#bfbfbf" points="51,-111.5 51,-130.5 95,-130.5 95,-111.5 51,-111.5"/>
<text text-anchor="middle" x="73" y="-118.5" font-family="Helvetica,sans-Serif" font-size="10.00" fill="#000000">string</text>
</a>
</g>
</g>
<!-- Node2&#45;&gt;Node1 -->
<g id="edge1" class="edge">
<title>Node2&#45;&gt;Node1</title>
<path fill="none" stroke="#9a32cd" stroke-dasharray="5,2" d="M73,-101.1669C73,-80.6729 73,-49.1372 73,-30.5875"/>
<polygon fill="#9a32cd" stroke="#9a32cd" points="69.5001,-101.2639 73,-111.2639 76.5001,-101.264 69.5001,-101.2639"/>
<text text-anchor="middle" x="94.5" y="-85" font-family="Helvetica,sans-Serif" font-size="10.00" fill="#000000"> From</text>
<text text-anchor="middle" x="94.5" y="-74" font-family="Helvetica,sans-Serif" font-size="10.00" fill="#000000">Type</text>
<text text-anchor="middle" x="94.5" y="-63" font-family="Helvetica,sans-Serif" font-size="10.00" fill="#000000">To</text>
<text text-anchor="middle" x="94.5" y="-52" font-family="Helvetica,sans-Serif" font-size="10.00" fill="#000000">Message</text>
</g>
<!-- Node3 -->
<g id="node3" class="node">
<title>Node3</title>
<g id="a_node3"><a xlink:title="STL class. ">
<polygon fill="#ffffff" stroke="#bfbfbf" points="13.5,-168.5 13.5,-187.5 132.5,-187.5 132.5,-168.5 13.5,-168.5"/>
<text text-anchor="middle" x="73" y="-175.5" font-family="Helvetica,sans-Serif" font-size="10.00" fill="#000000">basic_string&lt; char &gt;</text>
</a>
</g>
</g>
<!-- Node3&#45;&gt;Node2 -->
<g id="edge2" class="edge">
<title>Node3&#45;&gt;Node2</title>
<path fill="none" stroke="#191970" d="M73,-158.2342C73,-148.8491 73,-138.0651 73,-130.5265"/>
<polygon fill="#191970" stroke="#191970" points="69.5001,-158.3307 73,-168.3307 76.5001,-158.3308 69.5001,-158.3307"/>
</g>
</g>
</svg>
