<?xml version="1.0" encoding="UTF-8" standalone="no"?>
<!DOCTYPE svg PUBLIC "-//W3C//DTD SVG 1.1//EN"
 "http://www.w3.org/Graphics/SVG/1.1/DTD/svg11.dtd">
<!-- Generated by graphviz version 2.40.1 (20161225.0304)
 -->
<!-- Title: Configuration::Item Pages: 1 -->
<svg width="172pt" height="176pt"
 viewBox="0.00 0.00 171.50 176.00" xmlns="http://www.w3.org/2000/svg" xmlns:xlink="http://www.w3.org/1999/xlink">
<g id="graph0" class="graph" transform="scale(1 1) rotate(0) translate(4 172)">
<title>Configuration::Item</title>
<polygon fill="#ffffff" stroke="transparent" points="-4,4 -4,-172 167.5,-172 167.5,4 -4,4"/>
<!-- Node1 -->
<g id="node1" class="node">
<title>Node1</title>
<polygon fill="#bfbfbf" stroke="#000000" points="4.5,-7 4.5,-26 114.5,-26 114.5,-7 4.5,-7"/>
<text text-anchor="middle" x="59.5" y="-14" font-family="Helvetica,sans-Serif" font-size="10.00" fill="#000000">Configuration::Item</text>
</g>
<!-- Node1&#45;&gt;Node1 -->
<g id="edge3" class="edge">
<title>Node1&#45;&gt;Node1</title>
<path fill="none" stroke="#9a32cd" stroke-dasharray="5,2" d="M124.5011,-22.6915C129.4524,-21.3165 132.5,-19.2527 132.5,-16.5 132.5,-12.2031 125.0741,-9.5847 114.5733,-8.6448"/>
<polygon fill="#9a32cd" stroke="#9a32cd" points="123.8573,-19.2505 114.5733,-24.3552 125.0143,-26.1543 123.8573,-19.2505"/>
<text text-anchor="middle" x="148" y="-25" font-family="Helvetica,sans-Serif" font-size="10.00" fill="#000000"> Next</text>
<text text-anchor="middle" x="148" y="-14" font-family="Helvetica,sans-Serif" font-size="10.00" fill="#000000">Child</text>
<text text-anchor="middle" x="148" y="-3" font-family="Helvetica,sans-Serif" font-size="10.00" fill="#000000">Parent</text>
</g>
<!-- Node2 -->
<g id="node2" class="node">
<title>Node2</title>
<g id="a_node2"><a xlink:title="STL class. ">
<polygon fill="#ffffff" stroke="#bfbfbf" points="37.5,-91.5 37.5,-110.5 81.5,-110.5 81.5,-91.5 37.5,-91.5"/>
<text text-anchor="middle" x="59.5" y="-98.5" font-family="Helvetica,sans-Serif" font-size="10.00" fill="#000000">string</text>
</a>
</g>
</g>
<!-- Node2&#45;&gt;Node1 -->
<g id="edge1" class="edge">
<title>Node2&#45;&gt;Node1</title>
<path fill="none" stroke="#9a32cd" stroke-dasharray="5,2" d="M59.5,-81.1221C59.5,-63.7864 59.5,-39.3886 59.5,-26.0802"/>
<polygon fill="#9a32cd" stroke="#9a32cd" points="56.0001,-81.3067 59.5,-91.3068 63.0001,-81.3068 56.0001,-81.3067"/>
<text text-anchor="middle" x="73.5" y="-65" font-family="Helvetica,sans-Serif" font-size="10.00" fill="#000000"> Tag</text>
<text text-anchor="middle" x="73.5" y="-54" font-family="Helvetica,sans-Serif" font-size="10.00" fill="#000000">Value</text>
</g>
<!-- Node3 -->
<g id="node3" class="node">
<title>Node3</title>
<g id="a_node3"><a xlink:title="STL class. ">
<polygon fill="#ffffff" stroke="#bfbfbf" points="0,-148.5 0,-167.5 119,-167.5 119,-148.5 0,-148.5"/>
<text text-anchor="middle" x="59.5" y="-155.5" font-family="Helvetica,sans-Serif" font-size="10.00" fill="#000000">basic_string&lt; char &gt;</text>
</a>
</g>
</g>
<!-- Node3&#45;&gt;Node2 -->
<g id="edge2" class="edge">
<title>Node3&#45;&gt;Node2</title>
<path fill="none" stroke="#191970" d="M59.5,-138.2342C59.5,-128.8491 59.5,-118.0651 59.5,-110.5265"/>
<polygon fill="#191970" stroke="#191970" points="56.0001,-138.3307 59.5,-148.3307 63.0001,-138.3308 56.0001,-138.3307"/>
</g>
</g>
</svg>
