<?xml version="1.0" encoding="UTF-8" standalone="no"?>
<!DOCTYPE svg PUBLIC "-//W3C//DTD SVG 1.1//EN"
 "http://www.w3.org/Graphics/SVG/1.1/DTD/svg11.dtd">
<!-- Generated by graphviz version 2.40.1 (20161225.0304)
 -->
<!-- Title: pkgAcqMethod::FetchResult Pages: 1 -->
<svg width="317pt" height="219pt"
 viewBox="0.00 0.00 317.00 219.00" xmlns="http://www.w3.org/2000/svg" xmlns:xlink="http://www.w3.org/1999/xlink">
<g id="graph0" class="graph" transform="scale(1 1) rotate(0) translate(4 215)">
<title>pkgAcqMethod::FetchResult</title>
<polygon fill="#ffffff" stroke="transparent" points="-4,4 -4,-215 313,-215 313,4 -4,4"/>
<!-- Node1 -->
<g id="node1" class="node">
<title>Node1</title>
<polygon fill="#bfbfbf" stroke="#000000" points="48.5,-.5 48.5,-19.5 198.5,-19.5 198.5,-.5 48.5,-.5"/>
<text text-anchor="middle" x="123.5" y="-7.5" font-family="Helvetica,sans-Serif" font-size="10.00" fill="#000000">pkgAcqMethod::FetchResult</text>
</g>
<!-- Node2 -->
<g id="node2" class="node">
<title>Node2</title>
<g id="a_node2"><a xlink:href="classHashStringList.xhtml" target="_top" xlink:title="HashStringList">
<polygon fill="#ffffff" stroke="#000000" points="0,-67.5 0,-86.5 87,-86.5 87,-67.5 0,-67.5"/>
<text text-anchor="middle" x="43.5" y="-74.5" font-family="Helvetica,sans-Serif" font-size="10.00" fill="#000000">HashStringList</text>
</a>
</g>
</g>
<!-- Node2&#45;&gt;Node1 -->
<g id="edge1" class="edge">
<title>Node2&#45;&gt;Node1</title>
<path fill="none" stroke="#9a32cd" stroke-dasharray="5,2" d="M53.2169,-58.4258C57.5269,-51.4136 63.0832,-43.7492 69.5,-38 77.9945,-30.3894 88.9326,-24.2168 98.7407,-19.6235"/>
<polygon fill="#9a32cd" stroke="#9a32cd" points="50.0474,-56.9191 48.1484,-67.3424 56.1329,-60.3784 50.0474,-56.9191"/>
<text text-anchor="middle" x="89.5" y="-41" font-family="Helvetica,sans-Serif" font-size="10.00" fill="#000000"> Hashes</text>
</g>
<!-- Node3 -->
<g id="node3" class="node">
<title>Node3</title>
<g id="a_node3"><a xlink:title="STL class. ">
<polygon fill="#ffffff" stroke="#bfbfbf" points="117.5,-134.5 117.5,-153.5 161.5,-153.5 161.5,-134.5 117.5,-134.5"/>
<text text-anchor="middle" x="139.5" y="-141.5" font-family="Helvetica,sans-Serif" font-size="10.00" fill="#000000">string</text>
</a>
</g>
</g>
<!-- Node3&#45;&gt;Node1 -->
<g id="edge2" class="edge">
<title>Node3&#45;&gt;Node1</title>
<path fill="none" stroke="#9a32cd" stroke-dasharray="5,2" d="M137.1267,-124.124C133.6322,-94.8572 127.2363,-41.2914 124.6403,-19.5496"/>
<polygon fill="#9a32cd" stroke="#9a32cd" points="133.6883,-124.8486 138.3493,-134.3631 140.6389,-124.0186 133.6883,-124.8486"/>
<text text-anchor="middle" x="156.5" y="-74.5" font-family="Helvetica,sans-Serif" font-size="10.00" fill="#000000"> Filename</text>
</g>
<!-- Node5 -->
<g id="node5" class="node">
<title>Node5</title>
<polygon fill="#ffffff" stroke="#bfbfbf" points="190,-67.5 190,-86.5 309,-86.5 309,-67.5 190,-67.5"/>
<text text-anchor="middle" x="249.5" y="-74.5" font-family="Helvetica,sans-Serif" font-size="10.00" fill="#000000">vector&lt; std::string &gt;</text>
</g>
<!-- Node3&#45;&gt;Node5 -->
<g id="edge5" class="edge">
<title>Node3&#45;&gt;Node5</title>
<path fill="none" stroke="#9a32cd" stroke-dasharray="5,2" d="M164.0665,-129.0368C185.3707,-116.0605 215.5663,-97.6687 233.7689,-86.5817"/>
<polygon fill="#9a32cd" stroke="#9a32cd" points="161.9801,-126.2094 155.2603,-134.4005 165.6215,-132.1877 161.9801,-126.2094"/>
<text text-anchor="middle" x="225" y="-108" font-family="Helvetica,sans-Serif" font-size="10.00" fill="#000000"> elements</text>
</g>
<!-- Node4 -->
<g id="node4" class="node">
<title>Node4</title>
<g id="a_node4"><a xlink:title="STL class. ">
<polygon fill="#ffffff" stroke="#bfbfbf" points="80,-191.5 80,-210.5 199,-210.5 199,-191.5 80,-191.5"/>
<text text-anchor="middle" x="139.5" y="-198.5" font-family="Helvetica,sans-Serif" font-size="10.00" fill="#000000">basic_string&lt; char &gt;</text>
</a>
</g>
</g>
<!-- Node4&#45;&gt;Node3 -->
<g id="edge3" class="edge">
<title>Node4&#45;&gt;Node3</title>
<path fill="none" stroke="#191970" d="M139.5,-181.2342C139.5,-171.8491 139.5,-161.0651 139.5,-153.5265"/>
<polygon fill="#191970" stroke="#191970" points="136.0001,-181.3307 139.5,-191.3307 143.0001,-181.3308 136.0001,-181.3307"/>
</g>
<!-- Node5&#45;&gt;Node1 -->
<g id="edge4" class="edge">
<title>Node5&#45;&gt;Node1</title>
<path fill="none" stroke="#9a32cd" stroke-dasharray="5,2" d="M222.3395,-62.5575C197.8902,-49.5567 162.65,-30.8179 141.5192,-19.5817"/>
<polygon fill="#9a32cd" stroke="#9a32cd" points="220.9747,-65.7958 231.4473,-67.4005 224.2612,-59.6152 220.9747,-65.7958"/>
<text text-anchor="middle" x="225.5" y="-41" font-family="Helvetica,sans-Serif" font-size="10.00" fill="#000000"> GPGVOutput</text>
</g>
</g>
</svg>
