<?xml version="1.0" encoding="UTF-8" standalone="no"?>
<!DOCTYPE svg PUBLIC "-//W3C//DTD SVG 1.1//EN"
 "http://www.w3.org/Graphics/SVG/1.1/DTD/svg11.dtd">
<!-- Generated by graphviz version 2.40.1 (20161225.0304)
 -->
<!-- Title: pkgSrcRecords::File2 Pages: 1 -->
<svg width="189pt" height="230pt"
 viewBox="0.00 0.00 189.00 230.00" xmlns="http://www.w3.org/2000/svg" xmlns:xlink="http://www.w3.org/1999/xlink">
<g id="graph0" class="graph" transform="scale(1 1) rotate(0) translate(4 226)">
<title>pkgSrcRecords::File2</title>
<polygon fill="#ffffff" stroke="transparent" points="-4,4 -4,-226 185,-226 185,4 -4,4"/>
<!-- Node2 -->
<g id="node1" class="node">
<title>Node2</title>
<polygon fill="#bfbfbf" stroke="#000000" points="59.5,-.5 59.5,-19.5 175.5,-19.5 175.5,-.5 59.5,-.5"/>
<text text-anchor="middle" x="117.5" y="-7.5" font-family="Helvetica,sans-Serif" font-size="10.00" fill="#000000">pkgSrcRecords::File2</text>
</g>
<!-- Node3 -->
<g id="node2" class="node">
<title>Node3</title>
<g id="a_node2"><a xlink:href="structpkgSrcRecords_1_1File.xhtml" target="_top" xlink:title="File">
<polygon fill="#ffffff" stroke="#000000" points="43,-67.5 43,-86.5 76,-86.5 76,-67.5 43,-67.5"/>
<text text-anchor="middle" x="59.5" y="-74.5" font-family="Helvetica,sans-Serif" font-size="10.00" fill="#000000">File</text>
</a>
</g>
</g>
<!-- Node3&#45;&gt;Node2 -->
<g id="edge1" class="edge">
<title>Node3&#45;&gt;Node2</title>
<path fill="none" stroke="#191970" d="M74.4634,-59.7147C85.5212,-46.941 100.1672,-30.0224 109.2054,-19.5817"/>
<polygon fill="#191970" stroke="#191970" points="71.7088,-57.5491 67.81,-67.4005 77.0013,-62.1307 71.7088,-57.5491"/>
</g>
<!-- Node4 -->
<g id="node3" class="node">
<title>Node4</title>
<g id="a_node3"><a xlink:title="STL class. ">
<polygon fill="#ffffff" stroke="#bfbfbf" points="37.5,-145.5 37.5,-164.5 81.5,-164.5 81.5,-145.5 37.5,-145.5"/>
<text text-anchor="middle" x="59.5" y="-152.5" font-family="Helvetica,sans-Serif" font-size="10.00" fill="#000000">string</text>
</a>
</g>
</g>
<!-- Node4&#45;&gt;Node3 -->
<g id="edge2" class="edge">
<title>Node4&#45;&gt;Node3</title>
<path fill="none" stroke="#9a32cd" stroke-dasharray="5,2" d="M59.5,-135.2866C59.5,-119.7395 59.5,-98.7276 59.5,-86.6426"/>
<polygon fill="#9a32cd" stroke="#9a32cd" points="56.0001,-135.4356 59.5,-145.4357 63.0001,-135.4357 56.0001,-135.4356"/>
<text text-anchor="middle" x="72" y="-119" font-family="Helvetica,sans-Serif" font-size="10.00" fill="#000000"> Path</text>
<text text-anchor="middle" x="72" y="-108" font-family="Helvetica,sans-Serif" font-size="10.00" fill="#000000">Type</text>
</g>
<!-- Node5 -->
<g id="node4" class="node">
<title>Node5</title>
<g id="a_node4"><a xlink:title="STL class. ">
<polygon fill="#ffffff" stroke="#bfbfbf" points="0,-202.5 0,-221.5 119,-221.5 119,-202.5 0,-202.5"/>
<text text-anchor="middle" x="59.5" y="-209.5" font-family="Helvetica,sans-Serif" font-size="10.00" fill="#000000">basic_string&lt; char &gt;</text>
</a>
</g>
</g>
<!-- Node5&#45;&gt;Node4 -->
<g id="edge3" class="edge">
<title>Node5&#45;&gt;Node4</title>
<path fill="none" stroke="#191970" d="M59.5,-192.2342C59.5,-182.8491 59.5,-172.0651 59.5,-164.5265"/>
<polygon fill="#191970" stroke="#191970" points="56.0001,-192.3307 59.5,-202.3307 63.0001,-192.3308 56.0001,-192.3307"/>
</g>
<!-- Node6 -->
<g id="node5" class="node">
<title>Node6</title>
<g id="a_node5"><a xlink:href="classHashStringList.xhtml" target="_top" xlink:title="HashStringList">
<polygon fill="#ffffff" stroke="#000000" points="94,-67.5 94,-86.5 181,-86.5 181,-67.5 94,-67.5"/>
<text text-anchor="middle" x="137.5" y="-74.5" font-family="Helvetica,sans-Serif" font-size="10.00" fill="#000000">HashStringList</text>
</a>
</g>
</g>
<!-- Node6&#45;&gt;Node2 -->
<g id="edge4" class="edge">
<title>Node6&#45;&gt;Node2</title>
<path fill="none" stroke="#9a32cd" stroke-dasharray="5,2" d="M131.675,-57.4863C127.9563,-45.0286 123.2987,-29.4258 120.3602,-19.5817"/>
<polygon fill="#9a32cd" stroke="#9a32cd" points="128.4203,-58.8195 134.6345,-67.4005 135.1278,-56.8172 128.4203,-58.8195"/>
<text text-anchor="middle" x="148.5" y="-41" font-family="Helvetica,sans-Serif" font-size="10.00" fill="#000000"> Hashes</text>
</g>
</g>
</svg>
