<?xml version="1.0" encoding="UTF-8" standalone="no"?>
<!DOCTYPE svg PUBLIC "-//W3C//DTD SVG 1.1//EN"
 "http://www.w3.org/Graphics/SVG/1.1/DTD/svg11.dtd">
<!-- Generated by graphviz version 2.40.1 (20161225.0304)
 -->
<!-- Title: Compressor Pages: 1 -->
<svg width="238pt" height="243pt"
 viewBox="0.00 0.00 238.00 243.00" xmlns="http://www.w3.org/2000/svg" xmlns:xlink="http://www.w3.org/1999/xlink">
<g id="graph0" class="graph" transform="scale(1 1) rotate(0) translate(4 239)">
<title>Compressor</title>
<polygon fill="#ffffff" stroke="transparent" points="-4,4 -4,-239 234,-239 234,4 -4,4"/>
<!-- Node1 -->
<g id="node1" class="node">
<title>Node1</title>
<polygon fill="#bfbfbf" stroke="#000000" points="22,-.5 22,-19.5 97,-19.5 97,-.5 22,-.5"/>
<text text-anchor="middle" x="59.5" y="-7.5" font-family="Helvetica,sans-Serif" font-size="10.00" fill="#000000">Compressor</text>
</g>
<!-- Node2 -->
<g id="node2" class="node">
<title>Node2</title>
<g id="a_node2"><a xlink:title="STL class. ">
<polygon fill="#ffffff" stroke="#bfbfbf" points="37.5,-158.5 37.5,-177.5 81.5,-177.5 81.5,-158.5 37.5,-158.5"/>
<text text-anchor="middle" x="59.5" y="-165.5" font-family="Helvetica,sans-Serif" font-size="10.00" fill="#000000">string</text>
</a>
</g>
</g>
<!-- Node2&#45;&gt;Node1 -->
<g id="edge1" class="edge">
<title>Node2&#45;&gt;Node1</title>
<path fill="none" stroke="#9a32cd" stroke-dasharray="5,2" d="M56.8969,-148.1736C55.5905,-137.2326 54.1503,-123.39 53.5,-111 51.7415,-77.4958 55.9469,-37.7639 58.1959,-19.7475"/>
<polygon fill="#9a32cd" stroke="#9a32cd" points="53.4548,-148.8551 58.1711,-158.3423 60.4005,-147.9847 53.4548,-148.8551"/>
<text text-anchor="middle" x="78" y="-103" font-family="Helvetica,sans-Serif" font-size="10.00" fill="#000000"> Name</text>
<text text-anchor="middle" x="78" y="-92" font-family="Helvetica,sans-Serif" font-size="10.00" fill="#000000">Extension</text>
<text text-anchor="middle" x="78" y="-81" font-family="Helvetica,sans-Serif" font-size="10.00" fill="#000000">Binary</text>
</g>
<!-- Node4 -->
<g id="node4" class="node">
<title>Node4</title>
<polygon fill="#ffffff" stroke="#bfbfbf" points="111,-85 111,-104 230,-104 230,-85 111,-85"/>
<text text-anchor="middle" x="170.5" y="-92" font-family="Helvetica,sans-Serif" font-size="10.00" fill="#000000">vector&lt; std::string &gt;</text>
</g>
<!-- Node2&#45;&gt;Node4 -->
<g id="edge4" class="edge">
<title>Node2&#45;&gt;Node4</title>
<path fill="none" stroke="#9a32cd" stroke-dasharray="5,2" d="M82.4735,-152.7878C104.5666,-138.1586 137.2863,-116.4928 155.9851,-104.1112"/>
<polygon fill="#9a32cd" stroke="#9a32cd" points="80.4168,-149.9519 74.0113,-158.3912 84.2815,-155.7884 80.4168,-149.9519"/>
<text text-anchor="middle" x="142" y="-132" font-family="Helvetica,sans-Serif" font-size="10.00" fill="#000000"> elements</text>
</g>
<!-- Node3 -->
<g id="node3" class="node">
<title>Node3</title>
<g id="a_node3"><a xlink:title="STL class. ">
<polygon fill="#ffffff" stroke="#bfbfbf" points="0,-215.5 0,-234.5 119,-234.5 119,-215.5 0,-215.5"/>
<text text-anchor="middle" x="59.5" y="-222.5" font-family="Helvetica,sans-Serif" font-size="10.00" fill="#000000">basic_string&lt; char &gt;</text>
</a>
</g>
</g>
<!-- Node3&#45;&gt;Node2 -->
<g id="edge2" class="edge">
<title>Node3&#45;&gt;Node2</title>
<path fill="none" stroke="#191970" d="M59.5,-205.2342C59.5,-195.8491 59.5,-185.0651 59.5,-177.5265"/>
<polygon fill="#191970" stroke="#191970" points="56.0001,-205.3307 59.5,-215.3307 63.0001,-205.3308 56.0001,-205.3307"/>
</g>
<!-- Node4&#45;&gt;Node1 -->
<g id="edge3" class="edge">
<title>Node4&#45;&gt;Node1</title>
<path fill="none" stroke="#9a32cd" stroke-dasharray="5,2" d="M149.7236,-78.6837C126.9002,-61.3092 90.9818,-33.9659 72.0846,-19.5802"/>
<polygon fill="#9a32cd" stroke="#9a32cd" points="147.6901,-81.5344 157.7669,-84.8068 151.9301,-75.9647 147.6901,-81.5344"/>
<text text-anchor="middle" x="167.5" y="-52" font-family="Helvetica,sans-Serif" font-size="10.00" fill="#000000"> UncompressArgs</text>
<text text-anchor="middle" x="167.5" y="-41" font-family="Helvetica,sans-Serif" font-size="10.00" fill="#000000">CompressArgs</text>
</g>
</g>
</svg>
