<?xml version="1.0" encoding="UTF-8" standalone="no"?>
<!DOCTYPE svg PUBLIC "-//W3C//DTD SVG 1.1//EN"
 "http://www.w3.org/Graphics/SVG/1.1/DTD/svg11.dtd">
<!-- Generated by graphviz version 2.40.1 (20161225.0304)
 -->
<!-- Title: pkgAcquire::MethodConfig Pages: 1 -->
<svg width="218pt" height="163pt"
 viewBox="0.00 0.00 217.50 163.00" xmlns="http://www.w3.org/2000/svg" xmlns:xlink="http://www.w3.org/1999/xlink">
<g id="graph0" class="graph" transform="scale(1 1) rotate(0) translate(4 159)">
<title>pkgAcquire::MethodConfig</title>
<polygon fill="#ffffff" stroke="transparent" points="-4,4 -4,-159 213.5,-159 213.5,4 -4,4"/>
<!-- Node1 -->
<g id="node1" class="node">
<title>Node1</title>
<polygon fill="#bfbfbf" stroke="#000000" points="20.5,-.5 20.5,-19.5 164.5,-19.5 164.5,-.5 20.5,-.5"/>
<text text-anchor="middle" x="92.5" y="-7.5" font-family="Helvetica,sans-Serif" font-size="10.00" fill="#000000">pkgAcquire::MethodConfig</text>
</g>
<!-- Node1&#45;&gt;Node1 -->
<g id="edge1" class="edge">
<title>Node1&#45;&gt;Node1</title>
<path fill="none" stroke="#9a32cd" stroke-dasharray="5,2" d="M174.5657,-14.9338C179.5238,-13.7604 182.5,-12.1158 182.5,-10 182.5,-6.6973 175.2481,-4.5427 164.5261,-3.5364"/>
<polygon fill="#9a32cd" stroke="#9a32cd" points="173.8847,-11.497 164.5261,-16.4636 174.9392,-18.4172 173.8847,-11.497"/>
<text text-anchor="middle" x="196" y="-7.5" font-family="Helvetica,sans-Serif" font-size="10.00" fill="#000000"> Next</text>
</g>
<!-- Node2 -->
<g id="node2" class="node">
<title>Node2</title>
<g id="a_node2"><a xlink:title="STL class. ">
<polygon fill="#ffffff" stroke="#bfbfbf" points="37.5,-78.5 37.5,-97.5 81.5,-97.5 81.5,-78.5 37.5,-78.5"/>
<text text-anchor="middle" x="59.5" y="-85.5" font-family="Helvetica,sans-Serif" font-size="10.00" fill="#000000">string</text>
</a>
</g>
</g>
<!-- Node2&#45;&gt;Node1 -->
<g id="edge2" class="edge">
<title>Node2&#45;&gt;Node1</title>
<path fill="none" stroke="#9a32cd" stroke-dasharray="5,2" d="M59.5405,-68.1894C60.2293,-58.6702 62.0643,-47.3314 66.5,-38 69.8036,-31.0502 75.4517,-24.6496 80.6413,-19.7275"/>
<polygon fill="#9a32cd" stroke="#9a32cd" points="56.0387,-68.1779 59.1712,-78.299 63.034,-68.4334 56.0387,-68.1779"/>
<text text-anchor="middle" x="85" y="-52" font-family="Helvetica,sans-Serif" font-size="10.00" fill="#000000"> Access</text>
<text text-anchor="middle" x="85" y="-41" font-family="Helvetica,sans-Serif" font-size="10.00" fill="#000000">Version</text>
</g>
<!-- Node3 -->
<g id="node3" class="node">
<title>Node3</title>
<g id="a_node3"><a xlink:title="STL class. ">
<polygon fill="#ffffff" stroke="#bfbfbf" points="0,-135.5 0,-154.5 119,-154.5 119,-135.5 0,-135.5"/>
<text text-anchor="middle" x="59.5" y="-142.5" font-family="Helvetica,sans-Serif" font-size="10.00" fill="#000000">basic_string&lt; char &gt;</text>
</a>
</g>
</g>
<!-- Node3&#45;&gt;Node2 -->
<g id="edge3" class="edge">
<title>Node3&#45;&gt;Node2</title>
<path fill="none" stroke="#191970" d="M59.5,-125.2342C59.5,-115.8491 59.5,-105.0651 59.5,-97.5265"/>
<polygon fill="#191970" stroke="#191970" points="56.0001,-125.3307 59.5,-135.3307 63.0001,-125.3308 56.0001,-125.3307"/>
</g>
<!-- Node4 -->
<g id="node4" class="node">
<title>Node4</title>
<g id="a_node4"><a xlink:href="classpkgAcquire_1_1MethodConfig_1_1Private.xhtml" target="_top" xlink:title="Private">
<polygon fill="#ffffff" stroke="#000000" points="100,-78.5 100,-97.5 151,-97.5 151,-78.5 100,-78.5"/>
<text text-anchor="middle" x="125.5" y="-85.5" font-family="Helvetica,sans-Serif" font-size="10.00" fill="#000000">Private</text>
</a>
</g>
</g>
<!-- Node4&#45;&gt;Node1 -->
<g id="edge4" class="edge">
<title>Node4&#45;&gt;Node1</title>
<path fill="none" stroke="#9a32cd" stroke-dasharray="5,2" d="M117.5402,-69.186C110.9288,-53.5589 101.7917,-31.9623 96.5795,-19.6426"/>
<polygon fill="#9a32cd" stroke="#9a32cd" points="114.3337,-70.5897 121.4536,-78.4357 120.7805,-67.8622 114.3337,-70.5897"/>
<text text-anchor="middle" x="117.5" y="-46.5" font-family="Helvetica,sans-Serif" font-size="10.00" fill="#000000"> d</text>
</g>
</g>
</svg>
