<?xml version="1.0" encoding="UTF-8" standalone="no"?>
<!DOCTYPE svg PUBLIC "-//W3C//DTD SVG 1.1//EN"
 "http://www.w3.org/Graphics/SVG/1.1/DTD/svg11.dtd">
<!-- Generated by graphviz version 2.40.1 (20161225.0304)
 -->
<!-- Title: PrettyDep Pages: 1 -->
<svg width="1309pt" height="591pt"
 viewBox="0.00 0.00 1309.00 591.00" xmlns="http://www.w3.org/2000/svg" xmlns:xlink="http://www.w3.org/1999/xlink">
<g id="graph0" class="graph" transform="scale(1 1) rotate(0) translate(4 587)">
<title>PrettyDep</title>
<polygon fill="#ffffff" stroke="transparent" points="-4,4 -4,-587 1305,-587 1305,4 -4,4"/>
<!-- Node1 -->
<g id="node1" class="node">
<title>Node1</title>
<polygon fill="#bfbfbf" stroke="#000000" points="1236,-288.5 1236,-307.5 1301,-307.5 1301,-288.5 1236,-288.5"/>
<text text-anchor="middle" x="1268.5" y="-295.5" font-family="Helvetica,sans-Serif" font-size="10.00" fill="#000000">PrettyDep</text>
</g>
<!-- Node2 -->
<g id="node2" class="node">
<title>Node2</title>
<g id="a_node2"><a xlink:href="classpkgDepCache.xhtml" target="_top" xlink:title="pkgDepCache">
<polygon fill="#ffffff" stroke="#000000" points="962,-314.5 962,-333.5 1046,-333.5 1046,-314.5 962,-314.5"/>
<text text-anchor="middle" x="1004" y="-321.5" font-family="Helvetica,sans-Serif" font-size="10.00" fill="#000000">pkgDepCache</text>
</a>
</g>
</g>
<!-- Node2&#45;&gt;Node1 -->
<g id="edge1" class="edge">
<title>Node2&#45;&gt;Node1</title>
<path fill="none" stroke="#9a32cd" stroke-dasharray="5,2" d="M1056.4816,-318.8411C1109.8095,-313.5991 1190.763,-305.6414 1235.6382,-301.2303"/>
<polygon fill="#9a32cd" stroke="#9a32cd" points="1055.8129,-315.3899 1046.2033,-319.8515 1056.4977,-322.3563 1055.8129,-315.3899"/>
<text text-anchor="middle" x="1141" y="-317" font-family="Helvetica,sans-Serif" font-size="10.00" fill="#000000"> DepCache</text>
</g>
<!-- Node3 -->
<g id="node3" class="node">
<title>Node3</title>
<g id="a_node3"><a xlink:href="classpkgCache_1_1Namespace.xhtml" target="_top" xlink:title="Namespace">
<polygon fill="#ffffff" stroke="#000000" points="718.5,-390.5 718.5,-409.5 792.5,-409.5 792.5,-390.5 718.5,-390.5"/>
<text text-anchor="middle" x="755.5" y="-397.5" font-family="Helvetica,sans-Serif" font-size="10.00" fill="#000000">Namespace</text>
</a>
</g>
</g>
<!-- Node3&#45;&gt;Node2 -->
<g id="edge2" class="edge">
<title>Node3&#45;&gt;Node2</title>
<path fill="none" stroke="#006400" d="M802.7526,-398.0128C836.793,-395.3689 883.3441,-389.2298 922,-375 949.0605,-365.0387 976.7745,-345.4406 992.0484,-333.652"/>
<polygon fill="#006400" stroke="#006400" points="802.3423,-394.5329 792.6126,-398.7261 802.8336,-401.5156 802.3423,-394.5329"/>
</g>
<!-- Node4 -->
<g id="node4" class="node">
<title>Node4</title>
<g id="a_node4"><a xlink:href="classpkgDepCache_1_1Policy.xhtml" target="_top" xlink:title="Policy">
<polygon fill="#ffffff" stroke="#000000" points="732.5,-352.5 732.5,-371.5 778.5,-371.5 778.5,-352.5 732.5,-352.5"/>
<text text-anchor="middle" x="755.5" y="-359.5" font-family="Helvetica,sans-Serif" font-size="10.00" fill="#000000">Policy</text>
</a>
</g>
</g>
<!-- Node4&#45;&gt;Node2 -->
<g id="edge3" class="edge">
<title>Node4&#45;&gt;Node2</title>
<path fill="none" stroke="#9a32cd" stroke-dasharray="5,2" d="M788.9135,-357.8201C822.577,-353.5066 875.9826,-346.3837 922,-339 935.0035,-336.9135 949.1237,-334.415 961.9236,-332.0611"/>
<polygon fill="#9a32cd" stroke="#9a32cd" points="788.1899,-354.3839 778.7119,-359.1187 789.0738,-361.3279 788.1899,-354.3839"/>
<text text-anchor="middle" x="887" y="-363" font-family="Helvetica,sans-Serif" font-size="10.00" fill="#000000"> LocalPolicy</text>
<text text-anchor="middle" x="887" y="-352" font-family="Helvetica,sans-Serif" font-size="10.00" fill="#000000">delLocalPolicy</text>
</g>
<!-- Node5 -->
<g id="node5" class="node">
<title>Node5</title>
<g id="a_node5"><a xlink:href="classpkgCache.xhtml" target="_top" xlink:title="pkgCache">
<polygon fill="#ffffff" stroke="#000000" points="723,-276.5 723,-295.5 788,-295.5 788,-276.5 723,-276.5"/>
<text text-anchor="middle" x="755.5" y="-283.5" font-family="Helvetica,sans-Serif" font-size="10.00" fill="#000000">pkgCache</text>
</a>
</g>
</g>
<!-- Node5&#45;&gt;Node2 -->
<g id="edge4" class="edge">
<title>Node5&#45;&gt;Node2</title>
<path fill="none" stroke="#9a32cd" stroke-dasharray="5,2" d="M798.0701,-291.36C831.7565,-295.727 879.9612,-302.2547 922,-309 935.0035,-311.0865 949.1237,-313.585 961.9236,-315.9389"/>
<polygon fill="#9a32cd" stroke="#9a32cd" points="798.47,-287.8827 788.1047,-290.0763 797.5756,-294.8253 798.47,-287.8827"/>
<text text-anchor="middle" x="887" y="-312" font-family="Helvetica,sans-Serif" font-size="10.00" fill="#000000"> Cache</text>
</g>
<!-- Node26 -->
<g id="node26" class="node">
<title>Node26</title>
<g id="a_node26"><a xlink:href="classpkgCache_1_1Iterator.xhtml" target="_top" xlink:title="Iterator\&lt; Dependency,\l DepIterator \&gt;">
<polygon fill="#ffffff" stroke="#000000" points="940,-225 940,-255 1068,-255 1068,-225 940,-225"/>
<text text-anchor="start" x="948" y="-243" font-family="Helvetica,sans-Serif" font-size="10.00" fill="#000000">Iterator&lt; Dependency,</text>
<text text-anchor="middle" x="1004" y="-232" font-family="Helvetica,sans-Serif" font-size="10.00" fill="#000000"> DepIterator &gt;</text>
</a>
</g>
</g>
<!-- Node5&#45;&gt;Node26 -->
<g id="edge30" class="edge">
<title>Node5&#45;&gt;Node26</title>
<path fill="none" stroke="#9a32cd" stroke-dasharray="5,2" d="M798.2024,-278.0953C837.1522,-270.8853 895.2499,-260.1308 939.7934,-251.8853"/>
<polygon fill="#9a32cd" stroke="#9a32cd" points="797.4384,-274.6772 788.2426,-279.939 798.7126,-281.5603 797.4384,-274.6772"/>
<text text-anchor="middle" x="887" y="-270" font-family="Helvetica,sans-Serif" font-size="10.00" fill="#000000"> Owner</text>
</g>
<!-- Node6 -->
<g id="node6" class="node">
<title>Node6</title>
<g id="a_node6"><a xlink:href="structpkgCache_1_1DependencyData.xhtml" target="_top" xlink:title="information for a single dependency record ">
<polygon fill="#ffffff" stroke="#000000" points="477.5,-447.5 477.5,-466.5 578.5,-466.5 578.5,-447.5 477.5,-447.5"/>
<text text-anchor="middle" x="528" y="-454.5" font-family="Helvetica,sans-Serif" font-size="10.00" fill="#000000">DependencyData</text>
</a>
</g>
</g>
<!-- Node6&#45;&gt;Node5 -->
<g id="edge5" class="edge">
<title>Node6&#45;&gt;Node5</title>
<path fill="none" stroke="#9a32cd" stroke-dasharray="5,2" d="M588.9178,-455.8905C614.034,-452.207 641.3351,-443.4604 659,-424 694.9522,-384.3935 640.864,-344.4388 677,-305 688.5567,-292.3871 706.9267,-287.4807 722.9914,-285.8001"/>
<polygon fill="#9a32cd" stroke="#9a32cd" points="588.1936,-452.4529 578.6918,-457.1395 589.0424,-459.4012 588.1936,-452.4529"/>
<text text-anchor="middle" x="633" y="-454" font-family="Helvetica,sans-Serif" font-size="10.00" fill="#000000"> DepDataP</text>
</g>
<!-- Node7 -->
<g id="node7" class="node">
<title>Node7</title>
<g id="a_node7"><a xlink:href="structpkgCache_1_1Dependency.xhtml" target="_top" xlink:title="Dependency">
<polygon fill="#ffffff" stroke="#000000" points="489.5,-.5 489.5,-19.5 566.5,-19.5 566.5,-.5 489.5,-.5"/>
<text text-anchor="middle" x="528" y="-7.5" font-family="Helvetica,sans-Serif" font-size="10.00" fill="#000000">Dependency</text>
</a>
</g>
</g>
<!-- Node7&#45;&gt;Node5 -->
<g id="edge6" class="edge">
<title>Node7&#45;&gt;Node5</title>
<path fill="none" stroke="#9a32cd" stroke-dasharray="5,2" d="M576.5539,-18.2007C609.2648,-24.7779 648.3193,-35.0415 659,-48 687.2413,-82.2642 651.93,-210.3517 677,-247 687.6541,-262.5746 706.4046,-272.2114 722.9085,-278.0086"/>
<polygon fill="#9a32cd" stroke="#9a32cd" points="577.1278,-14.7468 566.6443,-16.2789 575.795,-21.6188 577.1278,-14.7468"/>
<text text-anchor="middle" x="633" y="-51" font-family="Helvetica,sans-Serif" font-size="10.00" fill="#000000"> DepP</text>
</g>
<!-- Node7&#45;&gt;Node26 -->
<g id="edge29" class="edge">
<title>Node7&#45;&gt;Node26</title>
<path fill="none" stroke="#9a32cd" stroke-dasharray="5,2" d="M576.5935,-10.0046C601.7777,-11.2896 632.6864,-14.9009 659,-24 797.5816,-71.9208 938.1697,-184.0665 986.4654,-224.8392"/>
<polygon fill="#9a32cd" stroke="#9a32cd" points="576.6704,-6.5049 566.537,-9.5977 576.3873,-13.4992 576.6704,-6.5049"/>
<text text-anchor="middle" x="755.5" y="-113" font-family="Helvetica,sans-Serif" font-size="10.00" fill="#000000"> S</text>
</g>
<!-- Node8 -->
<g id="node8" class="node">
<title>Node8</title>
<g id="a_node8"><a xlink:href="structpkgCache_1_1Description.xhtml" target="_top" xlink:title="datamember of a linked list of available description for a version ">
<polygon fill="#ffffff" stroke="#000000" points="492,-409.5 492,-428.5 564,-428.5 564,-409.5 492,-409.5"/>
<text text-anchor="middle" x="528" y="-416.5" font-family="Helvetica,sans-Serif" font-size="10.00" fill="#000000">Description</text>
</a>
</g>
</g>
<!-- Node8&#45;&gt;Node5 -->
<g id="edge7" class="edge">
<title>Node8&#45;&gt;Node5</title>
<path fill="none" stroke="#9a32cd" stroke-dasharray="5,2" d="M574.2526,-416.9648C602.4717,-413.2664 637.1937,-403.9196 659,-381 682.9269,-355.8516 652.5151,-329.6055 677,-305 688.8688,-293.0728 706.8591,-288.1525 722.6242,-286.2909"/>
<polygon fill="#9a32cd" stroke="#9a32cd" points="573.7371,-413.5005 564.1862,-418.0864 574.5124,-420.4574 573.7371,-413.5005"/>
<text text-anchor="middle" x="633" y="-412" font-family="Helvetica,sans-Serif" font-size="10.00" fill="#000000"> DescP</text>
</g>
<!-- Node9 -->
<g id="node9" class="node">
<title>Node9</title>
<g id="a_node9"><a xlink:href="structpkgCache_1_1Header.xhtml" target="_top" xlink:title="Header">
<polygon fill="#ffffff" stroke="#000000" points="502,-371.5 502,-390.5 554,-390.5 554,-371.5 502,-371.5"/>
<text text-anchor="middle" x="528" y="-378.5" font-family="Helvetica,sans-Serif" font-size="10.00" fill="#000000">Header</text>
</a>
</g>
</g>
<!-- Node9&#45;&gt;Node5 -->
<g id="edge8" class="edge">
<title>Node9&#45;&gt;Node5</title>
<path fill="none" stroke="#9a32cd" stroke-dasharray="5,2" d="M564.0129,-377.7667C592.6213,-373.5181 632.1503,-363.6956 659,-341 672.6617,-329.452 663.0043,-316.1409 677,-305 689.9453,-294.6953 707.635,-289.8534 722.945,-287.6277"/>
<polygon fill="#9a32cd" stroke="#9a32cd" points="563.4637,-374.3088 554.0108,-379.0933 564.3842,-381.248 563.4637,-374.3088"/>
<text text-anchor="middle" x="633" y="-369" font-family="Helvetica,sans-Serif" font-size="10.00" fill="#000000"> HeaderP</text>
</g>
<!-- Node10 -->
<g id="node10" class="node">
<title>Node10</title>
<g id="a_node10"><a xlink:href="structDynamicMMap_1_1Pool.xhtml" target="_top" xlink:title="Pool">
<polygon fill="#ffffff" stroke="#000000" points="340,-371.5 340,-390.5 378,-390.5 378,-371.5 340,-371.5"/>
<text text-anchor="middle" x="359" y="-378.5" font-family="Helvetica,sans-Serif" font-size="10.00" fill="#000000">Pool</text>
</a>
</g>
</g>
<!-- Node10&#45;&gt;Node9 -->
<g id="edge9" class="edge">
<title>Node10&#45;&gt;Node9</title>
<path fill="none" stroke="#9a32cd" stroke-dasharray="5,2" d="M388.1285,-381C420.1301,-381 471.0611,-381 501.8334,-381"/>
<polygon fill="#9a32cd" stroke="#9a32cd" points="388.058,-377.5001 378.0579,-381 388.0579,-384.5001 388.058,-377.5001"/>
<text text-anchor="middle" x="424" y="-384" font-family="Helvetica,sans-Serif" font-size="10.00" fill="#000000"> Pools</text>
</g>
<!-- Node11 -->
<g id="node11" class="node">
<title>Node11</title>
<g id="a_node11"><a xlink:href="structpkgCache_1_1PackageFile.xhtml" target="_top" xlink:title="stores information about the files used to generate the cache ">
<polygon fill="#ffffff" stroke="#000000" points="491,-333.5 491,-352.5 565,-352.5 565,-333.5 491,-333.5"/>
<text text-anchor="middle" x="528" y="-340.5" font-family="Helvetica,sans-Serif" font-size="10.00" fill="#000000">PackageFile</text>
</a>
</g>
</g>
<!-- Node11&#45;&gt;Node5 -->
<g id="edge10" class="edge">
<title>Node11&#45;&gt;Node5</title>
<path fill="none" stroke="#9a32cd" stroke-dasharray="5,2" d="M575.2611,-334.4742C600.4451,-329.3586 631.7635,-322.0765 659,-313 667.3055,-310.2322 668.7117,-307.819 677,-305 691.7354,-299.9882 708.4507,-295.7505 722.6587,-292.5578"/>
<polygon fill="#9a32cd" stroke="#9a32cd" points="574.3557,-331.0855 565.2278,-336.4643 575.7177,-337.9518 574.3557,-331.0855"/>
<text text-anchor="middle" x="633" y="-329" font-family="Helvetica,sans-Serif" font-size="10.00" fill="#000000"> PkgFileP</text>
</g>
<!-- Node12 -->
<g id="node12" class="node">
<title>Node12</title>
<g id="a_node12"><a xlink:href="structpkgCache_1_1ReleaseFile.xhtml" target="_top" xlink:title="stores information about the release files used to generate the cache ">
<polygon fill="#ffffff" stroke="#000000" points="492.5,-295.5 492.5,-314.5 563.5,-314.5 563.5,-295.5 492.5,-295.5"/>
<text text-anchor="middle" x="528" y="-302.5" font-family="Helvetica,sans-Serif" font-size="10.00" fill="#000000">ReleaseFile</text>
</a>
</g>
</g>
<!-- Node12&#45;&gt;Node5 -->
<g id="edge11" class="edge">
<title>Node12&#45;&gt;Node5</title>
<path fill="none" stroke="#9a32cd" stroke-dasharray="5,2" d="M573.7243,-301.1813C617.8771,-297.4938 683.6428,-292.0013 722.7837,-288.7323"/>
<polygon fill="#9a32cd" stroke="#9a32cd" points="573.2209,-297.711 563.5469,-302.0313 573.8035,-304.6868 573.2209,-297.711"/>
<text text-anchor="middle" x="633" y="-301" font-family="Helvetica,sans-Serif" font-size="10.00" fill="#000000"> RlsFileP</text>
</g>
<!-- Node13 -->
<g id="node13" class="node">
<title>Node13</title>
<g id="a_node13"><a xlink:href="structpkgCache_1_1DescFile.xhtml" target="_top" xlink:title="associates a description with a Translation file ">
<polygon fill="#ffffff" stroke="#000000" points="499.5,-257.5 499.5,-276.5 556.5,-276.5 556.5,-257.5 499.5,-257.5"/>
<text text-anchor="middle" x="528" y="-264.5" font-family="Helvetica,sans-Serif" font-size="10.00" fill="#000000">DescFile</text>
</a>
</g>
</g>
<!-- Node13&#45;&gt;Node5 -->
<g id="edge12" class="edge">
<title>Node13&#45;&gt;Node5</title>
<path fill="none" stroke="#9a32cd" stroke-dasharray="5,2" d="M566.8404,-270.2438C610.8099,-273.916 681.6666,-279.8337 722.884,-283.276"/>
<polygon fill="#9a32cd" stroke="#9a32cd" points="567.0697,-266.7509 556.813,-269.4064 566.487,-273.7266 567.0697,-266.7509"/>
<text text-anchor="middle" x="633" y="-280" font-family="Helvetica,sans-Serif" font-size="10.00" fill="#000000"> DescFileP</text>
</g>
<!-- Node14 -->
<g id="node14" class="node">
<title>Node14</title>
<g id="a_node14"><a xlink:href="structpkgCache_1_1Provides.xhtml" target="_top" xlink:title="handles virtual packages ">
<polygon fill="#ffffff" stroke="#000000" points="498.5,-219.5 498.5,-238.5 557.5,-238.5 557.5,-219.5 498.5,-219.5"/>
<text text-anchor="middle" x="528" y="-226.5" font-family="Helvetica,sans-Serif" font-size="10.00" fill="#000000">Provides</text>
</a>
</g>
</g>
<!-- Node14&#45;&gt;Node5 -->
<g id="edge13" class="edge">
<title>Node14&#45;&gt;Node5</title>
<path fill="none" stroke="#9a32cd" stroke-dasharray="5,2" d="M567.4165,-237.0326C593.5048,-242.5192 628.4167,-250.1865 659,-258 680.9721,-263.6134 705.5136,-270.7462 724.3489,-276.4076"/>
<polygon fill="#9a32cd" stroke="#9a32cd" points="568.0288,-233.585 557.5245,-234.9677 566.5983,-240.4373 568.0288,-233.585"/>
<text text-anchor="middle" x="633" y="-261" font-family="Helvetica,sans-Serif" font-size="10.00" fill="#000000"> ProvideP</text>
</g>
<!-- Node15 -->
<g id="node15" class="node">
<title>Node15</title>
<g id="a_node15"><a xlink:title="STL class. ">
<polygon fill="#ffffff" stroke="#bfbfbf" points="156,-197.5 156,-216.5 200,-216.5 200,-197.5 156,-197.5"/>
<text text-anchor="middle" x="178" y="-204.5" font-family="Helvetica,sans-Serif" font-size="10.00" fill="#000000">string</text>
</a>
</g>
</g>
<!-- Node15&#45;&gt;Node5 -->
<g id="edge14" class="edge">
<title>Node15&#45;&gt;Node5</title>
<path fill="none" stroke="#9a32cd" stroke-dasharray="5,2" d="M210.1495,-202.7321C280.0798,-194.4229 450.8289,-179.4279 589,-210 604.3185,-213.3894 695.0999,-256.7834 735.7899,-276.4388"/>
<polygon fill="#9a32cd" stroke="#9a32cd" points="209.6952,-199.2615 200.1951,-203.9518 210.5466,-206.2096 209.6952,-199.2615"/>
<text text-anchor="middle" x="424" y="-196" font-family="Helvetica,sans-Serif" font-size="10.00" fill="#000000"> CacheFile</text>
</g>
<!-- Node23 -->
<g id="node23" class="node">
<title>Node23</title>
<g id="a_node23"><a xlink:href="classFileFd.xhtml" target="_top" xlink:title="FileFd">
<polygon fill="#ffffff" stroke="#000000" points="337,-447.5 337,-466.5 381,-466.5 381,-447.5 337,-447.5"/>
<text text-anchor="middle" x="359" y="-454.5" font-family="Helvetica,sans-Serif" font-size="10.00" fill="#000000">FileFd</text>
</a>
</g>
</g>
<!-- Node15&#45;&gt;Node23 -->
<g id="edge24" class="edge">
<title>Node15&#45;&gt;Node23</title>
<path fill="none" stroke="#9a32cd" stroke-dasharray="5,2" d="M190.9777,-224.925C226.5527,-274.0618 324.7811,-409.7363 351.9536,-447.2675"/>
<polygon fill="#9a32cd" stroke="#9a32cd" points="193.7948,-222.8477 185.0954,-216.8003 188.1248,-226.9528 193.7948,-222.8477"/>
<text text-anchor="middle" x="268.5" y="-410" font-family="Helvetica,sans-Serif" font-size="10.00" fill="#000000"> TemporaryFileName</text>
<text text-anchor="middle" x="268.5" y="-399" font-family="Helvetica,sans-Serif" font-size="10.00" fill="#000000">FileName</text>
</g>
<!-- Node16 -->
<g id="node16" class="node">
<title>Node16</title>
<g id="a_node16"><a xlink:title="STL class. ">
<polygon fill="#ffffff" stroke="#bfbfbf" points="0,-197.5 0,-216.5 119,-216.5 119,-197.5 0,-197.5"/>
<text text-anchor="middle" x="59.5" y="-204.5" font-family="Helvetica,sans-Serif" font-size="10.00" fill="#000000">basic_string&lt; char &gt;</text>
</a>
</g>
</g>
<!-- Node16&#45;&gt;Node15 -->
<g id="edge15" class="edge">
<title>Node16&#45;&gt;Node15</title>
<path fill="none" stroke="#191970" d="M129.2118,-207C138.8284,-207 148.0652,-207 155.8653,-207"/>
<polygon fill="#191970" stroke="#191970" points="129.0972,-203.5001 119.0972,-207 129.0971,-210.5001 129.0972,-203.5001"/>
</g>
<!-- Node17 -->
<g id="node17" class="node">
<title>Node17</title>
<g id="a_node17"><a xlink:href="structpkgCache_1_1Group.xhtml" target="_top" xlink:title="groups architecture depending packages together ">
<polygon fill="#ffffff" stroke="#000000" points="505,-143.5 505,-162.5 551,-162.5 551,-143.5 505,-143.5"/>
<text text-anchor="middle" x="528" y="-150.5" font-family="Helvetica,sans-Serif" font-size="10.00" fill="#000000">Group</text>
</a>
</g>
</g>
<!-- Node17&#45;&gt;Node5 -->
<g id="edge16" class="edge">
<title>Node17&#45;&gt;Node5</title>
<path fill="none" stroke="#9a32cd" stroke-dasharray="5,2" d="M561.2319,-146.4301C590.5678,-142.6857 632.6543,-142.6345 659,-166 686.5906,-190.4696 654.2677,-217.9614 677,-247 688.4442,-261.6189 706.8089,-271.1616 722.8989,-277.1461"/>
<polygon fill="#9a32cd" stroke="#9a32cd" points="560.4316,-143.0105 551.0535,-147.9402 561.4589,-149.9347 560.4316,-143.0105"/>
<text text-anchor="middle" x="633" y="-169" font-family="Helvetica,sans-Serif" font-size="10.00" fill="#000000"> GrpP</text>
</g>
<!-- Node18 -->
<g id="node18" class="node">
<title>Node18</title>
<g id="a_node18"><a xlink:href="classpkgVersioningSystem.xhtml" target="_top" xlink:title="pkgVersioningSystem">
<polygon fill="#ffffff" stroke="#000000" points="467,-76.5 467,-95.5 589,-95.5 589,-76.5 467,-76.5"/>
<text text-anchor="middle" x="528" y="-83.5" font-family="Helvetica,sans-Serif" font-size="10.00" fill="#000000">pkgVersioningSystem</text>
</a>
</g>
</g>
<!-- Node18&#45;&gt;Node5 -->
<g id="edge17" class="edge">
<title>Node18&#45;&gt;Node5</title>
<path fill="none" stroke="#9a32cd" stroke-dasharray="5,2" d="M599.1185,-95.7013C621.3336,-102.1956 643.941,-113.0095 659,-131 692.4878,-171.0068 646.186,-204.8992 677,-247 688.055,-262.1044 706.6086,-271.6976 722.9031,-277.5886"/>
<polygon fill="#9a32cd" stroke="#9a32cd" points="599.8713,-92.28 589.3077,-93.0927 598.0725,-99.0449 599.8713,-92.28"/>
<text text-anchor="middle" x="633" y="-134" font-family="Helvetica,sans-Serif" font-size="10.00" fill="#000000"> VS</text>
</g>
<!-- Node18&#45;&gt;Node18 -->
<g id="edge18" class="edge">
<title>Node18&#45;&gt;Node18</title>
<path fill="none" stroke="#9a32cd" stroke-dasharray="5,2" d="M508.7417,-105.4C510.0278,-110.3146 516.4473,-114 528,-114 546.4844,-114 551.8275,-104.5653 544.0294,-95.7571"/>
<polygon fill="#9a32cd" stroke="#9a32cd" points="512.1142,-106.3509 511.9706,-95.7571 505.4765,-104.1283 512.1142,-106.3509"/>
<text text-anchor="middle" x="528" y="-117" font-family="Helvetica,sans-Serif" font-size="10.00" fill="#000000"> GlobalList</text>
</g>
<!-- Node19 -->
<g id="node19" class="node">
<title>Node19</title>
<g id="a_node19"><a xlink:href="structpkgCache_1_1Version.xhtml" target="_top" xlink:title="information for a single version of a package ">
<polygon fill="#ffffff" stroke="#000000" points="501.5,-38.5 501.5,-57.5 554.5,-57.5 554.5,-38.5 501.5,-38.5"/>
<text text-anchor="middle" x="528" y="-45.5" font-family="Helvetica,sans-Serif" font-size="10.00" fill="#000000">Version</text>
</a>
</g>
</g>
<!-- Node19&#45;&gt;Node5 -->
<g id="edge19" class="edge">
<title>Node19&#45;&gt;Node5</title>
<path fill="none" stroke="#9a32cd" stroke-dasharray="5,2" d="M564.9077,-53.7322C599.2318,-59.8593 646.8485,-70.6633 659,-85 705.8401,-140.263 635.4891,-187.6296 677,-247 687.7256,-262.3401 706.2663,-271.9425 722.6363,-277.7795"/>
<polygon fill="#9a32cd" stroke="#9a32cd" points="565.1848,-50.2285 554.7361,-51.982 563.9978,-57.1271 565.1848,-50.2285"/>
<text text-anchor="middle" x="633" y="-88" font-family="Helvetica,sans-Serif" font-size="10.00" fill="#000000"> VerP</text>
</g>
<!-- Node20 -->
<g id="node20" class="node">
<title>Node20</title>
<g id="a_node20"><a xlink:href="structpkgCache_1_1VerFile.xhtml" target="_top" xlink:title="associates a version with a PackageFile ">
<polygon fill="#ffffff" stroke="#000000" points="503.5,-561.5 503.5,-580.5 552.5,-580.5 552.5,-561.5 503.5,-561.5"/>
<text text-anchor="middle" x="528" y="-568.5" font-family="Helvetica,sans-Serif" font-size="10.00" fill="#000000">VerFile</text>
</a>
</g>
</g>
<!-- Node20&#45;&gt;Node5 -->
<g id="edge20" class="edge">
<title>Node20&#45;&gt;Node5</title>
<path fill="none" stroke="#9a32cd" stroke-dasharray="5,2" d="M562.8301,-575.2388C592.9561,-576.7671 635.2945,-573.3868 659,-547 695.039,-506.8847 642.1039,-346.1134 677,-305 688.1607,-291.8509 706.7184,-286.9511 722.9886,-285.409"/>
<polygon fill="#9a32cd" stroke="#9a32cd" points="562.9564,-571.7391 552.734,-574.5232 562.4615,-578.7216 562.9564,-571.7391"/>
<text text-anchor="middle" x="633" y="-575" font-family="Helvetica,sans-Serif" font-size="10.00" fill="#000000"> VerFileP</text>
</g>
<!-- Node21 -->
<g id="node21" class="node">
<title>Node21</title>
<g id="a_node21"><a xlink:href="structpkgCache_1_1Package.xhtml" target="_top" xlink:title="contains information for a single unique package ">
<polygon fill="#ffffff" stroke="#000000" points="499.5,-523.5 499.5,-542.5 556.5,-542.5 556.5,-523.5 499.5,-523.5"/>
<text text-anchor="middle" x="528" y="-530.5" font-family="Helvetica,sans-Serif" font-size="10.00" fill="#000000">Package</text>
</a>
</g>
</g>
<!-- Node21&#45;&gt;Node5 -->
<g id="edge21" class="edge">
<title>Node21&#45;&gt;Node5</title>
<path fill="none" stroke="#9a32cd" stroke-dasharray="5,2" d="M566.8157,-536.6667C596.5701,-537.1458 636.2686,-532.305 659,-507 689.1165,-473.4737 647.5864,-339.1446 677,-305 688.1651,-292.0391 706.5167,-287.1164 722.6695,-285.5141"/>
<polygon fill="#9a32cd" stroke="#9a32cd" points="566.8708,-533.1665 556.7501,-536.3002 566.6161,-540.1619 566.8708,-533.1665"/>
<text text-anchor="middle" x="633" y="-535" font-family="Helvetica,sans-Serif" font-size="10.00" fill="#000000"> PkgP</text>
</g>
<!-- Node22 -->
<g id="node22" class="node">
<title>Node22</title>
<g id="a_node22"><a xlink:href="classMMap.xhtml" target="_top" xlink:title="MMap">
<polygon fill="#ffffff" stroke="#000000" points="505.5,-485.5 505.5,-504.5 550.5,-504.5 550.5,-485.5 505.5,-485.5"/>
<text text-anchor="middle" x="528" y="-492.5" font-family="Helvetica,sans-Serif" font-size="10.00" fill="#000000">MMap</text>
</a>
</g>
</g>
<!-- Node22&#45;&gt;Node5 -->
<g id="edge22" class="edge">
<title>Node22&#45;&gt;Node5</title>
<path fill="none" stroke="#9a32cd" stroke-dasharray="5,2" d="M560.6588,-497.5467C590.8268,-497.9439 634.5552,-493.1979 659,-466 707.1301,-412.4492 629.3973,-359.0202 677,-305 688.3099,-292.1653 706.6684,-287.2486 722.7886,-285.6179"/>
<polygon fill="#9a32cd" stroke="#9a32cd" points="560.7158,-494.0468 550.6074,-497.2201 560.4884,-501.0431 560.7158,-494.0468"/>
<text text-anchor="middle" x="633" y="-495" font-family="Helvetica,sans-Serif" font-size="10.00" fill="#000000"> Map</text>
</g>
<!-- Node23&#45;&gt;Node22 -->
<g id="edge23" class="edge">
<title>Node23&#45;&gt;Node22</title>
<path fill="none" stroke="#9a32cd" stroke-dasharray="5,2" d="M391.2616,-464.2541C424.6753,-471.7672 476.0218,-483.3126 505.3614,-489.9097"/>
<polygon fill="#9a32cd" stroke="#9a32cd" points="391.618,-460.7469 381.0938,-461.9678 390.0824,-467.5764 391.618,-460.7469"/>
<text text-anchor="middle" x="424" y="-480" font-family="Helvetica,sans-Serif" font-size="10.00" fill="#000000"> SyncToFd</text>
</g>
<!-- Node24 -->
<g id="node24" class="node">
<title>Node24</title>
<g id="a_node24"><a xlink:href="structpkgDepCache_1_1StateCache.xhtml" target="_top" xlink:title="StateCache">
<polygon fill="#ffffff" stroke="#000000" points="719.5,-314.5 719.5,-333.5 791.5,-333.5 791.5,-314.5 719.5,-314.5"/>
<text text-anchor="middle" x="755.5" y="-321.5" font-family="Helvetica,sans-Serif" font-size="10.00" fill="#000000">StateCache</text>
</a>
</g>
</g>
<!-- Node24&#45;&gt;Node2 -->
<g id="edge25" class="edge">
<title>Node24&#45;&gt;Node2</title>
<path fill="none" stroke="#9a32cd" stroke-dasharray="5,2" d="M801.8872,-324C847.7053,-324 917.1854,-324 961.5758,-324"/>
<polygon fill="#9a32cd" stroke="#9a32cd" points="801.6341,-320.5001 791.634,-324 801.634,-327.5001 801.6341,-320.5001"/>
<text text-anchor="middle" x="887" y="-327" font-family="Helvetica,sans-Serif" font-size="10.00" fill="#000000"> PkgState</text>
</g>
<!-- Node25 -->
<g id="node25" class="node">
<title>Node25</title>
<g id="a_node25"><a xlink:href="classpkgCache_1_1DepIterator.xhtml" target="_top" xlink:title="DepIterator">
<polygon fill="#ffffff" stroke="#000000" points="1105,-260.5 1105,-279.5 1177,-279.5 1177,-260.5 1105,-260.5"/>
<text text-anchor="middle" x="1141" y="-267.5" font-family="Helvetica,sans-Serif" font-size="10.00" fill="#000000">DepIterator</text>
</a>
</g>
</g>
<!-- Node25&#45;&gt;Node1 -->
<g id="edge26" class="edge">
<title>Node25&#45;&gt;Node1</title>
<path fill="none" stroke="#9a32cd" stroke-dasharray="5,2" d="M1186.9809,-280.0978C1203.1052,-283.6388 1220.8777,-287.5418 1235.7018,-290.7973"/>
<polygon fill="#9a32cd" stroke="#9a32cd" points="1187.7134,-276.6753 1177.1953,-277.9488 1186.2118,-283.5124 1187.7134,-276.6753"/>
<text text-anchor="middle" x="1206.5" y="-289" font-family="Helvetica,sans-Serif" font-size="10.00" fill="#000000"> Dep</text>
</g>
<!-- Node26&#45;&gt;Node25 -->
<g id="edge27" class="edge">
<title>Node26&#45;&gt;Node25</title>
<path fill="none" stroke="#191970" d="M1077.901,-256.1827C1087.2992,-258.2407 1096.5609,-260.2688 1104.9727,-262.1108"/>
<polygon fill="#191970" stroke="#191970" points="1078.6049,-252.754 1068.0877,-254.0338 1077.1075,-259.592 1078.6049,-252.754"/>
</g>
<!-- Node27 -->
<g id="node27" class="node">
<title>Node27</title>
<polygon fill="#ffffff" stroke="#bfbfbf" points="677,-208 677,-238 834,-238 834,-208 677,-208"/>
<text text-anchor="start" x="685" y="-226" font-family="Helvetica,sans-Serif" font-size="10.00" fill="#000000">iterator&lt; std::forward</text>
<text text-anchor="middle" x="755.5" y="-215" font-family="Helvetica,sans-Serif" font-size="10.00" fill="#000000">_iterator_tag, Dependency &gt;</text>
</g>
<!-- Node27&#45;&gt;Node26 -->
<g id="edge28" class="edge">
<title>Node27&#45;&gt;Node26</title>
<path fill="none" stroke="#191970" d="M844.223,-229.0696C875.7141,-231.2239 910.5293,-233.6056 939.601,-235.5944"/>
<polygon fill="#191970" stroke="#191970" points="844.3425,-225.5697 834.127,-228.3789 843.8647,-232.5533 844.3425,-225.5697"/>
</g>
</g>
</svg>
