<?xml version="1.0" encoding="UTF-8" standalone="no"?>
<!DOCTYPE svg PUBLIC "-//W3C//DTD SVG 1.1//EN"
 "http://www.w3.org/Graphics/SVG/1.1/DTD/svg11.dtd">
<!-- Generated by graphviz version 2.40.1 (20161225.0304)
 -->
<!-- Title: metaIndex::checkSum Pages: 1 -->
<svg width="203pt" height="152pt"
 viewBox="0.00 0.00 202.50 152.00" xmlns="http://www.w3.org/2000/svg" xmlns:xlink="http://www.w3.org/1999/xlink">
<g id="graph0" class="graph" transform="scale(1 1) rotate(0) translate(4 148)">
<title>metaIndex::checkSum</title>
<polygon fill="#ffffff" stroke="transparent" points="-4,4 -4,-148 198.5,-148 198.5,4 -4,4"/>
<!-- Node1 -->
<g id="node1" class="node">
<title>Node1</title>
<polygon fill="#bfbfbf" stroke="#000000" points="12,-.5 12,-19.5 137,-19.5 137,-.5 12,-.5"/>
<text text-anchor="middle" x="74.5" y="-7.5" font-family="Helvetica,sans-Serif" font-size="10.00" fill="#000000">metaIndex::checkSum</text>
</g>
<!-- Node2 -->
<g id="node2" class="node">
<title>Node2</title>
<g id="a_node2"><a xlink:href="classHashStringList.xhtml" target="_top" xlink:title="HashStringList">
<polygon fill="#ffffff" stroke="#000000" points="0,-67.5 0,-86.5 87,-86.5 87,-67.5 0,-67.5"/>
<text text-anchor="middle" x="43.5" y="-74.5" font-family="Helvetica,sans-Serif" font-size="10.00" fill="#000000">HashStringList</text>
</a>
</g>
</g>
<!-- Node2&#45;&gt;Node1 -->
<g id="edge1" class="edge">
<title>Node2&#45;&gt;Node1</title>
<path fill="none" stroke="#9a32cd" stroke-dasharray="5,2" d="M47.5893,-57.4933C49.2951,-51.1085 51.5743,-44.0943 54.5,-38 57.6542,-31.4298 62.3443,-24.7627 66.39,-19.5832"/>
<polygon fill="#9a32cd" stroke="#9a32cd" points="44.1489,-56.833 45.247,-67.3708 50.96,-58.4483 44.1489,-56.833"/>
<text text-anchor="middle" x="74.5" y="-41" font-family="Helvetica,sans-Serif" font-size="10.00" fill="#000000"> Hashes</text>
</g>
<!-- Node3 -->
<g id="node3" class="node">
<title>Node3</title>
<g id="a_node3"><a xlink:title="STL class. ">
<polygon fill="#ffffff" stroke="#bfbfbf" points="105.5,-67.5 105.5,-86.5 149.5,-86.5 149.5,-67.5 105.5,-67.5"/>
<text text-anchor="middle" x="127.5" y="-74.5" font-family="Helvetica,sans-Serif" font-size="10.00" fill="#000000">string</text>
</a>
</g>
</g>
<!-- Node3&#45;&gt;Node1 -->
<g id="edge2" class="edge">
<title>Node3&#45;&gt;Node1</title>
<path fill="none" stroke="#9a32cd" stroke-dasharray="5,2" d="M113.537,-59.3486C103.4676,-46.6194 90.2599,-29.9229 82.0795,-19.5817"/>
<polygon fill="#9a32cd" stroke="#9a32cd" points="110.9573,-61.7291 119.9064,-67.4005 116.4473,-57.3863 110.9573,-61.7291"/>
<text text-anchor="middle" x="149.5" y="-41" font-family="Helvetica,sans-Serif" font-size="10.00" fill="#000000"> MetaKeyFilename</text>
</g>
<!-- Node4 -->
<g id="node4" class="node">
<title>Node4</title>
<g id="a_node4"><a xlink:title="STL class. ">
<polygon fill="#ffffff" stroke="#bfbfbf" points="68,-124.5 68,-143.5 187,-143.5 187,-124.5 68,-124.5"/>
<text text-anchor="middle" x="127.5" y="-131.5" font-family="Helvetica,sans-Serif" font-size="10.00" fill="#000000">basic_string&lt; char &gt;</text>
</a>
</g>
</g>
<!-- Node4&#45;&gt;Node3 -->
<g id="edge3" class="edge">
<title>Node4&#45;&gt;Node3</title>
<path fill="none" stroke="#191970" d="M127.5,-114.2342C127.5,-104.8491 127.5,-94.0651 127.5,-86.5265"/>
<polygon fill="#191970" stroke="#191970" points="124.0001,-114.3307 127.5,-124.3307 131.0001,-114.3308 124.0001,-114.3307"/>
</g>
</g>
</svg>
