<?xml version="1.0" encoding="UTF-8" standalone="no"?>
<!DOCTYPE svg PUBLIC "-//W3C//DTD SVG 1.1//EN"
 "http://www.w3.org/Graphics/SVG/1.1/DTD/svg11.dtd">
<!-- Generated by graphviz version 2.40.1 (20161225.0304)
 -->
<!-- Title: apt&#45;pkg/acquire&#45;worker.h Pages: 1 -->
<svg width="807pt" height="140pt"
 viewBox="0.00 0.00 807.00 140.00" xmlns="http://www.w3.org/2000/svg" xmlns:xlink="http://www.w3.org/1999/xlink">
<g id="graph0" class="graph" transform="scale(1 1) rotate(0) translate(4 136)">
<title>apt&#45;pkg/acquire&#45;worker.h</title>
<polygon fill="#ffffff" stroke="transparent" points="-4,4 -4,-136 803,-136 803,4 -4,4"/>
<!-- Node0 -->
<g id="node1" class="node">
<title>Node0</title>
<polygon fill="#bfbfbf" stroke="#000000" points="282,-112.5 282,-131.5 421,-131.5 421,-112.5 282,-112.5"/>
<text text-anchor="middle" x="351.5" y="-119.5" font-family="Helvetica,sans-Serif" font-size="10.00" fill="#000000">apt&#45;pkg/acquire&#45;worker.h</text>
</g>
<!-- Node1 -->
<g id="node2" class="node">
<title>Node1</title>
<g id="a_node2"><a xlink:href="acquire_8h.xhtml" target="_top" xlink:title="apt&#45;pkg/acquire.h">
<polygon fill="#ffffff" stroke="#000000" points="300.5,-56.5 300.5,-75.5 402.5,-75.5 402.5,-56.5 300.5,-56.5"/>
<text text-anchor="middle" x="351.5" y="-63.5" font-family="Helvetica,sans-Serif" font-size="10.00" fill="#000000">apt&#45;pkg/acquire.h</text>
</a>
</g>
</g>
<!-- Node0&#45;&gt;Node1 -->
<g id="edge1" class="edge">
<title>Node0&#45;&gt;Node1</title>
<path fill="none" stroke="#191970" d="M351.5,-112.2455C351.5,-104.9382 351.5,-94.6944 351.5,-85.7046"/>
<polygon fill="#191970" stroke="#191970" points="355.0001,-85.6426 351.5,-75.6427 348.0001,-85.6427 355.0001,-85.6426"/>
</g>
<!-- Node4 -->
<g id="node5" class="node">
<title>Node4</title>
<polygon fill="#ffffff" stroke="#bfbfbf" points="0,-.5 0,-19.5 105,-19.5 105,-.5 0,-.5"/>
<text text-anchor="middle" x="52.5" y="-7.5" font-family="Helvetica,sans-Serif" font-size="10.00" fill="#000000">apt&#45;pkg/weakptr.h</text>
</g>
<!-- Node0&#45;&gt;Node4 -->
<g id="edge11" class="edge">
<title>Node0&#45;&gt;Node4</title>
<path fill="none" stroke="#191970" d="M326.0074,-112.4509C272.4969,-92.4069 148.394,-45.9202 87.4891,-23.1063"/>
<polygon fill="#191970" stroke="#191970" points="88.5204,-19.7551 77.928,-19.5249 86.0649,-26.3104 88.5204,-19.7551"/>
</g>
<!-- Node5 -->
<g id="node6" class="node">
<title>Node5</title>
<polygon fill="#ffffff" stroke="#bfbfbf" points="123.5,-.5 123.5,-19.5 167.5,-19.5 167.5,-.5 123.5,-.5"/>
<text text-anchor="middle" x="145.5" y="-7.5" font-family="Helvetica,sans-Serif" font-size="10.00" fill="#000000">string</text>
</g>
<!-- Node0&#45;&gt;Node5 -->
<g id="edge12" class="edge">
<title>Node0&#45;&gt;Node5</title>
<path fill="none" stroke="#191970" d="M333.9366,-112.4509C297.7539,-92.7788 214.724,-47.6363 171.9866,-24.4005"/>
<polygon fill="#191970" stroke="#191970" points="173.4763,-21.2266 163.019,-19.5249 170.1327,-27.3764 173.4763,-21.2266"/>
</g>
<!-- Node6 -->
<g id="node7" class="node">
<title>Node6</title>
<polygon fill="#ffffff" stroke="#bfbfbf" points="752,-.5 752,-19.5 799,-19.5 799,-.5 752,-.5"/>
<text text-anchor="middle" x="775.5" y="-7.5" font-family="Helvetica,sans-Serif" font-size="10.00" fill="#000000">vector</text>
</g>
<!-- Node0&#45;&gt;Node6 -->
<g id="edge13" class="edge">
<title>Node0&#45;&gt;Node6</title>
<path fill="none" stroke="#191970" d="M364.0426,-112.4611C386.1047,-95.8715 431.245,-62.8187 449.5,-56 569.4067,-11.212 612.0473,-45.3661 741.9173,-19.742"/>
<polygon fill="#191970" stroke="#191970" points="742.7432,-23.1455 751.8337,-17.7038 741.3338,-16.2888 742.7432,-23.1455"/>
</g>
<!-- Node11 -->
<g id="node12" class="node">
<title>Node11</title>
<polygon fill="#ffffff" stroke="#bfbfbf" points="458.5,-56.5 458.5,-75.5 530.5,-75.5 530.5,-56.5 458.5,-56.5"/>
<text text-anchor="middle" x="494.5" y="-63.5" font-family="Helvetica,sans-Serif" font-size="10.00" fill="#000000">sys/types.h</text>
</g>
<!-- Node0&#45;&gt;Node11 -->
<g id="edge14" class="edge">
<title>Node0&#45;&gt;Node11</title>
<path fill="none" stroke="#191970" d="M376.0826,-112.3733C399.4496,-103.2226 434.7862,-89.3844 460.7784,-79.2057"/>
<polygon fill="#191970" stroke="#191970" points="462.203,-82.4066 470.2382,-75.5011 459.6505,-75.8886 462.203,-82.4066"/>
</g>
<!-- Node2 -->
<g id="node3" class="node">
<title>Node2</title>
<polygon fill="#ffffff" stroke="#bfbfbf" points="438,-.5 438,-19.5 539,-19.5 539,-.5 438,-.5"/>
<text text-anchor="middle" x="488.5" y="-7.5" font-family="Helvetica,sans-Serif" font-size="10.00" fill="#000000">apt&#45;pkg/hashes.h</text>
</g>
<!-- Node1&#45;&gt;Node2 -->
<g id="edge2" class="edge">
<title>Node1&#45;&gt;Node2</title>
<path fill="none" stroke="#191970" d="M375.0511,-56.3733C397.3391,-47.2629 430.9937,-33.5062 455.8637,-23.3404"/>
<polygon fill="#191970" stroke="#191970" points="457.3239,-26.5247 465.2562,-19.5011 454.6753,-20.0451 457.3239,-26.5247"/>
</g>
<!-- Node3 -->
<g id="node4" class="node">
<title>Node3</title>
<polygon fill="#ffffff" stroke="#bfbfbf" points="557.5,-.5 557.5,-19.5 659.5,-19.5 659.5,-.5 557.5,-.5"/>
<text text-anchor="middle" x="608.5" y="-7.5" font-family="Helvetica,sans-Serif" font-size="10.00" fill="#000000">apt&#45;pkg/macros.h</text>
</g>
<!-- Node1&#45;&gt;Node3 -->
<g id="edge3" class="edge">
<title>Node1&#45;&gt;Node3</title>
<path fill="none" stroke="#191970" d="M395.3879,-56.4369C439.4638,-46.8328 507.4481,-32.0191 554.7358,-21.7152"/>
<polygon fill="#191970" stroke="#191970" points="555.7676,-25.0725 564.7932,-19.5237 554.2772,-18.233 555.7676,-25.0725"/>
</g>
<!-- Node1&#45;&gt;Node4 -->
<g id="edge4" class="edge">
<title>Node1&#45;&gt;Node4</title>
<path fill="none" stroke="#191970" d="M300.4398,-56.4369C248.6232,-46.7321 168.405,-31.708 113.3285,-21.3926"/>
<polygon fill="#191970" stroke="#191970" points="113.823,-17.9245 103.3496,-19.5237 112.5344,-24.8048 113.823,-17.9245"/>
</g>
<!-- Node1&#45;&gt;Node5 -->
<g id="edge5" class="edge">
<title>Node1&#45;&gt;Node5</title>
<path fill="none" stroke="#191970" d="M312.7532,-56.4659C279.2638,-48.0804 229.3589,-35.2402 177.5068,-20.1922"/>
<polygon fill="#191970" stroke="#191970" points="178.3861,-16.8028 167.8057,-17.3573 176.4225,-23.5218 178.3861,-16.8028"/>
</g>
<!-- Node1&#45;&gt;Node6 -->
<g id="edge6" class="edge">
<title>Node1&#45;&gt;Node6</title>
<path fill="none" stroke="#191970" d="M402.5652,-57.9333C407.2726,-57.2533 411.9723,-56.598 416.5,-56 557.7687,-37.3417 597.9063,-48.7224 741.7585,-19.7979"/>
<polygon fill="#191970" stroke="#191970" points="742.7434,-23.1691 751.8411,-17.7394 741.3431,-16.3106 742.7434,-23.1691"/>
</g>
<!-- Node7 -->
<g id="node8" class="node">
<title>Node7</title>
<polygon fill="#ffffff" stroke="#bfbfbf" points="677.5,-.5 677.5,-19.5 733.5,-19.5 733.5,-.5 677.5,-.5"/>
<text text-anchor="middle" x="705.5" y="-7.5" font-family="Helvetica,sans-Serif" font-size="10.00" fill="#000000">stddef.h</text>
</g>
<!-- Node1&#45;&gt;Node7 -->
<g id="edge7" class="edge">
<title>Node1&#45;&gt;Node7</title>
<path fill="none" stroke="#191970" d="M402.5868,-58.0874C407.2897,-57.375 411.9824,-56.6702 416.5,-56 525.243,-39.8683 555.9602,-42.625 667.3538,-20.0416"/>
<polygon fill="#191970" stroke="#191970" points="668.2103,-23.4389 677.3033,-18.0013 666.804,-16.5816 668.2103,-23.4389"/>
</g>
<!-- Node8 -->
<g id="node9" class="node">
<title>Node8</title>
<polygon fill="#ffffff" stroke="#bfbfbf" points="185.5,-.5 185.5,-19.5 259.5,-19.5 259.5,-.5 185.5,-.5"/>
<text text-anchor="middle" x="222.5" y="-7.5" font-family="Helvetica,sans-Serif" font-size="10.00" fill="#000000">sys/select.h</text>
</g>
<!-- Node1&#45;&gt;Node8 -->
<g id="edge8" class="edge">
<title>Node1&#45;&gt;Node8</title>
<path fill="none" stroke="#191970" d="M329.3241,-56.3733C308.5234,-47.3435 277.2083,-33.7494 253.8542,-23.6111"/>
<polygon fill="#191970" stroke="#191970" points="254.9532,-20.2727 244.3865,-19.5011 252.1657,-26.6938 254.9532,-20.2727"/>
</g>
<!-- Node9 -->
<g id="node10" class="node">
<title>Node9</title>
<polygon fill="#ffffff" stroke="#bfbfbf" points="277.5,-.5 277.5,-19.5 345.5,-19.5 345.5,-.5 277.5,-.5"/>
<text text-anchor="middle" x="311.5" y="-7.5" font-family="Helvetica,sans-Serif" font-size="10.00" fill="#000000">sys/time.h</text>
</g>
<!-- Node1&#45;&gt;Node9 -->
<g id="edge9" class="edge">
<title>Node1&#45;&gt;Node9</title>
<path fill="none" stroke="#191970" d="M344.5325,-56.2455C338.9689,-48.4564 331.022,-37.3308 324.3171,-27.9439"/>
<polygon fill="#191970" stroke="#191970" points="327.0481,-25.7457 318.3876,-19.6427 321.352,-29.8144 327.0481,-25.7457"/>
</g>
<!-- Node10 -->
<g id="node11" class="node">
<title>Node10</title>
<polygon fill="#ffffff" stroke="#bfbfbf" points="363.5,-.5 363.5,-19.5 419.5,-19.5 419.5,-.5 363.5,-.5"/>
<text text-anchor="middle" x="391.5" y="-7.5" font-family="Helvetica,sans-Serif" font-size="10.00" fill="#000000">unistd.h</text>
</g>
<!-- Node1&#45;&gt;Node10 -->
<g id="edge10" class="edge">
<title>Node1&#45;&gt;Node10</title>
<path fill="none" stroke="#191970" d="M358.4675,-56.2455C364.0311,-48.4564 371.978,-37.3308 378.6829,-27.9439"/>
<polygon fill="#191970" stroke="#191970" points="381.648,-29.8144 384.6124,-19.6427 375.9519,-25.7457 381.648,-29.8144"/>
</g>
</g>
</svg>
