<?xml version="1.0" encoding="UTF-8" standalone="no"?>
<!DOCTYPE svg PUBLIC "-//W3C//DTD SVG 1.1//EN"
 "http://www.w3.org/Graphics/SVG/1.1/DTD/svg11.dtd">
<!-- Generated by graphviz version 2.40.1 (20161225.0304)
 -->
<!-- Title: debIFTypeDebianSourceDir Pages: 1 -->
<svg width="171pt" height="85pt"
 viewBox="0.00 0.00 171.00 85.00" xmlns="http://www.w3.org/2000/svg" xmlns:xlink="http://www.w3.org/1999/xlink">
<g id="graph0" class="graph" transform="scale(1 1) rotate(0) translate(4 81)">
<title>debIFTypeDebianSourceDir</title>
<polygon fill="#ffffff" stroke="transparent" points="-4,4 -4,-81 167,-81 167,4 -4,4"/>
<!-- Node2 -->
<g id="node1" class="node">
<title>Node2</title>
<polygon fill="#bfbfbf" stroke="#000000" points="0,-.5 0,-19.5 147,-19.5 147,-.5 0,-.5"/>
<text text-anchor="middle" x="73.5" y="-7.5" font-family="Helvetica,sans-Serif" font-size="10.00" fill="#000000">debIFTypeDebianSourceDir</text>
</g>
<!-- Node3 -->
<g id="node2" class="node">
<title>Node3</title>
<g id="a_node2"><a xlink:href="classpkgIndexFile_1_1Type.xhtml" target="_top" xlink:title="Type">
<polygon fill="#ffffff" stroke="#000000" points="54,-57.5 54,-76.5 93,-76.5 93,-57.5 54,-57.5"/>
<text text-anchor="middle" x="73.5" y="-64.5" font-family="Helvetica,sans-Serif" font-size="10.00" fill="#000000">Type</text>
</a>
</g>
</g>
<!-- Node3&#45;&gt;Node2 -->
<g id="edge1" class="edge">
<title>Node3&#45;&gt;Node2</title>
<path fill="none" stroke="#191970" d="M73.5,-47.2342C73.5,-37.8491 73.5,-27.0651 73.5,-19.5265"/>
<polygon fill="#191970" stroke="#191970" points="70.0001,-47.3307 73.5,-57.3307 77.0001,-47.3308 70.0001,-47.3307"/>
</g>
<!-- Node3&#45;&gt;Node3 -->
<g id="edge2" class="edge">
<title>Node3&#45;&gt;Node3</title>
<path fill="none" stroke="#9a32cd" stroke-dasharray="5,2" d="M103.3313,-71.7918C107.8972,-71.0633 111,-69.4661 111,-67 111,-62.9531 102.6443,-61.2458 93.1788,-61.8782"/>
<polygon fill="#9a32cd" stroke="#9a32cd" points="103.0598,-68.2987 93.1788,-72.1218 103.2873,-75.295 103.0598,-68.2987"/>
<text text-anchor="middle" x="137" y="-64.5" font-family="Helvetica,sans-Serif" font-size="10.00" fill="#000000"> GlobalList</text>
</g>
</g>
</svg>
