<?xml version="1.0" encoding="UTF-8" standalone="no"?>
<!DOCTYPE svg PUBLIC "-//W3C//DTD SVG 1.1//EN"
 "http://www.w3.org/Graphics/SVG/1.1/DTD/svg11.dtd">
<!-- Generated by graphviz version 2.40.1 (20161225.0304)
 -->
<!-- Title: PackageContainerInterface Pages: 1 -->
<svg width="302pt" height="84pt"
 viewBox="0.00 0.00 301.50 84.00" xmlns="http://www.w3.org/2000/svg" xmlns:xlink="http://www.w3.org/1999/xlink">
<g id="graph0" class="graph" transform="scale(1 1) rotate(0) translate(4 80)">
<title>PackageContainerInterface</title>
<polygon fill="#ffffff" stroke="transparent" points="-4,4 -4,-80 297.5,-80 297.5,4 -4,4"/>
<!-- Node0 -->
<g id="node1" class="node">
<title>Node0</title>
<polygon fill="#bfbfbf" stroke="#000000" points="91,-56.5 91,-75.5 239,-75.5 239,-56.5 91,-56.5"/>
<text text-anchor="middle" x="165" y="-63.5" font-family="Helvetica,sans-Serif" font-size="10.00" fill="#000000">PackageContainerInterface</text>
</g>
<!-- Node1 -->
<g id="node2" class="node">
<title>Node1</title>
<g id="a_node2"><a xlink:href="classAPT_1_1PackageContainer.xhtml" target="_top" xlink:title="PackageContainer\&lt; Container \&gt;">
<polygon fill="#ffffff" stroke="#000000" points="0,-.5 0,-19.5 174,-19.5 174,-.5 0,-.5"/>
<text text-anchor="middle" x="87" y="-7.5" font-family="Helvetica,sans-Serif" font-size="10.00" fill="#000000">PackageContainer&lt; Container &gt;</text>
</a>
</g>
</g>
<!-- Node0&#45;&gt;Node1 -->
<g id="edge1" class="edge">
<title>Node0&#45;&gt;Node1</title>
<path fill="none" stroke="#191970" d="M143.0064,-50.2097C129.3071,-40.3743 112.1264,-28.0394 100.4309,-19.6427"/>
<polygon fill="#191970" stroke="#191970" points="141.2489,-53.2566 151.4134,-56.2455 145.3314,-47.5703 141.2489,-53.2566"/>
</g>
<!-- Node2 -->
<g id="node3" class="node">
<title>Node2</title>
<g id="a_node3"><a xlink:href="classAPT_1_1PackageUniverse.xhtml" target="_top" xlink:title="PackageUniverse">
<polygon fill="#ffffff" stroke="#000000" points="192.5,-.5 192.5,-19.5 293.5,-19.5 293.5,-.5 192.5,-.5"/>
<text text-anchor="middle" x="243" y="-7.5" font-family="Helvetica,sans-Serif" font-size="10.00" fill="#000000">PackageUniverse</text>
</a>
</g>
</g>
<!-- Node0&#45;&gt;Node2 -->
<g id="edge2" class="edge">
<title>Node0&#45;&gt;Node2</title>
<path fill="none" stroke="#191970" d="M186.9936,-50.2097C200.6929,-40.3743 217.8736,-28.0394 229.5691,-19.6427"/>
<polygon fill="#191970" stroke="#191970" points="184.6686,-47.5703 178.5866,-56.2455 188.7511,-53.2566 184.6686,-47.5703"/>
</g>
</g>
</svg>
