<?xml version="1.0" encoding="UTF-8" standalone="no"?>
<!DOCTYPE svg PUBLIC "-//W3C//DTD SVG 1.1//EN"
 "http://www.w3.org/Graphics/SVG/1.1/DTD/svg11.dtd">
<!-- Generated by graphviz version 2.40.1 (20161225.0304)
 -->
<!-- Title: NoActionItem Pages: 1 -->
<!--zoomable 577 -->
<svg id="main" version="1.1" xmlns="http://www.w3.org/2000/svg" xmlns:xlink="http://www.w3.org/1999/xlink" xml:space="preserve" onload="init(evt)">
<style type="text/css"><![CDATA[
.edge:hover path { stroke: red; }
.edge:hover polygon { stroke: red; fill: red; }
]]></style>
<script type="text/javascript"><![CDATA[
var edges = document.getElementsByTagName('g');
if (edges && edges.length) {
  for (var i=0;i<edges.length;i++) {
    if (edges[i].id.substr(0,4)=='edge') {
      edges[i].setAttribute('class','edge');
    }
  }
}
]]></script>
        <defs>
                <circle id="rim" cx="0" cy="0" r="7"/>
                <circle id="rim2" cx="0" cy="0" r="3.5"/>
                <g id="zoomPlus">
                        <use xlink:href="#rim" fill="#404040">
                                <set attributeName="fill" to="#808080" begin="zoomplus.mouseover" end="zoomplus.mouseout"/>
                        </use>
                        <path d="M-4,0h8M0,-4v8" fill="none" stroke="white" stroke-width="1.5" pointer-events="none"/>
                </g>
                <g id="zoomMin">
                        <use xlink:href="#rim" fill="#404040">
                                <set attributeName="fill" to="#808080" begin="zoomminus.mouseover" end="zoomminus.mouseout"/>
                        </use>
                        <path d="M-4,0h8" fill="none" stroke="white" stroke-width="1.5" pointer-events="none"/>
                </g>
                <g id="dirArrow">
                        <path fill="none" stroke="white" stroke-width="1.5" d="M0,-3.0v7 M-2.5,-0.5L0,-3.0L2.5,-0.5"/>
                </g>
               <g id="resetDef">
                       <use xlink:href="#rim2" fill="#404040">
                               <set attributeName="fill" to="#808080" begin="reset.mouseover" end="reset.mouseout"/>
                       </use>
               </g>
        </defs>

<script type="text/javascript">
var viewWidth = 1026;
var viewHeight = 577;
var sectionId = 'dynsection-1';
</script>
<script xlink:href="svgpan.js"/>
<svg id="graph" class="graph">
<g id="viewport">
<title>NoActionItem</title>
<polygon fill="#ffffff" stroke="transparent" points="-4,4 -4,-573 1021.6026,-573 1021.6026,4 -4,4"/>
<!-- Node3 -->
<g id="node1" class="node">
<title>Node3</title>
<polygon fill="#bfbfbf" stroke="#000000" points="172.1026,-298 172.1026,-317 255.1026,-317 255.1026,-298 172.1026,-298"/>
<text text-anchor="middle" x="213.6026" y="-305" font-family="Helvetica,sans-Serif" font-size="10.00" fill="#000000">NoActionItem</text>
</g>
<!-- Node4 -->
<g id="node2" class="node">
<title>Node4</title>
<g id="a_node2"><a xlink:href="classpkgAcquire_1_1Item.xhtml" target="_top" xlink:title="Represents the process by which a pkgAcquire object should retrieve a file or a collection of files...">
<polygon fill="#ffffff" stroke="#000000" points="204.1026,-386 204.1026,-405 243.1026,-405 243.1026,-386 204.1026,-386"/>
<text text-anchor="middle" x="223.6026" y="-393" font-family="Helvetica,sans-Serif" font-size="10.00" fill="#000000">Item</text>
</a>
</g>
</g>
<!-- Node4&#45;&gt;Node3 -->
<g id="edge1" class="edge">
<title>Node4&#45;&gt;Node3</title>
<path fill="none" stroke="#191970" d="M221.3387,-375.5775C219.2604,-357.2889 216.2709,-330.9812 214.6856,-317.03"/>
<polygon fill="#191970" stroke="#191970" points="217.8874,-376.2054 222.4942,-385.7462 224.8427,-375.415 217.8874,-376.2054"/>
</g>
<!-- Node7 -->
<g id="node5" class="node">
<title>Node7</title>
<polygon fill="#ffffff" stroke="#bfbfbf" points="273.1026,-292.5 273.1026,-322.5 386.1026,-322.5 386.1026,-292.5 273.1026,-292.5"/>
<text text-anchor="start" x="281.1026" y="-310.5" font-family="Helvetica,sans-Serif" font-size="10.00" fill="#000000">vector&lt; pkgAcquire</text>
<text text-anchor="middle" x="329.6026" y="-299.5" font-family="Helvetica,sans-Serif" font-size="10.00" fill="#000000">::Item *&gt;</text>
</g>
<!-- Node4&#45;&gt;Node7 -->
<g id="edge5" class="edge">
<title>Node4&#45;&gt;Node7</title>
<path fill="none" stroke="#9a32cd" stroke-dasharray="5,2" d="M243.2818,-379.1626C262.7976,-362.9608 292.4543,-338.3401 311.4277,-322.5887"/>
<polygon fill="#9a32cd" stroke="#9a32cd" points="240.8099,-376.6657 235.3515,-385.7462 245.2813,-382.0516 240.8099,-376.6657"/>
<text text-anchor="middle" x="314.1026" y="-348.5" font-family="Helvetica,sans-Serif" font-size="10.00" fill="#000000"> elements</text>
</g>
<!-- Node10 -->
<g id="node8" class="node">
<title>Node10</title>
<g id="a_node8"><a xlink:href="structpkgAcquire_1_1ItemDesc.xhtml" target="_top" xlink:title="Represents a single download source from which an item should be downloaded. ">
<polygon fill="#ffffff" stroke="#000000" points="43.1026,-298 43.1026,-317 106.1026,-317 106.1026,-298 43.1026,-298"/>
<text text-anchor="middle" x="74.6026" y="-305" font-family="Helvetica,sans-Serif" font-size="10.00" fill="#000000">ItemDesc</text>
</a>
</g>
</g>
<!-- Node4&#45;&gt;Node10 -->
<g id="edge13" class="edge">
<title>Node4&#45;&gt;Node10</title>
<path fill="none" stroke="#9a32cd" stroke-dasharray="5,2" d="M193.8286,-392.8158C154.9863,-388.6326 90.2401,-379.0922 75.6026,-361 65.6694,-348.7224 68.4878,-329.1586 71.5024,-317.3998"/>
<polygon fill="#9a32cd" stroke="#9a32cd" points="193.7306,-396.3239 204.0341,-393.8563 194.4407,-389.36 193.7306,-396.3239"/>
<text text-anchor="middle" x="93.1026" y="-348.5" font-family="Helvetica,sans-Serif" font-size="10.00" fill="#000000"> Owner</text>
</g>
<!-- Node5 -->
<g id="node3" class="node">
<title>Node5</title>
<g id="a_node3"><a xlink:href="classWeakPointable.xhtml" target="_top" xlink:title="WeakPointable">
<polygon fill="#ffffff" stroke="#000000" points="131.1026,-492.5 131.1026,-511.5 220.1026,-511.5 220.1026,-492.5 131.1026,-492.5"/>
<text text-anchor="middle" x="175.6026" y="-499.5" font-family="Helvetica,sans-Serif" font-size="10.00" fill="#000000">WeakPointable</text>
</a>
</g>
</g>
<!-- Node5&#45;&gt;Node4 -->
<g id="edge2" class="edge">
<title>Node5&#45;&gt;Node4</title>
<path fill="none" stroke="#191970" d="M185.1564,-483.2469C186.6723,-480.1708 188.2012,-477.0064 189.6026,-474 201.0226,-449.5005 213.3895,-420.1598 219.5849,-405.2443"/>
<polygon fill="#191970" stroke="#191970" points="181.8834,-481.9657 180.5284,-492.4736 188.1404,-485.1042 181.8834,-481.9657"/>
</g>
<!-- Node5&#45;&gt;Node10 -->
<g id="edge10" class="edge">
<title>Node5&#45;&gt;Node10</title>
<path fill="none" stroke="#191970" d="M120.668,-498.263C84.0014,-494.5672 40.2709,-487.434 27.6026,-474 -12.9516,-430.9944 -4.7682,-390.4596 27.6026,-341 34.2972,-330.7712 45.2853,-322.6835 54.9542,-317.0192"/>
<polygon fill="#191970" stroke="#191970" points="120.5066,-501.7632 130.7908,-499.2167 121.1632,-494.7941 120.5066,-501.7632"/>
</g>
<!-- Node13 -->
<g id="node11" class="node">
<title>Node13</title>
<g id="a_node11"><a xlink:href="classpkgAcquire_1_1Worker.xhtml" target="_top" xlink:title="A fetch subprocess. ">
<polygon fill="#ffffff" stroke="#000000" points="488.1026,-68.5 488.1026,-87.5 539.1026,-87.5 539.1026,-68.5 488.1026,-68.5"/>
<text text-anchor="middle" x="513.6026" y="-75.5" font-family="Helvetica,sans-Serif" font-size="10.00" fill="#000000">Worker</text>
</a>
</g>
</g>
<!-- Node5&#45;&gt;Node13 -->
<g id="edge17" class="edge">
<title>Node5&#45;&gt;Node13</title>
<path fill="none" stroke="#191970" d="M173.5432,-482.1499C168.5901,-433.2712 156.8351,-309.7715 162.6026,-292 171.247,-265.3641 178.3839,-259.2747 199.6026,-241 292.4496,-161.0351 431.2792,-106.7125 488.0369,-86.6292"/>
<polygon fill="#191970" stroke="#191970" points="170.0896,-482.7827 174.5907,-492.3738 177.0531,-482.0691 170.0896,-482.7827"/>
</g>
<!-- Node6 -->
<g id="node4" class="node">
<title>Node6</title>
<g id="a_node4"><a xlink:href="classpkgAcquire.xhtml" target="_top" xlink:title="The core download scheduler. {{{. ">
<polygon fill="#ffffff" stroke="#000000" points="505.1026,-203.5 505.1026,-222.5 576.1026,-222.5 576.1026,-203.5 505.1026,-203.5"/>
<text text-anchor="middle" x="540.6026" y="-210.5" font-family="Helvetica,sans-Serif" font-size="10.00" fill="#000000">pkgAcquire</text>
</a>
</g>
</g>
<!-- Node6&#45;&gt;Node4 -->
<g id="edge3" class="edge">
<title>Node6&#45;&gt;Node4</title>
<path fill="none" stroke="#9a32cd" stroke-dasharray="5,2" d="M542.0417,-232.8437C542.6662,-257.5212 539.7024,-299.2819 515.6026,-323 476.2336,-361.7455 302.6082,-385.9557 243.4359,-393.2018"/>
<polygon fill="#9a32cd" stroke="#9a32cd" points="545.5227,-232.3637 541.5447,-222.5441 538.5308,-232.7012 545.5227,-232.3637"/>
<text text-anchor="middle" x="551.1026" y="-305" font-family="Helvetica,sans-Serif" font-size="10.00" fill="#000000"> Owner</text>
</g>
<!-- Node8 -->
<g id="node6" class="node">
<title>Node8</title>
<g id="a_node6"><a xlink:href="classpkgAcquire_1_1Queue.xhtml" target="_top" xlink:title="A single download queue in a pkgAcquire object. {{{. ">
<polygon fill="#ffffff" stroke="#000000" points="572.6026,-136.5 572.6026,-155.5 620.6026,-155.5 620.6026,-136.5 572.6026,-136.5"/>
<text text-anchor="middle" x="596.6026" y="-143.5" font-family="Helvetica,sans-Serif" font-size="10.00" fill="#000000">Queue</text>
</a>
</g>
</g>
<!-- Node6&#45;&gt;Node8 -->
<g id="edge7" class="edge">
<title>Node6&#45;&gt;Node8</title>
<path fill="none" stroke="#9a32cd" stroke-dasharray="5,2" d="M533.1804,-193.555C531.8747,-186.918 531.9268,-179.7318 535.6026,-174 543.7173,-161.3465 559.1431,-154.3356 572.4513,-150.4935"/>
<polygon fill="#9a32cd" stroke="#9a32cd" points="529.8496,-194.635 536.0242,-203.2445 536.5663,-192.6636 529.8496,-194.635"/>
<text text-anchor="middle" x="553.1026" y="-177" font-family="Helvetica,sans-Serif" font-size="10.00" fill="#000000"> Owner</text>
</g>
<!-- Node7&#45;&gt;Node6 -->
<g id="edge4" class="edge">
<title>Node7&#45;&gt;Node6</title>
<path fill="none" stroke="#9a32cd" stroke-dasharray="5,2" d="M361.7908,-287.2544C385.4404,-272.9833 418.702,-254.1472 449.6026,-241 467.3984,-233.4284 487.9356,-226.9292 504.9913,-222.1036"/>
<polygon fill="#9a32cd" stroke="#9a32cd" points="359.9382,-284.2846 353.2224,-292.479 363.5825,-290.2611 359.9382,-284.2846"/>
<text text-anchor="middle" x="465.1026" y="-255" font-family="Helvetica,sans-Serif" font-size="10.00" fill="#000000"> Items</text>
</g>
<!-- Node9 -->
<g id="node7" class="node">
<title>Node9</title>
<g id="a_node7"><a xlink:href="structpkgAcquire_1_1Queue_1_1QItem.xhtml" target="_top" xlink:title="A single item placed in this queue. ">
<polygon fill="#ffffff" stroke="#000000" points="405.1026,-.5 405.1026,-19.5 452.1026,-19.5 452.1026,-.5 405.1026,-.5"/>
<text text-anchor="middle" x="428.6026" y="-7.5" font-family="Helvetica,sans-Serif" font-size="10.00" fill="#000000">QItem</text>
</a>
</g>
</g>
<!-- Node7&#45;&gt;Node9 -->
<g id="edge14" class="edge">
<title>Node7&#45;&gt;Node9</title>
<path fill="none" stroke="#9a32cd" stroke-dasharray="5,2" d="M283.7264,-288.3199C240.2665,-268.6579 181.6026,-237.5674 181.6026,-213 181.6026,-213 181.6026,-213 181.6026,-78 181.6026,-31.966 343.0971,-15.9176 404.9192,-11.4606"/>
<polygon fill="#9a32cd" stroke="#9a32cd" points="282.4592,-291.5869 293.0183,-292.4563 285.3061,-285.1919 282.4592,-291.5869"/>
<text text-anchor="middle" x="201.6026" y="-143.5" font-family="Helvetica,sans-Serif" font-size="10.00" fill="#000000"> Owners</text>
</g>
<!-- Node8&#45;&gt;Node6 -->
<g id="edge6" class="edge">
<title>Node8&#45;&gt;Node6</title>
<path fill="none" stroke="#9a32cd" stroke-dasharray="5,2" d="M587.8411,-164.7384C584.2356,-171.48 579.7033,-178.9164 574.6026,-185 568.8053,-191.9144 561.1287,-198.4036 554.5369,-203.3905"/>
<polygon fill="#9a32cd" stroke="#9a32cd" points="591.0708,-166.1055 592.4189,-155.5967 584.8117,-162.9711 591.0708,-166.1055"/>
<text text-anchor="middle" x="601.6026" y="-177" font-family="Helvetica,sans-Serif" font-size="10.00" fill="#000000"> Queues</text>
</g>
<!-- Node8&#45;&gt;Node13 -->
<g id="edge18" class="edge">
<title>Node8&#45;&gt;Node13</title>
<path fill="none" stroke="#9a32cd" stroke-dasharray="5,2" d="M588.7443,-126.8052C585.2065,-119.9079 580.4853,-112.4856 574.6026,-107 564.5687,-97.6433 550.9649,-90.7818 539.1501,-86.0891"/>
<polygon fill="#9a32cd" stroke="#9a32cd" points="585.7259,-128.6195 593.078,-136.2482 592.0879,-125.6997 585.7259,-128.6195"/>
<text text-anchor="middle" x="604.1026" y="-110" font-family="Helvetica,sans-Serif" font-size="10.00" fill="#000000"> OwnerQ</text>
</g>
<!-- Node9&#45;&gt;Node8 -->
<g id="edge8" class="edge">
<title>Node9&#45;&gt;Node8</title>
<path fill="none" stroke="#9a32cd" stroke-dasharray="5,2" d="M462.3758,-14.755C513.7456,-22.7552 607.6703,-40.6581 627.6026,-67 643.0283,-87.3861 634.6389,-107.122 629.6026,-118 626.1303,-125.5001 619.5491,-131.7245 613.1719,-136.3847"/>
<polygon fill="#9a32cd" stroke="#9a32cd" points="462.8144,-11.2816 452.4027,-13.243 461.7651,-18.2025 462.8144,-11.2816"/>
<text text-anchor="middle" x="651.1026" y="-75.5" font-family="Helvetica,sans-Serif" font-size="10.00" fill="#000000"> Items</text>
</g>
<!-- Node9&#45;&gt;Node9 -->
<g id="edge15" class="edge">
<title>Node9&#45;&gt;Node9</title>
<path fill="none" stroke="#9a32cd" stroke-dasharray="5,2" d="M462.6174,-15.294C467.1172,-14.3926 470.1026,-12.6279 470.1026,-10 470.1026,-5.6875 462.063,-3.6997 452.4846,-4.0366"/>
<polygon fill="#9a32cd" stroke="#9a32cd" points="462.2321,-11.8118 452.4846,-15.9634 462.6935,-18.7965 462.2321,-11.8118"/>
<text text-anchor="middle" x="483.6026" y="-7.5" font-family="Helvetica,sans-Serif" font-size="10.00" fill="#000000"> Next</text>
</g>
<!-- Node9&#45;&gt;Node13 -->
<g id="edge23" class="edge">
<title>Node9&#45;&gt;Node13</title>
<path fill="none" stroke="#9a32cd" stroke-dasharray="5,2" d="M422.216,-29.4542C421.2013,-36.191 421.5803,-43.4393 425.6026,-49 433.0507,-59.2965 464.826,-67.93 488.0626,-73.031"/>
<polygon fill="#9a32cd" stroke="#9a32cd" points="425.6488,-30.1509 424.6342,-19.6048 418.8507,-28.4818 425.6488,-30.1509"/>
<text text-anchor="middle" x="456.6026" y="-41" font-family="Helvetica,sans-Serif" font-size="10.00" fill="#000000"> CurrentItem</text>
</g>
<!-- Node10&#45;&gt;Node4 -->
<g id="edge36" class="edge">
<title>Node10&#45;&gt;Node4</title>
<path fill="none" stroke="#9a32cd" stroke-dasharray="5,2" d="M99.6254,-322.2786C130.3001,-340.3952 181.3989,-370.5743 207.3734,-385.9149"/>
<polygon fill="#9a32cd" stroke="#9a32cd" points="101.2022,-319.145 90.8119,-317.0732 97.6424,-325.1723 101.2022,-319.145"/>
<text text-anchor="middle" x="176.6026" y="-348.5" font-family="Helvetica,sans-Serif" font-size="10.00" fill="#000000"> Desc</text>
</g>
<!-- Node10&#45;&gt;Node9 -->
<g id="edge9" class="edge">
<title>Node10&#45;&gt;Node9</title>
<path fill="none" stroke="#191970" d="M81.1522,-288.203C86.985,-269.2801 94.6026,-239.4947 94.6026,-213 94.6026,-213 94.6026,-213 94.6026,-78 94.6026,-24.3049 156.3464,-50.3471 208.6026,-38 278.8604,-21.3995 364.2187,-14.0958 404.8684,-11.3757"/>
<polygon fill="#191970" stroke="#191970" points="77.7367,-287.3906 77.9953,-297.9823 84.3982,-289.5411 77.7367,-287.3906"/>
</g>
<!-- Node11 -->
<g id="node9" class="node">
<title>Node11</title>
<g id="a_node9"><a xlink:title="STL class. ">
<polygon fill="#ffffff" stroke="#bfbfbf" points="629.6026,-492.5 629.6026,-511.5 673.6026,-511.5 673.6026,-492.5 629.6026,-492.5"/>
<text text-anchor="middle" x="651.6026" y="-499.5" font-family="Helvetica,sans-Serif" font-size="10.00" fill="#000000">string</text>
</a>
</g>
</g>
<!-- Node11&#45;&gt;Node4 -->
<g id="edge35" class="edge">
<title>Node11&#45;&gt;Node4</title>
<path fill="none" stroke="#9a32cd" stroke-dasharray="5,2" d="M619.2958,-496.8404C588.798,-491.7644 541.8669,-483.4223 501.6026,-474 403.6946,-451.0883 288.6231,-415.9132 243.3306,-401.7383"/>
<polygon fill="#9a32cd" stroke="#9a32cd" points="618.9245,-500.3263 629.36,-498.496 620.0608,-493.4191 618.9245,-500.3263"/>
<text text-anchor="middle" x="546.6026" y="-466" font-family="Helvetica,sans-Serif" font-size="10.00" fill="#000000"> ActiveSubprocess</text>
<text text-anchor="middle" x="546.6026" y="-455" font-family="Helvetica,sans-Serif" font-size="10.00" fill="#000000">DestFile</text>
<text text-anchor="middle" x="546.6026" y="-444" font-family="Helvetica,sans-Serif" font-size="10.00" fill="#000000">ErrorText</text>
<text text-anchor="middle" x="546.6026" y="-433" font-family="Helvetica,sans-Serif" font-size="10.00" fill="#000000">UsedMirror</text>
</g>
<!-- Node11&#45;&gt;Node6 -->
<g id="edge32" class="edge">
<title>Node11&#45;&gt;Node6</title>
<path fill="none" stroke="#9a32cd" stroke-dasharray="5,2" d="M641.8046,-483.1771C640.3345,-480.1372 638.8838,-477.0024 637.6026,-474 603.8907,-394.9995 602.0407,-372.6906 572.6026,-292 564.3125,-269.2765 562.925,-263.3199 553.6026,-241 551,-234.7687 547.8101,-227.8884 545.2415,-222.5074"/>
<polygon fill="#9a32cd" stroke="#9a32cd" points="638.7659,-484.9252 646.3843,-492.2879 645.0202,-481.7813 638.7659,-484.9252"/>
<text text-anchor="middle" x="608.6026" y="-348.5" font-family="Helvetica,sans-Serif" font-size="10.00" fill="#000000"> Lock</text>
</g>
<!-- Node11&#45;&gt;Node8 -->
<g id="edge29" class="edge">
<title>Node11&#45;&gt;Node8</title>
<path fill="none" stroke="#9a32cd" stroke-dasharray="5,2" d="M651.6026,-482.2136C651.6026,-460.8297 651.6026,-425.7485 651.6026,-395.5 651.6026,-395.5 651.6026,-395.5 651.6026,-213 651.6026,-187.8679 628.1972,-167.0133 611.9232,-155.5505"/>
<polygon fill="#9a32cd" stroke="#9a32cd" points="648.1027,-482.3084 651.6026,-492.3084 655.1027,-482.3084 648.1027,-482.3084"/>
<text text-anchor="middle" x="668.1026" y="-305" font-family="Helvetica,sans-Serif" font-size="10.00" fill="#000000"> Name</text>
</g>
<!-- Node11&#45;&gt;Node10 -->
<g id="edge11" class="edge">
<title>Node11&#45;&gt;Node10</title>
<path fill="none" stroke="#9a32cd" stroke-dasharray="5,2" d="M619.2547,-501.2817C562.2526,-499.5324 440.4042,-493.6243 339.6026,-474 246.5874,-455.8916 220.4149,-454.2685 135.6026,-412 101.1515,-394.8304 83.0551,-395.3087 65.6026,-361 58.4283,-346.8965 64.5462,-328.2633 69.6001,-317.1195"/>
<polygon fill="#9a32cd" stroke="#9a32cd" points="619.3496,-504.7857 629.4449,-501.5707 619.5481,-497.7885 619.3496,-504.7857"/>
<text text-anchor="middle" x="165.1026" y="-404" font-family="Helvetica,sans-Serif" font-size="10.00" fill="#000000"> Description</text>
<text text-anchor="middle" x="165.1026" y="-393" font-family="Helvetica,sans-Serif" font-size="10.00" fill="#000000">URI</text>
<text text-anchor="middle" x="165.1026" y="-382" font-family="Helvetica,sans-Serif" font-size="10.00" fill="#000000">ShortDesc</text>
</g>
<!-- Node11&#45;&gt;Node13 -->
<g id="edge24" class="edge">
<title>Node11&#45;&gt;Node13</title>
<path fill="none" stroke="#9a32cd" stroke-dasharray="5,2" d="M684.0458,-500.1103C736.8168,-496.6651 838.6667,-488.3615 871.6026,-474 921.4956,-452.2444 965.6026,-449.9299 965.6026,-395.5 965.6026,-395.5 965.6026,-395.5 965.6026,-146 965.6026,-67.1816 870.3808,-119.7633 792.6026,-107 780.1982,-104.9645 606.2689,-87.3434 539.471,-80.6051"/>
<polygon fill="#9a32cd" stroke="#9a32cd" points="683.6355,-496.6292 673.8765,-500.7536 684.0775,-503.6152 683.6355,-496.6292"/>
<text text-anchor="middle" x="991.6026" y="-266" font-family="Helvetica,sans-Serif" font-size="10.00" fill="#000000"> OutQueue</text>
<text text-anchor="middle" x="991.6026" y="-255" font-family="Helvetica,sans-Serif" font-size="10.00" fill="#000000">Access</text>
<text text-anchor="middle" x="991.6026" y="-244" font-family="Helvetica,sans-Serif" font-size="10.00" fill="#000000">Status</text>
</g>
<!-- Node14 -->
<g id="node12" class="node">
<title>Node14</title>
<g id="a_node12"><a xlink:href="structpkgAcquire_1_1MethodConfig.xhtml" target="_top" xlink:title="Information about the properties of a single acquire method. {{{. ">
<polygon fill="#ffffff" stroke="#000000" points="703.1026,-298 703.1026,-317 786.1026,-317 786.1026,-298 703.1026,-298"/>
<text text-anchor="middle" x="744.6026" y="-305" font-family="Helvetica,sans-Serif" font-size="10.00" fill="#000000">MethodConfig</text>
</a>
</g>
</g>
<!-- Node11&#45;&gt;Node14 -->
<g id="edge21" class="edge">
<title>Node11&#45;&gt;Node14</title>
<path fill="none" stroke="#9a32cd" stroke-dasharray="5,2" d="M674.4481,-486.5339C695.8001,-470.6318 726.4497,-443.7533 740.6026,-412 754.9417,-379.8289 749.8452,-336.4049 746.5356,-317.2584"/>
<polygon fill="#9a32cd" stroke="#9a32cd" points="672.2848,-483.7788 666.2196,-492.4658 676.3783,-489.4571 672.2848,-483.7788"/>
<text text-anchor="middle" x="767.1026" y="-398.5" font-family="Helvetica,sans-Serif" font-size="10.00" fill="#000000"> Access</text>
<text text-anchor="middle" x="767.1026" y="-387.5" font-family="Helvetica,sans-Serif" font-size="10.00" fill="#000000">Version</text>
</g>
<!-- Node17 -->
<g id="node15" class="node">
<title>Node17</title>
<polygon fill="#ffffff" stroke="#bfbfbf" points="793.1026,-341.5 793.1026,-360.5 912.1026,-360.5 912.1026,-341.5 793.1026,-341.5"/>
<text text-anchor="middle" x="852.6026" y="-348.5" font-family="Helvetica,sans-Serif" font-size="10.00" fill="#000000">vector&lt; std::string &gt;</text>
</g>
<!-- Node11&#45;&gt;Node17 -->
<g id="edge27" class="edge">
<title>Node11&#45;&gt;Node17</title>
<path fill="none" stroke="#9a32cd" stroke-dasharray="5,2" d="M683.8379,-498.0891C717.1179,-493.5276 766.2812,-485.1643 781.6026,-474 822.0549,-444.5234 842.9972,-384.4525 849.9347,-360.8428"/>
<polygon fill="#9a32cd" stroke="#9a32cd" points="683.1089,-494.6549 673.6538,-499.4352 684.0262,-501.5945 683.1089,-494.6549"/>
<text text-anchor="middle" x="843.1026" y="-449.5" font-family="Helvetica,sans-Serif" font-size="10.00" fill="#000000"> elements</text>
</g>
<!-- Node12 -->
<g id="node10" class="node">
<title>Node12</title>
<g id="a_node10"><a xlink:title="STL class. ">
<polygon fill="#ffffff" stroke="#bfbfbf" points="592.1026,-549.5 592.1026,-568.5 711.1026,-568.5 711.1026,-549.5 592.1026,-549.5"/>
<text text-anchor="middle" x="651.6026" y="-556.5" font-family="Helvetica,sans-Serif" font-size="10.00" fill="#000000">basic_string&lt; char &gt;</text>
</a>
</g>
</g>
<!-- Node12&#45;&gt;Node11 -->
<g id="edge12" class="edge">
<title>Node12&#45;&gt;Node11</title>
<path fill="none" stroke="#191970" d="M651.6026,-539.2342C651.6026,-529.8491 651.6026,-519.0651 651.6026,-511.5265"/>
<polygon fill="#191970" stroke="#191970" points="648.1027,-539.3307 651.6026,-549.3307 655.1027,-539.3308 648.1027,-539.3307"/>
</g>
<!-- Node13&#45;&gt;Node6 -->
<g id="edge34" class="edge">
<title>Node13&#45;&gt;Node6</title>
<path fill="none" stroke="#9a32cd" stroke-dasharray="5,2" d="M513.7883,-97.8042C514.5386,-119.7118 517.4049,-155.7779 527.6026,-185 529.7923,-191.2747 532.9108,-198.0401 535.5445,-203.3487"/>
<polygon fill="#9a32cd" stroke="#9a32cd" points="517.2862,-97.6682 513.5611,-87.7499 510.288,-97.8264 517.2862,-97.6682"/>
<text text-anchor="middle" x="541.1026" y="-143.5" font-family="Helvetica,sans-Serif" font-size="10.00" fill="#000000"> Workers</text>
</g>
<!-- Node13&#45;&gt;Node8 -->
<g id="edge30" class="edge">
<title>Node13&#45;&gt;Node8</title>
<path fill="none" stroke="#9a32cd" stroke-dasharray="5,2" d="M516.9193,-97.532C518.9742,-104.6989 522.2844,-112.4156 527.6026,-118 539.4603,-130.4512 557.6211,-137.5224 572.3351,-141.443"/>
<polygon fill="#9a32cd" stroke="#9a32cd" points="520.3258,-96.7271 514.719,-87.7374 513.496,-98.2614 520.3258,-96.7271"/>
<text text-anchor="middle" x="549.1026" y="-110" font-family="Helvetica,sans-Serif" font-size="10.00" fill="#000000"> Workers</text>
</g>
<!-- Node13&#45;&gt;Node9 -->
<g id="edge16" class="edge">
<title>Node13&#45;&gt;Node9</title>
<path fill="none" stroke="#9a32cd" stroke-dasharray="5,2" d="M506.2911,-59.0042C502.738,-51.7037 497.8619,-43.7509 491.6026,-38 480.4972,-27.7967 465.062,-20.8543 452.2495,-16.4346"/>
<polygon fill="#9a32cd" stroke="#9a32cd" points="503.1286,-60.5086 510.3221,-68.287 509.5493,-57.7204 503.1286,-60.5086"/>
<text text-anchor="middle" x="518.6026" y="-41" font-family="Helvetica,sans-Serif" font-size="10.00" fill="#000000"> Worker</text>
</g>
<!-- Node13&#45;&gt;Node13 -->
<g id="edge28" class="edge">
<title>Node13&#45;&gt;Node13</title>
<path fill="none" stroke="#9a32cd" stroke-dasharray="5,2" d="M549.6628,-83.5393C554.1521,-82.5577 557.1026,-80.7112 557.1026,-78 557.1026,-73.5508 549.157,-71.4305 539.5043,-71.639"/>
<polygon fill="#9a32cd" stroke="#9a32cd" points="549.1896,-80.0661 539.5043,-84.361 549.754,-87.0433 549.1896,-80.0661"/>
<text text-anchor="middle" x="587.6026" y="-81" font-family="Helvetica,sans-Serif" font-size="10.00" fill="#000000"> NextQueue</text>
<text text-anchor="middle" x="587.6026" y="-70" font-family="Helvetica,sans-Serif" font-size="10.00" fill="#000000">NextAcquire</text>
</g>
<!-- Node14&#45;&gt;Node6 -->
<g id="edge31" class="edge">
<title>Node14&#45;&gt;Node6</title>
<path fill="none" stroke="#9a32cd" stroke-dasharray="5,2" d="M719.6403,-292.8018C694.7915,-278.5123 655.3105,-256.7226 619.6026,-241 603.888,-234.0807 585.8757,-227.5911 571.0227,-222.6053"/>
<polygon fill="#9a32cd" stroke="#9a32cd" points="718.0018,-295.8975 728.409,-297.8829 721.5114,-289.8409 718.0018,-295.8975"/>
<text text-anchor="middle" x="704.6026" y="-255" font-family="Helvetica,sans-Serif" font-size="10.00" fill="#000000"> Configs</text>
</g>
<!-- Node14&#45;&gt;Node13 -->
<g id="edge19" class="edge">
<title>Node14&#45;&gt;Node13</title>
<path fill="none" stroke="#9a32cd" stroke-dasharray="5,2" d="M741.926,-287.4575C739.6049,-273.8847 735.5011,-255.7987 728.6026,-241 697.3178,-173.8873 691.1415,-148.1804 629.6026,-107 614.9382,-97.1869 568.5964,-87.6184 539.1154,-82.2971"/>
<polygon fill="#9a32cd" stroke="#9a32cd" points="738.5092,-288.2688 743.4786,-297.6259 745.429,-287.2122 738.5092,-288.2688"/>
<text text-anchor="middle" x="718.6026" y="-177" font-family="Helvetica,sans-Serif" font-size="10.00" fill="#000000"> Config</text>
</g>
<!-- Node14&#45;&gt;Node14 -->
<g id="edge20" class="edge">
<title>Node14&#45;&gt;Node14</title>
<path fill="none" stroke="#9a32cd" stroke-dasharray="5,2" d="M796.4217,-313.7581C801.1368,-312.4571 804.1026,-310.3711 804.1026,-307.5 804.1026,-302.9063 796.5102,-300.3223 786.3078,-299.748"/>
<polygon fill="#9a32cd" stroke="#9a32cd" points="795.689,-310.3282 786.3078,-315.252 796.7119,-317.2531 795.689,-310.3282"/>
<text text-anchor="middle" x="817.6026" y="-305" font-family="Helvetica,sans-Serif" font-size="10.00" fill="#000000"> Next</text>
</g>
<!-- Node15 -->
<g id="node13" class="node">
<title>Node15</title>
<g id="a_node13"><a xlink:href="classpkgAcquire_1_1MethodConfig_1_1Private.xhtml" target="_top" xlink:title="Private">
<polygon fill="#ffffff" stroke="#000000" points="680.1026,-386 680.1026,-405 731.1026,-405 731.1026,-386 680.1026,-386"/>
<text text-anchor="middle" x="705.6026" y="-393" font-family="Helvetica,sans-Serif" font-size="10.00" fill="#000000">Private</text>
</a>
</g>
</g>
<!-- Node15&#45;&gt;Node14 -->
<g id="edge22" class="edge">
<title>Node15&#45;&gt;Node14</title>
<path fill="none" stroke="#9a32cd" stroke-dasharray="5,2" d="M714.09,-376.349C722.206,-358.0359 734.1087,-331.1786 740.3791,-317.03"/>
<polygon fill="#9a32cd" stroke="#9a32cd" points="710.7773,-375.1857 709.9253,-385.7462 717.177,-378.022 710.7773,-375.1857"/>
<text text-anchor="middle" x="734.6026" y="-348.5" font-family="Helvetica,sans-Serif" font-size="10.00" fill="#000000"> d</text>
</g>
<!-- Node16 -->
<g id="node14" class="node">
<title>Node16</title>
<g id="a_node14"><a xlink:href="classpkgAcquireStatus.xhtml" target="_top" xlink:title="A monitor object for downloads controlled by the pkgAcquire class. {{{. ">
<polygon fill="#ffffff" stroke="#000000" points="404.6026,-298 404.6026,-317 506.6026,-317 506.6026,-298 404.6026,-298"/>
<text text-anchor="middle" x="455.6026" y="-305" font-family="Helvetica,sans-Serif" font-size="10.00" fill="#000000">pkgAcquireStatus</text>
</a>
</g>
</g>
<!-- Node16&#45;&gt;Node6 -->
<g id="edge33" class="edge">
<title>Node16&#45;&gt;Node6</title>
<path fill="none" stroke="#9a32cd" stroke-dasharray="5,2" d="M471.44,-289.9055C475.8146,-284.8595 480.4876,-279.29 484.6026,-274 495.5792,-259.889 495.5753,-254.2268 507.6026,-241 513.6684,-234.3292 521.2985,-227.76 527.6936,-222.6628"/>
<polygon fill="#9a32cd" stroke="#9a32cd" points="468.5008,-287.9467 464.5108,-297.7615 473.7506,-292.5771 468.5008,-287.9467"/>
<text text-anchor="middle" x="518.1026" y="-255" font-family="Helvetica,sans-Serif" font-size="10.00" fill="#000000"> Log</text>
</g>
<!-- Node16&#45;&gt;Node13 -->
<g id="edge25" class="edge">
<title>Node16&#45;&gt;Node13</title>
<path fill="none" stroke="#9a32cd" stroke-dasharray="5,2" d="M441.0159,-289.4095C437.9737,-284.6622 435.206,-279.3623 433.6026,-274 429.401,-259.948 430.2857,-255.2867 433.6026,-241 448.1461,-178.3588 490.3117,-112.0454 506.8414,-87.6902"/>
<polygon fill="#9a32cd" stroke="#9a32cd" points="438.3037,-291.6338 446.97,-297.7286 443.996,-287.5597 438.3037,-291.6338"/>
<text text-anchor="middle" x="468.1026" y="-177" font-family="Helvetica,sans-Serif" font-size="10.00" fill="#000000"> Log</text>
</g>
<!-- Node17&#45;&gt;Node13 -->
<g id="edge26" class="edge">
<title>Node17&#45;&gt;Node13</title>
<path fill="none" stroke="#9a32cd" stroke-dasharray="5,2" d="M854.9236,-331.4235C856.9613,-312.5281 859.6026,-283.0979 859.6026,-257.5 859.6026,-257.5 859.6026,-257.5 859.6026,-146 859.6026,-113.3629 619.5125,-87.9144 539.3262,-80.3251"/>
<polygon fill="#9a32cd" stroke="#9a32cd" points="851.4345,-331.1314 853.7901,-341.461 858.3903,-331.917 851.4345,-331.1314"/>
<text text-anchor="middle" x="898.6026" y="-210.5" font-family="Helvetica,sans-Serif" font-size="10.00" fill="#000000"> MessageQueue</text>
</g>
</g>
</svg>
        <g id="navigator" transform="translate(0 0)" fill="#404254">
                <rect fill="#f2f5e9" fill-opacity="0.5" stroke="#606060" stroke-width=".5" x="0" y="0" width="60" height="60"/>
                <use id="zoomplus" xlink:href="#zoomPlus" x="17" y="9" onmousedown="handleZoom(evt,'in')"/>
                <use id="zoomminus" xlink:href="#zoomMin" x="42" y="9" onmousedown="handleZoom(evt,'out')"/>
                <use id="reset" xlink:href="#resetDef" x="30" y="36" onmousedown="handleReset()"/>
                <g id="arrowUp" xlink:href="#dirArrow" transform="translate(30 24)" onmousedown="handlePan(0,-1)">
                  <use xlink:href="#rim" fill="#404040">
                        <set attributeName="fill" to="#808080" begin="arrowUp.mouseover" end="arrowUp.mouseout"/>
                  </use>
                  <path fill="none" stroke="white" stroke-width="1.5" d="M0,-3.0v7 M-2.5,-0.5L0,-3.0L2.5,-0.5"/>
                </g>
                <g id="arrowRight" xlink:href="#dirArrow" transform="rotate(90) translate(36 -43)" onmousedown="handlePan(1,0)">
                  <use xlink:href="#rim" fill="#404040">
                        <set attributeName="fill" to="#808080" begin="arrowRight.mouseover" end="arrowRight.mouseout"/>
                  </use>
                  <path fill="none" stroke="white" stroke-width="1.5" d="M0,-3.0v7 M-2.5,-0.5L0,-3.0L2.5,-0.5"/>
                </g>
                <g id="arrowDown" xlink:href="#dirArrow" transform="rotate(180) translate(-30 -48)" onmousedown="handlePan(0,1)">
                  <use xlink:href="#rim" fill="#404040">
                        <set attributeName="fill" to="#808080" begin="arrowDown.mouseover" end="arrowDown.mouseout"/>
                  </use>
                  <path fill="none" stroke="white" stroke-width="1.5" d="M0,-3.0v7 M-2.5,-0.5L0,-3.0L2.5,-0.5"/>
                </g>
                <g id="arrowLeft" xlink:href="#dirArrow" transform="rotate(270) translate(-36 17)" onmousedown="handlePan(-1,0)">
                  <use xlink:href="#rim" fill="#404040">
                        <set attributeName="fill" to="#808080" begin="arrowLeft.mouseover" end="arrowLeft.mouseout"/>
                  </use>
                  <path fill="none" stroke="white" stroke-width="1.5" d="M0,-3.0v7 M-2.5,-0.5L0,-3.0L2.5,-0.5"/>
                </g>
        </g>
        <svg viewBox="0 0 15 15" width="100%" height="30px" preserveAspectRatio="xMaxYMin meet">
         <g id="arrow_out" transform="scale(0.3 0.3)">
          <a xlink:href="classNoActionItem__coll__graph_org.svg" target="_base">
           <rect id="button" ry="5" rx="5" y="6" x="6" height="38" width="38"
                fill="#f2f5e9" fill-opacity="0.5" stroke="#606060" stroke-width="1.0"/>
           <path id="arrow"
             d="M 11.500037,31.436501 C 11.940474,20.09759 22.043105,11.32322 32.158766,21.979434 L 37.068811,17.246167 C 37.068811,17.246167 37.088388,32 37.088388,32 L 22.160133,31.978069 C 22.160133,31.978069 26.997745,27.140456 26.997745,27.140456 C 18.528582,18.264221 13.291696,25.230495 11.500037,31.436501 z"
             style="fill:#404040;"/>
          </a>
         </g>
        </svg>
</svg>
