<?xml version="1.0" encoding="UTF-8" standalone="no"?>
<!DOCTYPE svg PUBLIC "-//W3C//DTD SVG 1.1//EN"
 "http://www.w3.org/Graphics/SVG/1.1/DTD/svg11.dtd">
<!-- Generated by graphviz version 2.40.1 (20161225.0304)
 -->
<!-- Title: edspListParser Pages: 1 -->
<svg width="312pt" height="209pt"
 viewBox="0.00 0.00 312.00 209.00" xmlns="http://www.w3.org/2000/svg" xmlns:xlink="http://www.w3.org/1999/xlink">
<g id="graph0" class="graph" transform="scale(1 1) rotate(0) translate(4 205)">
<title>edspListParser</title>
<polygon fill="#ffffff" stroke="transparent" points="-4,4 -4,-205 308,-205 308,4 -4,4"/>
<!-- Node4 -->
<g id="node1" class="node">
<title>Node4</title>
<polygon fill="#bfbfbf" stroke="#000000" points="130.5,-.5 130.5,-19.5 217.5,-19.5 217.5,-.5 130.5,-.5"/>
<text text-anchor="middle" x="174" y="-7.5" font-family="Helvetica,sans-Serif" font-size="10.00" fill="#000000">edspListParser</text>
</g>
<!-- Node5 -->
<g id="node2" class="node">
<title>Node5</title>
<g id="a_node2"><a xlink:href="classedspLikeListParser.xhtml" target="_top" xlink:title="edspLikeListParser">
<polygon fill="#ffffff" stroke="#000000" points="120.5,-57.5 120.5,-76.5 227.5,-76.5 227.5,-57.5 120.5,-57.5"/>
<text text-anchor="middle" x="174" y="-64.5" font-family="Helvetica,sans-Serif" font-size="10.00" fill="#000000">edspLikeListParser</text>
</a>
</g>
</g>
<!-- Node5&#45;&gt;Node4 -->
<g id="edge1" class="edge">
<title>Node5&#45;&gt;Node4</title>
<path fill="none" stroke="#191970" d="M174,-47.2342C174,-37.8491 174,-27.0651 174,-19.5265"/>
<polygon fill="#191970" stroke="#191970" points="170.5001,-47.3307 174,-57.3307 177.5001,-47.3308 170.5001,-47.3307"/>
</g>
<!-- Node6 -->
<g id="node3" class="node">
<title>Node6</title>
<g id="a_node3"><a xlink:href="classdebListParser.xhtml" target="_top" xlink:title="debListParser">
<polygon fill="#ffffff" stroke="#000000" points="133,-114.5 133,-133.5 215,-133.5 215,-114.5 133,-114.5"/>
<text text-anchor="middle" x="174" y="-121.5" font-family="Helvetica,sans-Serif" font-size="10.00" fill="#000000">debListParser</text>
</a>
</g>
</g>
<!-- Node6&#45;&gt;Node5 -->
<g id="edge2" class="edge">
<title>Node6&#45;&gt;Node5</title>
<path fill="none" stroke="#191970" d="M174,-104.2342C174,-94.8491 174,-84.0651 174,-76.5265"/>
<polygon fill="#191970" stroke="#191970" points="170.5001,-104.3307 174,-114.3307 177.5001,-104.3308 170.5001,-104.3307"/>
</g>
<!-- Node7 -->
<g id="node4" class="node">
<title>Node7</title>
<g id="a_node4"><a xlink:href="classpkgCacheListParser.xhtml" target="_top" xlink:title="pkgCacheListParser">
<polygon fill="#ffffff" stroke="#000000" points="0,-181.5 0,-200.5 112,-200.5 112,-181.5 0,-181.5"/>
<text text-anchor="middle" x="56" y="-188.5" font-family="Helvetica,sans-Serif" font-size="10.00" fill="#000000">pkgCacheListParser</text>
</a>
</g>
</g>
<!-- Node7&#45;&gt;Node6 -->
<g id="edge3" class="edge">
<title>Node7&#45;&gt;Node6</title>
<path fill="none" stroke="#191970" d="M81.7405,-176.3846C104.6247,-163.391 137.4233,-144.7681 157.1248,-133.5817"/>
<polygon fill="#191970" stroke="#191970" points="79.8744,-173.4193 72.9065,-181.4005 83.3307,-179.5065 79.8744,-173.4193"/>
</g>
<!-- Node8 -->
<g id="node5" class="node">
<title>Node8</title>
<g id="a_node5"><a xlink:href="classpkgTagSection.xhtml" target="_top" xlink:title="pkgTagSection">
<polygon fill="#ffffff" stroke="#000000" points="130.5,-181.5 130.5,-200.5 217.5,-200.5 217.5,-181.5 130.5,-181.5"/>
<text text-anchor="middle" x="174" y="-188.5" font-family="Helvetica,sans-Serif" font-size="10.00" fill="#000000">pkgTagSection</text>
</a>
</g>
</g>
<!-- Node8&#45;&gt;Node6 -->
<g id="edge4" class="edge">
<title>Node8&#45;&gt;Node6</title>
<path fill="none" stroke="#9a32cd" stroke-dasharray="5,2" d="M174,-171.1079C174,-158.714 174,-143.3263 174,-133.5817"/>
<polygon fill="#9a32cd" stroke="#9a32cd" points="170.5001,-171.4005 174,-181.4005 177.5001,-171.4006 170.5001,-171.4005"/>
<text text-anchor="middle" x="194" y="-155" font-family="Helvetica,sans-Serif" font-size="10.00" fill="#000000"> Section</text>
</g>
<!-- Node9 -->
<g id="node6" class="node">
<title>Node9</title>
<g id="a_node6"><a xlink:href="classpkgTagFile.xhtml" target="_top" xlink:title="pkgTagFile">
<polygon fill="#ffffff" stroke="#000000" points="236,-181.5 236,-200.5 304,-200.5 304,-181.5 236,-181.5"/>
<text text-anchor="middle" x="270" y="-188.5" font-family="Helvetica,sans-Serif" font-size="10.00" fill="#000000">pkgTagFile</text>
</a>
</g>
</g>
<!-- Node9&#45;&gt;Node6 -->
<g id="edge5" class="edge">
<title>Node9&#45;&gt;Node6</title>
<path fill="none" stroke="#9a32cd" stroke-dasharray="5,2" d="M249.7273,-175.2284C240.2191,-167.9787 228.6586,-159.3723 218,-152 208.7661,-145.6132 198.1543,-138.8442 189.6659,-133.5618"/>
<polygon fill="#9a32cd" stroke="#9a32cd" points="247.7358,-178.1121 257.7975,-181.4305 252.0013,-172.5618 247.7358,-178.1121"/>
<text text-anchor="middle" x="244.5" y="-155" font-family="Helvetica,sans-Serif" font-size="10.00" fill="#000000"> Tags</text>
</g>
</g>
</svg>
