<?xml version="1.0" encoding="UTF-8" standalone="no"?>
<!DOCTYPE svg PUBLIC "-//W3C//DTD SVG 1.1//EN"
 "http://www.w3.org/Graphics/SVG/1.1/DTD/svg11.dtd">
<!-- Generated by graphviz version 2.40.1 (20161225.0304)
 -->
<!-- Title: pkgAcqBaseIndex Pages: 1 -->
<svg width="367pt" height="308pt"
 viewBox="0.00 0.00 366.50 308.00" xmlns="http://www.w3.org/2000/svg" xmlns:xlink="http://www.w3.org/1999/xlink">
<g id="graph0" class="graph" transform="scale(1 1) rotate(0) translate(4 304)">
<title>pkgAcqBaseIndex</title>
<polygon fill="#ffffff" stroke="transparent" points="-4,4 -4,-304 362.5,-304 362.5,4 -4,4"/>
<!-- Node0 -->
<g id="node1" class="node">
<title>Node0</title>
<polygon fill="#bfbfbf" stroke="#000000" points="105.5,-112.5 105.5,-131.5 209.5,-131.5 209.5,-112.5 105.5,-112.5"/>
<text text-anchor="middle" x="157.5" y="-119.5" font-family="Helvetica,sans-Serif" font-size="10.00" fill="#000000">pkgAcqBaseIndex</text>
</g>
<!-- Node4 -->
<g id="node5" class="node">
<title>Node4</title>
<g id="a_node5"><a xlink:href="classpkgAcqIndex.xhtml" target="_top" xlink:title="An acquire item that is responsible for fetching an index {{{ file (e.g., Packages or Sources)...">
<polygon fill="#ffffff" stroke="#000000" points="8.5,-56.5 8.5,-75.5 88.5,-75.5 88.5,-56.5 8.5,-56.5"/>
<text text-anchor="middle" x="48.5" y="-63.5" font-family="Helvetica,sans-Serif" font-size="10.00" fill="#000000">pkgAcqIndex</text>
</a>
</g>
</g>
<!-- Node0&#45;&gt;Node4 -->
<g id="edge4" class="edge">
<title>Node0&#45;&gt;Node4</title>
<path fill="none" stroke="#191970" d="M129.4658,-107.5971C109.9254,-97.558 84.3908,-84.4393 67.2688,-75.6427"/>
<polygon fill="#191970" stroke="#191970" points="128.0194,-110.7889 138.5136,-112.2455 131.2183,-104.5625 128.0194,-110.7889"/>
</g>
<!-- Node6 -->
<g id="node7" class="node">
<title>Node6</title>
<g id="a_node7"><a xlink:href="classpkgAcqIndexDiffs.xhtml" target="_top" xlink:title="An item that is responsible for fetching server&#45;merge patches {{{ that need to be applied to a given ...">
<polygon fill="#ffffff" stroke="#000000" points="106.5,-56.5 106.5,-75.5 208.5,-75.5 208.5,-56.5 106.5,-56.5"/>
<text text-anchor="middle" x="157.5" y="-63.5" font-family="Helvetica,sans-Serif" font-size="10.00" fill="#000000">pkgAcqIndexDiffs</text>
</a>
</g>
</g>
<!-- Node0&#45;&gt;Node6 -->
<g id="edge6" class="edge">
<title>Node0&#45;&gt;Node6</title>
<path fill="none" stroke="#191970" d="M157.5,-102.1575C157.5,-93.155 157.5,-82.9199 157.5,-75.6427"/>
<polygon fill="#191970" stroke="#191970" points="154.0001,-102.2455 157.5,-112.2455 161.0001,-102.2456 154.0001,-102.2455"/>
</g>
<!-- Node7 -->
<g id="node8" class="node">
<title>Node7</title>
<g id="a_node8"><a xlink:href="classpkgAcqIndexMergeDiffs.xhtml" target="_top" xlink:title="An item that is responsible for fetching client&#45;merge patches {{{ that need to be applied to a given ...">
<polygon fill="#ffffff" stroke="#000000" points="226.5,-56.5 226.5,-75.5 358.5,-75.5 358.5,-56.5 226.5,-56.5"/>
<text text-anchor="middle" x="292.5" y="-63.5" font-family="Helvetica,sans-Serif" font-size="10.00" fill="#000000">pkgAcqIndexMergeDiffs</text>
</a>
</g>
</g>
<!-- Node0&#45;&gt;Node7 -->
<g id="edge7" class="edge">
<title>Node0&#45;&gt;Node7</title>
<path fill="none" stroke="#191970" d="M189.9991,-108.5189C214.5854,-98.3201 247.7366,-84.5685 269.5955,-75.5011"/>
<polygon fill="#191970" stroke="#191970" points="188.6031,-105.3087 180.7073,-112.3733 191.2852,-111.7745 188.6031,-105.3087"/>
</g>
<!-- Node1 -->
<g id="node2" class="node">
<title>Node1</title>
<g id="a_node2"><a xlink:href="classpkgAcqTransactionItem.xhtml" target="_top" xlink:title="baseclass for the indexes files to manage them all together ">
<polygon fill="#ffffff" stroke="#000000" points="92,-168.5 92,-187.5 223,-187.5 223,-168.5 92,-168.5"/>
<text text-anchor="middle" x="157.5" y="-175.5" font-family="Helvetica,sans-Serif" font-size="10.00" fill="#000000">pkgAcqTransactionItem</text>
</a>
</g>
</g>
<!-- Node1&#45;&gt;Node0 -->
<g id="edge1" class="edge">
<title>Node1&#45;&gt;Node0</title>
<path fill="none" stroke="#191970" d="M157.5,-158.1575C157.5,-149.155 157.5,-138.9199 157.5,-131.6427"/>
<polygon fill="#191970" stroke="#191970" points="154.0001,-158.2455 157.5,-168.2455 161.0001,-158.2456 154.0001,-158.2455"/>
</g>
<!-- Node2 -->
<g id="node3" class="node">
<title>Node2</title>
<g id="a_node3"><a xlink:href="classpkgAcquire_1_1Item.xhtml" target="_top" xlink:title="Represents the process by which a pkgAcquire object should retrieve a file or a collection of files...">
<polygon fill="#ffffff" stroke="#000000" points="138,-224.5 138,-243.5 177,-243.5 177,-224.5 138,-224.5"/>
<text text-anchor="middle" x="157.5" y="-231.5" font-family="Helvetica,sans-Serif" font-size="10.00" fill="#000000">Item</text>
</a>
</g>
</g>
<!-- Node2&#45;&gt;Node1 -->
<g id="edge2" class="edge">
<title>Node2&#45;&gt;Node1</title>
<path fill="none" stroke="#191970" d="M157.5,-214.1575C157.5,-205.155 157.5,-194.9199 157.5,-187.6427"/>
<polygon fill="#191970" stroke="#191970" points="154.0001,-214.2455 157.5,-224.2455 161.0001,-214.2456 154.0001,-214.2455"/>
</g>
<!-- Node3 -->
<g id="node4" class="node">
<title>Node3</title>
<g id="a_node4"><a xlink:href="classWeakPointable.xhtml" target="_top" xlink:title="WeakPointable">
<polygon fill="#ffffff" stroke="#000000" points="113,-280.5 113,-299.5 202,-299.5 202,-280.5 113,-280.5"/>
<text text-anchor="middle" x="157.5" y="-287.5" font-family="Helvetica,sans-Serif" font-size="10.00" fill="#000000">WeakPointable</text>
</a>
</g>
</g>
<!-- Node3&#45;&gt;Node2 -->
<g id="edge3" class="edge">
<title>Node3&#45;&gt;Node2</title>
<path fill="none" stroke="#191970" d="M157.5,-270.1575C157.5,-261.155 157.5,-250.9199 157.5,-243.6427"/>
<polygon fill="#191970" stroke="#191970" points="154.0001,-270.2455 157.5,-280.2455 161.0001,-270.2456 154.0001,-270.2455"/>
</g>
<!-- Node5 -->
<g id="node6" class="node">
<title>Node5</title>
<g id="a_node6"><a xlink:href="classpkgAcqDiffIndex.xhtml" target="_top" xlink:title="An item that is responsible for fetching an index file of {{{ package list diffs and starting the pac...">
<polygon fill="#ffffff" stroke="#000000" points="0,-.5 0,-19.5 97,-19.5 97,-.5 0,-.5"/>
<text text-anchor="middle" x="48.5" y="-7.5" font-family="Helvetica,sans-Serif" font-size="10.00" fill="#000000">pkgAcqDiffIndex</text>
</a>
</g>
</g>
<!-- Node4&#45;&gt;Node5 -->
<g id="edge5" class="edge">
<title>Node4&#45;&gt;Node5</title>
<path fill="none" stroke="#191970" d="M48.5,-46.1575C48.5,-37.155 48.5,-26.9199 48.5,-19.6427"/>
<polygon fill="#191970" stroke="#191970" points="45.0001,-46.2455 48.5,-56.2455 52.0001,-46.2456 45.0001,-46.2455"/>
</g>
</g>
</svg>
