<?xml version="1.0" encoding="UTF-8" standalone="no"?>
<!DOCTYPE svg PUBLIC "-//W3C//DTD SVG 1.1//EN"
 "http://www.w3.org/Graphics/SVG/1.1/DTD/svg11.dtd">
<!-- Generated by graphviz version 2.40.1 (20161225.0304)
 -->
<!-- Title: IndexTarget Pages: 1 -->
<svg width="248pt" height="254pt"
 viewBox="0.00 0.00 248.00 254.00" xmlns="http://www.w3.org/2000/svg" xmlns:xlink="http://www.w3.org/1999/xlink">
<g id="graph0" class="graph" transform="scale(1 1) rotate(0) translate(4 250)">
<title>IndexTarget</title>
<polygon fill="#ffffff" stroke="transparent" points="-4,4 -4,-250 244,-250 244,4 -4,4"/>
<!-- Node1 -->
<g id="node1" class="node">
<title>Node1</title>
<polygon fill="#bfbfbf" stroke="#000000" points="22.5,-.5 22.5,-19.5 96.5,-19.5 96.5,-.5 22.5,-.5"/>
<text text-anchor="middle" x="59.5" y="-7.5" font-family="Helvetica,sans-Serif" font-size="10.00" fill="#000000">IndexTarget</text>
</g>
<!-- Node2 -->
<g id="node2" class="node">
<title>Node2</title>
<polygon fill="#ffffff" stroke="#bfbfbf" points="121,-74 121,-104 240,-104 240,-74 121,-74"/>
<text text-anchor="start" x="129" y="-92" font-family="Helvetica,sans-Serif" font-size="10.00" fill="#000000">map&lt; std::string, std</text>
<text text-anchor="middle" x="180.5" y="-81" font-family="Helvetica,sans-Serif" font-size="10.00" fill="#000000">::string &gt;</text>
</g>
<!-- Node2&#45;&gt;Node1 -->
<g id="edge1" class="edge">
<title>Node2&#45;&gt;Node1</title>
<path fill="none" stroke="#9a32cd" stroke-dasharray="5,2" d="M148.9551,-68.4046C124.78,-52.6208 92.5332,-31.5671 74.0926,-19.5274"/>
<polygon fill="#9a32cd" stroke="#9a32cd" points="147.1692,-71.4185 157.456,-73.9548 150.9961,-65.5571 147.1692,-71.4185"/>
<text text-anchor="middle" x="136" y="-41" font-family="Helvetica,sans-Serif" font-size="10.00" fill="#000000"> Options</text>
</g>
<!-- Node3 -->
<g id="node3" class="node">
<title>Node3</title>
<g id="a_node3"><a xlink:title="STL class. ">
<polygon fill="#ffffff" stroke="#bfbfbf" points="37.5,-169.5 37.5,-188.5 81.5,-188.5 81.5,-169.5 37.5,-169.5"/>
<text text-anchor="middle" x="59.5" y="-176.5" font-family="Helvetica,sans-Serif" font-size="10.00" fill="#000000">string</text>
</a>
</g>
</g>
<!-- Node3&#45;&gt;Node1 -->
<g id="edge4" class="edge">
<title>Node3&#45;&gt;Node1</title>
<path fill="none" stroke="#9a32cd" stroke-dasharray="5,2" d="M57.2942,-159.243C55.8946,-145.6887 54.2168,-127.2799 53.5,-111 52.6398,-91.4634 52.475,-86.5287 53.5,-67 54.3762,-50.3061 56.6864,-30.9751 58.1711,-19.6577"/>
<polygon fill="#9a32cd" stroke="#9a32cd" points="53.8299,-159.7642 58.3772,-169.3335 60.7899,-159.017 53.8299,-159.7642"/>
<text text-anchor="middle" x="83" y="-103" font-family="Helvetica,sans-Serif" font-size="10.00" fill="#000000"> Description</text>
<text text-anchor="middle" x="83" y="-92" font-family="Helvetica,sans-Serif" font-size="10.00" fill="#000000">URI</text>
<text text-anchor="middle" x="83" y="-81" font-family="Helvetica,sans-Serif" font-size="10.00" fill="#000000">ShortDesc</text>
<text text-anchor="middle" x="83" y="-70" font-family="Helvetica,sans-Serif" font-size="10.00" fill="#000000">MetaKey</text>
</g>
<!-- Node3&#45;&gt;Node2 -->
<g id="edge2" class="edge">
<title>Node3&#45;&gt;Node2</title>
<path fill="none" stroke="#9a32cd" stroke-dasharray="5,2" d="M80.6109,-163.2977C102.9364,-146.6919 137.9202,-120.6709 160.0082,-104.2418"/>
<polygon fill="#9a32cd" stroke="#9a32cd" points="78.3841,-160.5919 72.4491,-169.3684 82.5618,-166.2086 78.3841,-160.5919"/>
<text text-anchor="middle" x="146.5" y="-143" font-family="Helvetica,sans-Serif" font-size="10.00" fill="#000000"> keys</text>
<text text-anchor="middle" x="146.5" y="-132" font-family="Helvetica,sans-Serif" font-size="10.00" fill="#000000">elements</text>
</g>
<!-- Node4 -->
<g id="node4" class="node">
<title>Node4</title>
<g id="a_node4"><a xlink:title="STL class. ">
<polygon fill="#ffffff" stroke="#bfbfbf" points="0,-226.5 0,-245.5 119,-245.5 119,-226.5 0,-226.5"/>
<text text-anchor="middle" x="59.5" y="-233.5" font-family="Helvetica,sans-Serif" font-size="10.00" fill="#000000">basic_string&lt; char &gt;</text>
</a>
</g>
</g>
<!-- Node4&#45;&gt;Node3 -->
<g id="edge3" class="edge">
<title>Node4&#45;&gt;Node3</title>
<path fill="none" stroke="#191970" d="M59.5,-216.2342C59.5,-206.8491 59.5,-196.0651 59.5,-188.5265"/>
<polygon fill="#191970" stroke="#191970" points="56.0001,-216.3307 59.5,-226.3307 63.0001,-216.3308 56.0001,-216.3307"/>
</g>
</g>
</svg>
