<?xml version="1.0" encoding="UTF-8" standalone="no"?>
<!DOCTYPE svg PUBLIC "-//W3C//DTD SVG 1.1//EN"
 "http://www.w3.org/Graphics/SVG/1.1/DTD/svg11.dtd">
<!-- Generated by graphviz version 2.40.1 (20161225.0304)
 -->
<!-- Title: PackageMatcher Pages: 1 -->
<svg width="401pt" height="154pt"
 viewBox="0.00 0.00 401.00 153.50" xmlns="http://www.w3.org/2000/svg" xmlns:xlink="http://www.w3.org/1999/xlink">
<g id="graph0" class="graph" transform="scale(1 1) rotate(0) translate(4 149.5)">
<title>PackageMatcher</title>
<polygon fill="#ffffff" stroke="transparent" points="-4,4 -4,-149.5 397,-149.5 397,4 -4,4"/>
<!-- Node0 -->
<g id="node1" class="node">
<title>Node0</title>
<polygon fill="#bfbfbf" stroke="#000000" points="92,-57.5 92,-76.5 188,-76.5 188,-57.5 92,-57.5"/>
<text text-anchor="middle" x="140" y="-64.5" font-family="Helvetica,sans-Serif" font-size="10.00" fill="#000000">PackageMatcher</text>
</g>
<!-- Node2 -->
<g id="node3" class="node">
<title>Node2</title>
<g id="a_node3"><a xlink:href="classAPT_1_1CacheFilter_1_1PackageArchitectureMatchesSpecification.xhtml" target="_top" xlink:title="PackageArchitectureMatches\lSpecification">
<polygon fill="#ffffff" stroke="#000000" points="230,-115 230,-145 387,-145 387,-115 230,-115"/>
<text text-anchor="start" x="238" y="-133" font-family="Helvetica,sans-Serif" font-size="10.00" fill="#000000">PackageArchitectureMatches</text>
<text text-anchor="middle" x="308.5" y="-122" font-family="Helvetica,sans-Serif" font-size="10.00" fill="#000000">Specification</text>
</a>
</g>
</g>
<!-- Node0&#45;&gt;Node2 -->
<g id="edge2" class="edge">
<title>Node0&#45;&gt;Node2</title>
<path fill="none" stroke="#191970" d="M168.4096,-81.0267C184.4952,-88.6695 205.1173,-97.9734 224,-105 233.4632,-108.5214 243.6634,-111.8888 253.5916,-114.9475"/>
<polygon fill="#191970" stroke="#191970" points="169.5652,-77.6987 159.0364,-76.5178 166.5307,-84.0068 169.5652,-77.6987"/>
</g>
<!-- Node3 -->
<g id="node4" class="node">
<title>Node3</title>
<g id="a_node4"><a xlink:href="classAPT_1_1CacheFilter_1_1PackageIsNewInstall.xhtml" target="_top" xlink:title="PackageIsNewInstall">
<polygon fill="#ffffff" stroke="#000000" points="250,-76.5 250,-95.5 367,-95.5 367,-76.5 250,-76.5"/>
<text text-anchor="middle" x="308.5" y="-83.5" font-family="Helvetica,sans-Serif" font-size="10.00" fill="#000000">PackageIsNewInstall</text>
</a>
</g>
</g>
<!-- Node0&#45;&gt;Node3 -->
<g id="edge3" class="edge">
<title>Node0&#45;&gt;Node3</title>
<path fill="none" stroke="#191970" d="M198.4081,-73.5861C215.0159,-75.4588 233.1071,-77.4987 249.736,-79.3738"/>
<polygon fill="#191970" stroke="#191970" points="198.6146,-70.0873 188.2853,-72.4446 197.8302,-77.0432 198.6146,-70.0873"/>
</g>
<!-- Node4 -->
<g id="node5" class="node">
<title>Node4</title>
<g id="a_node5"><a xlink:href="classAPT_1_1CacheFilter_1_1PackageNameMatchesFnmatch.xhtml" target="_top" xlink:title="PackageNameMatchesFnmatch">
<polygon fill="#ffffff" stroke="#000000" points="224,-38.5 224,-57.5 393,-57.5 393,-38.5 224,-38.5"/>
<text text-anchor="middle" x="308.5" y="-45.5" font-family="Helvetica,sans-Serif" font-size="10.00" fill="#000000">PackageNameMatchesFnmatch</text>
</a>
</g>
</g>
<!-- Node0&#45;&gt;Node4 -->
<g id="edge4" class="edge">
<title>Node0&#45;&gt;Node4</title>
<path fill="none" stroke="#191970" d="M198.3079,-60.4252C206.7002,-59.4789 215.4732,-58.4897 224.2461,-57.5004"/>
<polygon fill="#191970" stroke="#191970" points="197.8302,-56.9568 188.2853,-61.5554 198.6146,-63.9127 197.8302,-56.9568"/>
</g>
<!-- Node5 -->
<g id="node6" class="node">
<title>Node5</title>
<g id="a_node6"><a xlink:href="classAPT_1_1CacheFilter_1_1PackageNameMatchesRegEx.xhtml" target="_top" xlink:title="PackageNameMatchesRegEx">
<polygon fill="#ffffff" stroke="#000000" points="230,-.5 230,-19.5 387,-19.5 387,-.5 230,-.5"/>
<text text-anchor="middle" x="308.5" y="-7.5" font-family="Helvetica,sans-Serif" font-size="10.00" fill="#000000">PackageNameMatchesRegEx</text>
</a>
</g>
</g>
<!-- Node0&#45;&gt;Node5 -->
<g id="edge5" class="edge">
<title>Node0&#45;&gt;Node5</title>
<path fill="none" stroke="#191970" d="M167.6063,-52.7908C183.7254,-44.9336 204.6428,-35.4794 224,-29 234.8367,-25.3727 246.6865,-22.2245 257.9928,-19.5907"/>
<polygon fill="#191970" stroke="#191970" points="165.6484,-49.8551 158.2467,-57.4357 168.7602,-56.1254 165.6484,-49.8551"/>
</g>
<!-- Node1 -->
<g id="node2" class="node">
<title>Node1</title>
<g id="a_node2"><a xlink:href="classAPT_1_1CacheFilter_1_1Matcher.xhtml" target="_top" xlink:title="Matcher">
<polygon fill="#ffffff" stroke="#000000" points="0,-57.5 0,-76.5 56,-76.5 56,-57.5 0,-57.5"/>
<text text-anchor="middle" x="28" y="-64.5" font-family="Helvetica,sans-Serif" font-size="10.00" fill="#000000">Matcher</text>
</a>
</g>
</g>
<!-- Node1&#45;&gt;Node0 -->
<g id="edge1" class="edge">
<title>Node1&#45;&gt;Node0</title>
<path fill="none" stroke="#191970" d="M66.2655,-67C74.4484,-67 83.1947,-67 91.6994,-67"/>
<polygon fill="#191970" stroke="#191970" points="66.2624,-63.5001 56.2623,-67 66.2623,-70.5001 66.2624,-63.5001"/>
</g>
</g>
</svg>
