<?xml version="1.0" encoding="UTF-8" standalone="no"?>
<!DOCTYPE svg PUBLIC "-//W3C//DTD SVG 1.1//EN"
 "http://www.w3.org/Graphics/SVG/1.1/DTD/svg11.dtd">
<!-- Generated by graphviz version 2.40.1 (20161225.0304)
 -->
<!-- Title: IndexCopy Pages: 1 -->
<svg width="182pt" height="84pt"
 viewBox="0.00 0.00 182.00 84.00" xmlns="http://www.w3.org/2000/svg" xmlns:xlink="http://www.w3.org/1999/xlink">
<g id="graph0" class="graph" transform="scale(1 1) rotate(0) translate(4 80)">
<title>IndexCopy</title>
<polygon fill="#ffffff" stroke="transparent" points="-4,4 -4,-80 178,-80 178,4 -4,4"/>
<!-- Node0 -->
<g id="node1" class="node">
<title>Node0</title>
<polygon fill="#bfbfbf" stroke="#000000" points="55,-56.5 55,-75.5 123,-75.5 123,-56.5 55,-56.5"/>
<text text-anchor="middle" x="89" y="-63.5" font-family="Helvetica,sans-Serif" font-size="10.00" fill="#000000">IndexCopy</text>
</g>
<!-- Node1 -->
<g id="node2" class="node">
<title>Node1</title>
<g id="a_node2"><a xlink:href="classPackageCopy.xhtml" target="_top" xlink:title="PackageCopy">
<polygon fill="#ffffff" stroke="#000000" points="0,-.5 0,-19.5 82,-19.5 82,-.5 0,-.5"/>
<text text-anchor="middle" x="41" y="-7.5" font-family="Helvetica,sans-Serif" font-size="10.00" fill="#000000">PackageCopy</text>
</a>
</g>
</g>
<!-- Node0&#45;&gt;Node1 -->
<g id="edge1" class="edge">
<title>Node0&#45;&gt;Node1</title>
<path fill="none" stroke="#191970" d="M74.0003,-48.5004C65.8378,-38.9775 56.0511,-27.5596 49.2651,-19.6427"/>
<polygon fill="#191970" stroke="#191970" points="71.4737,-50.9307 80.639,-56.2455 76.7885,-46.3752 71.4737,-50.9307"/>
</g>
<!-- Node2 -->
<g id="node3" class="node">
<title>Node2</title>
<g id="a_node3"><a xlink:href="classSourceCopy.xhtml" target="_top" xlink:title="SourceCopy">
<polygon fill="#ffffff" stroke="#000000" points="100,-.5 100,-19.5 174,-19.5 174,-.5 100,-.5"/>
<text text-anchor="middle" x="137" y="-7.5" font-family="Helvetica,sans-Serif" font-size="10.00" fill="#000000">SourceCopy</text>
</a>
</g>
</g>
<!-- Node0&#45;&gt;Node2 -->
<g id="edge2" class="edge">
<title>Node0&#45;&gt;Node2</title>
<path fill="none" stroke="#191970" d="M103.9997,-48.5004C112.1622,-38.9775 121.9489,-27.5596 128.7349,-19.6427"/>
<polygon fill="#191970" stroke="#191970" points="101.2115,-46.3752 97.361,-56.2455 106.5263,-50.9307 101.2115,-46.3752"/>
</g>
</g>
</svg>
