<?xml version="1.0" encoding="UTF-8" standalone="no"?>
<!DOCTYPE svg PUBLIC "-//W3C//DTD SVG 1.1//EN"
 "http://www.w3.org/Graphics/SVG/1.1/DTD/svg11.dtd">
<!-- Generated by graphviz version 2.40.1 (20161225.0304)
 -->
<!-- Title: pkgPackageManager Pages: 1 -->
<svg width="178pt" height="140pt"
 viewBox="0.00 0.00 178.00 140.00" xmlns="http://www.w3.org/2000/svg" xmlns:xlink="http://www.w3.org/1999/xlink">
<g id="graph0" class="graph" transform="scale(1 1) rotate(0) translate(4 136)">
<title>pkgPackageManager</title>
<polygon fill="#ffffff" stroke="transparent" points="-4,4 -4,-136 174,-136 174,4 -4,4"/>
<!-- Node0 -->
<g id="node1" class="node">
<title>Node0</title>
<polygon fill="#bfbfbf" stroke="#000000" points="25.5,-56.5 25.5,-75.5 142.5,-75.5 142.5,-56.5 25.5,-56.5"/>
<text text-anchor="middle" x="84" y="-63.5" font-family="Helvetica,sans-Serif" font-size="10.00" fill="#000000">pkgPackageManager</text>
</g>
<!-- Node2 -->
<g id="node3" class="node">
<title>Node2</title>
<g id="a_node3"><a xlink:href="classpkgDPkgPM.xhtml" target="_top" xlink:title="pkgDPkgPM">
<polygon fill="#ffffff" stroke="#000000" points="0,-.5 0,-19.5 74,-19.5 74,-.5 0,-.5"/>
<text text-anchor="middle" x="37" y="-7.5" font-family="Helvetica,sans-Serif" font-size="10.00" fill="#000000">pkgDPkgPM</text>
</a>
</g>
</g>
<!-- Node0&#45;&gt;Node2 -->
<g id="edge2" class="edge">
<title>Node0&#45;&gt;Node2</title>
<path fill="none" stroke="#191970" d="M69.3128,-48.5004C61.3204,-38.9775 51.7375,-27.5596 45.093,-19.6427"/>
<polygon fill="#191970" stroke="#191970" points="66.7036,-50.8358 75.8132,-56.2455 72.0654,-46.3357 66.7036,-50.8358"/>
</g>
<!-- Node3 -->
<g id="node4" class="node">
<title>Node3</title>
<g id="a_node4"><a xlink:href="classpkgSimulate.xhtml" target="_top" xlink:title="pkgSimulate">
<polygon fill="#ffffff" stroke="#000000" points="92,-.5 92,-19.5 170,-19.5 170,-.5 92,-.5"/>
<text text-anchor="middle" x="131" y="-7.5" font-family="Helvetica,sans-Serif" font-size="10.00" fill="#000000">pkgSimulate</text>
</a>
</g>
</g>
<!-- Node0&#45;&gt;Node3 -->
<g id="edge3" class="edge">
<title>Node0&#45;&gt;Node3</title>
<path fill="none" stroke="#191970" d="M98.6872,-48.5004C106.6796,-38.9775 116.2625,-27.5596 122.907,-19.6427"/>
<polygon fill="#191970" stroke="#191970" points="95.9346,-46.3357 92.1868,-56.2455 101.2964,-50.8358 95.9346,-46.3357"/>
</g>
<!-- Node1 -->
<g id="node2" class="node">
<title>Node1</title>
<g id="a_node2"><a xlink:href="classpkgCache_1_1Namespace.xhtml" target="_top" xlink:title="Namespace">
<polygon fill="#ffffff" stroke="#000000" points="47,-112.5 47,-131.5 121,-131.5 121,-112.5 47,-112.5"/>
<text text-anchor="middle" x="84" y="-119.5" font-family="Helvetica,sans-Serif" font-size="10.00" fill="#000000">Namespace</text>
</a>
</g>
</g>
<!-- Node1&#45;&gt;Node0 -->
<g id="edge1" class="edge">
<title>Node1&#45;&gt;Node0</title>
<path fill="none" stroke="#006400" d="M84,-102.1575C84,-93.155 84,-82.9199 84,-75.6427"/>
<polygon fill="#006400" stroke="#006400" points="80.5001,-102.2455 84,-112.2455 87.5001,-102.2456 80.5001,-102.2455"/>
</g>
</g>
</svg>
