<?xml version="1.0" encoding="UTF-8" standalone="no"?>
<!DOCTYPE svg PUBLIC "-//W3C//DTD SVG 1.1//EN"
 "http://www.w3.org/Graphics/SVG/1.1/DTD/svg11.dtd">
<!-- Generated by graphviz version 2.40.1 (20161225.0304)
 -->
<!-- Title: debRecordParser Pages: 1 -->
<svg width="317pt" height="230pt"
 viewBox="0.00 0.00 316.50 230.00" xmlns="http://www.w3.org/2000/svg" xmlns:xlink="http://www.w3.org/1999/xlink">
<g id="graph0" class="graph" transform="scale(1 1) rotate(0) translate(4 226)">
<title>debRecordParser</title>
<polygon fill="#ffffff" stroke="transparent" points="-4,4 -4,-226 312.5,-226 312.5,4 -4,4"/>
<!-- Node3 -->
<g id="node1" class="node">
<title>Node3</title>
<polygon fill="#bfbfbf" stroke="#000000" points="151.5,-.5 151.5,-19.5 249.5,-19.5 249.5,-.5 151.5,-.5"/>
<text text-anchor="middle" x="200.5" y="-7.5" font-family="Helvetica,sans-Serif" font-size="10.00" fill="#000000">debRecordParser</text>
</g>
<!-- Node4 -->
<g id="node2" class="node">
<title>Node4</title>
<g id="a_node2"><a xlink:href="classdebRecordParserBase.xhtml" target="_top" xlink:title="debRecordParserBase">
<polygon fill="#ffffff" stroke="#000000" points="38.5,-67.5 38.5,-86.5 160.5,-86.5 160.5,-67.5 38.5,-67.5"/>
<text text-anchor="middle" x="99.5" y="-74.5" font-family="Helvetica,sans-Serif" font-size="10.00" fill="#000000">debRecordParserBase</text>
</a>
</g>
</g>
<!-- Node4&#45;&gt;Node3 -->
<g id="edge1" class="edge">
<title>Node4&#45;&gt;Node3</title>
<path fill="none" stroke="#191970" d="M122.3201,-61.8619C141.8661,-48.8957 169.4177,-30.619 186.056,-19.5817"/>
<polygon fill="#191970" stroke="#191970" points="120.3692,-58.9559 113.9708,-67.4005 124.2388,-64.7892 120.3692,-58.9559"/>
</g>
<!-- Node5 -->
<g id="node3" class="node">
<title>Node5</title>
<g id="a_node3"><a xlink:href="classpkgRecords_1_1Parser.xhtml" target="_top" xlink:title="Parser">
<polygon fill="#ffffff" stroke="#000000" points="0,-145.5 0,-164.5 47,-164.5 47,-145.5 0,-145.5"/>
<text text-anchor="middle" x="23.5" y="-152.5" font-family="Helvetica,sans-Serif" font-size="10.00" fill="#000000">Parser</text>
</a>
</g>
</g>
<!-- Node5&#45;&gt;Node4 -->
<g id="edge2" class="edge">
<title>Node5&#45;&gt;Node4</title>
<path fill="none" stroke="#191970" d="M40.1176,-137.9451C55.4416,-122.2178 77.6436,-99.4316 90.1047,-86.6426"/>
<polygon fill="#191970" stroke="#191970" points="37.291,-135.8308 32.8191,-145.4357 42.3046,-140.7159 37.291,-135.8308"/>
</g>
<!-- Node6 -->
<g id="node4" class="node">
<title>Node6</title>
<g id="a_node4"><a xlink:href="classpkgTagSection.xhtml" target="_top" xlink:title="pkgTagSection">
<polygon fill="#ffffff" stroke="#000000" points="65,-145.5 65,-164.5 152,-164.5 152,-145.5 65,-145.5"/>
<text text-anchor="middle" x="108.5" y="-152.5" font-family="Helvetica,sans-Serif" font-size="10.00" fill="#000000">pkgTagSection</text>
</a>
</g>
</g>
<!-- Node6&#45;&gt;Node4 -->
<g id="edge3" class="edge">
<title>Node6&#45;&gt;Node4</title>
<path fill="none" stroke="#9a32cd" stroke-dasharray="5,2" d="M106.2254,-135.2866C104.4315,-119.7395 102.007,-98.7276 100.6126,-86.6426"/>
<polygon fill="#9a32cd" stroke="#9a32cd" points="102.7732,-135.9028 107.3964,-145.4357 109.727,-135.1004 102.7732,-135.9028"/>
<text text-anchor="middle" x="125.5" y="-113.5" font-family="Helvetica,sans-Serif" font-size="10.00" fill="#000000"> Section</text>
</g>
<!-- Node7 -->
<g id="node5" class="node">
<title>Node7</title>
<g id="a_node5"><a xlink:href="classFileFd.xhtml" target="_top" xlink:title="FileFd">
<polygon fill="#ffffff" stroke="#000000" points="178.5,-67.5 178.5,-86.5 222.5,-86.5 222.5,-67.5 178.5,-67.5"/>
<text text-anchor="middle" x="200.5" y="-74.5" font-family="Helvetica,sans-Serif" font-size="10.00" fill="#000000">FileFd</text>
</a>
</g>
</g>
<!-- Node7&#45;&gt;Node3 -->
<g id="edge4" class="edge">
<title>Node7&#45;&gt;Node3</title>
<path fill="none" stroke="#9a32cd" stroke-dasharray="5,2" d="M200.5,-57.1079C200.5,-44.714 200.5,-29.3263 200.5,-19.5817"/>
<polygon fill="#9a32cd" stroke="#9a32cd" points="197.0001,-57.4005 200.5,-67.4005 204.0001,-57.4006 197.0001,-57.4005"/>
<text text-anchor="middle" x="210.5" y="-41" font-family="Helvetica,sans-Serif" font-size="10.00" fill="#000000"> File</text>
</g>
<!-- Node8 -->
<g id="node6" class="node">
<title>Node8</title>
<g id="a_node6"><a xlink:title="STL class. ">
<polygon fill="#ffffff" stroke="#bfbfbf" points="178.5,-145.5 178.5,-164.5 222.5,-164.5 222.5,-145.5 178.5,-145.5"/>
<text text-anchor="middle" x="200.5" y="-152.5" font-family="Helvetica,sans-Serif" font-size="10.00" fill="#000000">string</text>
</a>
</g>
</g>
<!-- Node8&#45;&gt;Node7 -->
<g id="edge5" class="edge">
<title>Node8&#45;&gt;Node7</title>
<path fill="none" stroke="#9a32cd" stroke-dasharray="5,2" d="M200.5,-135.2866C200.5,-119.7395 200.5,-98.7276 200.5,-86.6426"/>
<polygon fill="#9a32cd" stroke="#9a32cd" points="197.0001,-135.4356 200.5,-145.4357 204.0001,-135.4357 197.0001,-135.4356"/>
<text text-anchor="middle" x="251" y="-119" font-family="Helvetica,sans-Serif" font-size="10.00" fill="#000000"> TemporaryFileName</text>
<text text-anchor="middle" x="251" y="-108" font-family="Helvetica,sans-Serif" font-size="10.00" fill="#000000">FileName</text>
</g>
<!-- Node9 -->
<g id="node7" class="node">
<title>Node9</title>
<g id="a_node7"><a xlink:title="STL class. ">
<polygon fill="#ffffff" stroke="#bfbfbf" points="141,-202.5 141,-221.5 260,-221.5 260,-202.5 141,-202.5"/>
<text text-anchor="middle" x="200.5" y="-209.5" font-family="Helvetica,sans-Serif" font-size="10.00" fill="#000000">basic_string&lt; char &gt;</text>
</a>
</g>
</g>
<!-- Node9&#45;&gt;Node8 -->
<g id="edge6" class="edge">
<title>Node9&#45;&gt;Node8</title>
<path fill="none" stroke="#191970" d="M200.5,-192.2342C200.5,-182.8491 200.5,-172.0651 200.5,-164.5265"/>
<polygon fill="#191970" stroke="#191970" points="197.0001,-192.3307 200.5,-202.3307 204.0001,-192.3308 197.0001,-192.3307"/>
</g>
<!-- Node10 -->
<g id="node8" class="node">
<title>Node10</title>
<g id="a_node8"><a xlink:href="classpkgTagFile.xhtml" target="_top" xlink:title="pkgTagFile">
<polygon fill="#ffffff" stroke="#000000" points="240.5,-67.5 240.5,-86.5 308.5,-86.5 308.5,-67.5 240.5,-67.5"/>
<text text-anchor="middle" x="274.5" y="-74.5" font-family="Helvetica,sans-Serif" font-size="10.00" fill="#000000">pkgTagFile</text>
</a>
</g>
</g>
<!-- Node10&#45;&gt;Node3 -->
<g id="edge7" class="edge">
<title>Node10&#45;&gt;Node3</title>
<path fill="none" stroke="#9a32cd" stroke-dasharray="5,2" d="M256.2099,-60.44C242.015,-47.5879 222.8339,-30.2212 211.0827,-19.5817"/>
<polygon fill="#9a32cd" stroke="#9a32cd" points="254.1355,-63.2833 263.8976,-67.4005 258.8337,-58.0942 254.1355,-63.2833"/>
<text text-anchor="middle" x="254" y="-41" font-family="Helvetica,sans-Serif" font-size="10.00" fill="#000000"> Tags</text>
</g>
</g>
</svg>
