<?xml version="1.0" encoding="UTF-8" standalone="no"?>
<!DOCTYPE svg PUBLIC "-//W3C//DTD SVG 1.1//EN"
 "http://www.w3.org/Graphics/SVG/1.1/DTD/svg11.dtd">
<!-- Generated by graphviz version 2.40.1 (20161225.0304)
 -->
<!-- Title: pkgRecords::Parser Pages: 1 -->
<svg width="258pt" height="140pt"
 viewBox="0.00 0.00 258.00 140.00" xmlns="http://www.w3.org/2000/svg" xmlns:xlink="http://www.w3.org/1999/xlink">
<g id="graph0" class="graph" transform="scale(1 1) rotate(0) translate(4 136)">
<title>pkgRecords::Parser</title>
<polygon fill="#ffffff" stroke="transparent" points="-4,4 -4,-136 254,-136 254,4 -4,4"/>
<!-- Node0 -->
<g id="node1" class="node">
<title>Node0</title>
<polygon fill="#bfbfbf" stroke="#000000" points="79.5,-112.5 79.5,-131.5 188.5,-131.5 188.5,-112.5 79.5,-112.5"/>
<text text-anchor="middle" x="134" y="-119.5" font-family="Helvetica,sans-Serif" font-size="10.00" fill="#000000">pkgRecords::Parser</text>
</g>
<!-- Node1 -->
<g id="node2" class="node">
<title>Node1</title>
<g id="a_node2"><a xlink:href="classdebRecordParserBase.xhtml" target="_top" xlink:title="debRecordParserBase">
<polygon fill="#ffffff" stroke="#000000" points="73,-56.5 73,-75.5 195,-75.5 195,-56.5 73,-56.5"/>
<text text-anchor="middle" x="134" y="-63.5" font-family="Helvetica,sans-Serif" font-size="10.00" fill="#000000">debRecordParserBase</text>
</a>
</g>
</g>
<!-- Node0&#45;&gt;Node1 -->
<g id="edge1" class="edge">
<title>Node0&#45;&gt;Node1</title>
<path fill="none" stroke="#191970" d="M134,-102.1575C134,-93.155 134,-82.9199 134,-75.6427"/>
<polygon fill="#191970" stroke="#191970" points="130.5001,-102.2455 134,-112.2455 137.5001,-102.2456 130.5001,-102.2455"/>
</g>
<!-- Node2 -->
<g id="node3" class="node">
<title>Node2</title>
<g id="a_node3"><a xlink:href="classdebDebFileRecordParser.xhtml" target="_top" xlink:title="debDebFileRecordParser">
<polygon fill="#ffffff" stroke="#000000" points="0,-.5 0,-19.5 134,-19.5 134,-.5 0,-.5"/>
<text text-anchor="middle" x="67" y="-7.5" font-family="Helvetica,sans-Serif" font-size="10.00" fill="#000000">debDebFileRecordParser</text>
</a>
</g>
</g>
<!-- Node1&#45;&gt;Node2 -->
<g id="edge2" class="edge">
<title>Node1&#45;&gt;Node2</title>
<path fill="none" stroke="#191970" d="M114.4324,-49.645C102.7802,-39.9058 88.3916,-27.8795 78.5368,-19.6427"/>
<polygon fill="#191970" stroke="#191970" points="112.4121,-52.5179 122.3295,-56.2455 116.9012,-47.1469 112.4121,-52.5179"/>
</g>
<!-- Node3 -->
<g id="node4" class="node">
<title>Node3</title>
<g id="a_node4"><a xlink:href="classdebRecordParser.xhtml" target="_top" xlink:title="debRecordParser">
<polygon fill="#ffffff" stroke="#000000" points="152,-.5 152,-19.5 250,-19.5 250,-.5 152,-.5"/>
<text text-anchor="middle" x="201" y="-7.5" font-family="Helvetica,sans-Serif" font-size="10.00" fill="#000000">debRecordParser</text>
</a>
</g>
</g>
<!-- Node1&#45;&gt;Node3 -->
<g id="edge3" class="edge">
<title>Node1&#45;&gt;Node3</title>
<path fill="none" stroke="#191970" d="M153.5676,-49.645C165.2198,-39.9058 179.6084,-27.8795 189.4632,-19.6427"/>
<polygon fill="#191970" stroke="#191970" points="151.0988,-47.1469 145.6705,-56.2455 155.5879,-52.5179 151.0988,-47.1469"/>
</g>
</g>
</svg>
