<?xml version="1.0" encoding="UTF-8" standalone="no"?>
<!DOCTYPE svg PUBLIC "-//W3C//DTD SVG 1.1//EN"
 "http://www.w3.org/Graphics/SVG/1.1/DTD/svg11.dtd">
<!-- Generated by graphviz version 2.40.1 (20161225.0304)
 -->
<!-- Title: pkgCache Pages: 1 -->
<svg width="750pt" height="589pt"
 viewBox="0.00 0.00 750.00 589.00" xmlns="http://www.w3.org/2000/svg" xmlns:xlink="http://www.w3.org/1999/xlink">
<g id="graph0" class="graph" transform="scale(1 1) rotate(0) translate(4 585)">
<title>pkgCache</title>
<polygon fill="#ffffff" stroke="transparent" points="-4,4 -4,-585 746,-585 746,4 -4,4"/>
<!-- Node1 -->
<g id="node1" class="node">
<title>Node1</title>
<polygon fill="#bfbfbf" stroke="#000000" points="677,-295.5 677,-314.5 742,-314.5 742,-295.5 677,-295.5"/>
<text text-anchor="middle" x="709.5" y="-302.5" font-family="Helvetica,sans-Serif" font-size="10.00" fill="#000000">pkgCache</text>
</g>
<!-- Node2 -->
<g id="node2" class="node">
<title>Node2</title>
<g id="a_node2"><a xlink:href="structpkgCache_1_1DependencyData.xhtml" target="_top" xlink:title="information for a single dependency record ">
<polygon fill="#ffffff" stroke="#000000" points="477.5,-561.5 477.5,-580.5 578.5,-580.5 578.5,-561.5 477.5,-561.5"/>
<text text-anchor="middle" x="528" y="-568.5" font-family="Helvetica,sans-Serif" font-size="10.00" fill="#000000">DependencyData</text>
</a>
</g>
</g>
<!-- Node2&#45;&gt;Node1 -->
<g id="edge1" class="edge">
<title>Node2&#45;&gt;Node1</title>
<path fill="none" stroke="#9a32cd" stroke-dasharray="5,2" d="M588.8238,-571.3092C613.654,-568.2709 640.7598,-560.3852 659,-542 691.8889,-508.8496 705.7128,-354.9671 708.8047,-314.6768"/>
<polygon fill="#9a32cd" stroke="#9a32cd" points="588.3285,-567.8409 578.7194,-572.3037 589.0142,-574.8073 588.3285,-567.8409"/>
<text text-anchor="middle" x="633" y="-570" font-family="Helvetica,sans-Serif" font-size="10.00" fill="#000000"> DepDataP</text>
</g>
<!-- Node3 -->
<g id="node3" class="node">
<title>Node3</title>
<g id="a_node3"><a xlink:href="structpkgCache_1_1Dependency.xhtml" target="_top" xlink:title="Dependency">
<polygon fill="#ffffff" stroke="#000000" points="489.5,-523.5 489.5,-542.5 566.5,-542.5 566.5,-523.5 489.5,-523.5"/>
<text text-anchor="middle" x="528" y="-530.5" font-family="Helvetica,sans-Serif" font-size="10.00" fill="#000000">Dependency</text>
</a>
</g>
</g>
<!-- Node3&#45;&gt;Node1 -->
<g id="edge2" class="edge">
<title>Node3&#45;&gt;Node1</title>
<path fill="none" stroke="#9a32cd" stroke-dasharray="5,2" d="M576.855,-532.8564C604.4057,-530.1825 637.5077,-522.2235 659,-501 686.2532,-474.0876 703.7113,-350.8793 708.2937,-314.8948"/>
<polygon fill="#9a32cd" stroke="#9a32cd" points="576.308,-529.3879 566.6034,-533.639 576.8409,-536.3675 576.308,-529.3879"/>
<text text-anchor="middle" x="633" y="-530" font-family="Helvetica,sans-Serif" font-size="10.00" fill="#000000"> DepP</text>
</g>
<!-- Node4 -->
<g id="node4" class="node">
<title>Node4</title>
<g id="a_node4"><a xlink:href="structpkgCache_1_1Description.xhtml" target="_top" xlink:title="datamember of a linked list of available description for a version ">
<polygon fill="#ffffff" stroke="#000000" points="492,-485.5 492,-504.5 564,-504.5 564,-485.5 492,-485.5"/>
<text text-anchor="middle" x="528" y="-492.5" font-family="Helvetica,sans-Serif" font-size="10.00" fill="#000000">Description</text>
</a>
</g>
</g>
<!-- Node4&#45;&gt;Node1 -->
<g id="edge3" class="edge">
<title>Node4&#45;&gt;Node1</title>
<path fill="none" stroke="#9a32cd" stroke-dasharray="5,2" d="M574.4864,-492.9669C602.2688,-489.3892 636.4351,-480.4923 659,-459 680.6985,-438.333 701.2493,-345.4467 707.5409,-314.8258"/>
<polygon fill="#9a32cd" stroke="#9a32cd" points="573.7488,-489.5266 564.1885,-494.0929 574.5097,-496.4852 573.7488,-489.5266"/>
<text text-anchor="middle" x="633" y="-489" font-family="Helvetica,sans-Serif" font-size="10.00" fill="#000000"> DescP</text>
</g>
<!-- Node5 -->
<g id="node5" class="node">
<title>Node5</title>
<g id="a_node5"><a xlink:href="structpkgCache_1_1Header.xhtml" target="_top" xlink:title="Header">
<polygon fill="#ffffff" stroke="#000000" points="502,-447.5 502,-466.5 554,-466.5 554,-447.5 502,-447.5"/>
<text text-anchor="middle" x="528" y="-454.5" font-family="Helvetica,sans-Serif" font-size="10.00" fill="#000000">Header</text>
</a>
</g>
</g>
<!-- Node5&#45;&gt;Node1 -->
<g id="edge4" class="edge">
<title>Node5&#45;&gt;Node1</title>
<path fill="none" stroke="#9a32cd" stroke-dasharray="5,2" d="M564.2591,-454.0522C593.0098,-449.9685 632.6102,-440.2287 659,-417 691.0215,-388.8142 703.8321,-336.3093 707.9045,-314.6872"/>
<polygon fill="#9a32cd" stroke="#9a32cd" points="563.6881,-450.5963 554.2022,-455.3153 564.5605,-457.5417 563.6881,-450.5963"/>
<text text-anchor="middle" x="633" y="-447" font-family="Helvetica,sans-Serif" font-size="10.00" fill="#000000"> HeaderP</text>
</g>
<!-- Node6 -->
<g id="node6" class="node">
<title>Node6</title>
<g id="a_node6"><a xlink:href="structDynamicMMap_1_1Pool.xhtml" target="_top" xlink:title="Pool">
<polygon fill="#ffffff" stroke="#000000" points="340,-447.5 340,-466.5 378,-466.5 378,-447.5 340,-447.5"/>
<text text-anchor="middle" x="359" y="-454.5" font-family="Helvetica,sans-Serif" font-size="10.00" fill="#000000">Pool</text>
</a>
</g>
</g>
<!-- Node6&#45;&gt;Node5 -->
<g id="edge5" class="edge">
<title>Node6&#45;&gt;Node5</title>
<path fill="none" stroke="#9a32cd" stroke-dasharray="5,2" d="M388.1285,-457C420.1301,-457 471.0611,-457 501.8334,-457"/>
<polygon fill="#9a32cd" stroke="#9a32cd" points="388.058,-453.5001 378.0579,-457 388.0579,-460.5001 388.058,-453.5001"/>
<text text-anchor="middle" x="424" y="-460" font-family="Helvetica,sans-Serif" font-size="10.00" fill="#000000"> Pools</text>
</g>
<!-- Node7 -->
<g id="node7" class="node">
<title>Node7</title>
<g id="a_node7"><a xlink:href="structpkgCache_1_1PackageFile.xhtml" target="_top" xlink:title="stores information about the files used to generate the cache ">
<polygon fill="#ffffff" stroke="#000000" points="491,-409.5 491,-428.5 565,-428.5 565,-409.5 491,-409.5"/>
<text text-anchor="middle" x="528" y="-416.5" font-family="Helvetica,sans-Serif" font-size="10.00" fill="#000000">PackageFile</text>
</a>
</g>
</g>
<!-- Node7&#45;&gt;Node1 -->
<g id="edge6" class="edge">
<title>Node7&#45;&gt;Node1</title>
<path fill="none" stroke="#9a32cd" stroke-dasharray="5,2" d="M575.001,-412.0892C601.6265,-406.3665 634.4184,-396.114 659,-378 682.0754,-360.9959 698.2779,-330.1647 705.4134,-314.5752"/>
<polygon fill="#9a32cd" stroke="#9a32cd" points="574.2457,-408.6709 565.1284,-414.0676 575.6212,-415.5344 574.2457,-408.6709"/>
<text text-anchor="middle" x="633" y="-405" font-family="Helvetica,sans-Serif" font-size="10.00" fill="#000000"> PkgFileP</text>
</g>
<!-- Node8 -->
<g id="node8" class="node">
<title>Node8</title>
<g id="a_node8"><a xlink:href="structpkgCache_1_1ReleaseFile.xhtml" target="_top" xlink:title="stores information about the release files used to generate the cache ">
<polygon fill="#ffffff" stroke="#000000" points="492.5,-371.5 492.5,-390.5 563.5,-390.5 563.5,-371.5 492.5,-371.5"/>
<text text-anchor="middle" x="528" y="-378.5" font-family="Helvetica,sans-Serif" font-size="10.00" fill="#000000">ReleaseFile</text>
</a>
</g>
</g>
<!-- Node8&#45;&gt;Node1 -->
<g id="edge7" class="edge">
<title>Node8&#45;&gt;Node1</title>
<path fill="none" stroke="#9a32cd" stroke-dasharray="5,2" d="M573.5672,-373.1783C599.542,-367.5859 632.1614,-358.6007 659,-345 674.763,-337.012 690.305,-323.6473 699.8944,-314.5857"/>
<polygon fill="#9a32cd" stroke="#9a32cd" points="572.6928,-369.7848 563.6036,-375.2289 574.1039,-376.6411 572.6928,-369.7848"/>
<text text-anchor="middle" x="633" y="-366" font-family="Helvetica,sans-Serif" font-size="10.00" fill="#000000"> RlsFileP</text>
</g>
<!-- Node9 -->
<g id="node9" class="node">
<title>Node9</title>
<g id="a_node9"><a xlink:href="structpkgCache_1_1DescFile.xhtml" target="_top" xlink:title="associates a description with a Translation file ">
<polygon fill="#ffffff" stroke="#000000" points="499.5,-333.5 499.5,-352.5 556.5,-352.5 556.5,-333.5 499.5,-333.5"/>
<text text-anchor="middle" x="528" y="-340.5" font-family="Helvetica,sans-Serif" font-size="10.00" fill="#000000">DescFile</text>
</a>
</g>
</g>
<!-- Node9&#45;&gt;Node1 -->
<g id="edge8" class="edge">
<title>Node9&#45;&gt;Node1</title>
<path fill="none" stroke="#9a32cd" stroke-dasharray="5,2" d="M566.4833,-337.436C592.7122,-333.3527 628.1453,-327.2656 659,-320 665.6768,-318.4277 672.7759,-316.4893 679.4768,-314.5341"/>
<polygon fill="#9a32cd" stroke="#9a32cd" points="565.9128,-333.9825 556.5569,-338.9542 566.9712,-340.902 565.9128,-333.9825"/>
<text text-anchor="middle" x="633" y="-333" font-family="Helvetica,sans-Serif" font-size="10.00" fill="#000000"> DescFileP</text>
</g>
<!-- Node10 -->
<g id="node10" class="node">
<title>Node10</title>
<g id="a_node10"><a xlink:href="structpkgCache_1_1Provides.xhtml" target="_top" xlink:title="handles virtual packages ">
<polygon fill="#ffffff" stroke="#000000" points="498.5,-295.5 498.5,-314.5 557.5,-314.5 557.5,-295.5 498.5,-295.5"/>
<text text-anchor="middle" x="528" y="-302.5" font-family="Helvetica,sans-Serif" font-size="10.00" fill="#000000">Provides</text>
</a>
</g>
</g>
<!-- Node10&#45;&gt;Node1 -->
<g id="edge9" class="edge">
<title>Node10&#45;&gt;Node1</title>
<path fill="none" stroke="#9a32cd" stroke-dasharray="5,2" d="M567.692,-305C600.4148,-305 646.2666,-305 676.8795,-305"/>
<polygon fill="#9a32cd" stroke="#9a32cd" points="567.5651,-301.5001 557.5651,-305 567.565,-308.5001 567.5651,-301.5001"/>
<text text-anchor="middle" x="633" y="-308" font-family="Helvetica,sans-Serif" font-size="10.00" fill="#000000"> ProvideP</text>
</g>
<!-- Node11 -->
<g id="node11" class="node">
<title>Node11</title>
<g id="a_node11"><a xlink:title="STL class. ">
<polygon fill="#ffffff" stroke="#bfbfbf" points="156,-238.5 156,-257.5 200,-257.5 200,-238.5 156,-238.5"/>
<text text-anchor="middle" x="178" y="-245.5" font-family="Helvetica,sans-Serif" font-size="10.00" fill="#000000">string</text>
</a>
</g>
</g>
<!-- Node11&#45;&gt;Node1 -->
<g id="edge10" class="edge">
<title>Node11&#45;&gt;Node1</title>
<path fill="none" stroke="#9a32cd" stroke-dasharray="5,2" d="M210.6041,-252.1731C213.1056,-252.4634 215.5927,-252.7426 218,-253 382.6014,-270.6025 424.7017,-265.7635 589,-286 618.8481,-289.6764 652.6586,-295.1201 676.8522,-299.2395"/>
<polygon fill="#9a32cd" stroke="#9a32cd" points="210.7558,-248.6661 200.4087,-250.9439 209.9179,-255.6158 210.7558,-248.6661"/>
<text text-anchor="middle" x="424" y="-274" font-family="Helvetica,sans-Serif" font-size="10.00" fill="#000000"> CacheFile</text>
</g>
<!-- Node19 -->
<g id="node19" class="node">
<title>Node19</title>
<g id="a_node19"><a xlink:href="classFileFd.xhtml" target="_top" xlink:title="FileFd">
<polygon fill="#ffffff" stroke="#000000" points="337,-219.5 337,-238.5 381,-238.5 381,-219.5 337,-219.5"/>
<text text-anchor="middle" x="359" y="-226.5" font-family="Helvetica,sans-Serif" font-size="10.00" fill="#000000">FileFd</text>
</a>
</g>
</g>
<!-- Node11&#45;&gt;Node19 -->
<g id="edge20" class="edge">
<title>Node11&#45;&gt;Node19</title>
<path fill="none" stroke="#9a32cd" stroke-dasharray="5,2" d="M205.8134,-234.577C209.8246,-233.1162 213.9625,-231.8522 218,-231 259.2006,-222.3034 308.6875,-224.39 336.7274,-226.6957"/>
<polygon fill="#9a32cd" stroke="#9a32cd" points="204.1663,-231.469 196.2332,-238.4915 206.8141,-237.949 204.1663,-231.469"/>
<text text-anchor="middle" x="268.5" y="-245" font-family="Helvetica,sans-Serif" font-size="10.00" fill="#000000"> TemporaryFileName</text>
<text text-anchor="middle" x="268.5" y="-234" font-family="Helvetica,sans-Serif" font-size="10.00" fill="#000000">FileName</text>
</g>
<!-- Node12 -->
<g id="node12" class="node">
<title>Node12</title>
<g id="a_node12"><a xlink:title="STL class. ">
<polygon fill="#ffffff" stroke="#bfbfbf" points="0,-238.5 0,-257.5 119,-257.5 119,-238.5 0,-238.5"/>
<text text-anchor="middle" x="59.5" y="-245.5" font-family="Helvetica,sans-Serif" font-size="10.00" fill="#000000">basic_string&lt; char &gt;</text>
</a>
</g>
</g>
<!-- Node12&#45;&gt;Node11 -->
<g id="edge11" class="edge">
<title>Node12&#45;&gt;Node11</title>
<path fill="none" stroke="#191970" d="M129.2118,-248C138.8284,-248 148.0652,-248 155.8653,-248"/>
<polygon fill="#191970" stroke="#191970" points="129.0972,-244.5001 119.0972,-248 129.0971,-251.5001 129.0972,-244.5001"/>
</g>
<!-- Node13 -->
<g id="node13" class="node">
<title>Node13</title>
<g id="a_node13"><a xlink:href="structpkgCache_1_1Group.xhtml" target="_top" xlink:title="groups architecture depending packages together ">
<polygon fill="#ffffff" stroke="#000000" points="505,-181.5 505,-200.5 551,-200.5 551,-181.5 505,-181.5"/>
<text text-anchor="middle" x="528" y="-188.5" font-family="Helvetica,sans-Serif" font-size="10.00" fill="#000000">Group</text>
</a>
</g>
</g>
<!-- Node13&#45;&gt;Node1 -->
<g id="edge12" class="edge">
<title>Node13&#45;&gt;Node1</title>
<path fill="none" stroke="#9a32cd" stroke-dasharray="5,2" d="M561.3558,-188.5611C589.8013,-188.1755 630.497,-191.8169 659,-212 688.3886,-232.8101 702.3781,-276.2696 707.3213,-295.4982"/>
<polygon fill="#9a32cd" stroke="#9a32cd" points="560.9908,-185.0707 551.1045,-188.88 561.2085,-192.0673 560.9908,-185.0707"/>
<text text-anchor="middle" x="633" y="-215" font-family="Helvetica,sans-Serif" font-size="10.00" fill="#000000"> GrpP</text>
</g>
<!-- Node14 -->
<g id="node14" class="node">
<title>Node14</title>
<g id="a_node14"><a xlink:href="classpkgVersioningSystem.xhtml" target="_top" xlink:title="pkgVersioningSystem">
<polygon fill="#ffffff" stroke="#000000" points="467,-114.5 467,-133.5 589,-133.5 589,-114.5 467,-114.5"/>
<text text-anchor="middle" x="528" y="-121.5" font-family="Helvetica,sans-Serif" font-size="10.00" fill="#000000">pkgVersioningSystem</text>
</a>
</g>
</g>
<!-- Node14&#45;&gt;Node1 -->
<g id="edge13" class="edge">
<title>Node14&#45;&gt;Node1</title>
<path fill="none" stroke="#9a32cd" stroke-dasharray="5,2" d="M584.2966,-136.4425C609.8725,-144.5706 638.8448,-157.5908 659,-178 692.8456,-212.2721 704.7686,-272.0483 708.2547,-295.3304"/>
<polygon fill="#9a32cd" stroke="#9a32cd" points="585.27,-133.0805 574.6861,-133.5616 583.26,-139.7857 585.27,-133.0805"/>
<text text-anchor="middle" x="633" y="-181" font-family="Helvetica,sans-Serif" font-size="10.00" fill="#000000"> VS</text>
</g>
<!-- Node14&#45;&gt;Node14 -->
<g id="edge14" class="edge">
<title>Node14&#45;&gt;Node14</title>
<path fill="none" stroke="#9a32cd" stroke-dasharray="5,2" d="M508.7417,-143.4C510.0278,-148.3146 516.4473,-152 528,-152 546.4844,-152 551.8275,-142.5653 544.0294,-133.7571"/>
<polygon fill="#9a32cd" stroke="#9a32cd" points="512.1142,-144.3509 511.9706,-133.7571 505.4765,-142.1283 512.1142,-144.3509"/>
<text text-anchor="middle" x="528" y="-155" font-family="Helvetica,sans-Serif" font-size="10.00" fill="#000000"> GlobalList</text>
</g>
<!-- Node15 -->
<g id="node15" class="node">
<title>Node15</title>
<g id="a_node15"><a xlink:href="structpkgCache_1_1Version.xhtml" target="_top" xlink:title="information for a single version of a package ">
<polygon fill="#ffffff" stroke="#000000" points="501.5,-76.5 501.5,-95.5 554.5,-95.5 554.5,-76.5 501.5,-76.5"/>
<text text-anchor="middle" x="528" y="-83.5" font-family="Helvetica,sans-Serif" font-size="10.00" fill="#000000">Version</text>
</a>
</g>
</g>
<!-- Node15&#45;&gt;Node1 -->
<g id="edge15" class="edge">
<title>Node15&#45;&gt;Node1</title>
<path fill="none" stroke="#9a32cd" stroke-dasharray="5,2" d="M564.5121,-89.2219C594.0221,-93.7592 634.5441,-104.686 659,-131 682.1267,-155.8838 702.1787,-262.6492 707.8804,-295.4059"/>
<polygon fill="#9a32cd" stroke="#9a32cd" points="564.9586,-85.7505 554.5777,-87.8687 564.0138,-92.6864 564.9586,-85.7505"/>
<text text-anchor="middle" x="633" y="-134" font-family="Helvetica,sans-Serif" font-size="10.00" fill="#000000"> VerP</text>
</g>
<!-- Node16 -->
<g id="node16" class="node">
<title>Node16</title>
<g id="a_node16"><a xlink:href="structpkgCache_1_1VerFile.xhtml" target="_top" xlink:title="associates a version with a PackageFile ">
<polygon fill="#ffffff" stroke="#000000" points="503.5,-38.5 503.5,-57.5 552.5,-57.5 552.5,-38.5 503.5,-38.5"/>
<text text-anchor="middle" x="528" y="-45.5" font-family="Helvetica,sans-Serif" font-size="10.00" fill="#000000">VerFile</text>
</a>
</g>
</g>
<!-- Node16&#45;&gt;Node1 -->
<g id="edge16" class="edge">
<title>Node16&#45;&gt;Node1</title>
<path fill="none" stroke="#9a32cd" stroke-dasharray="5,2" d="M562.8744,-48.7561C592.5592,-51.3229 634.2183,-59.7982 659,-86 688.5595,-117.2535 704.6634,-257.141 708.5613,-295.337"/>
<polygon fill="#9a32cd" stroke="#9a32cd" points="562.7467,-45.2395 552.5331,-48.0559 562.2737,-52.2235 562.7467,-45.2395"/>
<text text-anchor="middle" x="633" y="-89" font-family="Helvetica,sans-Serif" font-size="10.00" fill="#000000"> VerFileP</text>
</g>
<!-- Node17 -->
<g id="node17" class="node">
<title>Node17</title>
<g id="a_node17"><a xlink:href="structpkgCache_1_1Package.xhtml" target="_top" xlink:title="contains information for a single unique package ">
<polygon fill="#ffffff" stroke="#000000" points="499.5,-.5 499.5,-19.5 556.5,-19.5 556.5,-.5 499.5,-.5"/>
<text text-anchor="middle" x="528" y="-7.5" font-family="Helvetica,sans-Serif" font-size="10.00" fill="#000000">Package</text>
</a>
</g>
</g>
<!-- Node17&#45;&gt;Node1 -->
<g id="edge17" class="edge">
<title>Node17&#45;&gt;Node1</title>
<path fill="none" stroke="#9a32cd" stroke-dasharray="5,2" d="M566.9782,-9.2714C596.384,-10.9186 635.5406,-18.1797 659,-43 694.5584,-80.6212 706.5201,-252.2515 708.9842,-295.2232"/>
<polygon fill="#9a32cd" stroke="#9a32cd" points="566.7531,-5.761 556.6328,-8.8964 566.4994,-12.7564 566.7531,-5.761"/>
<text text-anchor="middle" x="633" y="-46" font-family="Helvetica,sans-Serif" font-size="10.00" fill="#000000"> PkgP</text>
</g>
<!-- Node18 -->
<g id="node18" class="node">
<title>Node18</title>
<g id="a_node18"><a xlink:href="classMMap.xhtml" target="_top" xlink:title="MMap">
<polygon fill="#ffffff" stroke="#000000" points="505.5,-219.5 505.5,-238.5 550.5,-238.5 550.5,-219.5 505.5,-219.5"/>
<text text-anchor="middle" x="528" y="-226.5" font-family="Helvetica,sans-Serif" font-size="10.00" fill="#000000">MMap</text>
</a>
</g>
</g>
<!-- Node18&#45;&gt;Node1 -->
<g id="edge18" class="edge">
<title>Node18&#45;&gt;Node1</title>
<path fill="none" stroke="#9a32cd" stroke-dasharray="5,2" d="M560.8684,-225.4551C588.6755,-223.9847 628.7163,-225.5737 659,-242 681.4256,-254.164 697.4891,-280.8745 704.902,-295.3002"/>
<polygon fill="#9a32cd" stroke="#9a32cd" points="560.5922,-221.9657 550.856,-226.1438 561.0726,-228.9492 560.5922,-221.9657"/>
<text text-anchor="middle" x="633" y="-245" font-family="Helvetica,sans-Serif" font-size="10.00" fill="#000000"> Map</text>
</g>
<!-- Node19&#45;&gt;Node18 -->
<g id="edge19" class="edge">
<title>Node19&#45;&gt;Node18</title>
<path fill="none" stroke="#9a32cd" stroke-dasharray="5,2" d="M391.2616,-229C424.6753,-229 476.0218,-229 505.3614,-229"/>
<polygon fill="#9a32cd" stroke="#9a32cd" points="391.0938,-225.5001 381.0938,-229 391.0938,-232.5001 391.0938,-225.5001"/>
<text text-anchor="middle" x="424" y="-232" font-family="Helvetica,sans-Serif" font-size="10.00" fill="#000000"> SyncToFd</text>
</g>
</g>
</svg>
