<?xml version="1.0" encoding="UTF-8" standalone="no"?>
<!DOCTYPE svg PUBLIC "-//W3C//DTD SVG 1.1//EN"
 "http://www.w3.org/Graphics/SVG/1.1/DTD/svg11.dtd">
<!-- Generated by graphviz version 2.40.1 (20161225.0304)
 -->
<!-- Title: SHA2SummationBase Pages: 1 -->
<svg width="248pt" height="140pt"
 viewBox="0.00 0.00 248.00 140.00" xmlns="http://www.w3.org/2000/svg" xmlns:xlink="http://www.w3.org/1999/xlink">
<g id="graph0" class="graph" transform="scale(1 1) rotate(0) translate(4 136)">
<title>SHA2SummationBase</title>
<polygon fill="#ffffff" stroke="transparent" points="-4,4 -4,-136 244,-136 244,4 -4,4"/>
<!-- Node0 -->
<g id="node1" class="node">
<title>Node0</title>
<polygon fill="#bfbfbf" stroke="#000000" points="58,-56.5 58,-75.5 181,-75.5 181,-56.5 58,-56.5"/>
<text text-anchor="middle" x="119.5" y="-63.5" font-family="Helvetica,sans-Serif" font-size="10.00" fill="#000000">SHA2SummationBase</text>
</g>
<!-- Node2 -->
<g id="node3" class="node">
<title>Node2</title>
<g id="a_node3"><a xlink:href="classSHA256Summation.xhtml" target="_top" xlink:title="SHA256Summation">
<polygon fill="#ffffff" stroke="#000000" points="0,-.5 0,-19.5 111,-19.5 111,-.5 0,-.5"/>
<text text-anchor="middle" x="55.5" y="-7.5" font-family="Helvetica,sans-Serif" font-size="10.00" fill="#000000">SHA256Summation</text>
</a>
</g>
</g>
<!-- Node0&#45;&gt;Node2 -->
<g id="edge2" class="edge">
<title>Node0&#45;&gt;Node2</title>
<path fill="none" stroke="#191970" d="M100.8086,-49.645C89.6781,-39.9058 75.9337,-27.8795 66.5202,-19.6427"/>
<polygon fill="#191970" stroke="#191970" points="98.5215,-52.2945 108.3521,-56.2455 103.131,-47.0264 98.5215,-52.2945"/>
</g>
<!-- Node3 -->
<g id="node4" class="node">
<title>Node3</title>
<g id="a_node4"><a xlink:href="classSHA512Summation.xhtml" target="_top" xlink:title="SHA512Summation">
<polygon fill="#ffffff" stroke="#000000" points="129,-.5 129,-19.5 240,-19.5 240,-.5 129,-.5"/>
<text text-anchor="middle" x="184.5" y="-7.5" font-family="Helvetica,sans-Serif" font-size="10.00" fill="#000000">SHA512Summation</text>
</a>
</g>
</g>
<!-- Node0&#45;&gt;Node3 -->
<g id="edge3" class="edge">
<title>Node0&#45;&gt;Node3</title>
<path fill="none" stroke="#191970" d="M138.4835,-49.645C149.7879,-39.9058 163.747,-27.8795 173.3076,-19.6427"/>
<polygon fill="#191970" stroke="#191970" points="136.1138,-47.0668 130.8221,-56.2455 140.6827,-52.3701 136.1138,-47.0668"/>
</g>
<!-- Node1 -->
<g id="node2" class="node">
<title>Node1</title>
<g id="a_node2"><a xlink:href="classSummationImplementation.xhtml" target="_top" xlink:title="SummationImplementation">
<polygon fill="#ffffff" stroke="#000000" points="44,-112.5 44,-131.5 195,-131.5 195,-112.5 44,-112.5"/>
<text text-anchor="middle" x="119.5" y="-119.5" font-family="Helvetica,sans-Serif" font-size="10.00" fill="#000000">SummationImplementation</text>
</a>
</g>
</g>
<!-- Node1&#45;&gt;Node0 -->
<g id="edge1" class="edge">
<title>Node1&#45;&gt;Node0</title>
<path fill="none" stroke="#191970" d="M119.5,-102.1575C119.5,-93.155 119.5,-82.9199 119.5,-75.6427"/>
<polygon fill="#191970" stroke="#191970" points="116.0001,-102.2455 119.5,-112.2455 123.0001,-102.2456 116.0001,-102.2455"/>
</g>
</g>
</svg>
