<?xml version="1.0" encoding="UTF-8" standalone="no"?>
<!DOCTYPE svg PUBLIC "-//W3C//DTD SVG 1.1//EN"
 "http://www.w3.org/Graphics/SVG/1.1/DTD/svg11.dtd">
<!-- Generated by graphviz version 2.40.1 (20161225.0304)
 -->
<!-- Title: debDebFileParser Pages: 1 -->
<svg width="312pt" height="152pt"
 viewBox="0.00 0.00 312.00 152.00" xmlns="http://www.w3.org/2000/svg" xmlns:xlink="http://www.w3.org/1999/xlink">
<g id="graph0" class="graph" transform="scale(1 1) rotate(0) translate(4 148)">
<title>debDebFileParser</title>
<polygon fill="#ffffff" stroke="transparent" points="-4,4 -4,-148 308,-148 308,4 -4,4"/>
<!-- Node3 -->
<g id="node1" class="node">
<title>Node3</title>
<polygon fill="#bfbfbf" stroke="#000000" points="123.5,-.5 123.5,-19.5 224.5,-19.5 224.5,-.5 123.5,-.5"/>
<text text-anchor="middle" x="174" y="-7.5" font-family="Helvetica,sans-Serif" font-size="10.00" fill="#000000">debDebFileParser</text>
</g>
<!-- Node4 -->
<g id="node2" class="node">
<title>Node4</title>
<g id="a_node2"><a xlink:href="classdebListParser.xhtml" target="_top" xlink:title="debListParser">
<polygon fill="#ffffff" stroke="#000000" points="133,-57.5 133,-76.5 215,-76.5 215,-57.5 133,-57.5"/>
<text text-anchor="middle" x="174" y="-64.5" font-family="Helvetica,sans-Serif" font-size="10.00" fill="#000000">debListParser</text>
</a>
</g>
</g>
<!-- Node4&#45;&gt;Node3 -->
<g id="edge1" class="edge">
<title>Node4&#45;&gt;Node3</title>
<path fill="none" stroke="#191970" d="M174,-47.2342C174,-37.8491 174,-27.0651 174,-19.5265"/>
<polygon fill="#191970" stroke="#191970" points="170.5001,-47.3307 174,-57.3307 177.5001,-47.3308 170.5001,-47.3307"/>
</g>
<!-- Node5 -->
<g id="node3" class="node">
<title>Node5</title>
<g id="a_node3"><a xlink:href="classpkgCacheListParser.xhtml" target="_top" xlink:title="pkgCacheListParser">
<polygon fill="#ffffff" stroke="#000000" points="0,-124.5 0,-143.5 112,-143.5 112,-124.5 0,-124.5"/>
<text text-anchor="middle" x="56" y="-131.5" font-family="Helvetica,sans-Serif" font-size="10.00" fill="#000000">pkgCacheListParser</text>
</a>
</g>
</g>
<!-- Node5&#45;&gt;Node4 -->
<g id="edge2" class="edge">
<title>Node5&#45;&gt;Node4</title>
<path fill="none" stroke="#191970" d="M81.7405,-119.3846C104.6247,-106.391 137.4233,-87.7681 157.1248,-76.5817"/>
<polygon fill="#191970" stroke="#191970" points="79.8744,-116.4193 72.9065,-124.4005 83.3307,-122.5065 79.8744,-116.4193"/>
</g>
<!-- Node6 -->
<g id="node4" class="node">
<title>Node6</title>
<g id="a_node4"><a xlink:href="classpkgTagSection.xhtml" target="_top" xlink:title="pkgTagSection">
<polygon fill="#ffffff" stroke="#000000" points="130.5,-124.5 130.5,-143.5 217.5,-143.5 217.5,-124.5 130.5,-124.5"/>
<text text-anchor="middle" x="174" y="-131.5" font-family="Helvetica,sans-Serif" font-size="10.00" fill="#000000">pkgTagSection</text>
</a>
</g>
</g>
<!-- Node6&#45;&gt;Node4 -->
<g id="edge3" class="edge">
<title>Node6&#45;&gt;Node4</title>
<path fill="none" stroke="#9a32cd" stroke-dasharray="5,2" d="M174,-114.1079C174,-101.714 174,-86.3263 174,-76.5817"/>
<polygon fill="#9a32cd" stroke="#9a32cd" points="170.5001,-114.4005 174,-124.4005 177.5001,-114.4006 170.5001,-114.4005"/>
<text text-anchor="middle" x="194" y="-98" font-family="Helvetica,sans-Serif" font-size="10.00" fill="#000000"> Section</text>
</g>
<!-- Node7 -->
<g id="node5" class="node">
<title>Node7</title>
<g id="a_node5"><a xlink:href="classpkgTagFile.xhtml" target="_top" xlink:title="pkgTagFile">
<polygon fill="#ffffff" stroke="#000000" points="236,-124.5 236,-143.5 304,-143.5 304,-124.5 236,-124.5"/>
<text text-anchor="middle" x="270" y="-131.5" font-family="Helvetica,sans-Serif" font-size="10.00" fill="#000000">pkgTagFile</text>
</a>
</g>
</g>
<!-- Node7&#45;&gt;Node4 -->
<g id="edge4" class="edge">
<title>Node7&#45;&gt;Node4</title>
<path fill="none" stroke="#9a32cd" stroke-dasharray="5,2" d="M249.7273,-118.2284C240.2191,-110.9787 228.6586,-102.3723 218,-95 208.7661,-88.6132 198.1543,-81.8442 189.6659,-76.5618"/>
<polygon fill="#9a32cd" stroke="#9a32cd" points="247.7358,-121.1121 257.7975,-124.4305 252.0013,-115.5618 247.7358,-121.1121"/>
<text text-anchor="middle" x="244.5" y="-98" font-family="Helvetica,sans-Serif" font-size="10.00" fill="#000000"> Tags</text>
</g>
</g>
</svg>
