<?xml version="1.0" encoding="UTF-8" standalone="no"?>
<!DOCTYPE svg PUBLIC "-//W3C//DTD SVG 1.1//EN"
 "http://www.w3.org/Graphics/SVG/1.1/DTD/svg11.dtd">
<!-- Generated by graphviz version 2.40.1 (20161225.0304)
 -->
<!-- Title: Container_iterator_base&lt; Interface, Master, iterator_type, container_iterator, container_value &gt; Pages: 1 -->
<svg width="435pt" height="138pt"
 viewBox="0.00 0.00 435.00 138.00" xmlns="http://www.w3.org/2000/svg" xmlns:xlink="http://www.w3.org/1999/xlink">
<g id="graph0" class="graph" transform="scale(1 1) rotate(0) translate(4 134)">
<title>Container_iterator_base&lt; Interface, Master, iterator_type, container_iterator, container_value &gt;</title>
<polygon fill="#ffffff" stroke="transparent" points="-4,4 -4,-134 431,-134 431,4 -4,4"/>
<!-- Node3 -->
<g id="node1" class="node">
<title>Node3</title>
<polygon fill="#bfbfbf" stroke="#000000" points="274,-28 274,-80 427,-80 427,-28 274,-28"/>
<text text-anchor="start" x="282" y="-68" font-family="Helvetica,sans-Serif" font-size="10.00" fill="#000000">Container_iterator</text>
<text text-anchor="start" x="282" y="-57" font-family="Helvetica,sans-Serif" font-size="10.00" fill="#000000">_base&lt; Interface, Master,</text>
<text text-anchor="start" x="282" y="-46" font-family="Helvetica,sans-Serif" font-size="10.00" fill="#000000"> iterator_type, container</text>
<text text-anchor="middle" x="350.5" y="-35" font-family="Helvetica,sans-Serif" font-size="10.00" fill="#000000">_iterator, container_value &gt;</text>
</g>
<!-- Node4 -->
<g id="node2" class="node">
<title>Node4</title>
<polygon fill="#ffffff" stroke="#bfbfbf" points="0,-88.5 0,-129.5 213,-129.5 213,-88.5 0,-88.5"/>
<text text-anchor="start" x="8" y="-117.5" font-family="Helvetica,sans-Serif" font-size="10.00" fill="#000000">iterator&lt; std::iterator</text>
<text text-anchor="start" x="8" y="-106.5" font-family="Helvetica,sans-Serif" font-size="10.00" fill="#000000">_traits&lt; container_iterator</text>
<text text-anchor="middle" x="106.5" y="-95.5" font-family="Helvetica,sans-Serif" font-size="10.00" fill="#000000"> &gt;::iterator_category, container_value &gt;</text>
</g>
<!-- Node4&#45;&gt;Node3 -->
<g id="edge1" class="edge">
<title>Node4&#45;&gt;Node3</title>
<path fill="none" stroke="#191970" d="M207.4701,-86.2403C229.6331,-81.2446 252.7508,-76.0336 273.7775,-71.294"/>
<polygon fill="#191970" stroke="#191970" points="206.6892,-82.8285 197.7036,-88.4418 208.2285,-89.6571 206.6892,-82.8285"/>
</g>
<!-- Node5 -->
<g id="node3" class="node">
<title>Node5</title>
<polygon fill="#ffffff" stroke="#bfbfbf" points="42.5,-39 42.5,-69 170.5,-69 170.5,-39 42.5,-39"/>
<text text-anchor="start" x="50.5" y="-57" font-family="Helvetica,sans-Serif" font-size="10.00" fill="#000000">template iterator_base</text>
<text text-anchor="middle" x="106.5" y="-46" font-family="Helvetica,sans-Serif" font-size="10.00" fill="#000000">&lt; iterator_type &gt;</text>
</g>
<!-- Node5&#45;&gt;Node3 -->
<g id="edge2" class="edge">
<title>Node5&#45;&gt;Node3</title>
<path fill="none" stroke="#191970" d="M180.827,-54C210.2754,-54 244.1214,-54 273.7991,-54"/>
<polygon fill="#191970" stroke="#191970" points="180.6082,-50.5001 170.6081,-54 180.6081,-57.5001 180.6082,-50.5001"/>
</g>
<!-- Node6 -->
<g id="node4" class="node">
<title>Node6</title>
<polygon fill="#ffffff" stroke="#bfbfbf" points="54.5,-.5 54.5,-19.5 158.5,-19.5 158.5,-.5 54.5,-.5"/>
<text text-anchor="middle" x="106.5" y="-7.5" font-family="Helvetica,sans-Serif" font-size="10.00" fill="#000000">container_iterator</text>
</g>
<!-- Node6&#45;&gt;Node3 -->
<g id="edge3" class="edge">
<title>Node6&#45;&gt;Node3</title>
<path fill="none" stroke="#9a32cd" stroke-dasharray="5,2" d="M168.6754,-21.212C200.7194,-26.9904 240.081,-34.0884 273.9768,-40.2007"/>
<polygon fill="#9a32cd" stroke="#9a32cd" points="169.0073,-17.7154 158.5448,-19.3851 167.765,-24.6043 169.0073,-17.7154"/>
<text text-anchor="middle" x="243.5" y="-38" font-family="Helvetica,sans-Serif" font-size="10.00" fill="#000000"> _iter</text>
</g>
</g>
</svg>
