<?xml version="1.0" encoding="UTF-8" standalone="no"?>
<!DOCTYPE svg PUBLIC "-//W3C//DTD SVG 1.1//EN"
 "http://www.w3.org/Graphics/SVG/1.1/DTD/svg11.dtd">
<!-- Generated by graphviz version 2.40.1 (20161225.0304)
 -->
<!-- Title: pkgCache::PrvIterator Pages: 1 -->
<svg width="146pt" height="162pt"
 viewBox="0.00 0.00 146.00 162.00" xmlns="http://www.w3.org/2000/svg" xmlns:xlink="http://www.w3.org/1999/xlink">
<g id="graph0" class="graph" transform="scale(1 1) rotate(0) translate(4 158)">
<title>pkgCache::PrvIterator</title>
<polygon fill="#ffffff" stroke="transparent" points="-4,4 -4,-158 142,-158 142,4 -4,4"/>
<!-- Node0 -->
<g id="node1" class="node">
<title>Node0</title>
<polygon fill="#bfbfbf" stroke="#000000" points="8,-.5 8,-19.5 130,-19.5 130,-.5 8,-.5"/>
<text text-anchor="middle" x="69" y="-7.5" font-family="Helvetica,sans-Serif" font-size="10.00" fill="#000000">pkgCache::PrvIterator</text>
</g>
<!-- Node1 -->
<g id="node2" class="node">
<title>Node1</title>
<g id="a_node2"><a xlink:href="classpkgCache_1_1Iterator.xhtml" target="_top" xlink:title="Iterator\&lt; Provides,\l PrvIterator \&gt;">
<polygon fill="#ffffff" stroke="#000000" points="14.5,-56.5 14.5,-86.5 123.5,-86.5 123.5,-56.5 14.5,-56.5"/>
<text text-anchor="start" x="22.5" y="-74.5" font-family="Helvetica,sans-Serif" font-size="10.00" fill="#000000">Iterator&lt; Provides,</text>
<text text-anchor="middle" x="69" y="-63.5" font-family="Helvetica,sans-Serif" font-size="10.00" fill="#000000"> PrvIterator &gt;</text>
</a>
</g>
</g>
<!-- Node1&#45;&gt;Node0 -->
<g id="edge1" class="edge">
<title>Node1&#45;&gt;Node0</title>
<path fill="none" stroke="#191970" d="M69,-46.2849C69,-36.9858 69,-26.9883 69,-19.8469"/>
<polygon fill="#191970" stroke="#191970" points="65.5001,-46.2977 69,-56.2977 72.5001,-46.2978 65.5001,-46.2977"/>
</g>
<!-- Node2 -->
<g id="node3" class="node">
<title>Node2</title>
<polygon fill="#ffffff" stroke="#bfbfbf" points="0,-123.5 0,-153.5 138,-153.5 138,-123.5 0,-123.5"/>
<text text-anchor="start" x="8" y="-141.5" font-family="Helvetica,sans-Serif" font-size="10.00" fill="#000000">iterator&lt; std::forward</text>
<text text-anchor="middle" x="69" y="-130.5" font-family="Helvetica,sans-Serif" font-size="10.00" fill="#000000">_iterator_tag, Provides &gt;</text>
</g>
<!-- Node2&#45;&gt;Node1 -->
<g id="edge2" class="edge">
<title>Node2&#45;&gt;Node1</title>
<path fill="none" stroke="#191970" d="M69,-113.0249C69,-104.128 69,-94.4287 69,-86.6432"/>
<polygon fill="#191970" stroke="#191970" points="65.5001,-113.2966 69,-123.2967 72.5001,-113.2967 65.5001,-113.2966"/>
</g>
</g>
</svg>
