<?xml version="1.0" encoding="UTF-8" standalone="no"?>
<!DOCTYPE svg PUBLIC "-//W3C//DTD SVG 1.1//EN"
 "http://www.w3.org/Graphics/SVG/1.1/DTD/svg11.dtd">
<!-- Generated by graphviz version 2.40.1 (20161225.0304)
 -->
<!-- Title: pkgSourceList Pages: 1 -->
<!--zoomable 475 -->
<svg id="main" version="1.1" xmlns="http://www.w3.org/2000/svg" xmlns:xlink="http://www.w3.org/1999/xlink" xml:space="preserve" onload="init(evt)">
<style type="text/css"><![CDATA[
.edge:hover path { stroke: red; }
.edge:hover polygon { stroke: red; fill: red; }
]]></style>
<script type="text/javascript"><![CDATA[
var edges = document.getElementsByTagName('g');
if (edges && edges.length) {
  for (var i=0;i<edges.length;i++) {
    if (edges[i].id.substr(0,4)=='edge') {
      edges[i].setAttribute('class','edge');
    }
  }
}
]]></script>
        <defs>
                <circle id="rim" cx="0" cy="0" r="7"/>
                <circle id="rim2" cx="0" cy="0" r="3.5"/>
                <g id="zoomPlus">
                        <use xlink:href="#rim" fill="#404040">
                                <set attributeName="fill" to="#808080" begin="zoomplus.mouseover" end="zoomplus.mouseout"/>
                        </use>
                        <path d="M-4,0h8M0,-4v8" fill="none" stroke="white" stroke-width="1.5" pointer-events="none"/>
                </g>
                <g id="zoomMin">
                        <use xlink:href="#rim" fill="#404040">
                                <set attributeName="fill" to="#808080" begin="zoomminus.mouseover" end="zoomminus.mouseout"/>
                        </use>
                        <path d="M-4,0h8" fill="none" stroke="white" stroke-width="1.5" pointer-events="none"/>
                </g>
                <g id="dirArrow">
                        <path fill="none" stroke="white" stroke-width="1.5" d="M0,-3.0v7 M-2.5,-0.5L0,-3.0L2.5,-0.5"/>
                </g>
               <g id="resetDef">
                       <use xlink:href="#rim2" fill="#404040">
                               <set attributeName="fill" to="#808080" begin="reset.mouseover" end="reset.mouseout"/>
                       </use>
               </g>
        </defs>

<script type="text/javascript">
var viewWidth = 440;
var viewHeight = 475;
var sectionId = 'dynsection-0';
</script>
<script xlink:href="svgpan.js"/>
<svg id="graph" class="graph">
<g id="viewport">
<title>pkgSourceList</title>
<polygon fill="#ffffff" stroke="transparent" points="-4,4 -4,-471 436,-471 436,4 -4,4"/>
<!-- Node1 -->
<g id="node1" class="node">
<title>Node1</title>
<polygon fill="#bfbfbf" stroke="#000000" points="124,-.5 124,-19.5 209,-19.5 209,-.5 124,-.5"/>
<text text-anchor="middle" x="166.5" y="-7.5" font-family="Helvetica,sans-Serif" font-size="10.00" fill="#000000">pkgSourceList</text>
</g>
<!-- Node2 -->
<g id="node2" class="node">
<title>Node2</title>
<polygon fill="#ffffff" stroke="#bfbfbf" points="59,-67.5 59,-86.5 184,-86.5 184,-67.5 59,-67.5"/>
<text text-anchor="middle" x="121.5" y="-74.5" font-family="Helvetica,sans-Serif" font-size="10.00" fill="#000000">vector&lt; const char *&gt;</text>
</g>
<!-- Node2&#45;&gt;Node1 -->
<g id="edge1" class="edge">
<title>Node2&#45;&gt;Node1</title>
<path fill="none" stroke="#9a32cd" stroke-dasharray="5,2" d="M133.6028,-58.9803C142.1202,-46.2989 153.1857,-29.8235 160.0646,-19.5817"/>
<polygon fill="#9a32cd" stroke="#9a32cd" points="130.6175,-57.1477 127.9474,-67.4005 136.4285,-61.0506 130.6175,-57.1477"/>
<text text-anchor="middle" x="181.5" y="-41" font-family="Helvetica,sans-Serif" font-size="10.00" fill="#000000"> VolatileCmdL</text>
</g>
<!-- Node3 -->
<g id="node3" class="node">
<title>Node3</title>
<polygon fill="#ffffff" stroke="#bfbfbf" points="202.5,-67.5 202.5,-86.5 330.5,-86.5 330.5,-67.5 202.5,-67.5"/>
<text text-anchor="middle" x="266.5" y="-74.5" font-family="Helvetica,sans-Serif" font-size="10.00" fill="#000000">vector&lt; metaIndex *&gt;</text>
</g>
<!-- Node3&#45;&gt;Node1 -->
<g id="edge2" class="edge">
<title>Node3&#45;&gt;Node1</title>
<path fill="none" stroke="#9a32cd" stroke-dasharray="5,2" d="M247.7972,-60.8795C238.8902,-53.5286 227.9262,-44.9383 217.5,-38 207.4091,-31.2849 195.5724,-24.7129 185.8438,-19.6252"/>
<polygon fill="#9a32cd" stroke="#9a32cd" points="245.7139,-63.7005 255.6219,-67.4532 250.2166,-58.3409 245.7139,-63.7005"/>
<text text-anchor="middle" x="249.5" y="-41" font-family="Helvetica,sans-Serif" font-size="10.00" fill="#000000"> SrcList</text>
</g>
<!-- Node4 -->
<g id="node4" class="node">
<title>Node4</title>
<g id="a_node4"><a xlink:href="classmetaIndex.xhtml" target="_top" xlink:title="metaIndex">
<polygon fill="#ffffff" stroke="#000000" points="232,-134.5 232,-153.5 301,-153.5 301,-134.5 232,-134.5"/>
<text text-anchor="middle" x="266.5" y="-141.5" font-family="Helvetica,sans-Serif" font-size="10.00" fill="#000000">metaIndex</text>
</a>
</g>
</g>
<!-- Node4&#45;&gt;Node3 -->
<g id="edge3" class="edge">
<title>Node4&#45;&gt;Node3</title>
<path fill="none" stroke="#9a32cd" stroke-dasharray="5,2" d="M266.5,-124.1079C266.5,-111.714 266.5,-96.3263 266.5,-86.5817"/>
<polygon fill="#9a32cd" stroke="#9a32cd" points="263.0001,-124.4005 266.5,-134.4005 270.0001,-124.4006 263.0001,-124.4005"/>
<text text-anchor="middle" x="291" y="-108" font-family="Helvetica,sans-Serif" font-size="10.00" fill="#000000"> elements</text>
</g>
<!-- Node5 -->
<g id="node5" class="node">
<title>Node5</title>
<polygon fill="#ffffff" stroke="#bfbfbf" points="81,-201.5 81,-231.5 238,-231.5 238,-201.5 81,-201.5"/>
<text text-anchor="start" x="89" y="-219.5" font-family="Helvetica,sans-Serif" font-size="10.00" fill="#000000">map&lt; std::string, metaIndex</text>
<text text-anchor="middle" x="159.5" y="-208.5" font-family="Helvetica,sans-Serif" font-size="10.00" fill="#000000">::checkSum *&gt;</text>
</g>
<!-- Node5&#45;&gt;Node4 -->
<g id="edge4" class="edge">
<title>Node5&#45;&gt;Node4</title>
<path fill="none" stroke="#9a32cd" stroke-dasharray="5,2" d="M184.8681,-194.8491C194.2339,-187.2606 205.1026,-178.9132 215.5,-172 225.5935,-165.2888 237.4304,-158.717 247.1584,-153.6286"/>
<polygon fill="#9a32cd" stroke="#9a32cd" points="182.5687,-192.2086 177.0741,-201.2673 187.0185,-197.6123 182.5687,-192.2086"/>
<text text-anchor="middle" x="234" y="-175" font-family="Helvetica,sans-Serif" font-size="10.00" fill="#000000"> Entries</text>
</g>
<!-- Node6 -->
<g id="node6" class="node">
<title>Node6</title>
<g id="a_node6"><a xlink:title="STL class. ">
<polygon fill="#ffffff" stroke="#bfbfbf" points="189.5,-390.5 189.5,-409.5 233.5,-409.5 233.5,-390.5 189.5,-390.5"/>
<text text-anchor="middle" x="211.5" y="-397.5" font-family="Helvetica,sans-Serif" font-size="10.00" fill="#000000">string</text>
</a>
</g>
</g>
<!-- Node6&#45;&gt;Node4 -->
<g id="edge12" class="edge">
<title>Node6&#45;&gt;Node4</title>
<path fill="none" stroke="#9a32cd" stroke-dasharray="5,2" d="M225.8857,-382.178C233.6939,-371.4734 242.7068,-357.2094 247.5,-343 270.9064,-273.6124 268.6362,-183.4179 267.1149,-153.853"/>
<polygon fill="#9a32cd" stroke="#9a32cd" points="223.0087,-380.1789 219.7293,-390.2534 228.5755,-384.4228 223.0087,-380.1789"/>
<text text-anchor="middle" x="293.5" y="-297" font-family="Helvetica,sans-Serif" font-size="10.00" fill="#000000"> Codename</text>
<text text-anchor="middle" x="293.5" y="-286" font-family="Helvetica,sans-Serif" font-size="10.00" fill="#000000">Dist</text>
<text text-anchor="middle" x="293.5" y="-275" font-family="Helvetica,sans-Serif" font-size="10.00" fill="#000000">Suite</text>
<text text-anchor="middle" x="293.5" y="-264" font-family="Helvetica,sans-Serif" font-size="10.00" fill="#000000">URI</text>
<text text-anchor="middle" x="293.5" y="-253" font-family="Helvetica,sans-Serif" font-size="10.00" fill="#000000">SignedBy</text>
</g>
<!-- Node6&#45;&gt;Node5 -->
<g id="edge5" class="edge">
<title>Node6&#45;&gt;Node5</title>
<path fill="none" stroke="#9a32cd" stroke-dasharray="5,2" d="M214.0888,-380.1703C217.0605,-350.2007 219.0597,-292.3742 197.5,-250 193.9106,-242.9453 188.1484,-236.7105 182.1847,-231.591"/>
<polygon fill="#9a32cd" stroke="#9a32cd" points="210.6004,-379.871 212.9494,-390.2021 217.5557,-380.661 210.6004,-379.871"/>
<text text-anchor="middle" x="230" y="-330.5" font-family="Helvetica,sans-Serif" font-size="10.00" fill="#000000"> keys</text>
</g>
<!-- Node8 -->
<g id="node8" class="node">
<title>Node8</title>
<g id="a_node8"><a xlink:href="structmetaIndex_1_1checkSum.xhtml" target="_top" xlink:title="checkSum">
<polygon fill="#ffffff" stroke="#000000" points="73,-323.5 73,-342.5 140,-342.5 140,-323.5 73,-323.5"/>
<text text-anchor="middle" x="106.5" y="-330.5" font-family="Helvetica,sans-Serif" font-size="10.00" fill="#000000">checkSum</text>
</a>
</g>
</g>
<!-- Node6&#45;&gt;Node8 -->
<g id="edge9" class="edge">
<title>Node6&#45;&gt;Node8</title>
<path fill="none" stroke="#9a32cd" stroke-dasharray="5,2" d="M179.519,-395.6206C152.365,-391.1783 116.4205,-383.3359 107.5,-372 101.0497,-363.8031 101.998,-351.3549 103.7777,-342.7365"/>
<polygon fill="#9a32cd" stroke="#9a32cd" points="179.0026,-399.0823 189.421,-397.1569 180.0759,-392.1651 179.0026,-399.0823"/>
<text text-anchor="middle" x="152.5" y="-364" font-family="Helvetica,sans-Serif" font-size="10.00" fill="#000000"> MetaKeyFilename</text>
</g>
<!-- Node7 -->
<g id="node7" class="node">
<title>Node7</title>
<g id="a_node7"><a xlink:title="STL class. ">
<polygon fill="#ffffff" stroke="#bfbfbf" points="152,-447.5 152,-466.5 271,-466.5 271,-447.5 152,-447.5"/>
<text text-anchor="middle" x="211.5" y="-454.5" font-family="Helvetica,sans-Serif" font-size="10.00" fill="#000000">basic_string&lt; char &gt;</text>
</a>
</g>
</g>
<!-- Node7&#45;&gt;Node6 -->
<g id="edge6" class="edge">
<title>Node7&#45;&gt;Node6</title>
<path fill="none" stroke="#191970" d="M211.5,-437.2342C211.5,-427.8491 211.5,-417.0651 211.5,-409.5265"/>
<polygon fill="#191970" stroke="#191970" points="208.0001,-437.3307 211.5,-447.3307 215.0001,-437.3308 208.0001,-437.3307"/>
</g>
<!-- Node8&#45;&gt;Node5 -->
<g id="edge7" class="edge">
<title>Node8&#45;&gt;Node5</title>
<path fill="none" stroke="#9a32cd" stroke-dasharray="5,2" d="M115.1004,-314.0953C125.5665,-291.0897 143.0273,-252.7089 152.6374,-231.5848"/>
<polygon fill="#9a32cd" stroke="#9a32cd" points="111.7924,-312.9146 110.8372,-323.4663 118.1641,-315.8133 111.7924,-312.9146"/>
<text text-anchor="middle" x="169" y="-275" font-family="Helvetica,sans-Serif" font-size="10.00" fill="#000000"> elements</text>
</g>
<!-- Node9 -->
<g id="node9" class="node">
<title>Node9</title>
<g id="a_node9"><a xlink:href="classHashStringList.xhtml" target="_top" xlink:title="HashStringList">
<polygon fill="#ffffff" stroke="#000000" points="0,-390.5 0,-409.5 87,-409.5 87,-390.5 0,-390.5"/>
<text text-anchor="middle" x="43.5" y="-397.5" font-family="Helvetica,sans-Serif" font-size="10.00" fill="#000000">HashStringList</text>
</a>
</g>
</g>
<!-- Node9&#45;&gt;Node8 -->
<g id="edge8" class="edge">
<title>Node9&#45;&gt;Node8</title>
<path fill="none" stroke="#9a32cd" stroke-dasharray="5,2" d="M39.9802,-380.2207C39.8081,-373.635 40.8039,-366.5668 44.5,-361 51.0329,-351.1606 61.9224,-344.7358 72.7681,-340.5593"/>
<polygon fill="#9a32cd" stroke="#9a32cd" points="36.5375,-380.937 41.102,-390.4982 43.4962,-380.1774 36.5375,-380.937"/>
<text text-anchor="middle" x="64.5" y="-364" font-family="Helvetica,sans-Serif" font-size="10.00" fill="#000000"> Hashes</text>
</g>
<!-- Node10 -->
<g id="node10" class="node">
<title>Node10</title>
<polygon fill="#ffffff" stroke="#bfbfbf" points="295,-207 295,-226 432,-226 432,-207 295,-207"/>
<text text-anchor="middle" x="363.5" y="-214" font-family="Helvetica,sans-Serif" font-size="10.00" fill="#000000">vector&lt; pkgIndexFile *&gt;</text>
</g>
<!-- Node10&#45;&gt;Node4 -->
<g id="edge10" class="edge">
<title>Node10&#45;&gt;Node4</title>
<path fill="none" stroke="#9a32cd" stroke-dasharray="5,2" d="M342.2625,-200.6266C323.0624,-186.276 295.4194,-165.615 279.3746,-153.6228"/>
<polygon fill="#9a32cd" stroke="#9a32cd" points="340.3128,-203.539 350.4181,-206.7223 344.5036,-197.932 340.3128,-203.539"/>
<text text-anchor="middle" x="339.5" y="-175" font-family="Helvetica,sans-Serif" font-size="10.00" fill="#000000"> Indexes</text>
</g>
<!-- Node11 -->
<g id="node11" class="node">
<title>Node11</title>
<g id="a_node11"><a xlink:href="classpkgIndexFile.xhtml" target="_top" xlink:title="pkgIndexFile">
<polygon fill="#ffffff" stroke="#000000" points="324.5,-323.5 324.5,-342.5 402.5,-342.5 402.5,-323.5 324.5,-323.5"/>
<text text-anchor="middle" x="363.5" y="-330.5" font-family="Helvetica,sans-Serif" font-size="10.00" fill="#000000">pkgIndexFile</text>
</a>
</g>
</g>
<!-- Node11&#45;&gt;Node10 -->
<g id="edge11" class="edge">
<title>Node11&#45;&gt;Node10</title>
<path fill="none" stroke="#9a32cd" stroke-dasharray="5,2" d="M363.5,-313.2359C363.5,-287.9699 363.5,-245.2196 363.5,-226.1654"/>
<polygon fill="#9a32cd" stroke="#9a32cd" points="360.0001,-313.4663 363.5,-323.4663 367.0001,-313.4664 360.0001,-313.4663"/>
<text text-anchor="middle" x="388" y="-275" font-family="Helvetica,sans-Serif" font-size="10.00" fill="#000000"> elements</text>
</g>
</g>
</svg>
        <g id="navigator" transform="translate(0 0)" fill="#404254">
                <rect fill="#f2f5e9" fill-opacity="0.5" stroke="#606060" stroke-width=".5" x="0" y="0" width="60" height="60"/>
                <use id="zoomplus" xlink:href="#zoomPlus" x="17" y="9" onmousedown="handleZoom(evt,'in')"/>
                <use id="zoomminus" xlink:href="#zoomMin" x="42" y="9" onmousedown="handleZoom(evt,'out')"/>
                <use id="reset" xlink:href="#resetDef" x="30" y="36" onmousedown="handleReset()"/>
                <g id="arrowUp" xlink:href="#dirArrow" transform="translate(30 24)" onmousedown="handlePan(0,-1)">
                  <use xlink:href="#rim" fill="#404040">
                        <set attributeName="fill" to="#808080" begin="arrowUp.mouseover" end="arrowUp.mouseout"/>
                  </use>
                  <path fill="none" stroke="white" stroke-width="1.5" d="M0,-3.0v7 M-2.5,-0.5L0,-3.0L2.5,-0.5"/>
                </g>
                <g id="arrowRight" xlink:href="#dirArrow" transform="rotate(90) translate(36 -43)" onmousedown="handlePan(1,0)">
                  <use xlink:href="#rim" fill="#404040">
                        <set attributeName="fill" to="#808080" begin="arrowRight.mouseover" end="arrowRight.mouseout"/>
                  </use>
                  <path fill="none" stroke="white" stroke-width="1.5" d="M0,-3.0v7 M-2.5,-0.5L0,-3.0L2.5,-0.5"/>
                </g>
                <g id="arrowDown" xlink:href="#dirArrow" transform="rotate(180) translate(-30 -48)" onmousedown="handlePan(0,1)">
                  <use xlink:href="#rim" fill="#404040">
                        <set attributeName="fill" to="#808080" begin="arrowDown.mouseover" end="arrowDown.mouseout"/>
                  </use>
                  <path fill="none" stroke="white" stroke-width="1.5" d="M0,-3.0v7 M-2.5,-0.5L0,-3.0L2.5,-0.5"/>
                </g>
                <g id="arrowLeft" xlink:href="#dirArrow" transform="rotate(270) translate(-36 17)" onmousedown="handlePan(-1,0)">
                  <use xlink:href="#rim" fill="#404040">
                        <set attributeName="fill" to="#808080" begin="arrowLeft.mouseover" end="arrowLeft.mouseout"/>
                  </use>
                  <path fill="none" stroke="white" stroke-width="1.5" d="M0,-3.0v7 M-2.5,-0.5L0,-3.0L2.5,-0.5"/>
                </g>
        </g>
        <svg viewBox="0 0 15 15" width="100%" height="30px" preserveAspectRatio="xMaxYMin meet">
         <g id="arrow_out" transform="scale(0.3 0.3)">
          <a xlink:href="classpkgSourceList__coll__graph_org.svg" target="_base">
           <rect id="button" ry="5" rx="5" y="6" x="6" height="38" width="38"
                fill="#f2f5e9" fill-opacity="0.5" stroke="#606060" stroke-width="1.0"/>
           <path id="arrow"
             d="M 11.500037,31.436501 C 11.940474,20.09759 22.043105,11.32322 32.158766,21.979434 L 37.068811,17.246167 C 37.068811,17.246167 37.088388,32 37.088388,32 L 22.160133,31.978069 C 22.160133,31.978069 26.997745,27.140456 26.997745,27.140456 C 18.528582,18.264221 13.291696,25.230495 11.500037,31.436501 z"
             style="fill:#404040;"/>
          </a>
         </g>
        </svg>
</svg>
