<?xml version="1.0" encoding="UTF-8" standalone="no"?>
<!DOCTYPE svg PUBLIC "-//W3C//DTD SVG 1.1//EN"
 "http://www.w3.org/Graphics/SVG/1.1/DTD/svg11.dtd">
<!-- Generated by graphviz version 2.40.1 (20161225.0304)
 -->
<!-- Title: debSLTypeDebian Pages: 1 -->
<svg width="148pt" height="85pt"
 viewBox="0.00 0.00 148.00 85.00" xmlns="http://www.w3.org/2000/svg" xmlns:xlink="http://www.w3.org/1999/xlink">
<g id="graph0" class="graph" transform="scale(1 1) rotate(0) translate(4 81)">
<title>debSLTypeDebian</title>
<polygon fill="#ffffff" stroke="transparent" points="-4,4 -4,-81 144,-81 144,4 -4,4"/>
<!-- Node4 -->
<g id="node1" class="node">
<title>Node4</title>
<polygon fill="#bfbfbf" stroke="#000000" points="0,-.5 0,-19.5 101,-19.5 101,-.5 0,-.5"/>
<text text-anchor="middle" x="50.5" y="-7.5" font-family="Helvetica,sans-Serif" font-size="10.00" fill="#000000">debSLTypeDebian</text>
</g>
<!-- Node5 -->
<g id="node2" class="node">
<title>Node5</title>
<g id="a_node2"><a xlink:href="classpkgSourceList_1_1Type.xhtml" target="_top" xlink:title="Type">
<polygon fill="#ffffff" stroke="#000000" points="31,-57.5 31,-76.5 70,-76.5 70,-57.5 31,-57.5"/>
<text text-anchor="middle" x="50.5" y="-64.5" font-family="Helvetica,sans-Serif" font-size="10.00" fill="#000000">Type</text>
</a>
</g>
</g>
<!-- Node5&#45;&gt;Node4 -->
<g id="edge1" class="edge">
<title>Node5&#45;&gt;Node4</title>
<path fill="none" stroke="#191970" d="M50.5,-47.2342C50.5,-37.8491 50.5,-27.0651 50.5,-19.5265"/>
<polygon fill="#191970" stroke="#191970" points="47.0001,-47.3307 50.5,-57.3307 54.0001,-47.3308 47.0001,-47.3307"/>
</g>
<!-- Node5&#45;&gt;Node5 -->
<g id="edge2" class="edge">
<title>Node5&#45;&gt;Node5</title>
<path fill="none" stroke="#9a32cd" stroke-dasharray="5,2" d="M80.3313,-71.7918C84.8972,-71.0633 88,-69.4661 88,-67 88,-62.9531 79.6443,-61.2458 70.1788,-61.8782"/>
<polygon fill="#9a32cd" stroke="#9a32cd" points="80.0598,-68.2987 70.1788,-72.1218 80.2873,-75.295 80.0598,-68.2987"/>
<text text-anchor="middle" x="114" y="-64.5" font-family="Helvetica,sans-Serif" font-size="10.00" fill="#000000"> GlobalList</text>
</g>
</g>
</svg>
