<?xml version="1.0" encoding="UTF-8" standalone="no"?>
<!DOCTYPE svg PUBLIC "-//W3C//DTD SVG 1.1//EN"
 "http://www.w3.org/Graphics/SVG/1.1/DTD/svg11.dtd">
<!-- Generated by graphviz version 2.40.1 (20161225.0304)
 -->
<!-- Title: edspLikeListParser Pages: 1 -->
<svg width="198pt" height="196pt"
 viewBox="0.00 0.00 198.00 196.00" xmlns="http://www.w3.org/2000/svg" xmlns:xlink="http://www.w3.org/1999/xlink">
<g id="graph0" class="graph" transform="scale(1 1) rotate(0) translate(4 192)">
<title>edspLikeListParser</title>
<polygon fill="#ffffff" stroke="transparent" points="-4,4 -4,-192 194,-192 194,4 -4,4"/>
<!-- Node0 -->
<g id="node1" class="node">
<title>Node0</title>
<polygon fill="#bfbfbf" stroke="#000000" points="42,-56.5 42,-75.5 149,-75.5 149,-56.5 42,-56.5"/>
<text text-anchor="middle" x="95.5" y="-63.5" font-family="Helvetica,sans-Serif" font-size="10.00" fill="#000000">edspLikeListParser</text>
</g>
<!-- Node3 -->
<g id="node4" class="node">
<title>Node3</title>
<g id="a_node4"><a xlink:href="classedspListParser.xhtml" target="_top" xlink:title="edspListParser">
<polygon fill="#ffffff" stroke="#000000" points="0,-.5 0,-19.5 87,-19.5 87,-.5 0,-.5"/>
<text text-anchor="middle" x="43.5" y="-7.5" font-family="Helvetica,sans-Serif" font-size="10.00" fill="#000000">edspListParser</text>
</a>
</g>
</g>
<!-- Node0&#45;&gt;Node3 -->
<g id="edge3" class="edge">
<title>Node0&#45;&gt;Node3</title>
<path fill="none" stroke="#191970" d="M79.5178,-48.7884C70.6222,-39.2085 59.8796,-27.6396 52.4539,-19.6427"/>
<polygon fill="#191970" stroke="#191970" points="77.073,-51.2992 86.4423,-56.2455 82.2025,-46.536 77.073,-51.2992"/>
</g>
<!-- Node4 -->
<g id="node5" class="node">
<title>Node4</title>
<g id="a_node5"><a xlink:href="classeippListParser.xhtml" target="_top" xlink:title="eippListParser">
<polygon fill="#ffffff" stroke="#000000" points="105,-.5 105,-19.5 190,-19.5 190,-.5 105,-.5"/>
<text text-anchor="middle" x="147.5" y="-7.5" font-family="Helvetica,sans-Serif" font-size="10.00" fill="#000000">eippListParser</text>
</a>
</g>
</g>
<!-- Node0&#45;&gt;Node4 -->
<g id="edge4" class="edge">
<title>Node0&#45;&gt;Node4</title>
<path fill="none" stroke="#191970" d="M111.4822,-48.7884C120.3778,-39.2085 131.1204,-27.6396 138.5461,-19.6427"/>
<polygon fill="#191970" stroke="#191970" points="108.7975,-46.536 104.5577,-56.2455 113.927,-51.2992 108.7975,-46.536"/>
</g>
<!-- Node1 -->
<g id="node2" class="node">
<title>Node1</title>
<g id="a_node2"><a xlink:href="classdebListParser.xhtml" target="_top" xlink:title="debListParser">
<polygon fill="#ffffff" stroke="#000000" points="54.5,-112.5 54.5,-131.5 136.5,-131.5 136.5,-112.5 54.5,-112.5"/>
<text text-anchor="middle" x="95.5" y="-119.5" font-family="Helvetica,sans-Serif" font-size="10.00" fill="#000000">debListParser</text>
</a>
</g>
</g>
<!-- Node1&#45;&gt;Node0 -->
<g id="edge1" class="edge">
<title>Node1&#45;&gt;Node0</title>
<path fill="none" stroke="#191970" d="M95.5,-102.1575C95.5,-93.155 95.5,-82.9199 95.5,-75.6427"/>
<polygon fill="#191970" stroke="#191970" points="92.0001,-102.2455 95.5,-112.2455 99.0001,-102.2456 92.0001,-102.2455"/>
</g>
<!-- Node2 -->
<g id="node3" class="node">
<title>Node2</title>
<g id="a_node3"><a xlink:href="classpkgCacheListParser.xhtml" target="_top" xlink:title="pkgCacheListParser">
<polygon fill="#ffffff" stroke="#000000" points="39.5,-168.5 39.5,-187.5 151.5,-187.5 151.5,-168.5 39.5,-168.5"/>
<text text-anchor="middle" x="95.5" y="-175.5" font-family="Helvetica,sans-Serif" font-size="10.00" fill="#000000">pkgCacheListParser</text>
</a>
</g>
</g>
<!-- Node2&#45;&gt;Node1 -->
<g id="edge2" class="edge">
<title>Node2&#45;&gt;Node1</title>
<path fill="none" stroke="#191970" d="M95.5,-158.1575C95.5,-149.155 95.5,-138.9199 95.5,-131.6427"/>
<polygon fill="#191970" stroke="#191970" points="92.0001,-158.2455 95.5,-168.2455 99.0001,-158.2456 92.0001,-158.2455"/>
</g>
</g>
</svg>
