<?xml version="1.0" encoding="UTF-8" standalone="no"?>
<!DOCTYPE svg PUBLIC "-//W3C//DTD SVG 1.1//EN"
 "http://www.w3.org/Graphics/SVG/1.1/DTD/svg11.dtd">
<!-- Generated by graphviz version 2.40.1 (20161225.0304)
 -->
<!-- Title: pkgCache::Iterator&lt; Str, Itr &gt; Pages: 1 -->
<svg width="985pt" height="591pt"
 viewBox="0.00 0.00 985.00 591.00" xmlns="http://www.w3.org/2000/svg" xmlns:xlink="http://www.w3.org/1999/xlink">
<g id="graph0" class="graph" transform="scale(1 1) rotate(0) translate(4 587)">
<title>pkgCache::Iterator&lt; Str, Itr &gt;</title>
<polygon fill="#ffffff" stroke="transparent" points="-4,4 -4,-587 981,-587 981,4 -4,4"/>
<!-- Node2 -->
<g id="node1" class="node">
<title>Node2</title>
<polygon fill="#bfbfbf" stroke="#000000" points="870,-290 870,-320 977,-320 977,-290 870,-290"/>
<text text-anchor="start" x="878" y="-308" font-family="Helvetica,sans-Serif" font-size="10.00" fill="#000000">pkgCache::Iterator</text>
<text text-anchor="middle" x="923.5" y="-297" font-family="Helvetica,sans-Serif" font-size="10.00" fill="#000000">&lt; Str, Itr &gt;</text>
</g>
<!-- Node3 -->
<g id="node2" class="node">
<title>Node3</title>
<polygon fill="#ffffff" stroke="#bfbfbf" points="677,-334 677,-364 799,-364 799,-334 677,-334"/>
<text text-anchor="start" x="685" y="-352" font-family="Helvetica,sans-Serif" font-size="10.00" fill="#000000">iterator&lt; std::forward</text>
<text text-anchor="middle" x="738" y="-341" font-family="Helvetica,sans-Serif" font-size="10.00" fill="#000000">_iterator_tag, Str &gt;</text>
</g>
<!-- Node3&#45;&gt;Node2 -->
<g id="edge1" class="edge">
<title>Node3&#45;&gt;Node2</title>
<path fill="none" stroke="#191970" d="M809.0231,-332.1535C829.1982,-327.3681 850.8266,-322.2379 869.7912,-317.7395"/>
<polygon fill="#191970" stroke="#191970" points="808.176,-328.7573 799.2537,-334.4708 809.7916,-335.5683 808.176,-328.7573"/>
</g>
<!-- Node4 -->
<g id="node3" class="node">
<title>Node4</title>
<g id="a_node3"><a xlink:href="classpkgCache.xhtml" target="_top" xlink:title="pkgCache">
<polygon fill="#ffffff" stroke="#000000" points="705.5,-295.5 705.5,-314.5 770.5,-314.5 770.5,-295.5 705.5,-295.5"/>
<text text-anchor="middle" x="738" y="-302.5" font-family="Helvetica,sans-Serif" font-size="10.00" fill="#000000">pkgCache</text>
</a>
</g>
</g>
<!-- Node4&#45;&gt;Node2 -->
<g id="edge2" class="edge">
<title>Node4&#45;&gt;Node2</title>
<path fill="none" stroke="#9a32cd" stroke-dasharray="5,2" d="M780.8246,-305C807.2596,-305 841.4024,-305 869.6598,-305"/>
<polygon fill="#9a32cd" stroke="#9a32cd" points="780.7367,-301.5001 770.7367,-305 780.7366,-308.5001 780.7367,-301.5001"/>
<text text-anchor="middle" x="834.5" y="-308" font-family="Helvetica,sans-Serif" font-size="10.00" fill="#000000"> Owner</text>
</g>
<!-- Node5 -->
<g id="node4" class="node">
<title>Node5</title>
<g id="a_node4"><a xlink:href="structpkgCache_1_1DependencyData.xhtml" target="_top" xlink:title="information for a single dependency record ">
<polygon fill="#ffffff" stroke="#000000" points="477.5,-561.5 477.5,-580.5 578.5,-580.5 578.5,-561.5 477.5,-561.5"/>
<text text-anchor="middle" x="528" y="-568.5" font-family="Helvetica,sans-Serif" font-size="10.00" fill="#000000">DependencyData</text>
</a>
</g>
</g>
<!-- Node5&#45;&gt;Node4 -->
<g id="edge3" class="edge">
<title>Node5&#45;&gt;Node4</title>
<path fill="none" stroke="#9a32cd" stroke-dasharray="5,2" d="M588.8921,-575.0163C614.1405,-573.2629 641.552,-566.2919 659,-547 692.2001,-510.2913 646.3637,-363.8741 677,-325 683.8985,-316.2466 694.7154,-311.2801 705.3368,-308.4775"/>
<polygon fill="#9a32cd" stroke="#9a32cd" points="588.4498,-571.5321 578.611,-575.4625 588.7534,-578.5255 588.4498,-571.5321"/>
<text text-anchor="middle" x="633" y="-575" font-family="Helvetica,sans-Serif" font-size="10.00" fill="#000000"> DepDataP</text>
</g>
<!-- Node6 -->
<g id="node5" class="node">
<title>Node6</title>
<g id="a_node5"><a xlink:href="structpkgCache_1_1Dependency.xhtml" target="_top" xlink:title="Dependency">
<polygon fill="#ffffff" stroke="#000000" points="489.5,-523.5 489.5,-542.5 566.5,-542.5 566.5,-523.5 489.5,-523.5"/>
<text text-anchor="middle" x="528" y="-530.5" font-family="Helvetica,sans-Serif" font-size="10.00" fill="#000000">Dependency</text>
</a>
</g>
</g>
<!-- Node6&#45;&gt;Node4 -->
<g id="edge4" class="edge">
<title>Node6&#45;&gt;Node4</title>
<path fill="none" stroke="#9a32cd" stroke-dasharray="5,2" d="M576.6846,-536.1377C604.8531,-535.1329 638.6509,-528.5868 659,-506 686.0554,-475.9695 651.6925,-356.5176 677,-325 683.9779,-316.3098 694.8122,-311.3571 705.4253,-308.5479"/>
<polygon fill="#9a32cd" stroke="#9a32cd" points="576.5476,-532.6392 566.5967,-536.2766 576.644,-539.6385 576.5476,-532.6392"/>
<text text-anchor="middle" x="633" y="-535" font-family="Helvetica,sans-Serif" font-size="10.00" fill="#000000"> DepP</text>
</g>
<!-- Node7 -->
<g id="node6" class="node">
<title>Node7</title>
<g id="a_node6"><a xlink:href="structpkgCache_1_1Description.xhtml" target="_top" xlink:title="datamember of a linked list of available description for a version ">
<polygon fill="#ffffff" stroke="#000000" points="492,-485.5 492,-504.5 564,-504.5 564,-485.5 492,-485.5"/>
<text text-anchor="middle" x="528" y="-492.5" font-family="Helvetica,sans-Serif" font-size="10.00" fill="#000000">Description</text>
</a>
</g>
</g>
<!-- Node7&#45;&gt;Node4 -->
<g id="edge5" class="edge">
<title>Node7&#45;&gt;Node4</title>
<path fill="none" stroke="#9a32cd" stroke-dasharray="5,2" d="M574.2765,-496.8473C602.8332,-495.3414 637.9174,-488.2396 659,-465 701.1512,-418.5362 637.0227,-373.3469 677,-325 684.0311,-316.4969 694.7467,-311.5794 705.2456,-308.7459"/>
<polygon fill="#9a32cd" stroke="#9a32cd" points="573.9737,-493.3551 564.089,-497.1685 574.1943,-500.3516 573.9737,-493.3551"/>
<text text-anchor="middle" x="633" y="-494" font-family="Helvetica,sans-Serif" font-size="10.00" fill="#000000"> DescP</text>
</g>
<!-- Node8 -->
<g id="node7" class="node">
<title>Node8</title>
<g id="a_node7"><a xlink:href="structpkgCache_1_1Header.xhtml" target="_top" xlink:title="Header">
<polygon fill="#ffffff" stroke="#000000" points="502,-447.5 502,-466.5 554,-466.5 554,-447.5 502,-447.5"/>
<text text-anchor="middle" x="528" y="-454.5" font-family="Helvetica,sans-Serif" font-size="10.00" fill="#000000">Header</text>
</a>
</g>
</g>
<!-- Node8&#45;&gt;Node4 -->
<g id="edge6" class="edge">
<title>Node8&#45;&gt;Node4</title>
<path fill="none" stroke="#9a32cd" stroke-dasharray="5,2" d="M564.2657,-457.6217C593.9923,-456.0708 634.95,-448.8546 659,-423 689.1616,-390.5752 647.8727,-358.3569 677,-325 684.1838,-316.773 694.8068,-311.9139 705.1831,-309.0497"/>
<polygon fill="#9a32cd" stroke="#9a32cd" points="564.1433,-454.1237 554.2656,-457.9552 564.3767,-461.1198 564.1433,-454.1237"/>
<text text-anchor="middle" x="633" y="-453" font-family="Helvetica,sans-Serif" font-size="10.00" fill="#000000"> HeaderP</text>
</g>
<!-- Node9 -->
<g id="node8" class="node">
<title>Node9</title>
<g id="a_node8"><a xlink:href="structDynamicMMap_1_1Pool.xhtml" target="_top" xlink:title="Pool">
<polygon fill="#ffffff" stroke="#000000" points="340,-447.5 340,-466.5 378,-466.5 378,-447.5 340,-447.5"/>
<text text-anchor="middle" x="359" y="-454.5" font-family="Helvetica,sans-Serif" font-size="10.00" fill="#000000">Pool</text>
</a>
</g>
</g>
<!-- Node9&#45;&gt;Node8 -->
<g id="edge7" class="edge">
<title>Node9&#45;&gt;Node8</title>
<path fill="none" stroke="#9a32cd" stroke-dasharray="5,2" d="M388.1285,-457C420.1301,-457 471.0611,-457 501.8334,-457"/>
<polygon fill="#9a32cd" stroke="#9a32cd" points="388.058,-453.5001 378.0579,-457 388.0579,-460.5001 388.058,-453.5001"/>
<text text-anchor="middle" x="424" y="-460" font-family="Helvetica,sans-Serif" font-size="10.00" fill="#000000"> Pools</text>
</g>
<!-- Node10 -->
<g id="node9" class="node">
<title>Node10</title>
<g id="a_node9"><a xlink:href="structpkgCache_1_1PackageFile.xhtml" target="_top" xlink:title="stores information about the files used to generate the cache ">
<polygon fill="#ffffff" stroke="#000000" points="491,-409.5 491,-428.5 565,-428.5 565,-409.5 491,-409.5"/>
<text text-anchor="middle" x="528" y="-416.5" font-family="Helvetica,sans-Serif" font-size="10.00" fill="#000000">PackageFile</text>
</a>
</g>
</g>
<!-- Node10&#45;&gt;Node4 -->
<g id="edge8" class="edge">
<title>Node10&#45;&gt;Node4</title>
<path fill="none" stroke="#9a32cd" stroke-dasharray="5,2" d="M575.398,-415.6736C603.0518,-411.3561 636.7606,-401.6483 659,-380 677.4302,-362.0596 658.8179,-343.1919 677,-325 684.6422,-317.3537 695.2508,-312.6304 705.4807,-309.7129"/>
<polygon fill="#9a32cd" stroke="#9a32cd" points="574.5656,-412.2548 565.1324,-417.0781 575.5145,-419.1902 574.5656,-412.2548"/>
<text text-anchor="middle" x="633" y="-411" font-family="Helvetica,sans-Serif" font-size="10.00" fill="#000000"> PkgFileP</text>
</g>
<!-- Node11 -->
<g id="node10" class="node">
<title>Node11</title>
<g id="a_node10"><a xlink:href="structpkgCache_1_1ReleaseFile.xhtml" target="_top" xlink:title="stores information about the release files used to generate the cache ">
<polygon fill="#ffffff" stroke="#000000" points="492.5,-371.5 492.5,-390.5 563.5,-390.5 563.5,-371.5 492.5,-371.5"/>
<text text-anchor="middle" x="528" y="-378.5" font-family="Helvetica,sans-Serif" font-size="10.00" fill="#000000">ReleaseFile</text>
</a>
</g>
</g>
<!-- Node11&#45;&gt;Node4 -->
<g id="edge9" class="edge">
<title>Node11&#45;&gt;Node4</title>
<path fill="none" stroke="#9a32cd" stroke-dasharray="5,2" d="M573.8093,-374.2952C600.1344,-368.9671 633.0235,-359.7072 659,-344 668.954,-337.9811 667.1732,-331.2244 677,-325 685.5678,-319.5731 695.7523,-315.4772 705.3215,-312.4518"/>
<polygon fill="#9a32cd" stroke="#9a32cd" points="572.8753,-370.91 563.7044,-376.2151 574.182,-377.787 572.8753,-370.91"/>
<text text-anchor="middle" x="633" y="-368" font-family="Helvetica,sans-Serif" font-size="10.00" fill="#000000"> RlsFileP</text>
</g>
<!-- Node12 -->
<g id="node11" class="node">
<title>Node12</title>
<g id="a_node11"><a xlink:href="structpkgCache_1_1DescFile.xhtml" target="_top" xlink:title="associates a description with a Translation file ">
<polygon fill="#ffffff" stroke="#000000" points="499.5,-333.5 499.5,-352.5 556.5,-352.5 556.5,-333.5 499.5,-333.5"/>
<text text-anchor="middle" x="528" y="-340.5" font-family="Helvetica,sans-Serif" font-size="10.00" fill="#000000">DescFile</text>
</a>
</g>
</g>
<!-- Node12&#45;&gt;Node4 -->
<g id="edge10" class="edge">
<title>Node12&#45;&gt;Node4</title>
<path fill="none" stroke="#9a32cd" stroke-dasharray="5,2" d="M566.5243,-336.3805C592.6359,-331.8584 627.9179,-325.6791 659,-320 674.2436,-317.2148 691.1204,-314.0248 705.3483,-311.3047"/>
<polygon fill="#9a32cd" stroke="#9a32cd" points="565.8995,-332.9365 556.6418,-338.0887 567.0919,-339.8342 565.8995,-332.9365"/>
<text text-anchor="middle" x="633" y="-332" font-family="Helvetica,sans-Serif" font-size="10.00" fill="#000000"> DescFileP</text>
</g>
<!-- Node13 -->
<g id="node12" class="node">
<title>Node13</title>
<g id="a_node12"><a xlink:href="structpkgCache_1_1Provides.xhtml" target="_top" xlink:title="handles virtual packages ">
<polygon fill="#ffffff" stroke="#000000" points="498.5,-295.5 498.5,-314.5 557.5,-314.5 557.5,-295.5 498.5,-295.5"/>
<text text-anchor="middle" x="528" y="-302.5" font-family="Helvetica,sans-Serif" font-size="10.00" fill="#000000">Provides</text>
</a>
</g>
</g>
<!-- Node13&#45;&gt;Node4 -->
<g id="edge11" class="edge">
<title>Node13&#45;&gt;Node4</title>
<path fill="none" stroke="#9a32cd" stroke-dasharray="5,2" d="M567.8019,-305C607.6707,-305 668.294,-305 705.4026,-305"/>
<polygon fill="#9a32cd" stroke="#9a32cd" points="567.6425,-301.5001 557.6425,-305 567.6424,-308.5001 567.6425,-301.5001"/>
<text text-anchor="middle" x="633" y="-308" font-family="Helvetica,sans-Serif" font-size="10.00" fill="#000000"> ProvideP</text>
</g>
<!-- Node14 -->
<g id="node13" class="node">
<title>Node14</title>
<g id="a_node13"><a xlink:title="STL class. ">
<polygon fill="#ffffff" stroke="#bfbfbf" points="156,-238.5 156,-257.5 200,-257.5 200,-238.5 156,-238.5"/>
<text text-anchor="middle" x="178" y="-245.5" font-family="Helvetica,sans-Serif" font-size="10.00" fill="#000000">string</text>
</a>
</g>
</g>
<!-- Node14&#45;&gt;Node4 -->
<g id="edge12" class="edge">
<title>Node14&#45;&gt;Node4</title>
<path fill="none" stroke="#9a32cd" stroke-dasharray="5,2" d="M210.6041,-252.1731C213.1056,-252.4634 215.5927,-252.7426 218,-253 382.6014,-270.6025 424.4206,-268.1937 589,-286 629.1856,-290.3478 675.3313,-296.3959 705.4879,-300.4915"/>
<polygon fill="#9a32cd" stroke="#9a32cd" points="210.7558,-248.6661 200.4087,-250.9439 209.9179,-255.6158 210.7558,-248.6661"/>
<text text-anchor="middle" x="424" y="-276" font-family="Helvetica,sans-Serif" font-size="10.00" fill="#000000"> CacheFile</text>
</g>
<!-- Node22 -->
<g id="node21" class="node">
<title>Node22</title>
<g id="a_node21"><a xlink:href="classFileFd.xhtml" target="_top" xlink:title="FileFd">
<polygon fill="#ffffff" stroke="#000000" points="337,-219.5 337,-238.5 381,-238.5 381,-219.5 337,-219.5"/>
<text text-anchor="middle" x="359" y="-226.5" font-family="Helvetica,sans-Serif" font-size="10.00" fill="#000000">FileFd</text>
</a>
</g>
</g>
<!-- Node14&#45;&gt;Node22 -->
<g id="edge22" class="edge">
<title>Node14&#45;&gt;Node22</title>
<path fill="none" stroke="#9a32cd" stroke-dasharray="5,2" d="M205.8134,-234.577C209.8246,-233.1162 213.9625,-231.8522 218,-231 259.2006,-222.3034 308.6875,-224.39 336.7274,-226.6957"/>
<polygon fill="#9a32cd" stroke="#9a32cd" points="204.1663,-231.469 196.2332,-238.4915 206.8141,-237.949 204.1663,-231.469"/>
<text text-anchor="middle" x="268.5" y="-245" font-family="Helvetica,sans-Serif" font-size="10.00" fill="#000000"> TemporaryFileName</text>
<text text-anchor="middle" x="268.5" y="-234" font-family="Helvetica,sans-Serif" font-size="10.00" fill="#000000">FileName</text>
</g>
<!-- Node15 -->
<g id="node14" class="node">
<title>Node15</title>
<g id="a_node14"><a xlink:title="STL class. ">
<polygon fill="#ffffff" stroke="#bfbfbf" points="0,-238.5 0,-257.5 119,-257.5 119,-238.5 0,-238.5"/>
<text text-anchor="middle" x="59.5" y="-245.5" font-family="Helvetica,sans-Serif" font-size="10.00" fill="#000000">basic_string&lt; char &gt;</text>
</a>
</g>
</g>
<!-- Node15&#45;&gt;Node14 -->
<g id="edge13" class="edge">
<title>Node15&#45;&gt;Node14</title>
<path fill="none" stroke="#191970" d="M129.2118,-248C138.8284,-248 148.0652,-248 155.8653,-248"/>
<polygon fill="#191970" stroke="#191970" points="129.0972,-244.5001 119.0972,-248 129.0971,-251.5001 129.0972,-244.5001"/>
</g>
<!-- Node16 -->
<g id="node15" class="node">
<title>Node16</title>
<g id="a_node15"><a xlink:href="structpkgCache_1_1Group.xhtml" target="_top" xlink:title="groups architecture depending packages together ">
<polygon fill="#ffffff" stroke="#000000" points="505,-181.5 505,-200.5 551,-200.5 551,-181.5 505,-181.5"/>
<text text-anchor="middle" x="528" y="-188.5" font-family="Helvetica,sans-Serif" font-size="10.00" fill="#000000">Group</text>
</a>
</g>
</g>
<!-- Node16&#45;&gt;Node4 -->
<g id="edge14" class="edge">
<title>Node16&#45;&gt;Node4</title>
<path fill="none" stroke="#9a32cd" stroke-dasharray="5,2" d="M561.3259,-185.9603C590.7252,-183.5122 632.852,-185.1796 659,-209 684.9806,-232.6679 653.0634,-260.2668 677,-286 684.4036,-293.9593 695.0781,-298.6091 705.4342,-301.3168"/>
<polygon fill="#9a32cd" stroke="#9a32cd" points="560.7106,-182.5052 551.1235,-187.0151 561.4305,-189.4681 560.7106,-182.5052"/>
<text text-anchor="middle" x="633" y="-212" font-family="Helvetica,sans-Serif" font-size="10.00" fill="#000000"> GrpP</text>
</g>
<!-- Node17 -->
<g id="node16" class="node">
<title>Node17</title>
<g id="a_node16"><a xlink:href="classpkgVersioningSystem.xhtml" target="_top" xlink:title="pkgVersioningSystem">
<polygon fill="#ffffff" stroke="#000000" points="467,-114.5 467,-133.5 589,-133.5 589,-114.5 467,-114.5"/>
<text text-anchor="middle" x="528" y="-121.5" font-family="Helvetica,sans-Serif" font-size="10.00" fill="#000000">pkgVersioningSystem</text>
</a>
</g>
</g>
<!-- Node17&#45;&gt;Node4 -->
<g id="edge15" class="edge">
<title>Node17&#45;&gt;Node4</title>
<path fill="none" stroke="#9a32cd" stroke-dasharray="5,2" d="M598.8937,-135.9039C621.2102,-143.0799 643.9374,-154.5783 659,-173 691.1911,-212.3701 643.7196,-247.5463 677,-286 684.1862,-294.3033 694.937,-299.026 705.4206,-301.6957"/>
<polygon fill="#9a32cd" stroke="#9a32cd" points="599.6214,-132.4695 589.0396,-132.9937 597.6387,-139.1828 599.6214,-132.4695"/>
<text text-anchor="middle" x="633" y="-176" font-family="Helvetica,sans-Serif" font-size="10.00" fill="#000000"> VS</text>
</g>
<!-- Node17&#45;&gt;Node17 -->
<g id="edge16" class="edge">
<title>Node17&#45;&gt;Node17</title>
<path fill="none" stroke="#9a32cd" stroke-dasharray="5,2" d="M508.7417,-143.4C510.0278,-148.3146 516.4473,-152 528,-152 546.4844,-152 551.8275,-142.5653 544.0294,-133.7571"/>
<polygon fill="#9a32cd" stroke="#9a32cd" points="512.1142,-144.3509 511.9706,-133.7571 505.4765,-142.1283 512.1142,-144.3509"/>
<text text-anchor="middle" x="528" y="-155" font-family="Helvetica,sans-Serif" font-size="10.00" fill="#000000"> GlobalList</text>
</g>
<!-- Node18 -->
<g id="node17" class="node">
<title>Node18</title>
<g id="a_node17"><a xlink:href="structpkgCache_1_1Version.xhtml" target="_top" xlink:title="information for a single version of a package ">
<polygon fill="#ffffff" stroke="#000000" points="501.5,-76.5 501.5,-95.5 554.5,-95.5 554.5,-76.5 501.5,-76.5"/>
<text text-anchor="middle" x="528" y="-83.5" font-family="Helvetica,sans-Serif" font-size="10.00" fill="#000000">Version</text>
</a>
</g>
</g>
<!-- Node18&#45;&gt;Node4 -->
<g id="edge17" class="edge">
<title>Node18&#45;&gt;Node4</title>
<path fill="none" stroke="#9a32cd" stroke-dasharray="5,2" d="M564.867,-86.4631C594.9629,-88.9646 636.1251,-97.6422 659,-125 705.1855,-180.2368 631.1633,-230.4734 677,-286 683.9907,-294.4686 694.6972,-299.2287 705.2,-301.8821"/>
<polygon fill="#9a32cd" stroke="#9a32cd" points="564.9342,-82.9603 554.7313,-85.8153 564.4877,-89.9461 564.9342,-82.9603"/>
<text text-anchor="middle" x="633" y="-128" font-family="Helvetica,sans-Serif" font-size="10.00" fill="#000000"> VerP</text>
</g>
<!-- Node19 -->
<g id="node18" class="node">
<title>Node19</title>
<g id="a_node18"><a xlink:href="structpkgCache_1_1VerFile.xhtml" target="_top" xlink:title="associates a version with a PackageFile ">
<polygon fill="#ffffff" stroke="#000000" points="503.5,-38.5 503.5,-57.5 552.5,-57.5 552.5,-38.5 503.5,-38.5"/>
<text text-anchor="middle" x="528" y="-45.5" font-family="Helvetica,sans-Serif" font-size="10.00" fill="#000000">VerFile</text>
</a>
</g>
</g>
<!-- Node19&#45;&gt;Node4 -->
<g id="edge18" class="edge">
<title>Node19&#45;&gt;Node4</title>
<path fill="none" stroke="#9a32cd" stroke-dasharray="5,2" d="M562.7183,-46.1623C592.9621,-46.6275 635.5424,-52.6638 659,-80 688.9248,-114.8728 648.1771,-250.2111 677,-286 683.9574,-294.6388 694.7872,-299.4278 705.4024,-302.0563"/>
<polygon fill="#9a32cd" stroke="#9a32cd" points="562.5721,-42.6628 552.5868,-46.2044 562.6012,-49.6628 562.5721,-42.6628"/>
<text text-anchor="middle" x="633" y="-83" font-family="Helvetica,sans-Serif" font-size="10.00" fill="#000000"> VerFileP</text>
</g>
<!-- Node20 -->
<g id="node19" class="node">
<title>Node20</title>
<g id="a_node19"><a xlink:href="structpkgCache_1_1Package.xhtml" target="_top" xlink:title="contains information for a single unique package ">
<polygon fill="#ffffff" stroke="#000000" points="499.5,-.5 499.5,-19.5 556.5,-19.5 556.5,-.5 499.5,-.5"/>
<text text-anchor="middle" x="528" y="-7.5" font-family="Helvetica,sans-Serif" font-size="10.00" fill="#000000">Package</text>
</a>
</g>
</g>
<!-- Node20&#45;&gt;Node4 -->
<g id="edge19" class="edge">
<title>Node20&#45;&gt;Node4</title>
<path fill="none" stroke="#9a32cd" stroke-dasharray="5,2" d="M566.7225,-6.8825C596.6079,-6.7993 636.5286,-12.189 659,-38 695.2827,-79.6749 642.6586,-242.7114 677,-286 683.8937,-294.6898 694.7095,-299.4898 705.3315,-302.113"/>
<polygon fill="#9a32cd" stroke="#9a32cd" points="566.5318,-3.3858 556.6152,-7.1156 566.6933,-10.384 566.5318,-3.3858"/>
<text text-anchor="middle" x="633" y="-41" font-family="Helvetica,sans-Serif" font-size="10.00" fill="#000000"> PkgP</text>
</g>
<!-- Node21 -->
<g id="node20" class="node">
<title>Node21</title>
<g id="a_node20"><a xlink:href="classMMap.xhtml" target="_top" xlink:title="MMap">
<polygon fill="#ffffff" stroke="#000000" points="505.5,-219.5 505.5,-238.5 550.5,-238.5 550.5,-219.5 505.5,-219.5"/>
<text text-anchor="middle" x="528" y="-226.5" font-family="Helvetica,sans-Serif" font-size="10.00" fill="#000000">MMap</text>
</a>
</g>
</g>
<!-- Node21&#45;&gt;Node4 -->
<g id="edge20" class="edge">
<title>Node21&#45;&gt;Node4</title>
<path fill="none" stroke="#9a32cd" stroke-dasharray="5,2" d="M560.8351,-223.4798C589.5486,-220.5355 630.9327,-221.0723 659,-242 675.9384,-254.6297 661.4287,-271.7187 677,-286 684.8476,-293.1975 695.3876,-297.6687 705.4972,-300.4463"/>
<polygon fill="#9a32cd" stroke="#9a32cd" points="560.3821,-220.009 550.8778,-224.6907 561.2272,-226.9578 560.3821,-220.009"/>
<text text-anchor="middle" x="633" y="-245" font-family="Helvetica,sans-Serif" font-size="10.00" fill="#000000"> Map</text>
</g>
<!-- Node22&#45;&gt;Node21 -->
<g id="edge21" class="edge">
<title>Node22&#45;&gt;Node21</title>
<path fill="none" stroke="#9a32cd" stroke-dasharray="5,2" d="M391.2616,-229C424.6753,-229 476.0218,-229 505.3614,-229"/>
<polygon fill="#9a32cd" stroke="#9a32cd" points="391.0938,-225.5001 381.0938,-229 391.0938,-232.5001 391.0938,-225.5001"/>
<text text-anchor="middle" x="424" y="-232" font-family="Helvetica,sans-Serif" font-size="10.00" fill="#000000"> SyncToFd</text>
</g>
<!-- Node23 -->
<g id="node22" class="node">
<title>Node23</title>
<polygon fill="#ffffff" stroke="#bfbfbf" points="723,-257.5 723,-276.5 753,-276.5 753,-257.5 723,-257.5"/>
<text text-anchor="middle" x="738" y="-264.5" font-family="Helvetica,sans-Serif" font-size="10.00" fill="#000000">Str</text>
</g>
<!-- Node23&#45;&gt;Node2 -->
<g id="edge23" class="edge">
<title>Node23&#45;&gt;Node2</title>
<path fill="none" stroke="#9a32cd" stroke-dasharray="5,2" d="M763.1302,-272.0123C786.2367,-276.6347 821.4405,-283.7118 852,-290 857.7146,-291.1759 863.6842,-292.4135 869.6324,-293.6527"/>
<polygon fill="#9a32cd" stroke="#9a32cd" points="763.6207,-268.5412 753.1287,-270.0137 762.2489,-275.4055 763.6207,-268.5412"/>
<text text-anchor="middle" x="834.5" y="-293" font-family="Helvetica,sans-Serif" font-size="10.00" fill="#000000"> S</text>
</g>
</g>
</svg>
