<?xml version="1.0" encoding="UTF-8" standalone="no"?>
<!DOCTYPE svg PUBLIC "-//W3C//DTD SVG 1.1//EN"
 "http://www.w3.org/Graphics/SVG/1.1/DTD/svg11.dtd">
<!-- Generated by graphviz version 2.40.1 (20161225.0304)
 -->
<!-- Title: pkgCache::PrvIterator Pages: 1 -->
<!--zoomable 596 -->
<svg id="main" version="1.1" xmlns="http://www.w3.org/2000/svg" xmlns:xlink="http://www.w3.org/1999/xlink" xml:space="preserve" onload="init(evt)">
<style type="text/css"><![CDATA[
.edge:hover path { stroke: red; }
.edge:hover polygon { stroke: red; fill: red; }
]]></style>
<script type="text/javascript"><![CDATA[
var edges = document.getElementsByTagName('g');
if (edges && edges.length) {
  for (var i=0;i<edges.length;i++) {
    if (edges[i].id.substr(0,4)=='edge') {
      edges[i].setAttribute('class','edge');
    }
  }
}
]]></script>
        <defs>
                <circle id="rim" cx="0" cy="0" r="7"/>
                <circle id="rim2" cx="0" cy="0" r="3.5"/>
                <g id="zoomPlus">
                        <use xlink:href="#rim" fill="#404040">
                                <set attributeName="fill" to="#808080" begin="zoomplus.mouseover" end="zoomplus.mouseout"/>
                        </use>
                        <path d="M-4,0h8M0,-4v8" fill="none" stroke="white" stroke-width="1.5" pointer-events="none"/>
                </g>
                <g id="zoomMin">
                        <use xlink:href="#rim" fill="#404040">
                                <set attributeName="fill" to="#808080" begin="zoomminus.mouseover" end="zoomminus.mouseout"/>
                        </use>
                        <path d="M-4,0h8" fill="none" stroke="white" stroke-width="1.5" pointer-events="none"/>
                </g>
                <g id="dirArrow">
                        <path fill="none" stroke="white" stroke-width="1.5" d="M0,-3.0v7 M-2.5,-0.5L0,-3.0L2.5,-0.5"/>
                </g>
               <g id="resetDef">
                       <use xlink:href="#rim2" fill="#404040">
                               <set attributeName="fill" to="#808080" begin="reset.mouseover" end="reset.mouseout"/>
                       </use>
               </g>
        </defs>

<script type="text/javascript">
var viewWidth = 1162;
var viewHeight = 596;
var sectionId = 'dynsection-1';
</script>
<script xlink:href="svgpan.js"/>
<svg id="graph" class="graph">
<g id="viewport">
<title>pkgCache::PrvIterator</title>
<polygon fill="#ffffff" stroke="transparent" points="-4,4 -4,-592 1158,-592 1158,4 -4,4"/>
<!-- Node3 -->
<g id="node1" class="node">
<title>Node3</title>
<polygon fill="#bfbfbf" stroke="#000000" points="1032,-282.5 1032,-301.5 1154,-301.5 1154,-282.5 1032,-282.5"/>
<text text-anchor="middle" x="1093" y="-289.5" font-family="Helvetica,sans-Serif" font-size="10.00" fill="#000000">pkgCache::PrvIterator</text>
</g>
<!-- Node4 -->
<g id="node2" class="node">
<title>Node4</title>
<g id="a_node2"><a xlink:href="classpkgCache_1_1Iterator.xhtml" target="_top" xlink:title="Iterator\&lt; Provides,\l PrvIterator \&gt;">
<polygon fill="#ffffff" stroke="#000000" points="886,-277 886,-307 995,-307 995,-277 886,-277"/>
<text text-anchor="start" x="894" y="-295" font-family="Helvetica,sans-Serif" font-size="10.00" fill="#000000">Iterator&lt; Provides,</text>
<text text-anchor="middle" x="940.5" y="-284" font-family="Helvetica,sans-Serif" font-size="10.00" fill="#000000"> PrvIterator &gt;</text>
</a>
</g>
</g>
<!-- Node4&#45;&gt;Node3 -->
<g id="edge1" class="edge">
<title>Node4&#45;&gt;Node3</title>
<path fill="none" stroke="#191970" d="M1005.3012,-292C1014.075,-292 1023.0558,-292 1031.7645,-292"/>
<polygon fill="#191970" stroke="#191970" points="1005.1253,-288.5001 995.1253,-292 1005.1252,-295.5001 1005.1253,-288.5001"/>
</g>
<!-- Node5 -->
<g id="node3" class="node">
<title>Node5</title>
<polygon fill="#ffffff" stroke="#bfbfbf" points="677,-321 677,-351 815,-351 815,-321 677,-321"/>
<text text-anchor="start" x="685" y="-339" font-family="Helvetica,sans-Serif" font-size="10.00" fill="#000000">iterator&lt; std::forward</text>
<text text-anchor="middle" x="746" y="-328" font-family="Helvetica,sans-Serif" font-size="10.00" fill="#000000">_iterator_tag, Provides &gt;</text>
</g>
<!-- Node5&#45;&gt;Node4 -->
<g id="edge2" class="edge">
<title>Node5&#45;&gt;Node4</title>
<path fill="none" stroke="#191970" d="M822.325,-318.7337C843.4874,-313.9463 866.0375,-308.845 885.7051,-304.3958"/>
<polygon fill="#191970" stroke="#191970" points="821.3731,-315.3605 812.3919,-320.9808 822.9177,-322.188 821.3731,-315.3605"/>
</g>
<!-- Node6 -->
<g id="node4" class="node">
<title>Node6</title>
<g id="a_node4"><a xlink:href="classpkgCache.xhtml" target="_top" xlink:title="pkgCache">
<polygon fill="#ffffff" stroke="#000000" points="713.5,-282.5 713.5,-301.5 778.5,-301.5 778.5,-282.5 713.5,-282.5"/>
<text text-anchor="middle" x="746" y="-289.5" font-family="Helvetica,sans-Serif" font-size="10.00" fill="#000000">pkgCache</text>
</a>
</g>
</g>
<!-- Node6&#45;&gt;Node4 -->
<g id="edge3" class="edge">
<title>Node6&#45;&gt;Node4</title>
<path fill="none" stroke="#9a32cd" stroke-dasharray="5,2" d="M788.6165,-292C817.1494,-292 854.9702,-292 885.7324,-292"/>
<polygon fill="#9a32cd" stroke="#9a32cd" points="788.555,-288.5001 778.5549,-292 788.5549,-295.5001 788.555,-288.5001"/>
<text text-anchor="middle" x="850.5" y="-295" font-family="Helvetica,sans-Serif" font-size="10.00" fill="#000000"> Owner</text>
</g>
<!-- Node7 -->
<g id="node5" class="node">
<title>Node7</title>
<g id="a_node5"><a xlink:href="structpkgCache_1_1DependencyData.xhtml" target="_top" xlink:title="information for a single dependency record ">
<polygon fill="#ffffff" stroke="#000000" points="477.5,-491.5 477.5,-510.5 578.5,-510.5 578.5,-491.5 477.5,-491.5"/>
<text text-anchor="middle" x="528" y="-498.5" font-family="Helvetica,sans-Serif" font-size="10.00" fill="#000000">DependencyData</text>
</a>
</g>
</g>
<!-- Node7&#45;&gt;Node6 -->
<g id="edge4" class="edge">
<title>Node7&#45;&gt;Node6</title>
<path fill="none" stroke="#9a32cd" stroke-dasharray="5,2" d="M588.6129,-500.2731C613.965,-496.7001 641.5356,-487.9344 659,-468 704.9918,-415.5036 631.9432,-365.301 677,-312 685.9374,-301.4272 700.0967,-296.263 713.2692,-293.8047"/>
<polygon fill="#9a32cd" stroke="#9a32cd" points="588.1893,-496.7987 578.663,-501.4354 589.0016,-503.7514 588.1893,-496.7987"/>
<text text-anchor="middle" x="633" y="-499" font-family="Helvetica,sans-Serif" font-size="10.00" fill="#000000"> DepDataP</text>
</g>
<!-- Node8 -->
<g id="node6" class="node">
<title>Node8</title>
<g id="a_node6"><a xlink:href="structpkgCache_1_1Dependency.xhtml" target="_top" xlink:title="Dependency">
<polygon fill="#ffffff" stroke="#000000" points="489.5,-453.5 489.5,-472.5 566.5,-472.5 566.5,-453.5 489.5,-453.5"/>
<text text-anchor="middle" x="528" y="-460.5" font-family="Helvetica,sans-Serif" font-size="10.00" fill="#000000">Dependency</text>
</a>
</g>
</g>
<!-- Node8&#45;&gt;Node6 -->
<g id="edge5" class="edge">
<title>Node8&#45;&gt;Node6</title>
<path fill="none" stroke="#9a32cd" stroke-dasharray="5,2" d="M576.5805,-460.8885C604.7111,-457.0156 638.5055,-447.3483 659,-424 692.2589,-386.1098 643.6043,-349.7698 677,-312 686.1703,-301.6286 700.3605,-296.491 713.4933,-293.9985"/>
<polygon fill="#9a32cd" stroke="#9a32cd" points="576.0331,-457.4286 566.508,-462.0678 576.8472,-464.3811 576.0331,-457.4286"/>
<text text-anchor="middle" x="633" y="-456" font-family="Helvetica,sans-Serif" font-size="10.00" fill="#000000"> DepP</text>
</g>
<!-- Node9 -->
<g id="node7" class="node">
<title>Node9</title>
<g id="a_node7"><a xlink:href="structpkgCache_1_1Description.xhtml" target="_top" xlink:title="datamember of a linked list of available description for a version ">
<polygon fill="#ffffff" stroke="#000000" points="492,-415.5 492,-434.5 564,-434.5 564,-415.5 492,-415.5"/>
<text text-anchor="middle" x="528" y="-422.5" font-family="Helvetica,sans-Serif" font-size="10.00" fill="#000000">Description</text>
</a>
</g>
</g>
<!-- Node9&#45;&gt;Node6 -->
<g id="edge6" class="edge">
<title>Node9&#45;&gt;Node6</title>
<path fill="none" stroke="#9a32cd" stroke-dasharray="5,2" d="M574.1903,-419.6202C602.5475,-413.9159 637.4437,-402.1714 659,-378 679.2368,-355.3082 655.6719,-333.6693 677,-312 686.5363,-302.3111 700.4609,-297.2471 713.308,-294.6261"/>
<polygon fill="#9a32cd" stroke="#9a32cd" points="573.2876,-416.2269 564.0756,-421.4603 574.5406,-423.1138 573.2876,-416.2269"/>
<text text-anchor="middle" x="633" y="-412" font-family="Helvetica,sans-Serif" font-size="10.00" fill="#000000"> DescP</text>
</g>
<!-- Node10 -->
<g id="node8" class="node">
<title>Node10</title>
<g id="a_node8"><a xlink:href="structpkgCache_1_1Header.xhtml" target="_top" xlink:title="Header">
<polygon fill="#ffffff" stroke="#000000" points="502,-377.5 502,-396.5 554,-396.5 554,-377.5 502,-377.5"/>
<text text-anchor="middle" x="528" y="-384.5" font-family="Helvetica,sans-Serif" font-size="10.00" fill="#000000">Header</text>
</a>
</g>
</g>
<!-- Node10&#45;&gt;Node6 -->
<g id="edge7" class="edge">
<title>Node10&#45;&gt;Node6</title>
<path fill="none" stroke="#9a32cd" stroke-dasharray="5,2" d="M563.8788,-375.8414C572.1322,-373.2699 580.8719,-370.5431 589,-368 620.1236,-358.262 633.936,-366.8639 659,-346 672.141,-335.0611 663.7374,-322.7912 677,-312 687.2549,-303.6561 700.8473,-298.793 713.2553,-295.9588"/>
<polygon fill="#9a32cd" stroke="#9a32cd" points="562.6338,-372.5633 554.1266,-378.8783 564.7151,-379.2467 562.6338,-372.5633"/>
<text text-anchor="middle" x="633" y="-366" font-family="Helvetica,sans-Serif" font-size="10.00" fill="#000000"> HeaderP</text>
</g>
<!-- Node11 -->
<g id="node9" class="node">
<title>Node11</title>
<g id="a_node9"><a xlink:href="structDynamicMMap_1_1Pool.xhtml" target="_top" xlink:title="Pool">
<polygon fill="#ffffff" stroke="#000000" points="340,-377.5 340,-396.5 378,-396.5 378,-377.5 340,-377.5"/>
<text text-anchor="middle" x="359" y="-384.5" font-family="Helvetica,sans-Serif" font-size="10.00" fill="#000000">Pool</text>
</a>
</g>
</g>
<!-- Node11&#45;&gt;Node10 -->
<g id="edge8" class="edge">
<title>Node11&#45;&gt;Node10</title>
<path fill="none" stroke="#9a32cd" stroke-dasharray="5,2" d="M388.1285,-387C420.1301,-387 471.0611,-387 501.8334,-387"/>
<polygon fill="#9a32cd" stroke="#9a32cd" points="388.058,-383.5001 378.0579,-387 388.0579,-390.5001 388.058,-383.5001"/>
<text text-anchor="middle" x="424" y="-390" font-family="Helvetica,sans-Serif" font-size="10.00" fill="#000000"> Pools</text>
</g>
<!-- Node12 -->
<g id="node10" class="node">
<title>Node12</title>
<g id="a_node10"><a xlink:href="structpkgCache_1_1PackageFile.xhtml" target="_top" xlink:title="stores information about the files used to generate the cache ">
<polygon fill="#ffffff" stroke="#000000" points="491,-339.5 491,-358.5 565,-358.5 565,-339.5 491,-339.5"/>
<text text-anchor="middle" x="528" y="-346.5" font-family="Helvetica,sans-Serif" font-size="10.00" fill="#000000">PackageFile</text>
</a>
</g>
</g>
<!-- Node12&#45;&gt;Node6 -->
<g id="edge9" class="edge">
<title>Node12&#45;&gt;Node6</title>
<path fill="none" stroke="#9a32cd" stroke-dasharray="5,2" d="M575.1868,-338.9052C600.2282,-333.2788 631.438,-325.8379 659,-318 667.1112,-315.6934 668.9487,-314.5076 677,-312 688.7889,-308.3282 701.7789,-304.5053 713.278,-301.1973"/>
<polygon fill="#9a32cd" stroke="#9a32cd" points="574.2148,-335.5358 565.2133,-341.1237 575.7348,-342.3688 574.2148,-335.5358"/>
<text text-anchor="middle" x="633" y="-334" font-family="Helvetica,sans-Serif" font-size="10.00" fill="#000000"> PkgFileP</text>
</g>
<!-- Node13 -->
<g id="node11" class="node">
<title>Node13</title>
<g id="a_node11"><a xlink:href="structpkgCache_1_1ReleaseFile.xhtml" target="_top" xlink:title="stores information about the release files used to generate the cache ">
<polygon fill="#ffffff" stroke="#000000" points="492.5,-301.5 492.5,-320.5 563.5,-320.5 563.5,-301.5 492.5,-301.5"/>
<text text-anchor="middle" x="528" y="-308.5" font-family="Helvetica,sans-Serif" font-size="10.00" fill="#000000">ReleaseFile</text>
</a>
</g>
</g>
<!-- Node13&#45;&gt;Node6 -->
<g id="edge10" class="edge">
<title>Node13&#45;&gt;Node6</title>
<path fill="none" stroke="#9a32cd" stroke-dasharray="5,2" d="M573.6993,-307.017C615.4866,-303.375 676.269,-298.0775 713.3558,-294.8451"/>
<polygon fill="#9a32cd" stroke="#9a32cd" points="573.169,-303.5499 563.5107,-307.905 573.7768,-310.5235 573.169,-303.5499"/>
<text text-anchor="middle" x="633" y="-306" font-family="Helvetica,sans-Serif" font-size="10.00" fill="#000000"> RlsFileP</text>
</g>
<!-- Node14 -->
<g id="node12" class="node">
<title>Node14</title>
<g id="a_node12"><a xlink:href="structpkgCache_1_1DescFile.xhtml" target="_top" xlink:title="associates a description with a Translation file ">
<polygon fill="#ffffff" stroke="#000000" points="499.5,-263.5 499.5,-282.5 556.5,-282.5 556.5,-263.5 499.5,-263.5"/>
<text text-anchor="middle" x="528" y="-270.5" font-family="Helvetica,sans-Serif" font-size="10.00" fill="#000000">DescFile</text>
</a>
</g>
</g>
<!-- Node14&#45;&gt;Node6 -->
<g id="edge11" class="edge">
<title>Node14&#45;&gt;Node6</title>
<path fill="none" stroke="#9a32cd" stroke-dasharray="5,2" d="M566.8531,-276.1813C592.922,-278.3358 628.0276,-281.2757 659,-284 676.9804,-285.5816 697.0435,-287.4214 713.368,-288.9377"/>
<polygon fill="#9a32cd" stroke="#9a32cd" points="566.8809,-272.6718 556.6271,-275.3381 566.3056,-279.6481 566.8809,-272.6718"/>
<text text-anchor="middle" x="633" y="-287" font-family="Helvetica,sans-Serif" font-size="10.00" fill="#000000"> DescFileP</text>
</g>
<!-- Node15 -->
<g id="node13" class="node">
<title>Node15</title>
<g id="a_node13"><a xlink:href="structpkgCache_1_1Provides.xhtml" target="_top" xlink:title="handles virtual packages ">
<polygon fill="#ffffff" stroke="#000000" points="498.5,-.5 498.5,-19.5 557.5,-19.5 557.5,-.5 498.5,-.5"/>
<text text-anchor="middle" x="528" y="-7.5" font-family="Helvetica,sans-Serif" font-size="10.00" fill="#000000">Provides</text>
</a>
</g>
</g>
<!-- Node15&#45;&gt;Node4 -->
<g id="edge24" class="edge">
<title>Node15&#45;&gt;Node4</title>
<path fill="none" stroke="#9a32cd" stroke-dasharray="5,2" d="M567.9624,-6.1785C594.8385,-5.2235 630.4378,-7.169 659,-20 791.3502,-79.4555 898.7361,-228.9252 930.7438,-276.9152"/>
<polygon fill="#9a32cd" stroke="#9a32cd" points="567.5684,-2.6939 557.7576,-6.6935 567.9213,-9.685 567.5684,-2.6939"/>
<text text-anchor="middle" x="746" y="-137" font-family="Helvetica,sans-Serif" font-size="10.00" fill="#000000"> S</text>
</g>
<!-- Node15&#45;&gt;Node6 -->
<g id="edge12" class="edge">
<title>Node15&#45;&gt;Node6</title>
<path fill="none" stroke="#9a32cd" stroke-dasharray="5,2" d="M567.7001,-13.8234C596.4473,-18.5672 634.4218,-29.1946 659,-53 728.1456,-119.9714 742.6164,-246.1951 745.3889,-282.1921"/>
<polygon fill="#9a32cd" stroke="#9a32cd" points="567.9723,-10.3258 557.5684,-12.3284 566.9504,-17.2508 567.9723,-10.3258"/>
<text text-anchor="middle" x="633" y="-56" font-family="Helvetica,sans-Serif" font-size="10.00" fill="#000000"> ProvideP</text>
</g>
<!-- Node16 -->
<g id="node14" class="node">
<title>Node16</title>
<g id="a_node14"><a xlink:title="STL class. ">
<polygon fill="#ffffff" stroke="#bfbfbf" points="156,-241.5 156,-260.5 200,-260.5 200,-241.5 156,-241.5"/>
<text text-anchor="middle" x="178" y="-248.5" font-family="Helvetica,sans-Serif" font-size="10.00" fill="#000000">string</text>
</a>
</g>
</g>
<!-- Node16&#45;&gt;Node6 -->
<g id="edge13" class="edge">
<title>Node16&#45;&gt;Node6</title>
<path fill="none" stroke="#9a32cd" stroke-dasharray="5,2" d="M210.7315,-248.699C280.5576,-244.3467 449.1701,-236.8009 589,-254 633.8131,-259.512 684.3568,-273.1208 715.6985,-282.462"/>
<polygon fill="#9a32cd" stroke="#9a32cd" points="210.1465,-245.2294 200.3925,-249.3658 210.5971,-252.2149 210.1465,-245.2294"/>
<text text-anchor="middle" x="424" y="-247" font-family="Helvetica,sans-Serif" font-size="10.00" fill="#000000"> CacheFile</text>
</g>
<!-- Node24 -->
<g id="node22" class="node">
<title>Node24</title>
<g id="a_node22"><a xlink:href="classFileFd.xhtml" target="_top" xlink:title="FileFd">
<polygon fill="#ffffff" stroke="#000000" points="337,-472.5 337,-491.5 381,-491.5 381,-472.5 337,-472.5"/>
<text text-anchor="middle" x="359" y="-479.5" font-family="Helvetica,sans-Serif" font-size="10.00" fill="#000000">FileFd</text>
</a>
</g>
</g>
<!-- Node16&#45;&gt;Node24 -->
<g id="edge23" class="edge">
<title>Node16&#45;&gt;Node24</title>
<path fill="none" stroke="#9a32cd" stroke-dasharray="5,2" d="M191.937,-268.787C228.0504,-314.8765 323.7694,-437.0372 351.4209,-472.3272"/>
<polygon fill="#9a32cd" stroke="#9a32cd" points="194.4696,-266.3445 185.5469,-260.6317 188.9596,-270.6619 194.4696,-266.3445"/>
<text text-anchor="middle" x="268.5" y="-440" font-family="Helvetica,sans-Serif" font-size="10.00" fill="#000000"> TemporaryFileName</text>
<text text-anchor="middle" x="268.5" y="-429" font-family="Helvetica,sans-Serif" font-size="10.00" fill="#000000">FileName</text>
</g>
<!-- Node17 -->
<g id="node15" class="node">
<title>Node17</title>
<g id="a_node15"><a xlink:title="STL class. ">
<polygon fill="#ffffff" stroke="#bfbfbf" points="0,-241.5 0,-260.5 119,-260.5 119,-241.5 0,-241.5"/>
<text text-anchor="middle" x="59.5" y="-248.5" font-family="Helvetica,sans-Serif" font-size="10.00" fill="#000000">basic_string&lt; char &gt;</text>
</a>
</g>
</g>
<!-- Node17&#45;&gt;Node16 -->
<g id="edge14" class="edge">
<title>Node17&#45;&gt;Node16</title>
<path fill="none" stroke="#191970" d="M129.2118,-251C138.8284,-251 148.0652,-251 155.8653,-251"/>
<polygon fill="#191970" stroke="#191970" points="129.0972,-247.5001 119.0972,-251 129.0971,-254.5001 129.0972,-247.5001"/>
</g>
<!-- Node18 -->
<g id="node16" class="node">
<title>Node18</title>
<g id="a_node16"><a xlink:href="structpkgCache_1_1Group.xhtml" target="_top" xlink:title="groups architecture depending packages together ">
<polygon fill="#ffffff" stroke="#000000" points="505,-187.5 505,-206.5 551,-206.5 551,-187.5 505,-187.5"/>
<text text-anchor="middle" x="528" y="-194.5" font-family="Helvetica,sans-Serif" font-size="10.00" fill="#000000">Group</text>
</a>
</g>
</g>
<!-- Node18&#45;&gt;Node6 -->
<g id="edge15" class="edge">
<title>Node18&#45;&gt;Node6</title>
<path fill="none" stroke="#9a32cd" stroke-dasharray="5,2" d="M561.6639,-194.5077C589.0784,-193.8169 628.1522,-195.9507 659,-210 695.2669,-226.5173 726.071,-264.3837 739.2063,-282.2845"/>
<polygon fill="#9a32cd" stroke="#9a32cd" points="561.2642,-191.0206 551.4094,-194.9108 561.5392,-198.0152 561.2642,-191.0206"/>
<text text-anchor="middle" x="633" y="-213" font-family="Helvetica,sans-Serif" font-size="10.00" fill="#000000"> GrpP</text>
</g>
<!-- Node19 -->
<g id="node17" class="node">
<title>Node19</title>
<g id="a_node17"><a xlink:href="classpkgVersioningSystem.xhtml" target="_top" xlink:title="pkgVersioningSystem">
<polygon fill="#ffffff" stroke="#000000" points="467,-120.5 467,-139.5 589,-139.5 589,-120.5 467,-120.5"/>
<text text-anchor="middle" x="528" y="-127.5" font-family="Helvetica,sans-Serif" font-size="10.00" fill="#000000">pkgVersioningSystem</text>
</a>
</g>
</g>
<!-- Node19&#45;&gt;Node6 -->
<g id="edge16" class="edge">
<title>Node19&#45;&gt;Node6</title>
<path fill="none" stroke="#9a32cd" stroke-dasharray="5,2" d="M577.6589,-142.4532C603.5858,-150.5816 634.8477,-163.0685 659,-181 698.1213,-210.0449 728.9921,-261.0073 740.7998,-282.2616"/>
<polygon fill="#9a32cd" stroke="#9a32cd" points="578.5937,-139.0795 568.0093,-139.549 576.5763,-145.7825 578.5937,-139.0795"/>
<text text-anchor="middle" x="633" y="-184" font-family="Helvetica,sans-Serif" font-size="10.00" fill="#000000"> VS</text>
</g>
<!-- Node19&#45;&gt;Node19 -->
<g id="edge17" class="edge">
<title>Node19&#45;&gt;Node19</title>
<path fill="none" stroke="#9a32cd" stroke-dasharray="5,2" d="M508.7417,-149.4C510.0278,-154.3146 516.4473,-158 528,-158 546.4844,-158 551.8275,-148.5653 544.0294,-139.7571"/>
<polygon fill="#9a32cd" stroke="#9a32cd" points="512.1142,-150.3509 511.9706,-139.7571 505.4765,-148.1283 512.1142,-150.3509"/>
<text text-anchor="middle" x="528" y="-161" font-family="Helvetica,sans-Serif" font-size="10.00" fill="#000000"> GlobalList</text>
</g>
<!-- Node20 -->
<g id="node18" class="node">
<title>Node20</title>
<g id="a_node18"><a xlink:href="structpkgCache_1_1Version.xhtml" target="_top" xlink:title="information for a single version of a package ">
<polygon fill="#ffffff" stroke="#000000" points="501.5,-82.5 501.5,-101.5 554.5,-101.5 554.5,-82.5 501.5,-82.5"/>
<text text-anchor="middle" x="528" y="-89.5" font-family="Helvetica,sans-Serif" font-size="10.00" fill="#000000">Version</text>
</a>
</g>
</g>
<!-- Node20&#45;&gt;Node6 -->
<g id="edge18" class="edge">
<title>Node20&#45;&gt;Node6</title>
<path fill="none" stroke="#9a32cd" stroke-dasharray="5,2" d="M564.725,-97.379C593.2317,-103.1893 632.2726,-114.9178 659,-138 707.3402,-179.7472 734.5612,-255.3193 743.0696,-282.1911"/>
<polygon fill="#9a32cd" stroke="#9a32cd" points="565.217,-93.9102 554.7415,-95.4961 563.9196,-100.7889 565.217,-93.9102"/>
<text text-anchor="middle" x="633" y="-141" font-family="Helvetica,sans-Serif" font-size="10.00" fill="#000000"> VerP</text>
</g>
<!-- Node21 -->
<g id="node19" class="node">
<title>Node21</title>
<g id="a_node19"><a xlink:href="structpkgCache_1_1VerFile.xhtml" target="_top" xlink:title="associates a version with a PackageFile ">
<polygon fill="#ffffff" stroke="#000000" points="503.5,-44.5 503.5,-63.5 552.5,-63.5 552.5,-44.5 503.5,-44.5"/>
<text text-anchor="middle" x="528" y="-51.5" font-family="Helvetica,sans-Serif" font-size="10.00" fill="#000000">VerFile</text>
</a>
</g>
</g>
<!-- Node21&#45;&gt;Node6 -->
<g id="edge19" class="edge">
<title>Node21&#45;&gt;Node6</title>
<path fill="none" stroke="#9a32cd" stroke-dasharray="5,2" d="M562.8157,-57.2341C591.7434,-61.6096 632.3386,-71.8869 659,-96 718.0888,-149.4411 739.1834,-250.4985 744.5146,-282.2195"/>
<polygon fill="#9a32cd" stroke="#9a32cd" points="563.1116,-53.7424 552.7335,-55.8745 562.176,-60.6796 563.1116,-53.7424"/>
<text text-anchor="middle" x="633" y="-99" font-family="Helvetica,sans-Serif" font-size="10.00" fill="#000000"> VerFileP</text>
</g>
<!-- Node22 -->
<g id="node20" class="node">
<title>Node22</title>
<g id="a_node20"><a xlink:href="structpkgCache_1_1Package.xhtml" target="_top" xlink:title="contains information for a single unique package ">
<polygon fill="#ffffff" stroke="#000000" points="499.5,-567.5 499.5,-586.5 556.5,-586.5 556.5,-567.5 499.5,-567.5"/>
<text text-anchor="middle" x="528" y="-574.5" font-family="Helvetica,sans-Serif" font-size="10.00" fill="#000000">Package</text>
</a>
</g>
</g>
<!-- Node22&#45;&gt;Node6 -->
<g id="edge20" class="edge">
<title>Node22&#45;&gt;Node6</title>
<path fill="none" stroke="#9a32cd" stroke-dasharray="5,2" d="M566.6074,-581.0722C596.4275,-581.8782 636.3165,-577.4215 659,-552 694.6081,-512.0938 643.2968,-353.5276 677,-312 685.8027,-301.1537 700.1101,-295.9698 713.4207,-293.5697"/>
<polygon fill="#9a32cd" stroke="#9a32cd" points="566.6791,-577.5717 556.5243,-580.5933 566.347,-584.5638 566.6791,-577.5717"/>
<text text-anchor="middle" x="633" y="-580" font-family="Helvetica,sans-Serif" font-size="10.00" fill="#000000"> PkgP</text>
</g>
<!-- Node23 -->
<g id="node21" class="node">
<title>Node23</title>
<g id="a_node21"><a xlink:href="classMMap.xhtml" target="_top" xlink:title="MMap">
<polygon fill="#ffffff" stroke="#000000" points="505.5,-529.5 505.5,-548.5 550.5,-548.5 550.5,-529.5 505.5,-529.5"/>
<text text-anchor="middle" x="528" y="-536.5" font-family="Helvetica,sans-Serif" font-size="10.00" fill="#000000">MMap</text>
</a>
</g>
</g>
<!-- Node23&#45;&gt;Node6 -->
<g id="edge21" class="edge">
<title>Node23&#45;&gt;Node6</title>
<path fill="none" stroke="#9a32cd" stroke-dasharray="5,2" d="M560.7608,-541.9359C591.0026,-542.6647 634.7825,-538.3231 659,-511 688.4522,-477.7709 648.7552,-346.2613 677,-312 685.8857,-301.2216 700.2034,-296.0461 713.4994,-293.6341"/>
<polygon fill="#9a32cd" stroke="#9a32cd" points="560.8259,-538.4355 550.6827,-541.4961 560.5206,-545.4289 560.8259,-538.4355"/>
<text text-anchor="middle" x="633" y="-540" font-family="Helvetica,sans-Serif" font-size="10.00" fill="#000000"> Map</text>
</g>
<!-- Node24&#45;&gt;Node23 -->
<g id="edge22" class="edge">
<title>Node24&#45;&gt;Node23</title>
<path fill="none" stroke="#9a32cd" stroke-dasharray="5,2" d="M390.842,-493.5459C412.295,-501.2403 441.2659,-511.4681 467,-520 479.6342,-524.1888 493.8272,-528.6254 505.3415,-532.1571"/>
<polygon fill="#9a32cd" stroke="#9a32cd" points="391.8523,-490.1898 381.2578,-490.0976 389.4824,-496.7765 391.8523,-490.1898"/>
<text text-anchor="middle" x="424" y="-515" font-family="Helvetica,sans-Serif" font-size="10.00" fill="#000000"> SyncToFd</text>
</g>
</g>
</svg>
        <g id="navigator" transform="translate(0 0)" fill="#404254">
                <rect fill="#f2f5e9" fill-opacity="0.5" stroke="#606060" stroke-width=".5" x="0" y="0" width="60" height="60"/>
                <use id="zoomplus" xlink:href="#zoomPlus" x="17" y="9" onmousedown="handleZoom(evt,'in')"/>
                <use id="zoomminus" xlink:href="#zoomMin" x="42" y="9" onmousedown="handleZoom(evt,'out')"/>
                <use id="reset" xlink:href="#resetDef" x="30" y="36" onmousedown="handleReset()"/>
                <g id="arrowUp" xlink:href="#dirArrow" transform="translate(30 24)" onmousedown="handlePan(0,-1)">
                  <use xlink:href="#rim" fill="#404040">
                        <set attributeName="fill" to="#808080" begin="arrowUp.mouseover" end="arrowUp.mouseout"/>
                  </use>
                  <path fill="none" stroke="white" stroke-width="1.5" d="M0,-3.0v7 M-2.5,-0.5L0,-3.0L2.5,-0.5"/>
                </g>
                <g id="arrowRight" xlink:href="#dirArrow" transform="rotate(90) translate(36 -43)" onmousedown="handlePan(1,0)">
                  <use xlink:href="#rim" fill="#404040">
                        <set attributeName="fill" to="#808080" begin="arrowRight.mouseover" end="arrowRight.mouseout"/>
                  </use>
                  <path fill="none" stroke="white" stroke-width="1.5" d="M0,-3.0v7 M-2.5,-0.5L0,-3.0L2.5,-0.5"/>
                </g>
                <g id="arrowDown" xlink:href="#dirArrow" transform="rotate(180) translate(-30 -48)" onmousedown="handlePan(0,1)">
                  <use xlink:href="#rim" fill="#404040">
                        <set attributeName="fill" to="#808080" begin="arrowDown.mouseover" end="arrowDown.mouseout"/>
                  </use>
                  <path fill="none" stroke="white" stroke-width="1.5" d="M0,-3.0v7 M-2.5,-0.5L0,-3.0L2.5,-0.5"/>
                </g>
                <g id="arrowLeft" xlink:href="#dirArrow" transform="rotate(270) translate(-36 17)" onmousedown="handlePan(-1,0)">
                  <use xlink:href="#rim" fill="#404040">
                        <set attributeName="fill" to="#808080" begin="arrowLeft.mouseover" end="arrowLeft.mouseout"/>
                  </use>
                  <path fill="none" stroke="white" stroke-width="1.5" d="M0,-3.0v7 M-2.5,-0.5L0,-3.0L2.5,-0.5"/>
                </g>
        </g>
        <svg viewBox="0 0 15 15" width="100%" height="30px" preserveAspectRatio="xMaxYMin meet">
         <g id="arrow_out" transform="scale(0.3 0.3)">
          <a xlink:href="classpkgCache_1_1PrvIterator__coll__graph_org.svg" target="_base">
           <rect id="button" ry="5" rx="5" y="6" x="6" height="38" width="38"
                fill="#f2f5e9" fill-opacity="0.5" stroke="#606060" stroke-width="1.0"/>
           <path id="arrow"
             d="M 11.500037,31.436501 C 11.940474,20.09759 22.043105,11.32322 32.158766,21.979434 L 37.068811,17.246167 C 37.068811,17.246167 37.088388,32 37.088388,32 L 22.160133,31.978069 C 22.160133,31.978069 26.997745,27.140456 26.997745,27.140456 C 18.528582,18.264221 13.291696,25.230495 11.500037,31.436501 z"
             style="fill:#404040;"/>
          </a>
         </g>
        </svg>
</svg>
