<?xml version="1.0" encoding="UTF-8" standalone="no"?>
<!DOCTYPE svg PUBLIC "-//W3C//DTD SVG 1.1//EN"
 "http://www.w3.org/Graphics/SVG/1.1/DTD/svg11.dtd">
<!-- Generated by graphviz version 2.40.1 (20161225.0304)
 -->
<!-- Title: pkgSystem Pages: 1 -->
<svg width="230pt" height="140pt"
 viewBox="0.00 0.00 229.50 140.00" xmlns="http://www.w3.org/2000/svg" xmlns:xlink="http://www.w3.org/1999/xlink">
<g id="graph0" class="graph" transform="scale(1 1) rotate(0) translate(4 136)">
<title>pkgSystem</title>
<polygon fill="#ffffff" stroke="transparent" points="-4,4 -4,-136 225.5,-136 225.5,4 -4,4"/>
<!-- Node0 -->
<g id="node1" class="node">
<title>Node0</title>
<polygon fill="#bfbfbf" stroke="#000000" points="51,-112.5 51,-131.5 122,-131.5 122,-112.5 51,-112.5"/>
<text text-anchor="middle" x="86.5" y="-119.5" font-family="Helvetica,sans-Serif" font-size="10.00" fill="#000000">pkgSystem</text>
</g>
<!-- Node1 -->
<g id="node2" class="node">
<title>Node1</title>
<g id="a_node2"><a xlink:href="classdebSystem.xhtml" target="_top" xlink:title="debSystem">
<polygon fill="#ffffff" stroke="#000000" points="0,-56.5 0,-75.5 71,-75.5 71,-56.5 0,-56.5"/>
<text text-anchor="middle" x="35.5" y="-63.5" font-family="Helvetica,sans-Serif" font-size="10.00" fill="#000000">debSystem</text>
</a>
</g>
</g>
<!-- Node0&#45;&gt;Node1 -->
<g id="edge1" class="edge">
<title>Node0&#45;&gt;Node1</title>
<path fill="none" stroke="#191970" d="M70.8251,-104.7884C62.1006,-95.2085 51.5646,-83.6396 44.2817,-75.6427"/>
<polygon fill="#191970" stroke="#191970" points="68.2954,-107.2088 77.6165,-112.2455 73.4709,-102.4954 68.2954,-107.2088"/>
</g>
<!-- Node2 -->
<g id="node3" class="node">
<title>Node2</title>
<g id="a_node3"><a xlink:href="classedspLikeSystem.xhtml" target="_top" xlink:title="edspLikeSystem">
<polygon fill="#ffffff" stroke="#000000" points="89,-56.5 89,-75.5 186,-75.5 186,-56.5 89,-56.5"/>
<text text-anchor="middle" x="137.5" y="-63.5" font-family="Helvetica,sans-Serif" font-size="10.00" fill="#000000">edspLikeSystem</text>
</a>
</g>
</g>
<!-- Node0&#45;&gt;Node2 -->
<g id="edge2" class="edge">
<title>Node0&#45;&gt;Node2</title>
<path fill="none" stroke="#191970" d="M102.1749,-104.7884C110.8994,-95.2085 121.4354,-83.6396 128.7183,-75.6427"/>
<polygon fill="#191970" stroke="#191970" points="99.5291,-102.4954 95.3835,-112.2455 104.7046,-107.2088 99.5291,-102.4954"/>
</g>
<!-- Node3 -->
<g id="node4" class="node">
<title>Node3</title>
<g id="a_node4"><a xlink:href="classedspSystem.xhtml" target="_top" xlink:title="edspSystem">
<polygon fill="#ffffff" stroke="#000000" points="52,-.5 52,-19.5 129,-19.5 129,-.5 52,-.5"/>
<text text-anchor="middle" x="90.5" y="-7.5" font-family="Helvetica,sans-Serif" font-size="10.00" fill="#000000">edspSystem</text>
</a>
</g>
</g>
<!-- Node2&#45;&gt;Node3 -->
<g id="edge3" class="edge">
<title>Node2&#45;&gt;Node3</title>
<path fill="none" stroke="#191970" d="M122.8128,-48.5004C114.8204,-38.9775 105.2375,-27.5596 98.593,-19.6427"/>
<polygon fill="#191970" stroke="#191970" points="120.2036,-50.8358 129.3132,-56.2455 125.5654,-46.3357 120.2036,-50.8358"/>
</g>
<!-- Node4 -->
<g id="node5" class="node">
<title>Node4</title>
<g id="a_node5"><a xlink:href="classeippSystem.xhtml" target="_top" xlink:title="eippSystem">
<polygon fill="#ffffff" stroke="#000000" points="147.5,-.5 147.5,-19.5 221.5,-19.5 221.5,-.5 147.5,-.5"/>
<text text-anchor="middle" x="184.5" y="-7.5" font-family="Helvetica,sans-Serif" font-size="10.00" fill="#000000">eippSystem</text>
</a>
</g>
</g>
<!-- Node2&#45;&gt;Node4 -->
<g id="edge4" class="edge">
<title>Node2&#45;&gt;Node4</title>
<path fill="none" stroke="#191970" d="M152.1872,-48.5004C160.1796,-38.9775 169.7625,-27.5596 176.407,-19.6427"/>
<polygon fill="#191970" stroke="#191970" points="149.4346,-46.3357 145.6868,-56.2455 154.7964,-50.8358 149.4346,-46.3357"/>
</g>
</g>
</svg>
