<?xml version="1.0" encoding="UTF-8" standalone="no"?>
<!DOCTYPE svg PUBLIC "-//W3C//DTD SVG 1.1//EN"
 "http://www.w3.org/Graphics/SVG/1.1/DTD/svg11.dtd">
<!-- Generated by graphviz version 2.40.1 (20161225.0304)
 -->
<!-- Title: Container_iterator_base&lt; Interface, Master, iterator_type, container_iterator, container_value &gt; Pages: 1 -->
<svg width="410pt" height="100pt"
 viewBox="0.00 0.00 410.00 99.50" xmlns="http://www.w3.org/2000/svg" xmlns:xlink="http://www.w3.org/1999/xlink">
<g id="graph0" class="graph" transform="scale(1 1) rotate(0) translate(4 95.5)">
<title>Container_iterator_base&lt; Interface, Master, iterator_type, container_iterator, container_value &gt;</title>
<polygon fill="#ffffff" stroke="transparent" points="-4,4 -4,-95.5 406,-95.5 406,4 -4,4"/>
<!-- Node0 -->
<g id="node1" class="node">
<title>Node0</title>
<polygon fill="#bfbfbf" stroke="#000000" points="249,-16.5 249,-68.5 402,-68.5 402,-16.5 249,-16.5"/>
<text text-anchor="start" x="257" y="-56.5" font-family="Helvetica,sans-Serif" font-size="10.00" fill="#000000">Container_iterator</text>
<text text-anchor="start" x="257" y="-45.5" font-family="Helvetica,sans-Serif" font-size="10.00" fill="#000000">_base&lt; Interface, Master,</text>
<text text-anchor="start" x="257" y="-34.5" font-family="Helvetica,sans-Serif" font-size="10.00" fill="#000000"> iterator_type, container</text>
<text text-anchor="middle" x="325.5" y="-23.5" font-family="Helvetica,sans-Serif" font-size="10.00" fill="#000000">_iterator, container_value &gt;</text>
</g>
<!-- Node1 -->
<g id="node2" class="node">
<title>Node1</title>
<polygon fill="#ffffff" stroke="#bfbfbf" points="0,-50 0,-91 213,-91 213,-50 0,-50"/>
<text text-anchor="start" x="8" y="-79" font-family="Helvetica,sans-Serif" font-size="10.00" fill="#000000">iterator&lt; std::iterator</text>
<text text-anchor="start" x="8" y="-68" font-family="Helvetica,sans-Serif" font-size="10.00" fill="#000000">_traits&lt; container_iterator</text>
<text text-anchor="middle" x="106.5" y="-57" font-family="Helvetica,sans-Serif" font-size="10.00" fill="#000000"> &gt;::iterator_category, container_value &gt;</text>
</g>
<!-- Node1&#45;&gt;Node0 -->
<g id="edge1" class="edge">
<title>Node1&#45;&gt;Node0</title>
<path fill="none" stroke="#191970" d="M223.299,-55.5668C231.9631,-54.4591 240.566,-53.3591 248.8894,-52.295"/>
<polygon fill="#191970" stroke="#191970" points="222.5884,-52.1291 213.1131,-56.8691 223.4763,-59.0725 222.5884,-52.1291"/>
</g>
<!-- Node2 -->
<g id="node3" class="node">
<title>Node2</title>
<polygon fill="#ffffff" stroke="#bfbfbf" points="42.5,-.5 42.5,-30.5 170.5,-30.5 170.5,-.5 42.5,-.5"/>
<text text-anchor="start" x="50.5" y="-18.5" font-family="Helvetica,sans-Serif" font-size="10.00" fill="#000000">template iterator_base</text>
<text text-anchor="middle" x="106.5" y="-7.5" font-family="Helvetica,sans-Serif" font-size="10.00" fill="#000000">&lt; iterator_type &gt;</text>
</g>
<!-- Node2&#45;&gt;Node0 -->
<g id="edge2" class="edge">
<title>Node2&#45;&gt;Node0</title>
<path fill="none" stroke="#191970" d="M180.6625,-24.6433C202.6438,-27.3533 226.7531,-30.3257 248.8864,-33.0545"/>
<polygon fill="#191970" stroke="#191970" points="181.0806,-21.1685 170.7275,-23.4185 180.224,-28.1159 181.0806,-21.1685"/>
</g>
</g>
</svg>
