<?xml version="1.0" encoding="UTF-8" standalone="no"?>
<!DOCTYPE svg PUBLIC "-//W3C//DTD SVG 1.1//EN"
 "http://www.w3.org/Graphics/SVG/1.1/DTD/svg11.dtd">
<!-- Generated by graphviz version 2.40.1 (20161225.0304)
 -->
<!-- Title: pkgSimulatePrivate Pages: 1 -->
<svg width="130pt" height="297pt"
 viewBox="0.00 0.00 130.00 297.00" xmlns="http://www.w3.org/2000/svg" xmlns:xlink="http://www.w3.org/1999/xlink">
<g id="graph0" class="graph" transform="scale(1 1) rotate(0) translate(4 293)">
<title>pkgSimulatePrivate</title>
<polygon fill="#ffffff" stroke="transparent" points="-4,4 -4,-293 126,-293 126,4 -4,4"/>
<!-- Node1 -->
<g id="node1" class="node">
<title>Node1</title>
<polygon fill="#bfbfbf" stroke="#000000" points="4.5,-.5 4.5,-19.5 117.5,-19.5 117.5,-.5 4.5,-.5"/>
<text text-anchor="middle" x="61" y="-7.5" font-family="Helvetica,sans-Serif" font-size="10.00" fill="#000000">pkgSimulatePrivate</text>
</g>
<!-- Node2 -->
<g id="node2" class="node">
<title>Node2</title>
<polygon fill="#ffffff" stroke="#bfbfbf" points="0,-67.5 0,-97.5 122,-97.5 122,-67.5 0,-67.5"/>
<text text-anchor="start" x="8" y="-85.5" font-family="Helvetica,sans-Serif" font-size="10.00" fill="#000000">vector&lt; pkgDPkgPM::</text>
<text text-anchor="middle" x="61" y="-74.5" font-family="Helvetica,sans-Serif" font-size="10.00" fill="#000000">Item &gt;</text>
</g>
<!-- Node2&#45;&gt;Node1 -->
<g id="edge1" class="edge">
<title>Node2&#45;&gt;Node1</title>
<path fill="none" stroke="#9a32cd" stroke-dasharray="5,2" d="M61,-57.305C61,-44.424 61,-29.4836 61,-19.8957"/>
<polygon fill="#9a32cd" stroke="#9a32cd" points="57.5001,-57.4779 61,-67.478 64.5001,-57.478 57.5001,-57.4779"/>
<text text-anchor="middle" x="71.5" y="-41" font-family="Helvetica,sans-Serif" font-size="10.00" fill="#000000"> List</text>
</g>
<!-- Node3 -->
<g id="node3" class="node">
<title>Node3</title>
<g id="a_node3"><a xlink:href="structpkgDPkgPM_1_1Item.xhtml" target="_top" xlink:title="Item">
<polygon fill="#ffffff" stroke="#000000" points="41.5,-145.5 41.5,-164.5 80.5,-164.5 80.5,-145.5 41.5,-145.5"/>
<text text-anchor="middle" x="61" y="-152.5" font-family="Helvetica,sans-Serif" font-size="10.00" fill="#000000">Item</text>
</a>
</g>
</g>
<!-- Node3&#45;&gt;Node2 -->
<g id="edge2" class="edge">
<title>Node3&#45;&gt;Node2</title>
<path fill="none" stroke="#9a32cd" stroke-dasharray="5,2" d="M61,-135.0177C61,-123.2164 61,-108.513 61,-97.668"/>
<polygon fill="#9a32cd" stroke="#9a32cd" points="57.5001,-135.2223 61,-145.2223 64.5001,-135.2224 57.5001,-135.2223"/>
<text text-anchor="middle" x="85.5" y="-119" font-family="Helvetica,sans-Serif" font-size="10.00" fill="#000000"> elements</text>
</g>
<!-- Node4 -->
<g id="node4" class="node">
<title>Node4</title>
<g id="a_node4"><a xlink:title="STL class. ">
<polygon fill="#ffffff" stroke="#bfbfbf" points="39,-212.5 39,-231.5 83,-231.5 83,-212.5 39,-212.5"/>
<text text-anchor="middle" x="61" y="-219.5" font-family="Helvetica,sans-Serif" font-size="10.00" fill="#000000">string</text>
</a>
</g>
</g>
<!-- Node4&#45;&gt;Node3 -->
<g id="edge3" class="edge">
<title>Node4&#45;&gt;Node3</title>
<path fill="none" stroke="#9a32cd" stroke-dasharray="5,2" d="M61,-202.1079C61,-189.714 61,-174.3263 61,-164.5817"/>
<polygon fill="#9a32cd" stroke="#9a32cd" points="57.5001,-202.4005 61,-212.4005 64.5001,-202.4006 57.5001,-202.4005"/>
<text text-anchor="middle" x="71" y="-186" font-family="Helvetica,sans-Serif" font-size="10.00" fill="#000000"> File</text>
</g>
<!-- Node5 -->
<g id="node5" class="node">
<title>Node5</title>
<g id="a_node5"><a xlink:title="STL class. ">
<polygon fill="#ffffff" stroke="#bfbfbf" points="1.5,-269.5 1.5,-288.5 120.5,-288.5 120.5,-269.5 1.5,-269.5"/>
<text text-anchor="middle" x="61" y="-276.5" font-family="Helvetica,sans-Serif" font-size="10.00" fill="#000000">basic_string&lt; char &gt;</text>
</a>
</g>
</g>
<!-- Node5&#45;&gt;Node4 -->
<g id="edge4" class="edge">
<title>Node5&#45;&gt;Node4</title>
<path fill="none" stroke="#191970" d="M61,-259.2342C61,-249.8491 61,-239.0651 61,-231.5265"/>
<polygon fill="#191970" stroke="#191970" points="57.5001,-259.3307 61,-269.3307 64.5001,-259.3308 57.5001,-259.3307"/>
</g>
</g>
</svg>
