<?xml version="1.0" encoding="UTF-8" standalone="no"?>
<!DOCTYPE svg PUBLIC "-//W3C//DTD SVG 1.1//EN"
 "http://www.w3.org/Graphics/SVG/1.1/DTD/svg11.dtd">
<!-- Generated by graphviz version 2.40.1 (20161225.0304)
 -->
<!-- Title: pkgTagFilePrivate Pages: 1 -->
<svg width="251pt" height="241pt"
 viewBox="0.00 0.00 250.50 241.00" xmlns="http://www.w3.org/2000/svg" xmlns:xlink="http://www.w3.org/1999/xlink">
<g id="graph0" class="graph" transform="scale(1 1) rotate(0) translate(4 237)">
<title>pkgTagFilePrivate</title>
<polygon fill="#ffffff" stroke="transparent" points="-4,4 -4,-237 246.5,-237 246.5,4 -4,4"/>
<!-- Node1 -->
<g id="node1" class="node">
<title>Node1</title>
<polygon fill="#bfbfbf" stroke="#000000" points="70.5,-.5 70.5,-19.5 172.5,-19.5 172.5,-.5 70.5,-.5"/>
<text text-anchor="middle" x="121.5" y="-7.5" font-family="Helvetica,sans-Serif" font-size="10.00" fill="#000000">pkgTagFilePrivate</text>
</g>
<!-- Node2 -->
<g id="node2" class="node">
<title>Node2</title>
<g id="a_node2"><a xlink:href="classFileFd.xhtml" target="_top" xlink:title="FileFd">
<polygon fill="#ffffff" stroke="#000000" points="47.5,-73 47.5,-92 91.5,-92 91.5,-73 47.5,-73"/>
<text text-anchor="middle" x="69.5" y="-80" font-family="Helvetica,sans-Serif" font-size="10.00" fill="#000000">FileFd</text>
</a>
</g>
</g>
<!-- Node2&#45;&gt;Node1 -->
<g id="edge1" class="edge">
<title>Node2&#45;&gt;Node1</title>
<path fill="none" stroke="#9a32cd" stroke-dasharray="5,2" d="M82.5921,-64.2466C92.7618,-50.0677 106.4617,-30.9668 114.5982,-19.6228"/>
<polygon fill="#9a32cd" stroke="#9a32cd" points="79.4972,-62.5564 76.513,-72.7223 85.1854,-66.6363 79.4972,-62.5564"/>
<text text-anchor="middle" x="108" y="-41" font-family="Helvetica,sans-Serif" font-size="10.00" fill="#000000"> Fd</text>
</g>
<!-- Node3 -->
<g id="node3" class="node">
<title>Node3</title>
<g id="a_node3"><a xlink:title="STL class. ">
<polygon fill="#ffffff" stroke="#bfbfbf" points="37.5,-156.5 37.5,-175.5 81.5,-175.5 81.5,-156.5 37.5,-156.5"/>
<text text-anchor="middle" x="59.5" y="-163.5" font-family="Helvetica,sans-Serif" font-size="10.00" fill="#000000">string</text>
</a>
</g>
</g>
<!-- Node3&#45;&gt;Node2 -->
<g id="edge2" class="edge">
<title>Node3&#45;&gt;Node2</title>
<path fill="none" stroke="#9a32cd" stroke-dasharray="5,2" d="M61.8452,-146.4172C63.884,-129.3939 66.752,-105.4456 68.3354,-92.224"/>
<polygon fill="#9a32cd" stroke="#9a32cd" points="58.3612,-146.0762 60.6471,-156.4215 65.3115,-146.9087 58.3612,-146.0762"/>
<text text-anchor="middle" x="116" y="-130" font-family="Helvetica,sans-Serif" font-size="10.00" fill="#000000"> TemporaryFileName</text>
<text text-anchor="middle" x="116" y="-119" font-family="Helvetica,sans-Serif" font-size="10.00" fill="#000000">FileName</text>
</g>
<!-- Node4 -->
<g id="node4" class="node">
<title>Node4</title>
<g id="a_node4"><a xlink:title="STL class. ">
<polygon fill="#ffffff" stroke="#bfbfbf" points="0,-213.5 0,-232.5 119,-232.5 119,-213.5 0,-213.5"/>
<text text-anchor="middle" x="59.5" y="-220.5" font-family="Helvetica,sans-Serif" font-size="10.00" fill="#000000">basic_string&lt; char &gt;</text>
</a>
</g>
</g>
<!-- Node4&#45;&gt;Node3 -->
<g id="edge3" class="edge">
<title>Node4&#45;&gt;Node3</title>
<path fill="none" stroke="#191970" d="M59.5,-203.2342C59.5,-193.8491 59.5,-183.0651 59.5,-175.5265"/>
<polygon fill="#191970" stroke="#191970" points="56.0001,-203.3307 59.5,-213.3307 63.0001,-203.3308 56.0001,-203.3307"/>
</g>
<!-- Node5 -->
<g id="node5" class="node">
<title>Node5</title>
<polygon fill="#ffffff" stroke="#bfbfbf" points="114.5,-67.5 114.5,-97.5 242.5,-97.5 242.5,-67.5 114.5,-67.5"/>
<text text-anchor="start" x="122.5" y="-85.5" font-family="Helvetica,sans-Serif" font-size="10.00" fill="#000000">list&lt; pkgTagFilePrivate</text>
<text text-anchor="middle" x="178.5" y="-74.5" font-family="Helvetica,sans-Serif" font-size="10.00" fill="#000000">::FileChunk &gt;</text>
</g>
<!-- Node5&#45;&gt;Node1 -->
<g id="edge4" class="edge">
<title>Node5&#45;&gt;Node1</title>
<path fill="none" stroke="#9a32cd" stroke-dasharray="5,2" d="M160.4956,-59.5997C149.9891,-46.2361 137.2705,-30.0589 129.28,-19.8957"/>
<polygon fill="#9a32cd" stroke="#9a32cd" points="157.7575,-61.7799 166.6896,-67.478 163.2604,-57.4534 157.7575,-61.7799"/>
<text text-anchor="middle" x="170.5" y="-41" font-family="Helvetica,sans-Serif" font-size="10.00" fill="#000000"> chunks</text>
</g>
<!-- Node6 -->
<g id="node6" class="node">
<title>Node6</title>
<g id="a_node6"><a xlink:href="structpkgTagFilePrivate_1_1FileChunk.xhtml" target="_top" xlink:title="FileChunk">
<polygon fill="#ffffff" stroke="#000000" points="151.5,-156.5 151.5,-175.5 215.5,-175.5 215.5,-156.5 151.5,-156.5"/>
<text text-anchor="middle" x="183.5" y="-163.5" font-family="Helvetica,sans-Serif" font-size="10.00" fill="#000000">FileChunk</text>
</a>
</g>
</g>
<!-- Node6&#45;&gt;Node5 -->
<g id="edge5" class="edge">
<title>Node6&#45;&gt;Node5</title>
<path fill="none" stroke="#9a32cd" stroke-dasharray="5,2" d="M182.3169,-146.2427C181.4248,-131.345 180.2197,-111.2186 179.404,-97.597"/>
<polygon fill="#9a32cd" stroke="#9a32cd" points="178.8349,-146.6486 182.9264,-156.4215 185.8224,-146.2301 178.8349,-146.6486"/>
<text text-anchor="middle" x="206" y="-124.5" font-family="Helvetica,sans-Serif" font-size="10.00" fill="#000000"> elements</text>
</g>
</g>
</svg>
