<?xml version="1.0" encoding="UTF-8" standalone="no"?>
<!DOCTYPE svg PUBLIC "-//W3C//DTD SVG 1.1//EN"
 "http://www.w3.org/Graphics/SVG/1.1/DTD/svg11.dtd">
<!-- Generated by graphviz version 2.40.1 (20161225.0304)
 -->
<!-- Title: PackageCopy Pages: 1 -->
<svg width="95pt" height="152pt"
 viewBox="0.00 0.00 95.00 152.00" xmlns="http://www.w3.org/2000/svg" xmlns:xlink="http://www.w3.org/1999/xlink">
<g id="graph0" class="graph" transform="scale(1 1) rotate(0) translate(4 148)">
<title>PackageCopy</title>
<polygon fill="#ffffff" stroke="transparent" points="-4,4 -4,-148 91,-148 91,4 -4,4"/>
<!-- Node2 -->
<g id="node1" class="node">
<title>Node2</title>
<polygon fill="#bfbfbf" stroke="#000000" points="2.5,-.5 2.5,-19.5 84.5,-19.5 84.5,-.5 2.5,-.5"/>
<text text-anchor="middle" x="43.5" y="-7.5" font-family="Helvetica,sans-Serif" font-size="10.00" fill="#000000">PackageCopy</text>
</g>
<!-- Node3 -->
<g id="node2" class="node">
<title>Node3</title>
<g id="a_node2"><a xlink:href="classIndexCopy.xhtml" target="_top" xlink:title="IndexCopy">
<polygon fill="#ffffff" stroke="#000000" points="9.5,-57.5 9.5,-76.5 77.5,-76.5 77.5,-57.5 9.5,-57.5"/>
<text text-anchor="middle" x="43.5" y="-64.5" font-family="Helvetica,sans-Serif" font-size="10.00" fill="#000000">IndexCopy</text>
</a>
</g>
</g>
<!-- Node3&#45;&gt;Node2 -->
<g id="edge1" class="edge">
<title>Node3&#45;&gt;Node2</title>
<path fill="none" stroke="#191970" d="M43.5,-47.2342C43.5,-37.8491 43.5,-27.0651 43.5,-19.5265"/>
<polygon fill="#191970" stroke="#191970" points="40.0001,-47.3307 43.5,-57.3307 47.0001,-47.3308 40.0001,-47.3307"/>
</g>
<!-- Node4 -->
<g id="node3" class="node">
<title>Node4</title>
<g id="a_node3"><a xlink:href="classpkgTagSection.xhtml" target="_top" xlink:title="pkgTagSection">
<polygon fill="#ffffff" stroke="#000000" points="0,-124.5 0,-143.5 87,-143.5 87,-124.5 0,-124.5"/>
<text text-anchor="middle" x="43.5" y="-131.5" font-family="Helvetica,sans-Serif" font-size="10.00" fill="#000000">pkgTagSection</text>
</a>
</g>
</g>
<!-- Node4&#45;&gt;Node3 -->
<g id="edge2" class="edge">
<title>Node4&#45;&gt;Node3</title>
<path fill="none" stroke="#9a32cd" stroke-dasharray="5,2" d="M43.5,-114.1079C43.5,-101.714 43.5,-86.3263 43.5,-76.5817"/>
<polygon fill="#9a32cd" stroke="#9a32cd" points="40.0001,-114.4005 43.5,-124.4005 47.0001,-114.4006 40.0001,-114.4005"/>
<text text-anchor="middle" x="63.5" y="-98" font-family="Helvetica,sans-Serif" font-size="10.00" fill="#000000"> Section</text>
</g>
</g>
</svg>
