<?xml version="1.0" encoding="UTF-8" standalone="no"?>
<!DOCTYPE svg PUBLIC "-//W3C//DTD SVG 1.1//EN"
 "http://www.w3.org/Graphics/SVG/1.1/DTD/svg11.dtd">
<!-- Generated by graphviz version 2.40.1 (20161225.0304)
 -->
<!-- Title: pkgAcqMethod Pages: 1 -->
<svg width="409pt" height="254pt"
 viewBox="0.00 0.00 409.00 254.00" xmlns="http://www.w3.org/2000/svg" xmlns:xlink="http://www.w3.org/1999/xlink">
<g id="graph0" class="graph" transform="scale(1 1) rotate(0) translate(4 250)">
<title>pkgAcqMethod</title>
<polygon fill="#ffffff" stroke="transparent" points="-4,4 -4,-250 405,-250 405,4 -4,4"/>
<!-- Node1 -->
<g id="node1" class="node">
<title>Node1</title>
<polygon fill="#bfbfbf" stroke="#000000" points="165,-.5 165,-19.5 254,-19.5 254,-.5 165,-.5"/>
<text text-anchor="middle" x="209.5" y="-7.5" font-family="Helvetica,sans-Serif" font-size="10.00" fill="#000000">pkgAcqMethod</text>
</g>
<!-- Node2 -->
<g id="node2" class="node">
<title>Node2</title>
<g id="a_node2"><a xlink:href="structpkgAcqMethod_1_1FetchItem.xhtml" target="_top" xlink:title="FetchItem">
<polygon fill="#ffffff" stroke="#000000" points="63,-85 63,-104 128,-104 128,-85 63,-85"/>
<text text-anchor="middle" x="95.5" y="-92" font-family="Helvetica,sans-Serif" font-size="10.00" fill="#000000">FetchItem</text>
</a>
</g>
</g>
<!-- Node2&#45;&gt;Node1 -->
<g id="edge1" class="edge">
<title>Node2&#45;&gt;Node1</title>
<path fill="none" stroke="#9a32cd" stroke-dasharray="5,2" d="M105.2566,-75.8574C112.466,-63.6472 123.3004,-48.1317 136.5,-38 147.0523,-29.9004 160.2233,-23.8987 172.4616,-19.5758"/>
<polygon fill="#9a32cd" stroke="#9a32cd" points="102.0964,-74.3379 100.276,-84.7751 108.2079,-77.7512 102.0964,-74.3379"/>
<text text-anchor="middle" x="166" y="-52" font-family="Helvetica,sans-Serif" font-size="10.00" fill="#000000"> QueueBack</text>
<text text-anchor="middle" x="166" y="-41" font-family="Helvetica,sans-Serif" font-size="10.00" fill="#000000">Queue</text>
</g>
<!-- Node2&#45;&gt;Node2 -->
<g id="edge3" class="edge">
<title>Node2&#45;&gt;Node2</title>
<path fill="none" stroke="#9a32cd" stroke-dasharray="5,2" d="M138.1447,-101.4658C142.9145,-100.152 146,-97.8301 146,-94.5 146,-89.1719 138.1012,-86.4246 128.0425,-86.2581"/>
<polygon fill="#9a32cd" stroke="#9a32cd" points="137.525,-98.0162 128.0425,-102.7419 138.4023,-104.961 137.525,-98.0162"/>
<text text-anchor="middle" x="159.5" y="-92" font-family="Helvetica,sans-Serif" font-size="10.00" fill="#000000"> Next</text>
</g>
<!-- Node3 -->
<g id="node3" class="node">
<title>Node3</title>
<g id="a_node3"><a xlink:href="classHashStringList.xhtml" target="_top" xlink:title="HashStringList">
<polygon fill="#ffffff" stroke="#000000" points="0,-169.5 0,-188.5 87,-188.5 87,-169.5 0,-169.5"/>
<text text-anchor="middle" x="43.5" y="-176.5" font-family="Helvetica,sans-Serif" font-size="10.00" fill="#000000">HashStringList</text>
</a>
</g>
</g>
<!-- Node3&#45;&gt;Node2 -->
<g id="edge2" class="edge">
<title>Node3&#45;&gt;Node2</title>
<path fill="none" stroke="#9a32cd" stroke-dasharray="5,2" d="M39.8155,-159.2043C39,-149.5492 39.5581,-138.0888 44.5,-129 50.5255,-117.9183 61.8319,-109.7225 72.2706,-104.1067"/>
<polygon fill="#9a32cd" stroke="#9a32cd" points="36.3474,-159.6765 41.1593,-169.1156 43.2839,-158.7359 36.3474,-159.6765"/>
<text text-anchor="middle" x="87" y="-137.5" font-family="Helvetica,sans-Serif" font-size="10.00" fill="#000000"> ExpectedHashes</text>
</g>
<!-- Node4 -->
<g id="node4" class="node">
<title>Node4</title>
<g id="a_node4"><a xlink:title="STL class. ">
<polygon fill="#ffffff" stroke="#bfbfbf" points="187.5,-169.5 187.5,-188.5 231.5,-188.5 231.5,-169.5 187.5,-169.5"/>
<text text-anchor="middle" x="209.5" y="-176.5" font-family="Helvetica,sans-Serif" font-size="10.00" fill="#000000">string</text>
</a>
</g>
</g>
<!-- Node4&#45;&gt;Node1 -->
<g id="edge6" class="edge">
<title>Node4&#45;&gt;Node1</title>
<path fill="none" stroke="#9a32cd" stroke-dasharray="5,2" d="M209.5,-159.1426C209.5,-122.8346 209.5,-46.9844 209.5,-19.8864"/>
<polygon fill="#9a32cd" stroke="#9a32cd" points="206.0001,-159.4296 209.5,-169.4296 213.0001,-159.4296 206.0001,-159.4296"/>
<text text-anchor="middle" x="236.5" y="-103" font-family="Helvetica,sans-Serif" font-size="10.00" fill="#000000"> IP</text>
<text text-anchor="middle" x="236.5" y="-92" font-family="Helvetica,sans-Serif" font-size="10.00" fill="#000000">UsedMirror</text>
<text text-anchor="middle" x="236.5" y="-81" font-family="Helvetica,sans-Serif" font-size="10.00" fill="#000000">FailReason</text>
</g>
<!-- Node4&#45;&gt;Node2 -->
<g id="edge4" class="edge">
<title>Node4&#45;&gt;Node2</title>
<path fill="none" stroke="#9a32cd" stroke-dasharray="5,2" d="M178.3234,-165.9403C169.6345,-161.7096 160.4145,-156.6359 152.5,-151 149.8469,-149.1108 120.6555,-119.8341 105.1122,-104.1893"/>
<polygon fill="#9a32cd" stroke="#9a32cd" points="176.913,-169.1443 187.4564,-170.187 179.8644,-162.7969 176.913,-169.1443"/>
<text text-anchor="middle" x="174" y="-143" font-family="Helvetica,sans-Serif" font-size="10.00" fill="#000000"> DestFile</text>
<text text-anchor="middle" x="174" y="-132" font-family="Helvetica,sans-Serif" font-size="10.00" fill="#000000">Uri</text>
</g>
<!-- Node6 -->
<g id="node6" class="node">
<title>Node6</title>
<polygon fill="#ffffff" stroke="#bfbfbf" points="282,-85 282,-104 401,-104 401,-85 282,-85"/>
<text text-anchor="middle" x="341.5" y="-92" font-family="Helvetica,sans-Serif" font-size="10.00" fill="#000000">vector&lt; std::string &gt;</text>
</g>
<!-- Node4&#45;&gt;Node6 -->
<g id="edge8" class="edge">
<title>Node4&#45;&gt;Node6</title>
<path fill="none" stroke="#9a32cd" stroke-dasharray="5,2" d="M232.8579,-164.0474C259.8864,-146.7451 303.5992,-118.7623 326.4664,-104.1238"/>
<polygon fill="#9a32cd" stroke="#9a32cd" points="230.9206,-161.1318 224.3855,-169.471 234.6947,-167.0273 230.9206,-161.1318"/>
<text text-anchor="middle" x="311" y="-137.5" font-family="Helvetica,sans-Serif" font-size="10.00" fill="#000000"> elements</text>
</g>
<!-- Node5 -->
<g id="node5" class="node">
<title>Node5</title>
<g id="a_node5"><a xlink:title="STL class. ">
<polygon fill="#ffffff" stroke="#bfbfbf" points="150,-226.5 150,-245.5 269,-245.5 269,-226.5 150,-226.5"/>
<text text-anchor="middle" x="209.5" y="-233.5" font-family="Helvetica,sans-Serif" font-size="10.00" fill="#000000">basic_string&lt; char &gt;</text>
</a>
</g>
</g>
<!-- Node5&#45;&gt;Node4 -->
<g id="edge5" class="edge">
<title>Node5&#45;&gt;Node4</title>
<path fill="none" stroke="#191970" d="M209.5,-216.2342C209.5,-206.8491 209.5,-196.0651 209.5,-188.5265"/>
<polygon fill="#191970" stroke="#191970" points="206.0001,-216.3307 209.5,-226.3307 213.0001,-216.3308 206.0001,-216.3307"/>
</g>
<!-- Node6&#45;&gt;Node1 -->
<g id="edge7" class="edge">
<title>Node6&#45;&gt;Node1</title>
<path fill="none" stroke="#9a32cd" stroke-dasharray="5,2" d="M318.1421,-79.5474C291.1136,-62.2451 247.4008,-34.2623 224.5336,-19.6238"/>
<polygon fill="#9a32cd" stroke="#9a32cd" points="316.3053,-82.5273 326.6145,-84.971 320.0794,-76.6318 316.3053,-82.5273"/>
<text text-anchor="middle" x="312.5" y="-46.5" font-family="Helvetica,sans-Serif" font-size="10.00" fill="#000000"> Messages</text>
</g>
</g>
</svg>
