<?xml version="1.0" encoding="UTF-8" standalone="no"?>
<!DOCTYPE svg PUBLIC "-//W3C//DTD SVG 1.1//EN"
 "http://www.w3.org/Graphics/SVG/1.1/DTD/svg11.dtd">
<!-- Generated by graphviz version 2.40.1 (20161225.0304)
 -->
<!-- Title: pkgAcqAuxFile Pages: 1 -->
<svg width="950pt" height="577pt"
 viewBox="0.00 0.00 949.50 577.00" xmlns="http://www.w3.org/2000/svg" xmlns:xlink="http://www.w3.org/1999/xlink">
<g id="graph0" class="graph" transform="scale(1 1) rotate(0) translate(4 573)">
<title>pkgAcqAuxFile</title>
<polygon fill="#ffffff" stroke="transparent" points="-4,4 -4,-573 945.5,-573 945.5,4 -4,4"/>
<!-- Node4 -->
<g id="node1" class="node">
<title>Node4</title>
<polygon fill="#bfbfbf" stroke="#000000" points="106.5,-203.5 106.5,-222.5 194.5,-222.5 194.5,-203.5 106.5,-203.5"/>
<text text-anchor="middle" x="150.5" y="-210.5" font-family="Helvetica,sans-Serif" font-size="10.00" fill="#000000">pkgAcqAuxFile</text>
</g>
<!-- Node5 -->
<g id="node2" class="node">
<title>Node5</title>
<g id="a_node2"><a xlink:href="classpkgAcqFile.xhtml" target="_top" xlink:title="Retrieve an arbitrary file to the current directory. {{{. ">
<polygon fill="#ffffff" stroke="#000000" points="118,-298 118,-317 187,-317 187,-298 118,-298"/>
<text text-anchor="middle" x="152.5" y="-305" font-family="Helvetica,sans-Serif" font-size="10.00" fill="#000000">pkgAcqFile</text>
</a>
</g>
</g>
<!-- Node5&#45;&gt;Node4 -->
<g id="edge1" class="edge">
<title>Node5&#45;&gt;Node4</title>
<path fill="none" stroke="#191970" d="M152.0783,-287.5734C151.6557,-267.608 151.0233,-237.7264 150.7024,-222.5634"/>
<polygon fill="#191970" stroke="#191970" points="148.5826,-287.8191 152.2935,-297.7428 155.581,-287.6709 148.5826,-287.8191"/>
</g>
<!-- Node6 -->
<g id="node3" class="node">
<title>Node6</title>
<g id="a_node3"><a xlink:href="classpkgAcquire_1_1Item.xhtml" target="_top" xlink:title="Represents the process by which a pkgAcquire object should retrieve a file or a collection of files...">
<polygon fill="#ffffff" stroke="#000000" points="184,-386 184,-405 223,-405 223,-386 184,-386"/>
<text text-anchor="middle" x="203.5" y="-393" font-family="Helvetica,sans-Serif" font-size="10.00" fill="#000000">Item</text>
</a>
</g>
</g>
<!-- Node6&#45;&gt;Node5 -->
<g id="edge2" class="edge">
<title>Node6&#45;&gt;Node5</title>
<path fill="none" stroke="#191970" d="M201.2659,-375.8075C199.3629,-364.9407 195.8711,-351.5514 189.5,-341 183.7667,-331.505 174.5167,-323.13 166.7001,-317.1288"/>
<polygon fill="#191970" stroke="#191970" points="197.8426,-376.5927 202.728,-385.994 204.7716,-375.5981 197.8426,-376.5927"/>
</g>
<!-- Node9 -->
<g id="node6" class="node">
<title>Node9</title>
<polygon fill="#ffffff" stroke="#bfbfbf" points="277,-292.5 277,-322.5 390,-322.5 390,-292.5 277,-292.5"/>
<text text-anchor="start" x="285" y="-310.5" font-family="Helvetica,sans-Serif" font-size="10.00" fill="#000000">vector&lt; pkgAcquire</text>
<text text-anchor="middle" x="333.5" y="-299.5" font-family="Helvetica,sans-Serif" font-size="10.00" fill="#000000">::Item *&gt;</text>
</g>
<!-- Node6&#45;&gt;Node9 -->
<g id="edge6" class="edge">
<title>Node6&#45;&gt;Node9</title>
<path fill="none" stroke="#9a32cd" stroke-dasharray="5,2" d="M226.084,-380.2124C249.9408,-364.0632 287.3293,-338.754 311.1118,-322.6551"/>
<polygon fill="#9a32cd" stroke="#9a32cd" points="223.9789,-377.4108 217.6598,-385.9149 227.9029,-383.2076 223.9789,-377.4108"/>
<text text-anchor="middle" x="308" y="-348.5" font-family="Helvetica,sans-Serif" font-size="10.00" fill="#000000"> elements</text>
</g>
<!-- Node12 -->
<g id="node9" class="node">
<title>Node12</title>
<g id="a_node9"><a xlink:href="structpkgAcquire_1_1ItemDesc.xhtml" target="_top" xlink:title="Represents a single download source from which an item should be downloaded. ">
<polygon fill="#ffffff" stroke="#000000" points="37,-298 37,-317 100,-317 100,-298 37,-298"/>
<text text-anchor="middle" x="68.5" y="-305" font-family="Helvetica,sans-Serif" font-size="10.00" fill="#000000">ItemDesc</text>
</a>
</g>
</g>
<!-- Node6&#45;&gt;Node12 -->
<g id="edge14" class="edge">
<title>Node6&#45;&gt;Node12</title>
<path fill="none" stroke="#9a32cd" stroke-dasharray="5,2" d="M174.3322,-385.4681C144.8807,-375.3341 103.6861,-361.145 103.5,-361 88.4401,-349.2674 77.8174,-329.1497 72.4677,-317.2107"/>
<polygon fill="#9a32cd" stroke="#9a32cd" points="173.1991,-388.7796 183.7937,-388.7233 175.4764,-382.1603 173.1991,-388.7796"/>
<text text-anchor="middle" x="121" y="-348.5" font-family="Helvetica,sans-Serif" font-size="10.00" fill="#000000"> Owner</text>
</g>
<!-- Node7 -->
<g id="node4" class="node">
<title>Node7</title>
<g id="a_node4"><a xlink:href="classWeakPointable.xhtml" target="_top" xlink:title="WeakPointable">
<polygon fill="#ffffff" stroke="#000000" points="0,-492.5 0,-511.5 89,-511.5 89,-492.5 0,-492.5"/>
<text text-anchor="middle" x="44.5" y="-499.5" font-family="Helvetica,sans-Serif" font-size="10.00" fill="#000000">WeakPointable</text>
</a>
</g>
</g>
<!-- Node7&#45;&gt;Node6 -->
<g id="edge3" class="edge">
<title>Node7&#45;&gt;Node6</title>
<path fill="none" stroke="#191970" d="M67.5237,-486.5784C100.8913,-464.2285 161.7041,-423.4954 189.2565,-405.0405"/>
<polygon fill="#191970" stroke="#191970" points="65.2513,-483.8879 58.8906,-492.361 69.1469,-489.7038 65.2513,-483.8879"/>
</g>
<!-- Node7&#45;&gt;Node12 -->
<g id="edge11" class="edge">
<title>Node7&#45;&gt;Node12</title>
<path fill="none" stroke="#191970" d="M44.9252,-482.3269C45.8725,-451.8128 48.9009,-391.3428 58.5,-341 60.0688,-332.7722 62.8521,-323.6803 65.0847,-317.0468"/>
<polygon fill="#191970" stroke="#191970" points="41.4226,-482.3816 44.6547,-492.4714 48.4201,-482.5683 41.4226,-482.3816"/>
</g>
<!-- Node15 -->
<g id="node12" class="node">
<title>Node15</title>
<g id="a_node12"><a xlink:href="classpkgAcquire_1_1Worker.xhtml" target="_top" xlink:title="A fetch subprocess. ">
<polygon fill="#ffffff" stroke="#000000" points="488,-68.5 488,-87.5 539,-87.5 539,-68.5 488,-68.5"/>
<text text-anchor="middle" x="513.5" y="-75.5" font-family="Helvetica,sans-Serif" font-size="10.00" fill="#000000">Worker</text>
</a>
</g>
</g>
<!-- Node7&#45;&gt;Node15 -->
<g id="edge18" class="edge">
<title>Node7&#45;&gt;Node15</title>
<path fill="none" stroke="#191970" d="M37.8821,-482.7336C25.9892,-444.9583 4.3052,-359.0097 27.5,-292 43.9611,-244.444 55.6217,-230.9061 97.5,-203 162.3772,-159.7683 192.624,-180.907 266.5,-156 322.261,-137.2004 333.3608,-124.6383 389.5,-107 422.8256,-96.5295 462.249,-87.9368 487.5489,-82.8925"/>
<polygon fill="#191970" stroke="#191970" points="34.6252,-484.0346 41.0652,-492.4475 41.2772,-481.8548 34.6252,-484.0346"/>
</g>
<!-- Node8 -->
<g id="node5" class="node">
<title>Node8</title>
<g id="a_node5"><a xlink:href="classpkgAcquire.xhtml" target="_top" xlink:title="The core download scheduler. {{{. ">
<polygon fill="#ffffff" stroke="#000000" points="443,-203.5 443,-222.5 514,-222.5 514,-203.5 443,-203.5"/>
<text text-anchor="middle" x="478.5" y="-210.5" font-family="Helvetica,sans-Serif" font-size="10.00" fill="#000000">pkgAcquire</text>
</a>
</g>
</g>
<!-- Node8&#45;&gt;Node6 -->
<g id="edge4" class="edge">
<title>Node8&#45;&gt;Node6</title>
<path fill="none" stroke="#9a32cd" stroke-dasharray="5,2" d="M432.9347,-222.3443C370.0813,-236.1005 261.364,-263.2931 233.5,-292 220.2743,-305.6258 209.1598,-362.7227 205.1245,-385.7803"/>
<polygon fill="#9a32cd" stroke="#9a32cd" points="433.948,-225.7063 442.9836,-220.1739 432.4701,-218.864 433.948,-225.7063"/>
<text text-anchor="middle" x="251" y="-305" font-family="Helvetica,sans-Serif" font-size="10.00" fill="#000000"> Owner</text>
</g>
<!-- Node10 -->
<g id="node7" class="node">
<title>Node10</title>
<g id="a_node7"><a xlink:href="classpkgAcquire_1_1Queue.xhtml" target="_top" xlink:title="A single download queue in a pkgAcquire object. {{{. ">
<polygon fill="#ffffff" stroke="#000000" points="376.5,-136.5 376.5,-155.5 424.5,-155.5 424.5,-136.5 376.5,-136.5"/>
<text text-anchor="middle" x="400.5" y="-143.5" font-family="Helvetica,sans-Serif" font-size="10.00" fill="#000000">Queue</text>
</a>
</g>
</g>
<!-- Node8&#45;&gt;Node10 -->
<g id="edge8" class="edge">
<title>Node8&#45;&gt;Node10</title>
<path fill="none" stroke="#9a32cd" stroke-dasharray="5,2" d="M465.7687,-194.9654C460.3102,-187.9489 453.5666,-180.1385 446.5,-174 438.3126,-166.8879 428.1002,-160.4721 419.379,-155.5819"/>
<polygon fill="#9a32cd" stroke="#9a32cd" points="463.1478,-197.3063 471.9233,-203.2426 468.7651,-193.1295 463.1478,-197.3063"/>
<text text-anchor="middle" x="474" y="-177" font-family="Helvetica,sans-Serif" font-size="10.00" fill="#000000"> Owner</text>
</g>
<!-- Node9&#45;&gt;Node8 -->
<g id="edge5" class="edge">
<title>Node9&#45;&gt;Node8</title>
<path fill="none" stroke="#9a32cd" stroke-dasharray="5,2" d="M386.6233,-288.2029C395.2679,-284.0855 403.877,-279.3409 411.5,-274 427.9806,-262.4532 427.624,-254.5515 442.5,-241 449.641,-234.4948 458.1518,-227.8307 465.1049,-222.6366"/>
<polygon fill="#9a32cd" stroke="#9a32cd" points="384.9485,-285.1188 377.274,-292.4231 387.8285,-291.4989 384.9485,-285.1188"/>
<text text-anchor="middle" x="458" y="-255" font-family="Helvetica,sans-Serif" font-size="10.00" fill="#000000"> Items</text>
</g>
<!-- Node11 -->
<g id="node8" class="node">
<title>Node11</title>
<g id="a_node8"><a xlink:href="structpkgAcquire_1_1Queue_1_1QItem.xhtml" target="_top" xlink:title="A single item placed in this queue. ">
<polygon fill="#ffffff" stroke="#000000" points="338,-.5 338,-19.5 385,-19.5 385,-.5 338,-.5"/>
<text text-anchor="middle" x="361.5" y="-7.5" font-family="Helvetica,sans-Serif" font-size="10.00" fill="#000000">QItem</text>
</a>
</g>
</g>
<!-- Node9&#45;&gt;Node11 -->
<g id="edge15" class="edge">
<title>Node9&#45;&gt;Node11</title>
<path fill="none" stroke="#9a32cd" stroke-dasharray="5,2" d="M284.329,-287.9537C254.6385,-272.5684 222.5,-247.8627 222.5,-213 222.5,-213 222.5,-213 222.5,-78 222.5,-52.6127 298.2632,-27.6473 337.9205,-16.3184"/>
<polygon fill="#9a32cd" stroke="#9a32cd" points="282.9086,-291.1554 293.4265,-292.4301 285.9991,-284.8746 282.9086,-291.1554"/>
<text text-anchor="middle" x="242.5" y="-143.5" font-family="Helvetica,sans-Serif" font-size="10.00" fill="#000000"> Owners</text>
</g>
<!-- Node10&#45;&gt;Node8 -->
<g id="edge7" class="edge">
<title>Node10&#45;&gt;Node8</title>
<path fill="none" stroke="#9a32cd" stroke-dasharray="5,2" d="M399.7197,-166.1145C400.4091,-172.7286 402.2699,-179.729 406.5,-185 415.4821,-196.1923 429.5339,-202.9201 442.8484,-206.9601"/>
<polygon fill="#9a32cd" stroke="#9a32cd" points="403.2085,-165.6289 399.4538,-155.7217 396.2108,-165.808 403.2085,-165.6289"/>
<text text-anchor="middle" x="426.5" y="-177" font-family="Helvetica,sans-Serif" font-size="10.00" fill="#000000"> Queues</text>
</g>
<!-- Node10&#45;&gt;Node15 -->
<g id="edge19" class="edge">
<title>Node10&#45;&gt;Node15</title>
<path fill="none" stroke="#9a32cd" stroke-dasharray="5,2" d="M423.3649,-130.9212C434.7291,-123.5451 448.7302,-114.6336 461.5,-107 472.6792,-100.3172 485.4508,-93.1876 495.5391,-87.6699"/>
<polygon fill="#9a32cd" stroke="#9a32cd" points="421.3506,-128.0564 414.8903,-136.4537 425.1772,-133.9179 421.3506,-128.0564"/>
<text text-anchor="middle" x="483" y="-110" font-family="Helvetica,sans-Serif" font-size="10.00" fill="#000000"> OwnerQ</text>
</g>
<!-- Node11&#45;&gt;Node10 -->
<g id="edge9" class="edge">
<title>Node11&#45;&gt;Node10</title>
<path fill="none" stroke="#9a32cd" stroke-dasharray="5,2" d="M365.8383,-29.6346C370.8286,-51.4349 379.6163,-87.565 389.5,-118 391.5003,-124.1596 394.1436,-130.9214 396.3377,-136.2569"/>
<polygon fill="#9a32cd" stroke="#9a32cd" points="369.2006,-28.6336 363.5892,-19.6468 362.3716,-30.1714 369.2006,-28.6336"/>
<text text-anchor="middle" x="396" y="-75.5" font-family="Helvetica,sans-Serif" font-size="10.00" fill="#000000"> Items</text>
</g>
<!-- Node11&#45;&gt;Node11 -->
<g id="edge16" class="edge">
<title>Node11&#45;&gt;Node11</title>
<path fill="none" stroke="#9a32cd" stroke-dasharray="5,2" d="M395.5148,-15.294C400.0146,-14.3926 403,-12.6279 403,-10 403,-5.6875 394.9604,-3.6997 385.3819,-4.0366"/>
<polygon fill="#9a32cd" stroke="#9a32cd" points="395.1295,-11.8118 385.3819,-15.9634 395.5909,-18.7965 395.1295,-11.8118"/>
<text text-anchor="middle" x="416.5" y="-7.5" font-family="Helvetica,sans-Serif" font-size="10.00" fill="#000000"> Next</text>
</g>
<!-- Node11&#45;&gt;Node15 -->
<g id="edge24" class="edge">
<title>Node11&#45;&gt;Node15</title>
<path fill="none" stroke="#9a32cd" stroke-dasharray="5,2" d="M379.5193,-26.0783C389.067,-33.9081 401.3171,-42.9202 413.5,-49 437.4379,-60.946 467.1204,-68.772 487.9047,-73.2492"/>
<polygon fill="#9a32cd" stroke="#9a32cd" points="381.7829,-23.4087 371.8943,-19.6053 377.2527,-28.7452 381.7829,-23.4087"/>
<text text-anchor="middle" x="444.5" y="-41" font-family="Helvetica,sans-Serif" font-size="10.00" fill="#000000"> CurrentItem</text>
</g>
<!-- Node12&#45;&gt;Node6 -->
<g id="edge37" class="edge">
<title>Node12&#45;&gt;Node6</title>
<path fill="none" stroke="#9a32cd" stroke-dasharray="5,2" d="M103.4991,-321.2139C115.1497,-326.5533 127.8587,-333.2625 138.5,-341 148.4163,-348.2103 148.3414,-352.8488 157.5,-361 167.6415,-370.026 179.9901,-379.1987 189.3385,-385.8148"/>
<polygon fill="#9a32cd" stroke="#9a32cd" points="104.5937,-317.8721 94.0301,-317.0585 101.7806,-324.2821 104.5937,-317.8721"/>
<text text-anchor="middle" x="171.5" y="-348.5" font-family="Helvetica,sans-Serif" font-size="10.00" fill="#000000"> Desc</text>
</g>
<!-- Node12&#45;&gt;Node11 -->
<g id="edge10" class="edge">
<title>Node12&#45;&gt;Node11</title>
<path fill="none" stroke="#191970" d="M70.4894,-287.7051C72.236,-268.601 74.5,-238.8514 74.5,-213 74.5,-213 74.5,-213 74.5,-78 74.5,-24.1058 268.5467,-12.8661 337.5242,-10.5732"/>
<polygon fill="#191970" stroke="#191970" points="66.9869,-287.5659 69.5178,-297.854 73.955,-288.2331 66.9869,-287.5659"/>
</g>
<!-- Node13 -->
<g id="node10" class="node">
<title>Node13</title>
<g id="a_node10"><a xlink:title="STL class. ">
<polygon fill="#ffffff" stroke="#bfbfbf" points="465.5,-492.5 465.5,-511.5 509.5,-511.5 509.5,-492.5 465.5,-492.5"/>
<text text-anchor="middle" x="487.5" y="-499.5" font-family="Helvetica,sans-Serif" font-size="10.00" fill="#000000">string</text>
</a>
</g>
</g>
<!-- Node13&#45;&gt;Node6 -->
<g id="edge36" class="edge">
<title>Node13&#45;&gt;Node6</title>
<path fill="none" stroke="#9a32cd" stroke-dasharray="5,2" d="M455.0752,-500.451C421.015,-497.9278 366.4021,-491.3123 322.5,-474 278.7536,-456.7491 234.393,-421.8639 214.4273,-405.0228"/>
<polygon fill="#9a32cd" stroke="#9a32cd" points="455.1619,-503.9644 465.3719,-501.1348 455.6258,-496.9797 455.1619,-503.9644"/>
<text text-anchor="middle" x="367.5" y="-466" font-family="Helvetica,sans-Serif" font-size="10.00" fill="#000000"> ActiveSubprocess</text>
<text text-anchor="middle" x="367.5" y="-455" font-family="Helvetica,sans-Serif" font-size="10.00" fill="#000000">DestFile</text>
<text text-anchor="middle" x="367.5" y="-444" font-family="Helvetica,sans-Serif" font-size="10.00" fill="#000000">ErrorText</text>
<text text-anchor="middle" x="367.5" y="-433" font-family="Helvetica,sans-Serif" font-size="10.00" fill="#000000">UsedMirror</text>
</g>
<!-- Node13&#45;&gt;Node8 -->
<g id="edge33" class="edge">
<title>Node13&#45;&gt;Node8</title>
<path fill="none" stroke="#9a32cd" stroke-dasharray="5,2" d="M486.8846,-482.2386C485.1194,-425.5576 480.084,-263.8634 478.8006,-222.6517"/>
<polygon fill="#9a32cd" stroke="#9a32cd" points="483.3909,-482.4983 487.2006,-492.3845 490.3875,-482.2803 483.3909,-482.4983"/>
<text text-anchor="middle" x="495.5" y="-348.5" font-family="Helvetica,sans-Serif" font-size="10.00" fill="#000000"> Lock</text>
</g>
<!-- Node13&#45;&gt;Node10 -->
<g id="edge30" class="edge">
<title>Node13&#45;&gt;Node10</title>
<path fill="none" stroke="#9a32cd" stroke-dasharray="5,2" d="M479.1403,-482.7175C462.6982,-443.9609 426.1367,-353.5185 407.5,-274 397.2972,-230.4671 393.3304,-218.6 396.5,-174 396.9386,-167.8284 397.9145,-160.949 398.7924,-155.5536"/>
<polygon fill="#9a32cd" stroke="#9a32cd" points="476.0584,-484.4117 483.2127,-492.2262 482.4931,-481.6558 476.0584,-484.4117"/>
<text text-anchor="middle" x="437" y="-305" font-family="Helvetica,sans-Serif" font-size="10.00" fill="#000000"> Name</text>
</g>
<!-- Node13&#45;&gt;Node12 -->
<g id="edge12" class="edge">
<title>Node13&#45;&gt;Node12</title>
<path fill="none" stroke="#9a32cd" stroke-dasharray="5,2" d="M454.9047,-499.6967C397.4958,-495.4064 280.7152,-485.5695 241.5,-474 182.0206,-456.452 162.7745,-453.2843 116.5,-412 87.0028,-385.6837 74.4202,-337.563 70.2328,-317.1091"/>
<polygon fill="#9a32cd" stroke="#9a32cd" points="454.9983,-503.2129 465.2281,-500.4561 455.5119,-496.2318 454.9983,-503.2129"/>
<text text-anchor="middle" x="146" y="-404" font-family="Helvetica,sans-Serif" font-size="10.00" fill="#000000"> Description</text>
<text text-anchor="middle" x="146" y="-393" font-family="Helvetica,sans-Serif" font-size="10.00" fill="#000000">URI</text>
<text text-anchor="middle" x="146" y="-382" font-family="Helvetica,sans-Serif" font-size="10.00" fill="#000000">ShortDesc</text>
</g>
<!-- Node13&#45;&gt;Node15 -->
<g id="edge25" class="edge">
<title>Node13&#45;&gt;Node15</title>
<path fill="none" stroke="#9a32cd" stroke-dasharray="5,2" d="M520.2455,-497.6687C598.9944,-486.3395 792.5,-452.6829 792.5,-395.5 792.5,-395.5 792.5,-395.5 792.5,-146 792.5,-94.1504 608.3164,-81.6658 539.2476,-78.8069"/>
<polygon fill="#9a32cd" stroke="#9a32cd" points="519.3427,-494.2611 509.9274,-499.1193 520.3173,-501.193 519.3427,-494.2611"/>
<text text-anchor="middle" x="818.5" y="-266" font-family="Helvetica,sans-Serif" font-size="10.00" fill="#000000"> OutQueue</text>
<text text-anchor="middle" x="818.5" y="-255" font-family="Helvetica,sans-Serif" font-size="10.00" fill="#000000">Access</text>
<text text-anchor="middle" x="818.5" y="-244" font-family="Helvetica,sans-Serif" font-size="10.00" fill="#000000">Status</text>
</g>
<!-- Node16 -->
<g id="node13" class="node">
<title>Node16</title>
<g id="a_node13"><a xlink:href="structpkgAcquire_1_1MethodConfig.xhtml" target="_top" xlink:title="Information about the properties of a single acquire method. {{{. ">
<polygon fill="#ffffff" stroke="#000000" points="636,-298 636,-317 719,-317 719,-298 636,-298"/>
<text text-anchor="middle" x="677.5" y="-305" font-family="Helvetica,sans-Serif" font-size="10.00" fill="#000000">MethodConfig</text>
</a>
</g>
</g>
<!-- Node13&#45;&gt;Node16 -->
<g id="edge22" class="edge">
<title>Node13&#45;&gt;Node16</title>
<path fill="none" stroke="#9a32cd" stroke-dasharray="5,2" d="M519.5151,-492.862C556.6375,-480.5965 617.0034,-455.1978 650.5,-412 673.0055,-382.9766 676.8763,-337.1393 677.4546,-317.2474"/>
<polygon fill="#9a32cd" stroke="#9a32cd" points="518.1748,-489.6153 509.7027,-495.9771 520.293,-496.2871 518.1748,-489.6153"/>
<text text-anchor="middle" x="685" y="-398.5" font-family="Helvetica,sans-Serif" font-size="10.00" fill="#000000"> Access</text>
<text text-anchor="middle" x="685" y="-387.5" font-family="Helvetica,sans-Serif" font-size="10.00" fill="#000000">Version</text>
</g>
<!-- Node19 -->
<g id="node16" class="node">
<title>Node19</title>
<polygon fill="#ffffff" stroke="#bfbfbf" points="808,-341.5 808,-360.5 927,-360.5 927,-341.5 808,-341.5"/>
<text text-anchor="middle" x="867.5" y="-348.5" font-family="Helvetica,sans-Serif" font-size="10.00" fill="#000000">vector&lt; std::string &gt;</text>
</g>
<!-- Node13&#45;&gt;Node19 -->
<g id="edge28" class="edge">
<title>Node13&#45;&gt;Node19</title>
<path fill="none" stroke="#9a32cd" stroke-dasharray="5,2" d="M519.9129,-500.9401C596.3488,-498.1892 783.2027,-489.9036 806.5,-474 846.6603,-446.5851 861.5507,-384.7565 865.9429,-360.7698"/>
<polygon fill="#9a32cd" stroke="#9a32cd" points="519.7599,-497.4432 509.8888,-501.2918 520.0054,-504.4389 519.7599,-497.4432"/>
<text text-anchor="middle" x="866" y="-449.5" font-family="Helvetica,sans-Serif" font-size="10.00" fill="#000000"> elements</text>
</g>
<!-- Node14 -->
<g id="node11" class="node">
<title>Node14</title>
<g id="a_node11"><a xlink:title="STL class. ">
<polygon fill="#ffffff" stroke="#bfbfbf" points="428,-549.5 428,-568.5 547,-568.5 547,-549.5 428,-549.5"/>
<text text-anchor="middle" x="487.5" y="-556.5" font-family="Helvetica,sans-Serif" font-size="10.00" fill="#000000">basic_string&lt; char &gt;</text>
</a>
</g>
</g>
<!-- Node14&#45;&gt;Node13 -->
<g id="edge13" class="edge">
<title>Node14&#45;&gt;Node13</title>
<path fill="none" stroke="#191970" d="M487.5,-539.2342C487.5,-529.8491 487.5,-519.0651 487.5,-511.5265"/>
<polygon fill="#191970" stroke="#191970" points="484.0001,-539.3307 487.5,-549.3307 491.0001,-539.3308 484.0001,-539.3307"/>
</g>
<!-- Node15&#45;&gt;Node8 -->
<g id="edge35" class="edge">
<title>Node15&#45;&gt;Node8</title>
<path fill="none" stroke="#9a32cd" stroke-dasharray="5,2" d="M512.4082,-97.825C510.693,-119.7509 506.3508,-155.833 495.5,-185 493.0809,-191.5026 489.1066,-198.1666 485.6088,-203.3613"/>
<polygon fill="#9a32cd" stroke="#9a32cd" points="515.906,-97.9739 513.0862,-87.7612 508.9219,-97.5033 515.906,-97.9739"/>
<text text-anchor="middle" x="529" y="-143.5" font-family="Helvetica,sans-Serif" font-size="10.00" fill="#000000"> Workers</text>
</g>
<!-- Node15&#45;&gt;Node10 -->
<g id="edge31" class="edge">
<title>Node15&#45;&gt;Node10</title>
<path fill="none" stroke="#9a32cd" stroke-dasharray="5,2" d="M477.5307,-82.1544C447.2435,-86.4804 407.3279,-94.4127 397.5,-107 391.0641,-115.243 393.457,-127.6818 396.3856,-136.2855"/>
<polygon fill="#9a32cd" stroke="#9a32cd" points="478.3343,-85.5778 487.777,-80.7729 477.3989,-78.6405 478.3343,-85.5778"/>
<text text-anchor="middle" x="419" y="-110" font-family="Helvetica,sans-Serif" font-size="10.00" fill="#000000"> Workers</text>
</g>
<!-- Node15&#45;&gt;Node11 -->
<g id="edge17" class="edge">
<title>Node15&#45;&gt;Node11</title>
<path fill="none" stroke="#9a32cd" stroke-dasharray="5,2" d="M502.0219,-59.9049C496.1789,-52.0727 488.4217,-43.4656 479.5,-38 463.8353,-28.4036 414.6992,-18.8801 385.001,-13.7888"/>
<polygon fill="#9a32cd" stroke="#9a32cd" points="499.1987,-61.9759 507.7656,-68.2097 504.9559,-57.9942 499.1987,-61.9759"/>
<text text-anchor="middle" x="511.5" y="-41" font-family="Helvetica,sans-Serif" font-size="10.00" fill="#000000"> Worker</text>
</g>
<!-- Node15&#45;&gt;Node15 -->
<g id="edge29" class="edge">
<title>Node15&#45;&gt;Node15</title>
<path fill="none" stroke="#9a32cd" stroke-dasharray="5,2" d="M549.5602,-83.5393C554.0495,-82.5577 557,-80.7112 557,-78 557,-73.5508 549.0544,-71.4305 539.4017,-71.639"/>
<polygon fill="#9a32cd" stroke="#9a32cd" points="549.0869,-80.0661 539.4017,-84.361 549.6514,-87.0433 549.0869,-80.0661"/>
<text text-anchor="middle" x="587.5" y="-81" font-family="Helvetica,sans-Serif" font-size="10.00" fill="#000000"> NextQueue</text>
<text text-anchor="middle" x="587.5" y="-70" font-family="Helvetica,sans-Serif" font-size="10.00" fill="#000000">NextAcquire</text>
</g>
<!-- Node16&#45;&gt;Node8 -->
<g id="edge32" class="edge">
<title>Node16&#45;&gt;Node8</title>
<path fill="none" stroke="#9a32cd" stroke-dasharray="5,2" d="M653.3025,-292.5284C629.4911,-278.1738 591.8163,-256.4618 557.5,-241 541.9779,-234.0062 524.1426,-227.5566 509.3508,-222.6146"/>
<polygon fill="#9a32cd" stroke="#9a32cd" points="651.6489,-295.6191 662.0118,-297.824 655.2858,-289.638 651.6489,-295.6191"/>
<text text-anchor="middle" x="640.5" y="-255" font-family="Helvetica,sans-Serif" font-size="10.00" fill="#000000"> Configs</text>
</g>
<!-- Node16&#45;&gt;Node15 -->
<g id="edge20" class="edge">
<title>Node16&#45;&gt;Node15</title>
<path fill="none" stroke="#9a32cd" stroke-dasharray="5,2" d="M675.7472,-287.3665C673.9756,-273.7536 670.4528,-255.657 663.5,-241 630.7166,-171.8906 611.5527,-159.0476 555.5,-107 547.708,-99.7647 537.9925,-92.9405 529.8689,-87.7317"/>
<polygon fill="#9a32cd" stroke="#9a32cd" points="672.2967,-288.0112 676.8602,-297.5728 679.2554,-287.2523 672.2967,-288.0112"/>
<text text-anchor="middle" x="648.5" y="-177" font-family="Helvetica,sans-Serif" font-size="10.00" fill="#000000"> Config</text>
</g>
<!-- Node16&#45;&gt;Node16 -->
<g id="edge21" class="edge">
<title>Node16&#45;&gt;Node16</title>
<path fill="none" stroke="#9a32cd" stroke-dasharray="5,2" d="M729.319,-313.7581C734.0342,-312.4571 737,-310.3711 737,-307.5 737,-302.9063 729.4076,-300.3223 719.2052,-299.748"/>
<polygon fill="#9a32cd" stroke="#9a32cd" points="728.5864,-310.3282 719.2052,-315.252 729.6093,-317.2531 728.5864,-310.3282"/>
<text text-anchor="middle" x="750.5" y="-305" font-family="Helvetica,sans-Serif" font-size="10.00" fill="#000000"> Next</text>
</g>
<!-- Node17 -->
<g id="node14" class="node">
<title>Node17</title>
<g id="a_node14"><a xlink:href="classpkgAcquire_1_1MethodConfig_1_1Private.xhtml" target="_top" xlink:title="Private">
<polygon fill="#ffffff" stroke="#000000" points="590,-386 590,-405 641,-405 641,-386 590,-386"/>
<text text-anchor="middle" x="615.5" y="-393" font-family="Helvetica,sans-Serif" font-size="10.00" fill="#000000">Private</text>
</a>
</g>
</g>
<!-- Node17&#45;&gt;Node16 -->
<g id="edge23" class="edge">
<title>Node17&#45;&gt;Node16</title>
<path fill="none" stroke="#9a32cd" stroke-dasharray="5,2" d="M628.0413,-377.3897C635.4203,-366.7651 644.9523,-353.0937 653.5,-341 659.1986,-332.9374 665.7275,-323.8326 670.5356,-317.1521"/>
<polygon fill="#9a32cd" stroke="#9a32cd" points="625.0133,-375.6143 622.1898,-385.826 630.7651,-379.6039 625.0133,-375.6143"/>
<text text-anchor="middle" x="658.5" y="-348.5" font-family="Helvetica,sans-Serif" font-size="10.00" fill="#000000"> d</text>
</g>
<!-- Node18 -->
<g id="node15" class="node">
<title>Node18</title>
<g id="a_node15"><a xlink:href="classpkgAcquireStatus.xhtml" target="_top" xlink:title="A monitor object for downloads controlled by the pkgAcquire class. {{{. ">
<polygon fill="#ffffff" stroke="#000000" points="515.5,-298 515.5,-317 617.5,-317 617.5,-298 515.5,-298"/>
<text text-anchor="middle" x="566.5" y="-305" font-family="Helvetica,sans-Serif" font-size="10.00" fill="#000000">pkgAcquireStatus</text>
</a>
</g>
</g>
<!-- Node18&#45;&gt;Node8 -->
<g id="edge34" class="edge">
<title>Node18&#45;&gt;Node8</title>
<path fill="none" stroke="#9a32cd" stroke-dasharray="5,2" d="M550.476,-290.2924C531.9701,-270.4196 502.1824,-238.4317 487.4056,-222.5634"/>
<polygon fill="#9a32cd" stroke="#9a32cd" points="548.0376,-292.8097 557.4139,-297.7428 553.1604,-288.0392 548.0376,-292.8097"/>
<text text-anchor="middle" x="543" y="-255" font-family="Helvetica,sans-Serif" font-size="10.00" fill="#000000"> Log</text>
</g>
<!-- Node18&#45;&gt;Node15 -->
<g id="edge26" class="edge">
<title>Node18&#45;&gt;Node15</title>
<path fill="none" stroke="#9a32cd" stroke-dasharray="5,2" d="M568.4796,-287.8059C571.0323,-255.1743 573.1559,-188.3069 554.5,-136 547.7063,-116.952 532.7906,-98.506 522.9474,-87.708"/>
<polygon fill="#9a32cd" stroke="#9a32cd" points="564.9869,-287.5708 567.5922,-297.8403 571.9596,-288.1875 564.9869,-287.5708"/>
<text text-anchor="middle" x="576" y="-177" font-family="Helvetica,sans-Serif" font-size="10.00" fill="#000000"> Log</text>
</g>
<!-- Node19&#45;&gt;Node15 -->
<g id="edge27" class="edge">
<title>Node19&#45;&gt;Node15</title>
<path fill="none" stroke="#9a32cd" stroke-dasharray="5,2" d="M866.1737,-331.4021C865.0093,-312.491 863.5,-283.0498 863.5,-257.5 863.5,-257.5 863.5,-257.5 863.5,-146 863.5,-115.3044 835.3415,-117.5068 806.5,-107 757.6306,-89.1971 601.309,-81.3729 539.248,-78.9125"/>
<polygon fill="#9a32cd" stroke="#9a32cd" points="862.6852,-331.6951 866.8215,-341.4491 869.6707,-331.2446 862.6852,-331.6951"/>
<text text-anchor="middle" x="902.5" y="-210.5" font-family="Helvetica,sans-Serif" font-size="10.00" fill="#000000"> MessageQueue</text>
</g>
</g>
</svg>
