<?xml version="1.0" encoding="UTF-8" standalone="no"?>
<!DOCTYPE svg PUBLIC "-//W3C//DTD SVG 1.1//EN"
 "http://www.w3.org/Graphics/SVG/1.1/DTD/svg11.dtd">
<!-- Generated by graphviz version 2.40.1 (20161225.0304)
 -->
<!-- Title: pkgDebianIndexTargetFile Pages: 1 -->
<svg width="355pt" height="321pt"
 viewBox="0.00 0.00 355.00 321.00" xmlns="http://www.w3.org/2000/svg" xmlns:xlink="http://www.w3.org/1999/xlink">
<g id="graph0" class="graph" transform="scale(1 1) rotate(0) translate(4 317)">
<title>pkgDebianIndexTargetFile</title>
<polygon fill="#ffffff" stroke="transparent" points="-4,4 -4,-317 351,-317 351,4 -4,4"/>
<!-- Node6 -->
<g id="node1" class="node">
<title>Node6</title>
<polygon fill="#bfbfbf" stroke="#000000" points="40,-.5 40,-19.5 183,-19.5 183,-.5 40,-.5"/>
<text text-anchor="middle" x="111.5" y="-7.5" font-family="Helvetica,sans-Serif" font-size="10.00" fill="#000000">pkgDebianIndexTargetFile</text>
</g>
<!-- Node7 -->
<g id="node2" class="node">
<title>Node7</title>
<g id="a_node2"><a xlink:href="classpkgDebianIndexFile.xhtml" target="_top" xlink:title="pkgDebianIndexFile">
<polygon fill="#ffffff" stroke="#000000" points="0,-67.5 0,-86.5 113,-86.5 113,-67.5 0,-67.5"/>
<text text-anchor="middle" x="56.5" y="-74.5" font-family="Helvetica,sans-Serif" font-size="10.00" fill="#000000">pkgDebianIndexFile</text>
</a>
</g>
</g>
<!-- Node7&#45;&gt;Node6 -->
<g id="edge1" class="edge">
<title>Node7&#45;&gt;Node6</title>
<path fill="none" stroke="#191970" d="M70.9899,-59.3486C81.4393,-46.6194 95.1454,-29.9229 103.6345,-19.5817"/>
<polygon fill="#191970" stroke="#191970" points="68.0199,-57.4505 64.3802,-67.4005 73.4304,-61.892 68.0199,-57.4505"/>
</g>
<!-- Node8 -->
<g id="node3" class="node">
<title>Node8</title>
<g id="a_node3"><a xlink:href="classpkgIndexFile.xhtml" target="_top" xlink:title="pkgIndexFile">
<polygon fill="#ffffff" stroke="#000000" points="17.5,-146.5 17.5,-165.5 95.5,-165.5 95.5,-146.5 17.5,-146.5"/>
<text text-anchor="middle" x="56.5" y="-153.5" font-family="Helvetica,sans-Serif" font-size="10.00" fill="#000000">pkgIndexFile</text>
</a>
</g>
</g>
<!-- Node8&#45;&gt;Node7 -->
<g id="edge2" class="edge">
<title>Node8&#45;&gt;Node7</title>
<path fill="none" stroke="#191970" d="M56.5,-136.0339C56.5,-120.2875 56.5,-99.0062 56.5,-86.7662"/>
<polygon fill="#191970" stroke="#191970" points="53.0001,-136.313 56.5,-146.313 60.0001,-136.3131 53.0001,-136.313"/>
</g>
<!-- Node9 -->
<g id="node4" class="node">
<title>Node9</title>
<g id="a_node4"><a xlink:href="classIndexTarget.xhtml" target="_top" xlink:title="Information about an index file. ">
<polygon fill="#ffffff" stroke="#000000" points="131.5,-67.5 131.5,-86.5 205.5,-86.5 205.5,-67.5 131.5,-67.5"/>
<text text-anchor="middle" x="168.5" y="-74.5" font-family="Helvetica,sans-Serif" font-size="10.00" fill="#000000">IndexTarget</text>
</a>
</g>
</g>
<!-- Node9&#45;&gt;Node6 -->
<g id="edge3" class="edge">
<title>Node9&#45;&gt;Node6</title>
<path fill="none" stroke="#9a32cd" stroke-dasharray="5,2" d="M153.7946,-59.7147C142.9274,-46.941 128.534,-30.0224 119.6516,-19.5817"/>
<polygon fill="#9a32cd" stroke="#9a32cd" points="151.1877,-62.0519 160.3333,-67.4005 156.5193,-57.516 151.1877,-62.0519"/>
<text text-anchor="middle" x="159.5" y="-41" font-family="Helvetica,sans-Serif" font-size="10.00" fill="#000000"> Target</text>
</g>
<!-- Node10 -->
<g id="node5" class="node">
<title>Node10</title>
<polygon fill="#ffffff" stroke="#bfbfbf" points="228,-141 228,-171 347,-171 347,-141 228,-141"/>
<text text-anchor="start" x="236" y="-159" font-family="Helvetica,sans-Serif" font-size="10.00" fill="#000000">map&lt; std::string, std</text>
<text text-anchor="middle" x="287.5" y="-148" font-family="Helvetica,sans-Serif" font-size="10.00" fill="#000000">::string &gt;</text>
</g>
<!-- Node10&#45;&gt;Node9 -->
<g id="edge4" class="edge">
<title>Node10&#45;&gt;Node9</title>
<path fill="none" stroke="#9a32cd" stroke-dasharray="5,2" d="M256.4765,-135.4046C232.701,-119.6208 200.9872,-98.5671 182.8514,-86.5274"/>
<polygon fill="#9a32cd" stroke="#9a32cd" points="254.5698,-138.3398 264.8369,-140.9548 258.4414,-132.5079 254.5698,-138.3398"/>
<text text-anchor="middle" x="244" y="-108" font-family="Helvetica,sans-Serif" font-size="10.00" fill="#000000"> Options</text>
</g>
<!-- Node11 -->
<g id="node6" class="node">
<title>Node11</title>
<g id="a_node6"><a xlink:title="STL class. ">
<polygon fill="#ffffff" stroke="#bfbfbf" points="144.5,-236.5 144.5,-255.5 188.5,-255.5 188.5,-236.5 144.5,-236.5"/>
<text text-anchor="middle" x="166.5" y="-243.5" font-family="Helvetica,sans-Serif" font-size="10.00" fill="#000000">string</text>
</a>
</g>
</g>
<!-- Node11&#45;&gt;Node9 -->
<g id="edge7" class="edge">
<title>Node11&#45;&gt;Node9</title>
<path fill="none" stroke="#9a32cd" stroke-dasharray="5,2" d="M163.9642,-226.1833C161.4416,-203.7901 158.2474,-166.2562 160.5,-134 161.6695,-117.2528 164.7493,-97.9385 166.7285,-86.6388"/>
<polygon fill="#9a32cd" stroke="#9a32cd" points="160.5242,-226.893 165.1898,-236.4052 167.4744,-226.0596 160.5242,-226.893"/>
<text text-anchor="middle" x="190" y="-170" font-family="Helvetica,sans-Serif" font-size="10.00" fill="#000000"> Description</text>
<text text-anchor="middle" x="190" y="-159" font-family="Helvetica,sans-Serif" font-size="10.00" fill="#000000">URI</text>
<text text-anchor="middle" x="190" y="-148" font-family="Helvetica,sans-Serif" font-size="10.00" fill="#000000">ShortDesc</text>
<text text-anchor="middle" x="190" y="-137" font-family="Helvetica,sans-Serif" font-size="10.00" fill="#000000">MetaKey</text>
</g>
<!-- Node11&#45;&gt;Node10 -->
<g id="edge5" class="edge">
<title>Node11&#45;&gt;Node10</title>
<path fill="none" stroke="#9a32cd" stroke-dasharray="5,2" d="M187.6109,-230.2977C209.9364,-213.6919 244.9202,-187.6709 267.0082,-171.2418"/>
<polygon fill="#9a32cd" stroke="#9a32cd" points="185.3841,-227.5919 179.4491,-236.3684 189.5618,-233.2086 185.3841,-227.5919"/>
<text text-anchor="middle" x="253.5" y="-210" font-family="Helvetica,sans-Serif" font-size="10.00" fill="#000000"> keys</text>
<text text-anchor="middle" x="253.5" y="-199" font-family="Helvetica,sans-Serif" font-size="10.00" fill="#000000">elements</text>
</g>
<!-- Node12 -->
<g id="node7" class="node">
<title>Node12</title>
<g id="a_node7"><a xlink:title="STL class. ">
<polygon fill="#ffffff" stroke="#bfbfbf" points="107,-293.5 107,-312.5 226,-312.5 226,-293.5 107,-293.5"/>
<text text-anchor="middle" x="166.5" y="-300.5" font-family="Helvetica,sans-Serif" font-size="10.00" fill="#000000">basic_string&lt; char &gt;</text>
</a>
</g>
</g>
<!-- Node12&#45;&gt;Node11 -->
<g id="edge6" class="edge">
<title>Node12&#45;&gt;Node11</title>
<path fill="none" stroke="#191970" d="M166.5,-283.2342C166.5,-273.8491 166.5,-263.0651 166.5,-255.5265"/>
<polygon fill="#191970" stroke="#191970" points="163.0001,-283.3307 166.5,-293.3307 170.0001,-283.3308 163.0001,-283.3307"/>
</g>
</g>
</svg>
