<?xml version="1.0" encoding="UTF-8" standalone="no"?>
<!DOCTYPE svg PUBLIC "-//W3C//DTD SVG 1.1//EN"
 "http://www.w3.org/Graphics/SVG/1.1/DTD/svg11.dtd">
<!-- Generated by graphviz version 2.40.1 (20161225.0304)
 -->
<!-- Title: metaIndex Pages: 1 -->
<svg width="440pt" height="341pt"
 viewBox="0.00 0.00 440.00 341.00" xmlns="http://www.w3.org/2000/svg" xmlns:xlink="http://www.w3.org/1999/xlink">
<g id="graph0" class="graph" transform="scale(1 1) rotate(0) translate(4 337)">
<title>metaIndex</title>
<polygon fill="#ffffff" stroke="transparent" points="-4,4 -4,-337 436,-337 436,4 -4,4"/>
<!-- Node2 -->
<g id="node1" class="node">
<title>Node2</title>
<polygon fill="#bfbfbf" stroke="#000000" points="232,-.5 232,-19.5 301,-19.5 301,-.5 232,-.5"/>
<text text-anchor="middle" x="266.5" y="-7.5" font-family="Helvetica,sans-Serif" font-size="10.00" fill="#000000">metaIndex</text>
</g>
<!-- Node3 -->
<g id="node2" class="node">
<title>Node3</title>
<polygon fill="#ffffff" stroke="#bfbfbf" points="81,-67.5 81,-97.5 238,-97.5 238,-67.5 81,-67.5"/>
<text text-anchor="start" x="89" y="-85.5" font-family="Helvetica,sans-Serif" font-size="10.00" fill="#000000">map&lt; std::string, metaIndex</text>
<text text-anchor="middle" x="159.5" y="-74.5" font-family="Helvetica,sans-Serif" font-size="10.00" fill="#000000">::checkSum *&gt;</text>
</g>
<!-- Node3&#45;&gt;Node2 -->
<g id="edge1" class="edge">
<title>Node3&#45;&gt;Node2</title>
<path fill="none" stroke="#9a32cd" stroke-dasharray="5,2" d="M184.8681,-60.8491C194.2339,-53.2606 205.1026,-44.9132 215.5,-38 225.5935,-31.2888 237.4304,-24.717 247.1584,-19.6286"/>
<polygon fill="#9a32cd" stroke="#9a32cd" points="182.5687,-58.2086 177.0741,-67.2673 187.0185,-63.6123 182.5687,-58.2086"/>
<text text-anchor="middle" x="234" y="-41" font-family="Helvetica,sans-Serif" font-size="10.00" fill="#000000"> Entries</text>
</g>
<!-- Node4 -->
<g id="node3" class="node">
<title>Node4</title>
<g id="a_node3"><a xlink:title="STL class. ">
<polygon fill="#ffffff" stroke="#bfbfbf" points="189.5,-256.5 189.5,-275.5 233.5,-275.5 233.5,-256.5 189.5,-256.5"/>
<text text-anchor="middle" x="211.5" y="-263.5" font-family="Helvetica,sans-Serif" font-size="10.00" fill="#000000">string</text>
</a>
</g>
</g>
<!-- Node4&#45;&gt;Node2 -->
<g id="edge9" class="edge">
<title>Node4&#45;&gt;Node2</title>
<path fill="none" stroke="#9a32cd" stroke-dasharray="5,2" d="M225.8857,-248.178C233.6939,-237.4734 242.7068,-223.2094 247.5,-209 270.9064,-139.6124 268.6362,-49.4179 267.1149,-19.853"/>
<polygon fill="#9a32cd" stroke="#9a32cd" points="223.0087,-246.1789 219.7293,-256.2534 228.5755,-250.4228 223.0087,-246.1789"/>
<text text-anchor="middle" x="293.5" y="-163" font-family="Helvetica,sans-Serif" font-size="10.00" fill="#000000"> Codename</text>
<text text-anchor="middle" x="293.5" y="-152" font-family="Helvetica,sans-Serif" font-size="10.00" fill="#000000">Dist</text>
<text text-anchor="middle" x="293.5" y="-141" font-family="Helvetica,sans-Serif" font-size="10.00" fill="#000000">Suite</text>
<text text-anchor="middle" x="293.5" y="-130" font-family="Helvetica,sans-Serif" font-size="10.00" fill="#000000">URI</text>
<text text-anchor="middle" x="293.5" y="-119" font-family="Helvetica,sans-Serif" font-size="10.00" fill="#000000">SignedBy</text>
</g>
<!-- Node4&#45;&gt;Node3 -->
<g id="edge2" class="edge">
<title>Node4&#45;&gt;Node3</title>
<path fill="none" stroke="#9a32cd" stroke-dasharray="5,2" d="M214.0888,-246.1703C217.0605,-216.2007 219.0597,-158.3742 197.5,-116 193.9106,-108.9453 188.1484,-102.7105 182.1847,-97.591"/>
<polygon fill="#9a32cd" stroke="#9a32cd" points="210.6004,-245.871 212.9494,-256.2021 217.5557,-246.661 210.6004,-245.871"/>
<text text-anchor="middle" x="230" y="-196.5" font-family="Helvetica,sans-Serif" font-size="10.00" fill="#000000"> keys</text>
</g>
<!-- Node6 -->
<g id="node5" class="node">
<title>Node6</title>
<g id="a_node5"><a xlink:href="structmetaIndex_1_1checkSum.xhtml" target="_top" xlink:title="checkSum">
<polygon fill="#ffffff" stroke="#000000" points="73,-189.5 73,-208.5 140,-208.5 140,-189.5 73,-189.5"/>
<text text-anchor="middle" x="106.5" y="-196.5" font-family="Helvetica,sans-Serif" font-size="10.00" fill="#000000">checkSum</text>
</a>
</g>
</g>
<!-- Node4&#45;&gt;Node6 -->
<g id="edge6" class="edge">
<title>Node4&#45;&gt;Node6</title>
<path fill="none" stroke="#9a32cd" stroke-dasharray="5,2" d="M179.519,-261.6206C152.365,-257.1783 116.4205,-249.3359 107.5,-238 101.0497,-229.8031 101.998,-217.3549 103.7777,-208.7365"/>
<polygon fill="#9a32cd" stroke="#9a32cd" points="179.0026,-265.0823 189.421,-263.1569 180.0759,-258.1651 179.0026,-265.0823"/>
<text text-anchor="middle" x="152.5" y="-230" font-family="Helvetica,sans-Serif" font-size="10.00" fill="#000000"> MetaKeyFilename</text>
</g>
<!-- Node5 -->
<g id="node4" class="node">
<title>Node5</title>
<g id="a_node4"><a xlink:title="STL class. ">
<polygon fill="#ffffff" stroke="#bfbfbf" points="152,-313.5 152,-332.5 271,-332.5 271,-313.5 152,-313.5"/>
<text text-anchor="middle" x="211.5" y="-320.5" font-family="Helvetica,sans-Serif" font-size="10.00" fill="#000000">basic_string&lt; char &gt;</text>
</a>
</g>
</g>
<!-- Node5&#45;&gt;Node4 -->
<g id="edge3" class="edge">
<title>Node5&#45;&gt;Node4</title>
<path fill="none" stroke="#191970" d="M211.5,-303.2342C211.5,-293.8491 211.5,-283.0651 211.5,-275.5265"/>
<polygon fill="#191970" stroke="#191970" points="208.0001,-303.3307 211.5,-313.3307 215.0001,-303.3308 208.0001,-303.3307"/>
</g>
<!-- Node6&#45;&gt;Node3 -->
<g id="edge4" class="edge">
<title>Node6&#45;&gt;Node3</title>
<path fill="none" stroke="#9a32cd" stroke-dasharray="5,2" d="M115.1004,-180.0953C125.5665,-157.0897 143.0273,-118.7089 152.6374,-97.5848"/>
<polygon fill="#9a32cd" stroke="#9a32cd" points="111.7924,-178.9146 110.8372,-189.4663 118.1641,-181.8133 111.7924,-178.9146"/>
<text text-anchor="middle" x="169" y="-141" font-family="Helvetica,sans-Serif" font-size="10.00" fill="#000000"> elements</text>
</g>
<!-- Node7 -->
<g id="node6" class="node">
<title>Node7</title>
<g id="a_node6"><a xlink:href="classHashStringList.xhtml" target="_top" xlink:title="HashStringList">
<polygon fill="#ffffff" stroke="#000000" points="0,-256.5 0,-275.5 87,-275.5 87,-256.5 0,-256.5"/>
<text text-anchor="middle" x="43.5" y="-263.5" font-family="Helvetica,sans-Serif" font-size="10.00" fill="#000000">HashStringList</text>
</a>
</g>
</g>
<!-- Node7&#45;&gt;Node6 -->
<g id="edge5" class="edge">
<title>Node7&#45;&gt;Node6</title>
<path fill="none" stroke="#9a32cd" stroke-dasharray="5,2" d="M39.9802,-246.2207C39.8081,-239.635 40.8039,-232.5668 44.5,-227 51.0329,-217.1606 61.9224,-210.7358 72.7681,-206.5593"/>
<polygon fill="#9a32cd" stroke="#9a32cd" points="36.5375,-246.937 41.102,-256.4982 43.4962,-246.1774 36.5375,-246.937"/>
<text text-anchor="middle" x="64.5" y="-230" font-family="Helvetica,sans-Serif" font-size="10.00" fill="#000000"> Hashes</text>
</g>
<!-- Node8 -->
<g id="node7" class="node">
<title>Node8</title>
<polygon fill="#ffffff" stroke="#bfbfbf" points="295,-73 295,-92 432,-92 432,-73 295,-73"/>
<text text-anchor="middle" x="363.5" y="-80" font-family="Helvetica,sans-Serif" font-size="10.00" fill="#000000">vector&lt; pkgIndexFile *&gt;</text>
</g>
<!-- Node8&#45;&gt;Node2 -->
<g id="edge7" class="edge">
<title>Node8&#45;&gt;Node2</title>
<path fill="none" stroke="#9a32cd" stroke-dasharray="5,2" d="M342.2625,-66.6266C323.0624,-52.276 295.4194,-31.615 279.3746,-19.6228"/>
<polygon fill="#9a32cd" stroke="#9a32cd" points="340.3128,-69.539 350.4181,-72.7223 344.5036,-63.932 340.3128,-69.539"/>
<text text-anchor="middle" x="339.5" y="-41" font-family="Helvetica,sans-Serif" font-size="10.00" fill="#000000"> Indexes</text>
</g>
<!-- Node9 -->
<g id="node8" class="node">
<title>Node9</title>
<g id="a_node8"><a xlink:href="classpkgIndexFile.xhtml" target="_top" xlink:title="pkgIndexFile">
<polygon fill="#ffffff" stroke="#000000" points="324.5,-189.5 324.5,-208.5 402.5,-208.5 402.5,-189.5 324.5,-189.5"/>
<text text-anchor="middle" x="363.5" y="-196.5" font-family="Helvetica,sans-Serif" font-size="10.00" fill="#000000">pkgIndexFile</text>
</a>
</g>
</g>
<!-- Node9&#45;&gt;Node8 -->
<g id="edge8" class="edge">
<title>Node9&#45;&gt;Node8</title>
<path fill="none" stroke="#9a32cd" stroke-dasharray="5,2" d="M363.5,-179.2359C363.5,-153.9699 363.5,-111.2196 363.5,-92.1654"/>
<polygon fill="#9a32cd" stroke="#9a32cd" points="360.0001,-179.4663 363.5,-189.4663 367.0001,-179.4664 360.0001,-179.4663"/>
<text text-anchor="middle" x="388" y="-141" font-family="Helvetica,sans-Serif" font-size="10.00" fill="#000000"> elements</text>
</g>
</g>
</svg>
