<?xml version="1.0" encoding="UTF-8" standalone="no"?>
<!DOCTYPE svg PUBLIC "-//W3C//DTD SVG 1.1//EN"
 "http://www.w3.org/Graphics/SVG/1.1/DTD/svg11.dtd">
<!-- Generated by graphviz version 2.40.1 (20161225.0304)
 -->
<!-- Title: metaIndexPrivate Pages: 1 -->
<svg width="135pt" height="185pt"
 viewBox="0.00 0.00 134.50 185.00" xmlns="http://www.w3.org/2000/svg" xmlns:xlink="http://www.w3.org/1999/xlink">
<g id="graph0" class="graph" transform="scale(1 1) rotate(0) translate(4 181)">
<title>metaIndexPrivate</title>
<polygon fill="#ffffff" stroke="transparent" points="-4,4 -4,-181 130.5,-181 130.5,4 -4,4"/>
<!-- Node1 -->
<g id="node1" class="node">
<title>Node1</title>
<polygon fill="#bfbfbf" stroke="#000000" points="7.5,-.5 7.5,-19.5 111.5,-19.5 111.5,-.5 7.5,-.5"/>
<text text-anchor="middle" x="59.5" y="-7.5" font-family="Helvetica,sans-Serif" font-size="10.00" fill="#000000">metaIndexPrivate</text>
</g>
<!-- Node2 -->
<g id="node2" class="node">
<title>Node2</title>
<g id="a_node2"><a xlink:title="STL class. ">
<polygon fill="#ffffff" stroke="#bfbfbf" points="37.5,-100.5 37.5,-119.5 81.5,-119.5 81.5,-100.5 37.5,-100.5"/>
<text text-anchor="middle" x="59.5" y="-107.5" font-family="Helvetica,sans-Serif" font-size="10.00" fill="#000000">string</text>
</a>
</g>
</g>
<!-- Node2&#45;&gt;Node1 -->
<g id="edge1" class="edge">
<title>Node2&#45;&gt;Node1</title>
<path fill="none" stroke="#9a32cd" stroke-dasharray="5,2" d="M59.5,-90.2332C59.5,-68.9448 59.5,-35.9485 59.5,-19.7063"/>
<polygon fill="#9a32cd" stroke="#9a32cd" points="56.0001,-90.4115 59.5,-100.4116 63.0001,-90.4116 56.0001,-90.4115"/>
<text text-anchor="middle" x="93" y="-74" font-family="Helvetica,sans-Serif" font-size="10.00" fill="#000000"> Origin</text>
<text text-anchor="middle" x="93" y="-63" font-family="Helvetica,sans-Serif" font-size="10.00" fill="#000000">Version</text>
<text text-anchor="middle" x="93" y="-52" font-family="Helvetica,sans-Serif" font-size="10.00" fill="#000000">ReleaseNotes</text>
<text text-anchor="middle" x="93" y="-41" font-family="Helvetica,sans-Serif" font-size="10.00" fill="#000000">Label</text>
</g>
<!-- Node3 -->
<g id="node3" class="node">
<title>Node3</title>
<g id="a_node3"><a xlink:title="STL class. ">
<polygon fill="#ffffff" stroke="#bfbfbf" points="0,-157.5 0,-176.5 119,-176.5 119,-157.5 0,-157.5"/>
<text text-anchor="middle" x="59.5" y="-164.5" font-family="Helvetica,sans-Serif" font-size="10.00" fill="#000000">basic_string&lt; char &gt;</text>
</a>
</g>
</g>
<!-- Node3&#45;&gt;Node2 -->
<g id="edge2" class="edge">
<title>Node3&#45;&gt;Node2</title>
<path fill="none" stroke="#191970" d="M59.5,-147.2342C59.5,-137.8491 59.5,-127.0651 59.5,-119.5265"/>
<polygon fill="#191970" stroke="#191970" points="56.0001,-147.3307 59.5,-157.3307 63.0001,-147.3308 56.0001,-147.3307"/>
</g>
</g>
</svg>
