<?xml version="1.0" encoding="UTF-8" standalone="no"?>
<!DOCTYPE svg PUBLIC "-//W3C//DTD SVG 1.1//EN"
 "http://www.w3.org/Graphics/SVG/1.1/DTD/svg11.dtd">
<!-- Generated by graphviz version 2.40.1 (20161225.0304)
 -->
<!-- Title: pkgCache::DepIterator Pages: 1 -->
<svg width="1204pt" height="655pt"
 viewBox="0.00 0.00 1204.00 654.50" xmlns="http://www.w3.org/2000/svg" xmlns:xlink="http://www.w3.org/1999/xlink">
<g id="graph0" class="graph" transform="scale(1 1) rotate(0) translate(4 650.5)">
<title>pkgCache::DepIterator</title>
<polygon fill="#ffffff" stroke="transparent" points="-4,4 -4,-650.5 1200,-650.5 1200,4 -4,4"/>
<!-- Node3 -->
<g id="node1" class="node">
<title>Node3</title>
<polygon fill="#bfbfbf" stroke="#000000" points="1070,-576.5 1070,-595.5 1196,-595.5 1196,-576.5 1070,-576.5"/>
<text text-anchor="middle" x="1133" y="-583.5" font-family="Helvetica,sans-Serif" font-size="10.00" fill="#000000">pkgCache::DepIterator</text>
</g>
<!-- Node4 -->
<g id="node2" class="node">
<title>Node4</title>
<g id="a_node2"><a xlink:href="classpkgCache_1_1Iterator.xhtml" target="_top" xlink:title="Iterator\&lt; Dependency,\l DepIterator \&gt;">
<polygon fill="#ffffff" stroke="#000000" points="905,-571 905,-601 1033,-601 1033,-571 905,-571"/>
<text text-anchor="start" x="913" y="-589" font-family="Helvetica,sans-Serif" font-size="10.00" fill="#000000">Iterator&lt; Dependency,</text>
<text text-anchor="middle" x="969" y="-578" font-family="Helvetica,sans-Serif" font-size="10.00" fill="#000000"> DepIterator &gt;</text>
</a>
</g>
</g>
<!-- Node4&#45;&gt;Node3 -->
<g id="edge1" class="edge">
<title>Node4&#45;&gt;Node3</title>
<path fill="none" stroke="#191970" d="M1043.594,-586C1052.3892,-586 1061.2989,-586 1069.914,-586"/>
<polygon fill="#191970" stroke="#191970" points="1043.3465,-582.5001 1033.3464,-586 1043.3464,-589.5001 1043.3465,-582.5001"/>
</g>
<!-- Node5 -->
<g id="node3" class="node">
<title>Node5</title>
<polygon fill="#ffffff" stroke="#bfbfbf" points="677,-616 677,-646 834,-646 834,-616 677,-616"/>
<text text-anchor="start" x="685" y="-634" font-family="Helvetica,sans-Serif" font-size="10.00" fill="#000000">iterator&lt; std::forward</text>
<text text-anchor="middle" x="755.5" y="-623" font-family="Helvetica,sans-Serif" font-size="10.00" fill="#000000">_iterator_tag, Dependency &gt;</text>
</g>
<!-- Node5&#45;&gt;Node4 -->
<g id="edge2" class="edge">
<title>Node5&#45;&gt;Node4</title>
<path fill="none" stroke="#191970" d="M836.7739,-613.8697C859.3092,-609.1198 883.4531,-604.031 904.8616,-599.5186"/>
<polygon fill="#191970" stroke="#191970" points="835.9524,-610.4658 826.8892,-615.9531 837.3961,-617.3153 835.9524,-610.4658"/>
</g>
<!-- Node6 -->
<g id="node4" class="node">
<title>Node6</title>
<g id="a_node4"><a xlink:href="structpkgCache_1_1Dependency.xhtml" target="_top" xlink:title="Dependency">
<polygon fill="#ffffff" stroke="#000000" points="489.5,-569.5 489.5,-588.5 566.5,-588.5 566.5,-569.5 489.5,-569.5"/>
<text text-anchor="middle" x="528" y="-576.5" font-family="Helvetica,sans-Serif" font-size="10.00" fill="#000000">Dependency</text>
</a>
</g>
</g>
<!-- Node6&#45;&gt;Node4 -->
<g id="edge3" class="edge">
<title>Node6&#45;&gt;Node4</title>
<path fill="none" stroke="#9a32cd" stroke-dasharray="5,2" d="M577.0466,-579.7785C657.1304,-581.0497 815.937,-583.5704 904.8596,-584.9819"/>
<polygon fill="#9a32cd" stroke="#9a32cd" points="576.8036,-576.2743 566.7493,-579.6151 576.6925,-583.2734 576.8036,-576.2743"/>
<text text-anchor="middle" x="755.5" y="-586" font-family="Helvetica,sans-Serif" font-size="10.00" fill="#000000"> S</text>
</g>
<!-- Node7 -->
<g id="node5" class="node">
<title>Node7</title>
<g id="a_node5"><a xlink:href="classpkgCache.xhtml" target="_top" xlink:title="pkgCache">
<polygon fill="#ffffff" stroke="#000000" points="723,-314.5 723,-333.5 788,-333.5 788,-314.5 723,-314.5"/>
<text text-anchor="middle" x="755.5" y="-321.5" font-family="Helvetica,sans-Serif" font-size="10.00" fill="#000000">pkgCache</text>
</a>
</g>
</g>
<!-- Node6&#45;&gt;Node7 -->
<g id="edge6" class="edge">
<title>Node6&#45;&gt;Node7</title>
<path fill="none" stroke="#9a32cd" stroke-dasharray="5,2" d="M576.5678,-570.2583C603.5694,-563.2695 636.2153,-551.0279 659,-530 721.3985,-472.4127 747.0521,-366.2545 753.6687,-333.7279"/>
<polygon fill="#9a32cd" stroke="#9a32cd" points="575.4246,-566.9338 566.5279,-572.687 577.0705,-573.7376 575.4246,-566.9338"/>
<text text-anchor="middle" x="633" y="-563" font-family="Helvetica,sans-Serif" font-size="10.00" fill="#000000"> DepP</text>
</g>
<!-- Node7&#45;&gt;Node4 -->
<g id="edge4" class="edge">
<title>Node7&#45;&gt;Node4</title>
<path fill="none" stroke="#9a32cd" stroke-dasharray="5,2" d="M769.8853,-341.6532C809.4408,-390.1944 919.3657,-525.0905 956.5343,-570.7025"/>
<polygon fill="#9a32cd" stroke="#9a32cd" points="772.3821,-339.1766 763.3518,-333.6354 766.9556,-343.5985 772.3821,-339.1766"/>
<text text-anchor="middle" x="869.5" y="-481" font-family="Helvetica,sans-Serif" font-size="10.00" fill="#000000"> Owner</text>
</g>
<!-- Node8 -->
<g id="node6" class="node">
<title>Node8</title>
<g id="a_node6"><a xlink:href="structpkgCache_1_1DependencyData.xhtml" target="_top" xlink:title="information for a single dependency record ">
<polygon fill="#ffffff" stroke="#000000" points="477.5,-523.5 477.5,-542.5 578.5,-542.5 578.5,-523.5 477.5,-523.5"/>
<text text-anchor="middle" x="528" y="-530.5" font-family="Helvetica,sans-Serif" font-size="10.00" fill="#000000">DependencyData</text>
</a>
</g>
</g>
<!-- Node8&#45;&gt;Node7 -->
<g id="edge5" class="edge">
<title>Node8&#45;&gt;Node7</title>
<path fill="none" stroke="#9a32cd" stroke-dasharray="5,2" d="M588.4023,-522.0926C612.3979,-515.399 638.9903,-504.7614 659,-488 712.1817,-443.4517 743.0482,-361.6328 752.4238,-333.6675"/>
<polygon fill="#9a32cd" stroke="#9a32cd" points="587.4457,-518.725 578.656,-524.6404 589.2162,-525.4974 587.4457,-518.725"/>
<text text-anchor="middle" x="633" y="-518" font-family="Helvetica,sans-Serif" font-size="10.00" fill="#000000"> DepDataP</text>
</g>
<!-- Node9 -->
<g id="node7" class="node">
<title>Node9</title>
<g id="a_node7"><a xlink:href="structpkgCache_1_1Description.xhtml" target="_top" xlink:title="datamember of a linked list of available description for a version ">
<polygon fill="#ffffff" stroke="#000000" points="492,-485.5 492,-504.5 564,-504.5 564,-485.5 492,-485.5"/>
<text text-anchor="middle" x="528" y="-492.5" font-family="Helvetica,sans-Serif" font-size="10.00" fill="#000000">Description</text>
</a>
</g>
</g>
<!-- Node9&#45;&gt;Node7 -->
<g id="edge7" class="edge">
<title>Node9&#45;&gt;Node7</title>
<path fill="none" stroke="#9a32cd" stroke-dasharray="5,2" d="M574.0808,-484.9232C600.8193,-477.4185 634.0362,-465.1053 659,-446 702.3202,-412.8462 737.3585,-356.0536 750.2128,-333.5694"/>
<polygon fill="#9a32cd" stroke="#9a32cd" points="572.9386,-481.6055 564.1809,-487.5681 574.7455,-488.3683 572.9386,-481.6055"/>
<text text-anchor="middle" x="633" y="-476" font-family="Helvetica,sans-Serif" font-size="10.00" fill="#000000"> DescP</text>
</g>
<!-- Node10 -->
<g id="node8" class="node">
<title>Node10</title>
<g id="a_node8"><a xlink:href="structpkgCache_1_1Header.xhtml" target="_top" xlink:title="Header">
<polygon fill="#ffffff" stroke="#000000" points="502,-447.5 502,-466.5 554,-466.5 554,-447.5 502,-447.5"/>
<text text-anchor="middle" x="528" y="-454.5" font-family="Helvetica,sans-Serif" font-size="10.00" fill="#000000">Header</text>
</a>
</g>
</g>
<!-- Node10&#45;&gt;Node7 -->
<g id="edge8" class="edge">
<title>Node10&#45;&gt;Node7</title>
<path fill="none" stroke="#9a32cd" stroke-dasharray="5,2" d="M564.0554,-446.3649C572.3003,-443.7684 580.992,-440.8992 589,-438 620.6641,-426.5365 630.4228,-426.8148 659,-409 694.9974,-386.5595 730.7175,-350.6075 746.7429,-333.5613"/>
<polygon fill="#9a32cd" stroke="#9a32cd" points="562.817,-443.0842 554.296,-449.3805 564.8836,-449.7722 562.817,-443.0842"/>
<text text-anchor="middle" x="633" y="-434" font-family="Helvetica,sans-Serif" font-size="10.00" fill="#000000"> HeaderP</text>
</g>
<!-- Node11 -->
<g id="node9" class="node">
<title>Node11</title>
<g id="a_node9"><a xlink:href="structDynamicMMap_1_1Pool.xhtml" target="_top" xlink:title="Pool">
<polygon fill="#ffffff" stroke="#000000" points="340,-447.5 340,-466.5 378,-466.5 378,-447.5 340,-447.5"/>
<text text-anchor="middle" x="359" y="-454.5" font-family="Helvetica,sans-Serif" font-size="10.00" fill="#000000">Pool</text>
</a>
</g>
</g>
<!-- Node11&#45;&gt;Node10 -->
<g id="edge9" class="edge">
<title>Node11&#45;&gt;Node10</title>
<path fill="none" stroke="#9a32cd" stroke-dasharray="5,2" d="M388.1285,-457C420.1301,-457 471.0611,-457 501.8334,-457"/>
<polygon fill="#9a32cd" stroke="#9a32cd" points="388.058,-453.5001 378.0579,-457 388.0579,-460.5001 388.058,-453.5001"/>
<text text-anchor="middle" x="424" y="-460" font-family="Helvetica,sans-Serif" font-size="10.00" fill="#000000"> Pools</text>
</g>
<!-- Node12 -->
<g id="node10" class="node">
<title>Node12</title>
<g id="a_node10"><a xlink:href="structpkgCache_1_1PackageFile.xhtml" target="_top" xlink:title="stores information about the files used to generate the cache ">
<polygon fill="#ffffff" stroke="#000000" points="491,-409.5 491,-428.5 565,-428.5 565,-409.5 491,-409.5"/>
<text text-anchor="middle" x="528" y="-416.5" font-family="Helvetica,sans-Serif" font-size="10.00" fill="#000000">PackageFile</text>
</a>
</g>
</g>
<!-- Node12&#45;&gt;Node7 -->
<g id="edge10" class="edge">
<title>Node12&#45;&gt;Node7</title>
<path fill="none" stroke="#9a32cd" stroke-dasharray="5,2" d="M568.5327,-406.391C575.3657,-404.2608 582.3854,-402.0696 589,-400 620.1236,-390.262 629.0569,-390.9197 659,-378 689.1427,-364.9942 722.0732,-345.2695 740.6181,-333.6049"/>
<polygon fill="#9a32cd" stroke="#9a32cd" points="567.2303,-403.1307 558.7242,-409.447 569.3126,-409.8139 567.2303,-403.1307"/>
<text text-anchor="middle" x="633" y="-397" font-family="Helvetica,sans-Serif" font-size="10.00" fill="#000000"> PkgFileP</text>
</g>
<!-- Node13 -->
<g id="node11" class="node">
<title>Node13</title>
<g id="a_node11"><a xlink:href="structpkgCache_1_1ReleaseFile.xhtml" target="_top" xlink:title="stores information about the release files used to generate the cache ">
<polygon fill="#ffffff" stroke="#000000" points="492.5,-371.5 492.5,-390.5 563.5,-390.5 563.5,-371.5 492.5,-371.5"/>
<text text-anchor="middle" x="528" y="-378.5" font-family="Helvetica,sans-Serif" font-size="10.00" fill="#000000">ReleaseFile</text>
</a>
</g>
</g>
<!-- Node13&#45;&gt;Node7 -->
<g id="edge11" class="edge">
<title>Node13&#45;&gt;Node7</title>
<path fill="none" stroke="#9a32cd" stroke-dasharray="5,2" d="M573.7162,-371.0918C598.9388,-365.4845 630.7787,-358.1752 659,-351 680.4128,-345.5559 704.3296,-338.8684 722.9961,-333.5111"/>
<polygon fill="#9a32cd" stroke="#9a32cd" points="572.7029,-367.7313 563.6944,-373.3078 574.2143,-374.5662 572.7029,-367.7313"/>
<text text-anchor="middle" x="633" y="-366" font-family="Helvetica,sans-Serif" font-size="10.00" fill="#000000"> RlsFileP</text>
</g>
<!-- Node14 -->
<g id="node12" class="node">
<title>Node14</title>
<g id="a_node12"><a xlink:href="structpkgCache_1_1DescFile.xhtml" target="_top" xlink:title="associates a description with a Translation file ">
<polygon fill="#ffffff" stroke="#000000" points="499.5,-333.5 499.5,-352.5 556.5,-352.5 556.5,-333.5 499.5,-333.5"/>
<text text-anchor="middle" x="528" y="-340.5" font-family="Helvetica,sans-Serif" font-size="10.00" fill="#000000">DescFile</text>
</a>
</g>
</g>
<!-- Node14&#45;&gt;Node7 -->
<g id="edge12" class="edge">
<title>Node14&#45;&gt;Node7</title>
<path fill="none" stroke="#9a32cd" stroke-dasharray="5,2" d="M566.8404,-339.7562C610.8099,-336.084 681.6666,-330.1663 722.884,-326.724"/>
<polygon fill="#9a32cd" stroke="#9a32cd" points="566.487,-336.2734 556.813,-340.5936 567.0697,-343.2491 566.487,-336.2734"/>
<text text-anchor="middle" x="633" y="-339" font-family="Helvetica,sans-Serif" font-size="10.00" fill="#000000"> DescFileP</text>
</g>
<!-- Node15 -->
<g id="node13" class="node">
<title>Node15</title>
<g id="a_node13"><a xlink:href="structpkgCache_1_1Provides.xhtml" target="_top" xlink:title="handles virtual packages ">
<polygon fill="#ffffff" stroke="#000000" points="498.5,-295.5 498.5,-314.5 557.5,-314.5 557.5,-295.5 498.5,-295.5"/>
<text text-anchor="middle" x="528" y="-302.5" font-family="Helvetica,sans-Serif" font-size="10.00" fill="#000000">Provides</text>
</a>
</g>
</g>
<!-- Node15&#45;&gt;Node7 -->
<g id="edge13" class="edge">
<title>Node15&#45;&gt;Node7</title>
<path fill="none" stroke="#9a32cd" stroke-dasharray="5,2" d="M567.7945,-308.3235C611.8011,-311.9988 681.8748,-317.8511 722.8065,-321.2695"/>
<polygon fill="#9a32cd" stroke="#9a32cd" points="567.9983,-304.8284 557.7417,-307.4839 567.4156,-311.8041 567.9983,-304.8284"/>
<text text-anchor="middle" x="633" y="-318" font-family="Helvetica,sans-Serif" font-size="10.00" fill="#000000"> ProvideP</text>
</g>
<!-- Node16 -->
<g id="node14" class="node">
<title>Node16</title>
<g id="a_node14"><a xlink:title="STL class. ">
<polygon fill="#ffffff" stroke="#bfbfbf" points="156,-238.5 156,-257.5 200,-257.5 200,-238.5 156,-238.5"/>
<text text-anchor="middle" x="178" y="-245.5" font-family="Helvetica,sans-Serif" font-size="10.00" fill="#000000">string</text>
</a>
</g>
</g>
<!-- Node16&#45;&gt;Node7 -->
<g id="edge14" class="edge">
<title>Node16&#45;&gt;Node7</title>
<path fill="none" stroke="#9a32cd" stroke-dasharray="5,2" d="M210.6041,-252.1731C213.1056,-252.4634 215.5927,-252.7426 218,-253 382.6014,-270.6025 425.4845,-260.1904 589,-286 636.0055,-293.4194 689.5167,-306.4723 722.8996,-315.1784"/>
<polygon fill="#9a32cd" stroke="#9a32cd" points="210.7558,-248.6661 200.4087,-250.9439 209.9179,-255.6158 210.7558,-248.6661"/>
<text text-anchor="middle" x="424" y="-272" font-family="Helvetica,sans-Serif" font-size="10.00" fill="#000000"> CacheFile</text>
</g>
<!-- Node24 -->
<g id="node22" class="node">
<title>Node24</title>
<g id="a_node22"><a xlink:href="classFileFd.xhtml" target="_top" xlink:title="FileFd">
<polygon fill="#ffffff" stroke="#000000" points="337,-219.5 337,-238.5 381,-238.5 381,-219.5 337,-219.5"/>
<text text-anchor="middle" x="359" y="-226.5" font-family="Helvetica,sans-Serif" font-size="10.00" fill="#000000">FileFd</text>
</a>
</g>
</g>
<!-- Node16&#45;&gt;Node24 -->
<g id="edge24" class="edge">
<title>Node16&#45;&gt;Node24</title>
<path fill="none" stroke="#9a32cd" stroke-dasharray="5,2" d="M205.8134,-234.577C209.8246,-233.1162 213.9625,-231.8522 218,-231 259.2006,-222.3034 308.6875,-224.39 336.7274,-226.6957"/>
<polygon fill="#9a32cd" stroke="#9a32cd" points="204.1663,-231.469 196.2332,-238.4915 206.8141,-237.949 204.1663,-231.469"/>
<text text-anchor="middle" x="268.5" y="-245" font-family="Helvetica,sans-Serif" font-size="10.00" fill="#000000"> TemporaryFileName</text>
<text text-anchor="middle" x="268.5" y="-234" font-family="Helvetica,sans-Serif" font-size="10.00" fill="#000000">FileName</text>
</g>
<!-- Node17 -->
<g id="node15" class="node">
<title>Node17</title>
<g id="a_node15"><a xlink:title="STL class. ">
<polygon fill="#ffffff" stroke="#bfbfbf" points="0,-238.5 0,-257.5 119,-257.5 119,-238.5 0,-238.5"/>
<text text-anchor="middle" x="59.5" y="-245.5" font-family="Helvetica,sans-Serif" font-size="10.00" fill="#000000">basic_string&lt; char &gt;</text>
</a>
</g>
</g>
<!-- Node17&#45;&gt;Node16 -->
<g id="edge15" class="edge">
<title>Node17&#45;&gt;Node16</title>
<path fill="none" stroke="#191970" d="M129.2118,-248C138.8284,-248 148.0652,-248 155.8653,-248"/>
<polygon fill="#191970" stroke="#191970" points="129.0972,-244.5001 119.0972,-248 129.0971,-251.5001 129.0972,-244.5001"/>
</g>
<!-- Node18 -->
<g id="node16" class="node">
<title>Node18</title>
<g id="a_node16"><a xlink:href="structpkgCache_1_1Group.xhtml" target="_top" xlink:title="groups architecture depending packages together ">
<polygon fill="#ffffff" stroke="#000000" points="505,-181.5 505,-200.5 551,-200.5 551,-181.5 505,-181.5"/>
<text text-anchor="middle" x="528" y="-188.5" font-family="Helvetica,sans-Serif" font-size="10.00" fill="#000000">Group</text>
</a>
</g>
</g>
<!-- Node18&#45;&gt;Node7 -->
<g id="edge16" class="edge">
<title>Node18&#45;&gt;Node7</title>
<path fill="none" stroke="#9a32cd" stroke-dasharray="5,2" d="M561.3315,-190.8362C589.0997,-192.0546 628.8383,-197.04 659,-214 703.5088,-239.0275 737.6143,-292.5657 750.2145,-314.4152"/>
<polygon fill="#9a32cd" stroke="#9a32cd" points="561.4203,-187.3374 551.3201,-190.5365 561.2108,-194.3342 561.4203,-187.3374"/>
<text text-anchor="middle" x="633" y="-217" font-family="Helvetica,sans-Serif" font-size="10.00" fill="#000000"> GrpP</text>
</g>
<!-- Node19 -->
<g id="node17" class="node">
<title>Node19</title>
<g id="a_node17"><a xlink:href="classpkgVersioningSystem.xhtml" target="_top" xlink:title="pkgVersioningSystem">
<polygon fill="#ffffff" stroke="#000000" points="467,-114.5 467,-133.5 589,-133.5 589,-114.5 467,-114.5"/>
<text text-anchor="middle" x="528" y="-121.5" font-family="Helvetica,sans-Serif" font-size="10.00" fill="#000000">pkgVersioningSystem</text>
</a>
</g>
</g>
<!-- Node19&#45;&gt;Node7 -->
<g id="edge17" class="edge">
<title>Node19&#45;&gt;Node7</title>
<path fill="none" stroke="#9a32cd" stroke-dasharray="5,2" d="M573.3785,-136.6539C600.3421,-145.8016 634.0344,-160.2356 659,-181 706.4352,-220.4529 740.0152,-289.0069 751.3229,-314.2808"/>
<polygon fill="#9a32cd" stroke="#9a32cd" points="574.3701,-133.2959 563.7776,-133.5209 572.1985,-139.9505 574.3701,-133.2959"/>
<text text-anchor="middle" x="633" y="-184" font-family="Helvetica,sans-Serif" font-size="10.00" fill="#000000"> VS</text>
</g>
<!-- Node19&#45;&gt;Node19 -->
<g id="edge18" class="edge">
<title>Node19&#45;&gt;Node19</title>
<path fill="none" stroke="#9a32cd" stroke-dasharray="5,2" d="M508.7417,-143.4C510.0278,-148.3146 516.4473,-152 528,-152 546.4844,-152 551.8275,-142.5653 544.0294,-133.7571"/>
<polygon fill="#9a32cd" stroke="#9a32cd" points="512.1142,-144.3509 511.9706,-133.7571 505.4765,-142.1283 512.1142,-144.3509"/>
<text text-anchor="middle" x="528" y="-155" font-family="Helvetica,sans-Serif" font-size="10.00" fill="#000000"> GlobalList</text>
</g>
<!-- Node20 -->
<g id="node18" class="node">
<title>Node20</title>
<g id="a_node18"><a xlink:href="structpkgCache_1_1Version.xhtml" target="_top" xlink:title="information for a single version of a package ">
<polygon fill="#ffffff" stroke="#000000" points="501.5,-76.5 501.5,-95.5 554.5,-95.5 554.5,-76.5 501.5,-76.5"/>
<text text-anchor="middle" x="528" y="-83.5" font-family="Helvetica,sans-Serif" font-size="10.00" fill="#000000">Version</text>
</a>
</g>
</g>
<!-- Node20&#45;&gt;Node7 -->
<g id="edge19" class="edge">
<title>Node20&#45;&gt;Node7</title>
<path fill="none" stroke="#9a32cd" stroke-dasharray="5,2" d="M564.609,-91.7759C593.3894,-98.0162 632.856,-110.556 659,-135 716.3216,-188.5942 745.0611,-283.8445 753.0985,-314.3305"/>
<polygon fill="#9a32cd" stroke="#9a32cd" points="565.0273,-88.29 554.5337,-89.7514 563.6483,-95.1529 565.0273,-88.29"/>
<text text-anchor="middle" x="633" y="-138" font-family="Helvetica,sans-Serif" font-size="10.00" fill="#000000"> VerP</text>
</g>
<!-- Node21 -->
<g id="node19" class="node">
<title>Node21</title>
<g id="a_node19"><a xlink:href="structpkgCache_1_1VerFile.xhtml" target="_top" xlink:title="associates a version with a PackageFile ">
<polygon fill="#ffffff" stroke="#000000" points="503.5,-38.5 503.5,-57.5 552.5,-57.5 552.5,-38.5 503.5,-38.5"/>
<text text-anchor="middle" x="528" y="-45.5" font-family="Helvetica,sans-Serif" font-size="10.00" fill="#000000">VerFile</text>
</a>
</g>
</g>
<!-- Node21&#45;&gt;Node7 -->
<g id="edge20" class="edge">
<title>Node21&#45;&gt;Node7</title>
<path fill="none" stroke="#9a32cd" stroke-dasharray="5,2" d="M562.6817,-50.7536C591.702,-54.7748 632.5021,-64.6671 659,-89 729.8182,-154.0321 750.002,-278.7187 754.4336,-314.3021"/>
<polygon fill="#9a32cd" stroke="#9a32cd" points="562.9212,-47.257 552.5713,-49.5218 562.0746,-54.2056 562.9212,-47.257"/>
<text text-anchor="middle" x="633" y="-92" font-family="Helvetica,sans-Serif" font-size="10.00" fill="#000000"> VerFileP</text>
</g>
<!-- Node22 -->
<g id="node20" class="node">
<title>Node22</title>
<g id="a_node20"><a xlink:href="structpkgCache_1_1Package.xhtml" target="_top" xlink:title="contains information for a single unique package ">
<polygon fill="#ffffff" stroke="#000000" points="499.5,-.5 499.5,-19.5 556.5,-19.5 556.5,-.5 499.5,-.5"/>
<text text-anchor="middle" x="528" y="-7.5" font-family="Helvetica,sans-Serif" font-size="10.00" fill="#000000">Package</text>
</a>
</g>
</g>
<!-- Node22&#45;&gt;Node7 -->
<g id="edge21" class="edge">
<title>Node22&#45;&gt;Node7</title>
<path fill="none" stroke="#9a32cd" stroke-dasharray="5,2" d="M566.8641,-10.9595C595.6867,-13.6877 634.1352,-21.8621 659,-45 742.1088,-122.3366 753.6433,-274.7125 755.2428,-314.3781"/>
<polygon fill="#9a32cd" stroke="#9a32cd" points="566.9617,-7.4569 556.7237,-10.1832 566.4273,-14.4364 566.9617,-7.4569"/>
<text text-anchor="middle" x="633" y="-48" font-family="Helvetica,sans-Serif" font-size="10.00" fill="#000000"> PkgP</text>
</g>
<!-- Node23 -->
<g id="node21" class="node">
<title>Node23</title>
<g id="a_node21"><a xlink:href="classMMap.xhtml" target="_top" xlink:title="MMap">
<polygon fill="#ffffff" stroke="#000000" points="505.5,-219.5 505.5,-238.5 550.5,-238.5 550.5,-219.5 505.5,-219.5"/>
<text text-anchor="middle" x="528" y="-226.5" font-family="Helvetica,sans-Serif" font-size="10.00" fill="#000000">MMap</text>
</a>
</g>
</g>
<!-- Node23&#45;&gt;Node7 -->
<g id="edge22" class="edge">
<title>Node23&#45;&gt;Node7</title>
<path fill="none" stroke="#9a32cd" stroke-dasharray="5,2" d="M560.991,-226.9398C588.318,-226.4622 627.6151,-228.6704 659,-242 697.8525,-258.5012 732.7075,-296.3756 747.7067,-314.2815"/>
<polygon fill="#9a32cd" stroke="#9a32cd" points="560.676,-223.4477 550.7878,-227.2522 560.8903,-230.4444 560.676,-223.4477"/>
<text text-anchor="middle" x="633" y="-245" font-family="Helvetica,sans-Serif" font-size="10.00" fill="#000000"> Map</text>
</g>
<!-- Node24&#45;&gt;Node23 -->
<g id="edge23" class="edge">
<title>Node24&#45;&gt;Node23</title>
<path fill="none" stroke="#9a32cd" stroke-dasharray="5,2" d="M391.2616,-229C424.6753,-229 476.0218,-229 505.3614,-229"/>
<polygon fill="#9a32cd" stroke="#9a32cd" points="391.0938,-225.5001 381.0938,-229 391.0938,-232.5001 391.0938,-225.5001"/>
<text text-anchor="middle" x="424" y="-232" font-family="Helvetica,sans-Serif" font-size="10.00" fill="#000000"> SyncToFd</text>
</g>
</g>
</svg>
