<?xml version="1.0" encoding="UTF-8" standalone="no"?>
<!DOCTYPE svg PUBLIC "-//W3C//DTD SVG 1.1//EN"
 "http://www.w3.org/Graphics/SVG/1.1/DTD/svg11.dtd">
<!-- Generated by graphviz version 2.40.1 (20161225.0304)
 -->
<!-- Title: pkgCache::GrpIterator Pages: 1 -->
<svg width="1206pt" height="596pt"
 viewBox="0.00 0.00 1206.00 596.00" xmlns="http://www.w3.org/2000/svg" xmlns:xlink="http://www.w3.org/1999/xlink">
<g id="graph0" class="graph" transform="scale(1 1) rotate(0) translate(4 592)">
<title>pkgCache::GrpIterator</title>
<polygon fill="#ffffff" stroke="transparent" points="-4,4 -4,-592 1202,-592 1202,4 -4,4"/>
<!-- Node3 -->
<g id="node1" class="node">
<title>Node3</title>
<polygon fill="#bfbfbf" stroke="#000000" points="1074,-282.5 1074,-301.5 1198,-301.5 1198,-282.5 1074,-282.5"/>
<text text-anchor="middle" x="1136" y="-289.5" font-family="Helvetica,sans-Serif" font-size="10.00" fill="#000000">pkgCache::GrpIterator</text>
</g>
<!-- Node4 -->
<g id="node2" class="node">
<title>Node4</title>
<g id="a_node2"><a xlink:href="classpkgCache_1_1Iterator.xhtml" target="_top" xlink:title="Iterator\&lt; Group, GrpIterator \&gt;">
<polygon fill="#ffffff" stroke="#000000" points="873,-282.5 873,-301.5 1037,-301.5 1037,-282.5 873,-282.5"/>
<text text-anchor="middle" x="955" y="-289.5" font-family="Helvetica,sans-Serif" font-size="10.00" fill="#000000">Iterator&lt; Group, GrpIterator &gt;</text>
</a>
</g>
</g>
<!-- Node4&#45;&gt;Node3 -->
<g id="edge1" class="edge">
<title>Node4&#45;&gt;Node3</title>
<path fill="none" stroke="#191970" d="M1047.1834,-292C1056.1879,-292 1065.1701,-292 1073.7734,-292"/>
<polygon fill="#191970" stroke="#191970" points="1047.0267,-288.5001 1037.0267,-292 1047.0266,-295.5001 1047.0267,-288.5001"/>
</g>
<!-- Node5 -->
<g id="node3" class="node">
<title>Node5</title>
<polygon fill="#ffffff" stroke="#bfbfbf" points="677,-321 677,-351 802,-351 802,-321 677,-321"/>
<text text-anchor="start" x="685" y="-339" font-family="Helvetica,sans-Serif" font-size="10.00" fill="#000000">iterator&lt; std::forward</text>
<text text-anchor="middle" x="739.5" y="-328" font-family="Helvetica,sans-Serif" font-size="10.00" fill="#000000">_iterator_tag, Group &gt;</text>
</g>
<!-- Node5&#45;&gt;Node4 -->
<g id="edge2" class="edge">
<title>Node5&#45;&gt;Node4</title>
<path fill="none" stroke="#191970" d="M812.2525,-321.1457C843.9996,-314.6637 880.2939,-307.2532 908.3408,-301.5267"/>
<polygon fill="#191970" stroke="#191970" points="811.2187,-317.7845 802.121,-323.2143 812.6191,-324.643 811.2187,-317.7845"/>
</g>
<!-- Node6 -->
<g id="node4" class="node">
<title>Node6</title>
<g id="a_node4"><a xlink:href="classpkgCache.xhtml" target="_top" xlink:title="pkgCache">
<polygon fill="#ffffff" stroke="#000000" points="707,-282.5 707,-301.5 772,-301.5 772,-282.5 707,-282.5"/>
<text text-anchor="middle" x="739.5" y="-289.5" font-family="Helvetica,sans-Serif" font-size="10.00" fill="#000000">pkgCache</text>
</a>
</g>
</g>
<!-- Node6&#45;&gt;Node4 -->
<g id="edge3" class="edge">
<title>Node6&#45;&gt;Node4</title>
<path fill="none" stroke="#9a32cd" stroke-dasharray="5,2" d="M782.4489,-292C808.3355,-292 842.1611,-292 872.998,-292"/>
<polygon fill="#9a32cd" stroke="#9a32cd" points="782.2298,-288.5001 772.2298,-292 782.2298,-295.5001 782.2298,-288.5001"/>
<text text-anchor="middle" x="837.5" y="-295" font-family="Helvetica,sans-Serif" font-size="10.00" fill="#000000"> Owner</text>
</g>
<!-- Node7 -->
<g id="node5" class="node">
<title>Node7</title>
<g id="a_node5"><a xlink:href="structpkgCache_1_1DependencyData.xhtml" target="_top" xlink:title="information for a single dependency record ">
<polygon fill="#ffffff" stroke="#000000" points="477.5,-529.5 477.5,-548.5 578.5,-548.5 578.5,-529.5 477.5,-529.5"/>
<text text-anchor="middle" x="528" y="-536.5" font-family="Helvetica,sans-Serif" font-size="10.00" fill="#000000">DependencyData</text>
</a>
</g>
</g>
<!-- Node7&#45;&gt;Node6 -->
<g id="edge4" class="edge">
<title>Node7&#45;&gt;Node6</title>
<path fill="none" stroke="#9a32cd" stroke-dasharray="5,2" d="M588.9804,-540.9262C614.2455,-538.3582 641.6456,-530.5799 659,-511 688.4522,-477.7709 649.2303,-346.6475 677,-312 684.2676,-302.9325 695.6658,-297.9156 706.7494,-295.161"/>
<polygon fill="#9a32cd" stroke="#9a32cd" points="588.3969,-537.4604 578.6909,-541.7082 588.9274,-544.4402 588.3969,-537.4604"/>
<text text-anchor="middle" x="633" y="-540" font-family="Helvetica,sans-Serif" font-size="10.00" fill="#000000"> DepDataP</text>
</g>
<!-- Node8 -->
<g id="node6" class="node">
<title>Node8</title>
<g id="a_node6"><a xlink:href="structpkgCache_1_1Dependency.xhtml" target="_top" xlink:title="Dependency">
<polygon fill="#ffffff" stroke="#000000" points="489.5,-491.5 489.5,-510.5 566.5,-510.5 566.5,-491.5 489.5,-491.5"/>
<text text-anchor="middle" x="528" y="-498.5" font-family="Helvetica,sans-Serif" font-size="10.00" fill="#000000">Dependency</text>
</a>
</g>
</g>
<!-- Node8&#45;&gt;Node6 -->
<g id="edge5" class="edge">
<title>Node8&#45;&gt;Node6</title>
<path fill="none" stroke="#9a32cd" stroke-dasharray="5,2" d="M576.7669,-501.6051C604.9654,-499.1997 638.7657,-491.096 659,-468 704.9918,-415.5036 632.6825,-365.9172 677,-312 684.3788,-303.0228 695.7997,-298.0243 706.8702,-295.259"/>
<polygon fill="#9a32cd" stroke="#9a32cd" points="576.4232,-498.1198 566.6669,-502.2506 576.8698,-505.1055 576.4232,-498.1198"/>
<text text-anchor="middle" x="633" y="-499" font-family="Helvetica,sans-Serif" font-size="10.00" fill="#000000"> DepP</text>
</g>
<!-- Node9 -->
<g id="node7" class="node">
<title>Node9</title>
<g id="a_node7"><a xlink:href="structpkgCache_1_1Description.xhtml" target="_top" xlink:title="datamember of a linked list of available description for a version ">
<polygon fill="#ffffff" stroke="#000000" points="492,-453.5 492,-472.5 564,-472.5 564,-453.5 492,-453.5"/>
<text text-anchor="middle" x="528" y="-460.5" font-family="Helvetica,sans-Serif" font-size="10.00" fill="#000000">Description</text>
</a>
</g>
</g>
<!-- Node9&#45;&gt;Node6 -->
<g id="edge6" class="edge">
<title>Node9&#45;&gt;Node6</title>
<path fill="none" stroke="#9a32cd" stroke-dasharray="5,2" d="M574.2971,-461.1919C602.8621,-457.5315 637.9479,-447.9837 659,-424 692.2589,-386.1098 644.1283,-350.2267 677,-312 684.5024,-303.2755 695.8133,-298.322 706.7599,-295.5221"/>
<polygon fill="#9a32cd" stroke="#9a32cd" points="573.6737,-457.7388 564.1062,-462.29 574.4237,-464.6985 573.6737,-457.7388"/>
<text text-anchor="middle" x="633" y="-456" font-family="Helvetica,sans-Serif" font-size="10.00" fill="#000000"> DescP</text>
</g>
<!-- Node10 -->
<g id="node8" class="node">
<title>Node10</title>
<g id="a_node8"><a xlink:href="structpkgCache_1_1Header.xhtml" target="_top" xlink:title="Header">
<polygon fill="#ffffff" stroke="#000000" points="502,-415.5 502,-434.5 554,-434.5 554,-415.5 502,-415.5"/>
<text text-anchor="middle" x="528" y="-422.5" font-family="Helvetica,sans-Serif" font-size="10.00" fill="#000000">Header</text>
</a>
</g>
</g>
<!-- Node10&#45;&gt;Node6 -->
<g id="edge7" class="edge">
<title>Node10&#45;&gt;Node6</title>
<path fill="none" stroke="#9a32cd" stroke-dasharray="5,2" d="M564.2052,-421.4391C593.8946,-416.5797 634.8316,-405.1004 659,-378 679.2368,-355.3082 655.9728,-333.9613 677,-312 684.879,-303.771 696.1392,-298.9192 706.9369,-296.0617"/>
<polygon fill="#9a32cd" stroke="#9a32cd" points="563.6084,-417.989 554.2187,-422.8966 564.6193,-424.9157 563.6084,-417.989"/>
<text text-anchor="middle" x="633" y="-412" font-family="Helvetica,sans-Serif" font-size="10.00" fill="#000000"> HeaderP</text>
</g>
<!-- Node11 -->
<g id="node9" class="node">
<title>Node11</title>
<g id="a_node9"><a xlink:href="structDynamicMMap_1_1Pool.xhtml" target="_top" xlink:title="Pool">
<polygon fill="#ffffff" stroke="#000000" points="340,-415.5 340,-434.5 378,-434.5 378,-415.5 340,-415.5"/>
<text text-anchor="middle" x="359" y="-422.5" font-family="Helvetica,sans-Serif" font-size="10.00" fill="#000000">Pool</text>
</a>
</g>
</g>
<!-- Node11&#45;&gt;Node10 -->
<g id="edge8" class="edge">
<title>Node11&#45;&gt;Node10</title>
<path fill="none" stroke="#9a32cd" stroke-dasharray="5,2" d="M388.1285,-425C420.1301,-425 471.0611,-425 501.8334,-425"/>
<polygon fill="#9a32cd" stroke="#9a32cd" points="388.058,-421.5001 378.0579,-425 388.0579,-428.5001 388.058,-421.5001"/>
<text text-anchor="middle" x="424" y="-428" font-family="Helvetica,sans-Serif" font-size="10.00" fill="#000000"> Pools</text>
</g>
<!-- Node12 -->
<g id="node10" class="node">
<title>Node12</title>
<g id="a_node10"><a xlink:href="structpkgCache_1_1PackageFile.xhtml" target="_top" xlink:title="stores information about the files used to generate the cache ">
<polygon fill="#ffffff" stroke="#000000" points="491,-377.5 491,-396.5 565,-396.5 565,-377.5 491,-377.5"/>
<text text-anchor="middle" x="528" y="-384.5" font-family="Helvetica,sans-Serif" font-size="10.00" fill="#000000">PackageFile</text>
</a>
</g>
</g>
<!-- Node12&#45;&gt;Node6 -->
<g id="edge9" class="edge">
<title>Node12&#45;&gt;Node6</title>
<path fill="none" stroke="#9a32cd" stroke-dasharray="5,2" d="M568.5327,-374.391C575.3657,-372.2608 582.3854,-370.0696 589,-368 620.1236,-358.262 633.936,-366.8639 659,-346 672.141,-335.0611 663.8875,-322.973 677,-312 685.475,-304.9079 696.5006,-300.3189 706.9273,-297.3543"/>
<polygon fill="#9a32cd" stroke="#9a32cd" points="567.2303,-371.1307 558.7242,-377.447 569.3126,-377.8139 567.2303,-371.1307"/>
<text text-anchor="middle" x="633" y="-366" font-family="Helvetica,sans-Serif" font-size="10.00" fill="#000000"> PkgFileP</text>
</g>
<!-- Node13 -->
<g id="node11" class="node">
<title>Node13</title>
<g id="a_node11"><a xlink:href="structpkgCache_1_1ReleaseFile.xhtml" target="_top" xlink:title="stores information about the release files used to generate the cache ">
<polygon fill="#ffffff" stroke="#000000" points="492.5,-339.5 492.5,-358.5 563.5,-358.5 563.5,-339.5 492.5,-339.5"/>
<text text-anchor="middle" x="528" y="-346.5" font-family="Helvetica,sans-Serif" font-size="10.00" fill="#000000">ReleaseFile</text>
</a>
</g>
</g>
<!-- Node13&#45;&gt;Node6 -->
<g id="edge10" class="edge">
<title>Node13&#45;&gt;Node6</title>
<path fill="none" stroke="#9a32cd" stroke-dasharray="5,2" d="M573.5799,-339.2657C598.8841,-333.5987 630.8452,-326.0064 659,-318 667.1112,-315.6934 668.9841,-314.6184 677,-312 687.5047,-308.5686 699.0219,-304.8662 709.2762,-301.5907"/>
<polygon fill="#9a32cd" stroke="#9a32cd" points="572.5326,-335.9128 563.5273,-341.4944 574.0478,-342.7469 572.5326,-335.9128"/>
<text text-anchor="middle" x="633" y="-334" font-family="Helvetica,sans-Serif" font-size="10.00" fill="#000000"> RlsFileP</text>
</g>
<!-- Node14 -->
<g id="node12" class="node">
<title>Node14</title>
<g id="a_node12"><a xlink:href="structpkgCache_1_1DescFile.xhtml" target="_top" xlink:title="associates a description with a Translation file ">
<polygon fill="#ffffff" stroke="#000000" points="499.5,-301.5 499.5,-320.5 556.5,-320.5 556.5,-301.5 499.5,-301.5"/>
<text text-anchor="middle" x="528" y="-308.5" font-family="Helvetica,sans-Serif" font-size="10.00" fill="#000000">DescFile</text>
</a>
</g>
</g>
<!-- Node14&#45;&gt;Node6 -->
<g id="edge11" class="edge">
<title>Node14&#45;&gt;Node6</title>
<path fill="none" stroke="#9a32cd" stroke-dasharray="5,2" d="M566.489,-307.5424C606.6967,-303.9303 669.0816,-298.326 706.9293,-294.926"/>
<polygon fill="#9a32cd" stroke="#9a32cd" points="566.1705,-304.0568 556.5238,-308.4376 566.7969,-311.0287 566.1705,-304.0568"/>
<text text-anchor="middle" x="633" y="-306" font-family="Helvetica,sans-Serif" font-size="10.00" fill="#000000"> DescFileP</text>
</g>
<!-- Node15 -->
<g id="node13" class="node">
<title>Node15</title>
<g id="a_node13"><a xlink:href="structpkgCache_1_1Provides.xhtml" target="_top" xlink:title="handles virtual packages ">
<polygon fill="#ffffff" stroke="#000000" points="498.5,-263.5 498.5,-282.5 557.5,-282.5 557.5,-263.5 498.5,-263.5"/>
<text text-anchor="middle" x="528" y="-270.5" font-family="Helvetica,sans-Serif" font-size="10.00" fill="#000000">Provides</text>
</a>
</g>
</g>
<!-- Node15&#45;&gt;Node6 -->
<g id="edge12" class="edge">
<title>Node15&#45;&gt;Node6</title>
<path fill="none" stroke="#9a32cd" stroke-dasharray="5,2" d="M567.8736,-276.1891C593.8369,-278.3049 628.4373,-281.1984 659,-284 674.6642,-285.4359 692.0304,-287.1467 706.6112,-288.6169"/>
<polygon fill="#9a32cd" stroke="#9a32cd" points="567.9174,-272.6812 557.6671,-275.3611 567.3513,-279.6583 567.9174,-272.6812"/>
<text text-anchor="middle" x="633" y="-287" font-family="Helvetica,sans-Serif" font-size="10.00" fill="#000000"> ProvideP</text>
</g>
<!-- Node16 -->
<g id="node14" class="node">
<title>Node16</title>
<g id="a_node14"><a xlink:title="STL class. ">
<polygon fill="#ffffff" stroke="#bfbfbf" points="156,-206.5 156,-225.5 200,-225.5 200,-206.5 156,-206.5"/>
<text text-anchor="middle" x="178" y="-213.5" font-family="Helvetica,sans-Serif" font-size="10.00" fill="#000000">string</text>
</a>
</g>
</g>
<!-- Node16&#45;&gt;Node6 -->
<g id="edge13" class="edge">
<title>Node16&#45;&gt;Node6</title>
<path fill="none" stroke="#9a32cd" stroke-dasharray="5,2" d="M210.6041,-220.1731C213.1056,-220.4634 215.5927,-220.7426 218,-221 382.6014,-238.6025 425.7912,-226.3169 589,-254 630.5805,-261.0528 677.5675,-273.6839 707.8112,-282.4371"/>
<polygon fill="#9a32cd" stroke="#9a32cd" points="210.7558,-216.6661 200.4087,-218.9439 209.9179,-223.6158 210.7558,-216.6661"/>
<text text-anchor="middle" x="424" y="-239" font-family="Helvetica,sans-Serif" font-size="10.00" fill="#000000"> CacheFile</text>
</g>
<!-- Node24 -->
<g id="node22" class="node">
<title>Node24</title>
<g id="a_node22"><a xlink:href="classFileFd.xhtml" target="_top" xlink:title="FileFd">
<polygon fill="#ffffff" stroke="#000000" points="337,-187.5 337,-206.5 381,-206.5 381,-187.5 337,-187.5"/>
<text text-anchor="middle" x="359" y="-194.5" font-family="Helvetica,sans-Serif" font-size="10.00" fill="#000000">FileFd</text>
</a>
</g>
</g>
<!-- Node16&#45;&gt;Node24 -->
<g id="edge23" class="edge">
<title>Node16&#45;&gt;Node24</title>
<path fill="none" stroke="#9a32cd" stroke-dasharray="5,2" d="M205.8134,-202.577C209.8246,-201.1162 213.9625,-199.8522 218,-199 259.2006,-190.3034 308.6875,-192.39 336.7274,-194.6957"/>
<polygon fill="#9a32cd" stroke="#9a32cd" points="204.1663,-199.469 196.2332,-206.4915 206.8141,-205.949 204.1663,-199.469"/>
<text text-anchor="middle" x="268.5" y="-213" font-family="Helvetica,sans-Serif" font-size="10.00" fill="#000000"> TemporaryFileName</text>
<text text-anchor="middle" x="268.5" y="-202" font-family="Helvetica,sans-Serif" font-size="10.00" fill="#000000">FileName</text>
</g>
<!-- Node17 -->
<g id="node15" class="node">
<title>Node17</title>
<g id="a_node15"><a xlink:title="STL class. ">
<polygon fill="#ffffff" stroke="#bfbfbf" points="0,-206.5 0,-225.5 119,-225.5 119,-206.5 0,-206.5"/>
<text text-anchor="middle" x="59.5" y="-213.5" font-family="Helvetica,sans-Serif" font-size="10.00" fill="#000000">basic_string&lt; char &gt;</text>
</a>
</g>
</g>
<!-- Node17&#45;&gt;Node16 -->
<g id="edge14" class="edge">
<title>Node17&#45;&gt;Node16</title>
<path fill="none" stroke="#191970" d="M129.2118,-216C138.8284,-216 148.0652,-216 155.8653,-216"/>
<polygon fill="#191970" stroke="#191970" points="129.0972,-212.5001 119.0972,-216 129.0971,-219.5001 129.0972,-212.5001"/>
</g>
<!-- Node18 -->
<g id="node16" class="node">
<title>Node18</title>
<g id="a_node16"><a xlink:href="structpkgCache_1_1Group.xhtml" target="_top" xlink:title="groups architecture depending packages together ">
<polygon fill="#ffffff" stroke="#000000" points="505,-.5 505,-19.5 551,-19.5 551,-.5 505,-.5"/>
<text text-anchor="middle" x="528" y="-7.5" font-family="Helvetica,sans-Serif" font-size="10.00" fill="#000000">Group</text>
</a>
</g>
</g>
<!-- Node18&#45;&gt;Node4 -->
<g id="edge24" class="edge">
<title>Node18&#45;&gt;Node4</title>
<path fill="none" stroke="#9a32cd" stroke-dasharray="5,2" d="M561.5559,-6.3363C588.9074,-4.7245 627.9488,-5.6223 659,-19 801.8525,-80.5448 919.9872,-241.3331 948.459,-282.3605"/>
<polygon fill="#9a32cd" stroke="#9a32cd" points="561.0445,-2.8643 551.3278,-7.0875 561.5573,-9.8455 561.0445,-2.8643"/>
<text text-anchor="middle" x="739.5" y="-117" font-family="Helvetica,sans-Serif" font-size="10.00" fill="#000000"> S</text>
</g>
<!-- Node18&#45;&gt;Node6 -->
<g id="edge15" class="edge">
<title>Node18&#45;&gt;Node6</title>
<path fill="none" stroke="#9a32cd" stroke-dasharray="5,2" d="M561.3039,-12.3805C590.6884,-16.2052 632.8058,-26.1536 659,-52 727.1969,-119.2913 737.6212,-246.0152 739.2133,-282.1537"/>
<polygon fill="#9a32cd" stroke="#9a32cd" points="561.4365,-8.8733 551.1072,-11.2303 560.6518,-15.8292 561.4365,-8.8733"/>
<text text-anchor="middle" x="633" y="-55" font-family="Helvetica,sans-Serif" font-size="10.00" fill="#000000"> GrpP</text>
</g>
<!-- Node19 -->
<g id="node17" class="node">
<title>Node19</title>
<g id="a_node17"><a xlink:href="classpkgVersioningSystem.xhtml" target="_top" xlink:title="pkgVersioningSystem">
<polygon fill="#ffffff" stroke="#000000" points="467,-120.5 467,-139.5 589,-139.5 589,-120.5 467,-120.5"/>
<text text-anchor="middle" x="528" y="-127.5" font-family="Helvetica,sans-Serif" font-size="10.00" fill="#000000">pkgVersioningSystem</text>
</a>
</g>
</g>
<!-- Node19&#45;&gt;Node6 -->
<g id="edge16" class="edge">
<title>Node19&#45;&gt;Node6</title>
<path fill="none" stroke="#9a32cd" stroke-dasharray="5,2" d="M579.0579,-142.4414C604.8348,-150.4785 635.5291,-162.8854 659,-181 696.502,-209.9436 724.3433,-260.9622 734.8822,-282.2465"/>
<polygon fill="#9a32cd" stroke="#9a32cd" points="580.028,-139.0785 569.4447,-139.5723 578.026,-145.7861 580.028,-139.0785"/>
<text text-anchor="middle" x="633" y="-184" font-family="Helvetica,sans-Serif" font-size="10.00" fill="#000000"> VS</text>
</g>
<!-- Node19&#45;&gt;Node19 -->
<g id="edge17" class="edge">
<title>Node19&#45;&gt;Node19</title>
<path fill="none" stroke="#9a32cd" stroke-dasharray="5,2" d="M508.7417,-149.4C510.0278,-154.3146 516.4473,-158 528,-158 546.4844,-158 551.8275,-148.5653 544.0294,-139.7571"/>
<polygon fill="#9a32cd" stroke="#9a32cd" points="512.1142,-150.3509 511.9706,-139.7571 505.4765,-148.1283 512.1142,-150.3509"/>
<text text-anchor="middle" x="528" y="-161" font-family="Helvetica,sans-Serif" font-size="10.00" fill="#000000"> GlobalList</text>
</g>
<!-- Node20 -->
<g id="node18" class="node">
<title>Node20</title>
<g id="a_node18"><a xlink:href="structpkgCache_1_1Version.xhtml" target="_top" xlink:title="information for a single version of a package ">
<polygon fill="#ffffff" stroke="#000000" points="501.5,-82.5 501.5,-101.5 554.5,-101.5 554.5,-82.5 501.5,-82.5"/>
<text text-anchor="middle" x="528" y="-89.5" font-family="Helvetica,sans-Serif" font-size="10.00" fill="#000000">Version</text>
</a>
</g>
</g>
<!-- Node20&#45;&gt;Node6 -->
<g id="edge18" class="edge">
<title>Node20&#45;&gt;Node6</title>
<path fill="none" stroke="#9a32cd" stroke-dasharray="5,2" d="M564.6726,-97.0902C593.3185,-102.7487 632.572,-114.4141 659,-138 705.8173,-179.7824 729.6991,-255.3325 737.0088,-282.1948"/>
<polygon fill="#9a32cd" stroke="#9a32cd" points="565.107,-93.6119 554.6421,-95.2663 563.8546,-100.499 565.107,-93.6119"/>
<text text-anchor="middle" x="633" y="-141" font-family="Helvetica,sans-Serif" font-size="10.00" fill="#000000"> VerP</text>
</g>
<!-- Node21 -->
<g id="node19" class="node">
<title>Node21</title>
<g id="a_node19"><a xlink:href="structpkgCache_1_1VerFile.xhtml" target="_top" xlink:title="associates a version with a PackageFile ">
<polygon fill="#ffffff" stroke="#000000" points="503.5,-44.5 503.5,-63.5 552.5,-63.5 552.5,-44.5 503.5,-44.5"/>
<text text-anchor="middle" x="528" y="-51.5" font-family="Helvetica,sans-Serif" font-size="10.00" fill="#000000">VerFile</text>
</a>
</g>
</g>
<!-- Node21&#45;&gt;Node6 -->
<g id="edge19" class="edge">
<title>Node21&#45;&gt;Node6</title>
<path fill="none" stroke="#9a32cd" stroke-dasharray="5,2" d="M562.6923,-56.7421C591.7192,-60.7561 632.523,-70.6443 659,-95 717.1904,-148.5283 734.3464,-250.2259 738.4095,-282.1546"/>
<polygon fill="#9a32cd" stroke="#9a32cd" points="562.9286,-53.2451 552.5793,-55.5131 562.084,-60.194 562.9286,-53.2451"/>
<text text-anchor="middle" x="633" y="-98" font-family="Helvetica,sans-Serif" font-size="10.00" fill="#000000"> VerFileP</text>
</g>
<!-- Node22 -->
<g id="node20" class="node">
<title>Node22</title>
<g id="a_node20"><a xlink:href="structpkgCache_1_1Package.xhtml" target="_top" xlink:title="contains information for a single unique package ">
<polygon fill="#ffffff" stroke="#000000" points="499.5,-567.5 499.5,-586.5 556.5,-586.5 556.5,-567.5 499.5,-567.5"/>
<text text-anchor="middle" x="528" y="-574.5" font-family="Helvetica,sans-Serif" font-size="10.00" fill="#000000">Package</text>
</a>
</g>
</g>
<!-- Node22&#45;&gt;Node6 -->
<g id="edge20" class="edge">
<title>Node22&#45;&gt;Node6</title>
<path fill="none" stroke="#9a32cd" stroke-dasharray="5,2" d="M566.6074,-581.0722C596.4275,-581.8782 636.3165,-577.4215 659,-552 694.6081,-512.0938 643.8726,-353.9883 677,-312 684.2683,-302.7875 695.8055,-297.7506 706.9997,-295.0205"/>
<polygon fill="#9a32cd" stroke="#9a32cd" points="566.6791,-577.5717 556.5243,-580.5933 566.347,-584.5638 566.6791,-577.5717"/>
<text text-anchor="middle" x="633" y="-580" font-family="Helvetica,sans-Serif" font-size="10.00" fill="#000000"> PkgP</text>
</g>
<!-- Node23 -->
<g id="node21" class="node">
<title>Node23</title>
<g id="a_node21"><a xlink:href="classMMap.xhtml" target="_top" xlink:title="MMap">
<polygon fill="#ffffff" stroke="#000000" points="505.5,-187.5 505.5,-206.5 550.5,-206.5 550.5,-187.5 505.5,-187.5"/>
<text text-anchor="middle" x="528" y="-194.5" font-family="Helvetica,sans-Serif" font-size="10.00" fill="#000000">MMap</text>
</a>
</g>
</g>
<!-- Node23&#45;&gt;Node6 -->
<g id="edge21" class="edge">
<title>Node23&#45;&gt;Node6</title>
<path fill="none" stroke="#9a32cd" stroke-dasharray="5,2" d="M560.8345,-194.2239C588.3801,-193.2688 628.0666,-195.1805 659,-210 693.5437,-226.5491 721.5531,-264.3996 733.3988,-282.2905"/>
<polygon fill="#9a32cd" stroke="#9a32cd" points="560.3705,-190.7424 550.5556,-194.7323 560.7164,-197.7339 560.3705,-190.7424"/>
<text text-anchor="middle" x="633" y="-213" font-family="Helvetica,sans-Serif" font-size="10.00" fill="#000000"> Map</text>
</g>
<!-- Node24&#45;&gt;Node23 -->
<g id="edge22" class="edge">
<title>Node24&#45;&gt;Node23</title>
<path fill="none" stroke="#9a32cd" stroke-dasharray="5,2" d="M391.2616,-197C424.6753,-197 476.0218,-197 505.3614,-197"/>
<polygon fill="#9a32cd" stroke="#9a32cd" points="391.0938,-193.5001 381.0938,-197 391.0938,-200.5001 391.0938,-193.5001"/>
<text text-anchor="middle" x="424" y="-200" font-family="Helvetica,sans-Serif" font-size="10.00" fill="#000000"> SyncToFd</text>
</g>
</g>
</svg>
