<?xml version="1.0" encoding="UTF-8" standalone="no"?>
<!DOCTYPE svg PUBLIC "-//W3C//DTD SVG 1.1//EN"
 "http://www.w3.org/Graphics/SVG/1.1/DTD/svg11.dtd">
<!-- Generated by graphviz version 2.40.1 (20161225.0304)
 -->
<!-- Title: OpTextProgress Pages: 1 -->
<svg width="176pt" height="220pt"
 viewBox="0.00 0.00 175.50 220.00" xmlns="http://www.w3.org/2000/svg" xmlns:xlink="http://www.w3.org/1999/xlink">
<g id="graph0" class="graph" transform="scale(1 1) rotate(0) translate(4 216)">
<title>OpTextProgress</title>
<polygon fill="#ffffff" stroke="transparent" points="-4,4 -4,-216 171.5,-216 171.5,4 -4,4"/>
<!-- Node2 -->
<g id="node1" class="node">
<title>Node2</title>
<polygon fill="#bfbfbf" stroke="#000000" points="9.5,-.5 9.5,-19.5 101.5,-19.5 101.5,-.5 9.5,-.5"/>
<text text-anchor="middle" x="55.5" y="-7.5" font-family="Helvetica,sans-Serif" font-size="10.00" fill="#000000">OpTextProgress</text>
</g>
<!-- Node3 -->
<g id="node2" class="node">
<title>Node3</title>
<g id="a_node2"><a xlink:href="classOpProgress.xhtml" target="_top" xlink:title="OpProgress">
<polygon fill="#ffffff" stroke="#000000" points="95.5,-57.5 95.5,-76.5 167.5,-76.5 167.5,-57.5 95.5,-57.5"/>
<text text-anchor="middle" x="131.5" y="-64.5" font-family="Helvetica,sans-Serif" font-size="10.00" fill="#000000">OpProgress</text>
</a>
</g>
</g>
<!-- Node3&#45;&gt;Node2 -->
<g id="edge1" class="edge">
<title>Node3&#45;&gt;Node2</title>
<path fill="none" stroke="#191970" d="M110.3211,-51.1158C96.782,-40.9615 79.6738,-28.1303 68.202,-19.5265"/>
<polygon fill="#191970" stroke="#191970" points="108.5076,-54.1307 118.6076,-57.3307 112.7076,-48.5307 108.5076,-54.1307"/>
</g>
<!-- Node4 -->
<g id="node3" class="node">
<title>Node4</title>
<g id="a_node3"><a xlink:title="STL class. ">
<polygon fill="#ffffff" stroke="#bfbfbf" points="37.5,-135.5 37.5,-154.5 81.5,-154.5 81.5,-135.5 37.5,-135.5"/>
<text text-anchor="middle" x="59.5" y="-142.5" font-family="Helvetica,sans-Serif" font-size="10.00" fill="#000000">string</text>
</a>
</g>
</g>
<!-- Node4&#45;&gt;Node2 -->
<g id="edge4" class="edge">
<title>Node4&#45;&gt;Node2</title>
<path fill="none" stroke="#9a32cd" stroke-dasharray="5,2" d="M56.9267,-125.2539C55.2939,-111.7045 53.3366,-93.297 52.5,-77 52.0443,-68.1228 52.2167,-65.8844 52.5,-57 52.9117,-44.088 53.9579,-29.211 54.6987,-19.713"/>
<polygon fill="#9a32cd" stroke="#9a32cd" points="53.4742,-125.8525 58.1902,-135.3399 60.42,-124.9823 53.4742,-125.8525"/>
<text text-anchor="middle" x="69.5" y="-64.5" font-family="Helvetica,sans-Serif" font-size="10.00" fill="#000000"> OldOp</text>
</g>
<!-- Node4&#45;&gt;Node3 -->
<g id="edge2" class="edge">
<title>Node4&#45;&gt;Node3</title>
<path fill="none" stroke="#9a32cd" stroke-dasharray="5,2" d="M75.243,-127.9451C89.7605,-112.2178 110.7939,-89.4316 122.5992,-76.6426"/>
<polygon fill="#9a32cd" stroke="#9a32cd" points="72.5396,-125.7136 68.3286,-135.4357 77.6833,-130.4616 72.5396,-125.7136"/>
<text text-anchor="middle" x="121" y="-109" font-family="Helvetica,sans-Serif" font-size="10.00" fill="#000000"> SubOp</text>
<text text-anchor="middle" x="121" y="-98" font-family="Helvetica,sans-Serif" font-size="10.00" fill="#000000">Op</text>
</g>
<!-- Node5 -->
<g id="node4" class="node">
<title>Node5</title>
<g id="a_node4"><a xlink:title="STL class. ">
<polygon fill="#ffffff" stroke="#bfbfbf" points="0,-192.5 0,-211.5 119,-211.5 119,-192.5 0,-192.5"/>
<text text-anchor="middle" x="59.5" y="-199.5" font-family="Helvetica,sans-Serif" font-size="10.00" fill="#000000">basic_string&lt; char &gt;</text>
</a>
</g>
</g>
<!-- Node5&#45;&gt;Node4 -->
<g id="edge3" class="edge">
<title>Node5&#45;&gt;Node4</title>
<path fill="none" stroke="#191970" d="M59.5,-182.2342C59.5,-172.8491 59.5,-162.0651 59.5,-154.5265"/>
<polygon fill="#191970" stroke="#191970" points="56.0001,-182.3307 59.5,-192.3307 63.0001,-182.3308 56.0001,-182.3307"/>
</g>
</g>
</svg>
