<?xml version="1.0" encoding="UTF-8" standalone="no"?>
<!DOCTYPE svg PUBLIC "-//W3C//DTD SVG 1.1//EN"
 "http://www.w3.org/Graphics/SVG/1.1/DTD/svg11.dtd">
<!-- Generated by graphviz version 2.40.1 (20161225.0304)
 -->
<!-- Title: pkgCache::DescFileIterator Pages: 1 -->
<svg width="155pt" height="162pt"
 viewBox="0.00 0.00 155.00 162.00" xmlns="http://www.w3.org/2000/svg" xmlns:xlink="http://www.w3.org/1999/xlink">
<g id="graph0" class="graph" transform="scale(1 1) rotate(0) translate(4 158)">
<title>pkgCache::DescFileIterator</title>
<polygon fill="#ffffff" stroke="transparent" points="-4,4 -4,-158 151,-158 151,4 -4,4"/>
<!-- Node0 -->
<g id="node1" class="node">
<title>Node0</title>
<polygon fill="#bfbfbf" stroke="#000000" points="0,-.5 0,-19.5 147,-19.5 147,-.5 0,-.5"/>
<text text-anchor="middle" x="73.5" y="-7.5" font-family="Helvetica,sans-Serif" font-size="10.00" fill="#000000">pkgCache::DescFileIterator</text>
</g>
<!-- Node1 -->
<g id="node2" class="node">
<title>Node1</title>
<g id="a_node2"><a xlink:href="classpkgCache_1_1Iterator.xhtml" target="_top" xlink:title="Iterator\&lt; DescFile,\l DescFileIterator \&gt;">
<polygon fill="#ffffff" stroke="#000000" points="20,-56.5 20,-86.5 127,-86.5 127,-56.5 20,-56.5"/>
<text text-anchor="start" x="28" y="-74.5" font-family="Helvetica,sans-Serif" font-size="10.00" fill="#000000">Iterator&lt; DescFile,</text>
<text text-anchor="middle" x="73.5" y="-63.5" font-family="Helvetica,sans-Serif" font-size="10.00" fill="#000000"> DescFileIterator &gt;</text>
</a>
</g>
</g>
<!-- Node1&#45;&gt;Node0 -->
<g id="edge1" class="edge">
<title>Node1&#45;&gt;Node0</title>
<path fill="none" stroke="#191970" d="M73.5,-46.2849C73.5,-36.9858 73.5,-26.9883 73.5,-19.8469"/>
<polygon fill="#191970" stroke="#191970" points="70.0001,-46.2977 73.5,-56.2977 77.0001,-46.2978 70.0001,-46.2977"/>
</g>
<!-- Node2 -->
<g id="node3" class="node">
<title>Node2</title>
<polygon fill="#ffffff" stroke="#bfbfbf" points="5,-123.5 5,-153.5 142,-153.5 142,-123.5 5,-123.5"/>
<text text-anchor="start" x="13" y="-141.5" font-family="Helvetica,sans-Serif" font-size="10.00" fill="#000000">iterator&lt; std::forward</text>
<text text-anchor="middle" x="73.5" y="-130.5" font-family="Helvetica,sans-Serif" font-size="10.00" fill="#000000">_iterator_tag, DescFile &gt;</text>
</g>
<!-- Node2&#45;&gt;Node1 -->
<g id="edge2" class="edge">
<title>Node2&#45;&gt;Node1</title>
<path fill="none" stroke="#191970" d="M73.5,-113.0249C73.5,-104.128 73.5,-94.4287 73.5,-86.6432"/>
<polygon fill="#191970" stroke="#191970" points="70.0001,-113.2966 73.5,-123.2967 77.0001,-113.2967 70.0001,-113.2966"/>
</g>
</g>
</svg>
