<?xml version="1.0" encoding="UTF-8" standalone="no"?>
<!DOCTYPE svg PUBLIC "-//W3C//DTD SVG 1.1//EN"
 "http://www.w3.org/Graphics/SVG/1.1/DTD/svg11.dtd">
<!-- Generated by graphviz version 2.40.1 (20161225.0304)
 -->
<!-- Title: pkgDPkgPMPrivate Pages: 1 -->
<svg width="225pt" height="219pt"
 viewBox="0.00 0.00 225.00 219.00" xmlns="http://www.w3.org/2000/svg" xmlns:xlink="http://www.w3.org/1999/xlink">
<g id="graph0" class="graph" transform="scale(1 1) rotate(0) translate(4 215)">
<title>pkgDPkgPMPrivate</title>
<polygon fill="#ffffff" stroke="transparent" points="-4,4 -4,-215 221,-215 221,4 -4,4"/>
<!-- Node1 -->
<g id="node1" class="node">
<title>Node1</title>
<polygon fill="#bfbfbf" stroke="#000000" points="5,-.5 5,-19.5 114,-19.5 114,-.5 5,-.5"/>
<text text-anchor="middle" x="59.5" y="-7.5" font-family="Helvetica,sans-Serif" font-size="10.00" fill="#000000">pkgDPkgPMPrivate</text>
</g>
<!-- Node2 -->
<g id="node2" class="node">
<title>Node2</title>
<g id="a_node2"><a xlink:href="classAPT_1_1Progress_1_1PackageManager.xhtml" target="_top" xlink:title="PackageManager">
<polygon fill="#ffffff" stroke="#000000" points="118,-67.5 118,-86.5 217,-86.5 217,-67.5 118,-67.5"/>
<text text-anchor="middle" x="167.5" y="-74.5" font-family="Helvetica,sans-Serif" font-size="10.00" fill="#000000">PackageManager</text>
</a>
</g>
</g>
<!-- Node2&#45;&gt;Node1 -->
<g id="edge1" class="edge">
<title>Node2&#45;&gt;Node1</title>
<path fill="none" stroke="#9a32cd" stroke-dasharray="5,2" d="M143.3802,-62.0368C122.4633,-49.0605 92.8167,-30.6687 74.9451,-19.5817"/>
<polygon fill="#9a32cd" stroke="#9a32cd" points="141.6835,-65.103 152.0262,-67.4005 145.3737,-59.1546 141.6835,-65.103"/>
<text text-anchor="middle" x="142.5" y="-41" font-family="Helvetica,sans-Serif" font-size="10.00" fill="#000000"> progress</text>
</g>
<!-- Node3 -->
<g id="node3" class="node">
<title>Node3</title>
<g id="a_node3"><a xlink:title="STL class. ">
<polygon fill="#ffffff" stroke="#bfbfbf" points="37.5,-134.5 37.5,-153.5 81.5,-153.5 81.5,-134.5 37.5,-134.5"/>
<text text-anchor="middle" x="59.5" y="-141.5" font-family="Helvetica,sans-Serif" font-size="10.00" fill="#000000">string</text>
</a>
</g>
</g>
<!-- Node3&#45;&gt;Node1 -->
<g id="edge4" class="edge">
<title>Node3&#45;&gt;Node1</title>
<path fill="none" stroke="#9a32cd" stroke-dasharray="5,2" d="M56.513,-124.0252C54.5367,-108.4922 52.482,-86.3948 53.5,-67 54.3762,-50.3061 56.6864,-30.9751 58.1711,-19.6577"/>
<polygon fill="#9a32cd" stroke="#9a32cd" points="53.061,-124.6143 57.8931,-134.043 59.9955,-123.6589 53.061,-124.6143"/>
<text text-anchor="middle" x="81.5" y="-74.5" font-family="Helvetica,sans-Serif" font-size="10.00" fill="#000000"> dpkg_error</text>
</g>
<!-- Node3&#45;&gt;Node2 -->
<g id="edge2" class="edge">
<title>Node3&#45;&gt;Node2</title>
<path fill="none" stroke="#9a32cd" stroke-dasharray="5,2" d="M83.6198,-129.0368C104.5367,-116.0605 134.1833,-97.6687 152.0549,-86.5817"/>
<polygon fill="#9a32cd" stroke="#9a32cd" points="81.6263,-126.1546 74.9738,-134.4005 85.3165,-132.103 81.6263,-126.1546"/>
<text text-anchor="middle" x="151.5" y="-108" font-family="Helvetica,sans-Serif" font-size="10.00" fill="#000000"> progress_str</text>
</g>
<!-- Node4 -->
<g id="node4" class="node">
<title>Node4</title>
<g id="a_node4"><a xlink:title="STL class. ">
<polygon fill="#ffffff" stroke="#bfbfbf" points="0,-191.5 0,-210.5 119,-210.5 119,-191.5 0,-191.5"/>
<text text-anchor="middle" x="59.5" y="-198.5" font-family="Helvetica,sans-Serif" font-size="10.00" fill="#000000">basic_string&lt; char &gt;</text>
</a>
</g>
</g>
<!-- Node4&#45;&gt;Node3 -->
<g id="edge3" class="edge">
<title>Node4&#45;&gt;Node3</title>
<path fill="none" stroke="#191970" d="M59.5,-181.2342C59.5,-171.8491 59.5,-161.0651 59.5,-153.5265"/>
<polygon fill="#191970" stroke="#191970" points="56.0001,-181.3307 59.5,-191.3307 63.0001,-181.3308 56.0001,-181.3307"/>
</g>
</g>
</svg>
