<?xml version="1.0" encoding="UTF-8" standalone="no"?>
<!DOCTYPE svg PUBLIC "-//W3C//DTD SVG 1.1//EN"
 "http://www.w3.org/Graphics/SVG/1.1/DTD/svg11.dtd">
<!-- Generated by graphviz version 2.40.1 (20161225.0304)
 -->
<!-- Title: pkgDPkgPM Pages: 1 -->
<svg width="1854pt" height="865pt"
 viewBox="0.00 0.00 1854.00 865.00" xmlns="http://www.w3.org/2000/svg" xmlns:xlink="http://www.w3.org/1999/xlink">
<g id="graph0" class="graph" transform="scale(1 1) rotate(0) translate(4 861)">
<title>pkgDPkgPM</title>
<polygon fill="#ffffff" stroke="transparent" points="-4,4 -4,-861 1850,-861 1850,4 -4,4"/>
<!-- Node3 -->
<g id="node1" class="node">
<title>Node3</title>
<polygon fill="#bfbfbf" stroke="#000000" points="1772,-174 1772,-193 1846,-193 1846,-174 1772,-174"/>
<text text-anchor="middle" x="1809" y="-181" font-family="Helvetica,sans-Serif" font-size="10.00" fill="#000000">pkgDPkgPM</text>
</g>
<!-- Node4 -->
<g id="node2" class="node">
<title>Node4</title>
<g id="a_node2"><a xlink:href="classpkgPackageManager.xhtml" target="_top" xlink:title="pkgPackageManager">
<polygon fill="#ffffff" stroke="#000000" points="1618,-252 1618,-271 1735,-271 1735,-252 1618,-252"/>
<text text-anchor="middle" x="1676.5" y="-259" font-family="Helvetica,sans-Serif" font-size="10.00" fill="#000000">pkgPackageManager</text>
</a>
</g>
</g>
<!-- Node4&#45;&gt;Node3 -->
<g id="edge1" class="edge">
<title>Node4&#45;&gt;Node3</title>
<path fill="none" stroke="#191970" d="M1701.5226,-246.7697C1728.2382,-231.0428 1769.7988,-206.5769 1792.62,-193.1426"/>
<polygon fill="#191970" stroke="#191970" points="1699.5892,-243.8464 1692.7471,-251.9357 1703.1404,-249.8788 1699.5892,-243.8464"/>
</g>
<!-- Node5 -->
<g id="node3" class="node">
<title>Node5</title>
<g id="a_node3"><a xlink:href="classpkgCache_1_1Namespace.xhtml" target="_top" xlink:title="Namespace">
<polygon fill="#ffffff" stroke="#000000" points="1060,-267 1060,-286 1134,-286 1134,-267 1060,-267"/>
<text text-anchor="middle" x="1097" y="-274" font-family="Helvetica,sans-Serif" font-size="10.00" fill="#000000">Namespace</text>
</a>
</g>
</g>
<!-- Node5&#45;&gt;Node4 -->
<g id="edge2" class="edge">
<title>Node5&#45;&gt;Node4</title>
<path fill="none" stroke="#006400" d="M1144.444,-275.2719C1249.7135,-272.5471 1502.5915,-266.0015 1617.6792,-263.0225"/>
<polygon fill="#006400" stroke="#006400" points="1144.0379,-271.7812 1134.1319,-275.5389 1144.2191,-278.7788 1144.0379,-271.7812"/>
</g>
<!-- Node6 -->
<g id="node4" class="node">
<title>Node6</title>
<g id="a_node4"><a xlink:href="classpkgOrderList.xhtml" target="_top" xlink:title="pkgOrderList">
<polygon fill="#ffffff" stroke="#000000" points="1477.5,-216 1477.5,-235 1556.5,-235 1556.5,-216 1477.5,-216"/>
<text text-anchor="middle" x="1517" y="-223" font-family="Helvetica,sans-Serif" font-size="10.00" fill="#000000">pkgOrderList</text>
</a>
</g>
</g>
<!-- Node5&#45;&gt;Node6 -->
<g id="edge4" class="edge">
<title>Node5&#45;&gt;Node6</title>
<path fill="none" stroke="#006400" d="M1140.9475,-264.6997C1144.6715,-263.8868 1148.3919,-263.1385 1152,-262.5 1269.2835,-241.7465 1409.9815,-231.5699 1477.3062,-227.5918"/>
<polygon fill="#006400" stroke="#006400" points="1140.1067,-261.3018 1131.1563,-266.9711 1141.6886,-268.1207 1140.1067,-261.3018"/>
</g>
<!-- Node7 -->
<g id="node5" class="node">
<title>Node7</title>
<g id="a_node5"><a xlink:href="classpkgDepCache.xhtml" target="_top" xlink:title="pkgDepCache">
<polygon fill="#ffffff" stroke="#000000" points="1319,-319 1319,-338 1403,-338 1403,-319 1319,-319"/>
<text text-anchor="middle" x="1361" y="-326" font-family="Helvetica,sans-Serif" font-size="10.00" fill="#000000">pkgDepCache</text>
</a>
</g>
</g>
<!-- Node5&#45;&gt;Node7 -->
<g id="edge6" class="edge">
<title>Node5&#45;&gt;Node7</title>
<path fill="none" stroke="#006400" d="M1144.325,-285.9766C1146.9211,-286.4928 1149.4926,-287.0033 1152,-287.5 1209.8531,-298.9599 1276.747,-312.0553 1318.9582,-320.2997"/>
<polygon fill="#006400" stroke="#006400" points="1144.765,-282.4955 1134.2738,-283.9741 1143.3971,-289.3606 1144.765,-282.4955"/>
</g>
<!-- Node6&#45;&gt;Node4 -->
<g id="edge3" class="edge">
<title>Node6&#45;&gt;Node4</title>
<path fill="none" stroke="#9a32cd" stroke-dasharray="5,2" d="M1566.8474,-236.7508C1588.5282,-241.6443 1613.6569,-247.316 1634.3846,-251.9943"/>
<polygon fill="#9a32cd" stroke="#9a32cd" points="1567.3624,-233.2791 1556.8371,-234.4915 1565.8212,-240.1073 1567.3624,-233.2791"/>
<text text-anchor="middle" x="1589.5" y="-246.5" font-family="Helvetica,sans-Serif" font-size="10.00" fill="#000000"> List</text>
</g>
<!-- Node7&#45;&gt;Node4 -->
<g id="edge31" class="edge">
<title>Node7&#45;&gt;Node4</title>
<path fill="none" stroke="#9a32cd" stroke-dasharray="5,2" d="M1413.444,-323.2886C1462.3009,-317.7007 1536.8869,-307.2902 1600,-290.5 1618.942,-285.4608 1639.6922,-277.4274 1654.7968,-271.0923"/>
<polygon fill="#9a32cd" stroke="#9a32cd" points="1412.9719,-319.8195 1403.4224,-324.4083 1413.7492,-326.7762 1412.9719,-319.8195"/>
<text text-anchor="middle" x="1517" y="-318.5" font-family="Helvetica,sans-Serif" font-size="10.00" fill="#000000"> Cache</text>
</g>
<!-- Node7&#45;&gt;Node6 -->
<g id="edge5" class="edge">
<title>Node7&#45;&gt;Node6</title>
<path fill="none" stroke="#9a32cd" stroke-dasharray="5,2" d="M1383.8077,-313.4411C1416.255,-292.0175 1474.8331,-253.3409 1502.1833,-235.2828"/>
<polygon fill="#9a32cd" stroke="#9a32cd" points="1381.8131,-310.5639 1375.3965,-318.9946 1385.6701,-316.4055 1381.8131,-310.5639"/>
<text text-anchor="middle" x="1438" y="-289.5" font-family="Helvetica,sans-Serif" font-size="10.00" fill="#000000"> Cache</text>
</g>
<!-- Node8 -->
<g id="node6" class="node">
<title>Node8</title>
<g id="a_node6"><a xlink:href="classpkgDepCache_1_1Policy.xhtml" target="_top" xlink:title="Policy">
<polygon fill="#ffffff" stroke="#000000" points="1074,-432 1074,-451 1120,-451 1120,-432 1074,-432"/>
<text text-anchor="middle" x="1097" y="-439" font-family="Helvetica,sans-Serif" font-size="10.00" fill="#000000">Policy</text>
</a>
</g>
</g>
<!-- Node8&#45;&gt;Node7 -->
<g id="edge7" class="edge">
<title>Node8&#45;&gt;Node7</title>
<path fill="none" stroke="#9a32cd" stroke-dasharray="5,2" d="M1130.3398,-442.2167C1172.9076,-441.6577 1247.4505,-435.6072 1301,-403.5 1327.8862,-387.3796 1347.6417,-354.488 1356.2398,-338.1518"/>
<polygon fill="#9a32cd" stroke="#9a32cd" points="1130.226,-438.7169 1120.2387,-442.253 1130.2512,-445.7169 1130.226,-438.7169"/>
<text text-anchor="middle" x="1226.5" y="-454.5" font-family="Helvetica,sans-Serif" font-size="10.00" fill="#000000"> LocalPolicy</text>
<text text-anchor="middle" x="1226.5" y="-443.5" font-family="Helvetica,sans-Serif" font-size="10.00" fill="#000000">delLocalPolicy</text>
</g>
<!-- Node9 -->
<g id="node7" class="node">
<title>Node9</title>
<g id="a_node7"><a xlink:href="classpkgCache.xhtml" target="_top" xlink:title="pkgCache">
<polygon fill="#ffffff" stroke="#000000" points="1064.5,-394 1064.5,-413 1129.5,-413 1129.5,-394 1064.5,-394"/>
<text text-anchor="middle" x="1097" y="-401" font-family="Helvetica,sans-Serif" font-size="10.00" fill="#000000">pkgCache</text>
</a>
</g>
</g>
<!-- Node9&#45;&gt;Node7 -->
<g id="edge8" class="edge">
<title>Node9&#45;&gt;Node7</title>
<path fill="none" stroke="#9a32cd" stroke-dasharray="5,2" d="M1139.42,-392.834C1180.8255,-382.242 1245.5149,-365.2116 1301,-348.5 1311.6187,-345.3017 1323.1979,-341.514 1333.3268,-338.0998"/>
<polygon fill="#9a32cd" stroke="#9a32cd" points="1138.4968,-389.4573 1129.6712,-395.3189 1140.2259,-396.2405 1138.4968,-389.4573"/>
<text text-anchor="middle" x="1226.5" y="-391.5" font-family="Helvetica,sans-Serif" font-size="10.00" fill="#000000"> Cache</text>
</g>
<!-- Node10 -->
<g id="node8" class="node">
<title>Node10</title>
<g id="a_node8"><a xlink:href="structpkgCache_1_1DependencyData.xhtml" target="_top" xlink:title="information for a single dependency record ">
<polygon fill="#ffffff" stroke="#000000" points="790.5,-356 790.5,-375 891.5,-375 891.5,-356 790.5,-356"/>
<text text-anchor="middle" x="841" y="-363" font-family="Helvetica,sans-Serif" font-size="10.00" fill="#000000">DependencyData</text>
</a>
</g>
</g>
<!-- Node10&#45;&gt;Node9 -->
<g id="edge9" class="edge">
<title>Node10&#45;&gt;Node9</title>
<path fill="none" stroke="#9a32cd" stroke-dasharray="5,2" d="M901.8541,-370.0347C941.9067,-373.6145 995.3585,-379.5255 1042,-388.5 1049.5809,-389.9587 1057.6481,-391.921 1065.2014,-393.9446"/>
<polygon fill="#9a32cd" stroke="#9a32cd" points="901.9781,-366.5324 891.7124,-369.1524 901.3714,-373.5061 901.9781,-366.5324"/>
<text text-anchor="middle" x="981" y="-391.5" font-family="Helvetica,sans-Serif" font-size="10.00" fill="#000000"> DepDataP</text>
</g>
<!-- Node11 -->
<g id="node9" class="node">
<title>Node11</title>
<g id="a_node9"><a xlink:href="structpkgCache_1_1Dependency.xhtml" target="_top" xlink:title="Dependency">
<polygon fill="#ffffff" stroke="#000000" points="802.5,-318 802.5,-337 879.5,-337 879.5,-318 802.5,-318"/>
<text text-anchor="middle" x="841" y="-325" font-family="Helvetica,sans-Serif" font-size="10.00" fill="#000000">Dependency</text>
</a>
</g>
</g>
<!-- Node11&#45;&gt;Node9 -->
<g id="edge10" class="edge">
<title>Node11&#45;&gt;Node9</title>
<path fill="none" stroke="#9a32cd" stroke-dasharray="5,2" d="M890.0711,-327.0453C932.1337,-328.38 993.4422,-334.5114 1042,-356.5 1061.222,-365.2044 1078.9017,-382.7255 1088.7851,-393.7427"/>
<polygon fill="#9a32cd" stroke="#9a32cd" points="889.8913,-323.5402 879.8113,-326.8026 889.7257,-330.5382 889.8913,-323.5402"/>
<text text-anchor="middle" x="981" y="-359.5" font-family="Helvetica,sans-Serif" font-size="10.00" fill="#000000"> DepP</text>
</g>
<!-- Node12 -->
<g id="node10" class="node">
<title>Node12</title>
<g id="a_node10"><a xlink:href="structpkgCache_1_1Description.xhtml" target="_top" xlink:title="datamember of a linked list of available description for a version ">
<polygon fill="#ffffff" stroke="#000000" points="805,-280 805,-299 877,-299 877,-280 805,-280"/>
<text text-anchor="middle" x="841" y="-287" font-family="Helvetica,sans-Serif" font-size="10.00" fill="#000000">Description</text>
</a>
</g>
</g>
<!-- Node12&#45;&gt;Node9 -->
<g id="edge11" class="edge">
<title>Node12&#45;&gt;Node9</title>
<path fill="none" stroke="#9a32cd" stroke-dasharray="5,2" d="M887.2221,-283.2644C931.2186,-279.8828 997.1845,-281.7512 1042,-314.5 1057.4136,-325.7635 1050.2712,-337.0746 1060,-353.5 1068.8052,-368.3661 1081.057,-384.1809 1089.0077,-393.9513"/>
<polygon fill="#9a32cd" stroke="#9a32cd" points="886.7371,-279.7936 877.0865,-284.1657 887.3572,-286.7661 886.7371,-279.7936"/>
<text text-anchor="middle" x="981" y="-317.5" font-family="Helvetica,sans-Serif" font-size="10.00" fill="#000000"> DescP</text>
</g>
<!-- Node13 -->
<g id="node11" class="node">
<title>Node13</title>
<g id="a_node11"><a xlink:href="structpkgCache_1_1Header.xhtml" target="_top" xlink:title="Header">
<polygon fill="#ffffff" stroke="#000000" points="815,-242 815,-261 867,-261 867,-242 815,-242"/>
<text text-anchor="middle" x="841" y="-249" font-family="Helvetica,sans-Serif" font-size="10.00" fill="#000000">Header</text>
</a>
</g>
</g>
<!-- Node13&#45;&gt;Node9 -->
<g id="edge12" class="edge">
<title>Node13&#45;&gt;Node9</title>
<path fill="none" stroke="#9a32cd" stroke-dasharray="5,2" d="M877.0513,-242.6993C921.5272,-234.172 996.786,-227.6877 1042,-267.5 1071.308,-293.3066 1044.0163,-317.8705 1060,-353.5 1066.9837,-369.0674 1079.441,-384.4648 1087.9551,-393.9721"/>
<polygon fill="#9a32cd" stroke="#9a32cd" points="876.3409,-239.2721 867.2471,-244.7083 877.7462,-246.1296 876.3409,-239.2721"/>
<text text-anchor="middle" x="981" y="-270.5" font-family="Helvetica,sans-Serif" font-size="10.00" fill="#000000"> HeaderP</text>
</g>
<!-- Node14 -->
<g id="node12" class="node">
<title>Node14</title>
<g id="a_node12"><a xlink:href="structDynamicMMap_1_1Pool.xhtml" target="_top" xlink:title="Pool">
<polygon fill="#ffffff" stroke="#000000" points="545.5,-242 545.5,-261 583.5,-261 583.5,-242 545.5,-242"/>
<text text-anchor="middle" x="564.5" y="-249" font-family="Helvetica,sans-Serif" font-size="10.00" fill="#000000">Pool</text>
</a>
</g>
</g>
<!-- Node14&#45;&gt;Node13 -->
<g id="edge13" class="edge">
<title>Node14&#45;&gt;Node13</title>
<path fill="none" stroke="#9a32cd" stroke-dasharray="5,2" d="M593.795,-251.5C647.9708,-251.5 763.0002,-251.5 814.7773,-251.5"/>
<polygon fill="#9a32cd" stroke="#9a32cd" points="593.505,-248.0001 583.505,-251.5 593.5049,-255.0001 593.505,-248.0001"/>
<text text-anchor="middle" x="710.5" y="-254.5" font-family="Helvetica,sans-Serif" font-size="10.00" fill="#000000"> Pools</text>
</g>
<!-- Node15 -->
<g id="node13" class="node">
<title>Node15</title>
<g id="a_node13"><a xlink:href="structpkgCache_1_1PackageFile.xhtml" target="_top" xlink:title="stores information about the files used to generate the cache ">
<polygon fill="#ffffff" stroke="#000000" points="804,-204 804,-223 878,-223 878,-204 804,-204"/>
<text text-anchor="middle" x="841" y="-211" font-family="Helvetica,sans-Serif" font-size="10.00" fill="#000000">PackageFile</text>
</a>
</g>
</g>
<!-- Node15&#45;&gt;Node9 -->
<g id="edge14" class="edge">
<title>Node15&#45;&gt;Node9</title>
<path fill="none" stroke="#9a32cd" stroke-dasharray="5,2" d="M881.436,-201.4845C926.5548,-190.8136 998.865,-182.3092 1042,-221.5 1063.9116,-241.408 1048.846,-326.0768 1060,-353.5 1066.347,-369.1048 1078.6981,-384.2581 1087.3789,-393.7156"/>
<polygon fill="#9a32cd" stroke="#9a32cd" points="880.5413,-198.1004 871.6899,-203.9232 882.2405,-204.8911 880.5413,-198.1004"/>
<text text-anchor="middle" x="981" y="-224.5" font-family="Helvetica,sans-Serif" font-size="10.00" fill="#000000"> PkgFileP</text>
</g>
<!-- Node16 -->
<g id="node14" class="node">
<title>Node16</title>
<g id="a_node14"><a xlink:href="structpkgCache_1_1ReleaseFile.xhtml" target="_top" xlink:title="stores information about the release files used to generate the cache ">
<polygon fill="#ffffff" stroke="#000000" points="805.5,-166 805.5,-185 876.5,-185 876.5,-166 805.5,-166"/>
<text text-anchor="middle" x="841" y="-173" font-family="Helvetica,sans-Serif" font-size="10.00" fill="#000000">ReleaseFile</text>
</a>
</g>
</g>
<!-- Node16&#45;&gt;Node9 -->
<g id="edge15" class="edge">
<title>Node16&#45;&gt;Node9</title>
<path fill="none" stroke="#9a32cd" stroke-dasharray="5,2" d="M886.6931,-169.4722C938.9658,-163.6949 1020.166,-158.499 1042,-178.5 1070.8272,-204.9072 1045.8709,-317.0485 1060,-353.5 1066.0884,-369.2075 1078.4961,-384.3384 1087.2606,-393.7626"/>
<polygon fill="#9a32cd" stroke="#9a32cd" points="886.1846,-166.0076 876.6504,-170.6282 886.9851,-172.9616 886.1846,-166.0076"/>
<text text-anchor="middle" x="981" y="-181.5" font-family="Helvetica,sans-Serif" font-size="10.00" fill="#000000"> RlsFileP</text>
</g>
<!-- Node17 -->
<g id="node15" class="node">
<title>Node17</title>
<g id="a_node15"><a xlink:href="structpkgCache_1_1DescFile.xhtml" target="_top" xlink:title="associates a description with a Translation file ">
<polygon fill="#ffffff" stroke="#000000" points="812.5,-727 812.5,-746 869.5,-746 869.5,-727 812.5,-727"/>
<text text-anchor="middle" x="841" y="-734" font-family="Helvetica,sans-Serif" font-size="10.00" fill="#000000">DescFile</text>
</a>
</g>
</g>
<!-- Node17&#45;&gt;Node9 -->
<g id="edge16" class="edge">
<title>Node17&#45;&gt;Node9</title>
<path fill="none" stroke="#9a32cd" stroke-dasharray="5,2" d="M879.4888,-744.3828C925.3718,-751.2883 1000.9826,-754.3277 1042,-710.5 1085.8172,-663.6807 1024.8898,-476.1589 1060,-422.5 1062.5304,-418.6328 1066.1081,-415.5117 1070.0513,-413.0054"/>
<polygon fill="#9a32cd" stroke="#9a32cd" points="880.0501,-740.9282 869.6163,-742.7682 878.9203,-747.8364 880.0501,-740.9282"/>
<text text-anchor="middle" x="981" y="-750.5" font-family="Helvetica,sans-Serif" font-size="10.00" fill="#000000"> DescFileP</text>
</g>
<!-- Node18 -->
<g id="node16" class="node">
<title>Node18</title>
<g id="a_node16"><a xlink:href="structpkgCache_1_1Provides.xhtml" target="_top" xlink:title="handles virtual packages ">
<polygon fill="#ffffff" stroke="#000000" points="811.5,-689 811.5,-708 870.5,-708 870.5,-689 811.5,-689"/>
<text text-anchor="middle" x="841" y="-696" font-family="Helvetica,sans-Serif" font-size="10.00" fill="#000000">Provides</text>
</a>
</g>
</g>
<!-- Node18&#45;&gt;Node9 -->
<g id="edge17" class="edge">
<title>Node18&#45;&gt;Node9</title>
<path fill="none" stroke="#9a32cd" stroke-dasharray="5,2" d="M881.1202,-698.2187C933.4522,-696.9293 1020.8432,-691.3089 1042,-668.5 1079.2758,-628.3134 1029.7453,-468.2066 1060,-422.5 1062.5509,-418.6463 1066.1388,-415.532 1070.0859,-413.0281"/>
<polygon fill="#9a32cd" stroke="#9a32cd" points="880.7633,-694.7252 870.8365,-698.4278 880.9056,-701.7237 880.7633,-694.7252"/>
<text text-anchor="middle" x="981" y="-698.5" font-family="Helvetica,sans-Serif" font-size="10.00" fill="#000000"> ProvideP</text>
</g>
<!-- Node19 -->
<g id="node17" class="node">
<title>Node19</title>
<g id="a_node17"><a xlink:title="STL class. ">
<polygon fill="#ffffff" stroke="#bfbfbf" points="255.5,-261 255.5,-280 299.5,-280 299.5,-261 255.5,-261"/>
<text text-anchor="middle" x="277.5" y="-268" font-family="Helvetica,sans-Serif" font-size="10.00" fill="#000000">string</text>
</a>
</g>
</g>
<!-- Node19&#45;&gt;Node4 -->
<g id="edge34" class="edge">
<title>Node19&#45;&gt;Node4</title>
<path fill="none" stroke="#9a32cd" stroke-dasharray="5,2" d="M279.0713,-290.145C287.6685,-383.1247 337.3476,-774.5 564.5,-774.5 564.5,-774.5 564.5,-774.5 1517,-774.5 1626.5899,-774.5 1669.3849,-342.212 1675.6685,-271.2898"/>
<polygon fill="#9a32cd" stroke="#9a32cd" points="282.5526,-289.7775 278.2001,-280.118 275.5789,-290.3835 282.5526,-289.7775"/>
<text text-anchor="middle" x="1097" y="-777.5" font-family="Helvetica,sans-Serif" font-size="10.00" fill="#000000"> FileNames</text>
</g>
<!-- Node19&#45;&gt;Node6 -->
<g id="edge30" class="edge">
<title>Node19&#45;&gt;Node6</title>
<path fill="none" stroke="#9a32cd" stroke-dasharray="5,2" d="M296.511,-254.5232C340.5684,-219.1849 454.3236,-137.5 564.5,-137.5 564.5,-137.5 564.5,-137.5 1361,-137.5 1424.1235,-137.5 1485.2298,-192.8344 1507.826,-215.7462"/>
<polygon fill="#9a32cd" stroke="#9a32cd" points="294.1872,-251.9019 288.6505,-260.935 298.6119,-257.3262 294.1872,-251.9019"/>
<text text-anchor="middle" x="981" y="-140.5" font-family="Helvetica,sans-Serif" font-size="10.00" fill="#000000"> FileList</text>
</g>
<!-- Node19&#45;&gt;Node9 -->
<g id="edge18" class="edge">
<title>Node19&#45;&gt;Node9</title>
<path fill="none" stroke="#9a32cd" stroke-dasharray="5,2" d="M292.8875,-287.6126C309.77,-305.2555 338.544,-332.1516 369,-346.5 585.4653,-448.4807 662.7395,-425.9173 902,-422.5 964.2413,-421.611 980.4275,-427.6426 1042,-418.5 1050.2236,-417.2789 1058.9721,-415.2442 1067.0156,-413.0612"/>
<polygon fill="#9a32cd" stroke="#9a32cd" points="295.3855,-285.1595 286.0041,-280.2359 290.2675,-289.9351 295.3855,-285.1595"/>
<text text-anchor="middle" x="710.5" y="-429.5" font-family="Helvetica,sans-Serif" font-size="10.00" fill="#000000"> CacheFile</text>
</g>
<!-- Node27 -->
<g id="node25" class="node">
<title>Node27</title>
<g id="a_node25"><a xlink:href="classFileFd.xhtml" target="_top" xlink:title="FileFd">
<polygon fill="#ffffff" stroke="#000000" points="542.5,-337 542.5,-356 586.5,-356 586.5,-337 542.5,-337"/>
<text text-anchor="middle" x="564.5" y="-344" font-family="Helvetica,sans-Serif" font-size="10.00" fill="#000000">FileFd</text>
</a>
</g>
</g>
<!-- Node19&#45;&gt;Node27 -->
<g id="edge28" class="edge">
<title>Node19&#45;&gt;Node27</title>
<path fill="none" stroke="#9a32cd" stroke-dasharray="5,2" d="M309.3855,-278.9435C368.0985,-294.4912 491.9116,-327.278 542.381,-340.6427"/>
<polygon fill="#9a32cd" stroke="#9a32cd" points="310.1066,-275.5139 299.5439,-276.3374 308.3147,-282.2807 310.1066,-275.5139"/>
<text text-anchor="middle" x="419.5" y="-334.5" font-family="Helvetica,sans-Serif" font-size="10.00" fill="#000000"> TemporaryFileName</text>
<text text-anchor="middle" x="419.5" y="-323.5" font-family="Helvetica,sans-Serif" font-size="10.00" fill="#000000">FileName</text>
</g>
<!-- Node29 -->
<g id="node27" class="node">
<title>Node29</title>
<polygon fill="#ffffff" stroke="#bfbfbf" points="659,-90 659,-109 762,-109 762,-90 659,-90"/>
<text text-anchor="middle" x="710.5" y="-97" font-family="Helvetica,sans-Serif" font-size="10.00" fill="#000000">set&lt; std::string &gt;</text>
</g>
<!-- Node19&#45;&gt;Node29 -->
<g id="edge33" class="edge">
<title>Node19&#45;&gt;Node29</title>
<path fill="none" stroke="#9a32cd" stroke-dasharray="5,2" d="M282.2609,-250.822C291.8883,-215.8506 317.2967,-143.6306 369,-112.5 416.3344,-84 575.554,-90.0886 658.8023,-95.5222"/>
<polygon fill="#9a32cd" stroke="#9a32cd" points="278.804,-250.2094 279.6764,-260.7682 285.579,-251.9699 278.804,-250.2094"/>
<text text-anchor="middle" x="419.5" y="-115.5" font-family="Helvetica,sans-Serif" font-size="10.00" fill="#000000"> keys</text>
</g>
<!-- Node31 -->
<g id="node29" class="node">
<title>Node31</title>
<g id="a_node29"><a xlink:href="structpkgDPkgPM_1_1Item.xhtml" target="_top" xlink:title="Item">
<polygon fill="#ffffff" stroke="#000000" points="545,-12 545,-31 584,-31 584,-12 545,-12"/>
<text text-anchor="middle" x="564.5" y="-19" font-family="Helvetica,sans-Serif" font-size="10.00" fill="#000000">Item</text>
</a>
</g>
</g>
<!-- Node19&#45;&gt;Node31 -->
<g id="edge37" class="edge">
<title>Node19&#45;&gt;Node31</title>
<path fill="none" stroke="#9a32cd" stroke-dasharray="5,2" d="M278.4791,-250.7696C281.9538,-204.3279 297.7132,-88.0783 369,-35.5 421.9899,3.5832 506.5677,-8.4179 544.707,-16.6073"/>
<polygon fill="#9a32cd" stroke="#9a32cd" points="274.9856,-250.5573 277.8459,-260.7587 281.9716,-251.0002 274.9856,-250.5573"/>
<text text-anchor="middle" x="419.5" y="-38.5" font-family="Helvetica,sans-Serif" font-size="10.00" fill="#000000"> File</text>
</g>
<!-- Node32 -->
<g id="node30" class="node">
<title>Node32</title>
<polygon fill="#ffffff" stroke="#bfbfbf" points="488,-803 488,-844 641,-844 641,-803 488,-803"/>
<text text-anchor="start" x="496" y="-832" font-family="Helvetica,sans-Serif" font-size="10.00" fill="#000000">map&lt; std::string, std</text>
<text text-anchor="start" x="496" y="-821" font-family="Helvetica,sans-Serif" font-size="10.00" fill="#000000">::vector&lt; struct pkgDPkgPM</text>
<text text-anchor="middle" x="564.5" y="-810" font-family="Helvetica,sans-Serif" font-size="10.00" fill="#000000">::DpkgState &gt; &gt;</text>
</g>
<!-- Node19&#45;&gt;Node32 -->
<g id="edge39" class="edge">
<title>Node19&#45;&gt;Node32</title>
<path fill="none" stroke="#9a32cd" stroke-dasharray="5,2" d="M278.1393,-290.6457C281.2964,-376.8321 298.0597,-713.4051 369,-785.5 377.6091,-794.2492 436.8185,-804.984 487.8448,-812.8097"/>
<polygon fill="#9a32cd" stroke="#9a32cd" points="281.6285,-290.2716 277.7862,-280.398 274.6327,-290.5127 281.6285,-290.2716"/>
<text text-anchor="middle" x="419.5" y="-812.5" font-family="Helvetica,sans-Serif" font-size="10.00" fill="#000000"> keys</text>
</g>
<!-- Node35 -->
<g id="node33" class="node">
<title>Node35</title>
<polygon fill="#ffffff" stroke="#bfbfbf" points="1152,-45.5 1152,-75.5 1301,-75.5 1301,-45.5 1152,-45.5"/>
<text text-anchor="start" x="1160" y="-63.5" font-family="Helvetica,sans-Serif" font-size="10.00" fill="#000000">map&lt; std::string, unsigned</text>
<text text-anchor="middle" x="1226.5" y="-52.5" font-family="Helvetica,sans-Serif" font-size="10.00" fill="#000000"> int &gt;</text>
</g>
<!-- Node19&#45;&gt;Node35 -->
<g id="edge43" class="edge">
<title>Node19&#45;&gt;Node35</title>
<path fill="none" stroke="#9a32cd" stroke-dasharray="5,2" d="M281.2712,-250.7452C289.6549,-212.6864 313.6433,-129.4391 369,-89.5 440.2346,-38.1052 476.6604,-60.5 564.5,-60.5 564.5,-60.5 564.5,-60.5 981,-60.5 1038.326,-60.5 1103.1815,-60.5 1151.8308,-60.5"/>
<polygon fill="#9a32cd" stroke="#9a32cd" points="277.829,-250.1079 279.2294,-260.6097 284.6837,-251.5267 277.829,-250.1079"/>
<text text-anchor="middle" x="710.5" y="-63.5" font-family="Helvetica,sans-Serif" font-size="10.00" fill="#000000"> keys</text>
</g>
<!-- Node20 -->
<g id="node18" class="node">
<title>Node20</title>
<g id="a_node18"><a xlink:title="STL class. ">
<polygon fill="#ffffff" stroke="#bfbfbf" points="0,-261 0,-280 119,-280 119,-261 0,-261"/>
<text text-anchor="middle" x="59.5" y="-268" font-family="Helvetica,sans-Serif" font-size="10.00" fill="#000000">basic_string&lt; char &gt;</text>
</a>
</g>
</g>
<!-- Node20&#45;&gt;Node19 -->
<g id="edge19" class="edge">
<title>Node20&#45;&gt;Node19</title>
<path fill="none" stroke="#191970" d="M129.3381,-270.5C172.8765,-270.5 226.0291,-270.5 255.372,-270.5"/>
<polygon fill="#191970" stroke="#191970" points="129.0695,-267.0001 119.0695,-270.5 129.0694,-274.0001 129.0695,-267.0001"/>
</g>
<!-- Node21 -->
<g id="node19" class="node">
<title>Node21</title>
<g id="a_node19"><a xlink:href="structpkgCache_1_1Group.xhtml" target="_top" xlink:title="groups architecture depending packages together ">
<polygon fill="#ffffff" stroke="#000000" points="818,-651 818,-670 864,-670 864,-651 818,-651"/>
<text text-anchor="middle" x="841" y="-658" font-family="Helvetica,sans-Serif" font-size="10.00" fill="#000000">Group</text>
</a>
</g>
</g>
<!-- Node21&#45;&gt;Node9 -->
<g id="edge20" class="edge">
<title>Node21&#45;&gt;Node9</title>
<path fill="none" stroke="#9a32cd" stroke-dasharray="5,2" d="M874.239,-658.5862C925.4553,-654.8957 1020.064,-644.8884 1042,-620.5 1071.5458,-587.6511 1035.2898,-459.1252 1060,-422.5 1062.5847,-418.6689 1066.1896,-415.5659 1070.143,-413.0663"/>
<polygon fill="#9a32cd" stroke="#9a32cd" points="873.7502,-655.1112 864.0104,-659.2807 874.2245,-662.0951 873.7502,-655.1112"/>
<text text-anchor="middle" x="981" y="-656.5" font-family="Helvetica,sans-Serif" font-size="10.00" fill="#000000"> GrpP</text>
</g>
<!-- Node22 -->
<g id="node20" class="node">
<title>Node22</title>
<g id="a_node20"><a xlink:href="classpkgVersioningSystem.xhtml" target="_top" xlink:title="pkgVersioningSystem">
<polygon fill="#ffffff" stroke="#000000" points="780,-584 780,-603 902,-603 902,-584 780,-584"/>
<text text-anchor="middle" x="841" y="-591" font-family="Helvetica,sans-Serif" font-size="10.00" fill="#000000">pkgVersioningSystem</text>
</a>
</g>
</g>
<!-- Node22&#45;&gt;Node9 -->
<g id="edge21" class="edge">
<title>Node22&#45;&gt;Node9</title>
<path fill="none" stroke="#9a32cd" stroke-dasharray="5,2" d="M900.7816,-604.1254C945.813,-608.4196 1005.7895,-605.602 1042,-569.5 1088.6125,-523.0272 1022.3406,-476.4835 1060,-422.5 1062.6442,-418.7097 1066.2787,-415.627 1070.2433,-413.1351"/>
<polygon fill="#9a32cd" stroke="#9a32cd" points="901.1583,-600.6458 890.8376,-603.0403 900.3989,-607.6045 901.1583,-600.6458"/>
<text text-anchor="middle" x="981" y="-608.5" font-family="Helvetica,sans-Serif" font-size="10.00" fill="#000000"> VS</text>
</g>
<!-- Node22&#45;&gt;Node22 -->
<g id="edge22" class="edge">
<title>Node22&#45;&gt;Node22</title>
<path fill="none" stroke="#9a32cd" stroke-dasharray="5,2" d="M816.8186,-612.5292C818.1376,-617.628 826.1981,-621.5 841,-621.5 864.1055,-621.5 870.7844,-612.0653 861.0368,-603.2571"/>
<polygon fill="#9a32cd" stroke="#9a32cd" points="820.0776,-613.8148 820.9632,-603.2571 813.687,-610.9582 820.0776,-613.8148"/>
<text text-anchor="middle" x="841" y="-624.5" font-family="Helvetica,sans-Serif" font-size="10.00" fill="#000000"> GlobalList</text>
</g>
<!-- Node23 -->
<g id="node21" class="node">
<title>Node23</title>
<g id="a_node21"><a xlink:href="structpkgCache_1_1Version.xhtml" target="_top" xlink:title="information for a single version of a package ">
<polygon fill="#ffffff" stroke="#000000" points="814.5,-546 814.5,-565 867.5,-565 867.5,-546 814.5,-546"/>
<text text-anchor="middle" x="841" y="-553" font-family="Helvetica,sans-Serif" font-size="10.00" fill="#000000">Version</text>
</a>
</g>
</g>
<!-- Node23&#45;&gt;Node9 -->
<g id="edge23" class="edge">
<title>Node23&#45;&gt;Node9</title>
<path fill="none" stroke="#9a32cd" stroke-dasharray="5,2" d="M877.9109,-555.9906C929.4442,-555.8546 1019.2104,-552.365 1042,-530.5 1077.1143,-496.8104 1031.3006,-461.7982 1060,-422.5 1062.8108,-418.6512 1066.6315,-415.5241 1070.7547,-413.0023"/>
<polygon fill="#9a32cd" stroke="#9a32cd" points="877.844,-552.4906 867.8388,-555.9759 877.8337,-559.4906 877.844,-552.4906"/>
<text text-anchor="middle" x="981" y="-557.5" font-family="Helvetica,sans-Serif" font-size="10.00" fill="#000000"> VerP</text>
</g>
<!-- Node24 -->
<g id="node22" class="node">
<title>Node24</title>
<g id="a_node22"><a xlink:href="structpkgCache_1_1VerFile.xhtml" target="_top" xlink:title="associates a version with a PackageFile ">
<polygon fill="#ffffff" stroke="#000000" points="816.5,-508 816.5,-527 865.5,-527 865.5,-508 816.5,-508"/>
<text text-anchor="middle" x="841" y="-515" font-family="Helvetica,sans-Serif" font-size="10.00" fill="#000000">VerFile</text>
</a>
</g>
</g>
<!-- Node24&#45;&gt;Node9 -->
<g id="edge24" class="edge">
<title>Node24&#45;&gt;Node9</title>
<path fill="none" stroke="#9a32cd" stroke-dasharray="5,2" d="M876.0017,-517.5392C926.9349,-516.8576 1018.0272,-512.6161 1042,-491.5 1065.7825,-470.5515 1040.1756,-447.2273 1060,-422.5 1062.9811,-418.7816 1066.8844,-415.7176 1071.0362,-413.2178"/>
<polygon fill="#9a32cd" stroke="#9a32cd" points="875.7479,-514.0414 865.7813,-517.6354 875.8138,-521.041 875.7479,-514.0414"/>
<text text-anchor="middle" x="981" y="-518.5" font-family="Helvetica,sans-Serif" font-size="10.00" fill="#000000"> VerFileP</text>
</g>
<!-- Node25 -->
<g id="node23" class="node">
<title>Node25</title>
<g id="a_node23"><a xlink:href="structpkgCache_1_1Package.xhtml" target="_top" xlink:title="contains information for a single unique package ">
<polygon fill="#ffffff" stroke="#000000" points="812.5,-470 812.5,-489 869.5,-489 869.5,-470 812.5,-470"/>
<text text-anchor="middle" x="841" y="-477" font-family="Helvetica,sans-Serif" font-size="10.00" fill="#000000">Package</text>
</a>
</g>
</g>
<!-- Node25&#45;&gt;Node9 -->
<g id="edge25" class="edge">
<title>Node25&#45;&gt;Node9</title>
<path fill="none" stroke="#9a32cd" stroke-dasharray="5,2" d="M880.1312,-479.0128C931.0074,-477.6792 1016.3934,-472.8365 1042,-455.5 1055.8342,-446.1338 1048.0402,-434.1651 1060,-422.5 1063.7219,-418.8698 1068.277,-415.7786 1072.9022,-413.2105"/>
<polygon fill="#9a32cd" stroke="#9a32cd" points="879.7502,-475.5204 869.8325,-479.2473 879.9096,-482.5186 879.7502,-475.5204"/>
<text text-anchor="middle" x="981" y="-479.5" font-family="Helvetica,sans-Serif" font-size="10.00" fill="#000000"> PkgP</text>
</g>
<!-- Node26 -->
<g id="node24" class="node">
<title>Node26</title>
<g id="a_node24"><a xlink:href="classMMap.xhtml" target="_top" xlink:title="MMap">
<polygon fill="#ffffff" stroke="#000000" points="818.5,-394 818.5,-413 863.5,-413 863.5,-394 818.5,-394"/>
<text text-anchor="middle" x="841" y="-401" font-family="Helvetica,sans-Serif" font-size="10.00" fill="#000000">MMap</text>
</a>
</g>
</g>
<!-- Node26&#45;&gt;Node9 -->
<g id="edge26" class="edge">
<title>Node26&#45;&gt;Node9</title>
<path fill="none" stroke="#9a32cd" stroke-dasharray="5,2" d="M873.8186,-403.5C923.023,-403.5 1015.3605,-403.5 1064.4231,-403.5"/>
<polygon fill="#9a32cd" stroke="#9a32cd" points="873.7183,-400.0001 863.7183,-403.5 873.7183,-407.0001 873.7183,-400.0001"/>
<text text-anchor="middle" x="981" y="-406.5" font-family="Helvetica,sans-Serif" font-size="10.00" fill="#000000"> Map</text>
</g>
<!-- Node27&#45;&gt;Node26 -->
<g id="edge27" class="edge">
<title>Node27&#45;&gt;Node26</title>
<path fill="none" stroke="#9a32cd" stroke-dasharray="5,2" d="M596.4928,-353.0953C653.0342,-364.7512 769.2773,-388.7145 818.3481,-398.8303"/>
<polygon fill="#9a32cd" stroke="#9a32cd" points="597.1605,-349.6594 586.6598,-351.0682 595.7471,-356.5152 597.1605,-349.6594"/>
<text text-anchor="middle" x="710.5" y="-389.5" font-family="Helvetica,sans-Serif" font-size="10.00" fill="#000000"> SyncToFd</text>
</g>
<!-- Node28 -->
<g id="node26" class="node">
<title>Node28</title>
<g id="a_node26"><a xlink:href="structpkgDepCache_1_1StateCache.xhtml" target="_top" xlink:title="StateCache">
<polygon fill="#ffffff" stroke="#000000" points="1061,-325 1061,-344 1133,-344 1133,-325 1061,-325"/>
<text text-anchor="middle" x="1097" y="-332" font-family="Helvetica,sans-Serif" font-size="10.00" fill="#000000">StateCache</text>
</a>
</g>
</g>
<!-- Node28&#45;&gt;Node7 -->
<g id="edge29" class="edge">
<title>Node28&#45;&gt;Node7</title>
<path fill="none" stroke="#9a32cd" stroke-dasharray="5,2" d="M1143.2773,-333.4482C1192.8346,-332.3219 1270.7974,-330.5501 1318.7474,-329.4603"/>
<polygon fill="#9a32cd" stroke="#9a32cd" points="1143.0724,-329.9519 1133.1545,-333.6783 1143.2315,-336.9501 1143.0724,-329.9519"/>
<text text-anchor="middle" x="1226.5" y="-336.5" font-family="Helvetica,sans-Serif" font-size="10.00" fill="#000000"> PkgState</text>
</g>
<!-- Node29&#45;&gt;Node4 -->
<g id="edge32" class="edge">
<title>Node29&#45;&gt;Node4</title>
<path fill="none" stroke="#9a32cd" stroke-dasharray="5,2" d="M772.3537,-99.5C827.1805,-99.5 909.4179,-99.5 981,-99.5 981,-99.5 981,-99.5 1517,-99.5 1603.0425,-99.5 1658.2067,-216.9757 1672.6877,-251.8513"/>
<polygon fill="#9a32cd" stroke="#9a32cd" points="772.1048,-96.0001 762.1048,-99.5 772.1048,-103.0001 772.1048,-96.0001"/>
<text text-anchor="middle" x="1226.5" y="-102.5" font-family="Helvetica,sans-Serif" font-size="10.00" fill="#000000"> disappearedPkgs</text>
</g>
<!-- Node30 -->
<g id="node28" class="node">
<title>Node30</title>
<polygon fill="#ffffff" stroke="#bfbfbf" points="920,-.5 920,-30.5 1042,-30.5 1042,-.5 920,-.5"/>
<text text-anchor="start" x="928" y="-18.5" font-family="Helvetica,sans-Serif" font-size="10.00" fill="#000000">vector&lt; pkgDPkgPM::</text>
<text text-anchor="middle" x="981" y="-7.5" font-family="Helvetica,sans-Serif" font-size="10.00" fill="#000000">Item &gt;</text>
</g>
<!-- Node30&#45;&gt;Node3 -->
<g id="edge35" class="edge">
<title>Node30&#45;&gt;Node3</title>
<path fill="none" stroke="#9a32cd" stroke-dasharray="5,2" d="M1052.219,-15.0568C1101.2228,-14.7893 1167.8075,-14.5 1226.5,-14.5 1226.5,-14.5 1226.5,-14.5 1676.5,-14.5 1758.1495,-14.5 1797.0688,-138.1787 1806.6134,-173.9296"/>
<polygon fill="#9a32cd" stroke="#9a32cd" points="1052.0185,-11.5577 1042.0381,-15.1134 1052.0575,-18.5576 1052.0185,-11.5577"/>
<text text-anchor="middle" x="1438" y="-17.5" font-family="Helvetica,sans-Serif" font-size="10.00" fill="#000000"> List</text>
</g>
<!-- Node31&#45;&gt;Node30 -->
<g id="edge36" class="edge">
<title>Node31&#45;&gt;Node30</title>
<path fill="none" stroke="#9a32cd" stroke-dasharray="5,2" d="M594.4105,-21.0691C662.2474,-20.0919 828.9122,-17.6909 919.676,-16.3834"/>
<polygon fill="#9a32cd" stroke="#9a32cd" points="593.9785,-17.5749 584.03,-21.2187 594.0794,-24.5742 593.9785,-17.5749"/>
<text text-anchor="middle" x="710.5" y="-23.5" font-family="Helvetica,sans-Serif" font-size="10.00" fill="#000000"> elements</text>
</g>
<!-- Node32&#45;&gt;Node3 -->
<g id="edge38" class="edge">
<title>Node32&#45;&gt;Node3</title>
<path fill="none" stroke="#9a32cd" stroke-dasharray="5,2" d="M651.3898,-823.0248C705.8552,-822.7668 777.5255,-822.5 841,-822.5 841,-822.5 841,-822.5 1676.5,-822.5 1743.7703,-822.5 1800.2642,-272.5184 1808.0781,-193.0289"/>
<polygon fill="#9a32cd" stroke="#9a32cd" points="651.0632,-819.5262 641.0802,-823.0745 651.097,-826.5261 651.0632,-819.5262"/>
<text text-anchor="middle" x="1361" y="-825.5" font-family="Helvetica,sans-Serif" font-size="10.00" fill="#000000"> PackageOps</text>
</g>
<!-- Node33 -->
<g id="node31" class="node">
<title>Node33</title>
<polygon fill="#ffffff" stroke="#bfbfbf" points="204,-826.5 204,-856.5 351,-856.5 351,-826.5 204,-826.5"/>
<text text-anchor="start" x="212" y="-844.5" font-family="Helvetica,sans-Serif" font-size="10.00" fill="#000000">vector&lt; struct pkgDPkgPM</text>
<text text-anchor="middle" x="277.5" y="-833.5" font-family="Helvetica,sans-Serif" font-size="10.00" fill="#000000">::DpkgState &gt;</text>
</g>
<!-- Node33&#45;&gt;Node32 -->
<g id="edge40" class="edge">
<title>Node33&#45;&gt;Node32</title>
<path fill="none" stroke="#9a32cd" stroke-dasharray="5,2" d="M361.0491,-836.26C401.1129,-833.7473 448.7778,-830.7578 487.8975,-828.3043"/>
<polygon fill="#9a32cd" stroke="#9a32cd" points="360.7982,-832.7687 351.0369,-836.8879 361.2364,-839.755 360.7982,-832.7687"/>
<text text-anchor="middle" x="419.5" y="-838.5" font-family="Helvetica,sans-Serif" font-size="10.00" fill="#000000"> elements</text>
</g>
<!-- Node34 -->
<g id="node32" class="node">
<title>Node34</title>
<g id="a_node32"><a xlink:href="structpkgDPkgPM_1_1DpkgState.xhtml" target="_top" xlink:title="DpkgState">
<polygon fill="#ffffff" stroke="#000000" points="25.5,-832 25.5,-851 93.5,-851 93.5,-832 25.5,-832"/>
<text text-anchor="middle" x="59.5" y="-839" font-family="Helvetica,sans-Serif" font-size="10.00" fill="#000000">DpkgState</text>
</a>
</g>
</g>
<!-- Node34&#45;&gt;Node33 -->
<g id="edge41" class="edge">
<title>Node34&#45;&gt;Node33</title>
<path fill="none" stroke="#9a32cd" stroke-dasharray="5,2" d="M103.7099,-841.5C132.4868,-841.5 170.7208,-841.5 203.9991,-841.5"/>
<polygon fill="#9a32cd" stroke="#9a32cd" points="103.5625,-838.0001 93.5625,-841.5 103.5625,-845.0001 103.5625,-838.0001"/>
<text text-anchor="middle" x="161.5" y="-844.5" font-family="Helvetica,sans-Serif" font-size="10.00" fill="#000000"> elements</text>
</g>
<!-- Node35&#45;&gt;Node3 -->
<g id="edge42" class="edge">
<title>Node35&#45;&gt;Node3</title>
<path fill="none" stroke="#9a32cd" stroke-dasharray="5,2" d="M1311.5364,-60.5C1350.1358,-60.5 1396.3723,-60.5 1438,-60.5 1438,-60.5 1438,-60.5 1676.5,-60.5 1743.041,-60.5 1790.2408,-144.8523 1804.5,-173.8484"/>
<polygon fill="#9a32cd" stroke="#9a32cd" points="1311.3802,-57.0001 1301.3802,-60.5 1311.3802,-64.0001 1311.3802,-57.0001"/>
<text text-anchor="middle" x="1517" y="-63.5" font-family="Helvetica,sans-Serif" font-size="10.00" fill="#000000"> PackageOpsDone</text>
</g>
</g>
</svg>
