<?xml version="1.0" encoding="UTF-8" standalone="no"?>
<!DOCTYPE svg PUBLIC "-//W3C//DTD SVG 1.1//EN"
 "http://www.w3.org/Graphics/SVG/1.1/DTD/svg11.dtd">
<!-- Generated by graphviz version 2.40.1 (20161225.0304)
 -->
<!-- Title: edspLikeSystem Pages: 1 -->
<svg width="345pt" height="162pt"
 viewBox="0.00 0.00 345.00 162.00" xmlns="http://www.w3.org/2000/svg" xmlns:xlink="http://www.w3.org/1999/xlink">
<g id="graph0" class="graph" transform="scale(1 1) rotate(0) translate(4 158)">
<title>edspLikeSystem</title>
<polygon fill="#ffffff" stroke="transparent" points="-4,4 -4,-158 341,-158 341,4 -4,4"/>
<!-- Node4 -->
<g id="node1" class="node">
<title>Node4</title>
<polygon fill="#bfbfbf" stroke="#000000" points="111.5,-.5 111.5,-19.5 208.5,-19.5 208.5,-.5 111.5,-.5"/>
<text text-anchor="middle" x="160" y="-7.5" font-family="Helvetica,sans-Serif" font-size="10.00" fill="#000000">edspLikeSystem</text>
</g>
<!-- Node5 -->
<g id="node2" class="node">
<title>Node5</title>
<g id="a_node2"><a xlink:href="classpkgSystem.xhtml" target="_top" xlink:title="pkgSystem">
<polygon fill="#ffffff" stroke="#000000" points="25.5,-67.5 25.5,-86.5 96.5,-86.5 96.5,-67.5 25.5,-67.5"/>
<text text-anchor="middle" x="61" y="-74.5" font-family="Helvetica,sans-Serif" font-size="10.00" fill="#000000">pkgSystem</text>
</a>
</g>
</g>
<!-- Node5&#45;&gt;Node4 -->
<g id="edge1" class="edge">
<title>Node5&#45;&gt;Node4</title>
<path fill="none" stroke="#191970" d="M83.6276,-61.6864C102.7703,-48.7312 129.6066,-30.5693 145.842,-19.5817"/>
<polygon fill="#191970" stroke="#191970" points="81.5043,-58.8971 75.1843,-67.4005 85.4277,-64.6943 81.5043,-58.8971"/>
</g>
<!-- Node5&#45;&gt;Node5 -->
<g id="edge2" class="edge">
<title>Node5&#45;&gt;Node5</title>
<path fill="none" stroke="#9a32cd" stroke-dasharray="5,2" d="M106.7805,-81.9469C111.4895,-80.9732 114.5,-79.3242 114.5,-77 114.5,-73.2813 106.7932,-71.2911 96.7532,-71.0297"/>
<polygon fill="#9a32cd" stroke="#9a32cd" points="106.3461,-78.473 96.7532,-82.9703 107.0569,-85.4368 106.3461,-78.473"/>
<text text-anchor="middle" x="140.5" y="-74.5" font-family="Helvetica,sans-Serif" font-size="10.00" fill="#000000"> GlobalList</text>
</g>
<!-- Node6 -->
<g id="node3" class="node">
<title>Node6</title>
<g id="a_node3"><a xlink:href="classpkgVersioningSystem.xhtml" target="_top" xlink:title="pkgVersioningSystem">
<polygon fill="#ffffff" stroke="#000000" points="0,-134.5 0,-153.5 122,-153.5 122,-134.5 0,-134.5"/>
<text text-anchor="middle" x="61" y="-141.5" font-family="Helvetica,sans-Serif" font-size="10.00" fill="#000000">pkgVersioningSystem</text>
</a>
</g>
</g>
<!-- Node6&#45;&gt;Node5 -->
<g id="edge3" class="edge">
<title>Node6&#45;&gt;Node5</title>
<path fill="none" stroke="#9a32cd" stroke-dasharray="5,2" d="M61,-124.1079C61,-111.714 61,-96.3263 61,-86.5817"/>
<polygon fill="#9a32cd" stroke="#9a32cd" points="57.5001,-124.4005 61,-134.4005 64.5001,-124.4006 57.5001,-124.4005"/>
<text text-anchor="middle" x="69" y="-108" font-family="Helvetica,sans-Serif" font-size="10.00" fill="#000000"> VS</text>
</g>
<!-- Node6&#45;&gt;Node6 -->
<g id="edge4" class="edge">
<title>Node6&#45;&gt;Node6</title>
<path fill="none" stroke="#9a32cd" stroke-dasharray="5,2" d="M132.4863,-148.2754C137.1669,-147.2806 140,-145.8555 140,-144 140,-141.0313 132.7472,-139.1642 122.2789,-138.3988"/>
<polygon fill="#9a32cd" stroke="#9a32cd" points="131.7448,-144.8422 122.2789,-149.6012 132.6465,-151.7839 131.7448,-144.8422"/>
<text text-anchor="middle" x="166" y="-141.5" font-family="Helvetica,sans-Serif" font-size="10.00" fill="#000000"> GlobalList</text>
</g>
<!-- Node7 -->
<g id="node4" class="node">
<title>Node7</title>
<polygon fill="#ffffff" stroke="#bfbfbf" points="185,-67.5 185,-86.5 337,-86.5 337,-67.5 185,-67.5"/>
<text text-anchor="middle" x="261" y="-74.5" font-family="Helvetica,sans-Serif" font-size="10.00" fill="#000000">unique_ptr&lt; pkgIndexFile &gt;</text>
</g>
<!-- Node7&#45;&gt;Node4 -->
<g id="edge5" class="edge">
<title>Node7&#45;&gt;Node4</title>
<path fill="none" stroke="#9a32cd" stroke-dasharray="5,2" d="M238.1799,-61.8619C218.6339,-48.8957 191.0823,-30.619 174.444,-19.5817"/>
<polygon fill="#9a32cd" stroke="#9a32cd" points="236.2612,-64.7892 246.5292,-67.4005 240.1308,-58.9559 236.2612,-64.7892"/>
<text text-anchor="middle" x="242.5" y="-41" font-family="Helvetica,sans-Serif" font-size="10.00" fill="#000000"> StatusFile</text>
</g>
<!-- Node8 -->
<g id="node5" class="node">
<title>Node8</title>
<g id="a_node5"><a xlink:href="classpkgIndexFile.xhtml" target="_top" xlink:title="pkgIndexFile">
<polygon fill="#ffffff" stroke="#000000" points="222,-134.5 222,-153.5 300,-153.5 300,-134.5 222,-134.5"/>
<text text-anchor="middle" x="261" y="-141.5" font-family="Helvetica,sans-Serif" font-size="10.00" fill="#000000">pkgIndexFile</text>
</a>
</g>
</g>
<!-- Node8&#45;&gt;Node7 -->
<g id="edge6" class="edge">
<title>Node8&#45;&gt;Node7</title>
<path fill="none" stroke="#9a32cd" stroke-dasharray="5,2" d="M261,-124.1079C261,-111.714 261,-96.3263 261,-86.5817"/>
<polygon fill="#9a32cd" stroke="#9a32cd" points="257.5001,-124.4005 261,-134.4005 264.5001,-124.4006 257.5001,-124.4005"/>
<text text-anchor="middle" x="269.5" y="-108" font-family="Helvetica,sans-Serif" font-size="10.00" fill="#000000"> ptr</text>
</g>
</g>
</svg>
