<?xml version="1.0" encoding="UTF-8" standalone="no"?>
<!DOCTYPE svg PUBLIC "-//W3C//DTD SVG 1.1//EN"
 "http://www.w3.org/Graphics/SVG/1.1/DTD/svg11.dtd">
<!-- Generated by graphviz version 2.40.1 (20161225.0304)
 -->
<!-- Title: pkgCache::Namespace Pages: 1 -->
<svg width="351pt" height="140pt"
 viewBox="0.00 0.00 351.00 140.00" xmlns="http://www.w3.org/2000/svg" xmlns:xlink="http://www.w3.org/1999/xlink">
<g id="graph0" class="graph" transform="scale(1 1) rotate(0) translate(4 136)">
<title>pkgCache::Namespace</title>
<polygon fill="#ffffff" stroke="transparent" points="-4,4 -4,-136 347,-136 347,4 -4,4"/>
<!-- Node0 -->
<g id="node1" class="node">
<title>Node0</title>
<polygon fill="#bfbfbf" stroke="#000000" points="77,-112.5 77,-131.5 205,-131.5 205,-112.5 77,-112.5"/>
<text text-anchor="middle" x="141" y="-119.5" font-family="Helvetica,sans-Serif" font-size="10.00" fill="#000000">pkgCache::Namespace</text>
</g>
<!-- Node1 -->
<g id="node2" class="node">
<title>Node1</title>
<g id="a_node2"><a xlink:href="classpkgDepCache.xhtml" target="_top" xlink:title="pkgDepCache">
<polygon fill="#ffffff" stroke="#000000" points="0,-56.5 0,-75.5 84,-75.5 84,-56.5 0,-56.5"/>
<text text-anchor="middle" x="42" y="-63.5" font-family="Helvetica,sans-Serif" font-size="10.00" fill="#000000">pkgDepCache</text>
</a>
</g>
</g>
<!-- Node0&#45;&gt;Node1 -->
<g id="edge1" class="edge">
<title>Node0&#45;&gt;Node1</title>
<path fill="none" stroke="#006400" d="M114.5643,-107.0465C96.9492,-97.0824 74.3153,-84.2794 59.0469,-75.6427"/>
<polygon fill="#006400" stroke="#006400" points="113.3283,-110.3684 123.7555,-112.2455 116.7747,-104.2756 113.3283,-110.3684"/>
</g>
<!-- Node2 -->
<g id="node3" class="node">
<title>Node2</title>
<g id="a_node3"><a xlink:href="classpkgOrderList.xhtml" target="_top" xlink:title="pkgOrderList">
<polygon fill="#ffffff" stroke="#000000" points="101.5,-56.5 101.5,-75.5 180.5,-75.5 180.5,-56.5 101.5,-56.5"/>
<text text-anchor="middle" x="141" y="-63.5" font-family="Helvetica,sans-Serif" font-size="10.00" fill="#000000">pkgOrderList</text>
</a>
</g>
</g>
<!-- Node0&#45;&gt;Node2 -->
<g id="edge2" class="edge">
<title>Node0&#45;&gt;Node2</title>
<path fill="none" stroke="#006400" d="M141,-102.1575C141,-93.155 141,-82.9199 141,-75.6427"/>
<polygon fill="#006400" stroke="#006400" points="137.5001,-102.2455 141,-112.2455 144.5001,-102.2456 137.5001,-102.2455"/>
</g>
<!-- Node3 -->
<g id="node4" class="node">
<title>Node3</title>
<g id="a_node4"><a xlink:href="classpkgPackageManager.xhtml" target="_top" xlink:title="pkgPackageManager">
<polygon fill="#ffffff" stroke="#000000" points="198.5,-56.5 198.5,-75.5 315.5,-75.5 315.5,-56.5 198.5,-56.5"/>
<text text-anchor="middle" x="257" y="-63.5" font-family="Helvetica,sans-Serif" font-size="10.00" fill="#000000">pkgPackageManager</text>
</a>
</g>
</g>
<!-- Node0&#45;&gt;Node3 -->
<g id="edge3" class="edge">
<title>Node0&#45;&gt;Node3</title>
<path fill="none" stroke="#006400" d="M170.0537,-107.9741C191.0565,-97.8348 218.8691,-84.408 237.3191,-75.5011"/>
<polygon fill="#006400" stroke="#006400" points="168.425,-104.8738 160.9411,-112.3733 171.4683,-111.1776 168.425,-104.8738"/>
</g>
<!-- Node4 -->
<g id="node5" class="node">
<title>Node4</title>
<g id="a_node5"><a xlink:href="classpkgDPkgPM.xhtml" target="_top" xlink:title="pkgDPkgPM">
<polygon fill="#ffffff" stroke="#000000" points="173,-.5 173,-19.5 247,-19.5 247,-.5 173,-.5"/>
<text text-anchor="middle" x="210" y="-7.5" font-family="Helvetica,sans-Serif" font-size="10.00" fill="#000000">pkgDPkgPM</text>
</a>
</g>
</g>
<!-- Node3&#45;&gt;Node4 -->
<g id="edge4" class="edge">
<title>Node3&#45;&gt;Node4</title>
<path fill="none" stroke="#191970" d="M242.3128,-48.5004C234.3204,-38.9775 224.7375,-27.5596 218.093,-19.6427"/>
<polygon fill="#191970" stroke="#191970" points="239.7036,-50.8358 248.8132,-56.2455 245.0654,-46.3357 239.7036,-50.8358"/>
</g>
<!-- Node5 -->
<g id="node6" class="node">
<title>Node5</title>
<g id="a_node6"><a xlink:href="classpkgSimulate.xhtml" target="_top" xlink:title="pkgSimulate">
<polygon fill="#ffffff" stroke="#000000" points="265,-.5 265,-19.5 343,-19.5 343,-.5 265,-.5"/>
<text text-anchor="middle" x="304" y="-7.5" font-family="Helvetica,sans-Serif" font-size="10.00" fill="#000000">pkgSimulate</text>
</a>
</g>
</g>
<!-- Node3&#45;&gt;Node5 -->
<g id="edge5" class="edge">
<title>Node3&#45;&gt;Node5</title>
<path fill="none" stroke="#191970" d="M271.6872,-48.5004C279.6796,-38.9775 289.2625,-27.5596 295.907,-19.6427"/>
<polygon fill="#191970" stroke="#191970" points="268.9346,-46.3357 265.1868,-56.2455 274.2964,-50.8358 268.9346,-46.3357"/>
</g>
</g>
</svg>
