<?xml version="1.0" encoding="UTF-8" standalone="no"?>
<!DOCTYPE svg PUBLIC "-//W3C//DTD SVG 1.1//EN"
 "http://www.w3.org/Graphics/SVG/1.1/DTD/svg11.dtd">
<!-- Generated by graphviz version 2.40.1 (20161225.0304)
 -->
<!-- Title: pkgAcquire::Queue Pages: 1 -->
<svg width="841pt" height="570pt"
 viewBox="0.00 0.00 840.81 570.00" xmlns="http://www.w3.org/2000/svg" xmlns:xlink="http://www.w3.org/1999/xlink">
<g id="graph0" class="graph" transform="scale(1 1) rotate(0) translate(4 566)">
<title>pkgAcquire::Queue</title>
<polygon fill="#ffffff" stroke="transparent" points="-4,4 -4,-566 836.8057,-566 836.8057,4 -4,4"/>
<!-- Node1 -->
<g id="node1" class="node">
<title>Node1</title>
<polygon fill="#bfbfbf" stroke="#000000" points="270.3057,-407.5 270.3057,-426.5 379.3057,-426.5 379.3057,-407.5 270.3057,-407.5"/>
<text text-anchor="middle" x="324.8057" y="-414.5" font-family="Helvetica,sans-Serif" font-size="10.00" fill="#000000">pkgAcquire::Queue</text>
</g>
<!-- Node2 -->
<g id="node2" class="node">
<title>Node2</title>
<g id="a_node2"><a xlink:href="classpkgAcquire.xhtml" target="_top" xlink:title="The core download scheduler. {{{. ">
<polygon fill="#ffffff" stroke="#000000" points="410.3057,-301 410.3057,-320 481.3057,-320 481.3057,-301 410.3057,-301"/>
<text text-anchor="middle" x="445.8057" y="-308" font-family="Helvetica,sans-Serif" font-size="10.00" fill="#000000">pkgAcquire</text>
</a>
</g>
</g>
<!-- Node1&#45;&gt;Node2 -->
<g id="edge12" class="edge">
<title>Node1&#45;&gt;Node2</title>
<path fill="none" stroke="#9a32cd" stroke-dasharray="5,2" d="M332.3271,-397.9057C340.529,-377.2491 352.7665,-346.9741 354.8057,-345 369.8583,-330.4275 391.6791,-321.8777 410.1797,-316.9352"/>
<polygon fill="#9a32cd" stroke="#9a32cd" points="329.0076,-396.7826 328.5842,-407.369 335.5169,-399.3572 329.0076,-396.7826"/>
<text text-anchor="middle" x="374.8057" y="-364.5" font-family="Helvetica,sans-Serif" font-size="10.00" fill="#000000"> Queues</text>
</g>
<!-- Node12 -->
<g id="node12" class="node">
<title>Node12</title>
<g id="a_node12"><a xlink:href="classpkgAcquire_1_1Worker.xhtml" target="_top" xlink:title="A fetch subprocess. ">
<polygon fill="#ffffff" stroke="#000000" points="420.3057,-1.5 420.3057,-20.5 471.3057,-20.5 471.3057,-1.5 420.3057,-1.5"/>
<text text-anchor="middle" x="445.8057" y="-8.5" font-family="Helvetica,sans-Serif" font-size="10.00" fill="#000000">Worker</text>
</a>
</g>
</g>
<!-- Node1&#45;&gt;Node12 -->
<g id="edge21" class="edge">
<title>Node1&#45;&gt;Node12</title>
<path fill="none" stroke="#9a32cd" stroke-dasharray="5,2" d="M260.241,-409.1726C234.4154,-404.8758 204.709,-398.4389 178.8057,-389 125.7132,-369.6537 103.7436,-370.6068 67.8057,-327 25.868,-276.1131 -.4289,-245.9218 24.8057,-185 64.9179,-88.1606 110.4611,-70.2958 210.8057,-40 249.5689,-28.2967 367.835,-17.4323 420.2894,-13.0462"/>
<polygon fill="#9a32cd" stroke="#9a32cd" points="259.8768,-412.6586 270.3025,-410.7726 260.9762,-405.7455 259.8768,-412.6586"/>
<text text-anchor="middle" x="46.3057" y="-188" font-family="Helvetica,sans-Serif" font-size="10.00" fill="#000000"> OwnerQ</text>
</g>
<!-- Node2&#45;&gt;Node1 -->
<g id="edge1" class="edge">
<title>Node2&#45;&gt;Node1</title>
<path fill="none" stroke="#9a32cd" stroke-dasharray="5,2" d="M432.713,-328.4053C429.0443,-333.6623 425.1482,-339.4832 421.8057,-345 410.3712,-363.8724 415.3158,-374.3601 398.8057,-389 389.4531,-397.2931 377.3991,-403.2284 365.746,-407.4342"/>
<polygon fill="#9a32cd" stroke="#9a32cd" points="435.577,-330.4173 438.5347,-320.2437 429.8782,-326.3524 435.577,-330.4173"/>
<text text-anchor="middle" x="439.3057" y="-364.5" font-family="Helvetica,sans-Serif" font-size="10.00" fill="#000000"> Owner</text>
</g>
<!-- Node4 -->
<g id="node4" class="node">
<title>Node4</title>
<g id="a_node4"><a xlink:href="classpkgAcquire_1_1Item.xhtml" target="_top" xlink:title="Represents the process by which a pkgAcquire object should retrieve a file or a collection of files...">
<polygon fill="#ffffff" stroke="#000000" points="178.3057,-221 178.3057,-240 217.3057,-240 217.3057,-221 178.3057,-221"/>
<text text-anchor="middle" x="197.8057" y="-228" font-family="Helvetica,sans-Serif" font-size="10.00" fill="#000000">Item</text>
</a>
</g>
</g>
<!-- Node2&#45;&gt;Node4 -->
<g id="edge5" class="edge">
<title>Node2&#45;&gt;Node4</title>
<path fill="none" stroke="#9a32cd" stroke-dasharray="5,2" d="M406.3392,-297.7689C352.5399,-280.4143 258.2214,-249.9889 217.4739,-236.8446"/>
<polygon fill="#9a32cd" stroke="#9a32cd" points="405.2995,-301.111 415.8911,-300.8501 407.4485,-294.4491 405.2995,-301.111"/>
<text text-anchor="middle" x="354.3057" y="-268" font-family="Helvetica,sans-Serif" font-size="10.00" fill="#000000"> Owner</text>
</g>
<!-- Node3 -->
<g id="node3" class="node">
<title>Node3</title>
<polygon fill="#ffffff" stroke="#bfbfbf" points="281.3057,-136.5 281.3057,-166.5 394.3057,-166.5 394.3057,-136.5 281.3057,-136.5"/>
<text text-anchor="start" x="289.3057" y="-154.5" font-family="Helvetica,sans-Serif" font-size="10.00" fill="#000000">vector&lt; pkgAcquire</text>
<text text-anchor="middle" x="337.8057" y="-143.5" font-family="Helvetica,sans-Serif" font-size="10.00" fill="#000000">::Item *&gt;</text>
</g>
<!-- Node3&#45;&gt;Node2 -->
<g id="edge2" class="edge">
<title>Node3&#45;&gt;Node2</title>
<path fill="none" stroke="#9a32cd" stroke-dasharray="5,2" d="M359.2862,-174.4404C362.2469,-177.8989 365.1718,-181.486 367.8057,-185 398.4242,-225.8492 428.573,-279.0257 440.4807,-300.6807"/>
<polygon fill="#9a32cd" stroke="#9a32cd" points="361.682,-171.8664 352.4327,-166.6991 356.4408,-176.5065 361.682,-171.8664"/>
<text text-anchor="middle" x="424.3057" y="-228" font-family="Helvetica,sans-Serif" font-size="10.00" fill="#000000"> Items</text>
</g>
<!-- Node13 -->
<g id="node13" class="node">
<title>Node13</title>
<g id="a_node13"><a xlink:href="structpkgAcquire_1_1Queue_1_1QItem.xhtml" target="_top" xlink:title="A single item placed in this queue. ">
<polygon fill="#ffffff" stroke="#000000" points="314.3057,-69.5 314.3057,-88.5 361.3057,-88.5 361.3057,-69.5 314.3057,-69.5"/>
<text text-anchor="middle" x="337.8057" y="-76.5" font-family="Helvetica,sans-Serif" font-size="10.00" fill="#000000">QItem</text>
</a>
</g>
</g>
<!-- Node3&#45;&gt;Node13 -->
<g id="edge25" class="edge">
<title>Node3&#45;&gt;Node13</title>
<path fill="none" stroke="#9a32cd" stroke-dasharray="5,2" d="M337.8057,-126.305C337.8057,-113.424 337.8057,-98.4836 337.8057,-88.8957"/>
<polygon fill="#9a32cd" stroke="#9a32cd" points="334.3058,-126.4779 337.8057,-136.478 341.3058,-126.478 334.3058,-126.4779"/>
<text text-anchor="middle" x="357.8057" y="-110" font-family="Helvetica,sans-Serif" font-size="10.00" fill="#000000"> Owners</text>
</g>
<!-- Node4&#45;&gt;Node3 -->
<g id="edge3" class="edge">
<title>Node4&#45;&gt;Node3</title>
<path fill="none" stroke="#9a32cd" stroke-dasharray="5,2" d="M227.4389,-225.585C249.708,-220.8047 280.146,-211.8675 302.8057,-196 313.7554,-188.3324 322.949,-176.2526 329.162,-166.6125"/>
<polygon fill="#9a32cd" stroke="#9a32cd" points="226.6617,-222.171 217.5365,-227.5545 228.0272,-229.0365 226.6617,-222.171"/>
<text text-anchor="middle" x="339.3057" y="-188" font-family="Helvetica,sans-Serif" font-size="10.00" fill="#000000"> elements</text>
</g>
<!-- Node8 -->
<g id="node8" class="node">
<title>Node8</title>
<g id="a_node8"><a xlink:href="structpkgAcquire_1_1ItemDesc.xhtml" target="_top" xlink:title="Represents a single download source from which an item should be downloaded. ">
<polygon fill="#ffffff" stroke="#000000" points="118.3057,-142 118.3057,-161 181.3057,-161 181.3057,-142 118.3057,-142"/>
<text text-anchor="middle" x="149.8057" y="-149" font-family="Helvetica,sans-Serif" font-size="10.00" fill="#000000">ItemDesc</text>
</a>
</g>
</g>
<!-- Node4&#45;&gt;Node8 -->
<g id="edge11" class="edge">
<title>Node4&#45;&gt;Node8</title>
<path fill="none" stroke="#9a32cd" stroke-dasharray="5,2" d="M191.2478,-211.0402C188.0528,-202.7213 183.8133,-193.0849 178.8057,-185 173.378,-176.2369 165.6868,-167.4691 159.5888,-161.1025"/>
<polygon fill="#9a32cd" stroke="#9a32cd" points="188.0308,-212.4369 194.7154,-220.6567 194.6157,-210.0624 188.0308,-212.4369"/>
<text text-anchor="middle" x="202.3057" y="-188" font-family="Helvetica,sans-Serif" font-size="10.00" fill="#000000"> Owner</text>
</g>
<!-- Node5 -->
<g id="node5" class="node">
<title>Node5</title>
<g id="a_node5"><a xlink:href="classWeakPointable.xhtml" target="_top" xlink:title="WeakPointable">
<polygon fill="#ffffff" stroke="#000000" points="77.3057,-301 77.3057,-320 166.3057,-320 166.3057,-301 77.3057,-301"/>
<text text-anchor="middle" x="121.8057" y="-308" font-family="Helvetica,sans-Serif" font-size="10.00" fill="#000000">WeakPointable</text>
</a>
</g>
</g>
<!-- Node5&#45;&gt;Node4 -->
<g id="edge4" class="edge">
<title>Node5&#45;&gt;Node4</title>
<path fill="none" stroke="#191970" d="M138.4233,-293.0078C153.7473,-276.8772 175.9492,-253.5068 188.4104,-240.3898"/>
<polygon fill="#191970" stroke="#191970" points="135.4748,-291.0298 131.1248,-300.6904 140.5498,-295.851 135.4748,-291.0298"/>
</g>
<!-- Node5&#45;&gt;Node8 -->
<g id="edge9" class="edge">
<title>Node5&#45;&gt;Node8</title>
<path fill="none" stroke="#191970" d="M125.2353,-290.8037C129.5444,-266.087 137.1786,-222.3988 143.8057,-185 145.2284,-176.9713 146.8607,-167.8638 148.0633,-161.1737"/>
<polygon fill="#191970" stroke="#191970" points="121.7735,-290.2818 123.505,-300.7342 128.6697,-291.4835 121.7735,-290.2818"/>
</g>
<!-- Node5&#45;&gt;Node12 -->
<g id="edge20" class="edge">
<title>Node5&#45;&gt;Node12</title>
<path fill="none" stroke="#191970" d="M111.0525,-291.9193C98.9757,-269.8826 80.1103,-231.6351 72.8057,-196 66.5609,-165.535 86.8426,-158.0167 108.8057,-136 159.531,-85.1506 172.3104,-67.1494 238.8057,-40 271.2259,-26.7631 372.4161,-17.0021 420.2571,-12.9995"/>
<polygon fill="#191970" stroke="#191970" points="108.1108,-293.8291 116.0578,-300.836 114.2149,-290.4027 108.1108,-293.8291"/>
</g>
<!-- Node6 -->
<g id="node6" class="node">
<title>Node6</title>
<g id="a_node6"><a xlink:title="STL class. ">
<polygon fill="#ffffff" stroke="#bfbfbf" points="393.8057,-485.5 393.8057,-504.5 437.8057,-504.5 437.8057,-485.5 393.8057,-485.5"/>
<text text-anchor="middle" x="415.8057" y="-492.5" font-family="Helvetica,sans-Serif" font-size="10.00" fill="#000000">string</text>
</a>
</g>
</g>
<!-- Node6&#45;&gt;Node1 -->
<g id="edge34" class="edge">
<title>Node6&#45;&gt;Node1</title>
<path fill="none" stroke="#9a32cd" stroke-dasharray="5,2" d="M387.9326,-480.3418C381.3895,-476.3822 374.6321,-471.8403 368.8057,-467 354.0412,-454.7344 339.9237,-437.3522 331.8221,-426.6463"/>
<polygon fill="#9a32cd" stroke="#9a32cd" points="386.204,-483.3852 396.6143,-485.3538 389.7038,-477.3229 386.204,-483.3852"/>
<text text-anchor="middle" x="385.3057" y="-453.5" font-family="Helvetica,sans-Serif" font-size="10.00" fill="#000000"> Name</text>
</g>
<!-- Node6&#45;&gt;Node2 -->
<g id="edge17" class="edge">
<title>Node6&#45;&gt;Node2</title>
<path fill="none" stroke="#9a32cd" stroke-dasharray="5,2" d="M412.9078,-475.1388C411.1935,-456.0902 411.4974,-427.3055 424.8057,-407 433.7505,-393.3522 448.5677,-403.0857 456.8057,-389 469.5891,-367.1423 458.3137,-336.1518 450.9601,-320.4487"/>
<polygon fill="#9a32cd" stroke="#9a32cd" points="409.4624,-475.8102 414.1024,-485.3349 416.4149,-474.9956 409.4624,-475.8102"/>
<text text-anchor="middle" x="437.8057" y="-414.5" font-family="Helvetica,sans-Serif" font-size="10.00" fill="#000000"> Lock</text>
</g>
<!-- Node6&#45;&gt;Node4 -->
<g id="edge6" class="edge">
<title>Node6&#45;&gt;Node4</title>
<path fill="none" stroke="#9a32cd" stroke-dasharray="5,2" d="M383.3093,-490.7403C332.191,-482.0528 234.8067,-456.9774 195.8057,-389 167.457,-339.5893 186.2611,-266.4539 194.4981,-240.267"/>
<polygon fill="#9a32cd" stroke="#9a32cd" points="383.0524,-494.2432 393.4775,-492.3549 384.1502,-487.3299 383.0524,-494.2432"/>
<text text-anchor="middle" x="240.8057" y="-381" font-family="Helvetica,sans-Serif" font-size="10.00" fill="#000000"> ActiveSubprocess</text>
<text text-anchor="middle" x="240.8057" y="-370" font-family="Helvetica,sans-Serif" font-size="10.00" fill="#000000">DestFile</text>
<text text-anchor="middle" x="240.8057" y="-359" font-family="Helvetica,sans-Serif" font-size="10.00" fill="#000000">ErrorText</text>
<text text-anchor="middle" x="240.8057" y="-348" font-family="Helvetica,sans-Serif" font-size="10.00" fill="#000000">UsedMirror</text>
</g>
<!-- Node6&#45;&gt;Node8 -->
<g id="edge10" class="edge">
<title>Node6&#45;&gt;Node8</title>
<path fill="none" stroke="#9a32cd" stroke-dasharray="5,2" d="M383.2939,-492.9071C349.3755,-489.9422 295.0733,-482.9727 250.8057,-467 133.9245,-424.8267 70.8873,-434.6368 8.8057,-327 -31.323,-257.4251 83.8316,-186.4614 130.8252,-161.1714"/>
<polygon fill="#9a32cd" stroke="#9a32cd" points="383.3023,-496.4191 393.5516,-493.7354 383.8657,-489.4418 383.3023,-496.4191"/>
<text text-anchor="middle" x="38.3057" y="-319" font-family="Helvetica,sans-Serif" font-size="10.00" fill="#000000"> Description</text>
<text text-anchor="middle" x="38.3057" y="-308" font-family="Helvetica,sans-Serif" font-size="10.00" fill="#000000">URI</text>
<text text-anchor="middle" x="38.3057" y="-297" font-family="Helvetica,sans-Serif" font-size="10.00" fill="#000000">ShortDesc</text>
</g>
<!-- Node9 -->
<g id="node9" class="node">
<title>Node9</title>
<g id="a_node9"><a xlink:href="structpkgAcquire_1_1MethodConfig.xhtml" target="_top" xlink:title="Information about the properties of a single acquire method. {{{. ">
<polygon fill="#ffffff" stroke="#000000" points="618.3057,-407.5 618.3057,-426.5 701.3057,-426.5 701.3057,-407.5 618.3057,-407.5"/>
<text text-anchor="middle" x="659.8057" y="-414.5" font-family="Helvetica,sans-Serif" font-size="10.00" fill="#000000">MethodConfig</text>
</a>
</g>
</g>
<!-- Node6&#45;&gt;Node9 -->
<g id="edge15" class="edge">
<title>Node6&#45;&gt;Node9</title>
<path fill="none" stroke="#9a32cd" stroke-dasharray="5,2" d="M448.0171,-492.2591C493.5593,-488.0236 574.1934,-479.096 600.8057,-467 600.9814,-466.9201 631.384,-441.125 648.4716,-426.6216"/>
<polygon fill="#9a32cd" stroke="#9a32cd" points="447.6984,-488.7736 438.0555,-493.1628 448.3308,-495.745 447.6984,-488.7736"/>
<text text-anchor="middle" x="643.3057" y="-459" font-family="Helvetica,sans-Serif" font-size="10.00" fill="#000000"> Access</text>
<text text-anchor="middle" x="643.3057" y="-448" font-family="Helvetica,sans-Serif" font-size="10.00" fill="#000000">Version</text>
</g>
<!-- Node6&#45;&gt;Node12 -->
<g id="edge28" class="edge">
<title>Node6&#45;&gt;Node12</title>
<path fill="none" stroke="#9a32cd" stroke-dasharray="5,2" d="M447.5792,-487.6346C497.7805,-475.0634 589.8057,-447.8161 589.8057,-417 589.8057,-417 589.8057,-417 589.8057,-79 589.8057,-51.1663 565.439,-52.9582 540.8057,-40 518.6763,-28.3591 491.1379,-20.6015 471.4172,-16.0627"/>
<polygon fill="#9a32cd" stroke="#9a32cd" points="446.7226,-484.2409 437.8429,-490.0202 448.3886,-491.0397 446.7226,-484.2409"/>
<text text-anchor="middle" x="615.8057" y="-239" font-family="Helvetica,sans-Serif" font-size="10.00" fill="#000000"> OutQueue</text>
<text text-anchor="middle" x="615.8057" y="-228" font-family="Helvetica,sans-Serif" font-size="10.00" fill="#000000">Access</text>
<text text-anchor="middle" x="615.8057" y="-217" font-family="Helvetica,sans-Serif" font-size="10.00" fill="#000000">Status</text>
</g>
<!-- Node14 -->
<g id="node14" class="node">
<title>Node14</title>
<polygon fill="#ffffff" stroke="#bfbfbf" points="705.3057,-357.5 705.3057,-376.5 824.3057,-376.5 824.3057,-357.5 705.3057,-357.5"/>
<text text-anchor="middle" x="764.8057" y="-364.5" font-family="Helvetica,sans-Serif" font-size="10.00" fill="#000000">vector&lt; std::string &gt;</text>
</g>
<!-- Node6&#45;&gt;Node14 -->
<g id="edge31" class="edge">
<title>Node6&#45;&gt;Node14</title>
<path fill="none" stroke="#9a32cd" stroke-dasharray="5,2" d="M447.9904,-493.409C510.0489,-490.0591 643.9955,-481.3799 687.8057,-467 721.1202,-456.0651 736.182,-456.0576 755.8057,-427 766.0631,-411.8114 766.5346,-389.5513 765.7843,-376.8493"/>
<polygon fill="#9a32cd" stroke="#9a32cd" points="447.7749,-489.9154 437.973,-493.937 448.1434,-496.9057 447.7749,-489.9154"/>
<text text-anchor="middle" x="764.3057" y="-453.5" font-family="Helvetica,sans-Serif" font-size="10.00" fill="#000000"> elements</text>
</g>
<!-- Node7 -->
<g id="node7" class="node">
<title>Node7</title>
<g id="a_node7"><a xlink:title="STL class. ">
<polygon fill="#ffffff" stroke="#bfbfbf" points="356.3057,-542.5 356.3057,-561.5 475.3057,-561.5 475.3057,-542.5 356.3057,-542.5"/>
<text text-anchor="middle" x="415.8057" y="-549.5" font-family="Helvetica,sans-Serif" font-size="10.00" fill="#000000">basic_string&lt; char &gt;</text>
</a>
</g>
</g>
<!-- Node7&#45;&gt;Node6 -->
<g id="edge7" class="edge">
<title>Node7&#45;&gt;Node6</title>
<path fill="none" stroke="#191970" d="M415.8057,-532.2342C415.8057,-522.8491 415.8057,-512.0651 415.8057,-504.5265"/>
<polygon fill="#191970" stroke="#191970" points="412.3058,-532.3307 415.8057,-542.3307 419.3058,-532.3308 412.3058,-532.3307"/>
</g>
<!-- Node8&#45;&gt;Node4 -->
<g id="edge8" class="edge">
<title>Node8&#45;&gt;Node4</title>
<path fill="none" stroke="#9a32cd" stroke-dasharray="5,2" d="M146.5642,-171.3608C146.1624,-179.4156 146.9292,-188.5545 150.8057,-196 156.6019,-207.1328 167.8102,-215.5751 177.8276,-221.3213"/>
<polygon fill="#9a32cd" stroke="#9a32cd" points="150.0556,-171.6289 147.6542,-161.3098 143.0964,-170.8741 150.0556,-171.6289"/>
<text text-anchor="middle" x="164.8057" y="-188" font-family="Helvetica,sans-Serif" font-size="10.00" fill="#000000"> Desc</text>
</g>
<!-- Node8&#45;&gt;Node13 -->
<g id="edge24" class="edge">
<title>Node8&#45;&gt;Node13</title>
<path fill="none" stroke="#191970" d="M184.3313,-138.1856C222.0614,-123.6354 281.4866,-100.7188 314.2206,-88.0953"/>
<polygon fill="#191970" stroke="#191970" points="182.8415,-135.0088 174.7706,-141.8726 185.3602,-141.54 182.8415,-135.0088"/>
</g>
<!-- Node9&#45;&gt;Node2 -->
<g id="edge13" class="edge">
<title>Node9&#45;&gt;Node2</title>
<path fill="none" stroke="#9a32cd" stroke-dasharray="5,2" d="M634.5065,-402.2042C608.2252,-387.0715 565.719,-363.2581 527.8057,-345 508.8809,-335.8863 486.9211,-326.7191 470.4921,-320.1274"/>
<polygon fill="#9a32cd" stroke="#9a32cd" points="633.0082,-405.3808 643.4165,-407.3602 636.5143,-399.3222 633.0082,-405.3808"/>
<text text-anchor="middle" x="629.8057" y="-364.5" font-family="Helvetica,sans-Serif" font-size="10.00" fill="#000000"> Configs</text>
</g>
<!-- Node9&#45;&gt;Node9 -->
<g id="edge14" class="edge">
<title>Node9&#45;&gt;Node9</title>
<path fill="none" stroke="#9a32cd" stroke-dasharray="5,2" d="M711.6247,-422.6621C716.3399,-421.485 719.3057,-419.5977 719.3057,-417 719.3057,-412.8438 711.7132,-410.5059 701.5109,-409.9863"/>
<polygon fill="#9a32cd" stroke="#9a32cd" points="710.9591,-419.2198 701.5109,-424.0137 711.8864,-426.1581 710.9591,-419.2198"/>
<text text-anchor="middle" x="732.8057" y="-414.5" font-family="Helvetica,sans-Serif" font-size="10.00" fill="#000000"> Next</text>
</g>
<!-- Node9&#45;&gt;Node12 -->
<g id="edge22" class="edge">
<title>Node9&#45;&gt;Node12</title>
<path fill="none" stroke="#9a32cd" stroke-dasharray="5,2" d="M665.0748,-397.6741C670.3868,-376.4617 677.8057,-341.3189 677.8057,-310.5 677.8057,-310.5 677.8057,-310.5 677.8057,-79 677.8057,-36.3982 531.9242,-18.6018 471.5202,-13.059"/>
<polygon fill="#9a32cd" stroke="#9a32cd" points="661.6751,-396.8408 662.5395,-407.4004 668.4488,-398.6066 661.6751,-396.8408"/>
<text text-anchor="middle" x="694.8057" y="-188" font-family="Helvetica,sans-Serif" font-size="10.00" fill="#000000"> Config</text>
</g>
<!-- Node10 -->
<g id="node10" class="node">
<title>Node10</title>
<g id="a_node10"><a xlink:href="classpkgAcquire_1_1MethodConfig_1_1Private.xhtml" target="_top" xlink:title="Private">
<polygon fill="#ffffff" stroke="#000000" points="657.3057,-485.5 657.3057,-504.5 708.3057,-504.5 708.3057,-485.5 657.3057,-485.5"/>
<text text-anchor="middle" x="682.8057" y="-492.5" font-family="Helvetica,sans-Serif" font-size="10.00" fill="#000000">Private</text>
</a>
</g>
</g>
<!-- Node10&#45;&gt;Node9 -->
<g id="edge16" class="edge">
<title>Node10&#45;&gt;Node9</title>
<path fill="none" stroke="#9a32cd" stroke-dasharray="5,2" d="M677.1258,-475.7379C672.5289,-460.1484 666.2471,-438.845 662.649,-426.6426"/>
<polygon fill="#9a32cd" stroke="#9a32cd" points="673.7999,-476.8339 679.9854,-485.4357 680.5141,-474.854 673.7999,-476.8339"/>
<text text-anchor="middle" x="678.8057" y="-453.5" font-family="Helvetica,sans-Serif" font-size="10.00" fill="#000000"> d</text>
</g>
<!-- Node11 -->
<g id="node11" class="node">
<title>Node11</title>
<g id="a_node11"><a xlink:href="classpkgAcquireStatus.xhtml" target="_top" xlink:title="A monitor object for downloads controlled by the pkgAcquire class. {{{. ">
<polygon fill="#ffffff" stroke="#000000" points="459.8057,-407.5 459.8057,-426.5 561.8057,-426.5 561.8057,-407.5 459.8057,-407.5"/>
<text text-anchor="middle" x="510.8057" y="-414.5" font-family="Helvetica,sans-Serif" font-size="10.00" fill="#000000">pkgAcquireStatus</text>
</a>
</g>
</g>
<!-- Node11&#45;&gt;Node2 -->
<g id="edge18" class="edge">
<title>Node11&#45;&gt;Node2</title>
<path fill="none" stroke="#9a32cd" stroke-dasharray="5,2" d="M506.2356,-397.6184C502.0378,-382.41 494.7839,-361.1783 483.8057,-345 477.2013,-335.2673 467.3046,-326.3989 459.2668,-320.0912"/>
<polygon fill="#9a32cd" stroke="#9a32cd" points="502.8874,-398.6523 508.7617,-407.4695 509.668,-396.9135 502.8874,-398.6523"/>
<text text-anchor="middle" x="513.3057" y="-364.5" font-family="Helvetica,sans-Serif" font-size="10.00" fill="#000000"> Log</text>
</g>
<!-- Node11&#45;&gt;Node12 -->
<g id="edge29" class="edge">
<title>Node11&#45;&gt;Node12</title>
<path fill="none" stroke="#9a32cd" stroke-dasharray="5,2" d="M523.1675,-398.6341C524.9128,-395.5105 526.5404,-392.23 527.8057,-389 540.7929,-355.8468 543.8057,-346.1062 543.8057,-310.5 543.8057,-310.5 543.8057,-310.5 543.8057,-79 543.8057,-43.7955 500.5897,-25.3604 471.554,-16.9473"/>
<polygon fill="#9a32cd" stroke="#9a32cd" points="520.0793,-396.9745 517.8228,-407.3263 526.0422,-400.641 520.0793,-396.9745"/>
<text text-anchor="middle" x="554.3057" y="-188" font-family="Helvetica,sans-Serif" font-size="10.00" fill="#000000"> Log</text>
</g>
<!-- Node12&#45;&gt;Node1 -->
<g id="edge35" class="edge">
<title>Node12&#45;&gt;Node1</title>
<path fill="none" stroke="#9a32cd" stroke-dasharray="5,2" d="M410.1865,-17.1251C380.6343,-22.6813 341.3441,-31.3102 327.8057,-40 267.2537,-78.8658 267.1132,-113.9421 255.8057,-185 248.525,-230.7529 304.9766,-369.8069 320.7731,-407.4928"/>
<polygon fill="#9a32cd" stroke="#9a32cd" points="410.9708,-20.5398 420.1752,-15.2929 409.7078,-13.6546 410.9708,-20.5398"/>
<text text-anchor="middle" x="277.3057" y="-188" font-family="Helvetica,sans-Serif" font-size="10.00" fill="#000000"> Workers</text>
</g>
<!-- Node12&#45;&gt;Node2 -->
<g id="edge19" class="edge">
<title>Node12&#45;&gt;Node2</title>
<path fill="none" stroke="#9a32cd" stroke-dasharray="5,2" d="M457.6237,-29.6626C464.885,-42.9056 472.8057,-61.3877 472.8057,-79 472.8057,-230.5 472.8057,-230.5 472.8057,-230.5 472.8057,-257.1786 459.159,-286.3581 451.2695,-300.9984"/>
<polygon fill="#9a32cd" stroke="#9a32cd" points="460.4203,-27.5126 452.3416,-20.658 454.3825,-31.0544 460.4203,-27.5126"/>
<text text-anchor="middle" x="494.3057" y="-149" font-family="Helvetica,sans-Serif" font-size="10.00" fill="#000000"> Workers</text>
</g>
<!-- Node12&#45;&gt;Node12 -->
<g id="edge32" class="edge">
<title>Node12&#45;&gt;Node12</title>
<path fill="none" stroke="#9a32cd" stroke-dasharray="5,2" d="M481.8658,-16.5393C486.3552,-15.5577 489.3057,-13.7112 489.3057,-11 489.3057,-6.5508 481.3601,-4.4305 471.7074,-4.639"/>
<polygon fill="#9a32cd" stroke="#9a32cd" points="481.3926,-13.0661 471.7074,-17.361 481.957,-20.0433 481.3926,-13.0661"/>
<text text-anchor="middle" x="519.8057" y="-14" font-family="Helvetica,sans-Serif" font-size="10.00" fill="#000000"> NextQueue</text>
<text text-anchor="middle" x="519.8057" y="-3" font-family="Helvetica,sans-Serif" font-size="10.00" fill="#000000">NextAcquire</text>
</g>
<!-- Node12&#45;&gt;Node13 -->
<g id="edge27" class="edge">
<title>Node12&#45;&gt;Node13</title>
<path fill="none" stroke="#9a32cd" stroke-dasharray="5,2" d="M428.1295,-27.6139C419.4116,-35.303 408.4931,-44.2146 397.8057,-51 386.3545,-58.2703 372.712,-64.7873 361.3314,-69.7007"/>
<polygon fill="#9a32cd" stroke="#9a32cd" points="430.6723,-30.0331 435.7342,-20.7257 425.9729,-24.8449 430.6723,-30.0331"/>
<text text-anchor="middle" x="431.8057" y="-43" font-family="Helvetica,sans-Serif" font-size="10.00" fill="#000000"> Worker</text>
</g>
<!-- Node13&#45;&gt;Node1 -->
<g id="edge33" class="edge">
<title>Node13&#45;&gt;Node1</title>
<path fill="none" stroke="#9a32cd" stroke-dasharray="5,2" d="M364.5203,-93.8562C370.5064,-97.7546 376.6148,-102.2195 381.8057,-107 402.6983,-126.2409 415.2079,-140.9864 403.8057,-167 391.4315,-195.2312 368.3521,-187.3836 352.8057,-214 314.586,-279.4342 320.5825,-376.5138 323.6753,-407.2804"/>
<polygon fill="#9a32cd" stroke="#9a32cd" points="366.3079,-90.8466 355.9585,-88.5791 362.635,-96.8056 366.3079,-90.8466"/>
<text text-anchor="middle" x="368.3057" y="-228" font-family="Helvetica,sans-Serif" font-size="10.00" fill="#000000"> Items</text>
</g>
<!-- Node13&#45;&gt;Node12 -->
<g id="edge23" class="edge">
<title>Node13&#45;&gt;Node12</title>
<path fill="none" stroke="#9a32cd" stroke-dasharray="5,2" d="M331.8991,-59.3994C331.0552,-52.6477 331.6236,-45.4275 335.8057,-40 346.0218,-26.7415 390.9323,-18.3269 420.1156,-14.1542"/>
<polygon fill="#9a32cd" stroke="#9a32cd" points="328.5092,-60.2811 334.0712,-69.2985 335.3465,-58.7807 328.5092,-60.2811"/>
<text text-anchor="middle" x="366.8057" y="-43" font-family="Helvetica,sans-Serif" font-size="10.00" fill="#000000"> CurrentItem</text>
</g>
<!-- Node13&#45;&gt;Node13 -->
<g id="edge26" class="edge">
<title>Node13&#45;&gt;Node13</title>
<path fill="none" stroke="#9a32cd" stroke-dasharray="5,2" d="M371.8205,-84.294C376.3203,-83.3926 379.3057,-81.6279 379.3057,-79 379.3057,-74.6875 371.2661,-72.6997 361.6876,-73.0366"/>
<polygon fill="#9a32cd" stroke="#9a32cd" points="371.4351,-80.8118 361.6876,-84.9634 371.8966,-87.7965 371.4351,-80.8118"/>
<text text-anchor="middle" x="392.8057" y="-76.5" font-family="Helvetica,sans-Serif" font-size="10.00" fill="#000000"> Next</text>
</g>
<!-- Node14&#45;&gt;Node12 -->
<g id="edge30" class="edge">
<title>Node14&#45;&gt;Node12</title>
<path fill="none" stroke="#9a32cd" stroke-dasharray="5,2" d="M761.5771,-347.4072C758.6549,-327.9539 754.8057,-297.2517 754.8057,-270.5 754.8057,-270.5 754.8057,-270.5 754.8057,-79 754.8057,-46.0691 722.897,-50.8524 691.8057,-40 651.5084,-25.9343 525.8006,-16.2458 471.3633,-12.6031"/>
<polygon fill="#9a32cd" stroke="#9a32cd" points="758.1446,-348.1107 763.1544,-357.4463 765.0598,-347.0242 758.1446,-348.1107"/>
<text text-anchor="middle" x="793.8057" y="-188" font-family="Helvetica,sans-Serif" font-size="10.00" fill="#000000"> MessageQueue</text>
</g>
</g>
</svg>
