<?xml version="1.0" encoding="UTF-8" standalone="no"?>
<!DOCTYPE svg PUBLIC "-//W3C//DTD SVG 1.1//EN"
 "http://www.w3.org/Graphics/SVG/1.1/DTD/svg11.dtd">
<!-- Generated by graphviz version 2.40.1 (20161225.0304)
 -->
<!-- Title: debIFTypePkg Pages: 1 -->
<svg width="139pt" height="85pt"
 viewBox="0.00 0.00 139.00 85.00" xmlns="http://www.w3.org/2000/svg" xmlns:xlink="http://www.w3.org/1999/xlink">
<g id="graph0" class="graph" transform="scale(1 1) rotate(0) translate(4 81)">
<title>debIFTypePkg</title>
<polygon fill="#ffffff" stroke="transparent" points="-4,4 -4,-81 135,-81 135,4 -4,4"/>
<!-- Node3 -->
<g id="node1" class="node">
<title>Node3</title>
<polygon fill="#bfbfbf" stroke="#000000" points="0,-.5 0,-19.5 83,-19.5 83,-.5 0,-.5"/>
<text text-anchor="middle" x="41.5" y="-7.5" font-family="Helvetica,sans-Serif" font-size="10.00" fill="#000000">debIFTypePkg</text>
</g>
<!-- Node4 -->
<g id="node2" class="node">
<title>Node4</title>
<g id="a_node2"><a xlink:href="classpkgIndexFile_1_1Type.xhtml" target="_top" xlink:title="Type">
<polygon fill="#ffffff" stroke="#000000" points="22,-57.5 22,-76.5 61,-76.5 61,-57.5 22,-57.5"/>
<text text-anchor="middle" x="41.5" y="-64.5" font-family="Helvetica,sans-Serif" font-size="10.00" fill="#000000">Type</text>
</a>
</g>
</g>
<!-- Node4&#45;&gt;Node3 -->
<g id="edge1" class="edge">
<title>Node4&#45;&gt;Node3</title>
<path fill="none" stroke="#191970" d="M41.5,-47.2342C41.5,-37.8491 41.5,-27.0651 41.5,-19.5265"/>
<polygon fill="#191970" stroke="#191970" points="38.0001,-47.3307 41.5,-57.3307 45.0001,-47.3308 38.0001,-47.3307"/>
</g>
<!-- Node4&#45;&gt;Node4 -->
<g id="edge2" class="edge">
<title>Node4&#45;&gt;Node4</title>
<path fill="none" stroke="#9a32cd" stroke-dasharray="5,2" d="M71.3313,-71.7918C75.8972,-71.0633 79,-69.4661 79,-67 79,-62.9531 70.6443,-61.2458 61.1788,-61.8782"/>
<polygon fill="#9a32cd" stroke="#9a32cd" points="71.0598,-68.2987 61.1788,-72.1218 71.2873,-75.295 71.0598,-68.2987"/>
<text text-anchor="middle" x="105" y="-64.5" font-family="Helvetica,sans-Serif" font-size="10.00" fill="#000000"> GlobalList</text>
</g>
</g>
</svg>
