<?xml version="1.0" encoding="UTF-8" standalone="no"?>
<!DOCTYPE svg PUBLIC "-//W3C//DTD SVG 1.1//EN"
 "http://www.w3.org/Graphics/SVG/1.1/DTD/svg11.dtd">
<!-- Generated by graphviz version 2.40.1 (20161225.0304)
 -->
<!-- Title: PackageManager Pages: 1 -->
<svg width="333pt" height="142pt"
 viewBox="0.00 0.00 333.00 142.00" xmlns="http://www.w3.org/2000/svg" xmlns:xlink="http://www.w3.org/1999/xlink">
<g id="graph0" class="graph" transform="scale(1 1) rotate(0) translate(4 138)">
<title>PackageManager</title>
<polygon fill="#ffffff" stroke="transparent" points="-4,4 -4,-138 329,-138 329,4 -4,4"/>
<!-- Node0 -->
<g id="node1" class="node">
<title>Node0</title>
<polygon fill="#bfbfbf" stroke="#000000" points="0,-57.5 0,-76.5 99,-76.5 99,-57.5 0,-57.5"/>
<text text-anchor="middle" x="49.5" y="-64.5" font-family="Helvetica,sans-Serif" font-size="10.00" fill="#000000">PackageManager</text>
</g>
<!-- Node1 -->
<g id="node2" class="node">
<title>Node1</title>
<g id="a_node2"><a xlink:href="classAPT_1_1Progress_1_1PackageManagerFancy.xhtml" target="_top" xlink:title="PackageManagerFancy">
<polygon fill="#ffffff" stroke="#000000" points="166.5,-114.5 166.5,-133.5 293.5,-133.5 293.5,-114.5 166.5,-114.5"/>
<text text-anchor="middle" x="230" y="-121.5" font-family="Helvetica,sans-Serif" font-size="10.00" fill="#000000">PackageManagerFancy</text>
</a>
</g>
</g>
<!-- Node0&#45;&gt;Node1 -->
<g id="edge1" class="edge">
<title>Node0&#45;&gt;Node1</title>
<path fill="none" stroke="#191970" d="M76.7868,-80.9845C93.2855,-88.967 114.9421,-98.6233 135,-105 146.7013,-108.72 159.454,-111.8634 171.7071,-114.4566"/>
<polygon fill="#191970" stroke="#191970" points="78.2367,-77.7971 67.7197,-76.5153 75.1419,-84.0759 78.2367,-77.7971"/>
</g>
<!-- Node2 -->
<g id="node3" class="node">
<title>Node2</title>
<g id="a_node3"><a xlink:href="classAPT_1_1Progress_1_1PackageManagerProgressDeb822Fd.xhtml" target="_top" xlink:title="PackageManagerProgressDeb822Fd">
<polygon fill="#ffffff" stroke="#000000" points="135,-76.5 135,-95.5 325,-95.5 325,-76.5 135,-76.5"/>
<text text-anchor="middle" x="230" y="-83.5" font-family="Helvetica,sans-Serif" font-size="10.00" fill="#000000">PackageManagerProgressDeb822Fd</text>
</a>
</g>
</g>
<!-- Node0&#45;&gt;Node2 -->
<g id="edge2" class="edge">
<title>Node0&#45;&gt;Node2</title>
<path fill="none" stroke="#191970" d="M109.5315,-73.3191C119.1709,-74.3338 129.3302,-75.4032 139.4939,-76.473"/>
<polygon fill="#191970" stroke="#191970" points="109.6117,-69.8083 99.3002,-72.2421 108.8789,-76.7698 109.6117,-69.8083"/>
</g>
<!-- Node3 -->
<g id="node4" class="node">
<title>Node3</title>
<g id="a_node4"><a xlink:href="classAPT_1_1Progress_1_1PackageManagerProgressFd.xhtml" target="_top" xlink:title="PackageManagerProgressFd">
<polygon fill="#ffffff" stroke="#000000" points="154,-38.5 154,-57.5 306,-57.5 306,-38.5 154,-38.5"/>
<text text-anchor="middle" x="230" y="-45.5" font-family="Helvetica,sans-Serif" font-size="10.00" fill="#000000">PackageManagerProgressFd</text>
</a>
</g>
</g>
<!-- Node0&#45;&gt;Node3 -->
<g id="edge3" class="edge">
<title>Node0&#45;&gt;Node3</title>
<path fill="none" stroke="#191970" d="M109.4546,-60.689C123.7096,-59.1885 139.1054,-57.5679 153.9728,-56.0029"/>
<polygon fill="#191970" stroke="#191970" points="108.8789,-57.2302 99.3002,-61.7579 109.6117,-64.1917 108.8789,-57.2302"/>
</g>
<!-- Node4 -->
<g id="node5" class="node">
<title>Node4</title>
<g id="a_node5"><a xlink:href="classAPT_1_1Progress_1_1PackageManagerText.xhtml" target="_top" xlink:title="PackageManagerText">
<polygon fill="#ffffff" stroke="#000000" points="170.5,-.5 170.5,-19.5 289.5,-19.5 289.5,-.5 170.5,-.5"/>
<text text-anchor="middle" x="230" y="-7.5" font-family="Helvetica,sans-Serif" font-size="10.00" fill="#000000">PackageManagerText</text>
</a>
</g>
</g>
<!-- Node0&#45;&gt;Node4 -->
<g id="edge4" class="edge">
<title>Node0&#45;&gt;Node4</title>
<path fill="none" stroke="#191970" d="M76.7868,-53.0155C93.2855,-45.033 114.9421,-35.3767 135,-29 146.7013,-25.28 159.454,-22.1366 171.7071,-19.5434"/>
<polygon fill="#191970" stroke="#191970" points="75.1419,-49.9241 67.7197,-57.4847 78.2367,-56.2029 75.1419,-49.9241"/>
</g>
</g>
</svg>
