<?xml version="1.0" encoding="UTF-8" standalone="no"?>
<!DOCTYPE svg PUBLIC "-//W3C//DTD SVG 1.1//EN"
 "http://www.w3.org/Graphics/SVG/1.1/DTD/svg11.dtd">
<!-- Generated by graphviz version 2.40.1 (20161225.0304)
 -->
<!-- Title: apt&#45;pkg/edsp.h Pages: 1 -->
<svg width="272pt" height="140pt"
 viewBox="0.00 0.00 272.00 140.00" xmlns="http://www.w3.org/2000/svg" xmlns:xlink="http://www.w3.org/1999/xlink">
<g id="graph0" class="graph" transform="scale(1 1) rotate(0) translate(4 136)">
<title>apt&#45;pkg/edsp.h</title>
<polygon fill="#ffffff" stroke="transparent" points="-4,4 -4,-136 268,-136 268,4 -4,4"/>
<!-- Node46 -->
<g id="node1" class="node">
<title>Node46</title>
<polygon fill="#bfbfbf" stroke="#000000" points="85,-112.5 85,-131.5 174,-131.5 174,-112.5 85,-112.5"/>
<text text-anchor="middle" x="129.5" y="-119.5" font-family="Helvetica,sans-Serif" font-size="10.00" fill="#000000">apt&#45;pkg/edsp.h</text>
</g>
<!-- Node47 -->
<g id="node2" class="node">
<title>Node47</title>
<g id="a_node2"><a xlink:href="packagemanager_8h_source.xhtml" target="_top" xlink:title="apt&#45;pkg/packagemanager.h">
<polygon fill="#ffffff" stroke="#000000" points="54.5,-56.5 54.5,-75.5 204.5,-75.5 204.5,-56.5 54.5,-56.5"/>
<text text-anchor="middle" x="129.5" y="-63.5" font-family="Helvetica,sans-Serif" font-size="10.00" fill="#000000">apt&#45;pkg/packagemanager.h</text>
</a>
</g>
</g>
<!-- Node46&#45;&gt;Node47 -->
<g id="edge1" class="edge">
<title>Node46&#45;&gt;Node47</title>
<path fill="none" stroke="#191970" d="M129.5,-102.1575C129.5,-93.155 129.5,-82.9199 129.5,-75.6427"/>
<polygon fill="#191970" stroke="#191970" points="126.0001,-102.2455 129.5,-112.2455 133.0001,-102.2456 126.0001,-102.2455"/>
</g>
<!-- Node48 -->
<g id="node3" class="node">
<title>Node48</title>
<g id="a_node3"><a xlink:href="algorithms_8h_source.xhtml" target="_top" xlink:title="apt&#45;pkg/algorithms.h">
<polygon fill="#ffffff" stroke="#000000" points="0,-.5 0,-19.5 119,-19.5 119,-.5 0,-.5"/>
<text text-anchor="middle" x="59.5" y="-7.5" font-family="Helvetica,sans-Serif" font-size="10.00" fill="#000000">apt&#45;pkg/algorithms.h</text>
</a>
</g>
</g>
<!-- Node47&#45;&gt;Node48 -->
<g id="edge2" class="edge">
<title>Node47&#45;&gt;Node48</title>
<path fill="none" stroke="#191970" d="M109.41,-49.928C97.1747,-40.1397 81.9493,-27.9595 71.5533,-19.6427"/>
<polygon fill="#191970" stroke="#191970" points="107.3118,-52.7316 117.3069,-56.2455 111.6847,-47.2655 107.3118,-52.7316"/>
</g>
<!-- Node49 -->
<g id="node4" class="node">
<title>Node49</title>
<g id="a_node4"><a xlink:href="dpkgpm_8h_source.xhtml" target="_top" xlink:title="apt&#45;pkg/deb/dpkgpm.h">
<polygon fill="#ffffff" stroke="#000000" points="137,-.5 137,-19.5 264,-19.5 264,-.5 137,-.5"/>
<text text-anchor="middle" x="200.5" y="-7.5" font-family="Helvetica,sans-Serif" font-size="10.00" fill="#000000">apt&#45;pkg/deb/dpkgpm.h</text>
</a>
</g>
</g>
<!-- Node47&#45;&gt;Node49 -->
<g id="edge3" class="edge">
<title>Node47&#45;&gt;Node49</title>
<path fill="none" stroke="#191970" d="M149.877,-49.928C162.2871,-40.1397 177.73,-27.9595 188.2745,-19.6427"/>
<polygon fill="#191970" stroke="#191970" points="147.5514,-47.3046 141.8673,-56.2455 151.8864,-52.8007 147.5514,-47.3046"/>
</g>
</g>
</svg>
