<?xml version="1.0" encoding="UTF-8" standalone="no"?>
<!DOCTYPE svg PUBLIC "-//W3C//DTD SVG 1.1//EN"
 "http://www.w3.org/Graphics/SVG/1.1/DTD/svg11.dtd">
<!-- Generated by graphviz version 2.40.1 (20161225.0304)
 -->
<!-- Title: Graphical Class Hierarchy Pages: 1 -->
<svg width="401pt" height="237pt"
 viewBox="0.00 0.00 401.00 237.00" xmlns="http://www.w3.org/2000/svg" xmlns:xlink="http://www.w3.org/1999/xlink">
<g id="graph0" class="graph" transform="scale(1 1) rotate(0) translate(4 233)">
<title>Graphical Class Hierarchy</title>
<polygon fill="#ffffff" stroke="transparent" points="-4,4 -4,-233 397,-233 397,4 -4,4"/>
<!-- Node0 -->
<g id="node1" class="node">
<title>Node0</title>
<g id="a_node1"><a xlink:href="classAPT_1_1CacheFilter_1_1Matcher.xhtml" target="_top" xlink:title="Matcher">
<polygon fill="#ffffff" stroke="#000000" points="0,-114.5 0,-133.5 56,-133.5 56,-114.5 0,-114.5"/>
<text text-anchor="middle" x="28" y="-121.5" font-family="Helvetica,sans-Serif" font-size="10.00" fill="#000000">Matcher</text>
</a>
</g>
</g>
<!-- Node1 -->
<g id="node2" class="node">
<title>Node1</title>
<g id="a_node2"><a xlink:href="classAPT_1_1CacheFilter_1_1ANDMatcher.xhtml" target="_top" xlink:title="ANDMatcher">
<polygon fill="#ffffff" stroke="#000000" points="101.5,-209.5 101.5,-228.5 178.5,-228.5 178.5,-209.5 101.5,-209.5"/>
<text text-anchor="middle" x="140" y="-216.5" font-family="Helvetica,sans-Serif" font-size="10.00" fill="#000000">ANDMatcher</text>
</a>
</g>
</g>
<!-- Node0&#45;&gt;Node1 -->
<g id="edge1" class="edge">
<title>Node0&#45;&gt;Node1</title>
<path fill="none" stroke="#191970" d="M39.4635,-142.2288C50.9439,-159.1983 70.029,-184.1848 92,-200 97.1645,-203.7175 103.1564,-206.8345 109.1196,-209.398"/>
<polygon fill="#191970" stroke="#191970" points="42.3062,-140.1811 33.8978,-133.7352 36.4513,-144.0177 42.3062,-140.1811"/>
</g>
<!-- Node2 -->
<g id="node3" class="node">
<title>Node2</title>
<g id="a_node3"><a xlink:href="classAPT_1_1CacheFilter_1_1FalseMatcher.xhtml" target="_top" xlink:title="FalseMatcher">
<polygon fill="#ffffff" stroke="#000000" points="100,-171.5 100,-190.5 180,-190.5 180,-171.5 100,-171.5"/>
<text text-anchor="middle" x="140" y="-178.5" font-family="Helvetica,sans-Serif" font-size="10.00" fill="#000000">FalseMatcher</text>
</a>
</g>
</g>
<!-- Node0&#45;&gt;Node2 -->
<g id="edge2" class="edge">
<title>Node0&#45;&gt;Node2</title>
<path fill="none" stroke="#191970" d="M51.1128,-138.9325C63.0663,-146.3418 78.0423,-155.1479 92,-162 98.9189,-165.3967 106.6062,-168.6554 113.7647,-171.4856"/>
<polygon fill="#191970" stroke="#191970" points="52.9561,-135.9572 42.628,-133.5944 49.2284,-141.8821 52.9561,-135.9572"/>
</g>
<!-- Node3 -->
<g id="node4" class="node">
<title>Node3</title>
<g id="a_node4"><a xlink:href="classAPT_1_1CacheFilter_1_1NOTMatcher.xhtml" target="_top" xlink:title="NOTMatcher">
<polygon fill="#ffffff" stroke="#000000" points="101.5,-133.5 101.5,-152.5 178.5,-152.5 178.5,-133.5 101.5,-133.5"/>
<text text-anchor="middle" x="140" y="-140.5" font-family="Helvetica,sans-Serif" font-size="10.00" fill="#000000">NOTMatcher</text>
</a>
</g>
</g>
<!-- Node0&#45;&gt;Node3 -->
<g id="edge3" class="edge">
<title>Node0&#45;&gt;Node3</title>
<path fill="none" stroke="#191970" d="M66.2523,-130.4892C77.5236,-132.4013 89.8646,-134.4949 101.1716,-136.413"/>
<polygon fill="#191970" stroke="#191970" points="66.7069,-127.0164 56.2623,-128.7945 65.5361,-133.9178 66.7069,-127.0164"/>
</g>
<!-- Node4 -->
<g id="node5" class="node">
<title>Node4</title>
<g id="a_node5"><a xlink:href="classAPT_1_1CacheFilter_1_1ORMatcher.xhtml" target="_top" xlink:title="ORMatcher">
<polygon fill="#ffffff" stroke="#000000" points="105,-95.5 105,-114.5 175,-114.5 175,-95.5 105,-95.5"/>
<text text-anchor="middle" x="140" y="-102.5" font-family="Helvetica,sans-Serif" font-size="10.00" fill="#000000">ORMatcher</text>
</a>
</g>
</g>
<!-- Node0&#45;&gt;Node4 -->
<g id="edge4" class="edge">
<title>Node0&#45;&gt;Node4</title>
<path fill="none" stroke="#191970" d="M66.3904,-117.4873C78.8871,-115.3674 92.6863,-113.0264 104.9273,-110.9498"/>
<polygon fill="#191970" stroke="#191970" points="65.5361,-114.0822 56.2623,-119.2055 66.7069,-120.9836 65.5361,-114.0822"/>
</g>
<!-- Node5 -->
<g id="node6" class="node">
<title>Node5</title>
<g id="a_node6"><a xlink:href="classAPT_1_1CacheFilter_1_1PackageMatcher.xhtml" target="_top" xlink:title="PackageMatcher">
<polygon fill="#ffffff" stroke="#000000" points="92,-57.5 92,-76.5 188,-76.5 188,-57.5 92,-57.5"/>
<text text-anchor="middle" x="140" y="-64.5" font-family="Helvetica,sans-Serif" font-size="10.00" fill="#000000">PackageMatcher</text>
</a>
</g>
</g>
<!-- Node0&#45;&gt;Node5 -->
<g id="edge5" class="edge">
<title>Node0&#45;&gt;Node5</title>
<path fill="none" stroke="#191970" d="M51.1128,-109.0675C63.0663,-101.6582 78.0423,-92.8521 92,-86 98.9189,-82.6033 106.6062,-79.3446 113.7647,-76.5144"/>
<polygon fill="#191970" stroke="#191970" points="49.2284,-106.1179 42.628,-114.4056 52.9561,-112.0428 49.2284,-106.1179"/>
</g>
<!-- Node10 -->
<g id="node11" class="node">
<title>Node10</title>
<g id="a_node11"><a xlink:href="classAPT_1_1CacheFilter_1_1TrueMatcher.xhtml" target="_top" xlink:title="TrueMatcher">
<polygon fill="#ffffff" stroke="#000000" points="102,-19.5 102,-38.5 178,-38.5 178,-19.5 102,-19.5"/>
<text text-anchor="middle" x="140" y="-26.5" font-family="Helvetica,sans-Serif" font-size="10.00" fill="#000000">TrueMatcher</text>
</a>
</g>
</g>
<!-- Node0&#45;&gt;Node10 -->
<g id="edge10" class="edge">
<title>Node0&#45;&gt;Node10</title>
<path fill="none" stroke="#191970" d="M39.4635,-105.7712C50.9439,-88.8017 70.029,-63.8152 92,-48 97.1645,-44.2825 103.1564,-41.1655 109.1196,-38.602"/>
<polygon fill="#191970" stroke="#191970" points="36.4513,-103.9823 33.8978,-114.2648 42.3062,-107.8189 36.4513,-103.9823"/>
</g>
<!-- Node6 -->
<g id="node7" class="node">
<title>Node6</title>
<g id="a_node7"><a xlink:href="classAPT_1_1CacheFilter_1_1PackageArchitectureMatchesSpecification.xhtml" target="_top" xlink:title="PackageArchitectureMatches\lSpecification">
<polygon fill="#ffffff" stroke="#000000" points="230,-115 230,-145 387,-145 387,-115 230,-115"/>
<text text-anchor="start" x="238" y="-133" font-family="Helvetica,sans-Serif" font-size="10.00" fill="#000000">PackageArchitectureMatches</text>
<text text-anchor="middle" x="308.5" y="-122" font-family="Helvetica,sans-Serif" font-size="10.00" fill="#000000">Specification</text>
</a>
</g>
</g>
<!-- Node5&#45;&gt;Node6 -->
<g id="edge6" class="edge">
<title>Node5&#45;&gt;Node6</title>
<path fill="none" stroke="#191970" d="M175.0882,-80.3759C179.4663,-82.1951 183.8579,-84.094 188,-86 204.4352,-93.5627 207.2438,-98.1781 224,-105 232.9267,-108.6343 242.5773,-111.9939 252.0549,-114.994"/>
<polygon fill="#191970" stroke="#191970" points="176.2097,-77.0541 165.6269,-76.5486 173.5846,-83.5433 176.2097,-77.0541"/>
</g>
<!-- Node7 -->
<g id="node8" class="node">
<title>Node7</title>
<g id="a_node8"><a xlink:href="classAPT_1_1CacheFilter_1_1PackageIsNewInstall.xhtml" target="_top" xlink:title="PackageIsNewInstall">
<polygon fill="#ffffff" stroke="#000000" points="250,-76.5 250,-95.5 367,-95.5 367,-76.5 250,-76.5"/>
<text text-anchor="middle" x="308.5" y="-83.5" font-family="Helvetica,sans-Serif" font-size="10.00" fill="#000000">PackageIsNewInstall</text>
</a>
</g>
</g>
<!-- Node5&#45;&gt;Node7 -->
<g id="edge7" class="edge">
<title>Node5&#45;&gt;Node7</title>
<path fill="none" stroke="#191970" d="M198.4081,-73.5861C215.0159,-75.4588 233.1071,-77.4987 249.736,-79.3738"/>
<polygon fill="#191970" stroke="#191970" points="198.6146,-70.0873 188.2853,-72.4446 197.8302,-77.0432 198.6146,-70.0873"/>
</g>
<!-- Node8 -->
<g id="node9" class="node">
<title>Node8</title>
<g id="a_node9"><a xlink:href="classAPT_1_1CacheFilter_1_1PackageNameMatchesFnmatch.xhtml" target="_top" xlink:title="PackageNameMatchesFnmatch">
<polygon fill="#ffffff" stroke="#000000" points="224,-38.5 224,-57.5 393,-57.5 393,-38.5 224,-38.5"/>
<text text-anchor="middle" x="308.5" y="-45.5" font-family="Helvetica,sans-Serif" font-size="10.00" fill="#000000">PackageNameMatchesFnmatch</text>
</a>
</g>
</g>
<!-- Node5&#45;&gt;Node8 -->
<g id="edge8" class="edge">
<title>Node5&#45;&gt;Node8</title>
<path fill="none" stroke="#191970" d="M198.3079,-60.4252C206.7002,-59.4789 215.4732,-58.4897 224.2461,-57.5004"/>
<polygon fill="#191970" stroke="#191970" points="197.8302,-56.9568 188.2853,-61.5554 198.6146,-63.9127 197.8302,-56.9568"/>
</g>
<!-- Node9 -->
<g id="node10" class="node">
<title>Node9</title>
<g id="a_node10"><a xlink:href="classAPT_1_1CacheFilter_1_1PackageNameMatchesRegEx.xhtml" target="_top" xlink:title="PackageNameMatchesRegEx">
<polygon fill="#ffffff" stroke="#000000" points="230,-.5 230,-19.5 387,-19.5 387,-.5 230,-.5"/>
<text text-anchor="middle" x="308.5" y="-7.5" font-family="Helvetica,sans-Serif" font-size="10.00" fill="#000000">PackageNameMatchesRegEx</text>
</a>
</g>
</g>
<!-- Node5&#45;&gt;Node9 -->
<g id="edge9" class="edge">
<title>Node5&#45;&gt;Node9</title>
<path fill="none" stroke="#191970" d="M175.0882,-53.6241C179.4663,-51.8049 183.8579,-49.906 188,-48 204.4352,-40.4373 207.0264,-35.2613 224,-29 234.1572,-25.2532 245.285,-22.111 256.0341,-19.5298"/>
<polygon fill="#191970" stroke="#191970" points="173.5846,-50.4567 165.6269,-57.4514 176.2097,-56.9459 173.5846,-50.4567"/>
</g>
</g>
</svg>
