<?xml version="1.0" encoding="UTF-8" standalone="no"?>
<!DOCTYPE svg PUBLIC "-//W3C//DTD SVG 1.1//EN"
 "http://www.w3.org/Graphics/SVG/1.1/DTD/svg11.dtd">
<!-- Generated by graphviz version 2.40.1 (20161225.0304)
 -->
<!-- Title: Graphical Class Hierarchy Pages: 1 -->
<svg width="445pt" height="66pt"
 viewBox="0.00 0.00 445.00 66.00" xmlns="http://www.w3.org/2000/svg" xmlns:xlink="http://www.w3.org/1999/xlink">
<g id="graph0" class="graph" transform="scale(1 1) rotate(0) translate(4 62)">
<title>Graphical Class Hierarchy</title>
<polygon fill="#ffffff" stroke="transparent" points="-4,4 -4,-62 441,-62 441,4 -4,4"/>
<!-- Node0 -->
<g id="node1" class="node">
<title>Node0</title>
<g id="a_node1"><a xlink:href="classpkgRecords_1_1Parser.xhtml" target="_top" xlink:title="pkgRecords::Parser">
<polygon fill="#ffffff" stroke="#000000" points="0,-19.5 0,-38.5 109,-38.5 109,-19.5 0,-19.5"/>
<text text-anchor="middle" x="54.5" y="-26.5" font-family="Helvetica,sans-Serif" font-size="10.00" fill="#000000">pkgRecords::Parser</text>
</a>
</g>
</g>
<!-- Node1 -->
<g id="node2" class="node">
<title>Node1</title>
<g id="a_node2"><a xlink:href="classdebRecordParserBase.xhtml" target="_top" xlink:title="debRecordParserBase">
<polygon fill="#ffffff" stroke="#000000" points="145,-19.5 145,-38.5 267,-38.5 267,-19.5 145,-19.5"/>
<text text-anchor="middle" x="206" y="-26.5" font-family="Helvetica,sans-Serif" font-size="10.00" fill="#000000">debRecordParserBase</text>
</a>
</g>
</g>
<!-- Node0&#45;&gt;Node1 -->
<g id="edge1" class="edge">
<title>Node0&#45;&gt;Node1</title>
<path fill="none" stroke="#191970" d="M119.4148,-29C127.8925,-29 136.5551,-29 144.9659,-29"/>
<polygon fill="#191970" stroke="#191970" points="119.195,-25.5001 109.195,-29 119.1949,-32.5001 119.195,-25.5001"/>
</g>
<!-- Node2 -->
<g id="node3" class="node">
<title>Node2</title>
<g id="a_node3"><a xlink:href="classdebDebFileRecordParser.xhtml" target="_top" xlink:title="debDebFileRecordParser">
<polygon fill="#ffffff" stroke="#000000" points="303,-38.5 303,-57.5 437,-57.5 437,-38.5 303,-38.5"/>
<text text-anchor="middle" x="370" y="-45.5" font-family="Helvetica,sans-Serif" font-size="10.00" fill="#000000">debDebFileRecordParser</text>
</a>
</g>
</g>
<!-- Node1&#45;&gt;Node2 -->
<g id="edge2" class="edge">
<title>Node1&#45;&gt;Node2</title>
<path fill="none" stroke="#191970" d="M277.0236,-37.2283C285.5879,-38.2206 294.3149,-39.2316 302.8217,-40.2172"/>
<polygon fill="#191970" stroke="#191970" points="277.4039,-33.7491 267.0675,-36.0749 276.5983,-40.7026 277.4039,-33.7491"/>
</g>
<!-- Node3 -->
<g id="node4" class="node">
<title>Node3</title>
<g id="a_node4"><a xlink:href="classdebRecordParser.xhtml" target="_top" xlink:title="debRecordParser">
<polygon fill="#ffffff" stroke="#000000" points="321,-.5 321,-19.5 419,-19.5 419,-.5 321,-.5"/>
<text text-anchor="middle" x="370" y="-7.5" font-family="Helvetica,sans-Serif" font-size="10.00" fill="#000000">debRecordParser</text>
</a>
</g>
</g>
<!-- Node1&#45;&gt;Node3 -->
<g id="edge3" class="edge">
<title>Node1&#45;&gt;Node3</title>
<path fill="none" stroke="#191970" d="M277.1807,-20.7535C291.9331,-19.0443 307.161,-17.2801 320.9092,-15.6874"/>
<polygon fill="#191970" stroke="#191970" points="276.5983,-17.2974 267.0675,-21.9251 277.4039,-24.2509 276.5983,-17.2974"/>
</g>
</g>
</svg>
