<?xml version="1.0" encoding="UTF-8" standalone="no"?>
<!DOCTYPE svg PUBLIC "-//W3C//DTD SVG 1.1//EN"
 "http://www.w3.org/Graphics/SVG/1.1/DTD/svg11.dtd">
<!-- Generated by graphviz version 2.40.1 (20161225.0304)
 -->
<!-- Title: Graphical Class Hierarchy Pages: 1 -->
<svg width="395pt" height="66pt"
 viewBox="0.00 0.00 395.00 66.00" xmlns="http://www.w3.org/2000/svg" xmlns:xlink="http://www.w3.org/1999/xlink">
<g id="graph0" class="graph" transform="scale(1 1) rotate(0) translate(4 62)">
<title>Graphical Class Hierarchy</title>
<polygon fill="#ffffff" stroke="transparent" points="-4,4 -4,-62 391,-62 391,4 -4,4"/>
<!-- Node0 -->
<g id="node1" class="node">
<title>Node0</title>
<g id="a_node1"><a xlink:href="classpkgSourceList_1_1Type.xhtml" target="_top" xlink:title="pkgSourceList::Type">
<polygon fill="#ffffff" stroke="#000000" points="0,-19.5 0,-38.5 113,-38.5 113,-19.5 0,-19.5"/>
<text text-anchor="middle" x="56.5" y="-26.5" font-family="Helvetica,sans-Serif" font-size="10.00" fill="#000000">pkgSourceList::Type</text>
</a>
</g>
</g>
<!-- Node1 -->
<g id="node2" class="node">
<title>Node1</title>
<g id="a_node2"><a xlink:href="classdebSLTypeDebian.xhtml" target="_top" xlink:title="debSLTypeDebian">
<polygon fill="#ffffff" stroke="#000000" points="149,-19.5 149,-38.5 250,-38.5 250,-19.5 149,-19.5"/>
<text text-anchor="middle" x="199.5" y="-26.5" font-family="Helvetica,sans-Serif" font-size="10.00" fill="#000000">debSLTypeDebian</text>
</a>
</g>
</g>
<!-- Node0&#45;&gt;Node1 -->
<g id="edge1" class="edge">
<title>Node0&#45;&gt;Node1</title>
<path fill="none" stroke="#191970" d="M123.1356,-29C131.8187,-29 140.5979,-29 148.9578,-29"/>
<polygon fill="#191970" stroke="#191970" points="123.0174,-25.5001 113.0174,-29 123.0174,-32.5001 123.0174,-25.5001"/>
</g>
<!-- Node2 -->
<g id="node3" class="node">
<title>Node2</title>
<g id="a_node3"><a xlink:href="classdebSLTypeDeb.xhtml" target="_top" xlink:title="debSLTypeDeb">
<polygon fill="#ffffff" stroke="#000000" points="293.5,-38.5 293.5,-57.5 379.5,-57.5 379.5,-38.5 293.5,-38.5"/>
<text text-anchor="middle" x="336.5" y="-45.5" font-family="Helvetica,sans-Serif" font-size="10.00" fill="#000000">debSLTypeDeb</text>
</a>
</g>
</g>
<!-- Node1&#45;&gt;Node2 -->
<g id="edge2" class="edge">
<title>Node1&#45;&gt;Node2</title>
<path fill="none" stroke="#191970" d="M260.2397,-37.4238C271.3763,-38.9682 282.7901,-40.5512 293.2831,-42.0064"/>
<polygon fill="#191970" stroke="#191970" points="260.5105,-33.9279 250.1245,-36.0209 259.5489,-40.8615 260.5105,-33.9279"/>
</g>
<!-- Node3 -->
<g id="node4" class="node">
<title>Node3</title>
<g id="a_node4"><a xlink:href="classdebSLTypeDebSrc.xhtml" target="_top" xlink:title="debSLTypeDebSrc">
<polygon fill="#ffffff" stroke="#000000" points="286,-.5 286,-19.5 387,-19.5 387,-.5 286,-.5"/>
<text text-anchor="middle" x="336.5" y="-7.5" font-family="Helvetica,sans-Serif" font-size="10.00" fill="#000000">debSLTypeDebSrc</text>
</a>
</g>
</g>
<!-- Node1&#45;&gt;Node3 -->
<g id="edge3" class="edge">
<title>Node1&#45;&gt;Node3</title>
<path fill="none" stroke="#191970" d="M260.0418,-20.6037C268.5829,-19.4192 277.2913,-18.2114 285.6262,-17.0555"/>
<polygon fill="#191970" stroke="#191970" points="259.5489,-17.1385 250.1245,-21.9791 260.5105,-24.0721 259.5489,-17.1385"/>
</g>
</g>
</svg>
