<?xml version="1.0" encoding="UTF-8" standalone="no"?>
<!DOCTYPE svg PUBLIC "-//W3C//DTD SVG 1.1//EN"
 "http://www.w3.org/Graphics/SVG/1.1/DTD/svg11.dtd">
<!-- Generated by graphviz version 2.40.1 (20161225.0304)
 -->
<!-- Title: Graphical Class Hierarchy Pages: 1 -->
<svg width="520pt" height="161pt"
 viewBox="0.00 0.00 520.00 161.00" xmlns="http://www.w3.org/2000/svg" xmlns:xlink="http://www.w3.org/1999/xlink">
<g id="graph0" class="graph" transform="scale(1 1) rotate(0) translate(4 157)">
<title>Graphical Class Hierarchy</title>
<polygon fill="#ffffff" stroke="transparent" points="-4,4 -4,-157 516,-157 516,4 -4,4"/>
<!-- Node0 -->
<g id="node1" class="node">
<title>Node0</title>
<g id="a_node1"><a xlink:href="classpkgCacheListParser.xhtml" target="_top" xlink:title="pkgCacheListParser">
<polygon fill="#ffffff" stroke="#000000" points="0,-76.5 0,-95.5 112,-95.5 112,-76.5 0,-76.5"/>
<text text-anchor="middle" x="56" y="-83.5" font-family="Helvetica,sans-Serif" font-size="10.00" fill="#000000">pkgCacheListParser</text>
</a>
</g>
</g>
<!-- Node1 -->
<g id="node2" class="node">
<title>Node1</title>
<g id="a_node2"><a xlink:href="classdebListParser.xhtml" target="_top" xlink:title="debListParser">
<polygon fill="#ffffff" stroke="#000000" points="148,-76.5 148,-95.5 230,-95.5 230,-76.5 148,-76.5"/>
<text text-anchor="middle" x="189" y="-83.5" font-family="Helvetica,sans-Serif" font-size="10.00" fill="#000000">debListParser</text>
</a>
</g>
</g>
<!-- Node0&#45;&gt;Node1 -->
<g id="edge1" class="edge">
<title>Node0&#45;&gt;Node1</title>
<path fill="none" stroke="#191970" d="M122.277,-86C131.0489,-86 139.8259,-86 147.9976,-86"/>
<polygon fill="#191970" stroke="#191970" points="122.0185,-82.5001 112.0185,-86 122.0185,-89.5001 122.0185,-82.5001"/>
</g>
<!-- Node2 -->
<g id="node3" class="node">
<title>Node2</title>
<g id="a_node3"><a xlink:href="classdebDebFileParser.xhtml" target="_top" xlink:title="debDebFileParser">
<polygon fill="#ffffff" stroke="#000000" points="277,-133.5 277,-152.5 378,-152.5 378,-133.5 277,-133.5"/>
<text text-anchor="middle" x="327.5" y="-140.5" font-family="Helvetica,sans-Serif" font-size="10.00" fill="#000000">debDebFileParser</text>
</a>
</g>
</g>
<!-- Node1&#45;&gt;Node2 -->
<g id="edge2" class="edge">
<title>Node1&#45;&gt;Node2</title>
<path fill="none" stroke="#191970" d="M215.364,-100.3085C230.0183,-107.9294 248.7318,-117.1221 266,-124 274.7207,-127.4735 284.3399,-130.7131 293.3291,-133.4984"/>
<polygon fill="#191970" stroke="#191970" points="216.8541,-97.1374 206.3762,-95.5675 213.5881,-103.3289 216.8541,-97.1374"/>
</g>
<!-- Node3 -->
<g id="node4" class="node">
<title>Node3</title>
<g id="a_node4"><a xlink:href="classdebStatusListParser.xhtml" target="_top" xlink:title="debStatusListParser">
<polygon fill="#ffffff" stroke="#000000" points="271,-95.5 271,-114.5 384,-114.5 384,-95.5 271,-95.5"/>
<text text-anchor="middle" x="327.5" y="-102.5" font-family="Helvetica,sans-Serif" font-size="10.00" fill="#000000">debStatusListParser</text>
</a>
</g>
</g>
<!-- Node1&#45;&gt;Node3 -->
<g id="edge3" class="edge">
<title>Node1&#45;&gt;Node3</title>
<path fill="none" stroke="#191970" d="M240.3146,-93.0395C250.2604,-94.404 260.7364,-95.8411 270.8421,-97.2274"/>
<polygon fill="#191970" stroke="#191970" points="240.5625,-89.5409 230.1796,-91.6492 239.6111,-96.4759 240.5625,-89.5409"/>
</g>
<!-- Node4 -->
<g id="node5" class="node">
<title>Node4</title>
<g id="a_node5"><a xlink:href="classdebTranslationsParser.xhtml" target="_top" xlink:title="debTranslationsParser">
<polygon fill="#ffffff" stroke="#000000" points="266,-57.5 266,-76.5 389,-76.5 389,-57.5 266,-57.5"/>
<text text-anchor="middle" x="327.5" y="-64.5" font-family="Helvetica,sans-Serif" font-size="10.00" fill="#000000">debTranslationsParser</text>
</a>
</g>
</g>
<!-- Node1&#45;&gt;Node4 -->
<g id="edge4" class="edge">
<title>Node1&#45;&gt;Node4</title>
<path fill="none" stroke="#191970" d="M240.1909,-78.9774C248.5829,-77.8262 257.3554,-76.6227 265.9666,-75.4414"/>
<polygon fill="#191970" stroke="#191970" points="239.6111,-75.5241 230.1796,-80.3508 240.5625,-82.4591 239.6111,-75.5241"/>
</g>
<!-- Node5 -->
<g id="node6" class="node">
<title>Node5</title>
<g id="a_node6"><a xlink:href="classedspLikeListParser.xhtml" target="_top" xlink:title="edspLikeListParser">
<polygon fill="#ffffff" stroke="#000000" points="274,-19.5 274,-38.5 381,-38.5 381,-19.5 274,-19.5"/>
<text text-anchor="middle" x="327.5" y="-26.5" font-family="Helvetica,sans-Serif" font-size="10.00" fill="#000000">edspLikeListParser</text>
</a>
</g>
</g>
<!-- Node1&#45;&gt;Node5 -->
<g id="edge5" class="edge">
<title>Node1&#45;&gt;Node5</title>
<path fill="none" stroke="#191970" d="M215.364,-71.6915C230.0183,-64.0706 248.7318,-54.8779 266,-48 274.7207,-44.5265 284.3399,-41.2869 293.3291,-38.5016"/>
<polygon fill="#191970" stroke="#191970" points="213.5881,-68.6711 206.3762,-76.4325 216.8541,-74.8626 213.5881,-68.6711"/>
</g>
<!-- Node6 -->
<g id="node7" class="node">
<title>Node6</title>
<g id="a_node7"><a xlink:href="classedspListParser.xhtml" target="_top" xlink:title="edspListParser">
<polygon fill="#ffffff" stroke="#000000" points="425,-38.5 425,-57.5 512,-57.5 512,-38.5 425,-38.5"/>
<text text-anchor="middle" x="468.5" y="-45.5" font-family="Helvetica,sans-Serif" font-size="10.00" fill="#000000">edspListParser</text>
</a>
</g>
</g>
<!-- Node5&#45;&gt;Node6 -->
<g id="edge6" class="edge">
<title>Node5&#45;&gt;Node6</title>
<path fill="none" stroke="#191970" d="M391.4058,-37.6114C402.6141,-39.1218 414.0468,-40.6623 424.5572,-42.0786"/>
<polygon fill="#191970" stroke="#191970" points="391.5861,-34.1042 381.2083,-36.2373 390.6513,-41.0415 391.5861,-34.1042"/>
</g>
<!-- Node7 -->
<g id="node8" class="node">
<title>Node7</title>
<g id="a_node8"><a xlink:href="classeippListParser.xhtml" target="_top" xlink:title="eippListParser">
<polygon fill="#ffffff" stroke="#000000" points="426,-.5 426,-19.5 511,-19.5 511,-.5 426,-.5"/>
<text text-anchor="middle" x="468.5" y="-7.5" font-family="Helvetica,sans-Serif" font-size="10.00" fill="#000000">eippListParser</text>
</a>
</g>
</g>
<!-- Node5&#45;&gt;Node7 -->
<g id="edge7" class="edge">
<title>Node5&#45;&gt;Node7</title>
<path fill="none" stroke="#191970" d="M391.3871,-20.3911C403.0788,-18.8156 415.0153,-17.2072 425.895,-15.7411"/>
<polygon fill="#191970" stroke="#191970" points="390.6513,-16.9585 381.2083,-21.7627 391.5861,-23.8958 390.6513,-16.9585"/>
</g>
</g>
</svg>
