<?xml version="1.0" encoding="UTF-8" standalone="no"?>
<!DOCTYPE svg PUBLIC "-//W3C//DTD SVG 1.1//EN"
 "http://www.w3.org/Graphics/SVG/1.1/DTD/svg11.dtd">
<!-- Generated by graphviz version 2.40.1 (20161225.0304)
 -->
<!-- Title: Graphical Class Hierarchy Pages: 1 -->
<svg width="350pt" height="78pt"
 viewBox="0.00 0.00 350.00 77.50" xmlns="http://www.w3.org/2000/svg" xmlns:xlink="http://www.w3.org/1999/xlink">
<g id="graph0" class="graph" transform="scale(1 1) rotate(0) translate(4 73.5)">
<title>Graphical Class Hierarchy</title>
<polygon fill="#ffffff" stroke="transparent" points="-4,4 -4,-73.5 346,-73.5 346,4 -4,4"/>
<!-- Node221 -->
<g id="node1" class="node">
<title>Node221</title>
<g id="a_node1"><a xlink:href="classpkgDepCache_1_1InRootSetFunc.xhtml" target="_top" xlink:title="An arbitrary predicate on packages. ">
<polygon fill="#ffffff" stroke="#000000" points="0,-50 0,-69 158,-69 158,-50 0,-50"/>
<text text-anchor="middle" x="79" y="-57" font-family="Helvetica,sans-Serif" font-size="10.00" fill="#000000">pkgDepCache::InRootSetFunc</text>
</a>
</g>
</g>
<!-- Node1 -->
<g id="node2" class="node">
<title>Node1</title>
<g id="a_node2"><a xlink:href="classpkgDepCache_1_1DefaultRootSetFunc.xhtml" target="_top" xlink:title="Returns true for packages matching a regular expression in APT::NeverAutoRemove. ">
<polygon fill="#ffffff" stroke="#000000" points="194,-22.5 194,-52.5 342,-52.5 342,-22.5 194,-22.5"/>
<text text-anchor="start" x="202" y="-40.5" font-family="Helvetica,sans-Serif" font-size="10.00" fill="#000000">pkgDepCache::DefaultRoot</text>
<text text-anchor="middle" x="268" y="-29.5" font-family="Helvetica,sans-Serif" font-size="10.00" fill="#000000">SetFunc</text>
</a>
</g>
</g>
<!-- Node221&#45;&gt;Node1 -->
<g id="edge1" class="edge">
<title>Node221&#45;&gt;Node1</title>
<path fill="none" stroke="#191970" d="M168.1054,-49.1279C176.7024,-48.1272 185.359,-47.1196 193.7896,-46.1382"/>
<polygon fill="#191970" stroke="#191970" points="167.5861,-45.6647 158.0579,-50.2975 168.3956,-52.6177 167.5861,-45.6647"/>
</g>
<!-- Node0 -->
<g id="node3" class="node">
<title>Node0</title>
<g id="a_node3"><a xlink:href="classConfiguration_1_1MatchAgainstConfig.xhtml" target="_top" xlink:title="match a string against a configurable list of patterns ">
<polygon fill="#ffffff" stroke="#000000" points="2,-.5 2,-30.5 156,-30.5 156,-.5 2,-.5"/>
<text text-anchor="start" x="10" y="-18.5" font-family="Helvetica,sans-Serif" font-size="10.00" fill="#000000">Configuration::MatchAgainst</text>
<text text-anchor="middle" x="79" y="-7.5" font-family="Helvetica,sans-Serif" font-size="10.00" fill="#000000">Config</text>
</a>
</g>
</g>
<!-- Node0&#45;&gt;Node1 -->
<g id="edge2" class="edge">
<title>Node0&#45;&gt;Node1</title>
<path fill="none" stroke="#191970" d="M166.1405,-25.6433C175.401,-26.7213 184.7563,-27.8103 193.8478,-28.8685"/>
<polygon fill="#191970" stroke="#191970" points="166.4838,-22.1597 156.1461,-24.48 165.6744,-29.1128 166.4838,-22.1597"/>
</g>
</g>
</svg>
