<?xml version="1.0" encoding="UTF-8" standalone="no"?>
<!DOCTYPE svg PUBLIC "-//W3C//DTD SVG 1.1//EN"
 "http://www.w3.org/Graphics/SVG/1.1/DTD/svg11.dtd">
<!-- Generated by graphviz version 2.40.1 (20161225.0304)
 -->
<!-- Title: Graphical Class Hierarchy Pages: 1 -->
<svg width="380pt" height="78pt"
 viewBox="0.00 0.00 380.00 77.50" xmlns="http://www.w3.org/2000/svg" xmlns:xlink="http://www.w3.org/1999/xlink">
<g id="graph0" class="graph" transform="scale(1 1) rotate(0) translate(4 73.5)">
<title>Graphical Class Hierarchy</title>
<polygon fill="#ffffff" stroke="transparent" points="-4,4 -4,-73.5 376,-73.5 376,4 -4,4"/>
<!-- Node0 -->
<g id="node1" class="node">
<title>Node0</title>
<g id="a_node1"><a xlink:href="classAPT_1_1VersionContainerInterface.xhtml" target="_top" xlink:title="VersionContainerInterface">
<polygon fill="#ffffff" stroke="#000000" points="0,-28 0,-47 143,-47 143,-28 0,-28"/>
<text text-anchor="middle" x="71.5" y="-35" font-family="Helvetica,sans-Serif" font-size="10.00" fill="#000000">VersionContainerInterface</text>
</a>
</g>
</g>
<!-- Node1 -->
<g id="node2" class="node">
<title>Node1</title>
<g id="a_node2"><a xlink:href="classAPT_1_1VersionContainer.xhtml" target="_top" xlink:title="VersionContainer\&lt; Container \&gt;">
<polygon fill="#ffffff" stroke="#000000" points="190.5,-50 190.5,-69 360.5,-69 360.5,-50 190.5,-50"/>
<text text-anchor="middle" x="275.5" y="-57" font-family="Helvetica,sans-Serif" font-size="10.00" fill="#000000">VersionContainer&lt; Container &gt;</text>
</a>
</g>
</g>
<!-- Node0&#45;&gt;Node1 -->
<g id="edge1" class="edge">
<title>Node0&#45;&gt;Node1</title>
<path fill="none" stroke="#191970" d="M153.2835,-46.3198C165.496,-47.6368 178.1114,-48.9973 190.3908,-50.3216"/>
<polygon fill="#191970" stroke="#191970" points="153.4536,-42.8179 143.1359,-45.2254 152.703,-49.7776 153.4536,-42.8179"/>
</g>
<!-- Node2 -->
<g id="node3" class="node">
<title>Node2</title>
<g id="a_node3"><a xlink:href="classAPT_1_1VersionContainer.xhtml" target="_top" xlink:title="VersionContainer\&lt; std\l::vector\&lt; pkgCache::VerIterator \&gt; \&gt;">
<polygon fill="#ffffff" stroke="#000000" points="179,-.5 179,-30.5 372,-30.5 372,-.5 179,-.5"/>
<text text-anchor="start" x="187" y="-18.5" font-family="Helvetica,sans-Serif" font-size="10.00" fill="#000000">VersionContainer&lt; std</text>
<text text-anchor="middle" x="275.5" y="-7.5" font-family="Helvetica,sans-Serif" font-size="10.00" fill="#000000">::vector&lt; pkgCache::VerIterator &gt; &gt;</text>
</a>
</g>
</g>
<!-- Node0&#45;&gt;Node2 -->
<g id="edge2" class="edge">
<title>Node0&#45;&gt;Node2</title>
<path fill="none" stroke="#191970" d="M153.3193,-28.6763C161.7593,-27.7661 170.3914,-26.8352 178.9717,-25.9099"/>
<polygon fill="#191970" stroke="#191970" points="152.703,-25.2224 143.1359,-29.7746 153.4536,-32.1821 152.703,-25.2224"/>
</g>
</g>
</svg>
