<?xml version="1.0" encoding="UTF-8" standalone="no"?>
<!DOCTYPE svg PUBLIC "-//W3C//DTD SVG 1.1//EN"
 "http://www.w3.org/Graphics/SVG/1.1/DTD/svg11.dtd">
<!-- Generated by graphviz version 2.40.1 (20161225.0304)
 -->
<!-- Title: Graphical Class Hierarchy Pages: 1 -->
<svg width="366pt" height="66pt"
 viewBox="0.00 0.00 366.00 66.00" xmlns="http://www.w3.org/2000/svg" xmlns:xlink="http://www.w3.org/1999/xlink">
<g id="graph0" class="graph" transform="scale(1 1) rotate(0) translate(4 62)">
<title>Graphical Class Hierarchy</title>
<polygon fill="#ffffff" stroke="transparent" points="-4,4 -4,-62 362,-62 362,4 -4,4"/>
<!-- Node0 -->
<g id="node1" class="node">
<title>Node0</title>
<g id="a_node1"><a xlink:href="classAPT_1_1PackageContainerInterface.xhtml" target="_top" xlink:title="PackageContainerInterface">
<polygon fill="#ffffff" stroke="#000000" points="0,-19.5 0,-38.5 148,-38.5 148,-19.5 0,-19.5"/>
<text text-anchor="middle" x="74" y="-26.5" font-family="Helvetica,sans-Serif" font-size="10.00" fill="#000000">PackageContainerInterface</text>
</a>
</g>
</g>
<!-- Node1 -->
<g id="node2" class="node">
<title>Node1</title>
<g id="a_node2"><a xlink:href="classAPT_1_1PackageContainer.xhtml" target="_top" xlink:title="PackageContainer\&lt; Container \&gt;">
<polygon fill="#ffffff" stroke="#000000" points="184,-38.5 184,-57.5 358,-57.5 358,-38.5 184,-38.5"/>
<text text-anchor="middle" x="271" y="-45.5" font-family="Helvetica,sans-Serif" font-size="10.00" fill="#000000">PackageContainer&lt; Container &gt;</text>
</a>
</g>
</g>
<!-- Node0&#45;&gt;Node1 -->
<g id="edge1" class="edge">
<title>Node0&#45;&gt;Node1</title>
<path fill="none" stroke="#191970" d="M158.4215,-37.1422C166.8756,-37.9575 175.4711,-38.7865 183.9517,-39.6045"/>
<polygon fill="#191970" stroke="#191970" points="158.4864,-33.6323 148.1965,-36.156 157.8143,-40.5999 158.4864,-33.6323"/>
</g>
<!-- Node2 -->
<g id="node3" class="node">
<title>Node2</title>
<g id="a_node3"><a xlink:href="classAPT_1_1PackageUniverse.xhtml" target="_top" xlink:title="PackageUniverse">
<polygon fill="#ffffff" stroke="#000000" points="220.5,-.5 220.5,-19.5 321.5,-19.5 321.5,-.5 220.5,-.5"/>
<text text-anchor="middle" x="271" y="-7.5" font-family="Helvetica,sans-Serif" font-size="10.00" fill="#000000">PackageUniverse</text>
</a>
</g>
</g>
<!-- Node0&#45;&gt;Node2 -->
<g id="edge2" class="edge">
<title>Node0&#45;&gt;Node2</title>
<path fill="none" stroke="#191970" d="M158.1832,-20.8808C179.3796,-18.8365 201.4797,-16.705 220.444,-14.876"/>
<polygon fill="#191970" stroke="#191970" points="157.8143,-17.4001 148.1965,-21.844 158.4864,-24.3677 157.8143,-17.4001"/>
</g>
</g>
</svg>
