<?xml version="1.0" encoding="UTF-8" standalone="no"?>
<!DOCTYPE svg PUBLIC "-//W3C//DTD SVG 1.1//EN"
 "http://www.w3.org/Graphics/SVG/1.1/DTD/svg11.dtd">
<!-- Generated by graphviz version 2.40.1 (20161225.0304)
 -->
<!-- Title: apt&#45;pkg/pkgcache.h Pages: 1 -->
<svg width="537pt" height="140pt"
 viewBox="0.00 0.00 537.00 140.00" xmlns="http://www.w3.org/2000/svg" xmlns:xlink="http://www.w3.org/1999/xlink">
<g id="graph0" class="graph" transform="scale(1 1) rotate(0) translate(4 136)">
<title>apt&#45;pkg/pkgcache.h</title>
<polygon fill="#ffffff" stroke="transparent" points="-4,4 -4,-136 533,-136 533,4 -4,4"/>
<!-- Node0 -->
<g id="node1" class="node">
<title>Node0</title>
<polygon fill="#bfbfbf" stroke="#000000" points="217.5,-112.5 217.5,-131.5 330.5,-131.5 330.5,-112.5 217.5,-112.5"/>
<text text-anchor="middle" x="274" y="-119.5" font-family="Helvetica,sans-Serif" font-size="10.00" fill="#000000">apt&#45;pkg/pkgcache.h</text>
</g>
<!-- Node1 -->
<g id="node2" class="node">
<title>Node1</title>
<polygon fill="#ffffff" stroke="#bfbfbf" points="0,-.5 0,-19.5 102,-19.5 102,-.5 0,-.5"/>
<text text-anchor="middle" x="51" y="-7.5" font-family="Helvetica,sans-Serif" font-size="10.00" fill="#000000">apt&#45;pkg/macros.h</text>
</g>
<!-- Node0&#45;&gt;Node1 -->
<g id="edge1" class="edge">
<title>Node0&#45;&gt;Node1</title>
<path fill="none" stroke="#191970" d="M221.2694,-112.4883C190.5874,-105.4441 151.9794,-93.9036 121,-76 98.9982,-63.2847 78.4243,-42.3722 65.3519,-27.4965"/>
<polygon fill="#191970" stroke="#191970" points="67.7204,-24.88 58.5679,-19.5432 62.3947,-29.4228 67.7204,-24.88"/>
</g>
<!-- Node2 -->
<g id="node3" class="node">
<title>Node2</title>
<polygon fill="#ffffff" stroke="#bfbfbf" points="293,-56.5 293,-75.5 391,-75.5 391,-56.5 293,-56.5"/>
<text text-anchor="middle" x="342" y="-63.5" font-family="Helvetica,sans-Serif" font-size="10.00" fill="#000000">apt&#45;pkg/mmap.h</text>
</g>
<!-- Node0&#45;&gt;Node2 -->
<g id="edge2" class="edge">
<title>Node0&#45;&gt;Node2</title>
<path fill="none" stroke="#191970" d="M285.8447,-112.2455C295.888,-103.9746 310.4995,-91.9416 322.3004,-82.2232"/>
<polygon fill="#191970" stroke="#191970" points="324.7967,-84.7015 330.291,-75.6427 320.3467,-79.298 324.7967,-84.7015"/>
</g>
<!-- Node3 -->
<g id="node4" class="node">
<title>Node3</title>
<polygon fill="#ffffff" stroke="#bfbfbf" points="120,-.5 120,-19.5 164,-19.5 164,-.5 120,-.5"/>
<text text-anchor="middle" x="142" y="-7.5" font-family="Helvetica,sans-Serif" font-size="10.00" fill="#000000">string</text>
</g>
<!-- Node0&#45;&gt;Node3 -->
<g id="edge3" class="edge">
<title>Node0&#45;&gt;Node3</title>
<path fill="none" stroke="#191970" d="M223.7239,-112.4726C186.8578,-104.3453 141.3382,-91.5246 130,-76 120.051,-62.3775 125.2017,-43.0419 131.5503,-28.8189"/>
<polygon fill="#191970" stroke="#191970" points="134.8564,-30.0319 136.1861,-19.5208 128.5918,-26.9086 134.8564,-30.0319"/>
</g>
<!-- Node4 -->
<g id="node5" class="node">
<title>Node4</title>
<polygon fill="#ffffff" stroke="#bfbfbf" points="409.5,-56.5 409.5,-75.5 462.5,-75.5 462.5,-56.5 409.5,-56.5"/>
<text text-anchor="middle" x="436" y="-63.5" font-family="Helvetica,sans-Serif" font-size="10.00" fill="#000000">stdint.h</text>
</g>
<!-- Node0&#45;&gt;Node4 -->
<g id="edge4" class="edge">
<title>Node0&#45;&gt;Node4</title>
<path fill="none" stroke="#191970" d="M301.8488,-112.3733C328.9141,-103.0173 370.1546,-88.7614 399.7628,-78.5264"/>
<polygon fill="#191970" stroke="#191970" points="401.0129,-81.7976 409.3206,-75.2225 398.7259,-75.1817 401.0129,-81.7976"/>
</g>
<!-- Node5 -->
<g id="node6" class="node">
<title>Node5</title>
<polygon fill="#ffffff" stroke="#bfbfbf" points="481,-56.5 481,-75.5 529,-75.5 529,-56.5 481,-56.5"/>
<text text-anchor="middle" x="505" y="-63.5" font-family="Helvetica,sans-Serif" font-size="10.00" fill="#000000">time.h</text>
</g>
<!-- Node0&#45;&gt;Node5 -->
<g id="edge5" class="edge">
<title>Node0&#45;&gt;Node5</title>
<path fill="none" stroke="#191970" d="M319.0327,-112.4255C357.0993,-104.1331 413.2772,-91.4308 470.8916,-76.1756"/>
<polygon fill="#191970" stroke="#191970" points="472.1434,-79.4641 480.902,-73.5028 470.3376,-72.701 472.1434,-79.4641"/>
</g>
<!-- Node6 -->
<g id="node7" class="node">
<title>Node6</title>
<g id="a_node7"><a xlink:href="cacheiterators_8h_source.xhtml" target="_top" xlink:title="apt&#45;pkg/cacheiterators.h">
<polygon fill="#ffffff" stroke="#000000" points="139,-56.5 139,-75.5 275,-75.5 275,-56.5 139,-56.5"/>
<text text-anchor="middle" x="207" y="-63.5" font-family="Helvetica,sans-Serif" font-size="10.00" fill="#000000">apt&#45;pkg/cacheiterators.h</text>
</a>
</g>
</g>
<!-- Node0&#45;&gt;Node6 -->
<g id="edge6" class="edge">
<title>Node0&#45;&gt;Node6</title>
<path fill="none" stroke="#191970" d="M262.3295,-112.2455C252.4339,-103.9746 238.0373,-91.9416 226.4099,-82.2232"/>
<polygon fill="#191970" stroke="#191970" points="228.4542,-79.3703 218.5368,-75.6427 223.965,-84.7413 228.4542,-79.3703"/>
</g>
<!-- Node6&#45;&gt;Node1 -->
<g id="edge7" class="edge">
<title>Node6&#45;&gt;Node1</title>
<path fill="none" stroke="#191970" d="M180.1826,-56.3733C154.4668,-47.1419 115.462,-33.1402 87.0401,-22.9375"/>
<polygon fill="#191970" stroke="#191970" points="88.0619,-19.5857 77.4674,-19.5011 85.6968,-26.174 88.0619,-19.5857"/>
</g>
<!-- Node6&#45;&gt;Node3 -->
<g id="edge10" class="edge">
<title>Node6&#45;&gt;Node3</title>
<path fill="none" stroke="#191970" d="M195.6779,-56.2455C186.0777,-47.9746 172.1108,-35.9416 160.8305,-26.2232"/>
<polygon fill="#191970" stroke="#191970" points="163.053,-23.5182 153.1924,-19.6427 158.484,-28.8214 163.053,-23.5182"/>
</g>
<!-- Node7 -->
<g id="node8" class="node">
<title>Node7</title>
<polygon fill="#ffffff" stroke="#bfbfbf" points="182.5,-.5 182.5,-19.5 231.5,-19.5 231.5,-.5 182.5,-.5"/>
<text text-anchor="middle" x="207" y="-7.5" font-family="Helvetica,sans-Serif" font-size="10.00" fill="#000000">iosfwd</text>
</g>
<!-- Node6&#45;&gt;Node7 -->
<g id="edge8" class="edge">
<title>Node6&#45;&gt;Node7</title>
<path fill="none" stroke="#191970" d="M207,-56.2455C207,-48.9382 207,-38.6944 207,-29.7046"/>
<polygon fill="#191970" stroke="#191970" points="210.5001,-29.6426 207,-19.6427 203.5001,-29.6427 210.5001,-29.6426"/>
</g>
<!-- Node8 -->
<g id="node9" class="node">
<title>Node8</title>
<polygon fill="#ffffff" stroke="#bfbfbf" points="249.5,-.5 249.5,-19.5 302.5,-19.5 302.5,-.5 249.5,-.5"/>
<text text-anchor="middle" x="276" y="-7.5" font-family="Helvetica,sans-Serif" font-size="10.00" fill="#000000">iterator</text>
</g>
<!-- Node6&#45;&gt;Node8 -->
<g id="edge9" class="edge">
<title>Node6&#45;&gt;Node8</title>
<path fill="none" stroke="#191970" d="M219.0189,-56.2455C229.2098,-47.9746 244.0362,-35.9416 256.0107,-26.2232"/>
<polygon fill="#191970" stroke="#191970" points="258.5598,-28.662 264.1188,-19.6427 254.1486,-23.2268 258.5598,-28.662"/>
</g>
<!-- Node9 -->
<g id="node10" class="node">
<title>Node9</title>
<polygon fill="#ffffff" stroke="#bfbfbf" points="320.5,-.5 320.5,-19.5 373.5,-19.5 373.5,-.5 320.5,-.5"/>
<text text-anchor="middle" x="347" y="-7.5" font-family="Helvetica,sans-Serif" font-size="10.00" fill="#000000">string.h</text>
</g>
<!-- Node6&#45;&gt;Node9 -->
<g id="edge11" class="edge">
<title>Node6&#45;&gt;Node9</title>
<path fill="none" stroke="#191970" d="M231.0669,-56.3733C253.8428,-47.2629 288.2344,-33.5062 313.649,-23.3404"/>
<polygon fill="#191970" stroke="#191970" points="315.2623,-26.4648 323.2472,-19.5011 312.6625,-19.9654 315.2623,-26.4648"/>
</g>
</g>
</svg>
