<?xml version="1.0" encoding="UTF-8" standalone="no"?>
<!DOCTYPE svg PUBLIC "-//W3C//DTD SVG 1.1//EN"
 "http://www.w3.org/Graphics/SVG/1.1/DTD/svg11.dtd">
<!-- Generated by graphviz version 2.40.1 (20161225.0304)
 -->
<!-- Title: pkgSrcRecords::Parser::BuildDepRec Pages: 1 -->
<svg width="132pt" height="174pt"
 viewBox="0.00 0.00 132.00 174.00" xmlns="http://www.w3.org/2000/svg" xmlns:xlink="http://www.w3.org/1999/xlink">
<g id="graph0" class="graph" transform="scale(1 1) rotate(0) translate(4 170)">
<title>pkgSrcRecords::Parser::BuildDepRec</title>
<polygon fill="#ffffff" stroke="transparent" points="-4,4 -4,-170 128,-170 128,4 -4,4"/>
<!-- Node1 -->
<g id="node1" class="node">
<title>Node1</title>
<polygon fill="#bfbfbf" stroke="#000000" points="0,-.5 0,-30.5 124,-30.5 124,-.5 0,-.5"/>
<text text-anchor="start" x="8" y="-18.5" font-family="Helvetica,sans-Serif" font-size="10.00" fill="#000000">pkgSrcRecords::Parser</text>
<text text-anchor="middle" x="62" y="-7.5" font-family="Helvetica,sans-Serif" font-size="10.00" fill="#000000">::BuildDepRec</text>
</g>
<!-- Node2 -->
<g id="node2" class="node">
<title>Node2</title>
<g id="a_node2"><a xlink:title="STL class. ">
<polygon fill="#ffffff" stroke="#bfbfbf" points="40,-89.5 40,-108.5 84,-108.5 84,-89.5 40,-89.5"/>
<text text-anchor="middle" x="62" y="-96.5" font-family="Helvetica,sans-Serif" font-size="10.00" fill="#000000">string</text>
</a>
</g>
</g>
<!-- Node2&#45;&gt;Node1 -->
<g id="edge1" class="edge">
<title>Node2&#45;&gt;Node1</title>
<path fill="none" stroke="#9a32cd" stroke-dasharray="5,2" d="M62,-79.2427C62,-64.345 62,-44.2186 62,-30.597"/>
<polygon fill="#9a32cd" stroke="#9a32cd" points="58.5001,-79.4215 62,-89.4215 65.5001,-79.4215 58.5001,-79.4215"/>
<text text-anchor="middle" x="84" y="-63" font-family="Helvetica,sans-Serif" font-size="10.00" fill="#000000"> Package</text>
<text text-anchor="middle" x="84" y="-52" font-family="Helvetica,sans-Serif" font-size="10.00" fill="#000000">Version</text>
</g>
<!-- Node3 -->
<g id="node3" class="node">
<title>Node3</title>
<g id="a_node3"><a xlink:title="STL class. ">
<polygon fill="#ffffff" stroke="#bfbfbf" points="2.5,-146.5 2.5,-165.5 121.5,-165.5 121.5,-146.5 2.5,-146.5"/>
<text text-anchor="middle" x="62" y="-153.5" font-family="Helvetica,sans-Serif" font-size="10.00" fill="#000000">basic_string&lt; char &gt;</text>
</a>
</g>
</g>
<!-- Node3&#45;&gt;Node2 -->
<g id="edge2" class="edge">
<title>Node3&#45;&gt;Node2</title>
<path fill="none" stroke="#191970" d="M62,-136.2342C62,-126.8491 62,-116.0651 62,-108.5265"/>
<polygon fill="#191970" stroke="#191970" points="58.5001,-136.3307 62,-146.3307 65.5001,-136.3308 58.5001,-136.3307"/>
</g>
</g>
</svg>
