<?xml version="1.0" encoding="UTF-8" standalone="no"?>
<!DOCTYPE svg PUBLIC "-//W3C//DTD SVG 1.1//EN"
 "http://www.w3.org/Graphics/SVG/1.1/DTD/svg11.dtd">
<!-- Generated by graphviz version 2.40.1 (20161225.0304)
 -->
<!-- Title: DiffInfo Pages: 1 -->
<svg width="222pt" height="174pt"
 viewBox="0.00 0.00 222.00 174.00" xmlns="http://www.w3.org/2000/svg" xmlns:xlink="http://www.w3.org/1999/xlink">
<g id="graph0" class="graph" transform="scale(1 1) rotate(0) translate(4 170)">
<title>DiffInfo</title>
<polygon fill="#ffffff" stroke="transparent" points="-4,4 -4,-170 218,-170 218,4 -4,4"/>
<!-- Node1 -->
<g id="node1" class="node">
<title>Node1</title>
<polygon fill="#bfbfbf" stroke="#000000" points="72,-.5 72,-19.5 125,-19.5 125,-.5 72,-.5"/>
<text text-anchor="middle" x="98.5" y="-7.5" font-family="Helvetica,sans-Serif" font-size="10.00" fill="#000000">DiffInfo</text>
</g>
<!-- Node2 -->
<g id="node2" class="node">
<title>Node2</title>
<g id="a_node2"><a xlink:href="classHashStringList.xhtml" target="_top" xlink:title="HashStringList">
<polygon fill="#ffffff" stroke="#000000" points="0,-89.5 0,-108.5 87,-108.5 87,-89.5 0,-89.5"/>
<text text-anchor="middle" x="43.5" y="-96.5" font-family="Helvetica,sans-Serif" font-size="10.00" fill="#000000">HashStringList</text>
</a>
</g>
</g>
<!-- Node2&#45;&gt;Node1 -->
<g id="edge1" class="edge">
<title>Node2&#45;&gt;Node1</title>
<path fill="none" stroke="#9a32cd" stroke-dasharray="5,2" d="M38.9595,-79.4637C37.1088,-66.7276 36.9097,-50.2582 44.5,-38 50.6154,-28.1237 61.4455,-21.5651 71.8095,-17.2966"/>
<polygon fill="#9a32cd" stroke="#9a32cd" points="35.5593,-80.32 40.8568,-89.4953 42.4374,-79.0191 35.5593,-80.32"/>
<text text-anchor="middle" x="88.5" y="-63" font-family="Helvetica,sans-Serif" font-size="10.00" fill="#000000"> result_hashes</text>
<text text-anchor="middle" x="88.5" y="-52" font-family="Helvetica,sans-Serif" font-size="10.00" fill="#000000">download_hashes</text>
<text text-anchor="middle" x="88.5" y="-41" font-family="Helvetica,sans-Serif" font-size="10.00" fill="#000000">patch_hashes</text>
</g>
<!-- Node3 -->
<g id="node3" class="node">
<title>Node3</title>
<g id="a_node3"><a xlink:title="STL class. ">
<polygon fill="#ffffff" stroke="#bfbfbf" points="132.5,-89.5 132.5,-108.5 176.5,-108.5 176.5,-89.5 132.5,-89.5"/>
<text text-anchor="middle" x="154.5" y="-96.5" font-family="Helvetica,sans-Serif" font-size="10.00" fill="#000000">string</text>
</a>
</g>
</g>
<!-- Node3&#45;&gt;Node1 -->
<g id="edge2" class="edge">
<title>Node3&#45;&gt;Node1</title>
<path fill="none" stroke="#9a32cd" stroke-dasharray="5,2" d="M150.2384,-79.2066C146.8603,-66.6048 141.229,-50.3835 132.5,-38 127.4776,-30.8749 120.1859,-24.5431 113.6421,-19.711"/>
<polygon fill="#9a32cd" stroke="#9a32cd" points="146.8937,-80.266 152.6483,-89.1618 153.6972,-78.619 146.8937,-80.266"/>
<text text-anchor="middle" x="157" y="-52" font-family="Helvetica,sans-Serif" font-size="10.00" fill="#000000"> file</text>
</g>
<!-- Node4 -->
<g id="node4" class="node">
<title>Node4</title>
<g id="a_node4"><a xlink:title="STL class. ">
<polygon fill="#ffffff" stroke="#bfbfbf" points="95,-146.5 95,-165.5 214,-165.5 214,-146.5 95,-146.5"/>
<text text-anchor="middle" x="154.5" y="-153.5" font-family="Helvetica,sans-Serif" font-size="10.00" fill="#000000">basic_string&lt; char &gt;</text>
</a>
</g>
</g>
<!-- Node4&#45;&gt;Node3 -->
<g id="edge3" class="edge">
<title>Node4&#45;&gt;Node3</title>
<path fill="none" stroke="#191970" d="M154.5,-136.2342C154.5,-126.8491 154.5,-116.0651 154.5,-108.5265"/>
<polygon fill="#191970" stroke="#191970" points="151.0001,-136.3307 154.5,-146.3307 158.0001,-136.3308 151.0001,-136.3307"/>
</g>
</g>
</svg>
