<?xml version="1.0" encoding="UTF-8" standalone="no"?>
<!DOCTYPE svg PUBLIC "-//W3C//DTD SVG 1.1//EN"
 "http://www.w3.org/Graphics/SVG/1.1/DTD/svg11.dtd">
<!-- Generated by graphviz version 2.40.1 (20161225.0304)
 -->
<!-- Title: CompareProviders Pages: 1 -->
<svg width="1273pt" height="596pt"
 viewBox="0.00 0.00 1273.00 596.00" xmlns="http://www.w3.org/2000/svg" xmlns:xlink="http://www.w3.org/1999/xlink">
<g id="graph0" class="graph" transform="scale(1 1) rotate(0) translate(4 592)">
<title>CompareProviders</title>
<polygon fill="#ffffff" stroke="transparent" points="-4,4 -4,-592 1269,-592 1269,4 -4,4"/>
<!-- Node1 -->
<g id="node1" class="node">
<title>Node1</title>
<polygon fill="#bfbfbf" stroke="#000000" points="1158,-282.5 1158,-301.5 1265,-301.5 1265,-282.5 1158,-282.5"/>
<text text-anchor="middle" x="1211.5" y="-289.5" font-family="Helvetica,sans-Serif" font-size="10.00" fill="#000000">CompareProviders</text>
</g>
<!-- Node2 -->
<g id="node2" class="node">
<title>Node2</title>
<g id="a_node2"><a xlink:href="classpkgCache_1_1PkgIterator.xhtml" target="_top" xlink:title="PkgIterator">
<polygon fill="#ffffff" stroke="#000000" points="1029,-282.5 1029,-301.5 1100,-301.5 1100,-282.5 1029,-282.5"/>
<text text-anchor="middle" x="1064.5" y="-289.5" font-family="Helvetica,sans-Serif" font-size="10.00" fill="#000000">PkgIterator</text>
</a>
</g>
</g>
<!-- Node2&#45;&gt;Node1 -->
<g id="edge1" class="edge">
<title>Node2&#45;&gt;Node1</title>
<path fill="none" stroke="#9a32cd" stroke-dasharray="5,2" d="M1110.2051,-292C1125.3027,-292 1142.2353,-292 1157.8707,-292"/>
<polygon fill="#9a32cd" stroke="#9a32cd" points="1110.0846,-288.5001 1100.0846,-292 1110.0846,-295.5001 1110.0846,-288.5001"/>
<text text-anchor="middle" x="1129" y="-295" font-family="Helvetica,sans-Serif" font-size="10.00" fill="#000000"> Pkg</text>
</g>
<!-- Node3 -->
<g id="node3" class="node">
<title>Node3</title>
<g id="a_node3"><a xlink:href="classpkgCache_1_1Iterator.xhtml" target="_top" xlink:title="Iterator\&lt; Package,\l PkgIterator \&gt;">
<polygon fill="#ffffff" stroke="#000000" points="885,-277 885,-307 992,-307 992,-277 885,-277"/>
<text text-anchor="start" x="893" y="-295" font-family="Helvetica,sans-Serif" font-size="10.00" fill="#000000">Iterator&lt; Package,</text>
<text text-anchor="middle" x="938.5" y="-284" font-family="Helvetica,sans-Serif" font-size="10.00" fill="#000000"> PkgIterator &gt;</text>
</a>
</g>
</g>
<!-- Node3&#45;&gt;Node2 -->
<g id="edge2" class="edge">
<title>Node3&#45;&gt;Node2</title>
<path fill="none" stroke="#191970" d="M1002.4645,-292C1011.4917,-292 1020.4925,-292 1028.7252,-292"/>
<polygon fill="#191970" stroke="#191970" points="1002.3009,-288.5001 992.3008,-292 1002.3008,-295.5001 1002.3009,-288.5001"/>
</g>
<!-- Node4 -->
<g id="node4" class="node">
<title>Node4</title>
<polygon fill="#ffffff" stroke="#bfbfbf" points="677,-321 677,-351 814,-351 814,-321 677,-321"/>
<text text-anchor="start" x="685" y="-339" font-family="Helvetica,sans-Serif" font-size="10.00" fill="#000000">iterator&lt; std::forward</text>
<text text-anchor="middle" x="745.5" y="-328" font-family="Helvetica,sans-Serif" font-size="10.00" fill="#000000">_iterator_tag, Package &gt;</text>
</g>
<!-- Node4&#45;&gt;Node3 -->
<g id="edge3" class="edge">
<title>Node4&#45;&gt;Node3</title>
<path fill="none" stroke="#191970" d="M821.3283,-318.7127C842.5251,-313.8803 865.1181,-308.7296 884.7518,-304.2535"/>
<polygon fill="#191970" stroke="#191970" points="820.3517,-315.3455 811.3798,-320.9808 821.9077,-322.1704 820.3517,-315.3455"/>
</g>
<!-- Node5 -->
<g id="node5" class="node">
<title>Node5</title>
<g id="a_node5"><a xlink:href="classpkgCache.xhtml" target="_top" xlink:title="pkgCache">
<polygon fill="#ffffff" stroke="#000000" points="713,-282.5 713,-301.5 778,-301.5 778,-282.5 713,-282.5"/>
<text text-anchor="middle" x="745.5" y="-289.5" font-family="Helvetica,sans-Serif" font-size="10.00" fill="#000000">pkgCache</text>
</a>
</g>
</g>
<!-- Node5&#45;&gt;Node3 -->
<g id="edge4" class="edge">
<title>Node5&#45;&gt;Node3</title>
<path fill="none" stroke="#9a32cd" stroke-dasharray="5,2" d="M788.277,-292C816.7252,-292 854.3157,-292 884.7768,-292"/>
<polygon fill="#9a32cd" stroke="#9a32cd" points="788.2399,-288.5001 778.2398,-292 788.2398,-295.5001 788.2399,-288.5001"/>
<text text-anchor="middle" x="849.5" y="-295" font-family="Helvetica,sans-Serif" font-size="10.00" fill="#000000"> Owner</text>
</g>
<!-- Node6 -->
<g id="node6" class="node">
<title>Node6</title>
<g id="a_node6"><a xlink:href="structpkgCache_1_1DependencyData.xhtml" target="_top" xlink:title="information for a single dependency record ">
<polygon fill="#ffffff" stroke="#000000" points="477.5,-567.5 477.5,-586.5 578.5,-586.5 578.5,-567.5 477.5,-567.5"/>
<text text-anchor="middle" x="528" y="-574.5" font-family="Helvetica,sans-Serif" font-size="10.00" fill="#000000">DependencyData</text>
</a>
</g>
</g>
<!-- Node6&#45;&gt;Node5 -->
<g id="edge5" class="edge">
<title>Node6&#45;&gt;Node5</title>
<path fill="none" stroke="#9a32cd" stroke-dasharray="5,2" d="M588.992,-580.5611C614.2593,-578.6169 641.6579,-571.4354 659,-552 694.6081,-512.0938 643.3373,-353.5604 677,-312 685.6554,-301.3139 699.6832,-296.1346 712.7973,-293.6957"/>
<polygon fill="#9a32cd" stroke="#9a32cd" points="588.5106,-577.081 578.7014,-581.0849 588.8664,-584.072 588.5106,-577.081"/>
<text text-anchor="middle" x="633" y="-580" font-family="Helvetica,sans-Serif" font-size="10.00" fill="#000000"> DepDataP</text>
</g>
<!-- Node7 -->
<g id="node7" class="node">
<title>Node7</title>
<g id="a_node7"><a xlink:href="structpkgCache_1_1Dependency.xhtml" target="_top" xlink:title="Dependency">
<polygon fill="#ffffff" stroke="#000000" points="489.5,-529.5 489.5,-548.5 566.5,-548.5 566.5,-529.5 489.5,-529.5"/>
<text text-anchor="middle" x="528" y="-536.5" font-family="Helvetica,sans-Serif" font-size="10.00" fill="#000000">Dependency</text>
</a>
</g>
</g>
<!-- Node7&#45;&gt;Node5 -->
<g id="edge6" class="edge">
<title>Node7&#45;&gt;Node5</title>
<path fill="none" stroke="#9a32cd" stroke-dasharray="5,2" d="M576.7941,-541.7976C605.0026,-540.5892 638.8038,-533.7861 659,-511 688.4522,-477.7709 648.7886,-346.2888 677,-312 685.7372,-301.3807 699.7758,-296.2102 712.8759,-293.7599"/>
<polygon fill="#9a32cd" stroke="#9a32cd" points="576.6147,-538.3004 566.6901,-542.0089 576.7612,-545.2989 576.6147,-538.3004"/>
<text text-anchor="middle" x="633" y="-540" font-family="Helvetica,sans-Serif" font-size="10.00" fill="#000000"> DepP</text>
</g>
<!-- Node8 -->
<g id="node8" class="node">
<title>Node8</title>
<g id="a_node8"><a xlink:href="structpkgCache_1_1Description.xhtml" target="_top" xlink:title="datamember of a linked list of available description for a version ">
<polygon fill="#ffffff" stroke="#000000" points="492,-491.5 492,-510.5 564,-510.5 564,-491.5 492,-491.5"/>
<text text-anchor="middle" x="528" y="-498.5" font-family="Helvetica,sans-Serif" font-size="10.00" fill="#000000">Description</text>
</a>
</g>
</g>
<!-- Node8&#45;&gt;Node5 -->
<g id="edge7" class="edge">
<title>Node8&#45;&gt;Node5</title>
<path fill="none" stroke="#9a32cd" stroke-dasharray="5,2" d="M574.4778,-501.7889C603.1159,-499.6296 638.2152,-491.7244 659,-468 704.9918,-415.5036 631.9952,-365.3449 677,-312 685.7876,-301.5839 699.6706,-296.4265 712.6477,-293.9318"/>
<polygon fill="#9a32cd" stroke="#9a32cd" points="574.0535,-498.3067 564.2577,-502.3432 574.4326,-505.2964 574.0535,-498.3067"/>
<text text-anchor="middle" x="633" y="-499" font-family="Helvetica,sans-Serif" font-size="10.00" fill="#000000"> DescP</text>
</g>
<!-- Node9 -->
<g id="node9" class="node">
<title>Node9</title>
<g id="a_node9"><a xlink:href="structpkgCache_1_1Header.xhtml" target="_top" xlink:title="Header">
<polygon fill="#ffffff" stroke="#000000" points="502,-453.5 502,-472.5 554,-472.5 554,-453.5 502,-453.5"/>
<text text-anchor="middle" x="528" y="-460.5" font-family="Helvetica,sans-Serif" font-size="10.00" fill="#000000">Header</text>
</a>
</g>
</g>
<!-- Node9&#45;&gt;Node5 -->
<g id="edge8" class="edge">
<title>Node9&#45;&gt;Node5</title>
<path fill="none" stroke="#9a32cd" stroke-dasharray="5,2" d="M564.2678,-462.2757C594.1815,-459.6275 635.405,-450.8806 659,-424 692.2589,-386.1098 643.6412,-349.8023 677,-312 686.017,-301.7819 699.9323,-296.6523 712.8715,-294.125"/>
<polygon fill="#9a32cd" stroke="#9a32cd" points="563.9381,-458.7901 554.206,-462.9778 564.4254,-465.7731 563.9381,-458.7901"/>
<text text-anchor="middle" x="633" y="-456" font-family="Helvetica,sans-Serif" font-size="10.00" fill="#000000"> HeaderP</text>
</g>
<!-- Node10 -->
<g id="node10" class="node">
<title>Node10</title>
<g id="a_node10"><a xlink:href="structDynamicMMap_1_1Pool.xhtml" target="_top" xlink:title="Pool">
<polygon fill="#ffffff" stroke="#000000" points="340,-453.5 340,-472.5 378,-472.5 378,-453.5 340,-453.5"/>
<text text-anchor="middle" x="359" y="-460.5" font-family="Helvetica,sans-Serif" font-size="10.00" fill="#000000">Pool</text>
</a>
</g>
</g>
<!-- Node10&#45;&gt;Node9 -->
<g id="edge9" class="edge">
<title>Node10&#45;&gt;Node9</title>
<path fill="none" stroke="#9a32cd" stroke-dasharray="5,2" d="M388.1285,-463C420.1301,-463 471.0611,-463 501.8334,-463"/>
<polygon fill="#9a32cd" stroke="#9a32cd" points="388.058,-459.5001 378.0579,-463 388.0579,-466.5001 388.058,-459.5001"/>
<text text-anchor="middle" x="424" y="-466" font-family="Helvetica,sans-Serif" font-size="10.00" fill="#000000"> Pools</text>
</g>
<!-- Node11 -->
<g id="node11" class="node">
<title>Node11</title>
<g id="a_node11"><a xlink:href="structpkgCache_1_1PackageFile.xhtml" target="_top" xlink:title="stores information about the files used to generate the cache ">
<polygon fill="#ffffff" stroke="#000000" points="491,-415.5 491,-434.5 565,-434.5 565,-415.5 491,-415.5"/>
<text text-anchor="middle" x="528" y="-422.5" font-family="Helvetica,sans-Serif" font-size="10.00" fill="#000000">PackageFile</text>
</a>
</g>
</g>
<!-- Node11&#45;&gt;Node5 -->
<g id="edge10" class="edge">
<title>Node11&#45;&gt;Node5</title>
<path fill="none" stroke="#9a32cd" stroke-dasharray="5,2" d="M575.3243,-419.3896C603.4726,-413.6016 637.7302,-401.8502 659,-378 679.2368,-355.3082 655.6931,-333.6901 677,-312 686.3764,-302.455 700.033,-297.404 712.6896,-294.754"/>
<polygon fill="#9a32cd" stroke="#9a32cd" points="574.4554,-415.9911 565.2656,-421.2635 575.7375,-422.8727 574.4554,-415.9911"/>
<text text-anchor="middle" x="633" y="-412" font-family="Helvetica,sans-Serif" font-size="10.00" fill="#000000"> PkgFileP</text>
</g>
<!-- Node12 -->
<g id="node12" class="node">
<title>Node12</title>
<g id="a_node12"><a xlink:href="structpkgCache_1_1ReleaseFile.xhtml" target="_top" xlink:title="stores information about the release files used to generate the cache ">
<polygon fill="#ffffff" stroke="#000000" points="492.5,-377.5 492.5,-396.5 563.5,-396.5 563.5,-377.5 492.5,-377.5"/>
<text text-anchor="middle" x="528" y="-384.5" font-family="Helvetica,sans-Serif" font-size="10.00" fill="#000000">ReleaseFile</text>
</a>
</g>
</g>
<!-- Node12&#45;&gt;Node5 -->
<g id="edge11" class="edge">
<title>Node12&#45;&gt;Node5</title>
<path fill="none" stroke="#9a32cd" stroke-dasharray="5,2" d="M568.5327,-374.391C575.3657,-372.2608 582.3854,-370.0696 589,-368 620.1236,-358.262 633.936,-366.8639 659,-346 672.141,-335.0611 663.7479,-322.8041 677,-312 687.1783,-303.7019 700.6718,-298.8467 712.9902,-296.006"/>
<polygon fill="#9a32cd" stroke="#9a32cd" points="567.2303,-371.1307 558.7242,-377.447 569.3126,-377.8139 567.2303,-371.1307"/>
<text text-anchor="middle" x="633" y="-366" font-family="Helvetica,sans-Serif" font-size="10.00" fill="#000000"> RlsFileP</text>
</g>
<!-- Node13 -->
<g id="node13" class="node">
<title>Node13</title>
<g id="a_node13"><a xlink:href="structpkgCache_1_1DescFile.xhtml" target="_top" xlink:title="associates a description with a Translation file ">
<polygon fill="#ffffff" stroke="#000000" points="499.5,-339.5 499.5,-358.5 556.5,-358.5 556.5,-339.5 499.5,-339.5"/>
<text text-anchor="middle" x="528" y="-346.5" font-family="Helvetica,sans-Serif" font-size="10.00" fill="#000000">DescFile</text>
</a>
</g>
</g>
<!-- Node13&#45;&gt;Node5 -->
<g id="edge12" class="edge">
<title>Node13&#45;&gt;Node5</title>
<path fill="none" stroke="#9a32cd" stroke-dasharray="5,2" d="M566.48,-340.8444C592.7075,-335.0538 628.1402,-326.7757 659,-318 667.1112,-315.6934 668.9512,-314.5155 677,-312 688.5883,-308.3783 701.3427,-304.5985 712.6722,-301.3125"/>
<polygon fill="#9a32cd" stroke="#9a32cd" points="565.576,-337.4593 556.5543,-343.0143 567.0711,-344.2978 565.576,-337.4593"/>
<text text-anchor="middle" x="633" y="-334" font-family="Helvetica,sans-Serif" font-size="10.00" fill="#000000"> DescFileP</text>
</g>
<!-- Node14 -->
<g id="node14" class="node">
<title>Node14</title>
<g id="a_node14"><a xlink:href="structpkgCache_1_1Provides.xhtml" target="_top" xlink:title="handles virtual packages ">
<polygon fill="#ffffff" stroke="#000000" points="498.5,-301.5 498.5,-320.5 557.5,-320.5 557.5,-301.5 498.5,-301.5"/>
<text text-anchor="middle" x="528" y="-308.5" font-family="Helvetica,sans-Serif" font-size="10.00" fill="#000000">Provides</text>
</a>
</g>
</g>
<!-- Node14&#45;&gt;Node5 -->
<g id="edge13" class="edge">
<title>Node14&#45;&gt;Node5</title>
<path fill="none" stroke="#9a32cd" stroke-dasharray="5,2" d="M567.8567,-307.5183C609.5275,-303.8781 674.141,-298.2337 712.8838,-294.8492"/>
<polygon fill="#9a32cd" stroke="#9a32cd" points="567.4438,-304.0409 557.7864,-308.398 568.0531,-311.0144 567.4438,-304.0409"/>
<text text-anchor="middle" x="633" y="-306" font-family="Helvetica,sans-Serif" font-size="10.00" fill="#000000"> ProvideP</text>
</g>
<!-- Node15 -->
<g id="node15" class="node">
<title>Node15</title>
<g id="a_node15"><a xlink:title="STL class. ">
<polygon fill="#ffffff" stroke="#bfbfbf" points="156,-244.5 156,-263.5 200,-263.5 200,-244.5 156,-244.5"/>
<text text-anchor="middle" x="178" y="-251.5" font-family="Helvetica,sans-Serif" font-size="10.00" fill="#000000">string</text>
</a>
</g>
</g>
<!-- Node15&#45;&gt;Node5 -->
<g id="edge14" class="edge">
<title>Node15&#45;&gt;Node5</title>
<path fill="none" stroke="#9a32cd" stroke-dasharray="5,2" d="M210.597,-258.244C213.1001,-258.5181 215.5895,-258.7742 218,-259 404.8288,-276.5038 629.781,-287.1007 712.7282,-290.6559"/>
<polygon fill="#9a32cd" stroke="#9a32cd" points="210.738,-254.7366 200.3983,-257.0477 209.9224,-261.689 210.738,-254.7366"/>
<text text-anchor="middle" x="424" y="-279" font-family="Helvetica,sans-Serif" font-size="10.00" fill="#000000"> CacheFile</text>
</g>
<!-- Node23 -->
<g id="node23" class="node">
<title>Node23</title>
<g id="a_node23"><a xlink:href="classFileFd.xhtml" target="_top" xlink:title="FileFd">
<polygon fill="#ffffff" stroke="#000000" points="337,-225.5 337,-244.5 381,-244.5 381,-225.5 337,-225.5"/>
<text text-anchor="middle" x="359" y="-232.5" font-family="Helvetica,sans-Serif" font-size="10.00" fill="#000000">FileFd</text>
</a>
</g>
</g>
<!-- Node15&#45;&gt;Node23 -->
<g id="edge24" class="edge">
<title>Node15&#45;&gt;Node23</title>
<path fill="none" stroke="#9a32cd" stroke-dasharray="5,2" d="M205.8134,-240.577C209.8246,-239.1162 213.9625,-237.8522 218,-237 259.2006,-228.3034 308.6875,-230.39 336.7274,-232.6957"/>
<polygon fill="#9a32cd" stroke="#9a32cd" points="204.1663,-237.469 196.2332,-244.4915 206.8141,-243.949 204.1663,-237.469"/>
<text text-anchor="middle" x="268.5" y="-251" font-family="Helvetica,sans-Serif" font-size="10.00" fill="#000000"> TemporaryFileName</text>
<text text-anchor="middle" x="268.5" y="-240" font-family="Helvetica,sans-Serif" font-size="10.00" fill="#000000">FileName</text>
</g>
<!-- Node16 -->
<g id="node16" class="node">
<title>Node16</title>
<g id="a_node16"><a xlink:title="STL class. ">
<polygon fill="#ffffff" stroke="#bfbfbf" points="0,-244.5 0,-263.5 119,-263.5 119,-244.5 0,-244.5"/>
<text text-anchor="middle" x="59.5" y="-251.5" font-family="Helvetica,sans-Serif" font-size="10.00" fill="#000000">basic_string&lt; char &gt;</text>
</a>
</g>
</g>
<!-- Node16&#45;&gt;Node15 -->
<g id="edge15" class="edge">
<title>Node16&#45;&gt;Node15</title>
<path fill="none" stroke="#191970" d="M129.2118,-254C138.8284,-254 148.0652,-254 155.8653,-254"/>
<polygon fill="#191970" stroke="#191970" points="129.0972,-250.5001 119.0972,-254 129.0971,-257.5001 129.0972,-250.5001"/>
</g>
<!-- Node17 -->
<g id="node17" class="node">
<title>Node17</title>
<g id="a_node17"><a xlink:href="structpkgCache_1_1Group.xhtml" target="_top" xlink:title="groups architecture depending packages together ">
<polygon fill="#ffffff" stroke="#000000" points="505,-187.5 505,-206.5 551,-206.5 551,-187.5 505,-187.5"/>
<text text-anchor="middle" x="528" y="-194.5" font-family="Helvetica,sans-Serif" font-size="10.00" fill="#000000">Group</text>
</a>
</g>
</g>
<!-- Node17&#45;&gt;Node5 -->
<g id="edge16" class="edge">
<title>Node17&#45;&gt;Node5</title>
<path fill="none" stroke="#9a32cd" stroke-dasharray="5,2" d="M561.4814,-199.2447C588.7893,-202.091 627.8085,-208.5198 659,-223 691.06,-237.8834 721.7198,-267.0174 736.4299,-282.228"/>
<polygon fill="#9a32cd" stroke="#9a32cd" points="561.5538,-195.7363 551.2714,-198.2901 560.9022,-202.7059 561.5538,-195.7363"/>
<text text-anchor="middle" x="633" y="-226" font-family="Helvetica,sans-Serif" font-size="10.00" fill="#000000"> GrpP</text>
</g>
<!-- Node18 -->
<g id="node18" class="node">
<title>Node18</title>
<g id="a_node18"><a xlink:href="classpkgVersioningSystem.xhtml" target="_top" xlink:title="pkgVersioningSystem">
<polygon fill="#ffffff" stroke="#000000" points="467,-120.5 467,-139.5 589,-139.5 589,-120.5 467,-120.5"/>
<text text-anchor="middle" x="528" y="-127.5" font-family="Helvetica,sans-Serif" font-size="10.00" fill="#000000">pkgVersioningSystem</text>
</a>
</g>
</g>
<!-- Node18&#45;&gt;Node5 -->
<g id="edge17" class="edge">
<title>Node18&#45;&gt;Node5</title>
<path fill="none" stroke="#9a32cd" stroke-dasharray="5,2" d="M566.1005,-143.1607C593.5632,-153.7617 630.6314,-170.4407 659,-192 694.6384,-219.0842 726.1726,-262.9288 739.1771,-282.2858"/>
<polygon fill="#9a32cd" stroke="#9a32cd" points="567.0432,-139.776 556.4511,-139.5323 564.5794,-146.328 567.0432,-139.776"/>
<text text-anchor="middle" x="633" y="-195" font-family="Helvetica,sans-Serif" font-size="10.00" fill="#000000"> VS</text>
</g>
<!-- Node18&#45;&gt;Node18 -->
<g id="edge18" class="edge">
<title>Node18&#45;&gt;Node18</title>
<path fill="none" stroke="#9a32cd" stroke-dasharray="5,2" d="M508.7417,-149.4C510.0278,-154.3146 516.4473,-158 528,-158 546.4844,-158 551.8275,-148.5653 544.0294,-139.7571"/>
<polygon fill="#9a32cd" stroke="#9a32cd" points="512.1142,-150.3509 511.9706,-139.7571 505.4765,-148.1283 512.1142,-150.3509"/>
<text text-anchor="middle" x="528" y="-161" font-family="Helvetica,sans-Serif" font-size="10.00" fill="#000000"> GlobalList</text>
</g>
<!-- Node19 -->
<g id="node19" class="node">
<title>Node19</title>
<g id="a_node19"><a xlink:href="structpkgCache_1_1Version.xhtml" target="_top" xlink:title="information for a single version of a package ">
<polygon fill="#ffffff" stroke="#000000" points="501.5,-82.5 501.5,-101.5 554.5,-101.5 554.5,-82.5 501.5,-82.5"/>
<text text-anchor="middle" x="528" y="-89.5" font-family="Helvetica,sans-Serif" font-size="10.00" fill="#000000">Version</text>
</a>
</g>
</g>
<!-- Node19&#45;&gt;Node5 -->
<g id="edge19" class="edge">
<title>Node19&#45;&gt;Node5</title>
<path fill="none" stroke="#9a32cd" stroke-dasharray="5,2" d="M564.6576,-99.6369C593.2951,-107.2183 632.5445,-121.3644 659,-146 703.4159,-187.3604 732.3606,-256.6946 741.9728,-282.2005"/>
<polygon fill="#9a32cd" stroke="#9a32cd" points="565.1805,-96.1601 554.6304,-97.1335 563.4848,-102.9516 565.1805,-96.1601"/>
<text text-anchor="middle" x="633" y="-149" font-family="Helvetica,sans-Serif" font-size="10.00" fill="#000000"> VerP</text>
</g>
<!-- Node20 -->
<g id="node20" class="node">
<title>Node20</title>
<g id="a_node20"><a xlink:href="structpkgCache_1_1VerFile.xhtml" target="_top" xlink:title="associates a version with a PackageFile ">
<polygon fill="#ffffff" stroke="#000000" points="503.5,-44.5 503.5,-63.5 552.5,-63.5 552.5,-44.5 503.5,-44.5"/>
<text text-anchor="middle" x="528" y="-51.5" font-family="Helvetica,sans-Serif" font-size="10.00" fill="#000000">VerFile</text>
</a>
</g>
</g>
<!-- Node20&#45;&gt;Node5 -->
<g id="edge20" class="edge">
<title>Node20&#45;&gt;Node5</title>
<path fill="none" stroke="#9a32cd" stroke-dasharray="5,2" d="M562.7159,-58.2456C591.7576,-63.4796 632.5699,-74.9889 659,-100 715.5618,-153.525 737.8831,-250.8981 743.7859,-282.0992"/>
<polygon fill="#9a32cd" stroke="#9a32cd" points="563.0317,-54.7507 552.5974,-56.5878 561.8999,-61.6586 563.0317,-54.7507"/>
<text text-anchor="middle" x="633" y="-103" font-family="Helvetica,sans-Serif" font-size="10.00" fill="#000000"> VerFileP</text>
</g>
<!-- Node21 -->
<g id="node21" class="node">
<title>Node21</title>
<g id="a_node21"><a xlink:href="structpkgCache_1_1Package.xhtml" target="_top" xlink:title="contains information for a single unique package ">
<polygon fill="#ffffff" stroke="#000000" points="499.5,-.5 499.5,-19.5 556.5,-19.5 556.5,-.5 499.5,-.5"/>
<text text-anchor="middle" x="528" y="-7.5" font-family="Helvetica,sans-Serif" font-size="10.00" fill="#000000">Package</text>
</a>
</g>
</g>
<!-- Node21&#45;&gt;Node3 -->
<g id="edge25" class="edge">
<title>Node21&#45;&gt;Node3</title>
<path fill="none" stroke="#9a32cd" stroke-dasharray="5,2" d="M566.9568,-6.5631C593.9611,-5.7501 630.1136,-7.8615 659,-21 790.045,-80.6036 896.5141,-228.6299 928.5838,-276.6758"/>
<polygon fill="#9a32cd" stroke="#9a32cd" points="566.5578,-3.0774 556.7249,-7.0225 566.8719,-10.0703 566.5578,-3.0774"/>
<text text-anchor="middle" x="745.5" y="-138" font-family="Helvetica,sans-Serif" font-size="10.00" fill="#000000"> S</text>
</g>
<!-- Node21&#45;&gt;Node5 -->
<g id="edge21" class="edge">
<title>Node21&#45;&gt;Node5</title>
<path fill="none" stroke="#9a32cd" stroke-dasharray="5,2" d="M566.9201,-14.3475C595.7723,-19.4981 634.2334,-30.7013 659,-55 727.1593,-121.8715 741.961,-246.7151 744.8535,-282.3046"/>
<polygon fill="#9a32cd" stroke="#9a32cd" points="567.1979,-10.8471 556.7683,-12.7107 566.0837,-17.7579 567.1979,-10.8471"/>
<text text-anchor="middle" x="633" y="-58" font-family="Helvetica,sans-Serif" font-size="10.00" fill="#000000"> PkgP</text>
</g>
<!-- Node22 -->
<g id="node22" class="node">
<title>Node22</title>
<g id="a_node22"><a xlink:href="classMMap.xhtml" target="_top" xlink:title="MMap">
<polygon fill="#ffffff" stroke="#000000" points="505.5,-225.5 505.5,-244.5 550.5,-244.5 550.5,-225.5 505.5,-225.5"/>
<text text-anchor="middle" x="528" y="-232.5" font-family="Helvetica,sans-Serif" font-size="10.00" fill="#000000">MMap</text>
</a>
</g>
</g>
<!-- Node22&#45;&gt;Node5 -->
<g id="edge22" class="edge">
<title>Node22&#45;&gt;Node5</title>
<path fill="none" stroke="#9a32cd" stroke-dasharray="5,2" d="M560.77,-234.9112C587.6618,-235.626 626.4683,-238.4783 659,-248 685.8425,-255.8565 714.2444,-272.0248 730.8968,-282.4222"/>
<polygon fill="#9a32cd" stroke="#9a32cd" points="560.7952,-231.4111 550.7333,-234.7289 560.668,-238.41 560.7952,-231.4111"/>
<text text-anchor="middle" x="633" y="-251" font-family="Helvetica,sans-Serif" font-size="10.00" fill="#000000"> Map</text>
</g>
<!-- Node23&#45;&gt;Node22 -->
<g id="edge23" class="edge">
<title>Node23&#45;&gt;Node22</title>
<path fill="none" stroke="#9a32cd" stroke-dasharray="5,2" d="M391.2616,-235C424.6753,-235 476.0218,-235 505.3614,-235"/>
<polygon fill="#9a32cd" stroke="#9a32cd" points="391.0938,-231.5001 381.0938,-235 391.0938,-238.5001 391.0938,-231.5001"/>
<text text-anchor="middle" x="424" y="-238" font-family="Helvetica,sans-Serif" font-size="10.00" fill="#000000"> SyncToFd</text>
</g>
</g>
</svg>
