<?xml version="1.0" encoding="UTF-8" standalone="no"?>
<!DOCTYPE svg PUBLIC "-//W3C//DTD SVG 1.1//EN"
 "http://www.w3.org/Graphics/SVG/1.1/DTD/svg11.dtd">
<!-- Generated by graphviz version 2.40.1 (20161225.0304)
 -->
<!-- Title: PrettyPkg Pages: 1 -->
<svg width="1265pt" height="597pt"
 viewBox="0.00 0.00 1265.00 597.00" xmlns="http://www.w3.org/2000/svg" xmlns:xlink="http://www.w3.org/1999/xlink">
<g id="graph0" class="graph" transform="scale(1 1) rotate(0) translate(4 593)">
<title>PrettyPkg</title>
<polygon fill="#ffffff" stroke="transparent" points="-4,4 -4,-593 1261,-593 1261,4 -4,4"/>
<!-- Node1 -->
<g id="node1" class="node">
<title>Node1</title>
<polygon fill="#bfbfbf" stroke="#000000" points="1193,-306.5 1193,-325.5 1257,-325.5 1257,-306.5 1193,-306.5"/>
<text text-anchor="middle" x="1225" y="-313.5" font-family="Helvetica,sans-Serif" font-size="10.00" fill="#000000">PrettyPkg</text>
</g>
<!-- Node2 -->
<g id="node2" class="node">
<title>Node2</title>
<g id="a_node2"><a xlink:href="classpkgCache_1_1PkgIterator.xhtml" target="_top" xlink:title="PkgIterator">
<polygon fill="#ffffff" stroke="#000000" points="1064,-336.5 1064,-355.5 1135,-355.5 1135,-336.5 1064,-336.5"/>
<text text-anchor="middle" x="1099.5" y="-343.5" font-family="Helvetica,sans-Serif" font-size="10.00" fill="#000000">PkgIterator</text>
</a>
</g>
</g>
<!-- Node2&#45;&gt;Node1 -->
<g id="edge1" class="edge">
<title>Node2&#45;&gt;Node1</title>
<path fill="none" stroke="#9a32cd" stroke-dasharray="5,2" d="M1145.2092,-335.0735C1160.9608,-331.3082 1178.2624,-327.1723 1192.7163,-323.7172"/>
<polygon fill="#9a32cd" stroke="#9a32cd" points="1144.0398,-331.7543 1135.1276,-337.4834 1145.6673,-338.5625 1144.0398,-331.7543"/>
<text text-anchor="middle" x="1164" y="-336" font-family="Helvetica,sans-Serif" font-size="10.00" fill="#000000"> Pkg</text>
</g>
<!-- Node3 -->
<g id="node3" class="node">
<title>Node3</title>
<g id="a_node3"><a xlink:href="classpkgCache_1_1Iterator.xhtml" target="_top" xlink:title="Iterator\&lt; Package,\l PkgIterator \&gt;">
<polygon fill="#ffffff" stroke="#000000" points="920,-351 920,-381 1027,-381 1027,-351 920,-351"/>
<text text-anchor="start" x="928" y="-369" font-family="Helvetica,sans-Serif" font-size="10.00" fill="#000000">Iterator&lt; Package,</text>
<text text-anchor="middle" x="973.5" y="-358" font-family="Helvetica,sans-Serif" font-size="10.00" fill="#000000"> PkgIterator &gt;</text>
</a>
</g>
</g>
<!-- Node3&#45;&gt;Node2 -->
<g id="edge2" class="edge">
<title>Node3&#45;&gt;Node2</title>
<path fill="none" stroke="#191970" d="M1037.4645,-355.8469C1046.4917,-354.414 1055.4925,-352.9853 1063.7252,-351.6785"/>
<polygon fill="#191970" stroke="#191970" points="1036.6285,-352.4357 1027.3008,-357.4602 1037.7259,-359.3492 1036.6285,-352.4357"/>
</g>
<!-- Node4 -->
<g id="node4" class="node">
<title>Node4</title>
<polygon fill="#ffffff" stroke="#bfbfbf" points="677,-364 677,-394 814,-394 814,-364 677,-364"/>
<text text-anchor="start" x="685" y="-382" font-family="Helvetica,sans-Serif" font-size="10.00" fill="#000000">iterator&lt; std::forward</text>
<text text-anchor="middle" x="745.5" y="-371" font-family="Helvetica,sans-Serif" font-size="10.00" fill="#000000">_iterator_tag, Package &gt;</text>
</g>
<!-- Node4&#45;&gt;Node3 -->
<g id="edge3" class="edge">
<title>Node4&#45;&gt;Node3</title>
<path fill="none" stroke="#191970" d="M824.2952,-374.5073C855.8109,-372.7103 891.3068,-370.6865 919.7683,-369.0637"/>
<polygon fill="#191970" stroke="#191970" points="824.0012,-371.0183 814.2167,-375.0819 824.3998,-378.0069 824.0012,-371.0183"/>
</g>
<!-- Node5 -->
<g id="node5" class="node">
<title>Node5</title>
<g id="a_node5"><a xlink:href="classpkgCache.xhtml" target="_top" xlink:title="pkgCache">
<polygon fill="#ffffff" stroke="#000000" points="713,-314.5 713,-333.5 778,-333.5 778,-314.5 713,-314.5"/>
<text text-anchor="middle" x="745.5" y="-321.5" font-family="Helvetica,sans-Serif" font-size="10.00" fill="#000000">pkgCache</text>
</a>
</g>
</g>
<!-- Node5&#45;&gt;Node3 -->
<g id="edge4" class="edge">
<title>Node5&#45;&gt;Node3</title>
<path fill="none" stroke="#9a32cd" stroke-dasharray="5,2" d="M788.1914,-331.8642C825.418,-338.7217 879.5965,-348.702 919.7649,-356.1014"/>
<polygon fill="#9a32cd" stroke="#9a32cd" points="788.6355,-328.3872 778.1668,-330.0176 787.3673,-335.2714 788.6355,-328.3872"/>
<text text-anchor="middle" x="867" y="-356" font-family="Helvetica,sans-Serif" font-size="10.00" fill="#000000"> Owner</text>
</g>
<!-- Node24 -->
<g id="node24" class="node">
<title>Node24</title>
<g id="a_node24"><a xlink:href="classpkgDepCache.xhtml" target="_top" xlink:title="pkgDepCache">
<polygon fill="#ffffff" stroke="#000000" points="931.5,-276.5 931.5,-295.5 1015.5,-295.5 1015.5,-276.5 931.5,-276.5"/>
<text text-anchor="middle" x="973.5" y="-283.5" font-family="Helvetica,sans-Serif" font-size="10.00" fill="#000000">pkgDepCache</text>
</a>
</g>
</g>
<!-- Node5&#45;&gt;Node24 -->
<g id="edge29" class="edge">
<title>Node5&#45;&gt;Node24</title>
<path fill="none" stroke="#9a32cd" stroke-dasharray="5,2" d="M788.096,-316.9007C828.9879,-310.0854 890.3981,-299.8503 931.193,-293.0512"/>
<polygon fill="#9a32cd" stroke="#9a32cd" points="787.4554,-313.4591 778.1668,-318.5555 788.6062,-320.3638 787.4554,-313.4591"/>
<text text-anchor="middle" x="867" y="-313" font-family="Helvetica,sans-Serif" font-size="10.00" fill="#000000"> Cache</text>
</g>
<!-- Node6 -->
<g id="node6" class="node">
<title>Node6</title>
<g id="a_node6"><a xlink:href="structpkgCache_1_1DependencyData.xhtml" target="_top" xlink:title="information for a single dependency record ">
<polygon fill="#ffffff" stroke="#000000" points="477.5,-523.5 477.5,-542.5 578.5,-542.5 578.5,-523.5 477.5,-523.5"/>
<text text-anchor="middle" x="528" y="-530.5" font-family="Helvetica,sans-Serif" font-size="10.00" fill="#000000">DependencyData</text>
</a>
</g>
</g>
<!-- Node6&#45;&gt;Node5 -->
<g id="edge5" class="edge">
<title>Node6&#45;&gt;Node5</title>
<path fill="none" stroke="#9a32cd" stroke-dasharray="5,2" d="M588.5106,-526.8862C618.0272,-522.6041 649.2494,-515.6909 659,-505 704.5444,-455.0639 636.7287,-408.2782 677,-354 685.5868,-342.4266 699.6055,-335.2494 712.7312,-330.8319"/>
<polygon fill="#9a32cd" stroke="#9a32cd" points="588.0342,-523.4187 578.5995,-528.2392 588.981,-530.3544 588.0342,-523.4187"/>
<text text-anchor="middle" x="633" y="-526" font-family="Helvetica,sans-Serif" font-size="10.00" fill="#000000"> DepDataP</text>
</g>
<!-- Node7 -->
<g id="node7" class="node">
<title>Node7</title>
<g id="a_node7"><a xlink:href="structpkgCache_1_1Dependency.xhtml" target="_top" xlink:title="Dependency">
<polygon fill="#ffffff" stroke="#000000" points="489.5,-485.5 489.5,-504.5 566.5,-504.5 566.5,-485.5 489.5,-485.5"/>
<text text-anchor="middle" x="528" y="-492.5" font-family="Helvetica,sans-Serif" font-size="10.00" fill="#000000">Dependency</text>
</a>
</g>
</g>
<!-- Node7&#45;&gt;Node5 -->
<g id="edge6" class="edge">
<title>Node7&#45;&gt;Node5</title>
<path fill="none" stroke="#9a32cd" stroke-dasharray="5,2" d="M576.6227,-495.6234C604.6076,-493.2832 638.2354,-485.4041 659,-463 692.3766,-426.988 646.8634,-392.764 677,-354 685.8451,-342.6228 699.8981,-335.4716 712.9798,-331.0207"/>
<polygon fill="#9a32cd" stroke="#9a32cd" points="576.3634,-492.1327 566.602,-496.2517 576.8014,-499.119 576.3634,-492.1327"/>
<text text-anchor="middle" x="633" y="-494" font-family="Helvetica,sans-Serif" font-size="10.00" fill="#000000"> DepP</text>
</g>
<!-- Node8 -->
<g id="node8" class="node">
<title>Node8</title>
<g id="a_node8"><a xlink:href="structpkgCache_1_1Description.xhtml" target="_top" xlink:title="datamember of a linked list of available description for a version ">
<polygon fill="#ffffff" stroke="#000000" points="492,-447.5 492,-466.5 564,-466.5 564,-447.5 492,-447.5"/>
<text text-anchor="middle" x="528" y="-454.5" font-family="Helvetica,sans-Serif" font-size="10.00" fill="#000000">Description</text>
</a>
</g>
</g>
<!-- Node8&#45;&gt;Node5 -->
<g id="edge7" class="edge">
<title>Node8&#45;&gt;Node5</title>
<path fill="none" stroke="#9a32cd" stroke-dasharray="5,2" d="M574.241,-454.6426C602.2946,-450.808 636.8408,-441.4306 659,-419 680.0669,-397.675 657.368,-376.6529 677,-354 686.268,-343.3059 700.0621,-336.2798 712.8478,-331.7369"/>
<polygon fill="#9a32cd" stroke="#9a32cd" points="573.7573,-451.1752 564.2342,-455.8184 574.5743,-458.1274 573.7573,-451.1752"/>
<text text-anchor="middle" x="633" y="-451" font-family="Helvetica,sans-Serif" font-size="10.00" fill="#000000"> DescP</text>
</g>
<!-- Node9 -->
<g id="node9" class="node">
<title>Node9</title>
<g id="a_node9"><a xlink:href="structpkgCache_1_1Header.xhtml" target="_top" xlink:title="Header">
<polygon fill="#ffffff" stroke="#000000" points="502,-409.5 502,-428.5 554,-428.5 554,-409.5 502,-409.5"/>
<text text-anchor="middle" x="528" y="-416.5" font-family="Helvetica,sans-Serif" font-size="10.00" fill="#000000">Header</text>
</a>
</g>
</g>
<!-- Node9&#45;&gt;Node5 -->
<g id="edge8" class="edge">
<title>Node9&#45;&gt;Node5</title>
<path fill="none" stroke="#9a32cd" stroke-dasharray="5,2" d="M564.2186,-414.375C592.207,-409.3652 630.8011,-399.198 659,-379 670.1308,-371.0274 666.352,-362.6068 677,-354 688.0056,-345.1041 702.0576,-338.345 714.5666,-333.5157"/>
<polygon fill="#9a32cd" stroke="#9a32cd" points="563.3513,-410.9707 554.0549,-416.0527 564.4914,-417.8772 563.3513,-410.9707"/>
<text text-anchor="middle" x="633" y="-407" font-family="Helvetica,sans-Serif" font-size="10.00" fill="#000000"> HeaderP</text>
</g>
<!-- Node10 -->
<g id="node10" class="node">
<title>Node10</title>
<g id="a_node10"><a xlink:href="structDynamicMMap_1_1Pool.xhtml" target="_top" xlink:title="Pool">
<polygon fill="#ffffff" stroke="#000000" points="340,-409.5 340,-428.5 378,-428.5 378,-409.5 340,-409.5"/>
<text text-anchor="middle" x="359" y="-416.5" font-family="Helvetica,sans-Serif" font-size="10.00" fill="#000000">Pool</text>
</a>
</g>
</g>
<!-- Node10&#45;&gt;Node9 -->
<g id="edge9" class="edge">
<title>Node10&#45;&gt;Node9</title>
<path fill="none" stroke="#9a32cd" stroke-dasharray="5,2" d="M388.1285,-419C420.1301,-419 471.0611,-419 501.8334,-419"/>
<polygon fill="#9a32cd" stroke="#9a32cd" points="388.058,-415.5001 378.0579,-419 388.0579,-422.5001 388.058,-415.5001"/>
<text text-anchor="middle" x="424" y="-422" font-family="Helvetica,sans-Serif" font-size="10.00" fill="#000000"> Pools</text>
</g>
<!-- Node11 -->
<g id="node11" class="node">
<title>Node11</title>
<g id="a_node11"><a xlink:href="structpkgCache_1_1PackageFile.xhtml" target="_top" xlink:title="stores information about the files used to generate the cache ">
<polygon fill="#ffffff" stroke="#000000" points="491,-371.5 491,-390.5 565,-390.5 565,-371.5 491,-371.5"/>
<text text-anchor="middle" x="528" y="-378.5" font-family="Helvetica,sans-Serif" font-size="10.00" fill="#000000">PackageFile</text>
</a>
</g>
</g>
<!-- Node11&#45;&gt;Node5 -->
<g id="edge10" class="edge">
<title>Node11&#45;&gt;Node5</title>
<path fill="none" stroke="#9a32cd" stroke-dasharray="5,2" d="M575.1423,-371.1293C600.1713,-365.656 631.3834,-358.4603 659,-351 678.4401,-345.7485 700.0651,-338.9985 716.83,-333.5614"/>
<polygon fill="#9a32cd" stroke="#9a32cd" points="574.2064,-367.7508 565.1747,-373.2896 575.6892,-374.5919 574.2064,-367.7508"/>
<text text-anchor="middle" x="633" y="-367" font-family="Helvetica,sans-Serif" font-size="10.00" fill="#000000"> PkgFileP</text>
</g>
<!-- Node12 -->
<g id="node12" class="node">
<title>Node12</title>
<g id="a_node12"><a xlink:href="structpkgCache_1_1ReleaseFile.xhtml" target="_top" xlink:title="stores information about the release files used to generate the cache ">
<polygon fill="#ffffff" stroke="#000000" points="492.5,-333.5 492.5,-352.5 563.5,-352.5 563.5,-333.5 492.5,-333.5"/>
<text text-anchor="middle" x="528" y="-340.5" font-family="Helvetica,sans-Serif" font-size="10.00" fill="#000000">ReleaseFile</text>
</a>
</g>
</g>
<!-- Node12&#45;&gt;Node5 -->
<g id="edge11" class="edge">
<title>Node12&#45;&gt;Node5</title>
<path fill="none" stroke="#9a32cd" stroke-dasharray="5,2" d="M574.0667,-338.9758C615.6694,-335.3415 675.856,-330.0838 712.7357,-326.8622"/>
<polygon fill="#9a32cd" stroke="#9a32cd" points="573.5731,-335.5055 563.9157,-339.8625 574.1824,-342.4789 573.5731,-335.5055"/>
<text text-anchor="middle" x="633" y="-339" font-family="Helvetica,sans-Serif" font-size="10.00" fill="#000000"> RlsFileP</text>
</g>
<!-- Node13 -->
<g id="node13" class="node">
<title>Node13</title>
<g id="a_node13"><a xlink:href="structpkgCache_1_1DescFile.xhtml" target="_top" xlink:title="associates a description with a Translation file ">
<polygon fill="#ffffff" stroke="#000000" points="499.5,-295.5 499.5,-314.5 556.5,-314.5 556.5,-295.5 499.5,-295.5"/>
<text text-anchor="middle" x="528" y="-302.5" font-family="Helvetica,sans-Serif" font-size="10.00" fill="#000000">DescFile</text>
</a>
</g>
</g>
<!-- Node13&#45;&gt;Node5 -->
<g id="edge12" class="edge">
<title>Node13&#45;&gt;Node5</title>
<path fill="none" stroke="#9a32cd" stroke-dasharray="5,2" d="M566.9325,-308.401C608.5893,-312.04 673.9242,-317.7474 712.9472,-321.1563"/>
<polygon fill="#9a32cd" stroke="#9a32cd" points="567.149,-304.9067 556.8823,-307.5231 566.5398,-311.8801 567.149,-304.9067"/>
<text text-anchor="middle" x="633" y="-320" font-family="Helvetica,sans-Serif" font-size="10.00" fill="#000000"> DescFileP</text>
</g>
<!-- Node14 -->
<g id="node14" class="node">
<title>Node14</title>
<g id="a_node14"><a xlink:href="structpkgCache_1_1Provides.xhtml" target="_top" xlink:title="handles virtual packages ">
<polygon fill="#ffffff" stroke="#000000" points="498.5,-257.5 498.5,-276.5 557.5,-276.5 557.5,-257.5 498.5,-257.5"/>
<text text-anchor="middle" x="528" y="-264.5" font-family="Helvetica,sans-Serif" font-size="10.00" fill="#000000">Provides</text>
</a>
</g>
</g>
<!-- Node14&#45;&gt;Node5 -->
<g id="edge13" class="edge">
<title>Node14&#45;&gt;Node5</title>
<path fill="none" stroke="#9a32cd" stroke-dasharray="5,2" d="M567.6441,-274.8846C593.8271,-280.4572 628.7591,-288.5914 659,-298 667.1961,-300.55 668.8541,-302.2939 677,-305 688.5949,-308.8518 701.4661,-312.566 712.8925,-315.6729"/>
<polygon fill="#9a32cd" stroke="#9a32cd" points="568.2163,-271.4286 557.7111,-272.8038 566.781,-278.2799 568.2163,-271.4286"/>
<text text-anchor="middle" x="633" y="-301" font-family="Helvetica,sans-Serif" font-size="10.00" fill="#000000"> ProvideP</text>
</g>
<!-- Node15 -->
<g id="node15" class="node">
<title>Node15</title>
<g id="a_node15"><a xlink:title="STL class. ">
<polygon fill="#ffffff" stroke="#bfbfbf" points="156,-177.5 156,-196.5 200,-196.5 200,-177.5 156,-177.5"/>
<text text-anchor="middle" x="178" y="-184.5" font-family="Helvetica,sans-Serif" font-size="10.00" fill="#000000">string</text>
</a>
</g>
</g>
<!-- Node15&#45;&gt;Node5 -->
<g id="edge14" class="edge">
<title>Node15&#45;&gt;Node5</title>
<path fill="none" stroke="#9a32cd" stroke-dasharray="5,2" d="M206.9495,-200.4291C210.6157,-201.7939 214.3585,-203.0314 218,-204 378.4655,-246.6802 429.3895,-202.2262 589,-248 622.0622,-257.4817 632.3403,-259.2682 659,-281 669.3348,-289.4244 665.9875,-297.4832 677,-305 687.6009,-312.2359 700.8938,-316.7284 712.9418,-319.5122"/>
<polygon fill="#9a32cd" stroke="#9a32cd" points="208.129,-197.1306 197.5466,-196.6168 205.4988,-203.6177 208.129,-197.1306"/>
<text text-anchor="middle" x="424" y="-229" font-family="Helvetica,sans-Serif" font-size="10.00" fill="#000000"> CacheFile</text>
</g>
<!-- Node23 -->
<g id="node23" class="node">
<title>Node23</title>
<g id="a_node23"><a xlink:href="classFileFd.xhtml" target="_top" xlink:title="FileFd">
<polygon fill="#ffffff" stroke="#000000" points="337,-136.5 337,-155.5 381,-155.5 381,-136.5 337,-136.5"/>
<text text-anchor="middle" x="359" y="-143.5" font-family="Helvetica,sans-Serif" font-size="10.00" fill="#000000">FileFd</text>
</a>
</g>
</g>
<!-- Node15&#45;&gt;Node23 -->
<g id="edge24" class="edge">
<title>Node15&#45;&gt;Node23</title>
<path fill="none" stroke="#9a32cd" stroke-dasharray="5,2" d="M210.3175,-179.6795C246.8252,-171.4098 305.2614,-158.1728 336.9077,-151.0043"/>
<polygon fill="#9a32cd" stroke="#9a32cd" points="209.1738,-176.3498 200.1942,-181.9726 210.7203,-183.1768 209.1738,-176.3498"/>
<text text-anchor="middle" x="268.5" y="-192" font-family="Helvetica,sans-Serif" font-size="10.00" fill="#000000"> TemporaryFileName</text>
<text text-anchor="middle" x="268.5" y="-181" font-family="Helvetica,sans-Serif" font-size="10.00" fill="#000000">FileName</text>
</g>
<!-- Node16 -->
<g id="node16" class="node">
<title>Node16</title>
<g id="a_node16"><a xlink:title="STL class. ">
<polygon fill="#ffffff" stroke="#bfbfbf" points="0,-177.5 0,-196.5 119,-196.5 119,-177.5 0,-177.5"/>
<text text-anchor="middle" x="59.5" y="-184.5" font-family="Helvetica,sans-Serif" font-size="10.00" fill="#000000">basic_string&lt; char &gt;</text>
</a>
</g>
</g>
<!-- Node16&#45;&gt;Node15 -->
<g id="edge15" class="edge">
<title>Node16&#45;&gt;Node15</title>
<path fill="none" stroke="#191970" d="M129.2118,-187C138.8284,-187 148.0652,-187 155.8653,-187"/>
<polygon fill="#191970" stroke="#191970" points="129.0972,-183.5001 119.0972,-187 129.0971,-190.5001 129.0972,-183.5001"/>
</g>
<!-- Node17 -->
<g id="node17" class="node">
<title>Node17</title>
<g id="a_node17"><a xlink:href="structpkgCache_1_1Group.xhtml" target="_top" xlink:title="groups architecture depending packages together ">
<polygon fill="#ffffff" stroke="#000000" points="505,-181.5 505,-200.5 551,-200.5 551,-181.5 505,-181.5"/>
<text text-anchor="middle" x="528" y="-188.5" font-family="Helvetica,sans-Serif" font-size="10.00" fill="#000000">Group</text>
</a>
</g>
</g>
<!-- Node17&#45;&gt;Node5 -->
<g id="edge16" class="edge">
<title>Node17&#45;&gt;Node5</title>
<path fill="none" stroke="#9a32cd" stroke-dasharray="5,2" d="M561.4697,-184.1676C590.966,-180.2462 633.1544,-180.0825 659,-204 692.4655,-234.9689 646.3125,-271.2763 677,-305 686.1367,-315.0407 700.0688,-319.9606 712.9883,-322.3067"/>
<polygon fill="#9a32cd" stroke="#9a32cd" points="560.5812,-180.7631 551.2306,-185.7448 561.6469,-187.6815 560.5812,-180.7631"/>
<text text-anchor="middle" x="633" y="-207" font-family="Helvetica,sans-Serif" font-size="10.00" fill="#000000"> GrpP</text>
</g>
<!-- Node18 -->
<g id="node18" class="node">
<title>Node18</title>
<g id="a_node18"><a xlink:href="classpkgVersioningSystem.xhtml" target="_top" xlink:title="pkgVersioningSystem">
<polygon fill="#ffffff" stroke="#000000" points="467,-114.5 467,-133.5 589,-133.5 589,-114.5 467,-114.5"/>
<text text-anchor="middle" x="528" y="-121.5" font-family="Helvetica,sans-Serif" font-size="10.00" fill="#000000">pkgVersioningSystem</text>
</a>
</g>
</g>
<!-- Node18&#45;&gt;Node5 -->
<g id="edge17" class="edge">
<title>Node18&#45;&gt;Node5</title>
<path fill="none" stroke="#9a32cd" stroke-dasharray="5,2" d="M599.0529,-133.4227C621.3821,-139.8919 644.0767,-150.7612 659,-169 697.6105,-216.1886 636.9842,-258.9971 677,-305 685.9096,-315.2427 699.8098,-320.1911 712.7667,-322.5038"/>
<polygon fill="#9a32cd" stroke="#9a32cd" points="599.7516,-129.9875 589.1903,-130.8301 597.9719,-136.7575 599.7516,-129.9875"/>
<text text-anchor="middle" x="633" y="-172" font-family="Helvetica,sans-Serif" font-size="10.00" fill="#000000"> VS</text>
</g>
<!-- Node18&#45;&gt;Node18 -->
<g id="edge18" class="edge">
<title>Node18&#45;&gt;Node18</title>
<path fill="none" stroke="#9a32cd" stroke-dasharray="5,2" d="M508.7417,-143.4C510.0278,-148.3146 516.4473,-152 528,-152 546.4844,-152 551.8275,-142.5653 544.0294,-133.7571"/>
<polygon fill="#9a32cd" stroke="#9a32cd" points="512.1142,-144.3509 511.9706,-133.7571 505.4765,-142.1283 512.1142,-144.3509"/>
<text text-anchor="middle" x="528" y="-155" font-family="Helvetica,sans-Serif" font-size="10.00" fill="#000000"> GlobalList</text>
</g>
<!-- Node19 -->
<g id="node19" class="node">
<title>Node19</title>
<g id="a_node19"><a xlink:href="structpkgCache_1_1Version.xhtml" target="_top" xlink:title="information for a single version of a package ">
<polygon fill="#ffffff" stroke="#000000" points="501.5,-76.5 501.5,-95.5 554.5,-95.5 554.5,-76.5 501.5,-76.5"/>
<text text-anchor="middle" x="528" y="-83.5" font-family="Helvetica,sans-Serif" font-size="10.00" fill="#000000">Version</text>
</a>
</g>
</g>
<!-- Node19&#45;&gt;Node5 -->
<g id="edge19" class="edge">
<title>Node19&#45;&gt;Node5</title>
<path fill="none" stroke="#9a32cd" stroke-dasharray="5,2" d="M564.883,-85.4812C594.9888,-87.209 636.1564,-94.8971 659,-122 711.6696,-184.4902 624.4048,-242.4472 677,-305 685.816,-315.4851 699.8651,-320.4497 712.9518,-322.7099"/>
<polygon fill="#9a32cd" stroke="#9a32cd" points="564.8692,-81.9783 554.7437,-85.0966 564.6038,-88.9732 564.8692,-81.9783"/>
<text text-anchor="middle" x="633" y="-125" font-family="Helvetica,sans-Serif" font-size="10.00" fill="#000000"> VerP</text>
</g>
<!-- Node20 -->
<g id="node20" class="node">
<title>Node20</title>
<g id="a_node20"><a xlink:href="structpkgCache_1_1VerFile.xhtml" target="_top" xlink:title="associates a version with a PackageFile ">
<polygon fill="#ffffff" stroke="#000000" points="503.5,-38.5 503.5,-57.5 552.5,-57.5 552.5,-38.5 503.5,-38.5"/>
<text text-anchor="middle" x="528" y="-45.5" font-family="Helvetica,sans-Serif" font-size="10.00" fill="#000000">VerFile</text>
</a>
</g>
</g>
<!-- Node20&#45;&gt;Node5 -->
<g id="edge20" class="edge">
<title>Node20&#45;&gt;Node5</title>
<path fill="none" stroke="#9a32cd" stroke-dasharray="5,2" d="M562.7148,-45.5418C592.9562,-45.4845 635.5351,-50.8324 659,-78 692.0766,-116.2959 644.802,-265.9624 677,-305 685.7165,-315.568 699.7524,-320.5437 712.856,-322.7897"/>
<polygon fill="#9a32cd" stroke="#9a32cd" points="562.5062,-42.0454 552.5841,-45.7606 562.6574,-49.0438 562.5062,-42.0454"/>
<text text-anchor="middle" x="633" y="-81" font-family="Helvetica,sans-Serif" font-size="10.00" fill="#000000"> VerFileP</text>
</g>
<!-- Node21 -->
<g id="node21" class="node">
<title>Node21</title>
<g id="a_node21"><a xlink:href="structpkgCache_1_1Package.xhtml" target="_top" xlink:title="contains information for a single unique package ">
<polygon fill="#ffffff" stroke="#000000" points="499.5,-569.5 499.5,-588.5 556.5,-588.5 556.5,-569.5 499.5,-569.5"/>
<text text-anchor="middle" x="528" y="-576.5" font-family="Helvetica,sans-Serif" font-size="10.00" fill="#000000">Package</text>
</a>
</g>
</g>
<!-- Node21&#45;&gt;Node3 -->
<g id="edge25" class="edge">
<title>Node21&#45;&gt;Node3</title>
<path fill="none" stroke="#9a32cd" stroke-dasharray="5,2" d="M566.7003,-582.5309C593.3018,-583.69 629.0826,-582.7135 659,-573 787.6948,-531.2158 913.8936,-421.6629 957.4891,-381.2556"/>
<polygon fill="#9a32cd" stroke="#9a32cd" points="566.8059,-579.0315 556.6272,-581.9719 566.4179,-586.0207 566.8059,-579.0315"/>
<text text-anchor="middle" x="745.5" y="-568" font-family="Helvetica,sans-Serif" font-size="10.00" fill="#000000"> S</text>
</g>
<!-- Node21&#45;&gt;Node5 -->
<g id="edge21" class="edge">
<title>Node21&#45;&gt;Node5</title>
<path fill="none" stroke="#9a32cd" stroke-dasharray="5,2" d="M566.768,-571.7678C601.0013,-564.5447 647.2512,-552.4547 659,-538 710.8261,-474.2375 628.7399,-420.5024 677,-354 685.5403,-342.2315 699.7192,-335.0182 712.9682,-330.6269"/>
<polygon fill="#9a32cd" stroke="#9a32cd" points="565.6775,-568.4183 556.5812,-573.8504 567.0796,-575.2764 565.6775,-568.4183"/>
<text text-anchor="middle" x="633" y="-564" font-family="Helvetica,sans-Serif" font-size="10.00" fill="#000000"> PkgP</text>
</g>
<!-- Node22 -->
<g id="node22" class="node">
<title>Node22</title>
<g id="a_node22"><a xlink:href="classMMap.xhtml" target="_top" xlink:title="MMap">
<polygon fill="#ffffff" stroke="#000000" points="505.5,-.5 505.5,-19.5 550.5,-19.5 550.5,-.5 505.5,-.5"/>
<text text-anchor="middle" x="528" y="-7.5" font-family="Helvetica,sans-Serif" font-size="10.00" fill="#000000">MMap</text>
</a>
</g>
</g>
<!-- Node22&#45;&gt;Node5 -->
<g id="edge22" class="edge">
<title>Node22&#45;&gt;Node5</title>
<path fill="none" stroke="#9a32cd" stroke-dasharray="5,2" d="M560.8471,-6.3877C591.1514,-5.0697 634.9748,-8.6539 659,-36 698.5426,-81.0085 639.1643,-258.5474 677,-305 685.6512,-315.6215 699.6785,-320.6042 712.7932,-322.8412"/>
<polygon fill="#9a32cd" stroke="#9a32cd" points="560.5052,-2.9022 550.7465,-7.0274 560.9478,-9.8882 560.5052,-2.9022"/>
<text text-anchor="middle" x="633" y="-39" font-family="Helvetica,sans-Serif" font-size="10.00" fill="#000000"> Map</text>
</g>
<!-- Node23&#45;&gt;Node22 -->
<g id="edge23" class="edge">
<title>Node23&#45;&gt;Node22</title>
<path fill="none" stroke="#9a32cd" stroke-dasharray="5,2" d="M371.0775,-127.7948C389.0301,-102.114 425.1693,-55.4398 467,-29 478.6265,-21.6513 493.3016,-16.9639 505.3441,-14.0838"/>
<polygon fill="#9a32cd" stroke="#9a32cd" points="368.0649,-125.9997 365.3093,-136.2299 373.8431,-129.951 368.0649,-125.9997"/>
<text text-anchor="middle" x="424" y="-93" font-family="Helvetica,sans-Serif" font-size="10.00" fill="#000000"> SyncToFd</text>
</g>
<!-- Node24&#45;&gt;Node1 -->
<g id="edge26" class="edge">
<title>Node24&#45;&gt;Node1</title>
<path fill="none" stroke="#9a32cd" stroke-dasharray="5,2" d="M1025.6309,-292.2184C1075.9481,-298.2204 1150.5389,-307.118 1192.7709,-312.1556"/>
<polygon fill="#9a32cd" stroke="#9a32cd" points="1025.9396,-288.7305 1015.5954,-291.0213 1025.1105,-295.6812 1025.9396,-288.7305"/>
<text text-anchor="middle" x="1099.5" y="-309" font-family="Helvetica,sans-Serif" font-size="10.00" fill="#000000"> DepCache</text>
</g>
<!-- Node25 -->
<g id="node25" class="node">
<title>Node25</title>
<g id="a_node25"><a xlink:href="classpkgCache_1_1Namespace.xhtml" target="_top" xlink:title="Namespace">
<polygon fill="#ffffff" stroke="#000000" points="708.5,-276.5 708.5,-295.5 782.5,-295.5 782.5,-276.5 708.5,-276.5"/>
<text text-anchor="middle" x="745.5" y="-283.5" font-family="Helvetica,sans-Serif" font-size="10.00" fill="#000000">Namespace</text>
</a>
</g>
</g>
<!-- Node25&#45;&gt;Node24 -->
<g id="edge27" class="edge">
<title>Node25&#45;&gt;Node24</title>
<path fill="none" stroke="#006400" d="M792.8787,-286C833.709,-286 892.1048,-286 931.3397,-286"/>
<polygon fill="#006400" stroke="#006400" points="792.6396,-282.5001 782.6396,-286 792.6395,-289.5001 792.6396,-282.5001"/>
</g>
<!-- Node26 -->
<g id="node26" class="node">
<title>Node26</title>
<g id="a_node26"><a xlink:href="classpkgDepCache_1_1Policy.xhtml" target="_top" xlink:title="Policy">
<polygon fill="#ffffff" stroke="#000000" points="722.5,-238.5 722.5,-257.5 768.5,-257.5 768.5,-238.5 722.5,-238.5"/>
<text text-anchor="middle" x="745.5" y="-245.5" font-family="Helvetica,sans-Serif" font-size="10.00" fill="#000000">Policy</text>
</a>
</g>
</g>
<!-- Node26&#45;&gt;Node24 -->
<g id="edge28" class="edge">
<title>Node26&#45;&gt;Node24</title>
<path fill="none" stroke="#9a32cd" stroke-dasharray="5,2" d="M778.7119,-247.9424C810.6515,-248.496 860.121,-250.9577 902,-260 919.3006,-263.7354 938.0797,-270.684 952.0494,-276.4585"/>
<polygon fill="#9a32cd" stroke="#9a32cd" points="778.6298,-244.4413 768.5886,-247.8211 778.5459,-251.4408 778.6298,-244.4413"/>
<text text-anchor="middle" x="867" y="-274" font-family="Helvetica,sans-Serif" font-size="10.00" fill="#000000"> LocalPolicy</text>
<text text-anchor="middle" x="867" y="-263" font-family="Helvetica,sans-Serif" font-size="10.00" fill="#000000">delLocalPolicy</text>
</g>
<!-- Node27 -->
<g id="node27" class="node">
<title>Node27</title>
<g id="a_node27"><a xlink:href="structpkgDepCache_1_1StateCache.xhtml" target="_top" xlink:title="StateCache">
<polygon fill="#ffffff" stroke="#000000" points="709.5,-200.5 709.5,-219.5 781.5,-219.5 781.5,-200.5 709.5,-200.5"/>
<text text-anchor="middle" x="745.5" y="-207.5" font-family="Helvetica,sans-Serif" font-size="10.00" fill="#000000">StateCache</text>
</a>
</g>
</g>
<!-- Node27&#45;&gt;Node24 -->
<g id="edge30" class="edge">
<title>Node27&#45;&gt;Node24</title>
<path fill="none" stroke="#9a32cd" stroke-dasharray="5,2" d="M791.503,-212.2667C823.4854,-215.1169 866.5635,-221.5395 902,-236 925.8417,-245.7291 949.5486,-264.5857 962.7861,-276.157"/>
<polygon fill="#9a32cd" stroke="#9a32cd" points="791.7821,-208.778 781.5327,-211.4613 791.2184,-215.7553 791.7821,-208.778"/>
<text text-anchor="middle" x="867" y="-239" font-family="Helvetica,sans-Serif" font-size="10.00" fill="#000000"> PkgState</text>
</g>
</g>
</svg>
