<?xml version="1.0" encoding="UTF-8" standalone="no"?>
<!DOCTYPE svg PUBLIC "-//W3C//DTD SVG 1.1//EN"
 "http://www.w3.org/Graphics/SVG/1.1/DTD/svg11.dtd">
<!-- Generated by graphviz version 2.40.1 (20161225.0304)
 -->
<!-- Title: pkgAcquire::Item::Private::AlternateURI Pages: 1 -->
<svg width="221pt" height="252pt"
 viewBox="0.00 0.00 220.50 252.00" xmlns="http://www.w3.org/2000/svg" xmlns:xlink="http://www.w3.org/1999/xlink">
<g id="graph0" class="graph" transform="scale(1 1) rotate(0) translate(4 248)">
<title>pkgAcquire::Item::Private::AlternateURI</title>
<polygon fill="#ffffff" stroke="transparent" points="-4,4 -4,-248 216.5,-248 216.5,4 -4,4"/>
<!-- Node1 -->
<g id="node1" class="node">
<title>Node1</title>
<polygon fill="#bfbfbf" stroke="#000000" points="0,-.5 0,-30.5 140,-30.5 140,-.5 0,-.5"/>
<text text-anchor="start" x="8" y="-18.5" font-family="Helvetica,sans-Serif" font-size="10.00" fill="#000000">pkgAcquire::Item::Private</text>
<text text-anchor="middle" x="70" y="-7.5" font-family="Helvetica,sans-Serif" font-size="10.00" fill="#000000">::AlternateURI</text>
</g>
<!-- Node2 -->
<g id="node2" class="node">
<title>Node2</title>
<polygon fill="#ffffff" stroke="#bfbfbf" points="93.5,-78.5 93.5,-108.5 212.5,-108.5 212.5,-78.5 93.5,-78.5"/>
<text text-anchor="start" x="101.5" y="-96.5" font-family="Helvetica,sans-Serif" font-size="10.00" fill="#000000">unordered_map&lt; std</text>
<text text-anchor="middle" x="153" y="-85.5" font-family="Helvetica,sans-Serif" font-size="10.00" fill="#000000">::string, std::string &gt;</text>
</g>
<!-- Node2&#45;&gt;Node1 -->
<g id="edge1" class="edge">
<title>Node2&#45;&gt;Node1</title>
<path fill="none" stroke="#9a32cd" stroke-dasharray="5,2" d="M129.7,-71.6036C115.8471,-58.5853 98.6203,-42.3962 86.2373,-30.7592"/>
<polygon fill="#9a32cd" stroke="#9a32cd" points="127.3127,-74.1631 136.9968,-78.4608 132.1065,-69.0621 127.3127,-74.1631"/>
<text text-anchor="middle" x="148.5" y="-52" font-family="Helvetica,sans-Serif" font-size="10.00" fill="#000000"> changefields</text>
</g>
<!-- Node3 -->
<g id="node3" class="node">
<title>Node3</title>
<g id="a_node3"><a xlink:title="STL class. ">
<polygon fill="#ffffff" stroke="#bfbfbf" points="48,-167.5 48,-186.5 92,-186.5 92,-167.5 48,-167.5"/>
<text text-anchor="middle" x="70" y="-174.5" font-family="Helvetica,sans-Serif" font-size="10.00" fill="#000000">string</text>
</a>
</g>
</g>
<!-- Node3&#45;&gt;Node1 -->
<g id="edge4" class="edge">
<title>Node3&#45;&gt;Node1</title>
<path fill="none" stroke="#9a32cd" stroke-dasharray="5,2" d="M67.1565,-157.4416C64.5979,-137.4792 61.4594,-105.5964 63,-78 63.9068,-61.7567 66.1293,-43.2491 67.8288,-30.6155"/>
<polygon fill="#9a32cd" stroke="#9a32cd" points="63.702,-158.0134 68.5206,-167.449 70.6379,-157.0679 63.702,-158.0134"/>
<text text-anchor="middle" x="73.5" y="-91" font-family="Helvetica,sans-Serif" font-size="10.00" fill="#000000"> URI</text>
</g>
<!-- Node3&#45;&gt;Node2 -->
<g id="edge2" class="edge">
<title>Node3&#45;&gt;Node2</title>
<path fill="none" stroke="#9a32cd" stroke-dasharray="5,2" d="M86.6674,-160.2322C101.6712,-145.138 123.5242,-123.1534 137.9934,-108.597"/>
<polygon fill="#9a32cd" stroke="#9a32cd" points="84.0887,-157.8617 79.5212,-167.4215 89.0533,-162.7966 84.0887,-157.8617"/>
<text text-anchor="middle" x="141" y="-141" font-family="Helvetica,sans-Serif" font-size="10.00" fill="#000000"> keys</text>
<text text-anchor="middle" x="141" y="-130" font-family="Helvetica,sans-Serif" font-size="10.00" fill="#000000">elements</text>
</g>
<!-- Node4 -->
<g id="node4" class="node">
<title>Node4</title>
<g id="a_node4"><a xlink:title="STL class. ">
<polygon fill="#ffffff" stroke="#bfbfbf" points="10.5,-224.5 10.5,-243.5 129.5,-243.5 129.5,-224.5 10.5,-224.5"/>
<text text-anchor="middle" x="70" y="-231.5" font-family="Helvetica,sans-Serif" font-size="10.00" fill="#000000">basic_string&lt; char &gt;</text>
</a>
</g>
</g>
<!-- Node4&#45;&gt;Node3 -->
<g id="edge3" class="edge">
<title>Node4&#45;&gt;Node3</title>
<path fill="none" stroke="#191970" d="M70,-214.2342C70,-204.8491 70,-194.0651 70,-186.5265"/>
<polygon fill="#191970" stroke="#191970" points="66.5001,-214.3307 70,-224.3307 73.5001,-214.3308 66.5001,-214.3307"/>
</g>
</g>
</svg>
