<?xml version="1.0" encoding="UTF-8" standalone="no"?>
<!DOCTYPE svg PUBLIC "-//W3C//DTD SVG 1.1//EN"
 "http://www.w3.org/Graphics/SVG/1.1/DTD/svg11.dtd">
<!-- Generated by graphviz version 2.40.1 (20161225.0304)
 -->
<!-- Title: pkgAcquire::ItemDesc Pages: 1 -->
<!--zoomable 626 -->
<svg id="main" version="1.1" xmlns="http://www.w3.org/2000/svg" xmlns:xlink="http://www.w3.org/1999/xlink" xml:space="preserve" onload="init(evt)">
<style type="text/css"><![CDATA[
.edge:hover path { stroke: red; }
.edge:hover polygon { stroke: red; fill: red; }
]]></style>
<script type="text/javascript"><![CDATA[
var edges = document.getElementsByTagName('g');
if (edges && edges.length) {
  for (var i=0;i<edges.length;i++) {
    if (edges[i].id.substr(0,4)=='edge') {
      edges[i].setAttribute('class','edge');
    }
  }
}
]]></script>
        <defs>
                <circle id="rim" cx="0" cy="0" r="7"/>
                <circle id="rim2" cx="0" cy="0" r="3.5"/>
                <g id="zoomPlus">
                        <use xlink:href="#rim" fill="#404040">
                                <set attributeName="fill" to="#808080" begin="zoomplus.mouseover" end="zoomplus.mouseout"/>
                        </use>
                        <path d="M-4,0h8M0,-4v8" fill="none" stroke="white" stroke-width="1.5" pointer-events="none"/>
                </g>
                <g id="zoomMin">
                        <use xlink:href="#rim" fill="#404040">
                                <set attributeName="fill" to="#808080" begin="zoomminus.mouseover" end="zoomminus.mouseout"/>
                        </use>
                        <path d="M-4,0h8" fill="none" stroke="white" stroke-width="1.5" pointer-events="none"/>
                </g>
                <g id="dirArrow">
                        <path fill="none" stroke="white" stroke-width="1.5" d="M0,-3.0v7 M-2.5,-0.5L0,-3.0L2.5,-0.5"/>
                </g>
               <g id="resetDef">
                       <use xlink:href="#rim2" fill="#404040">
                               <set attributeName="fill" to="#808080" begin="reset.mouseover" end="reset.mouseout"/>
                       </use>
               </g>
        </defs>

<script type="text/javascript">
var viewWidth = 775;
var viewHeight = 626;
var sectionId = 'dynsection-1';
</script>
<script xlink:href="svgpan.js"/>
<svg id="graph" class="graph">
<g id="viewport">
<title>pkgAcquire::ItemDesc</title>
<polygon fill="#ffffff" stroke="transparent" points="-4,4 -4,-622 771,-622 771,4 -4,4"/>
<!-- Node3 -->
<g id="node1" class="node">
<title>Node3</title>
<polygon fill="#bfbfbf" stroke="#000000" points="53,-440.5 53,-459.5 177,-459.5 177,-440.5 53,-440.5"/>
<text text-anchor="middle" x="115" y="-447.5" font-family="Helvetica,sans-Serif" font-size="10.00" fill="#000000">pkgAcquire::ItemDesc</text>
</g>
<!-- Node7 -->
<g id="node5" class="node">
<title>Node7</title>
<g id="a_node5"><a xlink:href="classpkgAcquire_1_1Item.xhtml" target="_top" xlink:title="Represents the process by which a pkgAcquire object should retrieve a file or a collection of files...">
<polygon fill="#ffffff" stroke="#000000" points="101.5,-350.5 101.5,-369.5 140.5,-369.5 140.5,-350.5 101.5,-350.5"/>
<text text-anchor="middle" x="121" y="-357.5" font-family="Helvetica,sans-Serif" font-size="10.00" fill="#000000">Item</text>
</a>
</g>
</g>
<!-- Node3&#45;&gt;Node7 -->
<g id="edge35" class="edge">
<title>Node3&#45;&gt;Node7</title>
<path fill="none" stroke="#9a32cd" stroke-dasharray="5,2" d="M100.9687,-432.0308C93.0184,-419.5601 85.7906,-402.6265 92,-388 95.1177,-380.6561 101.2095,-374.3004 107.0083,-369.509"/>
<polygon fill="#9a32cd" stroke="#9a32cd" points="98.1025,-434.0395 106.7037,-440.2258 103.8377,-430.026 98.1025,-434.0395"/>
<text text-anchor="middle" x="106" y="-396.5" font-family="Helvetica,sans-Serif" font-size="10.00" fill="#000000"> Desc</text>
</g>
<!-- Node11 -->
<g id="node9" class="node">
<title>Node11</title>
<g id="a_node9"><a xlink:href="structpkgAcquire_1_1Queue_1_1QItem.xhtml" target="_top" xlink:title="A single item placed in this queue. ">
<polygon fill="#ffffff" stroke="#000000" points="260.5,-.5 260.5,-19.5 307.5,-19.5 307.5,-.5 260.5,-.5"/>
<text text-anchor="middle" x="284" y="-7.5" font-family="Helvetica,sans-Serif" font-size="10.00" fill="#000000">QItem</text>
</a>
</g>
</g>
<!-- Node3&#45;&gt;Node11 -->
<g id="edge12" class="edge">
<title>Node3&#45;&gt;Node11</title>
<path fill="none" stroke="#191970" d="M73.7755,-436.7081C40.783,-423.1843 0,-398.6503 0,-360 0,-360 0,-360 0,-78 0,-24.6391 192.0183,-13.0557 260.2748,-10.6237"/>
<polygon fill="#191970" stroke="#191970" points="72.6825,-440.0382 83.2713,-440.3941 75.2156,-433.5126 72.6825,-440.0382"/>
</g>
<!-- Node4 -->
<g id="node2" class="node">
<title>Node4</title>
<g id="a_node2"><a xlink:href="classWeakPointable.xhtml" target="_top" xlink:title="WeakPointable">
<polygon fill="#ffffff" stroke="#000000" points="70.5,-541.5 70.5,-560.5 159.5,-560.5 159.5,-541.5 70.5,-541.5"/>
<text text-anchor="middle" x="115" y="-548.5" font-family="Helvetica,sans-Serif" font-size="10.00" fill="#000000">WeakPointable</text>
</a>
</g>
</g>
<!-- Node4&#45;&gt;Node3 -->
<g id="edge1" class="edge">
<title>Node4&#45;&gt;Node3</title>
<path fill="none" stroke="#191970" d="M115,-531.2744C115,-509.6522 115,-475.8644 115,-459.5075"/>
<polygon fill="#191970" stroke="#191970" points="111.5001,-531.3157 115,-541.3157 118.5001,-531.3157 111.5001,-531.3157"/>
</g>
<!-- Node4&#45;&gt;Node7 -->
<g id="edge5" class="edge">
<title>Node4&#45;&gt;Node7</title>
<path fill="none" stroke="#191970" d="M93.7879,-534.9798C76.6932,-520.6294 53.9265,-497.8952 44,-472 37.0003,-453.7401 36.2967,-445.9744 44,-428 55.5217,-401.116 83.8821,-380.7699 102.778,-369.6182"/>
<polygon fill="#191970" stroke="#191970" points="91.6656,-537.7646 101.6432,-541.3281 96.0655,-532.3203 91.6656,-537.7646"/>
</g>
<!-- Node12 -->
<g id="node10" class="node">
<title>Node12</title>
<g id="a_node10"><a xlink:href="classpkgAcquire_1_1Worker.xhtml" target="_top" xlink:title="A fetch subprocess. ">
<polygon fill="#ffffff" stroke="#000000" points="319.5,-68.5 319.5,-87.5 370.5,-87.5 370.5,-68.5 319.5,-68.5"/>
<text text-anchor="middle" x="345" y="-75.5" font-family="Helvetica,sans-Serif" font-size="10.00" fill="#000000">Worker</text>
</a>
</g>
</g>
<!-- Node4&#45;&gt;Node12 -->
<g id="edge16" class="edge">
<title>Node4&#45;&gt;Node12</title>
<path fill="none" stroke="#191970" d="M134.5701,-534.3835C150.7288,-519.6086 173.0404,-496.5884 186,-472 222.0373,-403.6257 214.7689,-379.316 227,-303 234.0558,-258.9754 225.336,-246.5265 235,-203 241.8889,-171.9723 247.5222,-165.2314 260,-136 265.6188,-122.8369 263.571,-116.8018 274,-107 286.6131,-95.1455 304.725,-87.8524 319.4984,-83.545"/>
<polygon fill="#191970" stroke="#191970" points="131.9121,-532.0633 126.7632,-541.3228 136.5626,-537.2952 131.9121,-532.0633"/>
</g>
<!-- Node5 -->
<g id="node3" class="node">
<title>Node5</title>
<g id="a_node3"><a xlink:title="STL class. ">
<polygon fill="#ffffff" stroke="#bfbfbf" points="415,-541.5 415,-560.5 459,-560.5 459,-541.5 415,-541.5"/>
<text text-anchor="middle" x="437" y="-548.5" font-family="Helvetica,sans-Serif" font-size="10.00" fill="#000000">string</text>
</a>
</g>
</g>
<!-- Node5&#45;&gt;Node3 -->
<g id="edge2" class="edge">
<title>Node5&#45;&gt;Node3</title>
<path fill="none" stroke="#9a32cd" stroke-dasharray="5,2" d="M404.8509,-549.2027C350.4728,-545.8099 242.8521,-537.4722 208,-523 172.3619,-508.2014 138.9117,-475.7689 123.6559,-459.5832"/>
<polygon fill="#9a32cd" stroke="#9a32cd" points="404.7861,-552.7051 414.9793,-549.8157 405.209,-545.7179 404.7861,-552.7051"/>
<text text-anchor="middle" x="237.5" y="-515" font-family="Helvetica,sans-Serif" font-size="10.00" fill="#000000"> Description</text>
<text text-anchor="middle" x="237.5" y="-504" font-family="Helvetica,sans-Serif" font-size="10.00" fill="#000000">URI</text>
<text text-anchor="middle" x="237.5" y="-493" font-family="Helvetica,sans-Serif" font-size="10.00" fill="#000000">ShortDesc</text>
</g>
<!-- Node5&#45;&gt;Node7 -->
<g id="edge34" class="edge">
<title>Node5&#45;&gt;Node7</title>
<path fill="none" stroke="#9a32cd" stroke-dasharray="5,2" d="M405.3693,-541.7207C389.9181,-536.8066 371.2087,-530.2831 355,-523 313.0632,-504.1564 302.8242,-498.1363 265,-472 216.9669,-438.8094 210.9874,-422.655 164,-388 155.2533,-381.549 145.0775,-374.8874 136.8212,-369.6812"/>
<polygon fill="#9a32cd" stroke="#9a32cd" points="404.4054,-545.0862 414.9935,-544.7095 406.4815,-538.4011 404.4054,-545.0862"/>
<text text-anchor="middle" x="310" y="-464" font-family="Helvetica,sans-Serif" font-size="10.00" fill="#000000"> ActiveSubprocess</text>
<text text-anchor="middle" x="310" y="-453" font-family="Helvetica,sans-Serif" font-size="10.00" fill="#000000">DestFile</text>
<text text-anchor="middle" x="310" y="-442" font-family="Helvetica,sans-Serif" font-size="10.00" fill="#000000">ErrorText</text>
<text text-anchor="middle" x="310" y="-431" font-family="Helvetica,sans-Serif" font-size="10.00" fill="#000000">UsedMirror</text>
</g>
<!-- Node8 -->
<g id="node6" class="node">
<title>Node8</title>
<g id="a_node6"><a xlink:href="classpkgAcquire.xhtml" target="_top" xlink:title="The core download scheduler. {{{. ">
<polygon fill="#ffffff" stroke="#000000" points="243.5,-203.5 243.5,-222.5 314.5,-222.5 314.5,-203.5 243.5,-203.5"/>
<text text-anchor="middle" x="279" y="-210.5" font-family="Helvetica,sans-Serif" font-size="10.00" fill="#000000">pkgAcquire</text>
</a>
</g>
</g>
<!-- Node5&#45;&gt;Node8 -->
<g id="edge31" class="edge">
<title>Node5&#45;&gt;Node8</title>
<path fill="none" stroke="#9a32cd" stroke-dasharray="5,2" d="M424.1706,-532.7364C396.8039,-492.9238 332.3974,-394.5354 298,-303 287.4391,-274.8963 282.1427,-239.5323 280.0741,-222.7281"/>
<polygon fill="#9a32cd" stroke="#9a32cd" points="421.4292,-534.9253 430.0037,-541.1485 427.1815,-530.9364 421.4292,-534.9253"/>
<text text-anchor="middle" x="339" y="-357.5" font-family="Helvetica,sans-Serif" font-size="10.00" fill="#000000"> Lock</text>
</g>
<!-- Node10 -->
<g id="node8" class="node">
<title>Node10</title>
<g id="a_node8"><a xlink:href="classpkgAcquire_1_1Queue.xhtml" target="_top" xlink:title="A single download queue in a pkgAcquire object. {{{. ">
<polygon fill="#ffffff" stroke="#000000" points="320,-136.5 320,-155.5 368,-155.5 368,-136.5 320,-136.5"/>
<text text-anchor="middle" x="344" y="-143.5" font-family="Helvetica,sans-Serif" font-size="10.00" fill="#000000">Queue</text>
</a>
</g>
</g>
<!-- Node5&#45;&gt;Node10 -->
<g id="edge28" class="edge">
<title>Node5&#45;&gt;Node10</title>
<path fill="none" stroke="#9a32cd" stroke-dasharray="5,2" d="M437,-531.0354C437,-510.6611 437,-478.1275 437,-450 437,-450 437,-450 437,-213 437,-179.1709 395.989,-160.7254 368.4347,-152.1502"/>
<polygon fill="#9a32cd" stroke="#9a32cd" points="433.5001,-531.25 437,-541.25 440.5001,-531.25 433.5001,-531.25"/>
<text text-anchor="middle" x="453.5" y="-324" font-family="Helvetica,sans-Serif" font-size="10.00" fill="#000000"> Name</text>
</g>
<!-- Node5&#45;&gt;Node12 -->
<g id="edge23" class="edge">
<title>Node5&#45;&gt;Node12</title>
<path fill="none" stroke="#9a32cd" stroke-dasharray="5,2" d="M469.4338,-548.0993C500.3863,-544.6038 547.9527,-537.3164 587,-523 648.4878,-500.4559 715,-515.4904 715,-450 715,-450 715,-450 715,-146 715,-73.6702 628.0422,-120.5872 557,-107 490.2288,-94.2296 410.5872,-84.8979 370.5961,-80.6142"/>
<polygon fill="#9a32cd" stroke="#9a32cd" points="468.7945,-544.6473 459.2196,-549.1828 469.533,-551.6083 468.7945,-544.6473"/>
<text text-anchor="middle" x="741" y="-295" font-family="Helvetica,sans-Serif" font-size="10.00" fill="#000000"> OutQueue</text>
<text text-anchor="middle" x="741" y="-284" font-family="Helvetica,sans-Serif" font-size="10.00" fill="#000000">Access</text>
<text text-anchor="middle" x="741" y="-273" font-family="Helvetica,sans-Serif" font-size="10.00" fill="#000000">Status</text>
</g>
<!-- Node13 -->
<g id="node11" class="node">
<title>Node13</title>
<g id="a_node11"><a xlink:href="structpkgAcquire_1_1MethodConfig.xhtml" target="_top" xlink:title="Information about the properties of a single acquire method. {{{. ">
<polygon fill="#ffffff" stroke="#000000" points="465.5,-277 465.5,-296 548.5,-296 548.5,-277 465.5,-277"/>
<text text-anchor="middle" x="507" y="-284" font-family="Helvetica,sans-Serif" font-size="10.00" fill="#000000">MethodConfig</text>
</a>
</g>
</g>
<!-- Node5&#45;&gt;Node13 -->
<g id="edge20" class="edge">
<title>Node5&#45;&gt;Node13</title>
<path fill="none" stroke="#9a32cd" stroke-dasharray="5,2" d="M447.0929,-532.2934C448.525,-529.2385 449.8866,-526.0686 451,-523 481.9429,-437.7224 500.4103,-328.8722 505.532,-296.1935"/>
<polygon fill="#9a32cd" stroke="#9a32cd" points="443.8792,-530.8929 442.4946,-541.3969 450.1274,-534.049 443.8792,-530.8929"/>
<text text-anchor="middle" x="506.5" y="-402" font-family="Helvetica,sans-Serif" font-size="10.00" fill="#000000"> Access</text>
<text text-anchor="middle" x="506.5" y="-391" font-family="Helvetica,sans-Serif" font-size="10.00" fill="#000000">Version</text>
</g>
<!-- Node16 -->
<g id="node14" class="node">
<title>Node16</title>
<polygon fill="#ffffff" stroke="#bfbfbf" points="544.5,-389.5 544.5,-408.5 663.5,-408.5 663.5,-389.5 544.5,-389.5"/>
<text text-anchor="middle" x="604" y="-396.5" font-family="Helvetica,sans-Serif" font-size="10.00" fill="#000000">vector&lt; std::string &gt;</text>
</g>
<!-- Node5&#45;&gt;Node16 -->
<g id="edge26" class="edge">
<title>Node5&#45;&gt;Node16</title>
<path fill="none" stroke="#9a32cd" stroke-dasharray="5,2" d="M468.6975,-539.8933C478.9105,-535.5001 489.9249,-529.8445 499,-523 544.4938,-488.6884 583.5677,-431.32 598.0279,-408.6443"/>
<polygon fill="#9a32cd" stroke="#9a32cd" points="467.2002,-536.7233 459.2408,-543.7161 469.8237,-543.2131 467.2002,-536.7233"/>
<text text-anchor="middle" x="558.5" y="-504" font-family="Helvetica,sans-Serif" font-size="10.00" fill="#000000"> elements</text>
</g>
<!-- Node6 -->
<g id="node4" class="node">
<title>Node6</title>
<g id="a_node4"><a xlink:title="STL class. ">
<polygon fill="#ffffff" stroke="#bfbfbf" points="377.5,-598.5 377.5,-617.5 496.5,-617.5 496.5,-598.5 377.5,-598.5"/>
<text text-anchor="middle" x="437" y="-605.5" font-family="Helvetica,sans-Serif" font-size="10.00" fill="#000000">basic_string&lt; char &gt;</text>
</a>
</g>
</g>
<!-- Node6&#45;&gt;Node5 -->
<g id="edge3" class="edge">
<title>Node6&#45;&gt;Node5</title>
<path fill="none" stroke="#191970" d="M437,-588.2342C437,-578.8491 437,-568.0651 437,-560.5265"/>
<polygon fill="#191970" stroke="#191970" points="433.5001,-588.3307 437,-598.3307 440.5001,-588.3308 433.5001,-588.3307"/>
</g>
<!-- Node7&#45;&gt;Node3 -->
<g id="edge4" class="edge">
<title>Node7&#45;&gt;Node3</title>
<path fill="none" stroke="#9a32cd" stroke-dasharray="5,2" d="M123.3771,-379.6933C123.6353,-382.4783 123.8562,-385.3088 124,-388 124.5216,-397.7639 125.0798,-400.282 124,-410 122.8366,-420.4703 120.0104,-432.2034 117.8327,-440.2398"/>
<polygon fill="#9a32cd" stroke="#9a32cd" points="126.8371,-379.1345 122.2809,-369.5693 119.8778,-379.888 126.8371,-379.1345"/>
<text text-anchor="middle" x="142.5" y="-396.5" font-family="Helvetica,sans-Serif" font-size="10.00" fill="#000000"> Owner</text>
</g>
<!-- Node9 -->
<g id="node7" class="node">
<title>Node9</title>
<polygon fill="#ffffff" stroke="#bfbfbf" points="28.5,-271.5 28.5,-301.5 141.5,-301.5 141.5,-271.5 28.5,-271.5"/>
<text text-anchor="start" x="36.5" y="-289.5" font-family="Helvetica,sans-Serif" font-size="10.00" fill="#000000">vector&lt; pkgAcquire</text>
<text text-anchor="middle" x="85" y="-278.5" font-family="Helvetica,sans-Serif" font-size="10.00" fill="#000000">::Item *&gt;</text>
</g>
<!-- Node7&#45;&gt;Node9 -->
<g id="edge8" class="edge">
<title>Node7&#45;&gt;Node9</title>
<path fill="none" stroke="#9a32cd" stroke-dasharray="5,2" d="M111.7476,-341.1097C105.7582,-328.8813 98.0615,-313.1672 92.4633,-301.7376"/>
<polygon fill="#9a32cd" stroke="#9a32cd" points="108.7517,-342.9501 116.2936,-350.3912 115.0381,-339.871 108.7517,-342.9501"/>
<text text-anchor="middle" x="132.5" y="-324" font-family="Helvetica,sans-Serif" font-size="10.00" fill="#000000"> elements</text>
</g>
<!-- Node8&#45;&gt;Node7 -->
<g id="edge6" class="edge">
<title>Node8&#45;&gt;Node7</title>
<path fill="none" stroke="#9a32cd" stroke-dasharray="5,2" d="M263.8462,-230.1116C242.1876,-254.1276 200.607,-298.6278 161,-332 153.0914,-338.6636 143.6362,-345.3351 135.9047,-350.4936"/>
<polygon fill="#9a32cd" stroke="#9a32cd" points="266.5777,-232.3078 270.6404,-222.5229 261.3625,-227.6386 266.5777,-232.3078"/>
<text text-anchor="middle" x="242.5" y="-284" font-family="Helvetica,sans-Serif" font-size="10.00" fill="#000000"> Owner</text>
</g>
<!-- Node8&#45;&gt;Node10 -->
<g id="edge10" class="edge">
<title>Node8&#45;&gt;Node10</title>
<path fill="none" stroke="#9a32cd" stroke-dasharray="5,2" d="M305.5637,-197.9324C311.0343,-194.132 316.4937,-189.762 321,-185 329.2124,-176.3217 335.781,-164.1998 339.7626,-155.7831"/>
<polygon fill="#9a32cd" stroke="#9a32cd" points="303.5898,-195.0408 297.0933,-203.4102 307.3911,-200.9188 303.5898,-195.0408"/>
<text text-anchor="middle" x="346.5" y="-177" font-family="Helvetica,sans-Serif" font-size="10.00" fill="#000000"> Owner</text>
</g>
<!-- Node9&#45;&gt;Node8 -->
<g id="edge7" class="edge">
<title>Node9&#45;&gt;Node8</title>
<path fill="none" stroke="#9a32cd" stroke-dasharray="5,2" d="M122.303,-266.8106C139.5601,-258.1787 160.5135,-248.3603 180,-241 200.5527,-233.237 224.2097,-226.4699 243.2434,-221.5339"/>
<polygon fill="#9a32cd" stroke="#9a32cd" points="120.4659,-263.8177 113.1288,-271.4608 123.6308,-270.0614 120.4659,-263.8177"/>
<text text-anchor="middle" x="195.5" y="-244" font-family="Helvetica,sans-Serif" font-size="10.00" fill="#000000"> Items</text>
</g>
<!-- Node9&#45;&gt;Node11 -->
<g id="edge13" class="edge">
<title>Node9&#45;&gt;Node11</title>
<path fill="none" stroke="#9a32cd" stroke-dasharray="5,2" d="M89.6104,-261.3884C91.823,-247.2297 94,-229.1862 94,-213 94,-213 94,-213 94,-78 94,-43.0525 209.3877,-21.2773 260.3205,-13.3679"/>
<polygon fill="#9a32cd" stroke="#9a32cd" points="86.1396,-260.9237 87.9469,-271.3633 93.0443,-262.0752 86.1396,-260.9237"/>
<text text-anchor="middle" x="114" y="-143.5" font-family="Helvetica,sans-Serif" font-size="10.00" fill="#000000"> Owners</text>
</g>
<!-- Node10&#45;&gt;Node8 -->
<g id="edge9" class="edge">
<title>Node10&#45;&gt;Node8</title>
<path fill="none" stroke="#9a32cd" stroke-dasharray="5,2" d="M310.3146,-153.3659C299.1663,-157.5346 287.8665,-164.0041 281,-174 275.0883,-182.6059 275.5653,-194.9711 276.884,-203.4583"/>
<polygon fill="#9a32cd" stroke="#9a32cd" points="311.5095,-156.6582 319.9572,-150.264 309.3658,-149.9945 311.5095,-156.6582"/>
<text text-anchor="middle" x="301" y="-177" font-family="Helvetica,sans-Serif" font-size="10.00" fill="#000000"> Queues</text>
</g>
<!-- Node10&#45;&gt;Node12 -->
<g id="edge17" class="edge">
<title>Node10&#45;&gt;Node12</title>
<path fill="none" stroke="#9a32cd" stroke-dasharray="5,2" d="M344.2912,-126.1951C344.4772,-113.5514 344.7101,-97.7157 344.857,-87.7247"/>
<polygon fill="#9a32cd" stroke="#9a32cd" points="340.7908,-126.2068 344.1433,-136.2573 347.79,-126.3098 340.7908,-126.2068"/>
<text text-anchor="middle" x="365.5" y="-110" font-family="Helvetica,sans-Serif" font-size="10.00" fill="#000000"> OwnerQ</text>
</g>
<!-- Node11&#45;&gt;Node10 -->
<g id="edge11" class="edge">
<title>Node11&#45;&gt;Node10</title>
<path fill="none" stroke="#9a32cd" stroke-dasharray="5,2" d="M317.4525,-15.769C363.7805,-24.5582 443.5379,-42.861 459,-67 483.7581,-105.6518 408.8487,-130.3686 368.2603,-140.6016"/>
<polygon fill="#9a32cd" stroke="#9a32cd" points="318.0267,-12.3159 307.557,-13.9396 316.7541,-19.1993 318.0267,-12.3159"/>
<text text-anchor="middle" x="478.5" y="-75.5" font-family="Helvetica,sans-Serif" font-size="10.00" fill="#000000"> Items</text>
</g>
<!-- Node11&#45;&gt;Node11 -->
<g id="edge14" class="edge">
<title>Node11&#45;&gt;Node11</title>
<path fill="none" stroke="#9a32cd" stroke-dasharray="5,2" d="M318.0148,-15.294C322.5146,-14.3926 325.5,-12.6279 325.5,-10 325.5,-5.6875 317.4604,-3.6997 307.8819,-4.0366"/>
<polygon fill="#9a32cd" stroke="#9a32cd" points="317.6295,-11.8118 307.8819,-15.9634 318.0909,-18.7965 317.6295,-11.8118"/>
<text text-anchor="middle" x="339" y="-7.5" font-family="Helvetica,sans-Serif" font-size="10.00" fill="#000000"> Next</text>
</g>
<!-- Node11&#45;&gt;Node12 -->
<g id="edge22" class="edge">
<title>Node11&#45;&gt;Node12</title>
<path fill="none" stroke="#9a32cd" stroke-dasharray="5,2" d="M309.0995,-25.4845C314.0527,-29.2111 318.9611,-33.4456 323,-38 331.0982,-47.1317 337.4145,-59.7519 341.1623,-68.359"/>
<polygon fill="#9a32cd" stroke="#9a32cd" points="311.0675,-22.5898 300.8671,-19.7256 307.055,-28.3257 311.0675,-22.5898"/>
<text text-anchor="middle" x="361" y="-41" font-family="Helvetica,sans-Serif" font-size="10.00" fill="#000000"> CurrentItem</text>
</g>
<!-- Node12&#45;&gt;Node8 -->
<g id="edge33" class="edge">
<title>Node12&#45;&gt;Node8</title>
<path fill="none" stroke="#9a32cd" stroke-dasharray="5,2" d="M310.8496,-92.3375C293.616,-101.7891 274.9226,-116.131 268,-136 259.9138,-159.2085 268.8849,-188.3357 274.747,-203.2356"/>
<polygon fill="#9a32cd" stroke="#9a32cd" points="312.8638,-95.2397 320.1896,-87.5857 309.6897,-89.0007 312.8638,-95.2397"/>
<text text-anchor="middle" x="289.5" y="-143.5" font-family="Helvetica,sans-Serif" font-size="10.00" fill="#000000"> Workers</text>
</g>
<!-- Node12&#45;&gt;Node10 -->
<g id="edge29" class="edge">
<title>Node12&#45;&gt;Node10</title>
<path fill="none" stroke="#9a32cd" stroke-dasharray="5,2" d="M310.5265,-92.6887C305.1061,-96.5415 300.2337,-101.2682 297,-107 289.6018,-120.1134 304.8718,-130.6786 319.9388,-137.4877"/>
<polygon fill="#9a32cd" stroke="#9a32cd" points="312.6096,-95.5185 319.3384,-87.3347 308.9748,-89.5361 312.6096,-95.5185"/>
<text text-anchor="middle" x="318.5" y="-110" font-family="Helvetica,sans-Serif" font-size="10.00" fill="#000000"> Workers</text>
</g>
<!-- Node12&#45;&gt;Node11 -->
<g id="edge15" class="edge">
<title>Node12&#45;&gt;Node11</title>
<path fill="none" stroke="#9a32cd" stroke-dasharray="5,2" d="M310.1643,-68.726C300.3913,-64.3684 290.8476,-58.0611 285,-49 279.4176,-40.3499 280.1118,-28.2227 281.5971,-19.7971"/>
<polygon fill="#9a32cd" stroke="#9a32cd" points="308.9021,-71.9904 319.4914,-72.3328 311.4268,-65.4616 308.9021,-71.9904"/>
<text text-anchor="middle" x="304" y="-41" font-family="Helvetica,sans-Serif" font-size="10.00" fill="#000000"> Worker</text>
</g>
<!-- Node12&#45;&gt;Node12 -->
<g id="edge27" class="edge">
<title>Node12&#45;&gt;Node12</title>
<path fill="none" stroke="#9a32cd" stroke-dasharray="5,2" d="M381.0602,-83.5393C385.5495,-82.5577 388.5,-80.7112 388.5,-78 388.5,-73.5508 380.5544,-71.4305 370.9017,-71.639"/>
<polygon fill="#9a32cd" stroke="#9a32cd" points="380.5869,-80.0661 370.9017,-84.361 381.1514,-87.0433 380.5869,-80.0661"/>
<text text-anchor="middle" x="419" y="-81" font-family="Helvetica,sans-Serif" font-size="10.00" fill="#000000"> NextQueue</text>
<text text-anchor="middle" x="419" y="-70" font-family="Helvetica,sans-Serif" font-size="10.00" fill="#000000">NextAcquire</text>
</g>
<!-- Node13&#45;&gt;Node8 -->
<g id="edge30" class="edge">
<title>Node13&#45;&gt;Node8</title>
<path fill="none" stroke="#9a32cd" stroke-dasharray="5,2" d="M467.4488,-273.7499C422.2931,-259.1932 349.4419,-235.7082 308.8143,-222.6112"/>
<polygon fill="#9a32cd" stroke="#9a32cd" points="466.6014,-277.1541 477.193,-276.8912 468.7492,-270.4917 466.6014,-277.1541"/>
<text text-anchor="middle" x="419" y="-244" font-family="Helvetica,sans-Serif" font-size="10.00" fill="#000000"> Configs</text>
</g>
<!-- Node13&#45;&gt;Node12 -->
<g id="edge18" class="edge">
<title>Node13&#45;&gt;Node12</title>
<path fill="none" stroke="#9a32cd" stroke-dasharray="5,2" d="M500.8748,-266.9322C488.5176,-230.492 457.2377,-151.8711 405,-107 394.995,-98.4059 382.0025,-91.7151 370.6673,-86.9368"/>
<polygon fill="#9a32cd" stroke="#9a32cd" points="497.6683,-268.3872 504.1046,-276.8029 504.3212,-266.2103 497.6683,-268.3872"/>
<text text-anchor="middle" x="481" y="-177" font-family="Helvetica,sans-Serif" font-size="10.00" fill="#000000"> Config</text>
</g>
<!-- Node13&#45;&gt;Node13 -->
<g id="edge19" class="edge">
<title>Node13&#45;&gt;Node13</title>
<path fill="none" stroke="#9a32cd" stroke-dasharray="5,2" d="M558.819,-292.4601C563.5342,-291.2211 566.5,-289.2344 566.5,-286.5 566.5,-282.125 558.9076,-279.6641 548.7052,-279.1172"/>
<polygon fill="#9a32cd" stroke="#9a32cd" points="558.1201,-289.0239 548.7052,-293.8828 559.0953,-295.9556 558.1201,-289.0239"/>
<text text-anchor="middle" x="580" y="-284" font-family="Helvetica,sans-Serif" font-size="10.00" fill="#000000"> Next</text>
</g>
<!-- Node14 -->
<g id="node12" class="node">
<title>Node14</title>
<g id="a_node12"><a xlink:href="classpkgAcquire_1_1MethodConfig_1_1Private.xhtml" target="_top" xlink:title="Private">
<polygon fill="#ffffff" stroke="#000000" points="513.5,-350.5 513.5,-369.5 564.5,-369.5 564.5,-350.5 513.5,-350.5"/>
<text text-anchor="middle" x="539" y="-357.5" font-family="Helvetica,sans-Serif" font-size="10.00" fill="#000000">Private</text>
</a>
</g>
</g>
<!-- Node14&#45;&gt;Node13 -->
<g id="edge21" class="edge">
<title>Node14&#45;&gt;Node13</title>
<path fill="none" stroke="#9a32cd" stroke-dasharray="5,2" d="M530.7274,-340.9988C524.5088,-326.7156 516.2408,-307.7249 511.2866,-296.3458"/>
<polygon fill="#9a32cd" stroke="#9a32cd" points="527.6156,-342.6196 534.8166,-350.3912 534.0337,-339.8253 527.6156,-342.6196"/>
<text text-anchor="middle" x="531" y="-324" font-family="Helvetica,sans-Serif" font-size="10.00" fill="#000000"> d</text>
</g>
<!-- Node15 -->
<g id="node13" class="node">
<title>Node15</title>
<g id="a_node13"><a xlink:href="classpkgAcquireStatus.xhtml" target="_top" xlink:title="A monitor object for downloads controlled by the pkgAcquire class. {{{. ">
<polygon fill="#ffffff" stroke="#000000" points="307,-277 307,-296 409,-296 409,-277 307,-277"/>
<text text-anchor="middle" x="358" y="-284" font-family="Helvetica,sans-Serif" font-size="10.00" fill="#000000">pkgAcquireStatus</text>
</a>
</g>
</g>
<!-- Node15&#45;&gt;Node8 -->
<g id="edge32" class="edge">
<title>Node15&#45;&gt;Node8</title>
<path fill="none" stroke="#9a32cd" stroke-dasharray="5,2" d="M336.2892,-270.6808C328.9812,-265.0452 320.9286,-258.483 314,-252 304.0354,-242.6763 293.7318,-230.8892 286.9075,-222.7266"/>
<polygon fill="#9a32cd" stroke="#9a32cd" points="334.3233,-273.582 344.4142,-276.8108 338.5393,-267.994 334.3233,-273.582"/>
<text text-anchor="middle" x="324.5" y="-244" font-family="Helvetica,sans-Serif" font-size="10.00" fill="#000000"> Log</text>
</g>
<!-- Node15&#45;&gt;Node12 -->
<g id="edge24" class="edge">
<title>Node15&#45;&gt;Node12</title>
<path fill="none" stroke="#9a32cd" stroke-dasharray="5,2" d="M359.7648,-266.5164C360.5803,-258.5535 361.6669,-249.32 363,-241 372.5984,-181.0979 417.7665,-160.4124 389,-107 384.4883,-98.6229 376.3807,-92.2661 368.3434,-87.6706"/>
<polygon fill="#9a32cd" stroke="#9a32cd" points="356.2589,-266.4124 358.7949,-276.6992 363.2274,-267.0762 356.2589,-266.4124"/>
<text text-anchor="middle" x="399.5" y="-177" font-family="Helvetica,sans-Serif" font-size="10.00" fill="#000000"> Log</text>
</g>
<!-- Node16&#45;&gt;Node12 -->
<g id="edge25" class="edge">
<title>Node16&#45;&gt;Node12</title>
<path fill="none" stroke="#9a32cd" stroke-dasharray="5,2" d="M611.5456,-379.5817C616.474,-365.1637 622,-344.8956 622,-326.5 622,-326.5 622,-326.5 622,-146 622,-120.2506 439.1367,-91.4533 370.563,-81.5596"/>
<polygon fill="#9a32cd" stroke="#9a32cd" points="608.1256,-378.745 607.9948,-389.3391 614.7036,-381.1389 608.1256,-378.745"/>
<text text-anchor="middle" x="661" y="-244" font-family="Helvetica,sans-Serif" font-size="10.00" fill="#000000"> MessageQueue</text>
</g>
</g>
</svg>
        <g id="navigator" transform="translate(0 0)" fill="#404254">
                <rect fill="#f2f5e9" fill-opacity="0.5" stroke="#606060" stroke-width=".5" x="0" y="0" width="60" height="60"/>
                <use id="zoomplus" xlink:href="#zoomPlus" x="17" y="9" onmousedown="handleZoom(evt,'in')"/>
                <use id="zoomminus" xlink:href="#zoomMin" x="42" y="9" onmousedown="handleZoom(evt,'out')"/>
                <use id="reset" xlink:href="#resetDef" x="30" y="36" onmousedown="handleReset()"/>
                <g id="arrowUp" xlink:href="#dirArrow" transform="translate(30 24)" onmousedown="handlePan(0,-1)">
                  <use xlink:href="#rim" fill="#404040">
                        <set attributeName="fill" to="#808080" begin="arrowUp.mouseover" end="arrowUp.mouseout"/>
                  </use>
                  <path fill="none" stroke="white" stroke-width="1.5" d="M0,-3.0v7 M-2.5,-0.5L0,-3.0L2.5,-0.5"/>
                </g>
                <g id="arrowRight" xlink:href="#dirArrow" transform="rotate(90) translate(36 -43)" onmousedown="handlePan(1,0)">
                  <use xlink:href="#rim" fill="#404040">
                        <set attributeName="fill" to="#808080" begin="arrowRight.mouseover" end="arrowRight.mouseout"/>
                  </use>
                  <path fill="none" stroke="white" stroke-width="1.5" d="M0,-3.0v7 M-2.5,-0.5L0,-3.0L2.5,-0.5"/>
                </g>
                <g id="arrowDown" xlink:href="#dirArrow" transform="rotate(180) translate(-30 -48)" onmousedown="handlePan(0,1)">
                  <use xlink:href="#rim" fill="#404040">
                        <set attributeName="fill" to="#808080" begin="arrowDown.mouseover" end="arrowDown.mouseout"/>
                  </use>
                  <path fill="none" stroke="white" stroke-width="1.5" d="M0,-3.0v7 M-2.5,-0.5L0,-3.0L2.5,-0.5"/>
                </g>
                <g id="arrowLeft" xlink:href="#dirArrow" transform="rotate(270) translate(-36 17)" onmousedown="handlePan(-1,0)">
                  <use xlink:href="#rim" fill="#404040">
                        <set attributeName="fill" to="#808080" begin="arrowLeft.mouseover" end="arrowLeft.mouseout"/>
                  </use>
                  <path fill="none" stroke="white" stroke-width="1.5" d="M0,-3.0v7 M-2.5,-0.5L0,-3.0L2.5,-0.5"/>
                </g>
        </g>
        <svg viewBox="0 0 15 15" width="100%" height="30px" preserveAspectRatio="xMaxYMin meet">
         <g id="arrow_out" transform="scale(0.3 0.3)">
          <a xlink:href="structpkgAcquire_1_1ItemDesc__coll__graph_org.svg" target="_base">
           <rect id="button" ry="5" rx="5" y="6" x="6" height="38" width="38"
                fill="#f2f5e9" fill-opacity="0.5" stroke="#606060" stroke-width="1.0"/>
           <path id="arrow"
             d="M 11.500037,31.436501 C 11.940474,20.09759 22.043105,11.32322 32.158766,21.979434 L 37.068811,17.246167 C 37.068811,17.246167 37.088388,32 37.088388,32 L 22.160133,31.978069 C 22.160133,31.978069 26.997745,27.140456 26.997745,27.140456 C 18.528582,18.264221 13.291696,25.230495 11.500037,31.436501 z"
             style="fill:#404040;"/>
          </a>
         </g>
        </svg>
</svg>
