<?xml version="1.0" encoding="UTF-8" standalone="no"?>
<!DOCTYPE svg PUBLIC "-//W3C//DTD SVG 1.1//EN"
 "http://www.w3.org/Graphics/SVG/1.1/DTD/svg11.dtd">
<!-- Generated by graphviz version 2.40.1 (20161225.0304)
 -->
<!-- Title: pkgAcqMethod::FetchItem Pages: 1 -->
<svg width="222pt" height="163pt"
 viewBox="0.00 0.00 222.00 163.00" xmlns="http://www.w3.org/2000/svg" xmlns:xlink="http://www.w3.org/1999/xlink">
<g id="graph0" class="graph" transform="scale(1 1) rotate(0) translate(4 159)">
<title>pkgAcqMethod::FetchItem</title>
<polygon fill="#ffffff" stroke="transparent" points="-4,4 -4,-159 218,-159 218,4 -4,4"/>
<!-- Node1 -->
<g id="node1" class="node">
<title>Node1</title>
<polygon fill="#bfbfbf" stroke="#000000" points="26,-.5 26,-19.5 169,-19.5 169,-.5 26,-.5"/>
<text text-anchor="middle" x="97.5" y="-7.5" font-family="Helvetica,sans-Serif" font-size="10.00" fill="#000000">pkgAcqMethod::FetchItem</text>
</g>
<!-- Node1&#45;&gt;Node1 -->
<g id="edge2" class="edge">
<title>Node1&#45;&gt;Node1</title>
<path fill="none" stroke="#9a32cd" stroke-dasharray="5,2" d="M179.1098,-14.9338C184.0404,-13.7604 187,-12.1158 187,-10 187,-6.6973 179.7884,-4.5427 169.1259,-3.5364"/>
<polygon fill="#9a32cd" stroke="#9a32cd" points="178.4804,-11.4893 169.1259,-16.4636 179.5407,-18.4085 178.4804,-11.4893"/>
<text text-anchor="middle" x="200.5" y="-7.5" font-family="Helvetica,sans-Serif" font-size="10.00" fill="#000000"> Next</text>
</g>
<!-- Node2 -->
<g id="node2" class="node">
<title>Node2</title>
<g id="a_node2"><a xlink:href="classHashStringList.xhtml" target="_top" xlink:title="HashStringList">
<polygon fill="#ffffff" stroke="#000000" points="0,-78.5 0,-97.5 87,-97.5 87,-78.5 0,-78.5"/>
<text text-anchor="middle" x="43.5" y="-85.5" font-family="Helvetica,sans-Serif" font-size="10.00" fill="#000000">HashStringList</text>
</a>
</g>
</g>
<!-- Node2&#45;&gt;Node1 -->
<g id="edge1" class="edge">
<title>Node2&#45;&gt;Node1</title>
<path fill="none" stroke="#9a32cd" stroke-dasharray="5,2" d="M39.4327,-68.3172C38.4661,-58.5272 39.0054,-46.9143 44.5,-38 49.5782,-29.7613 57.9614,-23.8132 66.5781,-19.5789"/>
<polygon fill="#9a32cd" stroke="#9a32cd" points="35.9972,-69.0049 40.9798,-78.355 42.9155,-67.9385 35.9972,-69.0049"/>
<text text-anchor="middle" x="87" y="-46.5" font-family="Helvetica,sans-Serif" font-size="10.00" fill="#000000"> ExpectedHashes</text>
</g>
<!-- Node3 -->
<g id="node3" class="node">
<title>Node3</title>
<g id="a_node3"><a xlink:title="STL class. ">
<polygon fill="#ffffff" stroke="#bfbfbf" points="129.5,-78.5 129.5,-97.5 173.5,-97.5 173.5,-78.5 129.5,-78.5"/>
<text text-anchor="middle" x="151.5" y="-85.5" font-family="Helvetica,sans-Serif" font-size="10.00" fill="#000000">string</text>
</a>
</g>
</g>
<!-- Node3&#45;&gt;Node1 -->
<g id="edge3" class="edge">
<title>Node3&#45;&gt;Node1</title>
<path fill="none" stroke="#9a32cd" stroke-dasharray="5,2" d="M145.2122,-68.5326C141.5276,-58.818 136.259,-47.2074 129.5,-38 124.3453,-30.9781 117.1438,-24.4805 110.8775,-19.5158"/>
<polygon fill="#9a32cd" stroke="#9a32cd" points="141.9663,-69.8529 148.5843,-78.1265 148.5703,-67.5317 141.9663,-69.8529"/>
<text text-anchor="middle" x="163" y="-52" font-family="Helvetica,sans-Serif" font-size="10.00" fill="#000000"> DestFile</text>
<text text-anchor="middle" x="163" y="-41" font-family="Helvetica,sans-Serif" font-size="10.00" fill="#000000">Uri</text>
</g>
<!-- Node4 -->
<g id="node4" class="node">
<title>Node4</title>
<g id="a_node4"><a xlink:title="STL class. ">
<polygon fill="#ffffff" stroke="#bfbfbf" points="92,-135.5 92,-154.5 211,-154.5 211,-135.5 92,-135.5"/>
<text text-anchor="middle" x="151.5" y="-142.5" font-family="Helvetica,sans-Serif" font-size="10.00" fill="#000000">basic_string&lt; char &gt;</text>
</a>
</g>
</g>
<!-- Node4&#45;&gt;Node3 -->
<g id="edge4" class="edge">
<title>Node4&#45;&gt;Node3</title>
<path fill="none" stroke="#191970" d="M151.5,-125.2342C151.5,-115.8491 151.5,-105.0651 151.5,-97.5265"/>
<polygon fill="#191970" stroke="#191970" points="148.0001,-125.3307 151.5,-135.3307 155.0001,-125.3308 148.0001,-125.3307"/>
</g>
</g>
</svg>
