<?xml version="1.0" encoding="UTF-8" standalone="no"?>
<!DOCTYPE svg PUBLIC "-//W3C//DTD SVG 1.1//EN"
 "http://www.w3.org/Graphics/SVG/1.1/DTD/svg11.dtd">
<!-- Generated by graphviz version 2.40.1 (20161225.0304)
 -->
<!-- Title: pkgAcquire::Queue::QItem Pages: 1 -->
<svg width="1144pt" height="512pt"
 viewBox="0.00 0.00 1143.50 512.00" xmlns="http://www.w3.org/2000/svg" xmlns:xlink="http://www.w3.org/1999/xlink">
<g id="graph0" class="graph" transform="scale(1 1) rotate(0) translate(4 508)">
<title>pkgAcquire::Queue::QItem</title>
<polygon fill="#ffffff" stroke="transparent" points="-4,4 -4,-508 1139.5,-508 1139.5,4 -4,4"/>
<!-- Node3 -->
<g id="node1" class="node">
<title>Node3</title>
<polygon fill="#bfbfbf" stroke="#000000" points="624.5,-416.5 624.5,-446.5 739.5,-446.5 739.5,-416.5 624.5,-416.5"/>
<text text-anchor="start" x="632.5" y="-434.5" font-family="Helvetica,sans-Serif" font-size="10.00" fill="#000000">pkgAcquire::Queue::</text>
<text text-anchor="middle" x="682" y="-423.5" font-family="Helvetica,sans-Serif" font-size="10.00" fill="#000000">QItem</text>
</g>
<!-- Node3&#45;&gt;Node3 -->
<g id="edge34" class="edge">
<title>Node3&#45;&gt;Node3</title>
<path fill="none" stroke="#9a32cd" stroke-dasharray="5,2" d="M749.5321,-436.22C754.4728,-435.1579 757.5,-433.5845 757.5,-431.5 757.5,-428.2461 750.1239,-426.2378 739.6071,-425.4752"/>
<polygon fill="#9a32cd" stroke="#9a32cd" points="749.0656,-432.7511 739.6071,-437.5248 749.9781,-439.6914 749.0656,-432.7511"/>
<text text-anchor="middle" x="771" y="-429" font-family="Helvetica,sans-Serif" font-size="10.00" fill="#000000"> Next</text>
</g>
<!-- Node11 -->
<g id="node9" class="node">
<title>Node11</title>
<g id="a_node9"><a xlink:href="classpkgAcquire_1_1Queue.xhtml" target="_top" xlink:title="A single download queue in a pkgAcquire object. {{{. ">
<polygon fill="#ffffff" stroke="#000000" points="524,-332 524,-351 572,-351 572,-332 524,-332"/>
<text text-anchor="middle" x="548" y="-339" font-family="Helvetica,sans-Serif" font-size="10.00" fill="#000000">Queue</text>
</a>
</g>
</g>
<!-- Node3&#45;&gt;Node11 -->
<g id="edge12" class="edge">
<title>Node3&#45;&gt;Node11</title>
<path fill="none" stroke="#9a32cd" stroke-dasharray="5,2" d="M613.8404,-427.5949C569.4108,-423.4609 517.1455,-415.0384 503,-398 489.543,-381.7908 513.1282,-362.5237 530.9331,-351.1929"/>
<polygon fill="#9a32cd" stroke="#9a32cd" points="613.7925,-431.1039 624.0585,-428.4849 614.4,-424.1303 613.7925,-431.1039"/>
<text text-anchor="middle" x="518.5" y="-384.5" font-family="Helvetica,sans-Serif" font-size="10.00" fill="#000000"> Items</text>
</g>
<!-- Node12 -->
<g id="node10" class="node">
<title>Node12</title>
<g id="a_node10"><a xlink:href="classpkgAcquire_1_1Worker.xhtml" target="_top" xlink:title="A fetch subprocess. ">
<polygon fill="#ffffff" stroke="#000000" points="540.5,-246.5 540.5,-265.5 591.5,-265.5 591.5,-246.5 540.5,-246.5"/>
<text text-anchor="middle" x="566" y="-253.5" font-family="Helvetica,sans-Serif" font-size="10.00" fill="#000000">Worker</text>
</a>
</g>
</g>
<!-- Node3&#45;&gt;Node12 -->
<g id="edge21" class="edge">
<title>Node3&#45;&gt;Node12</title>
<path fill="none" stroke="#9a32cd" stroke-dasharray="5,2" d="M686.6139,-406.3272C690.5375,-376.8041 692.2196,-327.8585 668,-296 649.9267,-272.2264 615.6578,-262.5681 591.8559,-258.6533"/>
<polygon fill="#9a32cd" stroke="#9a32cd" points="683.1468,-405.8465 685.1107,-416.2577 690.068,-406.8942 683.1468,-405.8465"/>
<text text-anchor="middle" x="719" y="-339" font-family="Helvetica,sans-Serif" font-size="10.00" fill="#000000"> CurrentItem</text>
</g>
<!-- Node4 -->
<g id="node2" class="node">
<title>Node4</title>
<g id="a_node2"><a xlink:href="structpkgAcquire_1_1ItemDesc.xhtml" target="_top" xlink:title="Represents a single download source from which an item should be downloaded. ">
<polygon fill="#ffffff" stroke="#000000" points="193.5,-6 193.5,-25 256.5,-25 256.5,-6 193.5,-6"/>
<text text-anchor="middle" x="225" y="-13" font-family="Helvetica,sans-Serif" font-size="10.00" fill="#000000">ItemDesc</text>
</a>
</g>
</g>
<!-- Node4&#45;&gt;Node3 -->
<g id="edge1" class="edge">
<title>Node4&#45;&gt;Node3</title>
<path fill="none" stroke="#191970" d="M266.8504,-24.0318C421.0567,-56.5246 952.1085,-178.1364 1020,-325 1026.1543,-338.313 1029.2033,-346.5803 1020,-358 985.4263,-400.9 826.7536,-420.063 739.6533,-427.4762"/>
<polygon fill="#191970" stroke="#191970" points="267.3329,-20.557 256.8279,-21.934 265.8987,-27.4085 267.3329,-20.557"/>
</g>
<!-- Node8 -->
<g id="node6" class="node">
<title>Node8</title>
<g id="a_node6"><a xlink:href="classpkgAcquire_1_1Item.xhtml" target="_top" xlink:title="Represents the process by which a pkgAcquire object should retrieve a file or a collection of files...">
<polygon fill="#ffffff" stroke="#000000" points="244.5,-78.5 244.5,-97.5 283.5,-97.5 283.5,-78.5 244.5,-78.5"/>
<text text-anchor="middle" x="264" y="-85.5" font-family="Helvetica,sans-Serif" font-size="10.00" fill="#000000">Item</text>
</a>
</g>
</g>
<!-- Node4&#45;&gt;Node8 -->
<g id="edge32" class="edge">
<title>Node4&#45;&gt;Node8</title>
<path fill="none" stroke="#9a32cd" stroke-dasharray="5,2" d="M219.259,-35.1159C217.9697,-43.2418 217.9861,-52.4999 222,-60 226.7967,-68.9628 235.87,-75.5521 244.3592,-80.0786"/>
<polygon fill="#9a32cd" stroke="#9a32cd" points="222.6801,-35.8554 221.4797,-25.3288 215.8537,-34.3064 222.6801,-35.8554"/>
<text text-anchor="middle" x="236" y="-52" font-family="Helvetica,sans-Serif" font-size="10.00" fill="#000000"> Desc</text>
</g>
<!-- Node5 -->
<g id="node3" class="node">
<title>Node5</title>
<g id="a_node3"><a xlink:href="classWeakPointable.xhtml" target="_top" xlink:title="WeakPointable">
<polygon fill="#ffffff" stroke="#000000" points="152.5,-332 152.5,-351 241.5,-351 241.5,-332 152.5,-332"/>
<text text-anchor="middle" x="197" y="-339" font-family="Helvetica,sans-Serif" font-size="10.00" fill="#000000">WeakPointable</text>
</a>
</g>
</g>
<!-- Node5&#45;&gt;Node4 -->
<g id="edge2" class="edge">
<title>Node5&#45;&gt;Node4</title>
<path fill="none" stroke="#191970" d="M195.188,-321.7399C193.7571,-304.4229 192,-278.565 192,-256 192,-256 192,-256 192,-88 192,-63.6603 207.5977,-38.5201 217.3462,-25.1844"/>
<polygon fill="#191970" stroke="#191970" points="191.7066,-322.1065 196.0595,-331.7658 198.6803,-321.5002 191.7066,-322.1065"/>
</g>
<!-- Node5&#45;&gt;Node8 -->
<g id="edge6" class="edge">
<title>Node5&#45;&gt;Node8</title>
<path fill="none" stroke="#191970" d="M202.1234,-322.1151C215.5785,-271.2067 251.5609,-135.0644 261.4528,-97.6376"/>
<polygon fill="#191970" stroke="#191970" points="198.7162,-321.3097 199.5447,-331.872 205.4838,-323.0984 198.7162,-321.3097"/>
</g>
<!-- Node5&#45;&gt;Node12 -->
<g id="edge15" class="edge">
<title>Node5&#45;&gt;Node12</title>
<path fill="none" stroke="#191970" d="M213.1392,-324.9255C224.1791,-314.7081 239.7178,-302.3779 256,-296 339.1002,-263.4487 367.6702,-290.77 456,-278 485.1053,-273.7922 518.1462,-266.8941 540.3537,-261.9435"/>
<polygon fill="#191970" stroke="#191970" points="210.706,-322.4096 205.9492,-331.8766 215.5714,-327.4423 210.706,-322.4096"/>
</g>
<!-- Node6 -->
<g id="node4" class="node">
<title>Node6</title>
<g id="a_node4"><a xlink:title="STL class. ">
<polygon fill="#ffffff" stroke="#bfbfbf" points="294,-422 294,-441 338,-441 338,-422 294,-422"/>
<text text-anchor="middle" x="316" y="-429" font-family="Helvetica,sans-Serif" font-size="10.00" fill="#000000">string</text>
</a>
</g>
</g>
<!-- Node6&#45;&gt;Node4 -->
<g id="edge3" class="edge">
<title>Node6&#45;&gt;Node4</title>
<path fill="none" stroke="#9a32cd" stroke-dasharray="5,2" d="M283.7066,-429.1965C203.1955,-422.571 0,-400.0497 0,-341.5 0,-341.5 0,-341.5 0,-88 0,-47.8831 131.2188,-26.7569 193.2402,-19.012"/>
<polygon fill="#9a32cd" stroke="#9a32cd" points="283.5343,-432.6937 293.7795,-429.9946 284.0872,-425.7156 283.5343,-432.6937"/>
<text text-anchor="middle" x="29.5" y="-208" font-family="Helvetica,sans-Serif" font-size="10.00" fill="#000000"> Description</text>
<text text-anchor="middle" x="29.5" y="-197" font-family="Helvetica,sans-Serif" font-size="10.00" fill="#000000">URI</text>
<text text-anchor="middle" x="29.5" y="-186" font-family="Helvetica,sans-Serif" font-size="10.00" fill="#000000">ShortDesc</text>
</g>
<!-- Node6&#45;&gt;Node8 -->
<g id="edge31" class="edge">
<title>Node6&#45;&gt;Node8</title>
<path fill="none" stroke="#9a32cd" stroke-dasharray="5,2" d="M283.8017,-426.4725C217.9444,-415.2787 74,-385.751 74,-341.5 74,-341.5 74,-341.5 74,-155 74,-119.1486 195.8376,-97.7517 244.3823,-90.6492"/>
<polygon fill="#9a32cd" stroke="#9a32cd" points="283.2286,-429.9252 293.667,-428.1111 284.3756,-423.0198 283.2286,-429.9252"/>
<text text-anchor="middle" x="119" y="-270" font-family="Helvetica,sans-Serif" font-size="10.00" fill="#000000"> ActiveSubprocess</text>
<text text-anchor="middle" x="119" y="-259" font-family="Helvetica,sans-Serif" font-size="10.00" fill="#000000">DestFile</text>
<text text-anchor="middle" x="119" y="-248" font-family="Helvetica,sans-Serif" font-size="10.00" fill="#000000">ErrorText</text>
<text text-anchor="middle" x="119" y="-237" font-family="Helvetica,sans-Serif" font-size="10.00" fill="#000000">UsedMirror</text>
</g>
<!-- Node9 -->
<g id="node7" class="node">
<title>Node9</title>
<g id="a_node7"><a xlink:href="classpkgAcquire.xhtml" target="_top" xlink:title="The core download scheduler. {{{. ">
<polygon fill="#ffffff" stroke="#000000" points="443.5,-145.5 443.5,-164.5 514.5,-164.5 514.5,-145.5 443.5,-145.5"/>
<text text-anchor="middle" x="479" y="-152.5" font-family="Helvetica,sans-Serif" font-size="10.00" fill="#000000">pkgAcquire</text>
</a>
</g>
</g>
<!-- Node6&#45;&gt;Node9 -->
<g id="edge28" class="edge">
<title>Node6&#45;&gt;Node9</title>
<path fill="none" stroke="#9a32cd" stroke-dasharray="5,2" d="M309.1926,-412.1627C307.8684,-407.5769 306.681,-402.662 306,-398 304.5868,-388.3249 305.8084,-385.7759 306,-376 307.7455,-286.9451 293.3549,-242.0954 360,-183 372.2673,-172.1223 413.0711,-164.1759 443.4988,-159.5846"/>
<polygon fill="#9a32cd" stroke="#9a32cd" points="305.9606,-413.545 312.3564,-421.9916 312.6239,-411.4002 305.9606,-413.545"/>
<text text-anchor="middle" x="320" y="-299" font-family="Helvetica,sans-Serif" font-size="10.00" fill="#000000"> Lock</text>
</g>
<!-- Node6&#45;&gt;Node11 -->
<g id="edge13" class="edge">
<title>Node6&#45;&gt;Node11</title>
<path fill="none" stroke="#9a32cd" stroke-dasharray="5,2" d="M347.9301,-422.3287C368.2591,-416.1686 394.9982,-407.4682 418,-398 438.2179,-389.6777 441.8242,-384.4239 462,-376 484.9563,-366.4151 492.0437,-367.5849 515,-358 519.9651,-355.9269 525.2249,-353.4378 530.0513,-351.0289"/>
<polygon fill="#9a32cd" stroke="#9a32cd" points="346.8059,-419.0116 338.2242,-425.2249 348.8075,-425.7193 346.8059,-419.0116"/>
<text text-anchor="middle" x="478.5" y="-384.5" font-family="Helvetica,sans-Serif" font-size="10.00" fill="#000000"> Name</text>
</g>
<!-- Node6&#45;&gt;Node12 -->
<g id="edge22" class="edge">
<title>Node6&#45;&gt;Node12</title>
<path fill="none" stroke="#9a32cd" stroke-dasharray="5,2" d="M311.8156,-411.8113C308.0559,-388.365 305.8313,-349.326 326,-325 333.0216,-316.531 479.8193,-278.1062 540.3017,-262.5589"/>
<polygon fill="#9a32cd" stroke="#9a32cd" points="308.4285,-412.7419 313.6933,-421.936 315.3111,-411.4654 308.4285,-412.7419"/>
<text text-anchor="middle" x="352" y="-350" font-family="Helvetica,sans-Serif" font-size="10.00" fill="#000000"> OutQueue</text>
<text text-anchor="middle" x="352" y="-339" font-family="Helvetica,sans-Serif" font-size="10.00" fill="#000000">Access</text>
<text text-anchor="middle" x="352" y="-328" font-family="Helvetica,sans-Serif" font-size="10.00" fill="#000000">Status</text>
</g>
<!-- Node13 -->
<g id="node11" class="node">
<title>Node13</title>
<g id="a_node11"><a xlink:href="structpkgAcquire_1_1MethodConfig.xhtml" target="_top" xlink:title="Information about the properties of a single acquire method. {{{. ">
<polygon fill="#ffffff" stroke="#000000" points="762.5,-332 762.5,-351 845.5,-351 845.5,-332 762.5,-332"/>
<text text-anchor="middle" x="804" y="-339" font-family="Helvetica,sans-Serif" font-size="10.00" fill="#000000">MethodConfig</text>
</a>
</g>
</g>
<!-- Node6&#45;&gt;Node13 -->
<g id="edge19" class="edge">
<title>Node6&#45;&gt;Node13</title>
<path fill="none" stroke="#9a32cd" stroke-dasharray="5,2" d="M348.5235,-427.4862C420.9159,-418.2218 600.5896,-393.3963 748,-358 756.377,-355.9885 765.3649,-353.4937 773.6344,-351.0584"/>
<polygon fill="#9a32cd" stroke="#9a32cd" points="347.7223,-424.0597 338.2418,-428.7893 348.6025,-431.0041 347.7223,-424.0597"/>
<text text-anchor="middle" x="684.5" y="-390" font-family="Helvetica,sans-Serif" font-size="10.00" fill="#000000"> Access</text>
<text text-anchor="middle" x="684.5" y="-379" font-family="Helvetica,sans-Serif" font-size="10.00" fill="#000000">Version</text>
</g>
<!-- Node16 -->
<g id="node14" class="node">
<title>Node16</title>
<polygon fill="#ffffff" stroke="#bfbfbf" points="386.5,-332 386.5,-351 505.5,-351 505.5,-332 386.5,-332"/>
<text text-anchor="middle" x="446" y="-339" font-family="Helvetica,sans-Serif" font-size="10.00" fill="#000000">vector&lt; std::string &gt;</text>
</g>
<!-- Node6&#45;&gt;Node16 -->
<g id="edge25" class="edge">
<title>Node6&#45;&gt;Node16</title>
<path fill="none" stroke="#9a32cd" stroke-dasharray="5,2" d="M329.7404,-413.8597C339.6695,-401.9947 353.9369,-386.6367 369,-376 383.9574,-365.438 402.6662,-356.965 417.8968,-351.0591"/>
<polygon fill="#9a32cd" stroke="#9a32cd" points="326.9097,-411.7935 323.3279,-421.7645 332.3459,-416.2035 326.9097,-411.7935"/>
<text text-anchor="middle" x="393.5" y="-384.5" font-family="Helvetica,sans-Serif" font-size="10.00" fill="#000000"> elements</text>
</g>
<!-- Node7 -->
<g id="node5" class="node">
<title>Node7</title>
<g id="a_node5"><a xlink:title="STL class. ">
<polygon fill="#ffffff" stroke="#bfbfbf" points="256.5,-484.5 256.5,-503.5 375.5,-503.5 375.5,-484.5 256.5,-484.5"/>
<text text-anchor="middle" x="316" y="-491.5" font-family="Helvetica,sans-Serif" font-size="10.00" fill="#000000">basic_string&lt; char &gt;</text>
</a>
</g>
</g>
<!-- Node7&#45;&gt;Node6 -->
<g id="edge4" class="edge">
<title>Node7&#45;&gt;Node6</title>
<path fill="none" stroke="#191970" d="M316,-473.925C316,-463.0568 316,-450.1118 316,-441.4033"/>
<polygon fill="#191970" stroke="#191970" points="312.5001,-474.2343 316,-484.2344 319.5001,-474.2344 312.5001,-474.2343"/>
</g>
<!-- Node8&#45;&gt;Node4 -->
<g id="edge5" class="edge">
<title>Node8&#45;&gt;Node4</title>
<path fill="none" stroke="#9a32cd" stroke-dasharray="5,2" d="M260.8155,-68.3253C259.3007,-61.9292 257.1152,-54.9508 254,-49 249.2907,-40.004 241.7277,-31.3785 235.5059,-25.1332"/>
<polygon fill="#9a32cd" stroke="#9a32cd" points="257.4055,-69.1236 262.7775,-78.2556 264.2728,-67.7668 257.4055,-69.1236"/>
<text text-anchor="middle" x="276.5" y="-52" font-family="Helvetica,sans-Serif" font-size="10.00" fill="#000000"> Owner</text>
</g>
<!-- Node10 -->
<g id="node8" class="node">
<title>Node10</title>
<polygon fill="#ffffff" stroke="#bfbfbf" points="961.5,-.5 961.5,-30.5 1074.5,-30.5 1074.5,-.5 961.5,-.5"/>
<text text-anchor="start" x="969.5" y="-18.5" font-family="Helvetica,sans-Serif" font-size="10.00" fill="#000000">vector&lt; pkgAcquire</text>
<text text-anchor="middle" x="1018" y="-7.5" font-family="Helvetica,sans-Serif" font-size="10.00" fill="#000000">::Item *&gt;</text>
</g>
<!-- Node8&#45;&gt;Node10 -->
<g id="edge9" class="edge">
<title>Node8&#45;&gt;Node10</title>
<path fill="none" stroke="#9a32cd" stroke-dasharray="5,2" d="M293.8033,-85.1343C406.9521,-74.2546 811.1025,-35.394 961.2765,-20.9542"/>
<polygon fill="#9a32cd" stroke="#9a32cd" points="293.3992,-81.6569 283.7801,-86.0981 294.0692,-88.6248 293.3992,-81.6569"/>
<text text-anchor="middle" x="687.5" y="-52" font-family="Helvetica,sans-Serif" font-size="10.00" fill="#000000"> elements</text>
</g>
<!-- Node9&#45;&gt;Node8 -->
<g id="edge7" class="edge">
<title>Node9&#45;&gt;Node8</title>
<path fill="none" stroke="#9a32cd" stroke-dasharray="5,2" d="M438.4837,-142.374C392.2256,-127.9587 318.4573,-104.9704 283.5409,-94.0895"/>
<polygon fill="#9a32cd" stroke="#9a32cd" points="437.6072,-145.7668 448.1957,-145.4005 439.6899,-139.0838 437.6072,-145.7668"/>
<text text-anchor="middle" x="401.5" y="-119" font-family="Helvetica,sans-Serif" font-size="10.00" fill="#000000"> Owner</text>
</g>
<!-- Node9&#45;&gt;Node11 -->
<g id="edge11" class="edge">
<title>Node9&#45;&gt;Node11</title>
<path fill="none" stroke="#9a32cd" stroke-dasharray="5,2" d="M465.3563,-173.1622C444.032,-203.9305 408.3582,-266.8657 440,-307 461.2235,-333.9198 482.7937,-313.2585 515,-325 520.1754,-326.8868 525.5978,-329.368 530.5171,-331.8313"/>
<polygon fill="#9a32cd" stroke="#9a32cd" points="468.437,-174.8723 471.423,-164.7069 462.7495,-170.7914 468.437,-174.8723"/>
<text text-anchor="middle" x="450.5" y="-253.5" font-family="Helvetica,sans-Serif" font-size="10.00" fill="#000000"> Owner</text>
</g>
<!-- Node10&#45;&gt;Node3 -->
<g id="edge33" class="edge">
<title>Node10&#45;&gt;Node3</title>
<path fill="none" stroke="#9a32cd" stroke-dasharray="5,2" d="M1048.8716,-37.3889C1063.1505,-50.2297 1077,-67.8722 1077,-88 1077,-341.5 1077,-341.5 1077,-341.5 1077,-368.7827 1075.0519,-381.9357 1053,-398 1028.3013,-415.9924 837.8548,-425.6774 739.8597,-429.5144"/>
<polygon fill="#9a32cd" stroke="#9a32cd" points="1050.8893,-34.5129 1040.9799,-30.7639 1046.3885,-39.8742 1050.8893,-34.5129"/>
<text text-anchor="middle" x="1097" y="-197" font-family="Helvetica,sans-Serif" font-size="10.00" fill="#000000"> Owners</text>
</g>
<!-- Node10&#45;&gt;Node9 -->
<g id="edge8" class="edge">
<title>Node10&#45;&gt;Node9</title>
<path fill="none" stroke="#9a32cd" stroke-dasharray="5,2" d="M951.3282,-32.7555C836.1634,-62.5616 603.7698,-122.708 514.7827,-145.739"/>
<polygon fill="#9a32cd" stroke="#9a32cd" points="952.2887,-36.1223 961.0927,-30.2283 950.5347,-29.3456 952.2887,-36.1223"/>
<text text-anchor="middle" x="790.5" y="-85.5" font-family="Helvetica,sans-Serif" font-size="10.00" fill="#000000"> Items</text>
</g>
<!-- Node11&#45;&gt;Node9 -->
<g id="edge10" class="edge">
<title>Node11&#45;&gt;Node9</title>
<path fill="none" stroke="#9a32cd" stroke-dasharray="5,2" d="M522.0175,-327.5483C519.6828,-326.5896 517.323,-325.7202 515,-325 444.2081,-303.0536 383.9421,-346.2312 355,-278 336.5272,-234.4502 363.5435,-209.0962 403,-183 415.1974,-174.9327 430.0274,-168.799 443.338,-164.3593"/>
<polygon fill="#9a32cd" stroke="#9a32cd" points="520.7675,-330.8261 531.314,-331.8374 523.7,-324.47 520.7675,-330.8261"/>
<text text-anchor="middle" x="375" y="-253.5" font-family="Helvetica,sans-Serif" font-size="10.00" fill="#000000"> Queues</text>
</g>
<!-- Node11&#45;&gt;Node12 -->
<g id="edge16" class="edge">
<title>Node11&#45;&gt;Node12</title>
<path fill="none" stroke="#9a32cd" stroke-dasharray="5,2" d="M566.2377,-324.5404C570.6083,-319.377 574.679,-313.3682 577,-307 582.0867,-293.0433 576.1416,-276.0382 571.2117,-265.6183"/>
<polygon fill="#9a32cd" stroke="#9a32cd" points="563.6295,-322.2048 559.3312,-331.8886 568.7302,-326.9989 563.6295,-322.2048"/>
<text text-anchor="middle" x="599.5" y="-299" font-family="Helvetica,sans-Serif" font-size="10.00" fill="#000000"> OwnerQ</text>
</g>
<!-- Node12&#45;&gt;Node3 -->
<g id="edge35" class="edge">
<title>Node12&#45;&gt;Node3</title>
<path fill="none" stroke="#9a32cd" stroke-dasharray="5,2" d="M596.5284,-270.7303C606.9612,-277.1536 617.8017,-285.6168 625,-296 641.1525,-319.2991 629.53,-331.6536 640,-358 648.4671,-379.3063 662.2111,-401.9389 671.6566,-416.3695"/>
<polygon fill="#9a32cd" stroke="#9a32cd" points="597.9865,-267.5326 587.5669,-265.6137 594.5157,-273.6115 597.9865,-267.5326"/>
<text text-anchor="middle" x="659" y="-339" font-family="Helvetica,sans-Serif" font-size="10.00" fill="#000000"> Worker</text>
</g>
<!-- Node12&#45;&gt;Node9 -->
<g id="edge30" class="edge">
<title>Node12&#45;&gt;Node9</title>
<path fill="none" stroke="#9a32cd" stroke-dasharray="5,2" d="M551.0155,-238.6042C532.5399,-217.1555 501.7963,-181.4647 487.1896,-164.5075"/>
<polygon fill="#9a32cd" stroke="#9a32cd" points="548.4798,-241.0233 557.6581,-246.3157 553.7835,-236.4548 548.4798,-241.0233"/>
<text text-anchor="middle" x="551.5" y="-197" font-family="Helvetica,sans-Serif" font-size="10.00" fill="#000000"> Workers</text>
</g>
<!-- Node12&#45;&gt;Node11 -->
<g id="edge14" class="edge">
<title>Node12&#45;&gt;Node11</title>
<path fill="none" stroke="#9a32cd" stroke-dasharray="5,2" d="M548.0866,-273.1399C542.4532,-279.6937 536.9391,-287.6212 534,-296 529.7323,-308.1663 535.8646,-322.4008 541.3066,-331.665"/>
<polygon fill="#9a32cd" stroke="#9a32cd" points="550.8249,-275.3361 555.1013,-265.6426 545.7134,-270.5536 550.8249,-275.3361"/>
<text text-anchor="middle" x="555.5" y="-299" font-family="Helvetica,sans-Serif" font-size="10.00" fill="#000000"> Workers</text>
</g>
<!-- Node12&#45;&gt;Node12 -->
<g id="edge26" class="edge">
<title>Node12&#45;&gt;Node12</title>
<path fill="none" stroke="#9a32cd" stroke-dasharray="5,2" d="M602.0602,-263.1685C606.5495,-261.8982 609.5,-259.5087 609.5,-256 609.5,-250.2422 601.5544,-247.4982 591.9017,-247.7681"/>
<polygon fill="#9a32cd" stroke="#9a32cd" points="601.483,-259.7097 591.9017,-264.2319 602.2118,-266.6717 601.483,-259.7097"/>
<text text-anchor="middle" x="640" y="-259" font-family="Helvetica,sans-Serif" font-size="10.00" fill="#000000"> NextQueue</text>
<text text-anchor="middle" x="640" y="-248" font-family="Helvetica,sans-Serif" font-size="10.00" fill="#000000">NextAcquire</text>
</g>
<!-- Node13&#45;&gt;Node9 -->
<g id="edge27" class="edge">
<title>Node13&#45;&gt;Node9</title>
<path fill="none" stroke="#9a32cd" stroke-dasharray="5,2" d="M803.2932,-321.8144C802.1242,-313.1833 799.535,-303.3645 794,-296 728.6699,-209.076 678.4169,-222.2225 577,-183 556.8658,-175.2132 533.665,-168.489 514.8932,-163.5832"/>
<polygon fill="#9a32cd" stroke="#9a32cd" points="799.8101,-322.1633 804.1294,-331.8377 806.7859,-321.5814 799.8101,-322.1633"/>
<text text-anchor="middle" x="798" y="-253.5" font-family="Helvetica,sans-Serif" font-size="10.00" fill="#000000"> Configs</text>
</g>
<!-- Node13&#45;&gt;Node12 -->
<g id="edge17" class="edge">
<title>Node13&#45;&gt;Node12</title>
<path fill="none" stroke="#9a32cd" stroke-dasharray="5,2" d="M768.4145,-328.2228C752.2998,-322.038 733.0755,-314.4189 716,-307 705.6074,-302.4847 703.5412,-300.1568 693,-296 658.5924,-282.4318 617.5849,-270.1989 591.6679,-262.9322"/>
<polygon fill="#9a32cd" stroke="#9a32cd" points="767.4085,-331.5848 777.9994,-331.8737 769.9002,-325.0433 767.4085,-331.5848"/>
<text text-anchor="middle" x="733" y="-299" font-family="Helvetica,sans-Serif" font-size="10.00" fill="#000000"> Config</text>
</g>
<!-- Node13&#45;&gt;Node13 -->
<g id="edge18" class="edge">
<title>Node13&#45;&gt;Node13</title>
<path fill="none" stroke="#9a32cd" stroke-dasharray="5,2" d="M855.819,-347.4601C860.5342,-346.2211 863.5,-344.2344 863.5,-341.5 863.5,-337.125 855.9076,-334.6641 845.7052,-334.1172"/>
<polygon fill="#9a32cd" stroke="#9a32cd" points="855.1201,-344.0239 845.7052,-348.8828 856.0953,-350.9556 855.1201,-344.0239"/>
<text text-anchor="middle" x="877" y="-339" font-family="Helvetica,sans-Serif" font-size="10.00" fill="#000000"> Next</text>
</g>
<!-- Node14 -->
<g id="node12" class="node">
<title>Node14</title>
<g id="a_node12"><a xlink:href="classpkgAcquire_1_1MethodConfig_1_1Private.xhtml" target="_top" xlink:title="Private">
<polygon fill="#ffffff" stroke="#000000" points="1084.5,-422 1084.5,-441 1135.5,-441 1135.5,-422 1084.5,-422"/>
<text text-anchor="middle" x="1110" y="-429" font-family="Helvetica,sans-Serif" font-size="10.00" fill="#000000">Private</text>
</a>
</g>
</g>
<!-- Node14&#45;&gt;Node13 -->
<g id="edge20" class="edge">
<title>Node14&#45;&gt;Node13</title>
<path fill="none" stroke="#9a32cd" stroke-dasharray="5,2" d="M1074.6843,-421.113C1014.8469,-403.5138 894.4054,-368.0898 836.5187,-351.0643"/>
<polygon fill="#9a32cd" stroke="#9a32cd" points="1073.8557,-424.5175 1084.4369,-423.9815 1075.8309,-417.8019 1073.8557,-424.5175"/>
<text text-anchor="middle" x="998" y="-384.5" font-family="Helvetica,sans-Serif" font-size="10.00" fill="#000000"> d</text>
</g>
<!-- Node15 -->
<g id="node13" class="node">
<title>Node15</title>
<g id="a_node13"><a xlink:href="classpkgAcquireStatus.xhtml" target="_top" xlink:title="A monitor object for downloads controlled by the pkgAcquire class. {{{. ">
<polygon fill="#ffffff" stroke="#000000" points="909,-332 909,-351 1011,-351 1011,-332 909,-332"/>
<text text-anchor="middle" x="960" y="-339" font-family="Helvetica,sans-Serif" font-size="10.00" fill="#000000">pkgAcquireStatus</text>
</a>
</g>
</g>
<!-- Node15&#45;&gt;Node9 -->
<g id="edge29" class="edge">
<title>Node15&#45;&gt;Node9</title>
<path fill="none" stroke="#9a32cd" stroke-dasharray="5,2" d="M943.1305,-324.759C918.5273,-301.2362 870.4359,-258.5396 822,-234 718.2932,-181.4579 579.2923,-163.3795 514.7324,-157.559"/>
<polygon fill="#9a32cd" stroke="#9a32cd" points="940.9257,-327.4965 950.5403,-331.9473 945.7998,-322.4722 940.9257,-327.4965"/>
<text text-anchor="middle" x="898.5" y="-253.5" font-family="Helvetica,sans-Serif" font-size="10.00" fill="#000000"> Log</text>
</g>
<!-- Node15&#45;&gt;Node12 -->
<g id="edge23" class="edge">
<title>Node15&#45;&gt;Node12</title>
<path fill="none" stroke="#9a32cd" stroke-dasharray="5,2" d="M916.7856,-329.2578C911.1531,-327.7676 905.4488,-326.3106 900,-325 785.7261,-297.514 647.855,-271.1679 591.6858,-260.7193"/>
<polygon fill="#9a32cd" stroke="#9a32cd" points="916.2093,-332.7273 926.7757,-331.9516 918.0318,-325.9687 916.2093,-332.7273"/>
<text text-anchor="middle" x="827.5" y="-299" font-family="Helvetica,sans-Serif" font-size="10.00" fill="#000000"> Log</text>
</g>
<!-- Node16&#45;&gt;Node12 -->
<g id="edge24" class="edge">
<title>Node16&#45;&gt;Node12</title>
<path fill="none" stroke="#9a32cd" stroke-dasharray="5,2" d="M443.1893,-321.5864C443.0349,-312.9095 444.4391,-303.1178 450,-296 461.2789,-281.5633 509.766,-268.4693 540.3714,-261.4307"/>
<polygon fill="#9a32cd" stroke="#9a32cd" points="439.7129,-322.0173 444.0229,-331.6958 446.6892,-321.442 439.7129,-322.0173"/>
<text text-anchor="middle" x="489" y="-299" font-family="Helvetica,sans-Serif" font-size="10.00" fill="#000000"> MessageQueue</text>
</g>
</g>
</svg>
