<?xml version="1.0" encoding="UTF-8" standalone="no"?>
<!DOCTYPE svg PUBLIC "-//W3C//DTD SVG 1.1//EN"
 "http://www.w3.org/Graphics/SVG/1.1/DTD/svg11.dtd">
<!-- Generated by graphviz version 2.40.1 (20161225.0304)
 -->
<!-- Title: apt&#45;pkg/acquire.h Pages: 1 -->
<svg width="808pt" height="84pt"
 viewBox="0.00 0.00 807.50 84.00" xmlns="http://www.w3.org/2000/svg" xmlns:xlink="http://www.w3.org/1999/xlink">
<g id="graph0" class="graph" transform="scale(1 1) rotate(0) translate(4 80)">
<title>apt&#45;pkg/acquire.h</title>
<polygon fill="#ffffff" stroke="transparent" points="-4,4 -4,-80 803.5,-80 803.5,4 -4,4"/>
<!-- Node0 -->
<g id="node1" class="node">
<title>Node0</title>
<polygon fill="#bfbfbf" stroke="#000000" points="398.5,-56.5 398.5,-75.5 500.5,-75.5 500.5,-56.5 398.5,-56.5"/>
<text text-anchor="middle" x="449.5" y="-63.5" font-family="Helvetica,sans-Serif" font-size="10.00" fill="#000000">apt&#45;pkg/acquire.h</text>
</g>
<!-- Node1 -->
<g id="node2" class="node">
<title>Node1</title>
<polygon fill="#ffffff" stroke="#bfbfbf" points="0,-.5 0,-19.5 101,-19.5 101,-.5 0,-.5"/>
<text text-anchor="middle" x="50.5" y="-7.5" font-family="Helvetica,sans-Serif" font-size="10.00" fill="#000000">apt&#45;pkg/hashes.h</text>
</g>
<!-- Node0&#45;&gt;Node1 -->
<g id="edge1" class="edge">
<title>Node0&#45;&gt;Node1</title>
<path fill="none" stroke="#191970" d="M398.3168,-59.5453C333.8936,-51.3118 219.5767,-36.3415 111.3394,-20.0901"/>
<polygon fill="#191970" stroke="#191970" points="111.6319,-16.5947 101.2218,-18.5645 110.5882,-23.5165 111.6319,-16.5947"/>
</g>
<!-- Node2 -->
<g id="node3" class="node">
<title>Node2</title>
<polygon fill="#ffffff" stroke="#bfbfbf" points="119.5,-.5 119.5,-19.5 221.5,-19.5 221.5,-.5 119.5,-.5"/>
<text text-anchor="middle" x="170.5" y="-7.5" font-family="Helvetica,sans-Serif" font-size="10.00" fill="#000000">apt&#45;pkg/macros.h</text>
</g>
<!-- Node0&#45;&gt;Node2 -->
<g id="edge2" class="edge">
<title>Node0&#45;&gt;Node2</title>
<path fill="none" stroke="#191970" d="M401.8552,-56.4369C353.7053,-46.7724 279.2729,-31.8326 227.9007,-21.5213"/>
<polygon fill="#191970" stroke="#191970" points="228.4415,-18.0601 217.9483,-19.5237 227.0639,-24.9232 228.4415,-18.0601"/>
</g>
<!-- Node3 -->
<g id="node4" class="node">
<title>Node3</title>
<polygon fill="#ffffff" stroke="#bfbfbf" points="240,-.5 240,-19.5 345,-19.5 345,-.5 240,-.5"/>
<text text-anchor="middle" x="292.5" y="-7.5" font-family="Helvetica,sans-Serif" font-size="10.00" fill="#000000">apt&#45;pkg/weakptr.h</text>
</g>
<!-- Node0&#45;&gt;Node3 -->
<g id="edge3" class="edge">
<title>Node0&#45;&gt;Node3</title>
<path fill="none" stroke="#191970" d="M422.5107,-56.3733C396.6301,-47.1419 357.3752,-33.1402 328.7711,-22.9375"/>
<polygon fill="#191970" stroke="#191970" points="329.7317,-19.5642 319.1371,-19.5011 327.38,-26.1573 329.7317,-19.5642"/>
</g>
<!-- Node4 -->
<g id="node5" class="node">
<title>Node4</title>
<polygon fill="#ffffff" stroke="#bfbfbf" points="363.5,-.5 363.5,-19.5 407.5,-19.5 407.5,-.5 363.5,-.5"/>
<text text-anchor="middle" x="385.5" y="-7.5" font-family="Helvetica,sans-Serif" font-size="10.00" fill="#000000">string</text>
</g>
<!-- Node0&#45;&gt;Node4 -->
<g id="edge4" class="edge">
<title>Node0&#45;&gt;Node4</title>
<path fill="none" stroke="#191970" d="M438.3521,-56.2455C428.9913,-48.0549 415.4142,-36.1749 404.3651,-26.5069"/>
<polygon fill="#191970" stroke="#191970" points="406.3508,-23.5937 396.5202,-19.6427 401.7412,-28.8618 406.3508,-23.5937"/>
</g>
<!-- Node5 -->
<g id="node6" class="node">
<title>Node5</title>
<polygon fill="#ffffff" stroke="#bfbfbf" points="426,-.5 426,-19.5 473,-19.5 473,-.5 426,-.5"/>
<text text-anchor="middle" x="449.5" y="-7.5" font-family="Helvetica,sans-Serif" font-size="10.00" fill="#000000">vector</text>
</g>
<!-- Node0&#45;&gt;Node5 -->
<g id="edge5" class="edge">
<title>Node0&#45;&gt;Node5</title>
<path fill="none" stroke="#191970" d="M449.5,-56.2455C449.5,-48.9382 449.5,-38.6944 449.5,-29.7046"/>
<polygon fill="#191970" stroke="#191970" points="453.0001,-29.6426 449.5,-19.6427 446.0001,-29.6427 453.0001,-29.6426"/>
</g>
<!-- Node6 -->
<g id="node7" class="node">
<title>Node6</title>
<polygon fill="#ffffff" stroke="#bfbfbf" points="491.5,-.5 491.5,-19.5 547.5,-19.5 547.5,-.5 491.5,-.5"/>
<text text-anchor="middle" x="519.5" y="-7.5" font-family="Helvetica,sans-Serif" font-size="10.00" fill="#000000">stddef.h</text>
</g>
<!-- Node0&#45;&gt;Node6 -->
<g id="edge6" class="edge">
<title>Node0&#45;&gt;Node6</title>
<path fill="none" stroke="#191970" d="M461.6931,-56.2455C472.1321,-47.8943 487.3655,-35.7076 499.574,-25.9408"/>
<polygon fill="#191970" stroke="#191970" points="501.8244,-28.6227 507.4467,-19.6427 497.4515,-23.1566 501.8244,-28.6227"/>
</g>
<!-- Node7 -->
<g id="node8" class="node">
<title>Node7</title>
<polygon fill="#ffffff" stroke="#bfbfbf" points="565.5,-.5 565.5,-19.5 639.5,-19.5 639.5,-.5 565.5,-.5"/>
<text text-anchor="middle" x="602.5" y="-7.5" font-family="Helvetica,sans-Serif" font-size="10.00" fill="#000000">sys/select.h</text>
</g>
<!-- Node0&#45;&gt;Node7 -->
<g id="edge7" class="edge">
<title>Node0&#45;&gt;Node7</title>
<path fill="none" stroke="#191970" d="M475.8016,-56.3733C500.9128,-47.1822 538.9438,-33.2624 566.7872,-23.0713"/>
<polygon fill="#191970" stroke="#191970" points="568.3538,-26.2251 576.5416,-19.5011 565.9478,-19.6516 568.3538,-26.2251"/>
</g>
<!-- Node8 -->
<g id="node9" class="node">
<title>Node8</title>
<polygon fill="#ffffff" stroke="#bfbfbf" points="657.5,-.5 657.5,-19.5 725.5,-19.5 725.5,-.5 657.5,-.5"/>
<text text-anchor="middle" x="691.5" y="-7.5" font-family="Helvetica,sans-Serif" font-size="10.00" fill="#000000">sys/time.h</text>
</g>
<!-- Node0&#45;&gt;Node8 -->
<g id="edge8" class="edge">
<title>Node0&#45;&gt;Node8</title>
<path fill="none" stroke="#191970" d="M491.0482,-56.4128C529.1858,-47.6089 587.5351,-34.1296 647.2508,-20.2877"/>
<polygon fill="#191970" stroke="#191970" points="648.2823,-23.6414 657.2334,-17.9733 646.7013,-16.8223 648.2823,-23.6414"/>
</g>
<!-- Node9 -->
<g id="node10" class="node">
<title>Node9</title>
<polygon fill="#ffffff" stroke="#bfbfbf" points="743.5,-.5 743.5,-19.5 799.5,-19.5 799.5,-.5 743.5,-.5"/>
<text text-anchor="middle" x="771.5" y="-7.5" font-family="Helvetica,sans-Serif" font-size="10.00" fill="#000000">unistd.h</text>
</g>
<!-- Node0&#45;&gt;Node9 -->
<g id="edge9" class="edge">
<title>Node0&#45;&gt;Node9</title>
<path fill="none" stroke="#191970" d="M500.5076,-59.397C555.6398,-51.8968 646.2498,-38.5192 733.2514,-20.0999"/>
<polygon fill="#191970" stroke="#191970" points="734.2476,-23.466 743.2921,-17.9479 732.7806,-16.6214 734.2476,-23.466"/>
</g>
</g>
</svg>
