<?xml version="1.0" encoding="UTF-8" standalone="no"?>
<!DOCTYPE svg PUBLIC "-//W3C//DTD SVG 1.1//EN"
 "http://www.w3.org/Graphics/SVG/1.1/DTD/svg11.dtd">
<!-- Generated by graphviz version 2.40.1 (20161225.0304)
 -->
<!-- Title: apt&#45;pkg/acquire.h Pages: 1 -->
<svg width="609pt" height="308pt"
 viewBox="0.00 0.00 608.50 308.00" xmlns="http://www.w3.org/2000/svg" xmlns:xlink="http://www.w3.org/1999/xlink">
<g id="graph0" class="graph" transform="scale(1 1) rotate(0) translate(4 304)">
<title>apt&#45;pkg/acquire.h</title>
<polygon fill="#ffffff" stroke="transparent" points="-4,4 -4,-304 604.5,-304 604.5,4 -4,4"/>
<!-- Node10 -->
<g id="node1" class="node">
<title>Node10</title>
<polygon fill="#bfbfbf" stroke="#000000" points="214,-280.5 214,-299.5 316,-299.5 316,-280.5 214,-280.5"/>
<text text-anchor="middle" x="265" y="-287.5" font-family="Helvetica,sans-Serif" font-size="10.00" fill="#000000">apt&#45;pkg/acquire.h</text>
</g>
<!-- Node11 -->
<g id="node2" class="node">
<title>Node11</title>
<g id="a_node2"><a xlink:href="acquire-item_8h.xhtml" target="_top" xlink:title="apt&#45;pkg/acquire&#45;item.h">
<polygon fill="#ffffff" stroke="#000000" points="0,-224.5 0,-243.5 128,-243.5 128,-224.5 0,-224.5"/>
<text text-anchor="middle" x="64" y="-231.5" font-family="Helvetica,sans-Serif" font-size="10.00" fill="#000000">apt&#45;pkg/acquire&#45;item.h</text>
</a>
</g>
</g>
<!-- Node10&#45;&gt;Node11 -->
<g id="edge1" class="edge">
<title>Node10&#45;&gt;Node11</title>
<path fill="none" stroke="#191970" d="M220.4506,-277.5882C183.5216,-267.2996 131.7998,-252.8895 98.1022,-243.5011"/>
<polygon fill="#191970" stroke="#191970" points="219.8744,-281.0609 230.4469,-280.3733 221.7531,-274.3177 219.8744,-281.0609"/>
</g>
<!-- Node12 -->
<g id="node3" class="node">
<title>Node12</title>
<g id="a_node3"><a xlink:href="acquire-worker_8h.xhtml" target="_top" xlink:title="apt&#45;pkg/acquire&#45;worker.h">
<polygon fill="#ffffff" stroke="#000000" points="146.5,-224.5 146.5,-243.5 285.5,-243.5 285.5,-224.5 146.5,-224.5"/>
<text text-anchor="middle" x="216" y="-231.5" font-family="Helvetica,sans-Serif" font-size="10.00" fill="#000000">apt&#45;pkg/acquire&#45;worker.h</text>
</a>
</g>
</g>
<!-- Node10&#45;&gt;Node12 -->
<g id="edge2" class="edge">
<title>Node10&#45;&gt;Node12</title>
<path fill="none" stroke="#191970" d="M249.6878,-272.5004C241.3553,-262.9775 231.3647,-251.5596 224.4373,-243.6427"/>
<polygon fill="#191970" stroke="#191970" points="247.2457,-275.0245 256.4649,-280.2455 252.5138,-270.415 247.2457,-275.0245"/>
</g>
<!-- Node13 -->
<g id="node4" class="node">
<title>Node13</title>
<g id="a_node4"><a xlink:href="algorithms_8h_source.xhtml" target="_top" xlink:title="apt&#45;pkg/algorithms.h">
<polygon fill="#ffffff" stroke="#000000" points="254.5,-.5 254.5,-19.5 373.5,-19.5 373.5,-.5 254.5,-.5"/>
<text text-anchor="middle" x="314" y="-7.5" font-family="Helvetica,sans-Serif" font-size="10.00" fill="#000000">apt&#45;pkg/algorithms.h</text>
</a>
</g>
</g>
<!-- Node10&#45;&gt;Node13 -->
<g id="edge3" class="edge">
<title>Node10&#45;&gt;Node13</title>
<path fill="none" stroke="#191970" d="M278.3581,-272.0814C292.867,-250.8015 314,-213.6819 314,-178 314,-178 314,-178 314,-122 314,-84.0833 314,-38.9462 314,-19.5884"/>
<polygon fill="#191970" stroke="#191970" points="275.3671,-270.2488 272.442,-280.4319 281.0789,-274.2954 275.3671,-270.2488"/>
</g>
<!-- Node14 -->
<g id="node5" class="node">
<title>Node14</title>
<g id="a_node5"><a xlink:href="cachefile_8h_source.xhtml" target="_top" xlink:title="apt&#45;pkg/cachefile.h">
<polygon fill="#ffffff" stroke="#000000" points="347,-224.5 347,-243.5 457,-243.5 457,-224.5 347,-224.5"/>
<text text-anchor="middle" x="402" y="-231.5" font-family="Helvetica,sans-Serif" font-size="10.00" fill="#000000">apt&#45;pkg/cachefile.h</text>
</a>
</g>
</g>
<!-- Node10&#45;&gt;Node14 -->
<g id="edge4" class="edge">
<title>Node10&#45;&gt;Node14</title>
<path fill="none" stroke="#191970" d="M297.9806,-276.5189C322.9311,-266.3201 356.5734,-252.5685 378.7562,-243.5011"/>
<polygon fill="#191970" stroke="#191970" points="296.4834,-273.3497 288.5511,-280.3733 299.132,-279.8293 296.4834,-273.3497"/>
</g>
<!-- Node15 -->
<g id="node6" class="node">
<title>Node15</title>
<g id="a_node6"><a xlink:href="cacheset_8h.xhtml" target="_top" xlink:title="apt&#45;pkg/cacheset.h">
<polygon fill="#ffffff" stroke="#000000" points="352,-168.5 352,-187.5 462,-187.5 462,-168.5 352,-168.5"/>
<text text-anchor="middle" x="407" y="-175.5" font-family="Helvetica,sans-Serif" font-size="10.00" fill="#000000">apt&#45;pkg/cacheset.h</text>
</a>
</g>
</g>
<!-- Node14&#45;&gt;Node15 -->
<g id="edge5" class="edge">
<title>Node14&#45;&gt;Node15</title>
<path fill="none" stroke="#191970" d="M403.7717,-214.1575C404.5754,-205.155 405.4893,-194.9199 406.139,-187.6427"/>
<polygon fill="#191970" stroke="#191970" points="400.2742,-213.9739 402.8709,-224.2455 407.2465,-214.5965 400.2742,-213.9739"/>
</g>
<!-- Node16 -->
<g id="node7" class="node">
<title>Node16</title>
<g id="a_node7"><a xlink:href="edsp_8h.xhtml" target="_top" xlink:title="apt&#45;pkg/edsp.h">
<polygon fill="#ffffff" stroke="#000000" points="362.5,-112.5 362.5,-131.5 451.5,-131.5 451.5,-112.5 362.5,-112.5"/>
<text text-anchor="middle" x="407" y="-119.5" font-family="Helvetica,sans-Serif" font-size="10.00" fill="#000000">apt&#45;pkg/edsp.h</text>
</a>
</g>
</g>
<!-- Node15&#45;&gt;Node16 -->
<g id="edge6" class="edge">
<title>Node15&#45;&gt;Node16</title>
<path fill="none" stroke="#191970" d="M407,-158.1575C407,-149.155 407,-138.9199 407,-131.6427"/>
<polygon fill="#191970" stroke="#191970" points="403.5001,-158.2455 407,-168.2455 410.5001,-158.2456 403.5001,-158.2455"/>
</g>
<!-- Node19 -->
<g id="node10" class="node">
<title>Node19</title>
<g id="a_node10"><a xlink:href="statechanges_8h_source.xhtml" target="_top" xlink:title="apt&#45;pkg/statechanges.h">
<polygon fill="#ffffff" stroke="#000000" points="469.5,-112.5 469.5,-131.5 600.5,-131.5 600.5,-112.5 469.5,-112.5"/>
<text text-anchor="middle" x="535" y="-119.5" font-family="Helvetica,sans-Serif" font-size="10.00" fill="#000000">apt&#45;pkg/statechanges.h</text>
</a>
</g>
</g>
<!-- Node15&#45;&gt;Node19 -->
<g id="edge10" class="edge">
<title>Node15&#45;&gt;Node19</title>
<path fill="none" stroke="#191970" d="M438.4348,-164.2473C461.6809,-154.0771 492.7411,-140.4883 513.2831,-131.5011"/>
<polygon fill="#191970" stroke="#191970" points="436.7627,-161.1585 429.004,-168.3733 439.5685,-167.5716 436.7627,-161.1585"/>
</g>
<!-- Node17 -->
<g id="node8" class="node">
<title>Node17</title>
<g id="a_node8"><a xlink:href="packagemanager_8h_source.xhtml" target="_top" xlink:title="apt&#45;pkg/packagemanager.h">
<polygon fill="#ffffff" stroke="#000000" points="342,-56.5 342,-75.5 492,-75.5 492,-56.5 342,-56.5"/>
<text text-anchor="middle" x="417" y="-63.5" font-family="Helvetica,sans-Serif" font-size="10.00" fill="#000000">apt&#45;pkg/packagemanager.h</text>
</a>
</g>
</g>
<!-- Node16&#45;&gt;Node17 -->
<g id="edge7" class="edge">
<title>Node16&#45;&gt;Node17</title>
<path fill="none" stroke="#191970" d="M410.5433,-102.1575C412.1509,-93.155 413.9786,-82.9199 415.2781,-75.6427"/>
<polygon fill="#191970" stroke="#191970" points="407.0544,-101.786 408.7419,-112.2455 413.9454,-103.0166 407.0544,-101.786"/>
</g>
<!-- Node17&#45;&gt;Node13 -->
<g id="edge8" class="edge">
<title>Node17&#45;&gt;Node13</title>
<path fill="none" stroke="#191970" d="M390.2568,-51.46C371.825,-41.4388 347.8416,-28.3993 331.7356,-19.6427"/>
<polygon fill="#191970" stroke="#191970" points="388.6015,-54.5438 399.0588,-56.2455 391.9451,-48.394 388.6015,-54.5438"/>
</g>
<!-- Node18 -->
<g id="node9" class="node">
<title>Node18</title>
<g id="a_node9"><a xlink:href="dpkgpm_8h_source.xhtml" target="_top" xlink:title="apt&#45;pkg/deb/dpkgpm.h">
<polygon fill="#ffffff" stroke="#000000" points="391.5,-.5 391.5,-19.5 518.5,-19.5 518.5,-.5 391.5,-.5"/>
<text text-anchor="middle" x="455" y="-7.5" font-family="Helvetica,sans-Serif" font-size="10.00" fill="#000000">apt&#45;pkg/deb/dpkgpm.h</text>
</a>
</g>
</g>
<!-- Node17&#45;&gt;Node18 -->
<g id="edge9" class="edge">
<title>Node17&#45;&gt;Node18</title>
<path fill="none" stroke="#191970" d="M429.2679,-47.9209C435.6488,-38.5176 443.1931,-27.3997 448.4568,-19.6427"/>
<polygon fill="#191970" stroke="#191970" points="426.338,-46.0055 423.6191,-56.2455 432.1303,-49.936 426.338,-46.0055"/>
</g>
</g>
</svg>
