<?xml version="1.0" encoding="UTF-8" standalone="no"?>
<!DOCTYPE svg PUBLIC "-//W3C//DTD SVG 1.1//EN"
 "http://www.w3.org/Graphics/SVG/1.1/DTD/svg11.dtd">
<!-- Generated by graphviz version 2.40.1 (20161225.0304)
 -->
<!-- Title: apt&#45;pkg/cacheset.h Pages: 1 -->
<svg width="2772pt" height="532pt"
 viewBox="0.00 0.00 2771.50 532.00" xmlns="http://www.w3.org/2000/svg" xmlns:xlink="http://www.w3.org/1999/xlink">
<g id="graph0" class="graph" transform="scale(1 1) rotate(0) translate(4 528)">
<title>apt&#45;pkg/cacheset.h</title>
<polygon fill="#ffffff" stroke="transparent" points="-4,4 -4,-528 2767.5,-528 2767.5,4 -4,4"/>
<!-- Node0 -->
<g id="node1" class="node">
<title>Node0</title>
<polygon fill="#bfbfbf" stroke="#000000" points="1869.5,-504.5 1869.5,-523.5 1979.5,-523.5 1979.5,-504.5 1869.5,-504.5"/>
<text text-anchor="middle" x="1924.5" y="-511.5" font-family="Helvetica,sans-Serif" font-size="10.00" fill="#000000">apt&#45;pkg/cacheset.h</text>
</g>
<!-- Node1 -->
<g id="node2" class="node">
<title>Node1</title>
<polygon fill="#ffffff" stroke="#bfbfbf" points="0,-448.5 0,-467.5 55,-467.5 55,-448.5 0,-448.5"/>
<text text-anchor="middle" x="27.5" y="-455.5" font-family="Helvetica,sans-Serif" font-size="10.00" fill="#000000">fstream</text>
</g>
<!-- Node0&#45;&gt;Node1 -->
<g id="edge1" class="edge">
<title>Node0&#45;&gt;Node1</title>
<path fill="none" stroke="#191970" d="M1869.3159,-513.319C1580.7426,-509.6658 251.5921,-491.6707 69.5,-468 68.2039,-467.8315 66.8895,-467.6396 65.5653,-467.4282"/>
<polygon fill="#191970" stroke="#191970" points="65.8404,-463.918 55.3632,-465.4924 64.5354,-470.7953 65.8404,-463.918"/>
</g>
<!-- Node2 -->
<g id="node3" class="node">
<title>Node2</title>
<polygon fill="#ffffff" stroke="#bfbfbf" points="657.5,-168.5 657.5,-187.5 695.5,-187.5 695.5,-168.5 657.5,-168.5"/>
<text text-anchor="middle" x="676.5" y="-175.5" font-family="Helvetica,sans-Serif" font-size="10.00" fill="#000000">map</text>
</g>
<!-- Node0&#45;&gt;Node2 -->
<g id="edge2" class="edge">
<title>Node0&#45;&gt;Node2</title>
<path fill="none" stroke="#191970" d="M1869.4377,-513.339C1603.1865,-510.015 460.9438,-494.242 435.5,-468 339.2731,-368.7544 565.7729,-235.92 648.0594,-192.4366"/>
<polygon fill="#191970" stroke="#191970" points="650.1047,-195.3171 657.348,-187.585 646.8638,-189.1124 650.1047,-195.3171"/>
</g>
<!-- Node3 -->
<g id="node4" class="node">
<title>Node3</title>
<polygon fill="#ffffff" stroke="#bfbfbf" points="1863.5,-112.5 1863.5,-131.5 1895.5,-131.5 1895.5,-112.5 1863.5,-112.5"/>
<text text-anchor="middle" x="1879.5" y="-119.5" font-family="Helvetica,sans-Serif" font-size="10.00" fill="#000000">set</text>
</g>
<!-- Node0&#45;&gt;Node3 -->
<g id="edge3" class="edge">
<title>Node0&#45;&gt;Node3</title>
<path fill="none" stroke="#191970" d="M1924.5,-504.4116C1924.5,-485.0538 1924.5,-439.9167 1924.5,-402 1924.5,-402 1924.5,-402 1924.5,-234 1924.5,-198.7698 1905.0922,-161.5087 1891.7676,-140.0783"/>
<polygon fill="#191970" stroke="#191970" points="1894.6988,-138.1655 1886.3345,-131.6623 1888.8178,-141.9621 1894.6988,-138.1655"/>
</g>
<!-- Node4 -->
<g id="node5" class="node">
<title>Node4</title>
<polygon fill="#ffffff" stroke="#bfbfbf" points="2555.5,-448.5 2555.5,-467.5 2619.5,-467.5 2619.5,-448.5 2555.5,-448.5"/>
<text text-anchor="middle" x="2587.5" y="-455.5" font-family="Helvetica,sans-Serif" font-size="10.00" fill="#000000">algorithm</text>
</g>
<!-- Node0&#45;&gt;Node4 -->
<g id="edge4" class="edge">
<title>Node0&#45;&gt;Node4</title>
<path fill="none" stroke="#191970" d="M1979.6711,-512.4694C2087.9198,-508.8971 2335.5439,-497.9146 2541.5,-468 2542.7738,-467.815 2544.065,-467.6149 2545.3666,-467.4022"/>
<polygon fill="#191970" stroke="#191970" points="2546.2224,-470.8041 2555.4336,-465.5692 2544.9684,-463.9173 2546.2224,-470.8041"/>
</g>
<!-- Node5 -->
<g id="node6" class="node">
<title>Node5</title>
<polygon fill="#ffffff" stroke="#bfbfbf" points="2638,-448.5 2638,-467.5 2685,-467.5 2685,-448.5 2638,-448.5"/>
<text text-anchor="middle" x="2661.5" y="-455.5" font-family="Helvetica,sans-Serif" font-size="10.00" fill="#000000">deque</text>
</g>
<!-- Node0&#45;&gt;Node5 -->
<g id="edge5" class="edge">
<title>Node0&#45;&gt;Node5</title>
<path fill="none" stroke="#191970" d="M1979.5881,-512.0317C2119.2774,-506.7857 2485.6692,-491.3726 2627.6368,-467.665"/>
<polygon fill="#191970" stroke="#191970" points="2628.6219,-471.0457 2637.8663,-465.8696 2627.4118,-464.1511 2628.6219,-471.0457"/>
</g>
<!-- Node6 -->
<g id="node7" class="node">
<title>Node6</title>
<polygon fill="#ffffff" stroke="#bfbfbf" points="2028,-.5 2028,-19.5 2081,-19.5 2081,-.5 2028,-.5"/>
<text text-anchor="middle" x="2054.5" y="-7.5" font-family="Helvetica,sans-Serif" font-size="10.00" fill="#000000">iterator</text>
</g>
<!-- Node0&#45;&gt;Node6 -->
<g id="edge6" class="edge">
<title>Node0&#45;&gt;Node6</title>
<path fill="none" stroke="#191970" d="M1979.6362,-512.9719C2116.2544,-509.9566 2462.4045,-499.2834 2503.5,-468 2528.3355,-449.0944 2527.5,-433.2125 2527.5,-402 2527.5,-402 2527.5,-402 2527.5,-122 2527.5,-90.7875 2528.1182,-75.1877 2503.5,-56 2471.2291,-30.8477 2192.7525,-16.1182 2091.2861,-11.5463"/>
<polygon fill="#191970" stroke="#191970" points="2091.3427,-8.0455 2081.1974,-11.0991 2091.0326,-15.0386 2091.3427,-8.0455"/>
</g>
<!-- Node7 -->
<g id="node8" class="node">
<title>Node7</title>
<polygon fill="#ffffff" stroke="#bfbfbf" points="2059.5,-112.5 2059.5,-131.5 2091.5,-131.5 2091.5,-112.5 2059.5,-112.5"/>
<text text-anchor="middle" x="2075.5" y="-119.5" font-family="Helvetica,sans-Serif" font-size="10.00" fill="#000000">list</text>
</g>
<!-- Node0&#45;&gt;Node7 -->
<g id="edge7" class="edge">
<title>Node0&#45;&gt;Node7</title>
<path fill="none" stroke="#191970" d="M1960.6683,-504.491C2005.3403,-490.3037 2075.5,-458.9557 2075.5,-402 2075.5,-402 2075.5,-402 2075.5,-234 2075.5,-201.7116 2075.5,-164.1872 2075.5,-141.8048"/>
<polygon fill="#191970" stroke="#191970" points="2079.0001,-141.5883 2075.5,-131.5884 2072.0001,-141.5884 2079.0001,-141.5883"/>
</g>
<!-- Node8 -->
<g id="node9" class="node">
<title>Node8</title>
<polygon fill="#ffffff" stroke="#bfbfbf" points="1493.5,-.5 1493.5,-19.5 1537.5,-19.5 1537.5,-.5 1493.5,-.5"/>
<text text-anchor="middle" x="1515.5" y="-7.5" font-family="Helvetica,sans-Serif" font-size="10.00" fill="#000000">string</text>
</g>
<!-- Node0&#45;&gt;Node8 -->
<g id="edge8" class="edge">
<title>Node0&#45;&gt;Node8</title>
<path fill="none" stroke="#191970" d="M1979.7033,-508.8474C2121.872,-494.8391 2489.5,-453.6245 2489.5,-402 2489.5,-402 2489.5,-402 2489.5,-122 2489.5,-43.8422 2402.7621,-73.1093 2326.5,-56 2174.2549,-21.844 1679.2726,-12.3666 1547.8065,-10.4241"/>
<polygon fill="#191970" stroke="#191970" points="1547.6457,-6.9215 1537.5966,-10.2777 1547.5453,-13.9208 1547.6457,-6.9215"/>
</g>
<!-- Node9 -->
<g id="node10" class="node">
<title>Node9</title>
<polygon fill="#ffffff" stroke="#bfbfbf" points="986,-112.5 986,-131.5 1033,-131.5 1033,-112.5 986,-112.5"/>
<text text-anchor="middle" x="1009.5" y="-119.5" font-family="Helvetica,sans-Serif" font-size="10.00" fill="#000000">vector</text>
</g>
<!-- Node0&#45;&gt;Node9 -->
<g id="edge9" class="edge">
<title>Node0&#45;&gt;Node9</title>
<path fill="none" stroke="#191970" d="M1869.2835,-512.5299C1762.1463,-509.0805 1518.8086,-498.3273 1316.5,-468 1093.0026,-434.4964 1023.089,-456.1564 820.5,-356 724.708,-308.6422 687.7962,-287.3714 648.5,-188 619.1263,-113.7204 706.847,-162.382 937.5,-132 949.9836,-130.3556 963.673,-128.4741 975.7322,-126.7899"/>
<polygon fill="#191970" stroke="#191970" points="976.4222,-130.2275 985.8387,-125.3717 975.4493,-123.2954 976.4222,-130.2275"/>
</g>
<!-- Node10 -->
<g id="node11" class="node">
<title>Node10</title>
<polygon fill="#ffffff" stroke="#bfbfbf" points="601.5,-112.5 601.5,-131.5 657.5,-131.5 657.5,-112.5 601.5,-112.5"/>
<text text-anchor="middle" x="629.5" y="-119.5" font-family="Helvetica,sans-Serif" font-size="10.00" fill="#000000">stddef.h</text>
</g>
<!-- Node0&#45;&gt;Node10 -->
<g id="edge10" class="edge">
<title>Node0&#45;&gt;Node10</title>
<path fill="none" stroke="#191970" d="M1869.4909,-513.7288C1605.902,-512.2511 482.1201,-503.8625 417.5,-468 386.6746,-450.8927 373.5,-437.2543 373.5,-402 373.5,-402 373.5,-402 373.5,-346 373.5,-231.501 520.3351,-161.9523 591.595,-134.9416"/>
<polygon fill="#191970" stroke="#191970" points="592.9632,-138.1673 601.1254,-131.4123 590.5323,-131.6029 592.9632,-138.1673"/>
</g>
<!-- Node11 -->
<g id="node12" class="node">
<title>Node11</title>
<polygon fill="#ffffff" stroke="#bfbfbf" points="1952,-112.5 1952,-131.5 2041,-131.5 2041,-112.5 1952,-112.5"/>
<text text-anchor="middle" x="1996.5" y="-119.5" font-family="Helvetica,sans-Serif" font-size="10.00" fill="#000000">apt&#45;pkg/error.h</text>
</g>
<!-- Node0&#45;&gt;Node11 -->
<g id="edge11" class="edge">
<title>Node0&#45;&gt;Node11</title>
<path fill="none" stroke="#191970" d="M1946.2875,-504.466C1979.124,-488.4478 2037.5,-452.8238 2037.5,-402 2037.5,-402 2037.5,-402 2037.5,-234 2037.5,-199.3444 2019.9755,-162.1312 2007.8408,-140.5174"/>
<polygon fill="#191970" stroke="#191970" points="2010.7886,-138.6243 2002.727,-131.7496 2004.7419,-142.1511 2010.7886,-138.6243"/>
</g>
<!-- Node12 -->
<g id="node13" class="node">
<title>Node12</title>
<polygon fill="#ffffff" stroke="#bfbfbf" points="729.5,-.5 729.5,-19.5 831.5,-19.5 831.5,-.5 729.5,-.5"/>
<text text-anchor="middle" x="780.5" y="-7.5" font-family="Helvetica,sans-Serif" font-size="10.00" fill="#000000">apt&#45;pkg/macros.h</text>
</g>
<!-- Node0&#45;&gt;Node12 -->
<g id="edge12" class="edge">
<title>Node0&#45;&gt;Node12</title>
<path fill="none" stroke="#191970" d="M1869.1563,-513.7137C1629.7589,-512.2644 682.133,-504.303 386.5,-468 249.7032,-451.2017 83.5,-539.8244 83.5,-402 83.5,-402 83.5,-402 83.5,-122 83.5,-45.8974 167.5861,-74.1203 241.5,-56 330.5754,-34.1627 597.4595,-18.8715 718.9985,-12.8484"/>
<polygon fill="#191970" stroke="#191970" points="719.4307,-16.3315 729.2471,-12.3454 719.0875,-9.3399 719.4307,-16.3315"/>
</g>
<!-- Node13 -->
<g id="node14" class="node">
<title>Node13</title>
<g id="a_node14"><a xlink:href="pkgcache_8h.xhtml" target="_top" xlink:title="pkgCache &#45; Structure definitions for the cache file ">
<polygon fill="#ffffff" stroke="#000000" points="1204,-112.5 1204,-131.5 1317,-131.5 1317,-112.5 1204,-112.5"/>
<text text-anchor="middle" x="1260.5" y="-119.5" font-family="Helvetica,sans-Serif" font-size="10.00" fill="#000000">apt&#45;pkg/pkgcache.h</text>
</a>
</g>
</g>
<!-- Node0&#45;&gt;Node13 -->
<g id="edge13" class="edge">
<title>Node0&#45;&gt;Node13</title>
<path fill="none" stroke="#191970" d="M1909.8358,-504.4587C1826.3894,-450.1802 1414.1227,-182.24 1385.5,-168 1358.5692,-154.6018 1326.7335,-142.9429 1301.9305,-134.7149"/>
<polygon fill="#191970" stroke="#191970" points="1302.7027,-131.2854 1292.1103,-131.5138 1300.5332,-137.9408 1302.7027,-131.2854"/>
</g>
<!-- Node20 -->
<g id="node21" class="node">
<title>Node20</title>
<g id="a_node21"><a xlink:href="cachefile_8h_source.xhtml" target="_top" xlink:title="apt&#45;pkg/cachefile.h">
<polygon fill="#ffffff" stroke="#000000" points="1325.5,-448.5 1325.5,-467.5 1435.5,-467.5 1435.5,-448.5 1325.5,-448.5"/>
<text text-anchor="middle" x="1380.5" y="-455.5" font-family="Helvetica,sans-Serif" font-size="10.00" fill="#000000">apt&#45;pkg/cachefile.h</text>
</a>
</g>
</g>
<!-- Node0&#45;&gt;Node20 -->
<g id="edge25" class="edge">
<title>Node0&#45;&gt;Node20</title>
<path fill="none" stroke="#191970" d="M1869.3447,-508.3222C1768.3373,-497.9244 1554.1179,-475.8724 1445.9325,-464.7357"/>
<polygon fill="#191970" stroke="#191970" points="1446.1072,-461.2353 1435.8013,-463.6928 1445.3903,-468.1985 1446.1072,-461.2353"/>
</g>
<!-- Node44 -->
<g id="node45" class="node">
<title>Node44</title>
<polygon fill="#ffffff" stroke="#bfbfbf" points="2703.5,-448.5 2703.5,-467.5 2763.5,-467.5 2763.5,-448.5 2703.5,-448.5"/>
<text text-anchor="middle" x="2733.5" y="-455.5" font-family="Helvetica,sans-Serif" font-size="10.00" fill="#000000">iostream</text>
</g>
<!-- Node0&#45;&gt;Node44 -->
<g id="edge105" class="edge">
<title>Node0&#45;&gt;Node44</title>
<path fill="none" stroke="#191970" d="M1979.6705,-512.0775C2128.6173,-506.6732 2537.5581,-490.3674 2693.0729,-467.8879"/>
<polygon fill="#191970" stroke="#191970" points="2694.0208,-471.2845 2703.3851,-466.3287 2692.9742,-464.3631 2694.0208,-471.2845"/>
</g>
<!-- Node13&#45;&gt;Node8 -->
<g id="edge16" class="edge">
<title>Node13&#45;&gt;Node8</title>
<path fill="none" stroke="#191970" d="M1317.2275,-112.857C1367.005,-104.1104 1435.0134,-90.186 1458.5,-76 1478.0325,-64.2024 1494.323,-43.4194 1504.4186,-28.3205"/>
<polygon fill="#191970" stroke="#191970" points="1507.4382,-30.0952 1509.8776,-19.785 1501.5411,-26.3236 1507.4382,-30.0952"/>
</g>
<!-- Node13&#45;&gt;Node12 -->
<g id="edge14" class="edge">
<title>Node13&#45;&gt;Node12</title>
<path fill="none" stroke="#191970" d="M1203.9342,-115.0988C1131.1633,-105.8885 1008.9574,-89.2062 965.5,-76 945.3334,-69.8716 942.1177,-63.7065 922.5,-56 889.8126,-43.1592 851.9387,-31.0226 823.53,-22.443"/>
<polygon fill="#191970" stroke="#191970" points="824.484,-19.0752 813.9003,-19.5614 822.4772,-25.7814 824.484,-19.0752"/>
</g>
<!-- Node14 -->
<g id="node15" class="node">
<title>Node14</title>
<polygon fill="#ffffff" stroke="#bfbfbf" points="1351.5,-56.5 1351.5,-75.5 1449.5,-75.5 1449.5,-56.5 1351.5,-56.5"/>
<text text-anchor="middle" x="1400.5" y="-63.5" font-family="Helvetica,sans-Serif" font-size="10.00" fill="#000000">apt&#45;pkg/mmap.h</text>
</g>
<!-- Node13&#45;&gt;Node14 -->
<g id="edge15" class="edge">
<title>Node13&#45;&gt;Node14</title>
<path fill="none" stroke="#191970" d="M1284.5669,-112.3733C1307.3428,-103.2629 1341.7344,-89.5062 1367.149,-79.3404"/>
<polygon fill="#191970" stroke="#191970" points="1368.7623,-82.4648 1376.7472,-75.5011 1366.1625,-75.9654 1368.7623,-82.4648"/>
</g>
<!-- Node15 -->
<g id="node16" class="node">
<title>Node15</title>
<polygon fill="#ffffff" stroke="#bfbfbf" points="1575,-56.5 1575,-75.5 1628,-75.5 1628,-56.5 1575,-56.5"/>
<text text-anchor="middle" x="1601.5" y="-63.5" font-family="Helvetica,sans-Serif" font-size="10.00" fill="#000000">stdint.h</text>
</g>
<!-- Node13&#45;&gt;Node15 -->
<g id="edge17" class="edge">
<title>Node13&#45;&gt;Node15</title>
<path fill="none" stroke="#191970" d="M1317.192,-112.6899C1387.4044,-101.1594 1505.0043,-81.8468 1564.551,-72.0679"/>
<polygon fill="#191970" stroke="#191970" points="1565.3255,-75.4877 1574.6261,-70.4133 1564.1911,-68.5802 1565.3255,-75.4877"/>
</g>
<!-- Node16 -->
<g id="node17" class="node">
<title>Node16</title>
<polygon fill="#ffffff" stroke="#bfbfbf" points="865.5,-56.5 865.5,-75.5 913.5,-75.5 913.5,-56.5 865.5,-56.5"/>
<text text-anchor="middle" x="889.5" y="-63.5" font-family="Helvetica,sans-Serif" font-size="10.00" fill="#000000">time.h</text>
</g>
<!-- Node13&#45;&gt;Node16 -->
<g id="edge18" class="edge">
<title>Node13&#45;&gt;Node16</title>
<path fill="none" stroke="#191970" d="M1203.8859,-116.2755C1137.3484,-109.0648 1023.7883,-95.2477 927.5,-76 926.2206,-75.7443 924.9203,-75.4709 923.6094,-75.184"/>
<polygon fill="#191970" stroke="#191970" points="924.0595,-71.6936 913.5212,-72.787 922.4412,-78.504 924.0595,-71.6936"/>
</g>
<!-- Node17 -->
<g id="node18" class="node">
<title>Node17</title>
<g id="a_node18"><a xlink:href="cacheiterators_8h_source.xhtml" target="_top" xlink:title="apt&#45;pkg/cacheiterators.h">
<polygon fill="#ffffff" stroke="#000000" points="1045.5,-56.5 1045.5,-75.5 1181.5,-75.5 1181.5,-56.5 1045.5,-56.5"/>
<text text-anchor="middle" x="1113.5" y="-63.5" font-family="Helvetica,sans-Serif" font-size="10.00" fill="#000000">apt&#45;pkg/cacheiterators.h</text>
</a>
</g>
</g>
<!-- Node13&#45;&gt;Node17 -->
<g id="edge19" class="edge">
<title>Node13&#45;&gt;Node17</title>
<path fill="none" stroke="#191970" d="M1235.2298,-112.3733C1211.1034,-103.1822 1174.5638,-89.2624 1147.8123,-79.0713"/>
<polygon fill="#191970" stroke="#191970" points="1149.0313,-75.7904 1138.4404,-75.5011 1146.5393,-82.3318 1149.0313,-75.7904"/>
</g>
<!-- Node17&#45;&gt;Node6 -->
<g id="edge22" class="edge">
<title>Node17&#45;&gt;Node6</title>
<path fill="none" stroke="#191970" d="M1181.5529,-61.9501C1366.9125,-50.9191 1876.3112,-20.6042 2017.6853,-12.1909"/>
<polygon fill="#191970" stroke="#191970" points="2018.1986,-15.6666 2027.973,-11.5787 2017.7827,-8.679 2018.1986,-15.6666"/>
</g>
<!-- Node17&#45;&gt;Node8 -->
<g id="edge23" class="edge">
<title>Node17&#45;&gt;Node8</title>
<path fill="none" stroke="#191970" d="M1181.6938,-56.5004C1269.3306,-44.2923 1417.9342,-23.5913 1483.1677,-14.504"/>
<polygon fill="#191970" stroke="#191970" points="1483.8409,-17.9441 1493.2623,-13.0978 1482.8751,-11.0111 1483.8409,-17.9441"/>
</g>
<!-- Node17&#45;&gt;Node12 -->
<g id="edge20" class="edge">
<title>Node17&#45;&gt;Node12</title>
<path fill="none" stroke="#191970" d="M1056.6336,-56.4369C996.8061,-46.3758 902.9819,-30.5976 841.6053,-20.276"/>
<polygon fill="#191970" stroke="#191970" points="842.1099,-16.8118 831.6679,-18.6048 840.949,-23.7148 842.1099,-16.8118"/>
</g>
<!-- Node18 -->
<g id="node19" class="node">
<title>Node18</title>
<polygon fill="#ffffff" stroke="#bfbfbf" points="1054,-.5 1054,-19.5 1103,-19.5 1103,-.5 1054,-.5"/>
<text text-anchor="middle" x="1078.5" y="-7.5" font-family="Helvetica,sans-Serif" font-size="10.00" fill="#000000">iosfwd</text>
</g>
<!-- Node17&#45;&gt;Node18 -->
<g id="edge21" class="edge">
<title>Node17&#45;&gt;Node18</title>
<path fill="none" stroke="#191970" d="M1107.4035,-56.2455C1102.5855,-48.5367 1095.7249,-37.5598 1089.8968,-28.2348"/>
<polygon fill="#191970" stroke="#191970" points="1092.7947,-26.2677 1084.5267,-19.6427 1086.8587,-29.9777 1092.7947,-26.2677"/>
</g>
<!-- Node19 -->
<g id="node20" class="node">
<title>Node19</title>
<polygon fill="#ffffff" stroke="#bfbfbf" points="1121,-.5 1121,-19.5 1174,-19.5 1174,-.5 1121,-.5"/>
<text text-anchor="middle" x="1147.5" y="-7.5" font-family="Helvetica,sans-Serif" font-size="10.00" fill="#000000">string.h</text>
</g>
<!-- Node17&#45;&gt;Node19 -->
<g id="edge24" class="edge">
<title>Node17&#45;&gt;Node19</title>
<path fill="none" stroke="#191970" d="M1119.4223,-56.2455C1124.1027,-48.5367 1130.7673,-37.5598 1136.4289,-28.2348"/>
<polygon fill="#191970" stroke="#191970" points="1139.4475,-30.007 1141.6455,-19.6427 1133.4639,-26.3741 1139.4475,-30.007"/>
</g>
<!-- Node20&#45;&gt;Node10 -->
<g id="edge26" class="edge">
<title>Node20&#45;&gt;Node10</title>
<path fill="none" stroke="#191970" d="M1325.4828,-456.7142C1166.8205,-452.1177 711.8056,-432.4281 587.5,-356 514.0386,-310.833 494.4881,-241.5566 539.5,-168 550.8874,-149.3911 572.4417,-138.0076 591.6018,-131.2205"/>
<polygon fill="#191970" stroke="#191970" points="592.8963,-134.4805 601.3365,-128.0764 590.7448,-127.8194 592.8963,-134.4805"/>
</g>
<!-- Node20&#45;&gt;Node12 -->
<g id="edge40" class="edge">
<title>Node20&#45;&gt;Node12</title>
<path fill="none" stroke="#191970" d="M1325.2248,-456.8974C1146.9023,-453.085 594.0301,-439.1802 518.5,-412 321.7795,-341.2083 234.5552,-318.7191 140.5,-132 136.5011,-124.0614 134.8418,-118.8554 140.5,-112 177.2345,-67.4934 566.1355,-28.8125 719.1503,-15.2045"/>
<polygon fill="#191970" stroke="#191970" points="719.6638,-18.6729 729.3171,-14.3065 719.0478,-11.7 719.6638,-18.6729"/>
</g>
<!-- Node20&#45;&gt;Node13 -->
<g id="edge41" class="edge">
<title>Node20&#45;&gt;Node13</title>
<path fill="none" stroke="#191970" d="M1382.5689,-448.4841C1389.1891,-416.3883 1408.3477,-309.3521 1389.5,-224 1383.583,-197.2049 1383.045,-187.2608 1363.5,-168 1348.1063,-152.8301 1326.8442,-142.191 1307.6337,-134.9953"/>
<polygon fill="#191970" stroke="#191970" points="1308.7055,-131.6621 1298.1107,-131.6379 1306.3779,-138.2638 1308.7055,-131.6621"/>
</g>
<!-- Node21 -->
<g id="node22" class="node">
<title>Node21</title>
<g id="a_node22"><a xlink:href="depcache_8h_source.xhtml" target="_top" xlink:title="apt&#45;pkg/depcache.h">
<polygon fill="#ffffff" stroke="#000000" points="1707,-168.5 1707,-187.5 1820,-187.5 1820,-168.5 1707,-168.5"/>
<text text-anchor="middle" x="1763.5" y="-175.5" font-family="Helvetica,sans-Serif" font-size="10.00" fill="#000000">apt&#45;pkg/depcache.h</text>
</a>
</g>
</g>
<!-- Node20&#45;&gt;Node21 -->
<g id="edge27" class="edge">
<title>Node20&#45;&gt;Node21</title>
<path fill="none" stroke="#191970" d="M1435.7506,-452.7487C1473.4607,-447.1424 1523.3059,-435.6155 1561.5,-412 1654.0142,-354.7983 1726.651,-241.5045 1752.8988,-196.7856"/>
<polygon fill="#191970" stroke="#191970" points="1756.0774,-198.2802 1758.0467,-187.8699 1750.0153,-194.7799 1756.0774,-198.2802"/>
</g>
<!-- Node26 -->
<g id="node27" class="node">
<title>Node26</title>
<g id="a_node27"><a xlink:href="acquire_8h.xhtml" target="_top" xlink:title="apt&#45;pkg/acquire.h">
<polygon fill="#ffffff" stroke="#000000" points="347.5,-168.5 347.5,-187.5 449.5,-187.5 449.5,-168.5 347.5,-168.5"/>
<text text-anchor="middle" x="398.5" y="-175.5" font-family="Helvetica,sans-Serif" font-size="10.00" fill="#000000">apt&#45;pkg/acquire.h</text>
</a>
</g>
</g>
<!-- Node20&#45;&gt;Node26 -->
<g id="edge42" class="edge">
<title>Node20&#45;&gt;Node26</title>
<path fill="none" stroke="#191970" d="M1325.3375,-456.3201C1145.08,-450.6515 583.0338,-431.4914 549.5,-412 464.557,-362.6272 419.3227,-244.195 404.2788,-197.4496"/>
<polygon fill="#191970" stroke="#191970" points="407.5473,-196.173 401.2379,-187.6618 400.8625,-198.2499 407.5473,-196.173"/>
</g>
<!-- Node32 -->
<g id="node33" class="node">
<title>Node32</title>
<g id="a_node33"><a xlink:href="policy_8h_source.xhtml" target="_top" xlink:title="apt&#45;pkg/policy.h">
<polygon fill="#ffffff" stroke="#000000" points="1517.5,-224.5 1517.5,-243.5 1611.5,-243.5 1611.5,-224.5 1517.5,-224.5"/>
<text text-anchor="middle" x="1564.5" y="-231.5" font-family="Helvetica,sans-Serif" font-size="10.00" fill="#000000">apt&#45;pkg/policy.h</text>
</a>
</g>
</g>
<!-- Node20&#45;&gt;Node32 -->
<g id="edge52" class="edge">
<title>Node20&#45;&gt;Node32</title>
<path fill="none" stroke="#191970" d="M1435.681,-448.7456C1476.2628,-440.7707 1526.6607,-428.022 1540.5,-412 1579.4926,-366.8578 1573.6118,-289.7879 1568.1482,-253.7133"/>
<polygon fill="#191970" stroke="#191970" points="1571.5475,-252.8197 1566.4464,-243.5338 1564.6433,-253.974 1571.5475,-252.8197"/>
</g>
<!-- Node34 -->
<g id="node35" class="node">
<title>Node34</title>
<g id="a_node35"><a xlink:href="sourcelist_8h_source.xhtml" target="_top" xlink:title="apt&#45;pkg/sourcelist.h">
<polygon fill="#ffffff" stroke="#000000" points="1193,-392.5 1193,-411.5 1306,-411.5 1306,-392.5 1193,-392.5"/>
<text text-anchor="middle" x="1249.5" y="-399.5" font-family="Helvetica,sans-Serif" font-size="10.00" fill="#000000">apt&#45;pkg/sourcelist.h</text>
</a>
</g>
</g>
<!-- Node20&#45;&gt;Node34 -->
<g id="edge60" class="edge">
<title>Node20&#45;&gt;Node34</title>
<path fill="none" stroke="#191970" d="M1357.9803,-448.3733C1336.7628,-439.3032 1304.7724,-425.6279 1281.0231,-415.4755"/>
<polygon fill="#191970" stroke="#191970" points="1282.2967,-412.2136 1271.7258,-411.5011 1279.5452,-418.6502 1282.2967,-412.2136"/>
</g>
<!-- Node21&#45;&gt;Node3 -->
<g id="edge38" class="edge">
<title>Node21&#45;&gt;Node3</title>
<path fill="none" stroke="#191970" d="M1783.4411,-168.3733C1802.9898,-158.936 1832.8658,-144.5131 1854.1035,-134.2604"/>
<polygon fill="#191970" stroke="#191970" points="1855.7016,-137.3755 1863.1854,-129.876 1852.6583,-131.0716 1855.7016,-137.3755"/>
</g>
<!-- Node21&#45;&gt;Node7 -->
<g id="edge32" class="edge">
<title>Node21&#45;&gt;Node7</title>
<path fill="none" stroke="#191970" d="M1820.1121,-172.6707C1876.4069,-166.5367 1965.1805,-154.6098 2049.5405,-131.7806"/>
<polygon fill="#191970" stroke="#191970" points="2050.5653,-135.1287 2059.2723,-129.0923 2048.7014,-128.3814 2050.5653,-135.1287"/>
</g>
<!-- Node21&#45;&gt;Node8 -->
<g id="edge34" class="edge">
<title>Node21&#45;&gt;Node8</title>
<path fill="none" stroke="#191970" d="M1750.348,-168.3118C1738.4778,-159.3555 1720.7441,-145.439 1706.5,-132 1673.316,-100.6918 1675.2281,-81.651 1637.5,-56 1609.7368,-37.1241 1573.1944,-24.68 1547.3635,-17.5508"/>
<polygon fill="#191970" stroke="#191970" points="1548.2515,-14.1654 1537.6888,-14.9901 1546.4603,-20.9324 1548.2515,-14.1654"/>
</g>
<!-- Node21&#45;&gt;Node9 -->
<g id="edge39" class="edge">
<title>Node21&#45;&gt;Node9</title>
<path fill="none" stroke="#191970" d="M1706.8177,-168.9861C1704.0081,-168.6314 1701.2237,-168.2999 1698.5,-168 1569.0907,-153.7522 1163.3172,-130.5692 1043.2742,-123.8683"/>
<polygon fill="#191970" stroke="#191970" points="1043.3805,-120.3689 1033.2013,-123.3073 1042.9912,-127.3581 1043.3805,-120.3689"/>
</g>
<!-- Node21&#45;&gt;Node10 -->
<g id="edge31" class="edge">
<title>Node21&#45;&gt;Node10</title>
<path fill="none" stroke="#191970" d="M1706.8266,-168.8995C1704.0147,-168.5677 1701.2274,-168.2647 1698.5,-168 1308.893,-130.1805 1209.5083,-150.3414 818.5,-132 766.2971,-129.5513 706.008,-126.2854 667.8297,-124.1629"/>
<polygon fill="#191970" stroke="#191970" points="667.8524,-120.6588 657.6729,-123.5961 667.4624,-127.6479 667.8524,-120.6588"/>
</g>
<!-- Node21&#45;&gt;Node11 -->
<g id="edge36" class="edge">
<title>Node21&#45;&gt;Node11</title>
<path fill="none" stroke="#191970" d="M1803.2894,-168.4369C1842.998,-158.8932 1904.1104,-144.2052 1946.9455,-133.9101"/>
<polygon fill="#191970" stroke="#191970" points="1947.9695,-137.2637 1956.8747,-131.5237 1946.3337,-130.4575 1947.9695,-137.2637"/>
</g>
<!-- Node21&#45;&gt;Node12 -->
<g id="edge29" class="edge">
<title>Node21&#45;&gt;Node12</title>
<path fill="none" stroke="#191970" d="M1706.7951,-169.1682C1703.9915,-168.7654 1701.2146,-168.3738 1698.5,-168 1567.2139,-149.9221 1532.7004,-156.713 1402.5,-132 1367.7624,-125.4066 1360.2691,-118.4251 1325.5,-112 1183.8948,-85.8323 1142.4842,-113.6853 1003.5,-76 982.3764,-70.2724 979.1657,-63.2071 958.5,-56 918.1777,-41.9377 871.3835,-30.0096 835.8959,-21.826"/>
<polygon fill="#191970" stroke="#191970" points="836.2617,-18.3198 825.7343,-19.5135 834.7084,-25.1453 836.2617,-18.3198"/>
</g>
<!-- Node21&#45;&gt;Node13 -->
<g id="edge30" class="edge">
<title>Node21&#45;&gt;Node13</title>
<path fill="none" stroke="#191970" d="M1706.8054,-169.0904C1703.999,-168.7082 1701.2187,-168.3422 1698.5,-168 1535.8892,-147.5317 1494.2378,-151.4333 1331.5,-132 1330.0322,-131.8247 1328.5478,-131.6442 1327.0516,-131.4593"/>
<polygon fill="#191970" stroke="#191970" points="1327.4157,-127.9775 1317.0533,-130.1842 1326.5302,-134.9212 1327.4157,-127.9775"/>
</g>
<!-- Node22 -->
<g id="node23" class="node">
<title>Node22</title>
<polygon fill="#ffffff" stroke="#bfbfbf" points="1715.5,-112.5 1715.5,-131.5 1845.5,-131.5 1845.5,-112.5 1715.5,-112.5"/>
<text text-anchor="middle" x="1780.5" y="-119.5" font-family="Helvetica,sans-Serif" font-size="10.00" fill="#000000">apt&#45;pkg/configuration.h</text>
</g>
<!-- Node21&#45;&gt;Node22 -->
<g id="edge28" class="edge">
<title>Node21&#45;&gt;Node22</title>
<path fill="none" stroke="#191970" d="M1766.4612,-168.2455C1768.7038,-160.8579 1771.8577,-150.4689 1774.6081,-141.4087"/>
<polygon fill="#191970" stroke="#191970" points="1778.017,-142.2282 1777.5728,-131.6427 1771.3188,-140.1948 1778.017,-142.2282"/>
</g>
<!-- Node23 -->
<g id="node24" class="node">
<title>Node23</title>
<polygon fill="#ffffff" stroke="#bfbfbf" points="1537.5,-112.5 1537.5,-131.5 1595.5,-131.5 1595.5,-112.5 1537.5,-112.5"/>
<text text-anchor="middle" x="1566.5" y="-119.5" font-family="Helvetica,sans-Serif" font-size="10.00" fill="#000000">memory</text>
</g>
<!-- Node21&#45;&gt;Node23 -->
<g id="edge33" class="edge">
<title>Node21&#45;&gt;Node23</title>
<path fill="none" stroke="#191970" d="M1729.6345,-168.3733C1695.1437,-158.5688 1641.7228,-143.3831 1605.4886,-133.0831"/>
<polygon fill="#191970" stroke="#191970" points="1606.3304,-129.6837 1595.7545,-130.316 1604.4163,-136.417 1606.3304,-129.6837"/>
</g>
<!-- Node24 -->
<g id="node25" class="node">
<title>Node24</title>
<polygon fill="#ffffff" stroke="#bfbfbf" points="1614,-112.5 1614,-131.5 1659,-131.5 1659,-112.5 1614,-112.5"/>
<text text-anchor="middle" x="1636.5" y="-119.5" font-family="Helvetica,sans-Serif" font-size="10.00" fill="#000000">utility</text>
</g>
<!-- Node21&#45;&gt;Node24 -->
<g id="edge35" class="edge">
<title>Node21&#45;&gt;Node24</title>
<path fill="none" stroke="#191970" d="M1741.6679,-168.3733C1721.1897,-159.3435 1690.3601,-145.7494 1667.3681,-135.6111"/>
<polygon fill="#191970" stroke="#191970" points="1668.6093,-132.3333 1658.0472,-131.5011 1665.785,-138.7383 1668.6093,-132.3333"/>
</g>
<!-- Node25 -->
<g id="node26" class="node">
<title>Node25</title>
<polygon fill="#ffffff" stroke="#bfbfbf" points="1411.5,-112.5 1411.5,-131.5 1519.5,-131.5 1519.5,-112.5 1411.5,-112.5"/>
<text text-anchor="middle" x="1465.5" y="-119.5" font-family="Helvetica,sans-Serif" font-size="10.00" fill="#000000">apt&#45;pkg/progress.h</text>
</g>
<!-- Node21&#45;&gt;Node25 -->
<g id="edge37" class="edge">
<title>Node21&#45;&gt;Node25</title>
<path fill="none" stroke="#191970" d="M1712.6106,-168.4369C1660.9673,-158.7321 1581.0174,-143.708 1526.1251,-133.3926"/>
<polygon fill="#191970" stroke="#191970" points="1526.6539,-129.9308 1516.1795,-131.5237 1525.3611,-136.8104 1526.6539,-129.9308"/>
</g>
<!-- Node26&#45;&gt;Node8 -->
<g id="edge46" class="edge">
<title>Node26&#45;&gt;Node8</title>
<path fill="none" stroke="#191970" d="M438.6702,-168.4914C470.623,-160.3746 516.1715,-147.5589 554.5,-132 572.1838,-124.8215 574.118,-117.133 592.5,-112 848.9484,-40.3896 936.3303,-155.3196 1190.5,-76 1206.8713,-70.8909 1207.393,-61.8897 1223.5,-56 1313.6462,-23.0372 1427.9312,-13.6859 1482.9671,-11.0398"/>
<polygon fill="#191970" stroke="#191970" points="1483.3218,-14.5277 1493.1596,-10.595 1483.0165,-7.5344 1483.3218,-14.5277"/>
</g>
<!-- Node26&#45;&gt;Node9 -->
<g id="edge47" class="edge">
<title>Node26&#45;&gt;Node9</title>
<path fill="none" stroke="#191970" d="M449.8682,-174.5247C545.8254,-167.8309 758.768,-152.0245 937.5,-132 950.0131,-130.5981 963.7091,-128.7699 975.7652,-127.0608"/>
<polygon fill="#191970" stroke="#191970" points="976.4693,-130.4955 985.8669,-125.6031 975.4695,-123.5673 976.4693,-130.4955"/>
</g>
<!-- Node26&#45;&gt;Node10 -->
<g id="edge48" class="edge">
<title>Node26&#45;&gt;Node10</title>
<path fill="none" stroke="#191970" d="M437.9478,-168.4369C480.9229,-158.0187 549.1851,-141.4703 591.5582,-131.198"/>
<polygon fill="#191970" stroke="#191970" points="592.5889,-134.5496 601.4828,-128.7921 590.9396,-127.7467 592.5889,-134.5496"/>
</g>
<!-- Node26&#45;&gt;Node12 -->
<g id="edge44" class="edge">
<title>Node26&#45;&gt;Node12</title>
<path fill="none" stroke="#191970" d="M389.9382,-168.0762C379.0856,-154.244 363.2889,-128.9611 376.5,-112 418.2946,-58.3418 616.6669,-28.4778 719.0419,-16.4037"/>
<polygon fill="#191970" stroke="#191970" points="719.7089,-19.8499 729.2397,-15.2224 718.9033,-12.8964 719.7089,-19.8499"/>
</g>
<!-- Node27 -->
<g id="node28" class="node">
<title>Node27</title>
<polygon fill="#ffffff" stroke="#bfbfbf" points="828,-112.5 828,-131.5 929,-131.5 929,-112.5 828,-112.5"/>
<text text-anchor="middle" x="878.5" y="-119.5" font-family="Helvetica,sans-Serif" font-size="10.00" fill="#000000">apt&#45;pkg/hashes.h</text>
</g>
<!-- Node26&#45;&gt;Node27 -->
<g id="edge43" class="edge">
<title>Node26&#45;&gt;Node27</title>
<path fill="none" stroke="#191970" d="M449.8684,-172.007C539.1236,-161.5939 722.4079,-140.2107 817.7942,-129.0823"/>
<polygon fill="#191970" stroke="#191970" points="818.3351,-132.5431 827.8621,-127.9078 817.5239,-125.5902 818.3351,-132.5431"/>
</g>
<!-- Node28 -->
<g id="node29" class="node">
<title>Node28</title>
<polygon fill="#ffffff" stroke="#bfbfbf" points="224,-112.5 224,-131.5 329,-131.5 329,-112.5 224,-112.5"/>
<text text-anchor="middle" x="276.5" y="-119.5" font-family="Helvetica,sans-Serif" font-size="10.00" fill="#000000">apt&#45;pkg/weakptr.h</text>
</g>
<!-- Node26&#45;&gt;Node28 -->
<g id="edge45" class="edge">
<title>Node26&#45;&gt;Node28</title>
<path fill="none" stroke="#191970" d="M377.5275,-168.3733C357.9433,-159.3838 328.5039,-145.8706 306.449,-135.7471"/>
<polygon fill="#191970" stroke="#191970" points="307.7473,-132.4919 297.1989,-131.5011 304.8271,-138.8538 307.7473,-132.4919"/>
</g>
<!-- Node29 -->
<g id="node30" class="node">
<title>Node29</title>
<polygon fill="#ffffff" stroke="#bfbfbf" points="385.5,-112.5 385.5,-131.5 459.5,-131.5 459.5,-112.5 385.5,-112.5"/>
<text text-anchor="middle" x="422.5" y="-119.5" font-family="Helvetica,sans-Serif" font-size="10.00" fill="#000000">sys/select.h</text>
</g>
<!-- Node26&#45;&gt;Node29 -->
<g id="edge49" class="edge">
<title>Node26&#45;&gt;Node29</title>
<path fill="none" stroke="#191970" d="M402.6805,-168.2455C405.881,-160.7776 410.396,-150.2427 414.3084,-141.1137"/>
<polygon fill="#191970" stroke="#191970" points="417.6452,-142.2129 418.3674,-131.6427 411.2112,-139.4554 417.6452,-142.2129"/>
</g>
<!-- Node30 -->
<g id="node31" class="node">
<title>Node30</title>
<polygon fill="#ffffff" stroke="#bfbfbf" points="477.5,-112.5 477.5,-131.5 545.5,-131.5 545.5,-112.5 477.5,-112.5"/>
<text text-anchor="middle" x="511.5" y="-119.5" font-family="Helvetica,sans-Serif" font-size="10.00" fill="#000000">sys/time.h</text>
</g>
<!-- Node26&#45;&gt;Node30 -->
<g id="edge50" class="edge">
<title>Node26&#45;&gt;Node30</title>
<path fill="none" stroke="#191970" d="M417.9254,-168.3733C435.9021,-159.4644 462.8441,-146.1127 483.209,-136.0203"/>
<polygon fill="#191970" stroke="#191970" points="484.9222,-139.0776 492.3281,-131.5011 481.8139,-132.8055 484.9222,-139.0776"/>
</g>
<!-- Node31 -->
<g id="node32" class="node">
<title>Node31</title>
<polygon fill="#ffffff" stroke="#bfbfbf" points="149.5,-112.5 149.5,-131.5 205.5,-131.5 205.5,-112.5 149.5,-112.5"/>
<text text-anchor="middle" x="177.5" y="-119.5" font-family="Helvetica,sans-Serif" font-size="10.00" fill="#000000">unistd.h</text>
</g>
<!-- Node26&#45;&gt;Node31 -->
<g id="edge51" class="edge">
<title>Node26&#45;&gt;Node31</title>
<path fill="none" stroke="#191970" d="M359.3207,-168.4337C324.1447,-159.7939 270.8387,-146.576 215.7127,-132.2841"/>
<polygon fill="#191970" stroke="#191970" points="216.326,-128.8273 205.7671,-129.699 214.565,-135.6022 216.326,-128.8273"/>
</g>
<!-- Node32&#45;&gt;Node8 -->
<g id="edge58" class="edge">
<title>Node32&#45;&gt;Node8</title>
<path fill="none" stroke="#191970" d="M1611.7494,-232.0589C1740.9039,-226.5286 2097.9,-209.6819 2213.5,-188 2299.2529,-171.9162 2451.5319,-178.0273 2394.5,-112 2337.9264,-46.5032 1699.8785,-17.2803 1547.8665,-11.2202"/>
<polygon fill="#191970" stroke="#191970" points="1547.906,-7.7192 1537.7763,-10.8237 1547.6311,-14.7138 1547.906,-7.7192"/>
</g>
<!-- Node32&#45;&gt;Node9 -->
<g id="edge59" class="edge">
<title>Node32&#45;&gt;Node9</title>
<path fill="none" stroke="#191970" d="M1517.181,-224.4509C1407.3977,-202.2965 1137.5371,-147.8381 1042.9289,-128.746"/>
<polygon fill="#191970" stroke="#191970" points="1043.5404,-125.2989 1033.0456,-126.7516 1042.1557,-132.1606 1043.5404,-125.2989"/>
</g>
<!-- Node32&#45;&gt;Node13 -->
<g id="edge54" class="edge">
<title>Node32&#45;&gt;Node13</title>
<path fill="none" stroke="#191970" d="M1558.3824,-224.0935C1548.6919,-209.3144 1528.3398,-181.7615 1503.5,-168 1488.1833,-159.5144 1393.7194,-143.1653 1327.1943,-132.4196"/>
<polygon fill="#191970" stroke="#191970" points="1327.6133,-128.9421 1317.1846,-130.8108 1326.5024,-135.8534 1327.6133,-128.9421"/>
</g>
<!-- Node32&#45;&gt;Node21 -->
<g id="edge53" class="edge">
<title>Node32&#45;&gt;Node21</title>
<path fill="none" stroke="#191970" d="M1598.7093,-224.3733C1632.2297,-214.9404 1683.4505,-200.5265 1719.881,-190.2747"/>
<polygon fill="#191970" stroke="#191970" points="1721.0591,-193.5792 1729.7371,-187.5011 1719.1628,-186.8409 1721.0591,-193.5792"/>
</g>
<!-- Node33 -->
<g id="node34" class="node">
<title>Node33</title>
<g id="a_node34"><a xlink:href="versionmatch_8h_source.xhtml" target="_top" xlink:title="apt&#45;pkg/versionmatch.h">
<polygon fill="#ffffff" stroke="#000000" points="1556,-168.5 1556,-187.5 1689,-187.5 1689,-168.5 1556,-168.5"/>
<text text-anchor="middle" x="1622.5" y="-175.5" font-family="Helvetica,sans-Serif" font-size="10.00" fill="#000000">apt&#45;pkg/versionmatch.h</text>
</a>
</g>
</g>
<!-- Node32&#45;&gt;Node33 -->
<g id="edge55" class="edge">
<title>Node32&#45;&gt;Node33</title>
<path fill="none" stroke="#191970" d="M1574.6028,-224.2455C1583.0028,-216.1352 1595.1494,-204.4075 1605.1084,-194.7919"/>
<polygon fill="#191970" stroke="#191970" points="1607.75,-197.1066 1612.5129,-187.6427 1602.8878,-192.0707 1607.75,-197.1066"/>
</g>
<!-- Node33&#45;&gt;Node8 -->
<g id="edge57" class="edge">
<title>Node33&#45;&gt;Node8</title>
<path fill="none" stroke="#191970" d="M1556.4684,-168.4665C1495.2985,-158.9605 1412.3119,-144.0757 1402.5,-132 1365.9899,-87.0664 1438.4902,-120.8547 1484.5,-76 1497.502,-63.3244 1505.666,-44.1332 1510.3316,-29.7071"/>
<polygon fill="#191970" stroke="#191970" points="1513.784,-30.372 1513.2398,-19.7911 1507.0669,-28.402 1513.784,-30.372"/>
</g>
<!-- Node33&#45;&gt;Node13 -->
<g id="edge56" class="edge">
<title>Node33&#45;&gt;Node13</title>
<path fill="none" stroke="#191970" d="M1560.6813,-168.4369C1495.6635,-158.3789 1393.7109,-142.6072 1326.9881,-132.2854"/>
<polygon fill="#191970" stroke="#191970" points="1327.4183,-128.8105 1317.0008,-130.7404 1326.3481,-135.7282 1327.4183,-128.8105"/>
</g>
<!-- Node34&#45;&gt;Node2 -->
<g id="edge64" class="edge">
<title>Node34&#45;&gt;Node2</title>
<path fill="none" stroke="#191970" d="M1192.932,-399.481C1099.2062,-394.626 916.2136,-382.0666 857.5,-356 778.032,-320.7192 713.5543,-234.1064 688.1566,-196.2297"/>
<polygon fill="#191970" stroke="#191970" points="690.9743,-194.1443 682.5563,-187.711 685.1251,-197.9897 690.9743,-194.1443"/>
</g>
<!-- Node34&#45;&gt;Node8 -->
<g id="edge65" class="edge">
<title>Node34&#45;&gt;Node8</title>
<path fill="none" stroke="#191970" d="M1306.0487,-398.9198C1522.6525,-385.7312 2293.3927,-325.5695 2413.5,-132 2469.8193,-41.2338 2511.7393,-107.8496 2245.5,-56 2108.928,-29.4029 1671.2691,-14.6341 1548.0561,-10.9323"/>
<polygon fill="#191970" stroke="#191970" points="1547.8756,-7.4255 1537.7761,-10.6273 1547.6679,-14.4224 1547.8756,-7.4255"/>
</g>
<!-- Node34&#45;&gt;Node9 -->
<g id="edge66" class="edge">
<title>Node34&#45;&gt;Node9</title>
<path fill="none" stroke="#191970" d="M1192.8697,-395.2496C1131.035,-387.2022 1036.5355,-372.7217 1004.5,-356 941.5339,-323.1334 917.9712,-309.5002 890.5,-244 887.0621,-235.8029 886.7857,-232.0757 890.5,-224 909.0701,-183.6245 952.3813,-153.2504 981.3062,-136.55"/>
<polygon fill="#191970" stroke="#191970" points="983.1197,-139.5461 990.1423,-131.613 979.7053,-133.4352 983.1197,-139.5461"/>
</g>
<!-- Node34&#45;&gt;Node12 -->
<g id="edge61" class="edge">
<title>Node34&#45;&gt;Node12</title>
<path fill="none" stroke="#191970" d="M1192.9395,-399.9376C1092.2713,-395.6095 886.3944,-383.6016 820.5,-356 711.8489,-310.4887 665.9022,-294.4705 615.5,-188 601.0964,-157.5735 641.1245,-154.1205 666.5,-132 705.398,-98.0915 745.3216,-52.3503 766.0363,-27.6279"/>
<polygon fill="#191970" stroke="#191970" points="768.8303,-29.7419 772.5291,-19.8137 763.4463,-25.2683 768.8303,-29.7419"/>
</g>
<!-- Node34&#45;&gt;Node13 -->
<g id="edge62" class="edge">
<title>Node34&#45;&gt;Node13</title>
<path fill="none" stroke="#191970" d="M1275.6073,-392.4341C1312.5135,-377.0279 1375.5,-342.9747 1375.5,-290 1375.5,-290 1375.5,-290 1375.5,-234 1375.5,-187.2547 1326.1324,-153.6844 1292.0883,-136.0917"/>
<polygon fill="#191970" stroke="#191970" points="1293.4598,-132.8651 1282.9462,-131.5557 1290.3485,-139.1357 1293.4598,-132.8651"/>
</g>
<!-- Node34&#45;&gt;Node16 -->
<g id="edge63" class="edge">
<title>Node34&#45;&gt;Node16</title>
<path fill="none" stroke="#191970" d="M1251.0934,-392.268C1255.2071,-363.977 1263.6737,-280.2046 1230.5,-224 1184.8865,-146.7191 1144.9483,-147.4289 1062.5,-112 1004.8488,-87.2267 983.8068,-93.9928 923.164,-77.2313"/>
<polygon fill="#191970" stroke="#191970" points="924.079,-73.8527 913.5014,-74.4566 922.1468,-80.5808 924.079,-73.8527"/>
</g>
<!-- Node35 -->
<g id="node36" class="node">
<title>Node35</title>
<g id="a_node36"><a xlink:href="tagfile_8h_source.xhtml" target="_top" xlink:title="apt&#45;pkg/tagfile.h">
<polygon fill="#ffffff" stroke="#000000" points="2107,-168.5 2107,-187.5 2204,-187.5 2204,-168.5 2107,-168.5"/>
<text text-anchor="middle" x="2155.5" y="-175.5" font-family="Helvetica,sans-Serif" font-size="10.00" fill="#000000">apt&#45;pkg/tagfile.h</text>
</a>
</g>
</g>
<!-- Node34&#45;&gt;Node35 -->
<g id="edge67" class="edge">
<title>Node34&#45;&gt;Node35</title>
<path fill="none" stroke="#191970" d="M1288.1399,-392.4467C1433.3105,-356.5546 1945.9955,-229.798 2106.8488,-190.0285"/>
<polygon fill="#191970" stroke="#191970" points="2108.0599,-193.3346 2116.9275,-187.5367 2106.3797,-186.5392 2108.0599,-193.3346"/>
</g>
<!-- Node38 -->
<g id="node39" class="node">
<title>Node38</title>
<g id="a_node39"><a xlink:href="metaindex_8h_source.xhtml" target="_top" xlink:title="apt&#45;pkg/metaindex.h">
<polygon fill="#ffffff" stroke="#000000" points="1014,-336.5 1014,-355.5 1133,-355.5 1133,-336.5 1014,-336.5"/>
<text text-anchor="middle" x="1073.5" y="-343.5" font-family="Helvetica,sans-Serif" font-size="10.00" fill="#000000">apt&#45;pkg/metaindex.h</text>
</a>
</g>
</g>
<!-- Node34&#45;&gt;Node38 -->
<g id="edge75" class="edge">
<title>Node34&#45;&gt;Node38</title>
<path fill="none" stroke="#191970" d="M1219.2445,-392.3733C1189.8517,-383.021 1145.0708,-368.7725 1112.9066,-358.5385"/>
<polygon fill="#191970" stroke="#191970" points="1113.9512,-355.198 1103.3607,-355.5011 1111.8287,-361.8685 1113.9512,-355.198"/>
</g>
<!-- Node35&#45;&gt;Node7 -->
<g id="edge71" class="edge">
<title>Node35&#45;&gt;Node7</title>
<path fill="none" stroke="#191970" d="M2141.5651,-168.2455C2129.4053,-159.7337 2111.5536,-147.2375 2097.4715,-137.3801"/>
<polygon fill="#191970" stroke="#191970" points="2099.4747,-134.51 2089.2752,-131.6427 2095.4605,-140.2447 2099.4747,-134.51"/>
</g>
<!-- Node35&#45;&gt;Node8 -->
<g id="edge72" class="edge">
<title>Node35&#45;&gt;Node8</title>
<path fill="none" stroke="#191970" d="M2158.6606,-168.2892C2162.5682,-154.2543 2167.2558,-128.2104 2154.5,-112 2116.318,-63.4774 1672.472,-23.0715 1547.8559,-12.6256"/>
<polygon fill="#191970" stroke="#191970" points="1548.0469,-9.1295 1537.7913,-11.7892 1547.467,-16.1055 1548.0469,-9.1295"/>
</g>
<!-- Node35&#45;&gt;Node9 -->
<g id="edge73" class="edge">
<title>Node35&#45;&gt;Node9</title>
<path fill="none" stroke="#191970" d="M2106.995,-175.7842C1966.0568,-169.323 1544.3941,-149.8306 1194.5,-132 1141.7269,-129.3107 1080.4996,-125.9548 1043.4017,-123.8954"/>
<polygon fill="#191970" stroke="#191970" points="1043.3313,-120.3862 1033.1523,-123.3253 1042.9425,-127.3754 1043.3313,-120.3862"/>
</g>
<!-- Node35&#45;&gt;Node12 -->
<g id="edge68" class="edge">
<title>Node35&#45;&gt;Node12</title>
<path fill="none" stroke="#191970" d="M2150.7457,-168.1363C2142.7804,-152.879 2125.1529,-124.0593 2100.5,-112 1994.2417,-60.0224 1151.2908,-104.558 1036.5,-76 1016.8251,-71.1052 1014.6655,-62.6141 995.5,-56 944.9523,-38.5556 885.3445,-26.4284 841.7288,-19.0227"/>
<polygon fill="#191970" stroke="#191970" points="842.2782,-15.5661 831.8394,-17.3778 841.1296,-22.4712 842.2782,-15.5661"/>
</g>
<!-- Node35&#45;&gt;Node15 -->
<g id="edge69" class="edge">
<title>Node35&#45;&gt;Node15</title>
<path fill="none" stroke="#191970" d="M2155.3751,-168.0556C2154.5992,-153.2269 2150.7622,-125.6101 2133.5,-112 2094.7554,-81.4524 1752.5631,-69.9003 1638.3936,-66.8755"/>
<polygon fill="#191970" stroke="#191970" points="1638.1617,-63.3684 1628.0746,-66.609 1637.9809,-70.3661 1638.1617,-63.3684"/>
</g>
<!-- Node36 -->
<g id="node37" class="node">
<title>Node36</title>
<polygon fill="#ffffff" stroke="#bfbfbf" points="2335.5,-112.5 2335.5,-131.5 2385.5,-131.5 2385.5,-112.5 2335.5,-112.5"/>
<text text-anchor="middle" x="2360.5" y="-119.5" font-family="Helvetica,sans-Serif" font-size="10.00" fill="#000000">stdio.h</text>
</g>
<!-- Node35&#45;&gt;Node36 -->
<g id="edge70" class="edge">
<title>Node35&#45;&gt;Node36</title>
<path fill="none" stroke="#191970" d="M2191.9276,-168.4634C2224.5617,-159.8615 2273.972,-146.6946 2325.6046,-132.2111"/>
<polygon fill="#191970" stroke="#191970" points="2326.5896,-135.5699 2335.2678,-129.4921 2324.6936,-128.8315 2326.5896,-135.5699"/>
</g>
<!-- Node37 -->
<g id="node38" class="node">
<title>Node37</title>
<polygon fill="#ffffff" stroke="#bfbfbf" points="2223.5,-112.5 2223.5,-131.5 2317.5,-131.5 2317.5,-112.5 2223.5,-112.5"/>
<text text-anchor="middle" x="2270.5" y="-119.5" font-family="Helvetica,sans-Serif" font-size="10.00" fill="#000000">apt&#45;pkg/fileutl.h</text>
</g>
<!-- Node35&#45;&gt;Node37 -->
<g id="edge74" class="edge">
<title>Node35&#45;&gt;Node37</title>
<path fill="none" stroke="#191970" d="M2175.2692,-168.3733C2193.6469,-159.4241 2221.2312,-145.9917 2241.9893,-135.8835"/>
<polygon fill="#191970" stroke="#191970" points="2243.5304,-139.026 2250.9888,-131.5011 2240.4657,-132.7325 2243.5304,-139.026"/>
</g>
<!-- Node38&#45;&gt;Node8 -->
<g id="edge100" class="edge">
<title>Node38&#45;&gt;Node8</title>
<path fill="none" stroke="#191970" d="M1133.1834,-342.0666C1313.1819,-328.6358 1842.1706,-277.0954 1904.5,-132 1908.0084,-123.8328 1909.9301,-119.0375 1904.5,-112 1860.3265,-54.7504 1632.9552,-23.3664 1547.7735,-13.472"/>
<polygon fill="#191970" stroke="#191970" points="1547.9813,-9.9732 1537.6496,-12.3201 1547.1898,-16.9283 1547.9813,-9.9732"/>
</g>
<!-- Node38&#45;&gt;Node9 -->
<g id="edge101" class="edge">
<title>Node38&#45;&gt;Node9</title>
<path fill="none" stroke="#191970" d="M1069.6596,-336.1962C1061.2243,-315.0646 1039.9517,-263.9085 1016.5,-224 1006.5007,-206.984 996.5723,-206.7792 990.5,-188 985.4133,-172.269 991.4106,-154.217 997.9774,-140.973"/>
<polygon fill="#191970" stroke="#191970" points="1001.2112,-142.3541 1002.9359,-131.9005 995.0687,-138.9969 1001.2112,-142.3541"/>
</g>
<!-- Node38&#45;&gt;Node10 -->
<g id="edge99" class="edge">
<title>Node38&#45;&gt;Node10</title>
<path fill="none" stroke="#191970" d="M1021.6595,-336.4734C911.3242,-314.9664 659.6942,-258.9479 615.5,-188 606.6294,-173.7594 612.0679,-154.793 618.5802,-140.847"/>
<polygon fill="#191970" stroke="#191970" points="621.8182,-142.2063 623.3228,-131.7188 615.6065,-138.979 621.8182,-142.2063"/>
</g>
<!-- Node38&#45;&gt;Node13 -->
<g id="edge102" class="edge">
<title>Node38&#45;&gt;Node13</title>
<path fill="none" stroke="#191970" d="M1118.4854,-336.4768C1144.6913,-329.4079 1177.4075,-317.8459 1202.5,-300 1254.539,-262.9896 1271.2971,-248.2351 1292.5,-188 1298.535,-170.8552 1287.8925,-152.3114 1277.2937,-139.2585"/>
<polygon fill="#191970" stroke="#191970" points="1279.7423,-136.7427 1270.5108,-131.5436 1274.4852,-141.3648 1279.7423,-136.7427"/>
</g>
<!-- Node39 -->
<g id="node40" class="node">
<title>Node39</title>
<g id="a_node40"><a xlink:href="indexfile_8h_source.xhtml" target="_top" xlink:title="apt&#45;pkg/indexfile.h">
<polygon fill="#ffffff" stroke="#000000" points="899.5,-224.5 899.5,-243.5 1007.5,-243.5 1007.5,-224.5 899.5,-224.5"/>
<text text-anchor="middle" x="953.5" y="-231.5" font-family="Helvetica,sans-Serif" font-size="10.00" fill="#000000">apt&#45;pkg/indexfile.h</text>
</a>
</g>
</g>
<!-- Node38&#45;&gt;Node39 -->
<g id="edge76" class="edge">
<title>Node38&#45;&gt;Node39</title>
<path fill="none" stroke="#191970" d="M1062.2085,-336.2769C1051.5843,-327.0663 1035.2917,-312.7805 1021.5,-300 1003.7461,-283.5478 983.9392,-264.207 970.3029,-250.7317"/>
<polygon fill="#191970" stroke="#191970" points="972.6154,-248.0958 963.0493,-243.5417 967.6875,-253.0673 972.6154,-248.0958"/>
</g>
<!-- Node40 -->
<g id="node41" class="node">
<title>Node40</title>
<g id="a_node41"><a xlink:href="pkgrecords_8h_source.xhtml" target="_top" xlink:title="apt&#45;pkg/pkgrecords.h">
<polygon fill="#ffffff" stroke="#000000" points="999.5,-168.5 999.5,-187.5 1119.5,-187.5 1119.5,-168.5 999.5,-168.5"/>
<text text-anchor="middle" x="1059.5" y="-175.5" font-family="Helvetica,sans-Serif" font-size="10.00" fill="#000000">apt&#45;pkg/pkgrecords.h</text>
</a>
</g>
</g>
<!-- Node38&#45;&gt;Node40 -->
<g id="edge103" class="edge">
<title>Node38&#45;&gt;Node40</title>
<path fill="none" stroke="#191970" d="M1072.7072,-336.4862C1070.4941,-309.9293 1064.2138,-234.5651 1061.1805,-198.1655"/>
<polygon fill="#191970" stroke="#191970" points="1064.6374,-197.5027 1060.319,-187.8279 1057.6616,-198.084 1064.6374,-197.5027"/>
</g>
<!-- Node41 -->
<g id="node42" class="node">
<title>Node41</title>
<g id="a_node42"><a xlink:href="srcrecords_8h_source.xhtml" target="_top" xlink:title="apt&#45;pkg/srcrecords.h">
<polygon fill="#ffffff" stroke="#000000" points="789.5,-168.5 789.5,-187.5 905.5,-187.5 905.5,-168.5 789.5,-168.5"/>
<text text-anchor="middle" x="847.5" y="-175.5" font-family="Helvetica,sans-Serif" font-size="10.00" fill="#000000">apt&#45;pkg/srcrecords.h</text>
</a>
</g>
</g>
<!-- Node38&#45;&gt;Node41 -->
<g id="edge104" class="edge">
<title>Node38&#45;&gt;Node41</title>
<path fill="none" stroke="#191970" d="M1047.9751,-336.432C1010.181,-321.3093 938.6289,-288.9198 890.5,-244 876.0189,-230.4845 864.1591,-211.1348 856.5902,-196.8794"/>
<polygon fill="#191970" stroke="#191970" points="859.5061,-194.891 851.861,-187.556 853.2633,-198.0576 859.5061,-194.891"/>
</g>
<!-- Node42 -->
<g id="node43" class="node">
<title>Node42</title>
<g id="a_node43"><a xlink:href="init_8h_source.xhtml" target="_top" xlink:title="apt&#45;pkg/init.h">
<polygon fill="#ffffff" stroke="#000000" points="1111.5,-280.5 1111.5,-299.5 1193.5,-299.5 1193.5,-280.5 1111.5,-280.5"/>
<text text-anchor="middle" x="1152.5" y="-287.5" font-family="Helvetica,sans-Serif" font-size="10.00" fill="#000000">apt&#45;pkg/init.h</text>
</a>
</g>
</g>
<!-- Node38&#45;&gt;Node42 -->
<g id="edge92" class="edge">
<title>Node38&#45;&gt;Node42</title>
<path fill="none" stroke="#191970" d="M1087.2607,-336.2455C1099.1552,-327.814 1116.565,-315.4729 1130.4085,-305.6598"/>
<polygon fill="#191970" stroke="#191970" points="1132.7628,-308.2811 1138.8969,-299.6427 1128.7146,-302.5704 1132.7628,-308.2811"/>
</g>
<!-- Node39&#45;&gt;Node2 -->
<g id="edge90" class="edge">
<title>Node39&#45;&gt;Node2</title>
<path fill="none" stroke="#191970" d="M906.1967,-224.4369C848.7344,-212.82 753.5701,-193.581 705.7847,-183.9204"/>
<polygon fill="#191970" stroke="#191970" points="706.2878,-180.4513 695.7925,-181.9003 704.9006,-187.3125 706.2878,-180.4513"/>
</g>
<!-- Node39&#45;&gt;Node8 -->
<g id="edge91" class="edge">
<title>Node39&#45;&gt;Node8</title>
<path fill="none" stroke="#191970" d="M1007.699,-228.219C1044.0576,-222.3887 1091.8205,-210.8113 1128.5,-188 1166.4894,-164.374 1157.4012,-137.0013 1194.5,-112 1235.4105,-84.43 1253.7378,-94.4281 1299.5,-76 1319.0515,-68.1268 1322.6835,-63.1801 1342.5,-56 1390.429,-38.6338 1447.9636,-24.6367 1483.1167,-16.821"/>
<polygon fill="#191970" stroke="#191970" points="1484.2526,-20.1553 1493.2723,-14.597 1482.7551,-13.3173 1484.2526,-20.1553"/>
</g>
<!-- Node39&#45;&gt;Node12 -->
<g id="edge77" class="edge">
<title>Node39&#45;&gt;Node12</title>
<path fill="none" stroke="#191970" d="M899.4989,-226.8765C854.3412,-219.6809 795.0387,-206.9096 780.5,-188 744.4822,-141.1537 762.2713,-64.9791 773.5808,-29.4267"/>
<polygon fill="#191970" stroke="#191970" points="776.9564,-30.3687 776.8159,-19.7747 770.3193,-28.144 776.9564,-30.3687"/>
</g>
<!-- Node39&#45;&gt;Node13 -->
<g id="edge78" class="edge">
<title>Node39&#45;&gt;Node13</title>
<path fill="none" stroke="#191970" d="M1007.7386,-227.8933C1069.8761,-220.2007 1167.2702,-205.8087 1199.5,-188 1220.0832,-176.6267 1237.5737,-155.7684 1248.4786,-140.5358"/>
<polygon fill="#191970" stroke="#191970" points="1251.6214,-142.1411 1254.3862,-131.9134 1245.8467,-138.1846 1251.6214,-142.1411"/>
</g>
<!-- Node39&#45;&gt;Node40 -->
<g id="edge79" class="edge">
<title>Node39&#45;&gt;Node40</title>
<path fill="none" stroke="#191970" d="M971.9638,-224.2455C988.6074,-215.4527 1013.2993,-202.4079 1032.2192,-192.4125"/>
<polygon fill="#191970" stroke="#191970" points="1034.0408,-195.4086 1041.2478,-187.6427 1030.7709,-189.2193 1034.0408,-195.4086"/>
</g>
<!-- Node39&#45;&gt;Node41 -->
<g id="edge85" class="edge">
<title>Node39&#45;&gt;Node41</title>
<path fill="none" stroke="#191970" d="M935.0362,-224.2455C918.3926,-215.4527 893.7007,-202.4079 874.7808,-192.4125"/>
<polygon fill="#191970" stroke="#191970" points="876.2291,-189.2193 865.7522,-187.6427 872.9592,-195.4086 876.2291,-189.2193"/>
</g>
<!-- Node40&#45;&gt;Node8 -->
<g id="edge83" class="edge">
<title>Node40&#45;&gt;Node8</title>
<path fill="none" stroke="#191970" d="M1072.1364,-168.459C1090.873,-154.6356 1127.4794,-128.8525 1161.5,-112 1203.8281,-91.0323 1217.4629,-93.0892 1261.5,-76 1283.0457,-67.6389 1287.4712,-62.9896 1309.5,-56 1369.7468,-36.8842 1442.3258,-22.6453 1483.2687,-15.3893"/>
<polygon fill="#191970" stroke="#191970" points="1483.963,-18.8212 1493.2127,-13.6546 1482.7599,-11.9253 1483.963,-18.8212"/>
</g>
<!-- Node40&#45;&gt;Node9 -->
<g id="edge84" class="edge">
<title>Node40&#45;&gt;Node9</title>
<path fill="none" stroke="#191970" d="M1050.7907,-168.2455C1043.6927,-160.2958 1033.4916,-148.8706 1025.005,-139.3656"/>
<polygon fill="#191970" stroke="#191970" points="1027.3805,-136.771 1018.1095,-131.6427 1022.1589,-141.4331 1027.3805,-136.771"/>
</g>
<!-- Node40&#45;&gt;Node12 -->
<g id="edge81" class="edge">
<title>Node40&#45;&gt;Node12</title>
<path fill="none" stroke="#191970" d="M1059.8281,-168.3309C1059.7553,-153.8618 1057.3401,-126.7084 1041.5,-112 980.1174,-55.0029 931.7923,-112.7091 856.5,-76 832.3787,-64.2395 809.8492,-42.8398 795.6813,-27.5968"/>
<polygon fill="#191970" stroke="#191970" points="798.0071,-24.9493 788.7135,-19.8621 792.8063,-29.6345 798.0071,-24.9493"/>
</g>
<!-- Node40&#45;&gt;Node13 -->
<g id="edge82" class="edge">
<title>Node40&#45;&gt;Node13</title>
<path fill="none" stroke="#191970" d="M1094.0531,-168.3733C1127.9104,-158.9404 1179.646,-144.5265 1216.4426,-134.2747"/>
<polygon fill="#191970" stroke="#191970" points="1217.704,-137.5566 1226.3978,-131.5011 1215.8253,-130.8135 1217.704,-137.5566"/>
</g>
<!-- Node40&#45;&gt;Node27 -->
<g id="edge80" class="edge">
<title>Node40&#45;&gt;Node27</title>
<path fill="none" stroke="#191970" d="M1028.385,-168.3733C998.1571,-159.021 952.104,-144.7725 919.0261,-134.5385"/>
<polygon fill="#191970" stroke="#191970" points="919.7967,-131.1133 909.209,-131.5011 917.7277,-137.8005 919.7967,-131.1133"/>
</g>
<!-- Node41&#45;&gt;Node8 -->
<g id="edge88" class="edge">
<title>Node41&#45;&gt;Node8</title>
<path fill="none" stroke="#191970" d="M866.1196,-168.4926C884.3223,-159.1958 912.8211,-144.6348 937.5,-132 954.8393,-123.1229 957.9447,-117.9293 976.5,-112 1082.1736,-78.2325 1118.0073,-110.3285 1223.5,-76 1241.6485,-70.0943 1243.4558,-62.2173 1261.5,-56 1338.4735,-29.4781 1434.1133,-17.433 1483.1625,-12.6743"/>
<polygon fill="#191970" stroke="#191970" points="1483.5487,-16.1536 1493.1812,-11.7416 1482.8998,-9.1837 1483.5487,-16.1536"/>
</g>
<!-- Node41&#45;&gt;Node9 -->
<g id="edge89" class="edge">
<title>Node41&#45;&gt;Node9</title>
<path fill="none" stroke="#191970" d="M875.3488,-168.3733C903.3895,-158.6802 946.6453,-143.7275 976.4172,-133.436"/>
<polygon fill="#191970" stroke="#191970" points="977.6476,-136.714 985.9553,-130.1389 975.3606,-130.0981 977.6476,-136.714"/>
</g>
<!-- Node41&#45;&gt;Node12 -->
<g id="edge87" class="edge">
<title>Node41&#45;&gt;Node12</title>
<path fill="none" stroke="#191970" d="M840.2577,-168.1988C833.8475,-159.1664 824.5901,-145.2016 818.5,-132 802.544,-97.412 790.8972,-54.3386 784.9571,-29.7221"/>
<polygon fill="#191970" stroke="#191970" points="788.3231,-28.7454 782.6344,-19.8074 781.5077,-30.3421 788.3231,-28.7454"/>
</g>
<!-- Node41&#45;&gt;Node27 -->
<g id="edge86" class="edge">
<title>Node41&#45;&gt;Node27</title>
<path fill="none" stroke="#191970" d="M852.8998,-168.2455C857.1227,-160.617 863.1173,-149.7881 868.2441,-140.5267"/>
<polygon fill="#191970" stroke="#191970" points="871.381,-142.0867 873.1621,-131.6427 865.2568,-138.6965 871.381,-142.0867"/>
</g>
<!-- Node42&#45;&gt;Node12 -->
<g id="edge98" class="edge">
<title>Node42&#45;&gt;Node12</title>
<path fill="none" stroke="#191970" d="M1111.35,-285.2904C1020.9337,-274.0199 809.5583,-242.3178 766.5,-188 729.9891,-141.9417 743.9697,-112.9499 758.5,-56 760.8961,-46.6088 765.2666,-36.8367 769.4844,-28.7272"/>
<polygon fill="#191970" stroke="#191970" points="772.6449,-30.2441 774.4106,-19.7974 766.5157,-26.8628 772.6449,-30.2441"/>
</g>
<!-- Node42&#45;&gt;Node22 -->
<g id="edge93" class="edge">
<title>Node42&#45;&gt;Node22</title>
<path fill="none" stroke="#191970" d="M1193.7283,-287.7305C1292.5131,-282.0062 1540.4643,-265.8634 1620.5,-244 1640.8322,-238.4458 1643.5226,-230.7193 1663.5,-224 1735.0539,-199.9334 1782.1118,-246.7667 1829.5,-188 1843.1724,-171.0447 1823.1253,-150.8473 1804.7055,-137.3003"/>
<polygon fill="#191970" stroke="#191970" points="1806.6913,-134.4181 1796.4838,-131.5795 1802.6932,-140.164 1806.6913,-134.4181"/>
</g>
<!-- Node43 -->
<g id="node44" class="node">
<title>Node43</title>
<g id="a_node44"><a xlink:href="pkgsystem_8h_source.xhtml" target="_top" xlink:title="apt&#45;pkg/pkgsystem.h">
<polygon fill="#ffffff" stroke="#000000" points="1101.5,-224.5 1101.5,-243.5 1221.5,-243.5 1221.5,-224.5 1101.5,-224.5"/>
<text text-anchor="middle" x="1161.5" y="-231.5" font-family="Helvetica,sans-Serif" font-size="10.00" fill="#000000">apt&#45;pkg/pkgsystem.h</text>
</a>
</g>
</g>
<!-- Node42&#45;&gt;Node43 -->
<g id="edge94" class="edge">
<title>Node42&#45;&gt;Node43</title>
<path fill="none" stroke="#191970" d="M1154.0677,-280.2455C1155.2421,-272.9382 1156.8884,-262.6944 1158.3332,-253.7046"/>
<polygon fill="#191970" stroke="#191970" points="1161.8191,-254.0714 1159.9503,-243.6427 1154.9078,-252.9606 1161.8191,-254.0714"/>
</g>
<!-- Node43&#45;&gt;Node9 -->
<g id="edge96" class="edge">
<title>Node43&#45;&gt;Node9</title>
<path fill="none" stroke="#191970" d="M1159.0122,-224.1053C1154.9439,-209.8413 1145.5597,-183.5147 1128.5,-168 1104.4861,-146.1608 1068.9696,-134.2512 1042.9892,-128.0594"/>
<polygon fill="#191970" stroke="#191970" points="1043.7171,-124.6359 1033.1963,-125.8861 1042.2004,-131.4696 1043.7171,-124.6359"/>
</g>
<!-- Node43&#45;&gt;Node13 -->
<g id="edge95" class="edge">
<title>Node43&#45;&gt;Node13</title>
<path fill="none" stroke="#191970" d="M1220.0167,-224.4429C1241.1253,-217.8619 1262.8454,-206.7523 1275.5,-188 1285.0062,-173.9133 1278.9841,-154.6784 1271.9449,-140.6081"/>
<polygon fill="#191970" stroke="#191970" points="1274.9879,-138.8783 1267.0875,-131.819 1268.8613,-142.2643 1274.9879,-138.8783"/>
</g>
<!-- Node43&#45;&gt;Node21 -->
<g id="edge97" class="edge">
<title>Node43&#45;&gt;Node21</title>
<path fill="none" stroke="#191970" d="M1221.6331,-230.1727C1319.2228,-223.6703 1518.3571,-209.1933 1696.7176,-188.1514"/>
<polygon fill="#191970" stroke="#191970" points="1697.2938,-191.6076 1706.8104,-186.9509 1696.467,-184.6566 1697.2938,-191.6076"/>
</g>
</g>
</svg>
