<?xml version="1.0" encoding="UTF-8" standalone="no"?>
<!DOCTYPE svg PUBLIC "-//W3C//DTD SVG 1.1//EN"
 "http://www.w3.org/Graphics/SVG/1.1/DTD/svg11.dtd">
<!-- Generated by graphviz version 2.40.1 (20161225.0304)
 -->
<!-- Title: apt&#45;pkg/cachefilter.h Pages: 1 -->
<svg width="649pt" height="196pt"
 viewBox="0.00 0.00 648.50 196.00" xmlns="http://www.w3.org/2000/svg" xmlns:xlink="http://www.w3.org/1999/xlink">
<g id="graph0" class="graph" transform="scale(1 1) rotate(0) translate(4 192)">
<title>apt&#45;pkg/cachefilter.h</title>
<polygon fill="#ffffff" stroke="transparent" points="-4,4 -4,-192 644.5,-192 644.5,4 -4,4"/>
<!-- Node0 -->
<g id="node1" class="node">
<title>Node0</title>
<polygon fill="#bfbfbf" stroke="#000000" points="462,-168.5 462,-187.5 578,-187.5 578,-168.5 462,-168.5"/>
<text text-anchor="middle" x="520" y="-175.5" font-family="Helvetica,sans-Serif" font-size="10.00" fill="#000000">apt&#45;pkg/cachefilter.h</text>
</g>
<!-- Node1 -->
<g id="node2" class="node">
<title>Node1</title>
<g id="a_node2"><a xlink:href="pkgcache_8h.xhtml" target="_top" xlink:title="pkgCache &#45; Structure definitions for the cache file ">
<polygon fill="#ffffff" stroke="#000000" points="193.5,-112.5 193.5,-131.5 306.5,-131.5 306.5,-112.5 193.5,-112.5"/>
<text text-anchor="middle" x="250" y="-119.5" font-family="Helvetica,sans-Serif" font-size="10.00" fill="#000000">apt&#45;pkg/pkgcache.h</text>
</a>
</g>
</g>
<!-- Node0&#45;&gt;Node1 -->
<g id="edge1" class="edge">
<title>Node0&#45;&gt;Node1</title>
<path fill="none" stroke="#191970" d="M473.8921,-168.4369C427.3925,-158.7925 355.5641,-143.8948 305.86,-133.5858"/>
<polygon fill="#191970" stroke="#191970" points="306.4201,-130.1275 295.9177,-131.5237 304.9985,-136.9817 306.4201,-130.1275"/>
</g>
<!-- Node4 -->
<g id="node5" class="node">
<title>Node4</title>
<polygon fill="#ffffff" stroke="#bfbfbf" points="453,-.5 453,-19.5 497,-19.5 497,-.5 453,-.5"/>
<text text-anchor="middle" x="475" y="-7.5" font-family="Helvetica,sans-Serif" font-size="10.00" fill="#000000">string</text>
</g>
<!-- Node0&#45;&gt;Node4 -->
<g id="edge13" class="edge">
<title>Node0&#45;&gt;Node4</title>
<path fill="none" stroke="#191970" d="M517.4517,-168.4862C510.3074,-141.8144 489.9764,-65.9117 480.2755,-29.695"/>
<polygon fill="#191970" stroke="#191970" points="483.6007,-28.5818 477.6325,-19.8279 476.8391,-30.393 483.6007,-28.5818"/>
</g>
<!-- Node11 -->
<g id="node12" class="node">
<title>Node11</title>
<polygon fill="#ffffff" stroke="#bfbfbf" points="522.5,-112.5 522.5,-131.5 569.5,-131.5 569.5,-112.5 522.5,-112.5"/>
<text text-anchor="middle" x="546" y="-119.5" font-family="Helvetica,sans-Serif" font-size="10.00" fill="#000000">vector</text>
</g>
<!-- Node0&#45;&gt;Node11 -->
<g id="edge14" class="edge">
<title>Node0&#45;&gt;Node11</title>
<path fill="none" stroke="#191970" d="M524.5289,-168.2455C528.0334,-160.6973 532.9927,-150.0158 537.2623,-140.8197"/>
<polygon fill="#191970" stroke="#191970" points="540.4864,-142.1867 541.523,-131.6427 534.1373,-139.2389 540.4864,-142.1867"/>
</g>
<!-- Node12 -->
<g id="node13" class="node">
<title>Node12</title>
<polygon fill="#ffffff" stroke="#bfbfbf" points="587.5,-112.5 587.5,-131.5 640.5,-131.5 640.5,-112.5 587.5,-112.5"/>
<text text-anchor="middle" x="614" y="-119.5" font-family="Helvetica,sans-Serif" font-size="10.00" fill="#000000">regex.h</text>
</g>
<!-- Node0&#45;&gt;Node12 -->
<g id="edge15" class="edge">
<title>Node0&#45;&gt;Node12</title>
<path fill="none" stroke="#191970" d="M536.3736,-168.2455C550.9308,-159.5731 572.431,-146.7645 589.1152,-136.825"/>
<polygon fill="#191970" stroke="#191970" points="591.0144,-139.7676 597.8141,-131.6427 587.4317,-133.7539 591.0144,-139.7676"/>
</g>
<!-- Node2 -->
<g id="node3" class="node">
<title>Node2</title>
<polygon fill="#ffffff" stroke="#bfbfbf" points="109,-.5 109,-19.5 211,-19.5 211,-.5 109,-.5"/>
<text text-anchor="middle" x="160" y="-7.5" font-family="Helvetica,sans-Serif" font-size="10.00" fill="#000000">apt&#45;pkg/macros.h</text>
</g>
<!-- Node1&#45;&gt;Node2 -->
<g id="edge2" class="edge">
<title>Node1&#45;&gt;Node2</title>
<path fill="none" stroke="#191970" d="M200.2965,-112.476C179.8633,-105.8489 158.1734,-94.6954 146,-76 136.8452,-61.9404 142.3175,-42.9524 148.9148,-28.9524"/>
<polygon fill="#191970" stroke="#191970" points="152.1795,-30.2631 153.7245,-19.7815 145.9803,-27.0119 152.1795,-30.2631"/>
</g>
<!-- Node3 -->
<g id="node4" class="node">
<title>Node3</title>
<polygon fill="#ffffff" stroke="#bfbfbf" points="0,-56.5 0,-75.5 98,-75.5 98,-56.5 0,-56.5"/>
<text text-anchor="middle" x="49" y="-63.5" font-family="Helvetica,sans-Serif" font-size="10.00" fill="#000000">apt&#45;pkg/mmap.h</text>
</g>
<!-- Node1&#45;&gt;Node3 -->
<g id="edge3" class="edge">
<title>Node1&#45;&gt;Node3</title>
<path fill="none" stroke="#191970" d="M215.4469,-112.3733C181.5896,-102.9404 129.854,-88.5265 93.0574,-78.2747"/>
<polygon fill="#191970" stroke="#191970" points="93.6747,-74.8135 83.1022,-75.5011 91.796,-81.5566 93.6747,-74.8135"/>
</g>
<!-- Node1&#45;&gt;Node4 -->
<g id="edge4" class="edge">
<title>Node1&#45;&gt;Node4</title>
<path fill="none" stroke="#191970" d="M306.5287,-113.118C353.7562,-104.8008 416.5588,-91.3723 437,-76 452.476,-64.3617 462.6814,-44.4391 468.5818,-29.5199"/>
<polygon fill="#191970" stroke="#191970" points="472.0129,-30.3248 472.1311,-19.7306 465.4321,-27.9387 472.0129,-30.3248"/>
</g>
<!-- Node5 -->
<g id="node6" class="node">
<title>Node5</title>
<polygon fill="#ffffff" stroke="#bfbfbf" points="154.5,-56.5 154.5,-75.5 207.5,-75.5 207.5,-56.5 154.5,-56.5"/>
<text text-anchor="middle" x="181" y="-63.5" font-family="Helvetica,sans-Serif" font-size="10.00" fill="#000000">stdint.h</text>
</g>
<!-- Node1&#45;&gt;Node5 -->
<g id="edge5" class="edge">
<title>Node1&#45;&gt;Node5</title>
<path fill="none" stroke="#191970" d="M237.9811,-112.2455C227.7902,-103.9746 212.9638,-91.9416 200.9893,-82.2232"/>
<polygon fill="#191970" stroke="#191970" points="202.8514,-79.2268 192.8812,-75.6427 198.4402,-84.662 202.8514,-79.2268"/>
</g>
<!-- Node6 -->
<g id="node7" class="node">
<title>Node6</title>
<polygon fill="#ffffff" stroke="#bfbfbf" points="226,-56.5 226,-75.5 274,-75.5 274,-56.5 226,-56.5"/>
<text text-anchor="middle" x="250" y="-63.5" font-family="Helvetica,sans-Serif" font-size="10.00" fill="#000000">time.h</text>
</g>
<!-- Node1&#45;&gt;Node6 -->
<g id="edge6" class="edge">
<title>Node1&#45;&gt;Node6</title>
<path fill="none" stroke="#191970" d="M250,-112.2455C250,-104.9382 250,-94.6944 250,-85.7046"/>
<polygon fill="#191970" stroke="#191970" points="253.5001,-85.6426 250,-75.6427 246.5001,-85.6427 253.5001,-85.6426"/>
</g>
<!-- Node7 -->
<g id="node8" class="node">
<title>Node7</title>
<g id="a_node8"><a xlink:href="cacheiterators_8h_source.xhtml" target="_top" xlink:title="apt&#45;pkg/cacheiterators.h">
<polygon fill="#ffffff" stroke="#000000" points="292,-56.5 292,-75.5 428,-75.5 428,-56.5 292,-56.5"/>
<text text-anchor="middle" x="360" y="-63.5" font-family="Helvetica,sans-Serif" font-size="10.00" fill="#000000">apt&#45;pkg/cacheiterators.h</text>
</a>
</g>
</g>
<!-- Node1&#45;&gt;Node7 -->
<g id="edge7" class="edge">
<title>Node1&#45;&gt;Node7</title>
<path fill="none" stroke="#191970" d="M269.1605,-112.2455C286.5111,-103.4125 312.2901,-90.2887 331.9583,-80.2758"/>
<polygon fill="#191970" stroke="#191970" points="333.7353,-83.2986 341.059,-75.6427 330.5595,-77.0605 333.7353,-83.2986"/>
</g>
<!-- Node7&#45;&gt;Node2 -->
<g id="edge8" class="edge">
<title>Node7&#45;&gt;Node2</title>
<path fill="none" stroke="#191970" d="M325.6188,-56.3733C291.9299,-46.9404 240.4518,-32.5265 203.8382,-22.2747"/>
<polygon fill="#191970" stroke="#191970" points="204.506,-18.8271 193.9326,-19.5011 202.6185,-25.5679 204.506,-18.8271"/>
</g>
<!-- Node7&#45;&gt;Node4 -->
<g id="edge11" class="edge">
<title>Node7&#45;&gt;Node4</title>
<path fill="none" stroke="#191970" d="M379.7692,-56.3733C398.1469,-47.4241 425.7312,-33.9917 446.4893,-23.8835"/>
<polygon fill="#191970" stroke="#191970" points="448.0304,-27.026 455.4888,-19.5011 444.9657,-20.7325 448.0304,-27.026"/>
</g>
<!-- Node8 -->
<g id="node9" class="node">
<title>Node8</title>
<polygon fill="#ffffff" stroke="#bfbfbf" points="243.5,-.5 243.5,-19.5 292.5,-19.5 292.5,-.5 243.5,-.5"/>
<text text-anchor="middle" x="268" y="-7.5" font-family="Helvetica,sans-Serif" font-size="10.00" fill="#000000">iosfwd</text>
</g>
<!-- Node7&#45;&gt;Node8 -->
<g id="edge9" class="edge">
<title>Node7&#45;&gt;Node8</title>
<path fill="none" stroke="#191970" d="M343.9748,-56.2455C329.8592,-47.6534 309.0737,-35.0014 292.8101,-25.1018"/>
<polygon fill="#191970" stroke="#191970" points="294.2034,-21.8525 283.8415,-19.6427 290.5637,-27.8319 294.2034,-21.8525"/>
</g>
<!-- Node9 -->
<g id="node10" class="node">
<title>Node9</title>
<polygon fill="#ffffff" stroke="#bfbfbf" points="310.5,-.5 310.5,-19.5 363.5,-19.5 363.5,-.5 310.5,-.5"/>
<text text-anchor="middle" x="337" y="-7.5" font-family="Helvetica,sans-Serif" font-size="10.00" fill="#000000">iterator</text>
</g>
<!-- Node7&#45;&gt;Node9 -->
<g id="edge10" class="edge">
<title>Node7&#45;&gt;Node9</title>
<path fill="none" stroke="#191970" d="M355.9937,-56.2455C352.9265,-48.7776 348.5997,-38.2427 344.8503,-29.1137"/>
<polygon fill="#191970" stroke="#191970" points="347.9972,-27.5631 340.9604,-19.6427 341.5221,-30.2226 347.9972,-27.5631"/>
</g>
<!-- Node10 -->
<g id="node11" class="node">
<title>Node10</title>
<polygon fill="#ffffff" stroke="#bfbfbf" points="381.5,-.5 381.5,-19.5 434.5,-19.5 434.5,-.5 381.5,-.5"/>
<text text-anchor="middle" x="408" y="-7.5" font-family="Helvetica,sans-Serif" font-size="10.00" fill="#000000">string.h</text>
</g>
<!-- Node7&#45;&gt;Node10 -->
<g id="edge12" class="edge">
<title>Node7&#45;&gt;Node10</title>
<path fill="none" stroke="#191970" d="M368.361,-56.2455C375.175,-48.2958 384.9681,-36.8706 393.1152,-27.3656"/>
<polygon fill="#191970" stroke="#191970" points="395.8843,-29.513 399.7349,-19.6427 390.5695,-24.9575 395.8843,-29.513"/>
</g>
</g>
</svg>
