<?xml version="1.0" encoding="UTF-8" standalone="no"?>
<!DOCTYPE svg PUBLIC "-//W3C//DTD SVG 1.1//EN"
 "http://www.w3.org/Graphics/SVG/1.1/DTD/svg11.dtd">
<!-- Generated by graphviz version 2.40.1 (20161225.0304)
 -->
<!-- Title: pkgSystem Pages: 1 -->
<svg width="200pt" height="95pt"
 viewBox="0.00 0.00 200.00 95.00" xmlns="http://www.w3.org/2000/svg" xmlns:xlink="http://www.w3.org/1999/xlink">
<g id="graph0" class="graph" transform="scale(1 1) rotate(0) translate(4 91)">
<title>pkgSystem</title>
<polygon fill="#ffffff" stroke="transparent" points="-4,4 -4,-91 196,-91 196,4 -4,4"/>
<!-- Node5 -->
<g id="node1" class="node">
<title>Node5</title>
<polygon fill="#bfbfbf" stroke="#000000" points="25.5,-.5 25.5,-19.5 96.5,-19.5 96.5,-.5 25.5,-.5"/>
<text text-anchor="middle" x="61" y="-7.5" font-family="Helvetica,sans-Serif" font-size="10.00" fill="#000000">pkgSystem</text>
</g>
<!-- Node5&#45;&gt;Node5 -->
<g id="edge1" class="edge">
<title>Node5&#45;&gt;Node5</title>
<path fill="none" stroke="#9a32cd" stroke-dasharray="5,2" d="M106.7805,-14.9469C111.4895,-13.9732 114.5,-12.3242 114.5,-10 114.5,-6.2813 106.7932,-4.2911 96.7532,-4.0297"/>
<polygon fill="#9a32cd" stroke="#9a32cd" points="106.3461,-11.473 96.7532,-15.9703 107.0569,-18.4368 106.3461,-11.473"/>
<text text-anchor="middle" x="140.5" y="-7.5" font-family="Helvetica,sans-Serif" font-size="10.00" fill="#000000"> GlobalList</text>
</g>
<!-- Node6 -->
<g id="node2" class="node">
<title>Node6</title>
<g id="a_node2"><a xlink:href="classpkgVersioningSystem.xhtml" target="_top" xlink:title="pkgVersioningSystem">
<polygon fill="#ffffff" stroke="#000000" points="0,-67.5 0,-86.5 122,-86.5 122,-67.5 0,-67.5"/>
<text text-anchor="middle" x="61" y="-74.5" font-family="Helvetica,sans-Serif" font-size="10.00" fill="#000000">pkgVersioningSystem</text>
</a>
</g>
</g>
<!-- Node6&#45;&gt;Node5 -->
<g id="edge2" class="edge">
<title>Node6&#45;&gt;Node5</title>
<path fill="none" stroke="#9a32cd" stroke-dasharray="5,2" d="M61,-57.1079C61,-44.714 61,-29.3263 61,-19.5817"/>
<polygon fill="#9a32cd" stroke="#9a32cd" points="57.5001,-57.4005 61,-67.4005 64.5001,-57.4006 57.5001,-57.4005"/>
<text text-anchor="middle" x="69" y="-41" font-family="Helvetica,sans-Serif" font-size="10.00" fill="#000000"> VS</text>
</g>
<!-- Node6&#45;&gt;Node6 -->
<g id="edge3" class="edge">
<title>Node6&#45;&gt;Node6</title>
<path fill="none" stroke="#9a32cd" stroke-dasharray="5,2" d="M132.4863,-81.2754C137.1669,-80.2806 140,-78.8555 140,-77 140,-74.0313 132.7472,-72.1642 122.2789,-71.3988"/>
<polygon fill="#9a32cd" stroke="#9a32cd" points="131.7448,-77.8422 122.2789,-82.6012 132.6465,-84.7839 131.7448,-77.8422"/>
<text text-anchor="middle" x="166" y="-74.5" font-family="Helvetica,sans-Serif" font-size="10.00" fill="#000000"> GlobalList</text>
</g>
</g>
</svg>
