<?xml version="1.0" encoding="UTF-8" standalone="no"?>
<!DOCTYPE svg PUBLIC "-//W3C//DTD SVG 1.1//EN"
 "http://www.w3.org/Graphics/SVG/1.1/DTD/svg11.dtd">
<!-- Generated by graphviz version 2.40.1 (20161225.0304)
 -->
<!-- Title: debIFTypeSrc Pages: 1 -->
<svg width="138pt" height="85pt"
 viewBox="0.00 0.00 137.50 85.00" xmlns="http://www.w3.org/2000/svg" xmlns:xlink="http://www.w3.org/1999/xlink">
<g id="graph0" class="graph" transform="scale(1 1) rotate(0) translate(4 81)">
<title>debIFTypeSrc</title>
<polygon fill="#ffffff" stroke="transparent" points="-4,4 -4,-81 133.5,-81 133.5,4 -4,4"/>
<!-- Node2 -->
<g id="node1" class="node">
<title>Node2</title>
<polygon fill="#bfbfbf" stroke="#000000" points="0,-.5 0,-19.5 80,-19.5 80,-.5 0,-.5"/>
<text text-anchor="middle" x="40" y="-7.5" font-family="Helvetica,sans-Serif" font-size="10.00" fill="#000000">debIFTypeSrc</text>
</g>
<!-- Node3 -->
<g id="node2" class="node">
<title>Node3</title>
<g id="a_node2"><a xlink:href="classpkgIndexFile_1_1Type.xhtml" target="_top" xlink:title="Type">
<polygon fill="#ffffff" stroke="#000000" points="20.5,-57.5 20.5,-76.5 59.5,-76.5 59.5,-57.5 20.5,-57.5"/>
<text text-anchor="middle" x="40" y="-64.5" font-family="Helvetica,sans-Serif" font-size="10.00" fill="#000000">Type</text>
</a>
</g>
</g>
<!-- Node3&#45;&gt;Node2 -->
<g id="edge1" class="edge">
<title>Node3&#45;&gt;Node2</title>
<path fill="none" stroke="#191970" d="M40,-47.2342C40,-37.8491 40,-27.0651 40,-19.5265"/>
<polygon fill="#191970" stroke="#191970" points="36.5001,-47.3307 40,-57.3307 43.5001,-47.3308 36.5001,-47.3307"/>
</g>
<!-- Node3&#45;&gt;Node3 -->
<g id="edge2" class="edge">
<title>Node3&#45;&gt;Node3</title>
<path fill="none" stroke="#9a32cd" stroke-dasharray="5,2" d="M69.8313,-71.7918C74.3972,-71.0633 77.5,-69.4661 77.5,-67 77.5,-62.9531 69.1443,-61.2458 59.6788,-61.8782"/>
<polygon fill="#9a32cd" stroke="#9a32cd" points="69.5598,-68.2987 59.6788,-72.1218 69.7873,-75.295 69.5598,-68.2987"/>
<text text-anchor="middle" x="103.5" y="-64.5" font-family="Helvetica,sans-Serif" font-size="10.00" fill="#000000"> GlobalList</text>
</g>
</g>
</svg>
