<?xml version="1.0" encoding="UTF-8" standalone="no"?>
<!DOCTYPE svg PUBLIC "-//W3C//DTD SVG 1.1//EN"
 "http://www.w3.org/Graphics/SVG/1.1/DTD/svg11.dtd">
<!-- Generated by graphviz version 2.40.1 (20161225.0304)
 -->
<!-- Title: edspIFType Pages: 1 -->
<svg width="133pt" height="85pt"
 viewBox="0.00 0.00 133.00 85.00" xmlns="http://www.w3.org/2000/svg" xmlns:xlink="http://www.w3.org/1999/xlink">
<g id="graph0" class="graph" transform="scale(1 1) rotate(0) translate(4 81)">
<title>edspIFType</title>
<polygon fill="#ffffff" stroke="transparent" points="-4,4 -4,-81 129,-81 129,4 -4,4"/>
<!-- Node2 -->
<g id="node1" class="node">
<title>Node2</title>
<polygon fill="#bfbfbf" stroke="#000000" points="0,-.5 0,-19.5 71,-19.5 71,-.5 0,-.5"/>
<text text-anchor="middle" x="35.5" y="-7.5" font-family="Helvetica,sans-Serif" font-size="10.00" fill="#000000">edspIFType</text>
</g>
<!-- Node3 -->
<g id="node2" class="node">
<title>Node3</title>
<g id="a_node2"><a xlink:href="classpkgIndexFile_1_1Type.xhtml" target="_top" xlink:title="Type">
<polygon fill="#ffffff" stroke="#000000" points="16,-57.5 16,-76.5 55,-76.5 55,-57.5 16,-57.5"/>
<text text-anchor="middle" x="35.5" y="-64.5" font-family="Helvetica,sans-Serif" font-size="10.00" fill="#000000">Type</text>
</a>
</g>
</g>
<!-- Node3&#45;&gt;Node2 -->
<g id="edge1" class="edge">
<title>Node3&#45;&gt;Node2</title>
<path fill="none" stroke="#191970" d="M35.5,-47.2342C35.5,-37.8491 35.5,-27.0651 35.5,-19.5265"/>
<polygon fill="#191970" stroke="#191970" points="32.0001,-47.3307 35.5,-57.3307 39.0001,-47.3308 32.0001,-47.3307"/>
</g>
<!-- Node3&#45;&gt;Node3 -->
<g id="edge2" class="edge">
<title>Node3&#45;&gt;Node3</title>
<path fill="none" stroke="#9a32cd" stroke-dasharray="5,2" d="M65.3313,-71.7918C69.8972,-71.0633 73,-69.4661 73,-67 73,-62.9531 64.6443,-61.2458 55.1788,-61.8782"/>
<polygon fill="#9a32cd" stroke="#9a32cd" points="65.0598,-68.2987 55.1788,-72.1218 65.2873,-75.295 65.0598,-68.2987"/>
<text text-anchor="middle" x="99" y="-64.5" font-family="Helvetica,sans-Serif" font-size="10.00" fill="#000000"> GlobalList</text>
</g>
</g>
</svg>
