<?xml version="1.0" encoding="UTF-8" standalone="no"?>
<!DOCTYPE svg PUBLIC "-//W3C//DTD SVG 1.1//EN"
 "http://www.w3.org/Graphics/SVG/1.1/DTD/svg11.dtd">
<!-- Generated by graphviz version 2.40.1 (20161225.0304)
 -->
<!-- Title: PackageUniverse::const_iterator Pages: 1 -->
<svg width="567pt" height="122pt"
 viewBox="0.00 0.00 567.00 121.50" xmlns="http://www.w3.org/2000/svg" xmlns:xlink="http://www.w3.org/1999/xlink">
<g id="graph0" class="graph" transform="scale(1 1) rotate(0) translate(4 117.5)">
<title>PackageUniverse::const_iterator</title>
<polygon fill="#ffffff" stroke="transparent" points="-4,4 -4,-117.5 563,-117.5 563,4 -4,4"/>
<!-- Node0 -->
<g id="node1" class="node">
<title>Node0</title>
<polygon fill="#bfbfbf" stroke="#000000" points="426,-39 426,-69 559,-69 559,-39 426,-39"/>
<text text-anchor="start" x="434" y="-57" font-family="Helvetica,sans-Serif" font-size="10.00" fill="#000000">PackageUniverse::const</text>
<text text-anchor="middle" x="492.5" y="-46" font-family="Helvetica,sans-Serif" font-size="10.00" fill="#000000">_iterator</text>
</g>
<!-- Node1 -->
<g id="node2" class="node">
<title>Node1</title>
<g id="a_node2"><a xlink:href="classAPT_1_1Container__iterator__base.xhtml" target="_top" xlink:title="Container_iterator\l_base\&lt; APT::PackageContainer\lInterface, PackageUniverse,\l PackageUniverse::const_iterator,\l pkgCache::PkgIterator, pkgCache\l::PkgIterator \&gt;">
<polygon fill="#ffffff" stroke="#000000" points="208,-17 208,-91 390,-91 390,-17 208,-17"/>
<text text-anchor="start" x="216" y="-79" font-family="Helvetica,sans-Serif" font-size="10.00" fill="#000000">Container_iterator</text>
<text text-anchor="start" x="216" y="-68" font-family="Helvetica,sans-Serif" font-size="10.00" fill="#000000">_base&lt; APT::PackageContainer</text>
<text text-anchor="start" x="216" y="-57" font-family="Helvetica,sans-Serif" font-size="10.00" fill="#000000">Interface, PackageUniverse,</text>
<text text-anchor="start" x="216" y="-46" font-family="Helvetica,sans-Serif" font-size="10.00" fill="#000000"> PackageUniverse::const_iterator,</text>
<text text-anchor="start" x="216" y="-35" font-family="Helvetica,sans-Serif" font-size="10.00" fill="#000000"> pkgCache::PkgIterator, pkgCache</text>
<text text-anchor="middle" x="299" y="-24" font-family="Helvetica,sans-Serif" font-size="10.00" fill="#000000">::PkgIterator &gt;</text>
</a>
</g>
</g>
<!-- Node1&#45;&gt;Node0 -->
<g id="edge1" class="edge">
<title>Node1&#45;&gt;Node0</title>
<path fill="none" stroke="#191970" d="M400.2681,-54C408.9388,-54 417.561,-54 425.8554,-54"/>
<polygon fill="#191970" stroke="#191970" points="400.084,-50.5001 390.0839,-54 400.0839,-57.5001 400.084,-50.5001"/>
</g>
<!-- Node2 -->
<g id="node3" class="node">
<title>Node2</title>
<polygon fill="#ffffff" stroke="#bfbfbf" points="0,-61 0,-113 172,-113 172,-61 0,-61"/>
<text text-anchor="start" x="8" y="-101" font-family="Helvetica,sans-Serif" font-size="10.00" fill="#000000">iterator&lt; std::iterator</text>
<text text-anchor="start" x="8" y="-90" font-family="Helvetica,sans-Serif" font-size="10.00" fill="#000000">_traits&lt; pkgCache::PkgIterator</text>
<text text-anchor="start" x="8" y="-79" font-family="Helvetica,sans-Serif" font-size="10.00" fill="#000000"> &gt;::iterator_category, pkgCache</text>
<text text-anchor="middle" x="86" y="-68" font-family="Helvetica,sans-Serif" font-size="10.00" fill="#000000">::PkgIterator &gt;</text>
</g>
<!-- Node2&#45;&gt;Node1 -->
<g id="edge2" class="edge">
<title>Node2&#45;&gt;Node1</title>
<path fill="none" stroke="#191970" d="M182.027,-72.1226C190.5975,-70.7948 199.2594,-69.4528 207.7878,-68.1315"/>
<polygon fill="#191970" stroke="#191970" points="181.3675,-68.6829 172.0213,-73.6728 182.4393,-75.6004 181.3675,-68.6829"/>
</g>
<!-- Node3 -->
<g id="node4" class="node">
<title>Node3</title>
<polygon fill="#ffffff" stroke="#bfbfbf" points="14,-.5 14,-41.5 158,-41.5 158,-.5 14,-.5"/>
<text text-anchor="start" x="22" y="-29.5" font-family="Helvetica,sans-Serif" font-size="10.00" fill="#000000">template iterator_base</text>
<text text-anchor="start" x="22" y="-18.5" font-family="Helvetica,sans-Serif" font-size="10.00" fill="#000000">&lt; PackageUniverse::const</text>
<text text-anchor="middle" x="86" y="-7.5" font-family="Helvetica,sans-Serif" font-size="10.00" fill="#000000">_iterator &gt;</text>
</g>
<!-- Node3&#45;&gt;Node1 -->
<g id="edge3" class="edge">
<title>Node3&#45;&gt;Node1</title>
<path fill="none" stroke="#191970" d="M168.3314,-33.7556C181.2268,-35.7534 194.6213,-37.8286 207.7033,-39.8554"/>
<polygon fill="#191970" stroke="#191970" points="168.5301,-30.2447 158.1121,-32.1723 167.4583,-37.1621 168.5301,-30.2447"/>
</g>
</g>
</svg>
