<?xml version="1.0" encoding="UTF-8" standalone="no"?>
<!DOCTYPE svg PUBLIC "-//W3C//DTD SVG 1.1//EN"
 "http://www.w3.org/Graphics/SVG/1.1/DTD/svg11.dtd">
<!-- Generated by graphviz version 2.40.1 (20161225.0304)
 -->
<!-- Title: FileFdPrivate Pages: 1 -->
<svg width="339pt" height="321pt"
 viewBox="0.00 0.00 338.65 321.00" xmlns="http://www.w3.org/2000/svg" xmlns:xlink="http://www.w3.org/1999/xlink">
<g id="graph0" class="graph" transform="scale(1 1) rotate(0) translate(4 317)">
<title>FileFdPrivate</title>
<polygon fill="#ffffff" stroke="transparent" points="-4,4 -4,-317 334.6503,-317 334.6503,4 -4,4"/>
<!-- Node9 -->
<g id="node1" class="node">
<title>Node9</title>
<polygon fill="#bfbfbf" stroke="#000000" points="161.6503,-.5 161.6503,-19.5 240.6503,-19.5 240.6503,-.5 161.6503,-.5"/>
<text text-anchor="middle" x="201.1503" y="-7.5" font-family="Helvetica,sans-Serif" font-size="10.00" fill="#000000">FileFdPrivate</text>
</g>
<!-- Node10 -->
<g id="node2" class="node">
<title>Node10</title>
<g id="a_node2"><a xlink:href="structAPT_1_1Configuration_1_1Compressor.xhtml" target="_top" xlink:title="Representation of supported compressors. ">
<polygon fill="#ffffff" stroke="#000000" points="60.6503,-67.5 60.6503,-86.5 135.6503,-86.5 135.6503,-67.5 60.6503,-67.5"/>
<text text-anchor="middle" x="98.1503" y="-74.5" font-family="Helvetica,sans-Serif" font-size="10.00" fill="#000000">Compressor</text>
</a>
</g>
</g>
<!-- Node10&#45;&gt;Node9 -->
<g id="edge1" class="edge">
<title>Node10&#45;&gt;Node9</title>
<path fill="none" stroke="#9a32cd" stroke-dasharray="5,2" d="M108.0166,-58.7853C112.7076,-51.5069 118.8871,-43.5527 126.1503,-38 136.8606,-29.8119 150.2223,-23.8089 162.6884,-19.5107"/>
<polygon fill="#9a32cd" stroke="#9a32cd" points="104.9914,-57.0248 102.9012,-67.4114 111.0124,-60.5954 104.9914,-57.0248"/>
<text text-anchor="middle" x="156.6503" y="-41" font-family="Helvetica,sans-Serif" font-size="10.00" fill="#000000"> compressor</text>
</g>
<!-- Node11 -->
<g id="node3" class="node">
<title>Node11</title>
<g id="a_node3"><a xlink:title="STL class. ">
<polygon fill="#ffffff" stroke="#bfbfbf" points="101.1503,-236.5 101.1503,-255.5 145.1503,-255.5 145.1503,-236.5 101.1503,-236.5"/>
<text text-anchor="middle" x="123.1503" y="-243.5" font-family="Helvetica,sans-Serif" font-size="10.00" fill="#000000">string</text>
</a>
</g>
</g>
<!-- Node11&#45;&gt;Node10 -->
<g id="edge2" class="edge">
<title>Node11&#45;&gt;Node10</title>
<path fill="none" stroke="#9a32cd" stroke-dasharray="5,2" d="M91.0871,-237.4099C62.8615,-227.9588 23.4838,-209.7248 5.1503,-178 -17.2116,-139.3042 43.0723,-103.1111 76.9346,-86.5127"/>
<polygon fill="#9a32cd" stroke="#9a32cd" points="90.3324,-240.8415 100.9218,-240.5032 92.4327,-234.164 90.3324,-240.8415"/>
<text text-anchor="middle" x="29.6503" y="-170" font-family="Helvetica,sans-Serif" font-size="10.00" fill="#000000"> Name</text>
<text text-anchor="middle" x="29.6503" y="-159" font-family="Helvetica,sans-Serif" font-size="10.00" fill="#000000">Extension</text>
<text text-anchor="middle" x="29.6503" y="-148" font-family="Helvetica,sans-Serif" font-size="10.00" fill="#000000">Binary</text>
</g>
<!-- Node13 -->
<g id="node5" class="node">
<title>Node13</title>
<polygon fill="#ffffff" stroke="#bfbfbf" points="63.6503,-152 63.6503,-171 182.6503,-171 182.6503,-152 63.6503,-152"/>
<text text-anchor="middle" x="123.1503" y="-159" font-family="Helvetica,sans-Serif" font-size="10.00" fill="#000000">vector&lt; std::string &gt;</text>
</g>
<!-- Node11&#45;&gt;Node13 -->
<g id="edge5" class="edge">
<title>Node11&#45;&gt;Node13</title>
<path fill="none" stroke="#9a32cd" stroke-dasharray="5,2" d="M123.1503,-226.1221C123.1503,-208.7864 123.1503,-184.3886 123.1503,-171.0802"/>
<polygon fill="#9a32cd" stroke="#9a32cd" points="119.6504,-226.3067 123.1503,-236.3068 126.6504,-226.3068 119.6504,-226.3067"/>
<text text-anchor="middle" x="147.6503" y="-204.5" font-family="Helvetica,sans-Serif" font-size="10.00" fill="#000000"> elements</text>
</g>
<!-- Node15 -->
<g id="node7" class="node">
<title>Node15</title>
<g id="a_node7"><a xlink:href="classFileFd.xhtml" target="_top" xlink:title="FileFd">
<polygon fill="#ffffff" stroke="#000000" points="189.1503,-106.5 189.1503,-125.5 233.1503,-125.5 233.1503,-106.5 189.1503,-106.5"/>
<text text-anchor="middle" x="211.1503" y="-113.5" font-family="Helvetica,sans-Serif" font-size="10.00" fill="#000000">FileFd</text>
</a>
</g>
</g>
<!-- Node11&#45;&gt;Node15 -->
<g id="edge8" class="edge">
<title>Node11&#45;&gt;Node15</title>
<path fill="none" stroke="#9a32cd" stroke-dasharray="5,2" d="M154.4357,-234.0904C162.3057,-229.938 170.1971,-224.617 176.1503,-218 200.6929,-190.7205 208.171,-145.4222 210.3282,-125.6871"/>
<polygon fill="#9a32cd" stroke="#9a32cd" points="152.8438,-230.9719 145.3243,-238.4357 155.8571,-237.2901 152.8438,-230.9719"/>
<text text-anchor="middle" x="240.6503" y="-210" font-family="Helvetica,sans-Serif" font-size="10.00" fill="#000000"> TemporaryFileName</text>
<text text-anchor="middle" x="240.6503" y="-199" font-family="Helvetica,sans-Serif" font-size="10.00" fill="#000000">FileName</text>
</g>
<!-- Node12 -->
<g id="node4" class="node">
<title>Node12</title>
<g id="a_node4"><a xlink:title="STL class. ">
<polygon fill="#ffffff" stroke="#bfbfbf" points="63.6503,-293.5 63.6503,-312.5 182.6503,-312.5 182.6503,-293.5 63.6503,-293.5"/>
<text text-anchor="middle" x="123.1503" y="-300.5" font-family="Helvetica,sans-Serif" font-size="10.00" fill="#000000">basic_string&lt; char &gt;</text>
</a>
</g>
</g>
<!-- Node12&#45;&gt;Node11 -->
<g id="edge3" class="edge">
<title>Node12&#45;&gt;Node11</title>
<path fill="none" stroke="#191970" d="M123.1503,-283.2342C123.1503,-273.8491 123.1503,-263.0651 123.1503,-255.5265"/>
<polygon fill="#191970" stroke="#191970" points="119.6504,-283.3307 123.1503,-293.3307 126.6504,-283.3308 119.6504,-283.3307"/>
</g>
<!-- Node13&#45;&gt;Node10 -->
<g id="edge4" class="edge">
<title>Node13&#45;&gt;Node10</title>
<path fill="none" stroke="#9a32cd" stroke-dasharray="5,2" d="M104.9126,-144.5404C100.542,-139.377 96.4713,-133.3682 94.1503,-127 89.2599,-113.5818 92.2769,-96.8357 95.077,-86.5323"/>
<polygon fill="#9a32cd" stroke="#9a32cd" points="102.4201,-146.9989 111.8191,-151.8886 107.5208,-142.2048 102.4201,-146.9989"/>
<text text-anchor="middle" x="137.1503" y="-119" font-family="Helvetica,sans-Serif" font-size="10.00" fill="#000000"> UncompressArgs</text>
<text text-anchor="middle" x="137.1503" y="-108" font-family="Helvetica,sans-Serif" font-size="10.00" fill="#000000">CompressArgs</text>
</g>
<!-- Node14 -->
<g id="node6" class="node">
<title>Node14</title>
<g id="a_node6"><a xlink:href="structsimple__buffer.xhtml" target="_top" xlink:title="simple_buffer">
<polygon fill="#ffffff" stroke="#000000" points="247.6503,-67.5 247.6503,-86.5 330.6503,-86.5 330.6503,-67.5 247.6503,-67.5"/>
<text text-anchor="middle" x="289.1503" y="-74.5" font-family="Helvetica,sans-Serif" font-size="10.00" fill="#000000">simple_buffer</text>
</a>
</g>
</g>
<!-- Node14&#45;&gt;Node9 -->
<g id="edge6" class="edge">
<title>Node14&#45;&gt;Node9</title>
<path fill="none" stroke="#9a32cd" stroke-dasharray="5,2" d="M268.3402,-61.1559C251.3753,-48.2395 227.9707,-30.4201 213.7352,-19.5817"/>
<polygon fill="#9a32cd" stroke="#9a32cd" points="266.4654,-64.1275 276.542,-67.4005 270.7058,-58.558 266.4654,-64.1275"/>
<text text-anchor="middle" x="266.1503" y="-41" font-family="Helvetica,sans-Serif" font-size="10.00" fill="#000000"> buffer</text>
</g>
<!-- Node15&#45;&gt;Node9 -->
<g id="edge7" class="edge">
<title>Node15&#45;&gt;Node9</title>
<path fill="none" stroke="#9a32cd" stroke-dasharray="5,2" d="M209.2631,-95.9954C207.1165,-73.2421 203.699,-37.0161 202.0709,-19.7586"/>
<polygon fill="#9a32cd" stroke="#9a32cd" points="205.8036,-96.5907 210.2274,-106.2178 212.7727,-95.9332 205.8036,-96.5907"/>
<text text-anchor="middle" x="222.1503" y="-74.5" font-family="Helvetica,sans-Serif" font-size="10.00" fill="#000000"> filefd</text>
</g>
</g>
</svg>
