<?xml version="1.0" encoding="UTF-8" standalone="no"?>
<!DOCTYPE svg PUBLIC "-//W3C//DTD SVG 1.1//EN"
 "http://www.w3.org/Graphics/SVG/1.1/DTD/svg11.dtd">
<!-- Generated by graphviz version 2.40.1 (20161225.0304)
 -->
<!-- Title: SHA256Summation Pages: 1 -->
<svg width="159pt" height="140pt"
 viewBox="0.00 0.00 159.00 140.00" xmlns="http://www.w3.org/2000/svg" xmlns:xlink="http://www.w3.org/1999/xlink">
<g id="graph0" class="graph" transform="scale(1 1) rotate(0) translate(4 136)">
<title>SHA256Summation</title>
<polygon fill="#ffffff" stroke="transparent" points="-4,4 -4,-136 155,-136 155,4 -4,4"/>
<!-- Node3 -->
<g id="node1" class="node">
<title>Node3</title>
<polygon fill="#bfbfbf" stroke="#000000" points="20,-.5 20,-19.5 131,-19.5 131,-.5 20,-.5"/>
<text text-anchor="middle" x="75.5" y="-7.5" font-family="Helvetica,sans-Serif" font-size="10.00" fill="#000000">SHA256Summation</text>
</g>
<!-- Node4 -->
<g id="node2" class="node">
<title>Node4</title>
<g id="a_node2"><a xlink:href="classSHA2SummationBase.xhtml" target="_top" xlink:title="SHA2SummationBase">
<polygon fill="#ffffff" stroke="#000000" points="14,-56.5 14,-75.5 137,-75.5 137,-56.5 14,-56.5"/>
<text text-anchor="middle" x="75.5" y="-63.5" font-family="Helvetica,sans-Serif" font-size="10.00" fill="#000000">SHA2SummationBase</text>
</a>
</g>
</g>
<!-- Node4&#45;&gt;Node3 -->
<g id="edge1" class="edge">
<title>Node4&#45;&gt;Node3</title>
<path fill="none" stroke="#191970" d="M75.5,-46.1575C75.5,-37.155 75.5,-26.9199 75.5,-19.6427"/>
<polygon fill="#191970" stroke="#191970" points="72.0001,-46.2455 75.5,-56.2455 79.0001,-46.2456 72.0001,-46.2455"/>
</g>
<!-- Node5 -->
<g id="node3" class="node">
<title>Node5</title>
<g id="a_node3"><a xlink:href="classSummationImplementation.xhtml" target="_top" xlink:title="SummationImplementation">
<polygon fill="#ffffff" stroke="#000000" points="0,-112.5 0,-131.5 151,-131.5 151,-112.5 0,-112.5"/>
<text text-anchor="middle" x="75.5" y="-119.5" font-family="Helvetica,sans-Serif" font-size="10.00" fill="#000000">SummationImplementation</text>
</a>
</g>
</g>
<!-- Node5&#45;&gt;Node4 -->
<g id="edge2" class="edge">
<title>Node5&#45;&gt;Node4</title>
<path fill="none" stroke="#191970" d="M75.5,-102.1575C75.5,-93.155 75.5,-82.9199 75.5,-75.6427"/>
<polygon fill="#191970" stroke="#191970" points="72.0001,-102.2455 75.5,-112.2455 79.0001,-102.2456 72.0001,-102.2455"/>
</g>
</g>
</svg>
