<?xml version="1.0" encoding="UTF-8" standalone="no"?>
<!DOCTYPE svg PUBLIC "-//W3C//DTD SVG 1.1//EN"
 "http://www.w3.org/Graphics/SVG/1.1/DTD/svg11.dtd">
<!-- Generated by graphviz version 2.40.1 (20161225.0304)
 -->
<!-- Title: pkgCache::DescFileIterator Pages: 1 -->
<!--zoomable 656 -->
<svg id="main" version="1.1" xmlns="http://www.w3.org/2000/svg" xmlns:xlink="http://www.w3.org/1999/xlink" xml:space="preserve" onload="init(evt)">
<style type="text/css"><![CDATA[
.edge:hover path { stroke: red; }
.edge:hover polygon { stroke: red; fill: red; }
]]></style>
<script type="text/javascript"><![CDATA[
var edges = document.getElementsByTagName('g');
if (edges && edges.length) {
  for (var i=0;i<edges.length;i++) {
    if (edges[i].id.substr(0,4)=='edge') {
      edges[i].setAttribute('class','edge');
    }
  }
}
]]></script>
        <defs>
                <circle id="rim" cx="0" cy="0" r="7"/>
                <circle id="rim2" cx="0" cy="0" r="3.5"/>
                <g id="zoomPlus">
                        <use xlink:href="#rim" fill="#404040">
                                <set attributeName="fill" to="#808080" begin="zoomplus.mouseover" end="zoomplus.mouseout"/>
                        </use>
                        <path d="M-4,0h8M0,-4v8" fill="none" stroke="white" stroke-width="1.5" pointer-events="none"/>
                </g>
                <g id="zoomMin">
                        <use xlink:href="#rim" fill="#404040">
                                <set attributeName="fill" to="#808080" begin="zoomminus.mouseover" end="zoomminus.mouseout"/>
                        </use>
                        <path d="M-4,0h8" fill="none" stroke="white" stroke-width="1.5" pointer-events="none"/>
                </g>
                <g id="dirArrow">
                        <path fill="none" stroke="white" stroke-width="1.5" d="M0,-3.0v7 M-2.5,-0.5L0,-3.0L2.5,-0.5"/>
                </g>
               <g id="resetDef">
                       <use xlink:href="#rim2" fill="#404040">
                               <set attributeName="fill" to="#808080" begin="reset.mouseover" end="reset.mouseout"/>
                       </use>
               </g>
        </defs>

<script type="text/javascript">
var viewWidth = 1184;
var viewHeight = 656;
var sectionId = 'dynsection-1';
</script>
<script xlink:href="svgpan.js"/>
<svg id="graph" class="graph">
<g id="viewport">
<title>pkgCache::DescFileIterator</title>
<polygon fill="#ffffff" stroke="transparent" points="-4,4 -4,-651.5 1180,-651.5 1180,4 -4,4"/>
<!-- Node3 -->
<g id="node1" class="node">
<title>Node3</title>
<polygon fill="#bfbfbf" stroke="#000000" points="1029,-577.5 1029,-596.5 1176,-596.5 1176,-577.5 1029,-577.5"/>
<text text-anchor="middle" x="1102.5" y="-584.5" font-family="Helvetica,sans-Serif" font-size="10.00" fill="#000000">pkgCache::DescFileIterator</text>
</g>
<!-- Node4 -->
<g id="node2" class="node">
<title>Node4</title>
<g id="a_node2"><a xlink:href="classpkgCache_1_1Iterator.xhtml" target="_top" xlink:title="Iterator\&lt; DescFile,\l DescFileIterator \&gt;">
<polygon fill="#ffffff" stroke="#000000" points="885,-572 885,-602 992,-602 992,-572 885,-572"/>
<text text-anchor="start" x="893" y="-590" font-family="Helvetica,sans-Serif" font-size="10.00" fill="#000000">Iterator&lt; DescFile,</text>
<text text-anchor="middle" x="938.5" y="-579" font-family="Helvetica,sans-Serif" font-size="10.00" fill="#000000"> DescFileIterator &gt;</text>
</a>
</g>
</g>
<!-- Node4&#45;&gt;Node3 -->
<g id="edge1" class="edge">
<title>Node4&#45;&gt;Node3</title>
<path fill="none" stroke="#191970" d="M1002.2344,-587C1010.9163,-587 1019.8861,-587 1028.727,-587"/>
<polygon fill="#191970" stroke="#191970" points="1002.1998,-583.5001 992.1997,-587 1002.1997,-590.5001 1002.1998,-583.5001"/>
</g>
<!-- Node5 -->
<g id="node3" class="node">
<title>Node5</title>
<polygon fill="#ffffff" stroke="#bfbfbf" points="677,-617 677,-647 814,-647 814,-617 677,-617"/>
<text text-anchor="start" x="685" y="-635" font-family="Helvetica,sans-Serif" font-size="10.00" fill="#000000">iterator&lt; std::forward</text>
<text text-anchor="middle" x="745.5" y="-624" font-family="Helvetica,sans-Serif" font-size="10.00" fill="#000000">_iterator_tag, DescFile &gt;</text>
</g>
<!-- Node5&#45;&gt;Node4 -->
<g id="edge2" class="edge">
<title>Node5&#45;&gt;Node4</title>
<path fill="none" stroke="#191970" d="M819.8723,-614.6593C841.562,-609.6021 864.8282,-604.1774 884.96,-599.4834"/>
<polygon fill="#191970" stroke="#191970" points="818.9785,-611.2737 810.0345,-616.9531 820.5681,-618.0909 818.9785,-611.2737"/>
</g>
<!-- Node6 -->
<g id="node4" class="node">
<title>Node6</title>
<g id="a_node4"><a xlink:href="classpkgCache.xhtml" target="_top" xlink:title="pkgCache">
<polygon fill="#ffffff" stroke="#000000" points="713,-312.5 713,-331.5 778,-331.5 778,-312.5 713,-312.5"/>
<text text-anchor="middle" x="745.5" y="-319.5" font-family="Helvetica,sans-Serif" font-size="10.00" fill="#000000">pkgCache</text>
</a>
</g>
</g>
<!-- Node6&#45;&gt;Node4 -->
<g id="edge3" class="edge">
<title>Node6&#45;&gt;Node4</title>
<path fill="none" stroke="#9a32cd" stroke-dasharray="5,2" d="M758.5197,-339.8768C794.3795,-389.1143 894.1312,-526.0791 927.4808,-571.87"/>
<polygon fill="#9a32cd" stroke="#9a32cd" points="761.3143,-337.7687 752.5979,-331.7458 755.6559,-341.8897 761.3143,-337.7687"/>
<text text-anchor="middle" x="849.5" y="-489" font-family="Helvetica,sans-Serif" font-size="10.00" fill="#000000"> Owner</text>
</g>
<!-- Node7 -->
<g id="node5" class="node">
<title>Node7</title>
<g id="a_node5"><a xlink:href="structpkgCache_1_1DependencyData.xhtml" target="_top" xlink:title="information for a single dependency record ">
<polygon fill="#ffffff" stroke="#000000" points="477.5,-523.5 477.5,-542.5 578.5,-542.5 578.5,-523.5 477.5,-523.5"/>
<text text-anchor="middle" x="528" y="-530.5" font-family="Helvetica,sans-Serif" font-size="10.00" fill="#000000">DependencyData</text>
</a>
</g>
</g>
<!-- Node7&#45;&gt;Node6 -->
<g id="edge4" class="edge">
<title>Node7&#45;&gt;Node6</title>
<path fill="none" stroke="#9a32cd" stroke-dasharray="5,2" d="M588.5462,-522.6798C612.6877,-516.0726 639.3491,-505.3408 659,-488 710.1701,-442.8453 735.5962,-360.0691 743.0815,-331.7793"/>
<polygon fill="#9a32cd" stroke="#9a32cd" points="587.5606,-519.3191 578.7361,-525.1824 589.291,-526.1018 587.5606,-519.3191"/>
<text text-anchor="middle" x="633" y="-518" font-family="Helvetica,sans-Serif" font-size="10.00" fill="#000000"> DepDataP</text>
</g>
<!-- Node8 -->
<g id="node6" class="node">
<title>Node8</title>
<g id="a_node6"><a xlink:href="structpkgCache_1_1Dependency.xhtml" target="_top" xlink:title="Dependency">
<polygon fill="#ffffff" stroke="#000000" points="489.5,-485.5 489.5,-504.5 566.5,-504.5 566.5,-485.5 489.5,-485.5"/>
<text text-anchor="middle" x="528" y="-492.5" font-family="Helvetica,sans-Serif" font-size="10.00" fill="#000000">Dependency</text>
</a>
</g>
</g>
<!-- Node8&#45;&gt;Node6 -->
<g id="edge5" class="edge">
<title>Node8&#45;&gt;Node6</title>
<path fill="none" stroke="#9a32cd" stroke-dasharray="5,2" d="M576.4544,-484.9321C602.9859,-477.5574 635.2061,-465.3712 659,-446 700.1179,-412.525 730.2032,-354.6729 741.0659,-331.756"/>
<polygon fill="#9a32cd" stroke="#9a32cd" points="575.3733,-481.5973 566.5939,-487.5279 577.1554,-488.3667 575.3733,-481.5973"/>
<text text-anchor="middle" x="633" y="-476" font-family="Helvetica,sans-Serif" font-size="10.00" fill="#000000"> DepP</text>
</g>
<!-- Node9 -->
<g id="node7" class="node">
<title>Node9</title>
<g id="a_node7"><a xlink:href="structpkgCache_1_1Description.xhtml" target="_top" xlink:title="datamember of a linked list of available description for a version ">
<polygon fill="#ffffff" stroke="#000000" points="492,-409.5 492,-428.5 564,-428.5 564,-409.5 492,-409.5"/>
<text text-anchor="middle" x="528" y="-416.5" font-family="Helvetica,sans-Serif" font-size="10.00" fill="#000000">Description</text>
</a>
</g>
</g>
<!-- Node9&#45;&gt;Node6 -->
<g id="edge6" class="edge">
<title>Node9&#45;&gt;Node6</title>
<path fill="none" stroke="#9a32cd" stroke-dasharray="5,2" d="M568.7763,-406.3953C575.5369,-404.2779 582.4699,-402.0896 589,-400 620.1894,-390.0193 629.3983,-391.0049 659,-377 686.6687,-363.9096 716.2051,-343.5815 732.6093,-331.6506"/>
<polygon fill="#9a32cd" stroke="#9a32cd" points="567.5648,-403.1068 559.0616,-409.4271 569.6502,-409.789 567.5648,-403.1068"/>
<text text-anchor="middle" x="633" y="-397" font-family="Helvetica,sans-Serif" font-size="10.00" fill="#000000"> DescP</text>
</g>
<!-- Node10 -->
<g id="node8" class="node">
<title>Node10</title>
<g id="a_node8"><a xlink:href="structpkgCache_1_1Header.xhtml" target="_top" xlink:title="Header">
<polygon fill="#ffffff" stroke="#000000" points="502,-333.5 502,-352.5 554,-352.5 554,-333.5 502,-333.5"/>
<text text-anchor="middle" x="528" y="-340.5" font-family="Helvetica,sans-Serif" font-size="10.00" fill="#000000">Header</text>
</a>
</g>
</g>
<!-- Node10&#45;&gt;Node6 -->
<g id="edge7" class="edge">
<title>Node10&#45;&gt;Node6</title>
<path fill="none" stroke="#9a32cd" stroke-dasharray="5,2" d="M564.4421,-339.4814C605.8898,-335.4796 672.9617,-329.0037 712.7909,-325.1581"/>
<polygon fill="#9a32cd" stroke="#9a32cd" points="563.8529,-336.022 554.2356,-340.4669 564.5257,-342.9896 563.8529,-336.022"/>
<text text-anchor="middle" x="633" y="-337" font-family="Helvetica,sans-Serif" font-size="10.00" fill="#000000"> HeaderP</text>
</g>
<!-- Node11 -->
<g id="node9" class="node">
<title>Node11</title>
<g id="a_node9"><a xlink:href="structDynamicMMap_1_1Pool.xhtml" target="_top" xlink:title="Pool">
<polygon fill="#ffffff" stroke="#000000" points="340,-333.5 340,-352.5 378,-352.5 378,-333.5 340,-333.5"/>
<text text-anchor="middle" x="359" y="-340.5" font-family="Helvetica,sans-Serif" font-size="10.00" fill="#000000">Pool</text>
</a>
</g>
</g>
<!-- Node11&#45;&gt;Node10 -->
<g id="edge8" class="edge">
<title>Node11&#45;&gt;Node10</title>
<path fill="none" stroke="#9a32cd" stroke-dasharray="5,2" d="M388.1285,-343C420.1301,-343 471.0611,-343 501.8334,-343"/>
<polygon fill="#9a32cd" stroke="#9a32cd" points="388.058,-339.5001 378.0579,-343 388.0579,-346.5001 388.058,-339.5001"/>
<text text-anchor="middle" x="424" y="-346" font-family="Helvetica,sans-Serif" font-size="10.00" fill="#000000"> Pools</text>
</g>
<!-- Node12 -->
<g id="node10" class="node">
<title>Node12</title>
<g id="a_node10"><a xlink:href="structpkgCache_1_1PackageFile.xhtml" target="_top" xlink:title="stores information about the files used to generate the cache ">
<polygon fill="#ffffff" stroke="#000000" points="491,-295.5 491,-314.5 565,-314.5 565,-295.5 491,-295.5"/>
<text text-anchor="middle" x="528" y="-302.5" font-family="Helvetica,sans-Serif" font-size="10.00" fill="#000000">PackageFile</text>
</a>
</g>
</g>
<!-- Node12&#45;&gt;Node6 -->
<g id="edge9" class="edge">
<title>Node12&#45;&gt;Node6</title>
<path fill="none" stroke="#9a32cd" stroke-dasharray="5,2" d="M575.3471,-304.5167C600.2838,-304.6579 631.3486,-305.4579 659,-308 676.8757,-309.6434 696.6503,-312.7463 712.7754,-315.614"/>
<polygon fill="#9a32cd" stroke="#9a32cd" points="575.0708,-301.0162 565.0629,-304.4934 575.0549,-308.0161 575.0708,-301.0162"/>
<text text-anchor="middle" x="633" y="-311" font-family="Helvetica,sans-Serif" font-size="10.00" fill="#000000"> PkgFileP</text>
</g>
<!-- Node13 -->
<g id="node11" class="node">
<title>Node13</title>
<g id="a_node11"><a xlink:href="structpkgCache_1_1ReleaseFile.xhtml" target="_top" xlink:title="stores information about the release files used to generate the cache ">
<polygon fill="#ffffff" stroke="#000000" points="492.5,-257.5 492.5,-276.5 563.5,-276.5 563.5,-257.5 492.5,-257.5"/>
<text text-anchor="middle" x="528" y="-264.5" font-family="Helvetica,sans-Serif" font-size="10.00" fill="#000000">ReleaseFile</text>
</a>
</g>
</g>
<!-- Node13&#45;&gt;Node6 -->
<g id="edge10" class="edge">
<title>Node13&#45;&gt;Node6</title>
<path fill="none" stroke="#9a32cd" stroke-dasharray="5,2" d="M573.7655,-272.9637C599.1264,-276.7841 631.0824,-282.4517 659,-290 681.2581,-296.0181 705.845,-305.3909 723.0982,-312.4401"/>
<polygon fill="#9a32cd" stroke="#9a32cd" points="574.0877,-269.4737 563.6864,-271.4897 573.0747,-276.4 574.0877,-269.4737"/>
<text text-anchor="middle" x="633" y="-293" font-family="Helvetica,sans-Serif" font-size="10.00" fill="#000000"> RlsFileP</text>
</g>
<!-- Node14 -->
<g id="node12" class="node">
<title>Node14</title>
<g id="a_node12"><a xlink:href="structpkgCache_1_1DescFile.xhtml" target="_top" xlink:title="associates a description with a Translation file ">
<polygon fill="#ffffff" stroke="#000000" points="499.5,-569.5 499.5,-588.5 556.5,-588.5 556.5,-569.5 499.5,-569.5"/>
<text text-anchor="middle" x="528" y="-576.5" font-family="Helvetica,sans-Serif" font-size="10.00" fill="#000000">DescFile</text>
</a>
</g>
</g>
<!-- Node14&#45;&gt;Node4 -->
<g id="edge24" class="edge">
<title>Node14&#45;&gt;Node4</title>
<path fill="none" stroke="#9a32cd" stroke-dasharray="5,2" d="M566.7569,-579.7553C640.3991,-581.1905 800.675,-584.314 884.6799,-585.9511"/>
<polygon fill="#9a32cd" stroke="#9a32cd" points="566.606,-576.2518 556.5396,-579.5562 566.4695,-583.2505 566.606,-576.2518"/>
<text text-anchor="middle" x="745.5" y="-587" font-family="Helvetica,sans-Serif" font-size="10.00" fill="#000000"> S</text>
</g>
<!-- Node14&#45;&gt;Node6 -->
<g id="edge11" class="edge">
<title>Node14&#45;&gt;Node6</title>
<path fill="none" stroke="#9a32cd" stroke-dasharray="5,2" d="M566.6628,-573.0448C595.3792,-566.7919 633.783,-554.3209 659,-530 719.5226,-471.6281 739.3978,-364.5925 744.2117,-331.805"/>
<polygon fill="#9a32cd" stroke="#9a32cd" points="565.6765,-569.673 556.5637,-575.0776 567.0578,-576.5354 565.6765,-569.673"/>
<text text-anchor="middle" x="633" y="-563" font-family="Helvetica,sans-Serif" font-size="10.00" fill="#000000"> DescFileP</text>
</g>
<!-- Node15 -->
<g id="node13" class="node">
<title>Node15</title>
<g id="a_node13"><a xlink:href="structpkgCache_1_1Provides.xhtml" target="_top" xlink:title="handles virtual packages ">
<polygon fill="#ffffff" stroke="#000000" points="498.5,-181.5 498.5,-200.5 557.5,-200.5 557.5,-181.5 498.5,-181.5"/>
<text text-anchor="middle" x="528" y="-188.5" font-family="Helvetica,sans-Serif" font-size="10.00" fill="#000000">Provides</text>
</a>
</g>
</g>
<!-- Node15&#45;&gt;Node6 -->
<g id="edge12" class="edge">
<title>Node15&#45;&gt;Node6</title>
<path fill="none" stroke="#9a32cd" stroke-dasharray="5,2" d="M567.6212,-197.1676C594.839,-202.7051 630.9744,-212.7101 659,-230 695.1971,-252.3312 726.2082,-293.6504 739.106,-312.3546"/>
<polygon fill="#9a32cd" stroke="#9a32cd" points="568.142,-193.7038 557.6618,-195.2581 566.8239,-200.5785 568.142,-193.7038"/>
<text text-anchor="middle" x="633" y="-233" font-family="Helvetica,sans-Serif" font-size="10.00" fill="#000000"> ProvideP</text>
</g>
<!-- Node16 -->
<g id="node14" class="node">
<title>Node16</title>
<g id="a_node14"><a xlink:title="STL class. ">
<polygon fill="#ffffff" stroke="#bfbfbf" points="156,-159.5 156,-178.5 200,-178.5 200,-159.5 156,-159.5"/>
<text text-anchor="middle" x="178" y="-166.5" font-family="Helvetica,sans-Serif" font-size="10.00" fill="#000000">string</text>
</a>
</g>
</g>
<!-- Node16&#45;&gt;Node6 -->
<g id="edge13" class="edge">
<title>Node16&#45;&gt;Node6</title>
<path fill="none" stroke="#9a32cd" stroke-dasharray="5,2" d="M210.1235,-164.8512C280.0028,-156.7752 450.6582,-142.2098 589,-172 622.2629,-179.1628 632.5337,-181.6163 659,-203 698.9324,-235.2637 729.4831,-290.2233 740.7672,-312.3495"/>
<polygon fill="#9a32cd" stroke="#9a32cd" points="209.692,-161.3778 200.1766,-166.0368 210.5205,-168.3286 209.692,-161.3778"/>
<text text-anchor="middle" x="424" y="-158" font-family="Helvetica,sans-Serif" font-size="10.00" fill="#000000"> CacheFile</text>
</g>
<!-- Node24 -->
<g id="node22" class="node">
<title>Node24</title>
<g id="a_node22"><a xlink:href="classFileFd.xhtml" target="_top" xlink:title="FileFd">
<polygon fill="#ffffff" stroke="#000000" points="337,-194.5 337,-213.5 381,-213.5 381,-194.5 337,-194.5"/>
<text text-anchor="middle" x="359" y="-201.5" font-family="Helvetica,sans-Serif" font-size="10.00" fill="#000000">FileFd</text>
</a>
</g>
</g>
<!-- Node16&#45;&gt;Node24 -->
<g id="edge23" class="edge">
<title>Node16&#45;&gt;Node24</title>
<path fill="none" stroke="#9a32cd" stroke-dasharray="5,2" d="M210.3175,-175.2492C246.8252,-182.3087 305.2614,-193.6086 336.9077,-199.728"/>
<polygon fill="#9a32cd" stroke="#9a32cd" points="210.6768,-171.754 200.1942,-173.2917 209.3478,-178.6266 210.6768,-171.754"/>
<text text-anchor="middle" x="268.5" y="-209" font-family="Helvetica,sans-Serif" font-size="10.00" fill="#000000"> TemporaryFileName</text>
<text text-anchor="middle" x="268.5" y="-198" font-family="Helvetica,sans-Serif" font-size="10.00" fill="#000000">FileName</text>
</g>
<!-- Node17 -->
<g id="node15" class="node">
<title>Node17</title>
<g id="a_node15"><a xlink:title="STL class. ">
<polygon fill="#ffffff" stroke="#bfbfbf" points="0,-159.5 0,-178.5 119,-178.5 119,-159.5 0,-159.5"/>
<text text-anchor="middle" x="59.5" y="-166.5" font-family="Helvetica,sans-Serif" font-size="10.00" fill="#000000">basic_string&lt; char &gt;</text>
</a>
</g>
</g>
<!-- Node17&#45;&gt;Node16 -->
<g id="edge14" class="edge">
<title>Node17&#45;&gt;Node16</title>
<path fill="none" stroke="#191970" d="M129.2118,-169C138.8284,-169 148.0652,-169 155.8653,-169"/>
<polygon fill="#191970" stroke="#191970" points="129.0972,-165.5001 119.0972,-169 129.0971,-172.5001 129.0972,-165.5001"/>
</g>
<!-- Node18 -->
<g id="node16" class="node">
<title>Node18</title>
<g id="a_node16"><a xlink:href="structpkgCache_1_1Group.xhtml" target="_top" xlink:title="groups architecture depending packages together ">
<polygon fill="#ffffff" stroke="#000000" points="505,-105.5 505,-124.5 551,-124.5 551,-105.5 505,-105.5"/>
<text text-anchor="middle" x="528" y="-112.5" font-family="Helvetica,sans-Serif" font-size="10.00" fill="#000000">Group</text>
</a>
</g>
</g>
<!-- Node18&#45;&gt;Node6 -->
<g id="edge15" class="edge">
<title>Node18&#45;&gt;Node6</title>
<path fill="none" stroke="#9a32cd" stroke-dasharray="5,2" d="M561.5565,-109.6077C590.1295,-106.9028 630.8995,-107.7197 659,-128 723.2906,-174.3989 740.6048,-279.6976 744.5017,-312.236"/>
<polygon fill="#9a32cd" stroke="#9a32cd" points="560.7932,-106.172 551.2546,-110.7835 561.5871,-113.1268 560.7932,-106.172"/>
<text text-anchor="middle" x="633" y="-131" font-family="Helvetica,sans-Serif" font-size="10.00" fill="#000000"> GrpP</text>
</g>
<!-- Node19 -->
<g id="node17" class="node">
<title>Node19</title>
<g id="a_node17"><a xlink:href="classpkgVersioningSystem.xhtml" target="_top" xlink:title="pkgVersioningSystem">
<polygon fill="#ffffff" stroke="#000000" points="467,-38.5 467,-57.5 589,-57.5 589,-38.5 467,-38.5"/>
<text text-anchor="middle" x="528" y="-45.5" font-family="Helvetica,sans-Serif" font-size="10.00" fill="#000000">pkgVersioningSystem</text>
</a>
</g>
</g>
<!-- Node19&#45;&gt;Node6 -->
<g id="edge16" class="edge">
<title>Node19&#45;&gt;Node6</title>
<path fill="none" stroke="#9a32cd" stroke-dasharray="5,2" d="M595.901,-60.3878C618.3152,-67.3619 641.8679,-78.2004 659,-95 724.3437,-159.0755 741.0615,-277.6273 744.6386,-312.2614"/>
<polygon fill="#9a32cd" stroke="#9a32cd" points="596.6283,-56.9548 586.0496,-57.5387 594.6835,-63.6792 596.6283,-56.9548"/>
<text text-anchor="middle" x="633" y="-98" font-family="Helvetica,sans-Serif" font-size="10.00" fill="#000000"> VS</text>
</g>
<!-- Node19&#45;&gt;Node19 -->
<g id="edge17" class="edge">
<title>Node19&#45;&gt;Node19</title>
<path fill="none" stroke="#9a32cd" stroke-dasharray="5,2" d="M508.7417,-67.4C510.0278,-72.3146 516.4473,-76 528,-76 546.4844,-76 551.8275,-66.5653 544.0294,-57.7571"/>
<polygon fill="#9a32cd" stroke="#9a32cd" points="512.1142,-68.3509 511.9706,-57.7571 505.4765,-66.1283 512.1142,-68.3509"/>
<text text-anchor="middle" x="528" y="-79" font-family="Helvetica,sans-Serif" font-size="10.00" fill="#000000"> GlobalList</text>
</g>
<!-- Node20 -->
<g id="node18" class="node">
<title>Node20</title>
<g id="a_node18"><a xlink:href="structpkgCache_1_1Version.xhtml" target="_top" xlink:title="information for a single version of a package ">
<polygon fill="#ffffff" stroke="#000000" points="501.5,-.5 501.5,-19.5 554.5,-19.5 554.5,-.5 501.5,-.5"/>
<text text-anchor="middle" x="528" y="-7.5" font-family="Helvetica,sans-Serif" font-size="10.00" fill="#000000">Version</text>
</a>
</g>
</g>
<!-- Node20&#45;&gt;Node6 -->
<g id="edge18" class="edge">
<title>Node20&#45;&gt;Node6</title>
<path fill="none" stroke="#9a32cd" stroke-dasharray="5,2" d="M564.7385,-12.1191C593.9419,-15.718 633.922,-25.21 659,-50 698.5577,-89.1035 735.2575,-268.8038 743.6901,-312.4349"/>
<polygon fill="#9a32cd" stroke="#9a32cd" points="564.8261,-8.609 554.5145,-11.0423 564.0929,-15.5705 564.8261,-8.609"/>
<text text-anchor="middle" x="633" y="-53" font-family="Helvetica,sans-Serif" font-size="10.00" fill="#000000"> VerP</text>
</g>
<!-- Node21 -->
<g id="node19" class="node">
<title>Node21</title>
<g id="a_node19"><a xlink:href="structpkgCache_1_1VerFile.xhtml" target="_top" xlink:title="associates a version with a PackageFile ">
<polygon fill="#ffffff" stroke="#000000" points="503.5,-447.5 503.5,-466.5 552.5,-466.5 552.5,-447.5 503.5,-447.5"/>
<text text-anchor="middle" x="528" y="-454.5" font-family="Helvetica,sans-Serif" font-size="10.00" fill="#000000">VerFile</text>
</a>
</g>
</g>
<!-- Node21&#45;&gt;Node6 -->
<g id="edge19" class="edge">
<title>Node21&#45;&gt;Node6</title>
<path fill="none" stroke="#9a32cd" stroke-dasharray="5,2" d="M562.1163,-446.9732C570.927,-444.2202 580.3613,-441.1275 589,-438 620.6641,-426.5365 631.0276,-427.7502 659,-409 692.7921,-386.3488 724.3108,-349.0684 738.1379,-331.5972"/>
<polygon fill="#9a32cd" stroke="#9a32cd" points="561.0427,-443.6415 552.5093,-449.9208 563.0961,-450.3336 561.0427,-443.6415"/>
<text text-anchor="middle" x="633" y="-434" font-family="Helvetica,sans-Serif" font-size="10.00" fill="#000000"> VerFileP</text>
</g>
<!-- Node22 -->
<g id="node20" class="node">
<title>Node22</title>
<g id="a_node20"><a xlink:href="structpkgCache_1_1Package.xhtml" target="_top" xlink:title="contains information for a single unique package ">
<polygon fill="#ffffff" stroke="#000000" points="499.5,-371.5 499.5,-390.5 556.5,-390.5 556.5,-371.5 499.5,-371.5"/>
<text text-anchor="middle" x="528" y="-378.5" font-family="Helvetica,sans-Serif" font-size="10.00" fill="#000000">Package</text>
</a>
</g>
</g>
<!-- Node22&#45;&gt;Node6 -->
<g id="edge20" class="edge">
<title>Node22&#45;&gt;Node6</title>
<path fill="none" stroke="#9a32cd" stroke-dasharray="5,2" d="M566.6648,-372.23C592.8372,-366.1284 628.1341,-357.5779 659,-349 678.25,-343.6502 699.6888,-336.9635 716.4071,-331.5829"/>
<polygon fill="#9a32cd" stroke="#9a32cd" points="565.7087,-368.8587 556.7562,-374.5247 567.288,-375.6782 565.7087,-368.8587"/>
<text text-anchor="middle" x="633" y="-365" font-family="Helvetica,sans-Serif" font-size="10.00" fill="#000000"> PkgP</text>
</g>
<!-- Node23 -->
<g id="node21" class="node">
<title>Node23</title>
<g id="a_node21"><a xlink:href="classMMap.xhtml" target="_top" xlink:title="MMap">
<polygon fill="#ffffff" stroke="#000000" points="505.5,-219.5 505.5,-238.5 550.5,-238.5 550.5,-219.5 505.5,-219.5"/>
<text text-anchor="middle" x="528" y="-226.5" font-family="Helvetica,sans-Serif" font-size="10.00" fill="#000000">MMap</text>
</a>
</g>
</g>
<!-- Node23&#45;&gt;Node6 -->
<g id="edge21" class="edge">
<title>Node23&#45;&gt;Node6</title>
<path fill="none" stroke="#9a32cd" stroke-dasharray="5,2" d="M560.7122,-234.2472C587.8725,-239.3574 627.0812,-248.5053 659,-263 688.2959,-276.3037 718.4318,-299.4154 734.2414,-312.4127"/>
<polygon fill="#9a32cd" stroke="#9a32cd" points="561.0403,-230.7501 550.5783,-232.4226 559.7998,-237.6393 561.0403,-230.7501"/>
<text text-anchor="middle" x="633" y="-266" font-family="Helvetica,sans-Serif" font-size="10.00" fill="#000000"> Map</text>
</g>
<!-- Node24&#45;&gt;Node23 -->
<g id="edge22" class="edge">
<title>Node24&#45;&gt;Node23</title>
<path fill="none" stroke="#9a32cd" stroke-dasharray="5,2" d="M391.2616,-208.7724C424.6753,-213.7153 476.0218,-221.3109 505.3614,-225.6511"/>
<polygon fill="#9a32cd" stroke="#9a32cd" points="391.4984,-205.2694 381.0938,-207.2683 390.4739,-212.1941 391.4984,-205.2694"/>
<text text-anchor="middle" x="424" y="-220" font-family="Helvetica,sans-Serif" font-size="10.00" fill="#000000"> SyncToFd</text>
</g>
</g>
</svg>
        <g id="navigator" transform="translate(0 0)" fill="#404254">
                <rect fill="#f2f5e9" fill-opacity="0.5" stroke="#606060" stroke-width=".5" x="0" y="0" width="60" height="60"/>
                <use id="zoomplus" xlink:href="#zoomPlus" x="17" y="9" onmousedown="handleZoom(evt,'in')"/>
                <use id="zoomminus" xlink:href="#zoomMin" x="42" y="9" onmousedown="handleZoom(evt,'out')"/>
                <use id="reset" xlink:href="#resetDef" x="30" y="36" onmousedown="handleReset()"/>
                <g id="arrowUp" xlink:href="#dirArrow" transform="translate(30 24)" onmousedown="handlePan(0,-1)">
                  <use xlink:href="#rim" fill="#404040">
                        <set attributeName="fill" to="#808080" begin="arrowUp.mouseover" end="arrowUp.mouseout"/>
                  </use>
                  <path fill="none" stroke="white" stroke-width="1.5" d="M0,-3.0v7 M-2.5,-0.5L0,-3.0L2.5,-0.5"/>
                </g>
                <g id="arrowRight" xlink:href="#dirArrow" transform="rotate(90) translate(36 -43)" onmousedown="handlePan(1,0)">
                  <use xlink:href="#rim" fill="#404040">
                        <set attributeName="fill" to="#808080" begin="arrowRight.mouseover" end="arrowRight.mouseout"/>
                  </use>
                  <path fill="none" stroke="white" stroke-width="1.5" d="M0,-3.0v7 M-2.5,-0.5L0,-3.0L2.5,-0.5"/>
                </g>
                <g id="arrowDown" xlink:href="#dirArrow" transform="rotate(180) translate(-30 -48)" onmousedown="handlePan(0,1)">
                  <use xlink:href="#rim" fill="#404040">
                        <set attributeName="fill" to="#808080" begin="arrowDown.mouseover" end="arrowDown.mouseout"/>
                  </use>
                  <path fill="none" stroke="white" stroke-width="1.5" d="M0,-3.0v7 M-2.5,-0.5L0,-3.0L2.5,-0.5"/>
                </g>
                <g id="arrowLeft" xlink:href="#dirArrow" transform="rotate(270) translate(-36 17)" onmousedown="handlePan(-1,0)">
                  <use xlink:href="#rim" fill="#404040">
                        <set attributeName="fill" to="#808080" begin="arrowLeft.mouseover" end="arrowLeft.mouseout"/>
                  </use>
                  <path fill="none" stroke="white" stroke-width="1.5" d="M0,-3.0v7 M-2.5,-0.5L0,-3.0L2.5,-0.5"/>
                </g>
        </g>
        <svg viewBox="0 0 15 15" width="100%" height="30px" preserveAspectRatio="xMaxYMin meet">
         <g id="arrow_out" transform="scale(0.3 0.3)">
          <a xlink:href="classpkgCache_1_1DescFileIterator__coll__graph_org.svg" target="_base">
           <rect id="button" ry="5" rx="5" y="6" x="6" height="38" width="38"
                fill="#f2f5e9" fill-opacity="0.5" stroke="#606060" stroke-width="1.0"/>
           <path id="arrow"
             d="M 11.500037,31.436501 C 11.940474,20.09759 22.043105,11.32322 32.158766,21.979434 L 37.068811,17.246167 C 37.068811,17.246167 37.088388,32 37.088388,32 L 22.160133,31.978069 C 22.160133,31.978069 26.997745,27.140456 26.997745,27.140456 C 18.528582,18.264221 13.291696,25.230495 11.500037,31.436501 z"
             style="fill:#404040;"/>
          </a>
         </g>
        </svg>
</svg>
