<?xml version="1.0" encoding="UTF-8" standalone="no"?>
<!DOCTYPE svg PUBLIC "-//W3C//DTD SVG 1.1//EN"
 "http://www.w3.org/Graphics/SVG/1.1/DTD/svg11.dtd">
<!-- Generated by graphviz version 2.40.1 (20161225.0304)
 -->
<!-- Title: pkgDepCache::DefaultRootSetFunc Pages: 1 -->
<svg width="224pt" height="95pt"
 viewBox="0.00 0.00 224.00 95.00" xmlns="http://www.w3.org/2000/svg" xmlns:xlink="http://www.w3.org/1999/xlink">
<g id="graph0" class="graph" transform="scale(1 1) rotate(0) translate(4 91)">
<title>pkgDepCache::DefaultRootSetFunc</title>
<polygon fill="#ffffff" stroke="transparent" points="-4,4 -4,-91 220,-91 220,4 -4,4"/>
<!-- Node3 -->
<g id="node1" class="node">
<title>Node3</title>
<polygon fill="#bfbfbf" stroke="#000000" points="26.5,-.5 26.5,-30.5 174.5,-30.5 174.5,-.5 26.5,-.5"/>
<text text-anchor="start" x="34.5" y="-18.5" font-family="Helvetica,sans-Serif" font-size="10.00" fill="#000000">pkgDepCache::DefaultRoot</text>
<text text-anchor="middle" x="100.5" y="-7.5" font-family="Helvetica,sans-Serif" font-size="10.00" fill="#000000">SetFunc</text>
</g>
<!-- Node4 -->
<g id="node2" class="node">
<title>Node4</title>
<g id="a_node2"><a xlink:href="classpkgDepCache_1_1InRootSetFunc.xhtml" target="_top" xlink:title="An arbitrary predicate on packages. ">
<polygon fill="#ffffff" stroke="#000000" points="0,-67.5 0,-86.5 85,-86.5 85,-67.5 0,-67.5"/>
<text text-anchor="middle" x="42.5" y="-74.5" font-family="Helvetica,sans-Serif" font-size="10.00" fill="#000000">InRootSetFunc</text>
</a>
</g>
</g>
<!-- Node4&#45;&gt;Node3 -->
<g id="edge1" class="edge">
<title>Node4&#45;&gt;Node3</title>
<path fill="none" stroke="#191970" d="M58.5973,-59.9314C67.2918,-50.7122 77.9299,-39.4321 86.3116,-30.5446"/>
<polygon fill="#191970" stroke="#191970" points="55.8773,-57.7142 51.5625,-67.3906 60.9698,-62.5169 55.8773,-57.7142"/>
</g>
<!-- Node5 -->
<g id="node3" class="node">
<title>Node5</title>
<g id="a_node3"><a xlink:href="classConfiguration_1_1MatchAgainstConfig.xhtml" target="_top" xlink:title="match a string against a configurable list of patterns ">
<polygon fill="#ffffff" stroke="#000000" points="103,-67.5 103,-86.5 216,-86.5 216,-67.5 103,-67.5"/>
<text text-anchor="middle" x="159.5" y="-74.5" font-family="Helvetica,sans-Serif" font-size="10.00" fill="#000000">MatchAgainstConfig</text>
</a>
</g>
</g>
<!-- Node5&#45;&gt;Node3 -->
<g id="edge2" class="edge">
<title>Node5&#45;&gt;Node3</title>
<path fill="none" stroke="#191970" d="M143.1252,-59.9314C134.2808,-50.7122 123.4592,-39.4321 114.933,-30.5446"/>
<polygon fill="#191970" stroke="#191970" points="140.8327,-62.5974 150.2813,-67.3906 145.884,-57.7514 140.8327,-62.5974"/>
</g>
</g>
</svg>
