<?xml version="1.0" encoding="UTF-8" standalone="no"?>
<!DOCTYPE svg PUBLIC "-//W3C//DTD SVG 1.1//EN"
 "http://www.w3.org/Graphics/SVG/1.1/DTD/svg11.dtd">
<!-- Generated by graphviz version 2.40.1 (20161225.0304)
 -->
<!-- Title: debSystem Pages: 1 -->
<svg width="200pt" height="152pt"
 viewBox="0.00 0.00 200.00 152.00" xmlns="http://www.w3.org/2000/svg" xmlns:xlink="http://www.w3.org/1999/xlink">
<g id="graph0" class="graph" transform="scale(1 1) rotate(0) translate(4 148)">
<title>debSystem</title>
<polygon fill="#ffffff" stroke="transparent" points="-4,4 -4,-148 196,-148 196,4 -4,4"/>
<!-- Node2 -->
<g id="node1" class="node">
<title>Node2</title>
<polygon fill="#bfbfbf" stroke="#000000" points="25.5,-.5 25.5,-19.5 96.5,-19.5 96.5,-.5 25.5,-.5"/>
<text text-anchor="middle" x="61" y="-7.5" font-family="Helvetica,sans-Serif" font-size="10.00" fill="#000000">debSystem</text>
</g>
<!-- Node3 -->
<g id="node2" class="node">
<title>Node3</title>
<g id="a_node2"><a xlink:href="classpkgSystem.xhtml" target="_top" xlink:title="pkgSystem">
<polygon fill="#ffffff" stroke="#000000" points="25.5,-57.5 25.5,-76.5 96.5,-76.5 96.5,-57.5 25.5,-57.5"/>
<text text-anchor="middle" x="61" y="-64.5" font-family="Helvetica,sans-Serif" font-size="10.00" fill="#000000">pkgSystem</text>
</a>
</g>
</g>
<!-- Node3&#45;&gt;Node2 -->
<g id="edge1" class="edge">
<title>Node3&#45;&gt;Node2</title>
<path fill="none" stroke="#191970" d="M61,-47.2342C61,-37.8491 61,-27.0651 61,-19.5265"/>
<polygon fill="#191970" stroke="#191970" points="57.5001,-47.3307 61,-57.3307 64.5001,-47.3308 57.5001,-47.3307"/>
</g>
<!-- Node3&#45;&gt;Node3 -->
<g id="edge2" class="edge">
<title>Node3&#45;&gt;Node3</title>
<path fill="none" stroke="#9a32cd" stroke-dasharray="5,2" d="M106.7805,-71.3285C111.4895,-70.4765 114.5,-69.0337 114.5,-67 114.5,-63.7461 106.7932,-62.0047 96.7532,-61.776"/>
<polygon fill="#9a32cd" stroke="#9a32cd" points="106.4022,-67.8483 96.7532,-72.224 107.0249,-74.8206 106.4022,-67.8483"/>
<text text-anchor="middle" x="140.5" y="-64.5" font-family="Helvetica,sans-Serif" font-size="10.00" fill="#000000"> GlobalList</text>
</g>
<!-- Node4 -->
<g id="node3" class="node">
<title>Node4</title>
<g id="a_node3"><a xlink:href="classpkgVersioningSystem.xhtml" target="_top" xlink:title="pkgVersioningSystem">
<polygon fill="#ffffff" stroke="#000000" points="0,-124.5 0,-143.5 122,-143.5 122,-124.5 0,-124.5"/>
<text text-anchor="middle" x="61" y="-131.5" font-family="Helvetica,sans-Serif" font-size="10.00" fill="#000000">pkgVersioningSystem</text>
</a>
</g>
</g>
<!-- Node4&#45;&gt;Node3 -->
<g id="edge3" class="edge">
<title>Node4&#45;&gt;Node3</title>
<path fill="none" stroke="#9a32cd" stroke-dasharray="5,2" d="M61,-114.1079C61,-101.714 61,-86.3263 61,-76.5817"/>
<polygon fill="#9a32cd" stroke="#9a32cd" points="57.5001,-114.4005 61,-124.4005 64.5001,-114.4006 57.5001,-114.4005"/>
<text text-anchor="middle" x="69" y="-98" font-family="Helvetica,sans-Serif" font-size="10.00" fill="#000000"> VS</text>
</g>
<!-- Node4&#45;&gt;Node4 -->
<g id="edge4" class="edge">
<title>Node4&#45;&gt;Node4</title>
<path fill="none" stroke="#9a32cd" stroke-dasharray="5,2" d="M132.4863,-138.2754C137.1669,-137.2806 140,-135.8555 140,-134 140,-131.0313 132.7472,-129.1642 122.2789,-128.3988"/>
<polygon fill="#9a32cd" stroke="#9a32cd" points="131.7448,-134.8422 122.2789,-139.6012 132.6465,-141.7839 131.7448,-134.8422"/>
<text text-anchor="middle" x="166" y="-131.5" font-family="Helvetica,sans-Serif" font-size="10.00" fill="#000000"> GlobalList</text>
</g>
</g>
</svg>
