<?xml version="1.0" encoding="UTF-8" standalone="no"?>
<!DOCTYPE svg PUBLIC "-//W3C//DTD SVG 1.1//EN"
 "http://www.w3.org/Graphics/SVG/1.1/DTD/svg11.dtd">
<!-- Generated by graphviz version 2.40.1 (20161225.0304)
 -->
<!-- Title: pkgAcqTransactionItem Pages: 1 -->
<svg width="1820pt" height="886pt"
 viewBox="0.00 0.00 1820.00 885.86" xmlns="http://www.w3.org/2000/svg" xmlns:xlink="http://www.w3.org/1999/xlink">
<g id="graph0" class="graph" transform="scale(1 1) rotate(0) translate(4 881.8617)">
<title>pkgAcqTransactionItem</title>
<polygon fill="#ffffff" stroke="transparent" points="-4,4 -4,-881.8617 1816,-881.8617 1816,4 -4,4"/>
<!-- Node13 -->
<g id="node1" class="node">
<title>Node13</title>
<polygon fill="#bfbfbf" stroke="#000000" points="890,-139.3617 890,-158.3617 1021,-158.3617 1021,-139.3617 890,-139.3617"/>
<text text-anchor="middle" x="955.5" y="-146.3617" font-family="Helvetica,sans-Serif" font-size="10.00" fill="#000000">pkgAcqTransactionItem</text>
</g>
<!-- Node32 -->
<g id="node20" class="node">
<title>Node32</title>
<g id="a_node20"><a xlink:href="classpkgAcqMetaBase.xhtml" target="_top" xlink:title="the manager of a transaction ">
<polygon fill="#ffffff" stroke="#000000" points="1353,-133.3617 1353,-152.3617 1454,-152.3617 1454,-133.3617 1353,-133.3617"/>
<text text-anchor="middle" x="1403.5" y="-140.3617" font-family="Helvetica,sans-Serif" font-size="10.00" fill="#000000">pkgAcqMetaBase</text>
</a>
</g>
</g>
<!-- Node13&#45;&gt;Node32 -->
<g id="edge44" class="edge">
<title>Node13&#45;&gt;Node32</title>
<path fill="none" stroke="#191970" d="M1031.1644,-147.8484C1122.7693,-146.6215 1274.4984,-144.5894 1352.9889,-143.5382"/>
<polygon fill="#191970" stroke="#191970" points="1031.075,-144.3492 1021.1228,-147.9829 1031.1688,-151.3485 1031.075,-144.3492"/>
</g>
<!-- Node33 -->
<g id="node21" class="node">
<title>Node33</title>
<polygon fill="#ffffff" stroke="#bfbfbf" points="1106,-83.8617 1106,-113.8617 1256,-113.8617 1256,-83.8617 1106,-83.8617"/>
<text text-anchor="start" x="1114" y="-101.8617" font-family="Helvetica,sans-Serif" font-size="10.00" fill="#000000">vector&lt; pkgAcqTransaction</text>
<text text-anchor="middle" x="1181" y="-90.8617" font-family="Helvetica,sans-Serif" font-size="10.00" fill="#000000">Item *&gt;</text>
</g>
<!-- Node13&#45;&gt;Node33 -->
<g id="edge46" class="edge">
<title>Node13&#45;&gt;Node33</title>
<path fill="none" stroke="#9a32cd" stroke-dasharray="5,2" d="M986.6487,-135.4154C1002.1304,-129.2201 1021.2761,-122.279 1039,-117.8617 1060.4795,-112.5085 1084.1868,-108.581 1105.9768,-105.7349"/>
<polygon fill="#9a32cd" stroke="#9a32cd" points="984.9829,-132.3154 977.0559,-139.3449 987.6364,-138.7931 984.9829,-132.3154"/>
<text text-anchor="middle" x="1063.5" y="-120.8617" font-family="Helvetica,sans-Serif" font-size="10.00" fill="#000000"> elements</text>
</g>
<!-- Node14 -->
<g id="node2" class="node">
<title>Node14</title>
<g id="a_node2"><a xlink:href="classpkgAcquire_1_1Item.xhtml" target="_top" xlink:title="Represents the process by which a pkgAcquire object should retrieve a file or a collection of files...">
<polygon fill="#ffffff" stroke="#000000" points="411,-711.3617 411,-730.3617 450,-730.3617 450,-711.3617 411,-711.3617"/>
<text text-anchor="middle" x="430.5" y="-718.3617" font-family="Helvetica,sans-Serif" font-size="10.00" fill="#000000">Item</text>
</a>
</g>
</g>
<!-- Node14&#45;&gt;Node13 -->
<g id="edge1" class="edge">
<title>Node14&#45;&gt;Node13</title>
<path fill="none" stroke="#191970" d="M445.6744,-703.5852C461.0774,-686.2005 485.7586,-658.7584 508,-635.8617 559.2473,-583.1048 582.7999,-579.6489 627,-520.8617 637.2752,-507.1955 634.3962,-500.2746 645,-486.8617 728.2074,-381.612 789.4197,-393.6042 872,-287.8617 882.7664,-274.0755 881.3308,-268.0545 890,-252.8617 910.3045,-217.278 936.996,-176.5699 949.0727,-158.4398"/>
<polygon fill="#191970" stroke="#191970" points="442.9041,-701.4347 438.9095,-711.2476 448.1517,-706.0676 442.9041,-701.4347"/>
</g>
<!-- Node17 -->
<g id="node5" class="node">
<title>Node17</title>
<polygon fill="#ffffff" stroke="#bfbfbf" points="667,-733.8617 667,-763.8617 780,-763.8617 780,-733.8617 667,-733.8617"/>
<text text-anchor="start" x="675" y="-751.8617" font-family="Helvetica,sans-Serif" font-size="10.00" fill="#000000">vector&lt; pkgAcquire</text>
<text text-anchor="middle" x="723.5" y="-740.8617" font-family="Helvetica,sans-Serif" font-size="10.00" fill="#000000">::Item *&gt;</text>
</g>
<!-- Node14&#45;&gt;Node17 -->
<g id="edge5" class="edge">
<title>Node14&#45;&gt;Node17</title>
<path fill="none" stroke="#9a32cd" stroke-dasharray="5,2" d="M460.1908,-718.5593C498.8235,-716.1233 568.3229,-713.6555 627,-721.8617 644.4015,-724.2954 663.0928,-729.0114 679.3476,-733.8301"/>
<polygon fill="#9a32cd" stroke="#9a32cd" points="459.8894,-715.0716 450.1476,-719.2367 460.3605,-722.0558 459.8894,-715.0716"/>
<text text-anchor="middle" x="567.5" y="-724.8617" font-family="Helvetica,sans-Serif" font-size="10.00" fill="#000000"> elements</text>
</g>
<!-- Node20 -->
<g id="node8" class="node">
<title>Node20</title>
<g id="a_node8"><a xlink:href="structpkgAcquire_1_1ItemDesc.xhtml" target="_top" xlink:title="Represents a single download source from which an item should be downloaded. ">
<polygon fill="#ffffff" stroke="#000000" points="692,-805.3617 692,-824.3617 755,-824.3617 755,-805.3617 692,-805.3617"/>
<text text-anchor="middle" x="723.5" y="-812.3617" font-family="Helvetica,sans-Serif" font-size="10.00" fill="#000000">ItemDesc</text>
</a>
</g>
</g>
<!-- Node14&#45;&gt;Node20 -->
<g id="edge13" class="edge">
<title>Node14&#45;&gt;Node20</title>
<path fill="none" stroke="#9a32cd" stroke-dasharray="5,2" d="M460.3859,-725.7015C513.5384,-734.3768 619.6528,-752.0289 627,-755.8617 637.0308,-761.0945 635.8807,-767.1656 645,-773.8617 662.4744,-786.6928 684.5134,-797.8274 700.7878,-805.2418"/>
<polygon fill="#9a32cd" stroke="#9a32cd" points="460.6366,-722.1963 450.2041,-724.0438 459.5116,-729.1053 460.6366,-722.1963"/>
<text text-anchor="middle" x="567.5" y="-758.8617" font-family="Helvetica,sans-Serif" font-size="10.00" fill="#000000"> Owner</text>
</g>
<!-- Node15 -->
<g id="node3" class="node">
<title>Node15</title>
<g id="a_node3"><a xlink:href="classWeakPointable.xhtml" target="_top" xlink:title="WeakPointable">
<polygon fill="#ffffff" stroke="#000000" points="156,-830.3617 156,-849.3617 245,-849.3617 245,-830.3617 156,-830.3617"/>
<text text-anchor="middle" x="200.5" y="-837.3617" font-family="Helvetica,sans-Serif" font-size="10.00" fill="#000000">WeakPointable</text>
</a>
</g>
</g>
<!-- Node15&#45;&gt;Node14 -->
<g id="edge2" class="edge">
<title>Node15&#45;&gt;Node14</title>
<path fill="none" stroke="#191970" d="M228.0207,-825.6227C275.505,-801.0548 371.6084,-751.3318 411.9791,-730.4443"/>
<polygon fill="#191970" stroke="#191970" points="226.2064,-822.6207 218.9331,-830.3246 229.4231,-828.8379 226.2064,-822.6207"/>
</g>
<!-- Node15&#45;&gt;Node20 -->
<g id="edge10" class="edge">
<title>Node15&#45;&gt;Node20</title>
<path fill="none" stroke="#191970" d="M255.5665,-839.4722C336.8975,-838.5757 493.8846,-835.6174 627,-825.8617 648.6938,-824.2718 673.0277,-821.4911 691.8325,-819.1234"/>
<polygon fill="#191970" stroke="#191970" points="255.0414,-835.9774 245.0782,-839.581 255.114,-842.977 255.0414,-835.9774"/>
</g>
<!-- Node23 -->
<g id="node11" class="node">
<title>Node23</title>
<g id="a_node11"><a xlink:href="classpkgAcquire_1_1Worker.xhtml" target="_top" xlink:title="A fetch subprocess. ">
<polygon fill="#ffffff" stroke="#000000" points="1378,-608.3617 1378,-627.3617 1429,-627.3617 1429,-608.3617 1378,-608.3617"/>
<text text-anchor="middle" x="1403.5" y="-615.3617" font-family="Helvetica,sans-Serif" font-size="10.00" fill="#000000">Worker</text>
</a>
</g>
</g>
<!-- Node15&#45;&gt;Node23 -->
<g id="edge17" class="edge">
<title>Node15&#45;&gt;Node23</title>
<path fill="none" stroke="#191970" d="M246.036,-851.9047C292.1763,-863.0354 365.7829,-877.8617 430.5,-877.8617 430.5,-877.8617 430.5,-877.8617 846,-877.8617 1033.564,-877.8617 1094.8644,-873.8595 1256,-777.8617 1310.0651,-745.6521 1308.1584,-718.9604 1351,-672.8617 1365.9172,-656.8104 1383.5634,-638.4497 1394.1272,-627.5238"/>
<polygon fill="#191970" stroke="#191970" points="246.6007,-848.4394 236.0543,-849.4507 244.9295,-855.237 246.6007,-848.4394"/>
</g>
<!-- Node16 -->
<g id="node4" class="node">
<title>Node16</title>
<g id="a_node4"><a xlink:href="classpkgAcquire.xhtml" target="_top" xlink:title="The core download scheduler. {{{. ">
<polygon fill="#ffffff" stroke="#000000" points="920,-660.3617 920,-679.3617 991,-679.3617 991,-660.3617 920,-660.3617"/>
<text text-anchor="middle" x="955.5" y="-667.3617" font-family="Helvetica,sans-Serif" font-size="10.00" fill="#000000">pkgAcquire</text>
</a>
</g>
</g>
<!-- Node16&#45;&gt;Node14 -->
<g id="edge3" class="edge">
<title>Node16&#45;&gt;Node14</title>
<path fill="none" stroke="#9a32cd" stroke-dasharray="5,2" d="M909.9727,-681.6129C897.7173,-684.3938 884.4153,-687.0688 872,-688.8617 711.5639,-712.0304 669.4537,-697.3962 508,-711.8617 488.3028,-713.6265 465.8653,-716.3056 450.2199,-718.2822"/>
<polygon fill="#9a32cd" stroke="#9a32cd" points="911.0406,-684.9576 919.9788,-679.2691 909.444,-678.1421 911.0406,-684.9576"/>
<text text-anchor="middle" x="723.5" y="-706.8617" font-family="Helvetica,sans-Serif" font-size="10.00" fill="#000000"> Owner</text>
</g>
<!-- Node18 -->
<g id="node6" class="node">
<title>Node18</title>
<g id="a_node6"><a xlink:href="classpkgAcquire_1_1Queue.xhtml" target="_top" xlink:title="A single download queue in a pkgAcquire object. {{{. ">
<polygon fill="#ffffff" stroke="#000000" points="1157,-625.3617 1157,-644.3617 1205,-644.3617 1205,-625.3617 1157,-625.3617"/>
<text text-anchor="middle" x="1181" y="-632.3617" font-family="Helvetica,sans-Serif" font-size="10.00" fill="#000000">Queue</text>
</a>
</g>
</g>
<!-- Node16&#45;&gt;Node18 -->
<g id="edge7" class="edge">
<title>Node16&#45;&gt;Node18</title>
<path fill="none" stroke="#9a32cd" stroke-dasharray="5,2" d="M1001.1733,-662.7727C1048.2433,-655.467 1119.819,-644.3577 1156.8767,-638.6059"/>
<polygon fill="#9a32cd" stroke="#9a32cd" points="1000.576,-659.3235 991.2311,-664.3159 1001.6497,-666.2406 1000.576,-659.3235"/>
<text text-anchor="middle" x="1063.5" y="-658.8617" font-family="Helvetica,sans-Serif" font-size="10.00" fill="#000000"> Owner</text>
</g>
<!-- Node17&#45;&gt;Node16 -->
<g id="edge4" class="edge">
<title>Node17&#45;&gt;Node16</title>
<path fill="none" stroke="#9a32cd" stroke-dasharray="5,2" d="M790.376,-737.5399C816.3229,-732.1205 845.9928,-724.6416 872,-714.8617 897.2787,-705.3558 924.4375,-689.5613 940.6931,-679.4367"/>
<polygon fill="#9a32cd" stroke="#9a32cd" points="789.3632,-734.1739 780.2573,-739.5898 790.7531,-741.0345 789.3632,-734.1739"/>
<text text-anchor="middle" x="846" y="-732.8617" font-family="Helvetica,sans-Serif" font-size="10.00" fill="#000000"> Items</text>
</g>
<!-- Node19 -->
<g id="node7" class="node">
<title>Node19</title>
<g id="a_node7"><a xlink:href="structpkgAcquire_1_1Queue_1_1QItem.xhtml" target="_top" xlink:title="A single item placed in this queue. ">
<polygon fill="#ffffff" stroke="#000000" points="1582.5,-703.3617 1582.5,-722.3617 1629.5,-722.3617 1629.5,-703.3617 1582.5,-703.3617"/>
<text text-anchor="middle" x="1606" y="-710.3617" font-family="Helvetica,sans-Serif" font-size="10.00" fill="#000000">QItem</text>
</a>
</g>
</g>
<!-- Node17&#45;&gt;Node19 -->
<g id="edge14" class="edge">
<title>Node17&#45;&gt;Node19</title>
<path fill="none" stroke="#9a32cd" stroke-dasharray="5,2" d="M790.3822,-755.0383C836.6958,-758.79 899.7919,-762.8617 955.5,-762.8617 955.5,-762.8617 955.5,-762.8617 1403.5,-762.8617 1470.3113,-762.8617 1546.0015,-736.8911 1583.0698,-722.384"/>
<polygon fill="#9a32cd" stroke="#9a32cd" points="790.4269,-751.5302 780.1725,-754.1945 789.8502,-758.5064 790.4269,-751.5302"/>
<text text-anchor="middle" x="1181" y="-765.8617" font-family="Helvetica,sans-Serif" font-size="10.00" fill="#000000"> Owners</text>
</g>
<!-- Node18&#45;&gt;Node16 -->
<g id="edge6" class="edge">
<title>Node18&#45;&gt;Node16</title>
<path fill="none" stroke="#9a32cd" stroke-dasharray="5,2" d="M1146.7086,-628.3267C1117.6477,-623.9905 1075.0694,-620.4841 1039,-628.8617 1013.0438,-634.8904 985.8591,-650.18 969.8123,-660.2882"/>
<polygon fill="#9a32cd" stroke="#9a32cd" points="1146.3383,-631.812 1156.7666,-629.9413 1147.4478,-624.9004 1146.3383,-631.812"/>
<text text-anchor="middle" x="1063.5" y="-631.8617" font-family="Helvetica,sans-Serif" font-size="10.00" fill="#000000"> Queues</text>
</g>
<!-- Node18&#45;&gt;Node23 -->
<g id="edge18" class="edge">
<title>Node18&#45;&gt;Node23</title>
<path fill="none" stroke="#9a32cd" stroke-dasharray="5,2" d="M1215.3672,-632.2359C1260.2681,-628.8053 1337.8701,-622.8761 1377.9289,-619.8155"/>
<polygon fill="#9a32cd" stroke="#9a32cd" points="1214.9392,-628.7583 1205.235,-633.0101 1215.4726,-635.738 1214.9392,-628.7583"/>
<text text-anchor="middle" x="1303.5" y="-629.8617" font-family="Helvetica,sans-Serif" font-size="10.00" fill="#000000"> OwnerQ</text>
</g>
<!-- Node19&#45;&gt;Node18 -->
<g id="edge8" class="edge">
<title>Node19&#45;&gt;Node18</title>
<path fill="none" stroke="#9a32cd" stroke-dasharray="5,2" d="M1572.096,-709.9366C1545.3841,-707.4703 1507.2339,-703.5901 1474,-698.8617 1419.0195,-691.0393 1405.3188,-688.4166 1351,-676.8617 1298.6648,-665.7288 1237.9389,-650.0521 1205.0961,-641.3413"/>
<polygon fill="#9a32cd" stroke="#9a32cd" points="1571.8154,-713.4254 1582.0906,-710.8427 1572.4474,-706.454 1571.8154,-713.4254"/>
<text text-anchor="middle" x="1403.5" y="-698.8617" font-family="Helvetica,sans-Serif" font-size="10.00" fill="#000000"> Items</text>
</g>
<!-- Node19&#45;&gt;Node19 -->
<g id="edge15" class="edge">
<title>Node19&#45;&gt;Node19</title>
<path fill="none" stroke="#9a32cd" stroke-dasharray="5,2" d="M1593.1091,-732.628C1594.1215,-737.3583 1598.4185,-740.8617 1606,-740.8617 1618.4414,-740.8617 1622.0378,-731.427 1616.789,-722.6188"/>
<polygon fill="#9a32cd" stroke="#9a32cd" points="1596.581,-733.1247 1595.211,-722.6188 1589.7305,-731.686 1596.581,-733.1247"/>
<text text-anchor="middle" x="1606" y="-743.8617" font-family="Helvetica,sans-Serif" font-size="10.00" fill="#000000"> Next</text>
</g>
<!-- Node19&#45;&gt;Node23 -->
<g id="edge23" class="edge">
<title>Node19&#45;&gt;Node23</title>
<path fill="none" stroke="#9a32cd" stroke-dasharray="5,2" d="M1572.8108,-700.7491C1545.7749,-690.5355 1506.8411,-675.0321 1474,-658.8617 1454.311,-649.1672 1432.6194,-636.1819 1418.568,-627.4446"/>
<polygon fill="#9a32cd" stroke="#9a32cd" points="1571.6074,-704.0357 1582.1997,-704.2641 1574.0617,-697.4801 1571.6074,-704.0357"/>
<text text-anchor="middle" x="1505" y="-687.8617" font-family="Helvetica,sans-Serif" font-size="10.00" fill="#000000"> CurrentItem</text>
</g>
<!-- Node20&#45;&gt;Node14 -->
<g id="edge36" class="edge">
<title>Node20&#45;&gt;Node14</title>
<path fill="none" stroke="#9a32cd" stroke-dasharray="5,2" d="M681.7576,-803.4391C664.8208,-798.9636 645.0337,-793.9363 627,-789.8617 574.4567,-777.9901 558.3518,-786.0038 508,-766.8617 504.7276,-765.6177 468.1412,-743.6236 446.4282,-730.5054"/>
<polygon fill="#9a32cd" stroke="#9a32cd" points="681.3295,-806.9471 691.8936,-806.1409 683.1325,-800.1833 681.3295,-806.9471"/>
<text text-anchor="middle" x="567.5" y="-792.8617" font-family="Helvetica,sans-Serif" font-size="10.00" fill="#000000"> Desc</text>
</g>
<!-- Node20&#45;&gt;Node19 -->
<g id="edge9" class="edge">
<title>Node20&#45;&gt;Node19</title>
<path fill="none" stroke="#191970" d="M765.2491,-822.0901C811.5829,-829.4738 888.649,-839.8617 955.5,-839.8617 955.5,-839.8617 955.5,-839.8617 1403.5,-839.8617 1491.8912,-839.8617 1573.3798,-751.9427 1598.2611,-722.4074"/>
<polygon fill="#191970" stroke="#191970" points="765.713,-818.6197 755.2814,-820.4722 764.5914,-825.5293 765.713,-818.6197"/>
</g>
<!-- Node21 -->
<g id="node9" class="node">
<title>Node21</title>
<g id="a_node9"><a xlink:title="STL class. ">
<polygon fill="#ffffff" stroke="#bfbfbf" points="178.5,-363.3617 178.5,-382.3617 222.5,-382.3617 222.5,-363.3617 178.5,-363.3617"/>
<text text-anchor="middle" x="200.5" y="-370.3617" font-family="Helvetica,sans-Serif" font-size="10.00" fill="#000000">string</text>
</a>
</g>
</g>
<!-- Node21&#45;&gt;Node13 -->
<g id="edge58" class="edge">
<title>Node21&#45;&gt;Node13</title>
<path fill="none" stroke="#9a32cd" stroke-dasharray="5,2" d="M203.8909,-353.4295C212.126,-308.6814 234.6073,-200.5357 263,-178.8617 312.0225,-141.4397 726.5985,-144.7139 889.8354,-147.5036"/>
<polygon fill="#9a32cd" stroke="#9a32cd" points="200.4323,-352.8877 202.1093,-363.349 207.322,-354.1252 200.4323,-352.8877"/>
<text text-anchor="middle" x="567.5" y="-150.8617" font-family="Helvetica,sans-Serif" font-size="10.00" fill="#000000"> PartialFile</text>
</g>
<!-- Node21&#45;&gt;Node14 -->
<g id="edge35" class="edge">
<title>Node21&#45;&gt;Node14</title>
<path fill="none" stroke="#9a32cd" stroke-dasharray="5,2" d="M202.0729,-392.6452C207.1995,-452.2761 225.3115,-628.6955 263,-669.8617 283.1674,-691.8901 371.0617,-710.1495 410.8294,-717.4473"/>
<polygon fill="#9a32cd" stroke="#9a32cd" points="205.5576,-392.3144 201.2417,-382.6385 198.5816,-392.8939 205.5576,-392.3144"/>
<text text-anchor="middle" x="308" y="-740.8617" font-family="Helvetica,sans-Serif" font-size="10.00" fill="#000000"> ActiveSubprocess</text>
<text text-anchor="middle" x="308" y="-729.8617" font-family="Helvetica,sans-Serif" font-size="10.00" fill="#000000">DestFile</text>
<text text-anchor="middle" x="308" y="-718.8617" font-family="Helvetica,sans-Serif" font-size="10.00" fill="#000000">ErrorText</text>
<text text-anchor="middle" x="308" y="-707.8617" font-family="Helvetica,sans-Serif" font-size="10.00" fill="#000000">UsedMirror</text>
</g>
<!-- Node21&#45;&gt;Node16 -->
<g id="edge32" class="edge">
<title>Node21&#45;&gt;Node16</title>
<path fill="none" stroke="#9a32cd" stroke-dasharray="5,2" d="M203.2353,-392.5877C210.4845,-441.8444 231.7957,-568.1947 263,-594.8617 362.8607,-680.2021 791.9543,-674.7105 919.5677,-671.0927"/>
<polygon fill="#9a32cd" stroke="#9a32cd" points="206.6821,-391.9666 201.7992,-382.5641 199.7529,-392.9594 206.6821,-391.9666"/>
<text text-anchor="middle" x="567.5" y="-670.8617" font-family="Helvetica,sans-Serif" font-size="10.00" fill="#000000"> Lock</text>
</g>
<!-- Node21&#45;&gt;Node18 -->
<g id="edge29" class="edge">
<title>Node21&#45;&gt;Node18</title>
<path fill="none" stroke="#9a32cd" stroke-dasharray="5,2" d="M210.2303,-391.4907C221.2755,-411.5387 240.6838,-443.6645 263,-466.8617 304.0494,-509.5317 315.1536,-525.1905 371,-544.8617 581.3014,-618.9379 650.8589,-542.3909 872,-570.8617 979.3135,-584.6778 1104.9588,-615.2682 1156.7787,-628.5274"/>
<polygon fill="#9a32cd" stroke="#9a32cd" points="213.1945,-389.6131 205.3744,-382.4649 207.03,-392.9296 213.1945,-389.6131"/>
<text text-anchor="middle" x="723.5" y="-574.8617" font-family="Helvetica,sans-Serif" font-size="10.00" fill="#000000"> Name</text>
</g>
<!-- Node21&#45;&gt;Node20 -->
<g id="edge11" class="edge">
<title>Node21&#45;&gt;Node20</title>
<path fill="none" stroke="#9a32cd" stroke-dasharray="5,2" d="M200.872,-392.6297C202.6185,-463.1383 212.2368,-700.8552 263,-752.8617 334.7242,-826.3426 389.9995,-772.5445 490,-795.8617 498.086,-797.7472 499.8139,-799.4741 508,-800.8617 572.6884,-811.8268 649.6388,-814.3428 691.8579,-814.8372"/>
<polygon fill="#9a32cd" stroke="#9a32cd" points="204.3677,-392.3898 200.6478,-382.4695 197.3694,-392.5443 204.3677,-392.3898"/>
<text text-anchor="middle" x="430.5" y="-820.8617" font-family="Helvetica,sans-Serif" font-size="10.00" fill="#000000"> Description</text>
<text text-anchor="middle" x="430.5" y="-809.8617" font-family="Helvetica,sans-Serif" font-size="10.00" fill="#000000">URI</text>
<text text-anchor="middle" x="430.5" y="-798.8617" font-family="Helvetica,sans-Serif" font-size="10.00" fill="#000000">ShortDesc</text>
</g>
<!-- Node21&#45;&gt;Node23 -->
<g id="edge24" class="edge">
<title>Node21&#45;&gt;Node23</title>
<path fill="none" stroke="#9a32cd" stroke-dasharray="5,2" d="M226.9983,-386.8429C237.8801,-392.0206 250.7756,-397.454 263,-400.8617 525.6955,-474.0919 602.2553,-435.7453 872,-475.8617 1043.3603,-501.3465 1089.3943,-495.3606 1256,-542.8617 1291.4778,-552.9768 1300.1145,-557.1425 1333,-573.8617 1353.5776,-584.3236 1375.9723,-598.8956 1389.8745,-608.3535"/>
<polygon fill="#9a32cd" stroke="#9a32cd" points="228.538,-383.6998 218.0212,-382.4161 225.442,-389.978 228.538,-383.6998"/>
<text text-anchor="middle" x="846" y="-500.8617" font-family="Helvetica,sans-Serif" font-size="10.00" fill="#000000"> OutQueue</text>
<text text-anchor="middle" x="846" y="-489.8617" font-family="Helvetica,sans-Serif" font-size="10.00" fill="#000000">Access</text>
<text text-anchor="middle" x="846" y="-478.8617" font-family="Helvetica,sans-Serif" font-size="10.00" fill="#000000">Status</text>
</g>
<!-- Node24 -->
<g id="node12" class="node">
<title>Node24</title>
<g id="a_node12"><a xlink:href="structpkgAcquire_1_1MethodConfig.xhtml" target="_top" xlink:title="Information about the properties of a single acquire method. {{{. ">
<polygon fill="#ffffff" stroke="#000000" points="682,-496.3617 682,-515.3617 765,-515.3617 765,-496.3617 682,-496.3617"/>
<text text-anchor="middle" x="723.5" y="-503.3617" font-family="Helvetica,sans-Serif" font-size="10.00" fill="#000000">MethodConfig</text>
</a>
</g>
</g>
<!-- Node21&#45;&gt;Node24 -->
<g id="edge21" class="edge">
<title>Node21&#45;&gt;Node24</title>
<path fill="none" stroke="#9a32cd" stroke-dasharray="5,2" d="M211.2537,-391.2628C222.0705,-407.9553 240.3669,-431.7486 263,-443.8617 299.6287,-463.4653 575.4919,-491.6657 681.8538,-501.9337"/>
<polygon fill="#9a32cd" stroke="#9a32cd" points="214.0084,-389.0625 205.773,-382.397 208.0542,-392.7434 214.0084,-389.0625"/>
<text text-anchor="middle" x="430.5" y="-494.8617" font-family="Helvetica,sans-Serif" font-size="10.00" fill="#000000"> Access</text>
<text text-anchor="middle" x="430.5" y="-483.8617" font-family="Helvetica,sans-Serif" font-size="10.00" fill="#000000">Version</text>
</g>
<!-- Node27 -->
<g id="node15" class="node">
<title>Node27</title>
<polygon fill="#ffffff" stroke="#bfbfbf" points="508,-395.3617 508,-414.3617 627,-414.3617 627,-395.3617 508,-395.3617"/>
<text text-anchor="middle" x="567.5" y="-402.3617" font-family="Helvetica,sans-Serif" font-size="10.00" fill="#000000">vector&lt; std::string &gt;</text>
</g>
<!-- Node21&#45;&gt;Node27 -->
<g id="edge27" class="edge">
<title>Node21&#45;&gt;Node27</title>
<path fill="none" stroke="#9a32cd" stroke-dasharray="5,2" d="M232.9063,-375.6873C294.5038,-381.0582 429.3221,-392.8135 507.7263,-399.6499"/>
<polygon fill="#9a32cd" stroke="#9a32cd" points="232.8973,-372.1734 222.631,-374.7914 232.2892,-379.1469 232.8973,-372.1734"/>
<text text-anchor="middle" x="308" y="-388.8617" font-family="Helvetica,sans-Serif" font-size="10.00" fill="#000000"> elements</text>
</g>
<!-- Node28 -->
<g id="node16" class="node">
<title>Node28</title>
<g id="a_node16"><a xlink:href="classIndexTarget.xhtml" target="_top" xlink:title="Information about an index file. ">
<polygon fill="#ffffff" stroke="#000000" points="686.5,-61.3617 686.5,-80.3617 760.5,-80.3617 760.5,-61.3617 686.5,-61.3617"/>
<text text-anchor="middle" x="723.5" y="-68.3617" font-family="Helvetica,sans-Serif" font-size="10.00" fill="#000000">IndexTarget</text>
</a>
</g>
</g>
<!-- Node21&#45;&gt;Node28 -->
<g id="edge40" class="edge">
<title>Node21&#45;&gt;Node28</title>
<path fill="none" stroke="#9a32cd" stroke-dasharray="5,2" d="M203.1434,-353.0843C212.0589,-287.7067 241.6564,-81.5216 263,-60.8617 386.9655,59.1323 629.0593,-30.2319 702.122,-61.299"/>
<polygon fill="#9a32cd" stroke="#9a32cd" points="199.6382,-352.8883 201.7675,-363.2669 206.5752,-353.8257 199.6382,-352.8883"/>
<text text-anchor="middle" x="430.5" y="-42.8617" font-family="Helvetica,sans-Serif" font-size="10.00" fill="#000000"> Description</text>
<text text-anchor="middle" x="430.5" y="-31.8617" font-family="Helvetica,sans-Serif" font-size="10.00" fill="#000000">URI</text>
<text text-anchor="middle" x="430.5" y="-20.8617" font-family="Helvetica,sans-Serif" font-size="10.00" fill="#000000">ShortDesc</text>
<text text-anchor="middle" x="430.5" y="-9.8617" font-family="Helvetica,sans-Serif" font-size="10.00" fill="#000000">MetaKey</text>
</g>
<!-- Node29 -->
<g id="node17" class="node">
<title>Node29</title>
<polygon fill="#ffffff" stroke="#bfbfbf" points="371,-95.8617 371,-125.8617 490,-125.8617 490,-95.8617 371,-95.8617"/>
<text text-anchor="start" x="379" y="-113.8617" font-family="Helvetica,sans-Serif" font-size="10.00" fill="#000000">map&lt; std::string, std</text>
<text text-anchor="middle" x="430.5" y="-102.8617" font-family="Helvetica,sans-Serif" font-size="10.00" fill="#000000">::string &gt;</text>
</g>
<!-- Node21&#45;&gt;Node29 -->
<g id="edge39" class="edge">
<title>Node21&#45;&gt;Node29</title>
<path fill="none" stroke="#9a32cd" stroke-dasharray="5,2" d="M202.3686,-353.104C207.9486,-298.74 226.4181,-148.9697 263,-118.8617 279.0723,-105.6338 329.4533,-104.6877 370.7988,-106.4298"/>
<polygon fill="#9a32cd" stroke="#9a32cd" points="198.8734,-352.8832 201.3716,-363.1792 205.8394,-353.5725 198.8734,-352.8832"/>
<text text-anchor="middle" x="308" y="-132.8617" font-family="Helvetica,sans-Serif" font-size="10.00" fill="#000000"> keys</text>
<text text-anchor="middle" x="308" y="-121.8617" font-family="Helvetica,sans-Serif" font-size="10.00" fill="#000000">elements</text>
</g>
<!-- Node21&#45;&gt;Node32 -->
<g id="edge47" class="edge">
<title>Node21&#45;&gt;Node32</title>
<path fill="none" stroke="#9a32cd" stroke-dasharray="5,2" d="M207.0316,-353.7563C216.1586,-329.5546 234.8392,-287.8751 263,-261.8617 322.1419,-207.2297 349.9865,-192.8617 430.5,-192.8617 430.5,-192.8617 430.5,-192.8617 955.5,-192.8617 1123.9974,-192.8617 1166.4211,-183.2158 1333,-157.8617 1342.6494,-156.393 1352.9636,-154.4268 1362.6416,-152.4026"/>
<polygon fill="#9a32cd" stroke="#9a32cd" points="203.7098,-352.6506 203.6076,-363.2449 210.2942,-355.0267 203.7098,-352.6506"/>
<text text-anchor="middle" x="846" y="-195.8617" font-family="Helvetica,sans-Serif" font-size="10.00" fill="#000000"> BaseURI</text>
</g>
<!-- Node34 -->
<g id="node22" class="node">
<title>Node34</title>
<g id="a_node22"><a xlink:href="classmetaIndex.xhtml" target="_top" xlink:title="metaIndex">
<polygon fill="#ffffff" stroke="#000000" points="921,-262.3617 921,-281.3617 990,-281.3617 990,-262.3617 921,-262.3617"/>
<text text-anchor="middle" x="955.5" y="-269.3617" font-family="Helvetica,sans-Serif" font-size="10.00" fill="#000000">metaIndex</text>
</a>
</g>
</g>
<!-- Node21&#45;&gt;Node34 -->
<g id="edge57" class="edge">
<title>Node21&#45;&gt;Node34</title>
<path fill="none" stroke="#9a32cd" stroke-dasharray="5,2" d="M232.8392,-370.9367C286.7217,-367.2639 398.0368,-357.6906 490,-336.8617 498.2244,-334.999 499.7585,-332.6477 508,-330.8617 636.4106,-303.0349 671.8476,-317.8602 802,-299.8617 843.0555,-294.1843 889.866,-285.2917 920.8877,-279.0551"/>
<polygon fill="#9a32cd" stroke="#9a32cd" points="232.2944,-367.4649 222.5456,-371.6136 232.7538,-374.4498 232.2944,-367.4649"/>
<text text-anchor="middle" x="567.5" y="-377.8617" font-family="Helvetica,sans-Serif" font-size="10.00" fill="#000000"> Codename</text>
<text text-anchor="middle" x="567.5" y="-366.8617" font-family="Helvetica,sans-Serif" font-size="10.00" fill="#000000">Dist</text>
<text text-anchor="middle" x="567.5" y="-355.8617" font-family="Helvetica,sans-Serif" font-size="10.00" fill="#000000">Suite</text>
<text text-anchor="middle" x="567.5" y="-344.8617" font-family="Helvetica,sans-Serif" font-size="10.00" fill="#000000">URI</text>
<text text-anchor="middle" x="567.5" y="-333.8617" font-family="Helvetica,sans-Serif" font-size="10.00" fill="#000000">SignedBy</text>
</g>
<!-- Node35 -->
<g id="node23" class="node">
<title>Node35</title>
<polygon fill="#ffffff" stroke="#bfbfbf" points="645,-259.8617 645,-289.8617 802,-289.8617 802,-259.8617 645,-259.8617"/>
<text text-anchor="start" x="653" y="-277.8617" font-family="Helvetica,sans-Serif" font-size="10.00" fill="#000000">map&lt; std::string, metaIndex</text>
<text text-anchor="middle" x="723.5" y="-266.8617" font-family="Helvetica,sans-Serif" font-size="10.00" fill="#000000">::checkSum *&gt;</text>
</g>
<!-- Node21&#45;&gt;Node35 -->
<g id="edge51" class="edge">
<title>Node21&#45;&gt;Node35</title>
<path fill="none" stroke="#9a32cd" stroke-dasharray="5,2" d="M224.092,-357.9171C235.447,-351.3847 249.5018,-344.2304 263,-339.8617 280.944,-334.0541 518.0778,-302.0888 644.831,-285.2496"/>
<polygon fill="#9a32cd" stroke="#9a32cd" points="222.0567,-355.0556 215.2602,-363.1832 225.6417,-361.0679 222.0567,-355.0556"/>
<text text-anchor="middle" x="430.5" y="-324.8617" font-family="Helvetica,sans-Serif" font-size="10.00" fill="#000000"> keys</text>
</g>
<!-- Node36 -->
<g id="node24" class="node">
<title>Node36</title>
<g id="a_node24"><a xlink:href="structmetaIndex_1_1checkSum.xhtml" target="_top" xlink:title="checkSum">
<polygon fill="#ffffff" stroke="#000000" points="397,-259.3617 397,-278.3617 464,-278.3617 464,-259.3617 397,-259.3617"/>
<text text-anchor="middle" x="430.5" y="-266.3617" font-family="Helvetica,sans-Serif" font-size="10.00" fill="#000000">checkSum</text>
</a>
</g>
</g>
<!-- Node21&#45;&gt;Node36 -->
<g id="edge54" class="edge">
<title>Node21&#45;&gt;Node36</title>
<path fill="none" stroke="#9a32cd" stroke-dasharray="5,2" d="M209.0874,-353.9739C219.064,-334.4008 237.4801,-304.6449 263,-289.8617 304.4633,-265.8428 361.2873,-263.9384 396.9381,-265.698"/>
<polygon fill="#9a32cd" stroke="#9a32cd" points="205.8533,-352.6221 204.6466,-363.148 212.1539,-355.672 205.8533,-352.6221"/>
<text text-anchor="middle" x="308" y="-292.8617" font-family="Helvetica,sans-Serif" font-size="10.00" fill="#000000"> MetaKeyFilename</text>
</g>
<!-- Node22 -->
<g id="node10" class="node">
<title>Node22</title>
<g id="a_node10"><a xlink:title="STL class. ">
<polygon fill="#ffffff" stroke="#bfbfbf" points="0,-363.3617 0,-382.3617 119,-382.3617 119,-363.3617 0,-363.3617"/>
<text text-anchor="middle" x="59.5" y="-370.3617" font-family="Helvetica,sans-Serif" font-size="10.00" fill="#000000">basic_string&lt; char &gt;</text>
</a>
</g>
</g>
<!-- Node22&#45;&gt;Node21 -->
<g id="edge12" class="edge">
<title>Node22&#45;&gt;Node21</title>
<path fill="none" stroke="#191970" d="M129.6368,-372.8617C147.2611,-372.8617 164.9157,-372.8617 178.1946,-372.8617"/>
<polygon fill="#191970" stroke="#191970" points="129.2967,-369.3618 119.2967,-372.8617 129.2967,-376.3618 129.2967,-369.3618"/>
</g>
<!-- Node23&#45;&gt;Node16 -->
<g id="edge34" class="edge">
<title>Node23&#45;&gt;Node16</title>
<path fill="none" stroke="#9a32cd" stroke-dasharray="5,2" d="M1369.397,-630.8029C1357.9543,-634.7863 1345.0406,-638.8978 1333,-641.8617 1205.5051,-673.2457 1170.2985,-671.6479 1039,-670.8617 1023.3429,-670.768 1006.0353,-670.5754 991.2564,-670.384"/>
<polygon fill="#9a32cd" stroke="#9a32cd" points="1370.7751,-634.0273 1379.0151,-627.3675 1368.4205,-627.4352 1370.7751,-634.0273"/>
<text text-anchor="middle" x="1181" y="-673.8617" font-family="Helvetica,sans-Serif" font-size="10.00" fill="#000000"> Workers</text>
</g>
<!-- Node23&#45;&gt;Node18 -->
<g id="edge30" class="edge">
<title>Node23&#45;&gt;Node18</title>
<path fill="none" stroke="#9a32cd" stroke-dasharray="5,2" d="M1367.6089,-612.3856C1356.5389,-610.9378 1344.2914,-609.5795 1333,-608.8617 1306.8306,-607.1981 1299.979,-605.2986 1274,-608.8617 1250.0824,-612.1422 1223.6463,-619.9587 1205.0927,-626.1702"/>
<polygon fill="#9a32cd" stroke="#9a32cd" points="1367.4089,-615.8909 1377.792,-613.7832 1368.3608,-608.9559 1367.4089,-615.8909"/>
<text text-anchor="middle" x="1303.5" y="-611.8617" font-family="Helvetica,sans-Serif" font-size="10.00" fill="#000000"> Workers</text>
</g>
<!-- Node23&#45;&gt;Node19 -->
<g id="edge16" class="edge">
<title>Node23&#45;&gt;Node19</title>
<path fill="none" stroke="#9a32cd" stroke-dasharray="5,2" d="M1439.0752,-620.8272C1466.8024,-624.3079 1505.5725,-631.8068 1536,-647.8617 1562.695,-661.9473 1586.8133,-688.858 1598.5261,-703.2388"/>
<polygon fill="#9a32cd" stroke="#9a32cd" points="1439.362,-617.3373 1429.0295,-619.6805 1438.568,-624.2921 1439.362,-617.3373"/>
<text text-anchor="middle" x="1505" y="-650.8617" font-family="Helvetica,sans-Serif" font-size="10.00" fill="#000000"> Worker</text>
</g>
<!-- Node23&#45;&gt;Node23 -->
<g id="edge28" class="edge">
<title>Node23&#45;&gt;Node23</title>
<path fill="none" stroke="#9a32cd" stroke-dasharray="5,2" d="M1384.9824,-637.2618C1386.2191,-642.1763 1392.3916,-645.8617 1403.5,-645.8617 1421.2734,-645.8617 1426.4111,-636.427 1418.9129,-627.6188"/>
<polygon fill="#9a32cd" stroke="#9a32cd" points="1388.3539,-638.2103 1388.0871,-627.6188 1381.6907,-636.0649 1388.3539,-638.2103"/>
<text text-anchor="middle" x="1403.5" y="-659.8617" font-family="Helvetica,sans-Serif" font-size="10.00" fill="#000000"> NextQueue</text>
<text text-anchor="middle" x="1403.5" y="-648.8617" font-family="Helvetica,sans-Serif" font-size="10.00" fill="#000000">NextAcquire</text>
</g>
<!-- Node24&#45;&gt;Node16 -->
<g id="edge31" class="edge">
<title>Node24&#45;&gt;Node16</title>
<path fill="none" stroke="#9a32cd" stroke-dasharray="5,2" d="M746.6149,-521.1843C762.3221,-531.6657 783.5219,-545.9479 802,-558.8617 854.5648,-595.5978 916.1135,-640.7727 942.4608,-660.2155"/>
<polygon fill="#9a32cd" stroke="#9a32cd" points="748.3272,-518.1196 738.0635,-515.4913 744.448,-523.9465 748.3272,-518.1196"/>
<text text-anchor="middle" x="846" y="-609.8617" font-family="Helvetica,sans-Serif" font-size="10.00" fill="#000000"> Configs</text>
</g>
<!-- Node24&#45;&gt;Node23 -->
<g id="edge19" class="edge">
<title>Node24&#45;&gt;Node23</title>
<path fill="none" stroke="#9a32cd" stroke-dasharray="5,2" d="M775.2112,-509.4221C881.196,-517.5328 1130.1677,-540.7725 1333,-591.8617 1349.5719,-596.0358 1367.6443,-602.7463 1381.3422,-608.3042"/>
<polygon fill="#9a32cd" stroke="#9a32cd" points="775.3405,-505.922 765.106,-508.6617 774.8152,-512.9023 775.3405,-505.922"/>
<text text-anchor="middle" x="1063.5" y="-545.8617" font-family="Helvetica,sans-Serif" font-size="10.00" fill="#000000"> Config</text>
</g>
<!-- Node24&#45;&gt;Node24 -->
<g id="edge20" class="edge">
<title>Node24&#45;&gt;Node24</title>
<path fill="none" stroke="#9a32cd" stroke-dasharray="5,2" d="M700.8066,-524.8909C702.0445,-529.9897 709.6089,-533.8617 723.5,-533.8617 745.1836,-533.8617 751.4515,-524.427 742.3037,-515.6188"/>
<polygon fill="#9a32cd" stroke="#9a32cd" points="704.0553,-526.1942 704.6963,-515.6188 697.6003,-523.4863 704.0553,-526.1942"/>
<text text-anchor="middle" x="723.5" y="-536.8617" font-family="Helvetica,sans-Serif" font-size="10.00" fill="#000000"> Next</text>
</g>
<!-- Node25 -->
<g id="node13" class="node">
<title>Node25</title>
<g id="a_node13"><a xlink:href="classpkgAcquire_1_1MethodConfig_1_1Private.xhtml" target="_top" xlink:title="Private">
<polygon fill="#ffffff" stroke="#000000" points="405,-516.3617 405,-535.3617 456,-535.3617 456,-516.3617 405,-516.3617"/>
<text text-anchor="middle" x="430.5" y="-523.3617" font-family="Helvetica,sans-Serif" font-size="10.00" fill="#000000">Private</text>
</a>
</g>
</g>
<!-- Node25&#45;&gt;Node24 -->
<g id="edge22" class="edge">
<title>Node25&#45;&gt;Node24</title>
<path fill="none" stroke="#9a32cd" stroke-dasharray="5,2" d="M466.4686,-523.4065C520.9768,-519.6858 624.2426,-512.637 681.9051,-508.701"/>
<polygon fill="#9a32cd" stroke="#9a32cd" points="465.9834,-519.9314 456.245,-524.1044 466.4602,-526.9152 465.9834,-519.9314"/>
<text text-anchor="middle" x="567.5" y="-522.8617" font-family="Helvetica,sans-Serif" font-size="10.00" fill="#000000"> d</text>
</g>
<!-- Node26 -->
<g id="node14" class="node">
<title>Node26</title>
<g id="a_node14"><a xlink:href="classpkgAcquireStatus.xhtml" target="_top" xlink:title="A monitor object for downloads controlled by the pkgAcquire class. {{{. ">
<polygon fill="#ffffff" stroke="#000000" points="672.5,-610.3617 672.5,-629.3617 774.5,-629.3617 774.5,-610.3617 672.5,-610.3617"/>
<text text-anchor="middle" x="723.5" y="-617.3617" font-family="Helvetica,sans-Serif" font-size="10.00" fill="#000000">pkgAcquireStatus</text>
</a>
</g>
</g>
<!-- Node26&#45;&gt;Node16 -->
<g id="edge33" class="edge">
<title>Node26&#45;&gt;Node16</title>
<path fill="none" stroke="#9a32cd" stroke-dasharray="5,2" d="M783.2152,-631.4193C810.3561,-636.8023 842.8486,-643.4281 872,-649.8617 887.7208,-653.3313 905.0384,-657.4329 919.8075,-661.0159"/>
<polygon fill="#9a32cd" stroke="#9a32cd" points="783.582,-627.9242 773.0933,-629.4201 782.2256,-634.7916 783.582,-627.9242"/>
<text text-anchor="middle" x="846" y="-652.8617" font-family="Helvetica,sans-Serif" font-size="10.00" fill="#000000"> Log</text>
</g>
<!-- Node26&#45;&gt;Node23 -->
<g id="edge25" class="edge">
<title>Node26&#45;&gt;Node23</title>
<path fill="none" stroke="#9a32cd" stroke-dasharray="5,2" d="M763.6993,-607.5373C780.8662,-602.8838 801.235,-598.1602 820,-595.8617 842.9397,-593.0519 848.8894,-595.7113 872,-595.8617 1076.9019,-597.1951 1129.5209,-577.7201 1333,-601.8617 1348.0807,-603.651 1364.6554,-607.3233 1377.9428,-610.6989"/>
<polygon fill="#9a32cd" stroke="#9a32cd" points="762.686,-604.1863 753.9981,-610.2502 764.5712,-610.9277 762.686,-604.1863"/>
<text text-anchor="middle" x="1063.5" y="-594.8617" font-family="Helvetica,sans-Serif" font-size="10.00" fill="#000000"> Log</text>
</g>
<!-- Node27&#45;&gt;Node23 -->
<g id="edge26" class="edge">
<title>Node27&#45;&gt;Node23</title>
<path fill="none" stroke="#9a32cd" stroke-dasharray="5,2" d="M637.4366,-399.7879C693.7353,-396.14 774.9152,-391.8617 846,-391.8617 846,-391.8617 846,-391.8617 1181,-391.8617 1252.6921,-391.8617 1281.113,-396.3896 1333,-445.8617 1382.2831,-492.8511 1398.2193,-579.2273 1402.2991,-608.142"/>
<polygon fill="#9a32cd" stroke="#9a32cd" points="636.9704,-396.3109 627.222,-400.4605 637.4304,-403.2958 636.9704,-396.3109"/>
<text text-anchor="middle" x="955.5" y="-394.8617" font-family="Helvetica,sans-Serif" font-size="10.00" fill="#000000"> MessageQueue</text>
</g>
<!-- Node28&#45;&gt;Node13 -->
<g id="edge37" class="edge">
<title>Node28&#45;&gt;Node13</title>
<path fill="none" stroke="#9a32cd" stroke-dasharray="5,2" d="M761.6576,-83.6906C808.1626,-99.3259 885.6621,-125.3818 927.1828,-139.3413"/>
<polygon fill="#9a32cd" stroke="#9a32cd" points="762.5418,-80.2954 751.9478,-80.4261 760.311,-86.9304 762.5418,-80.2954"/>
<text text-anchor="middle" x="846" y="-121.8617" font-family="Helvetica,sans-Serif" font-size="10.00" fill="#000000"> Target</text>
</g>
<!-- Node31 -->
<g id="node19" class="node">
<title>Node31</title>
<g id="a_node19"><a xlink:href="classpkgAcqMetaIndex.xhtml" target="_top" xlink:title="An item that is responsible for downloading the meta&#45;index {{{ file (i.e., Release) itself and verify...">
<polygon fill="#ffffff" stroke="#000000" points="1554,-133.3617 1554,-152.3617 1658,-152.3617 1658,-133.3617 1554,-133.3617"/>
<text text-anchor="middle" x="1606" y="-140.3617" font-family="Helvetica,sans-Serif" font-size="10.00" fill="#000000">pkgAcqMetaIndex</text>
</a>
</g>
</g>
<!-- Node28&#45;&gt;Node31 -->
<g id="edge48" class="edge">
<title>Node28&#45;&gt;Node31</title>
<path fill="none" stroke="#9a32cd" stroke-dasharray="5,2" d="M770.958,-65.3434C817.7966,-60.3794 891.4838,-53.8617 955.5,-53.8617 955.5,-53.8617 955.5,-53.8617 1403.5,-53.8617 1481.8399,-53.8617 1563.9151,-110.3776 1594.0258,-133.3372"/>
<polygon fill="#9a32cd" stroke="#9a32cd" points="770.3737,-61.8861 760.8073,-66.4396 771.1253,-68.8456 770.3737,-61.8861"/>
<text text-anchor="middle" x="1181" y="-56.8617" font-family="Helvetica,sans-Serif" font-size="10.00" fill="#000000"> DetachedSigTarget</text>
</g>
<!-- Node29&#45;&gt;Node28 -->
<g id="edge38" class="edge">
<title>Node29&#45;&gt;Node28</title>
<path fill="none" stroke="#9a32cd" stroke-dasharray="5,2" d="M500.3938,-101.3199C558.7076,-93.359 639.5535,-82.322 686.2107,-75.9524"/>
<polygon fill="#9a32cd" stroke="#9a32cd" points="499.5807,-97.8984 490.1461,-102.7189 500.5276,-104.834 499.5807,-97.8984"/>
<text text-anchor="middle" x="567.5" y="-102.8617" font-family="Helvetica,sans-Serif" font-size="10.00" fill="#000000"> Options</text>
</g>
<!-- Node30 -->
<g id="node18" class="node">
<title>Node30</title>
<g id="a_node18"><a xlink:href="classpkgAcqMetaClearSig.xhtml" target="_top" xlink:title="An item responsible for downloading clearsigned metaindexes {{{. ">
<polygon fill="#ffffff" stroke="#000000" points="1695,-209.3617 1695,-228.3617 1812,-228.3617 1812,-209.3617 1695,-209.3617"/>
<text text-anchor="middle" x="1753.5" y="-216.3617" font-family="Helvetica,sans-Serif" font-size="10.00" fill="#000000">pkgAcqMetaClearSig</text>
</a>
</g>
</g>
<!-- Node30&#45;&gt;Node13 -->
<g id="edge41" class="edge">
<title>Node30&#45;&gt;Node13</title>
<path fill="none" stroke="#9a32cd" stroke-dasharray="5,2" d="M1684.9349,-218.8617C1660.073,-218.8617 1631.7702,-218.8617 1606,-218.8617 1303.5,-218.8617 1303.5,-218.8617 1303.5,-218.8617 1182.4033,-218.8617 1042.1757,-177.6194 983.5333,-158.4482"/>
<polygon fill="#9a32cd" stroke="#9a32cd" points="1684.9996,-222.3618 1694.9996,-218.8617 1684.9996,-215.3618 1684.9996,-222.3618"/>
<text text-anchor="middle" x="1403.5" y="-221.8617" font-family="Helvetica,sans-Serif" font-size="10.00" fill="#000000"> TransactionManager</text>
</g>
<!-- Node31&#45;&gt;Node30 -->
<g id="edge42" class="edge">
<title>Node31&#45;&gt;Node30</title>
<path fill="none" stroke="#191970" d="M1633.6688,-157.1182C1663.2872,-172.3792 1709.4507,-196.1651 1734.9707,-209.3144"/>
<polygon fill="#191970" stroke="#191970" points="1635.1735,-153.9562 1624.681,-152.4872 1631.9672,-160.1788 1635.1735,-153.9562"/>
</g>
<!-- Node32&#45;&gt;Node31 -->
<g id="edge43" class="edge">
<title>Node32&#45;&gt;Node31</title>
<path fill="none" stroke="#191970" d="M1464.3456,-142.8617C1492.9054,-142.8617 1526.5959,-142.8617 1553.954,-142.8617"/>
<polygon fill="#191970" stroke="#191970" points="1464.077,-139.3618 1454.0769,-142.8617 1464.0769,-146.3618 1464.077,-139.3618"/>
</g>
<!-- Node33&#45;&gt;Node32 -->
<g id="edge45" class="edge">
<title>Node33&#45;&gt;Node32</title>
<path fill="none" stroke="#9a32cd" stroke-dasharray="5,2" d="M1266.1458,-106.2138C1288.096,-109.0054 1311.5685,-112.7857 1333,-117.8617 1349.3014,-121.7227 1367.0755,-128.0406 1380.6988,-133.3589"/>
<polygon fill="#9a32cd" stroke="#9a32cd" points="1266.5305,-102.7349 1256.1806,-104.9997 1265.6838,-109.6835 1266.5305,-102.7349"/>
<text text-anchor="middle" x="1303.5" y="-120.8617" font-family="Helvetica,sans-Serif" font-size="10.00" fill="#000000"> Transaction</text>
</g>
<!-- Node34&#45;&gt;Node30 -->
<g id="edge49" class="edge">
<title>Node34&#45;&gt;Node30</title>
<path fill="none" stroke="#9a32cd" stroke-dasharray="5,2" d="M1000.3936,-271.2293C1045.9021,-270.6433 1118.3453,-269.8617 1181,-269.8617 1181,-269.8617 1181,-269.8617 1606,-269.8617 1656.126,-269.8617 1710.8335,-243.2279 1737.3234,-228.4544"/>
<polygon fill="#9a32cd" stroke="#9a32cd" points="1000.2198,-267.7312 990.2667,-271.3622 1000.3118,-274.7306 1000.2198,-267.7312"/>
<text text-anchor="middle" x="1403.5" y="-283.8617" font-family="Helvetica,sans-Serif" font-size="10.00" fill="#000000"> LastMetaIndexParser</text>
<text text-anchor="middle" x="1403.5" y="-272.8617" font-family="Helvetica,sans-Serif" font-size="10.00" fill="#000000">MetaIndexParser</text>
</g>
<!-- Node35&#45;&gt;Node34 -->
<g id="edge50" class="edge">
<title>Node35&#45;&gt;Node34</title>
<path fill="none" stroke="#9a32cd" stroke-dasharray="5,2" d="M812.1004,-273.716C850.0272,-273.2256 892.0989,-272.6816 920.8064,-272.3104"/>
<polygon fill="#9a32cd" stroke="#9a32cd" points="811.9985,-270.217 802.0446,-273.8461 812.0891,-277.2164 811.9985,-270.217"/>
<text text-anchor="middle" x="846" y="-275.8617" font-family="Helvetica,sans-Serif" font-size="10.00" fill="#000000"> Entries</text>
</g>
<!-- Node36&#45;&gt;Node35 -->
<g id="edge52" class="edge">
<title>Node36&#45;&gt;Node35</title>
<path fill="none" stroke="#9a32cd" stroke-dasharray="5,2" d="M474.1258,-269.7551C519.1028,-270.6761 590.1989,-272.132 644.9904,-273.254"/>
<polygon fill="#9a32cd" stroke="#9a32cd" points="474.1804,-266.2556 464.1108,-269.55 474.037,-273.2541 474.1804,-266.2556"/>
<text text-anchor="middle" x="567.5" y="-274.8617" font-family="Helvetica,sans-Serif" font-size="10.00" fill="#000000"> elements</text>
</g>
<!-- Node37 -->
<g id="node25" class="node">
<title>Node37</title>
<g id="a_node25"><a xlink:href="classHashStringList.xhtml" target="_top" xlink:title="HashStringList">
<polygon fill="#ffffff" stroke="#000000" points="157,-74.3617 157,-93.3617 244,-93.3617 244,-74.3617 157,-74.3617"/>
<text text-anchor="middle" x="200.5" y="-81.3617" font-family="Helvetica,sans-Serif" font-size="10.00" fill="#000000">HashStringList</text>
</a>
</g>
</g>
<!-- Node37&#45;&gt;Node36 -->
<g id="edge53" class="edge">
<title>Node37&#45;&gt;Node36</title>
<path fill="none" stroke="#9a32cd" stroke-dasharray="5,2" d="M237.436,-71.6979C271.7774,-62.942 322.1452,-57.0068 353,-84.8617 380.378,-109.5779 347.6592,-221.3022 371,-249.8617 377.4504,-257.7543 387.1859,-262.4125 396.9244,-265.1474"/>
<polygon fill="#9a32cd" stroke="#9a32cd" points="236.4904,-68.328 227.769,-74.3436 238.3382,-75.0797 236.4904,-68.328"/>
<text text-anchor="middle" x="308" y="-87.8617" font-family="Helvetica,sans-Serif" font-size="10.00" fill="#000000"> Hashes</text>
</g>
<!-- Node38 -->
<g id="node26" class="node">
<title>Node38</title>
<polygon fill="#ffffff" stroke="#bfbfbf" points="655,-221.3617 655,-240.3617 792,-240.3617 792,-221.3617 655,-221.3617"/>
<text text-anchor="middle" x="723.5" y="-228.3617" font-family="Helvetica,sans-Serif" font-size="10.00" fill="#000000">vector&lt; pkgIndexFile *&gt;</text>
</g>
<!-- Node38&#45;&gt;Node34 -->
<g id="edge55" class="edge">
<title>Node38&#45;&gt;Node34</title>
<path fill="none" stroke="#9a32cd" stroke-dasharray="5,2" d="M787.4098,-242.1561C830.446,-249.7617 885.5551,-259.5008 920.7045,-265.7125"/>
<polygon fill="#9a32cd" stroke="#9a32cd" points="787.7651,-238.6648 777.3086,-240.371 786.5469,-245.558 787.7651,-238.6648"/>
<text text-anchor="middle" x="846" y="-258.8617" font-family="Helvetica,sans-Serif" font-size="10.00" fill="#000000"> Indexes</text>
</g>
<!-- Node39 -->
<g id="node27" class="node">
<title>Node39</title>
<g id="a_node27"><a xlink:href="classpkgIndexFile.xhtml" target="_top" xlink:title="pkgIndexFile">
<polygon fill="#ffffff" stroke="#000000" points="391.5,-221.3617 391.5,-240.3617 469.5,-240.3617 469.5,-221.3617 391.5,-221.3617"/>
<text text-anchor="middle" x="430.5" y="-228.3617" font-family="Helvetica,sans-Serif" font-size="10.00" fill="#000000">pkgIndexFile</text>
</a>
</g>
</g>
<!-- Node39&#45;&gt;Node38 -->
<g id="edge56" class="edge">
<title>Node39&#45;&gt;Node38</title>
<path fill="none" stroke="#9a32cd" stroke-dasharray="5,2" d="M479.8453,-230.8617C527.8206,-230.8617 601.1065,-230.8617 654.7778,-230.8617"/>
<polygon fill="#9a32cd" stroke="#9a32cd" points="479.7113,-227.3618 469.7113,-230.8617 479.7112,-234.3618 479.7113,-227.3618"/>
<text text-anchor="middle" x="567.5" y="-233.8617" font-family="Helvetica,sans-Serif" font-size="10.00" fill="#000000"> elements</text>
</g>
</g>
</svg>
