<?xml version="1.0" encoding="UTF-8" standalone="no"?>
<!DOCTYPE svg PUBLIC "-//W3C//DTD SVG 1.1//EN"
 "http://www.w3.org/Graphics/SVG/1.1/DTD/svg11.dtd">
<!-- Generated by graphviz version 2.40.1 (20161225.0304)
 -->
<!-- Title: PackageManagerFancy Pages: 1 -->
<svg width="136pt" height="209pt"
 viewBox="0.00 0.00 135.50 209.00" xmlns="http://www.w3.org/2000/svg" xmlns:xlink="http://www.w3.org/1999/xlink">
<g id="graph0" class="graph" transform="scale(1 1) rotate(0) translate(4 205)">
<title>PackageManagerFancy</title>
<polygon fill="#ffffff" stroke="transparent" points="-4,4 -4,-205 131.5,-205 131.5,4 -4,4"/>
<!-- Node2 -->
<g id="node1" class="node">
<title>Node2</title>
<polygon fill="#bfbfbf" stroke="#000000" points="0,-.5 0,-19.5 127,-19.5 127,-.5 0,-.5"/>
<text text-anchor="middle" x="63.5" y="-7.5" font-family="Helvetica,sans-Serif" font-size="10.00" fill="#000000">PackageManagerFancy</text>
</g>
<!-- Node3 -->
<g id="node2" class="node">
<title>Node3</title>
<g id="a_node2"><a xlink:href="classAPT_1_1Progress_1_1PackageManager.xhtml" target="_top" xlink:title="PackageManager">
<polygon fill="#ffffff" stroke="#000000" points="14,-57.5 14,-76.5 113,-76.5 113,-57.5 14,-57.5"/>
<text text-anchor="middle" x="63.5" y="-64.5" font-family="Helvetica,sans-Serif" font-size="10.00" fill="#000000">PackageManager</text>
</a>
</g>
</g>
<!-- Node3&#45;&gt;Node2 -->
<g id="edge1" class="edge">
<title>Node3&#45;&gt;Node2</title>
<path fill="none" stroke="#191970" d="M63.5,-47.2342C63.5,-37.8491 63.5,-27.0651 63.5,-19.5265"/>
<polygon fill="#191970" stroke="#191970" points="60.0001,-47.3307 63.5,-57.3307 67.0001,-47.3308 60.0001,-47.3307"/>
</g>
<!-- Node4 -->
<g id="node3" class="node">
<title>Node4</title>
<g id="a_node3"><a xlink:title="STL class. ">
<polygon fill="#ffffff" stroke="#bfbfbf" points="41.5,-124.5 41.5,-143.5 85.5,-143.5 85.5,-124.5 41.5,-124.5"/>
<text text-anchor="middle" x="63.5" y="-131.5" font-family="Helvetica,sans-Serif" font-size="10.00" fill="#000000">string</text>
</a>
</g>
</g>
<!-- Node4&#45;&gt;Node3 -->
<g id="edge2" class="edge">
<title>Node4&#45;&gt;Node3</title>
<path fill="none" stroke="#9a32cd" stroke-dasharray="5,2" d="M63.5,-114.1079C63.5,-101.714 63.5,-86.3263 63.5,-76.5817"/>
<polygon fill="#9a32cd" stroke="#9a32cd" points="60.0001,-114.4005 63.5,-124.4005 67.0001,-114.4006 60.0001,-114.4005"/>
<text text-anchor="middle" x="95.5" y="-98" font-family="Helvetica,sans-Serif" font-size="10.00" fill="#000000"> progress_str</text>
</g>
<!-- Node5 -->
<g id="node4" class="node">
<title>Node5</title>
<g id="a_node4"><a xlink:title="STL class. ">
<polygon fill="#ffffff" stroke="#bfbfbf" points="4,-181.5 4,-200.5 123,-200.5 123,-181.5 4,-181.5"/>
<text text-anchor="middle" x="63.5" y="-188.5" font-family="Helvetica,sans-Serif" font-size="10.00" fill="#000000">basic_string&lt; char &gt;</text>
</a>
</g>
</g>
<!-- Node5&#45;&gt;Node4 -->
<g id="edge3" class="edge">
<title>Node5&#45;&gt;Node4</title>
<path fill="none" stroke="#191970" d="M63.5,-171.2342C63.5,-161.8491 63.5,-151.0651 63.5,-143.5265"/>
<polygon fill="#191970" stroke="#191970" points="60.0001,-171.3307 63.5,-181.3307 67.0001,-171.3308 60.0001,-171.3307"/>
</g>
</g>
</svg>
