<?xml version="1.0" encoding="UTF-8" standalone="no"?>
<!DOCTYPE svg PUBLIC "-//W3C//DTD SVG 1.1//EN"
 "http://www.w3.org/Graphics/SVG/1.1/DTD/svg11.dtd">
<!-- Generated by graphviz version 2.40.1 (20161225.0304)
 -->
<!-- Title: debReleaseIndexPrivate Pages: 1 -->
<svg width="1226pt" height="164pt"
 viewBox="0.00 0.00 1226.00 163.50" xmlns="http://www.w3.org/2000/svg" xmlns:xlink="http://www.w3.org/1999/xlink">
<g id="graph0" class="graph" transform="scale(1 1) rotate(0) translate(4 159.5)">
<title>debReleaseIndexPrivate</title>
<polygon fill="#ffffff" stroke="transparent" points="-4,4 -4,-159.5 1222,-159.5 1222,4 -4,4"/>
<!-- Node1 -->
<g id="node1" class="node">
<title>Node1</title>
<polygon fill="#bfbfbf" stroke="#000000" points="1084,-40 1084,-59 1218,-59 1218,-40 1084,-40"/>
<text text-anchor="middle" x="1151" y="-47" font-family="Helvetica,sans-Serif" font-size="10.00" fill="#000000">debReleaseIndexPrivate</text>
</g>
<!-- Node2 -->
<g id="node2" class="node">
<title>Node2</title>
<polygon fill="#ffffff" stroke="#bfbfbf" points="803,-84.5 803,-114.5 979,-114.5 979,-84.5 803,-84.5"/>
<text text-anchor="start" x="811" y="-102.5" font-family="Helvetica,sans-Serif" font-size="10.00" fill="#000000">vector&lt; debReleaseIndexPrivate</text>
<text text-anchor="middle" x="891" y="-91.5" font-family="Helvetica,sans-Serif" font-size="10.00" fill="#000000">::debSectionEntry &gt;</text>
</g>
<!-- Node2&#45;&gt;Node1 -->
<g id="edge1" class="edge">
<title>Node2&#45;&gt;Node1</title>
<path fill="none" stroke="#9a32cd" stroke-dasharray="5,2" d="M978.9658,-82.5835C1019.7729,-74.736 1066.7722,-65.6976 1101.3234,-59.0532"/>
<polygon fill="#9a32cd" stroke="#9a32cd" points="978.1676,-79.1728 969.0086,-84.4984 979.4896,-86.0468 978.1676,-79.1728"/>
<text text-anchor="middle" x="1031.5" y="-93.5" font-family="Helvetica,sans-Serif" font-size="10.00" fill="#000000"> DebEntries</text>
<text text-anchor="middle" x="1031.5" y="-82.5" font-family="Helvetica,sans-Serif" font-size="10.00" fill="#000000">DebSrcEntries</text>
</g>
<!-- Node3 -->
<g id="node3" class="node">
<title>Node3</title>
<g id="a_node3"><a xlink:href="structdebReleaseIndexPrivate_1_1debSectionEntry.xhtml" target="_top" xlink:title="debSectionEntry">
<polygon fill="#ffffff" stroke="#000000" points="559,-96 559,-115 655,-115 655,-96 559,-96"/>
<text text-anchor="middle" x="607" y="-103" font-family="Helvetica,sans-Serif" font-size="10.00" fill="#000000">debSectionEntry</text>
</a>
</g>
</g>
<!-- Node3&#45;&gt;Node2 -->
<g id="edge2" class="edge">
<title>Node3&#45;&gt;Node2</title>
<path fill="none" stroke="#9a32cd" stroke-dasharray="5,2" d="M665.2089,-104.2702C704.8617,-103.4325 758.0865,-102.308 802.9006,-101.3613"/>
<polygon fill="#9a32cd" stroke="#9a32cd" points="665.1005,-100.7716 655.1767,-104.4822 665.2485,-107.7701 665.1005,-100.7716"/>
<text text-anchor="middle" x="729" y="-107.5" font-family="Helvetica,sans-Serif" font-size="10.00" fill="#000000"> elements</text>
</g>
<!-- Node4 -->
<g id="node4" class="node">
<title>Node4</title>
<g id="a_node4"><a xlink:title="STL class. ">
<polygon fill="#ffffff" stroke="#bfbfbf" points="156,-64 156,-83 200,-83 200,-64 156,-64"/>
<text text-anchor="middle" x="178" y="-71" font-family="Helvetica,sans-Serif" font-size="10.00" fill="#000000">string</text>
</a>
</g>
</g>
<!-- Node4&#45;&gt;Node3 -->
<g id="edge3" class="edge">
<title>Node4&#45;&gt;Node3</title>
<path fill="none" stroke="#9a32cd" stroke-dasharray="5,2" d="M209.8593,-86.1632C212.5895,-87.0294 215.3283,-87.8247 218,-88.5 357.7,-123.8124 397.397,-128.3849 541,-116.5 546.7884,-116.0209 552.8334,-115.3094 558.814,-114.4745"/>
<polygon fill="#9a32cd" stroke="#9a32cd" points="210.7402,-82.7644 200.1454,-82.8033 208.452,-89.3799 210.7402,-82.7644"/>
<text text-anchor="middle" x="344.5" y="-147.5" font-family="Helvetica,sans-Serif" font-size="10.00" fill="#000000"> Name</text>
<text text-anchor="middle" x="344.5" y="-136.5" font-family="Helvetica,sans-Serif" font-size="10.00" fill="#000000">UseByHash</text>
<text text-anchor="middle" x="344.5" y="-125.5" font-family="Helvetica,sans-Serif" font-size="10.00" fill="#000000">sourcesEntry</text>
</g>
<!-- Node6 -->
<g id="node6" class="node">
<title>Node6</title>
<polygon fill="#ffffff" stroke="#bfbfbf" points="285,-64 285,-83 404,-83 404,-64 285,-64"/>
<text text-anchor="middle" x="344.5" y="-71" font-family="Helvetica,sans-Serif" font-size="10.00" fill="#000000">vector&lt; std::string &gt;</text>
</g>
<!-- Node4&#45;&gt;Node6 -->
<g id="edge6" class="edge">
<title>Node4&#45;&gt;Node6</title>
<path fill="none" stroke="#9a32cd" stroke-dasharray="5,2" d="M210.1845,-73.5C231.3752,-73.5 259.7586,-73.5 284.9738,-73.5"/>
<polygon fill="#9a32cd" stroke="#9a32cd" points="210.1099,-70.0001 200.1099,-73.5 210.1099,-77.0001 210.1099,-70.0001"/>
<text text-anchor="middle" x="242.5" y="-76.5" font-family="Helvetica,sans-Serif" font-size="10.00" fill="#000000"> elements</text>
</g>
<!-- Node7 -->
<g id="node7" class="node">
<title>Node7</title>
<polygon fill="#ffffff" stroke="#bfbfbf" points="422,-.5 422,-30.5 541,-30.5 541,-.5 422,-.5"/>
<text text-anchor="start" x="430" y="-18.5" font-family="Helvetica,sans-Serif" font-size="10.00" fill="#000000">map&lt; std::string, std</text>
<text text-anchor="middle" x="481.5" y="-7.5" font-family="Helvetica,sans-Serif" font-size="10.00" fill="#000000">::string &gt;</text>
</g>
<!-- Node4&#45;&gt;Node7 -->
<g id="edge8" class="edge">
<title>Node4&#45;&gt;Node7</title>
<path fill="none" stroke="#9a32cd" stroke-dasharray="5,2" d="M197.8009,-58.0972C203.9655,-54.0185 210.9917,-50.0472 218,-47.5 285.0232,-23.1399 367.3022,-16.5377 421.9019,-15.1257"/>
<polygon fill="#9a32cd" stroke="#9a32cd" points="195.6175,-55.3549 189.4878,-63.9965 199.6686,-61.0636 195.6175,-55.3549"/>
<text text-anchor="middle" x="242.5" y="-61.5" font-family="Helvetica,sans-Serif" font-size="10.00" fill="#000000"> keys</text>
<text text-anchor="middle" x="242.5" y="-50.5" font-family="Helvetica,sans-Serif" font-size="10.00" fill="#000000">elements</text>
</g>
<!-- Node5 -->
<g id="node5" class="node">
<title>Node5</title>
<g id="a_node5"><a xlink:title="STL class. ">
<polygon fill="#ffffff" stroke="#bfbfbf" points="0,-64 0,-83 119,-83 119,-64 0,-64"/>
<text text-anchor="middle" x="59.5" y="-71" font-family="Helvetica,sans-Serif" font-size="10.00" fill="#000000">basic_string&lt; char &gt;</text>
</a>
</g>
</g>
<!-- Node5&#45;&gt;Node4 -->
<g id="edge4" class="edge">
<title>Node5&#45;&gt;Node4</title>
<path fill="none" stroke="#191970" d="M129.2118,-73.5C138.8284,-73.5 148.0652,-73.5 155.8653,-73.5"/>
<polygon fill="#191970" stroke="#191970" points="129.0972,-70.0001 119.0972,-73.5 129.0971,-77.0001 129.0972,-70.0001"/>
</g>
<!-- Node6&#45;&gt;Node1 -->
<g id="edge9" class="edge">
<title>Node6&#45;&gt;Node1</title>
<path fill="none" stroke="#9a32cd" stroke-dasharray="5,2" d="M414.2838,-69.8194C416.8885,-69.7071 419.4674,-69.6001 422,-69.5 665.6925,-59.8697 955.3929,-53.4085 1083.8937,-50.7997"/>
<polygon fill="#9a32cd" stroke="#9a32cd" points="413.985,-66.3292 404.1526,-70.2757 414.3,-73.3221 413.985,-66.3292"/>
<text text-anchor="middle" x="729" y="-86.5" font-family="Helvetica,sans-Serif" font-size="10.00" fill="#000000"> NoSupportForAll</text>
<text text-anchor="middle" x="729" y="-75.5" font-family="Helvetica,sans-Serif" font-size="10.00" fill="#000000">Architectures</text>
<text text-anchor="middle" x="729" y="-64.5" font-family="Helvetica,sans-Serif" font-size="10.00" fill="#000000">SupportedComponents</text>
</g>
<!-- Node6&#45;&gt;Node3 -->
<g id="edge5" class="edge">
<title>Node6&#45;&gt;Node3</title>
<path fill="none" stroke="#9a32cd" stroke-dasharray="5,2" d="M414.7055,-72.4854C452.4325,-73.0885 499.578,-75.6926 541,-83.5 555.4804,-86.2293 571.1485,-91.3537 583.5837,-95.9705"/>
<polygon fill="#9a32cd" stroke="#9a32cd" points="414.3666,-68.9813 404.3269,-72.3657 414.2859,-75.9809 414.3666,-68.9813"/>
<text text-anchor="middle" x="481.5" y="-108.5" font-family="Helvetica,sans-Serif" font-size="10.00" fill="#000000"> Architectures</text>
<text text-anchor="middle" x="481.5" y="-97.5" font-family="Helvetica,sans-Serif" font-size="10.00" fill="#000000">Languages</text>
<text text-anchor="middle" x="481.5" y="-86.5" font-family="Helvetica,sans-Serif" font-size="10.00" fill="#000000">Targets</text>
</g>
<!-- Node7&#45;&gt;Node1 -->
<g id="edge7" class="edge">
<title>Node7&#45;&gt;Node1</title>
<path fill="none" stroke="#9a32cd" stroke-dasharray="5,2" d="M551.4908,-14.4569C613.0211,-13.844 704.9811,-13.6658 785,-16.5 910.0956,-20.9307 941.6582,-21.0899 1066,-35.5 1076.3994,-36.7052 1087.467,-38.2981 1098.0597,-39.9765"/>
<polygon fill="#9a32cd" stroke="#9a32cd" points="551.0879,-10.9609 541.1258,-14.5671 551.1625,-17.9605 551.0879,-10.9609"/>
<text text-anchor="middle" x="729" y="-19.5" font-family="Helvetica,sans-Serif" font-size="10.00" fill="#000000"> ReleaseOptions</text>
</g>
</g>
</svg>
