<?xml version="1.0" encoding="UTF-8" standalone="no"?>
<!DOCTYPE svg PUBLIC "-//W3C//DTD SVG 1.1//EN"
 "http://www.w3.org/Graphics/SVG/1.1/DTD/svg11.dtd">
<!-- Generated by graphviz version 2.40.1 (20161225.0304)
 -->
<!-- Title: pkgDebianIndexRealFile Pages: 1 -->
<svg width="751pt" height="199pt"
 viewBox="0.00 0.00 751.00 199.00" xmlns="http://www.w3.org/2000/svg" xmlns:xlink="http://www.w3.org/1999/xlink">
<g id="graph0" class="graph" transform="scale(1 1) rotate(0) translate(4 195)">
<title>pkgDebianIndexRealFile</title>
<polygon fill="#ffffff" stroke="transparent" points="-4,4 -4,-195 747,-195 747,4 -4,4"/>
<!-- Node0 -->
<g id="node1" class="node">
<title>Node0</title>
<polygon fill="#bfbfbf" stroke="#000000" points="263,-95.5 263,-114.5 397,-114.5 397,-95.5 263,-95.5"/>
<text text-anchor="middle" x="330" y="-102.5" font-family="Helvetica,sans-Serif" font-size="10.00" fill="#000000">pkgDebianIndexRealFile</text>
</g>
<!-- Node3 -->
<g id="node4" class="node">
<title>Node3</title>
<g id="a_node4"><a xlink:href="classdebDebPkgFileIndex.xhtml" target="_top" xlink:title="debDebPkgFileIndex">
<polygon fill="#ffffff" stroke="#000000" points="440.5,-171.5 440.5,-190.5 556.5,-190.5 556.5,-171.5 440.5,-171.5"/>
<text text-anchor="middle" x="498.5" y="-178.5" font-family="Helvetica,sans-Serif" font-size="10.00" fill="#000000">debDebPkgFileIndex</text>
</a>
</g>
</g>
<!-- Node0&#45;&gt;Node3 -->
<g id="edge3" class="edge">
<title>Node0&#45;&gt;Node3</title>
<path fill="none" stroke="#191970" d="M353.4307,-119.9509C373.8324,-132.4789 404.5232,-150.1648 433,-162 441.6375,-165.5898 451.1817,-168.7734 460.2503,-171.4597"/>
<polygon fill="#191970" stroke="#191970" points="355.1656,-116.9082 344.8258,-114.5973 351.4677,-122.8518 355.1656,-116.9082"/>
</g>
<!-- Node4 -->
<g id="node5" class="node">
<title>Node4</title>
<g id="a_node5"><a xlink:href="classdebDscFileIndex.xhtml" target="_top" xlink:title="debDscFileIndex">
<polygon fill="#ffffff" stroke="#000000" points="450.5,-133.5 450.5,-152.5 546.5,-152.5 546.5,-133.5 450.5,-133.5"/>
<text text-anchor="middle" x="498.5" y="-140.5" font-family="Helvetica,sans-Serif" font-size="10.00" fill="#000000">debDscFileIndex</text>
</a>
</g>
</g>
<!-- Node0&#45;&gt;Node4 -->
<g id="edge4" class="edge">
<title>Node0&#45;&gt;Node4</title>
<path fill="none" stroke="#191970" d="M382.4313,-116.8243C406.1868,-122.1816 433.8986,-128.4311 456.2861,-133.4799"/>
<polygon fill="#191970" stroke="#191970" points="383.0447,-113.3748 372.5197,-114.589 381.5047,-120.2033 383.0447,-113.3748"/>
</g>
<!-- Node6 -->
<g id="node7" class="node">
<title>Node6</title>
<g id="a_node7"><a xlink:href="classdebStatusIndex.xhtml" target="_top" xlink:title="debStatusIndex">
<polygon fill="#ffffff" stroke="#000000" points="452.5,-95.5 452.5,-114.5 544.5,-114.5 544.5,-95.5 452.5,-95.5"/>
<text text-anchor="middle" x="498.5" y="-102.5" font-family="Helvetica,sans-Serif" font-size="10.00" fill="#000000">debStatusIndex</text>
</a>
</g>
</g>
<!-- Node0&#45;&gt;Node6 -->
<g id="edge6" class="edge">
<title>Node0&#45;&gt;Node6</title>
<path fill="none" stroke="#191970" d="M407.1635,-105C422.6119,-105 438.3803,-105 452.3714,-105"/>
<polygon fill="#191970" stroke="#191970" points="407.0799,-101.5001 397.0798,-105 407.0798,-108.5001 407.0799,-101.5001"/>
</g>
<!-- Node7 -->
<g id="node8" class="node">
<title>Node7</title>
<g id="a_node8"><a xlink:href="classdebStringPackageIndex.xhtml" target="_top" xlink:title="debStringPackageIndex">
<polygon fill="#ffffff" stroke="#000000" points="433,-57.5 433,-76.5 564,-76.5 564,-57.5 433,-57.5"/>
<text text-anchor="middle" x="498.5" y="-64.5" font-family="Helvetica,sans-Serif" font-size="10.00" fill="#000000">debStringPackageIndex</text>
</a>
</g>
</g>
<!-- Node0&#45;&gt;Node7 -->
<g id="edge7" class="edge">
<title>Node0&#45;&gt;Node7</title>
<path fill="none" stroke="#191970" d="M382.4313,-93.1757C406.1868,-87.8184 433.8986,-81.5689 456.2861,-76.5201"/>
<polygon fill="#191970" stroke="#191970" points="381.5047,-89.7967 372.5197,-95.411 383.0447,-96.6252 381.5047,-89.7967"/>
</g>
<!-- Node8 -->
<g id="node9" class="node">
<title>Node8</title>
<g id="a_node9"><a xlink:href="classedspLikeIndex.xhtml" target="_top" xlink:title="edspLikeIndex">
<polygon fill="#ffffff" stroke="#000000" points="455,-19.5 455,-38.5 542,-38.5 542,-19.5 455,-19.5"/>
<text text-anchor="middle" x="498.5" y="-26.5" font-family="Helvetica,sans-Serif" font-size="10.00" fill="#000000">edspLikeIndex</text>
</a>
</g>
</g>
<!-- Node0&#45;&gt;Node8 -->
<g id="edge8" class="edge">
<title>Node0&#45;&gt;Node8</title>
<path fill="none" stroke="#191970" d="M353.4307,-90.0491C373.8324,-77.5211 404.5232,-59.8352 433,-48 441.6375,-44.4102 451.1817,-41.2266 460.2503,-38.5403"/>
<polygon fill="#191970" stroke="#191970" points="351.4677,-87.1482 344.8258,-95.4027 355.1656,-93.0918 351.4677,-87.1482"/>
</g>
<!-- Node1 -->
<g id="node2" class="node">
<title>Node1</title>
<g id="a_node2"><a xlink:href="classpkgDebianIndexFile.xhtml" target="_top" xlink:title="pkgDebianIndexFile">
<polygon fill="#ffffff" stroke="#000000" points="114,-95.5 114,-114.5 227,-114.5 227,-95.5 114,-95.5"/>
<text text-anchor="middle" x="170.5" y="-102.5" font-family="Helvetica,sans-Serif" font-size="10.00" fill="#000000">pkgDebianIndexFile</text>
</a>
</g>
</g>
<!-- Node1&#45;&gt;Node0 -->
<g id="edge1" class="edge">
<title>Node1&#45;&gt;Node0</title>
<path fill="none" stroke="#191970" d="M237.3503,-105C245.7878,-105 254.4231,-105 262.865,-105"/>
<polygon fill="#191970" stroke="#191970" points="237.1829,-101.5001 227.1828,-105 237.1828,-108.5001 237.1829,-101.5001"/>
</g>
<!-- Node2 -->
<g id="node3" class="node">
<title>Node2</title>
<g id="a_node3"><a xlink:href="classpkgIndexFile.xhtml" target="_top" xlink:title="pkgIndexFile">
<polygon fill="#ffffff" stroke="#000000" points="0,-95.5 0,-114.5 78,-114.5 78,-95.5 0,-95.5"/>
<text text-anchor="middle" x="39" y="-102.5" font-family="Helvetica,sans-Serif" font-size="10.00" fill="#000000">pkgIndexFile</text>
</a>
</g>
</g>
<!-- Node2&#45;&gt;Node1 -->
<g id="edge2" class="edge">
<title>Node2&#45;&gt;Node1</title>
<path fill="none" stroke="#191970" d="M88.363,-105C96.6577,-105 105.3242,-105 113.787,-105"/>
<polygon fill="#191970" stroke="#191970" points="88.0983,-101.5001 78.0983,-105 88.0983,-108.5001 88.0983,-101.5001"/>
</g>
<!-- Node5 -->
<g id="node6" class="node">
<title>Node5</title>
<g id="a_node6"><a xlink:href="classdebDebianSourceDirIndex.xhtml" target="_top" xlink:title="debDebianSourceDirIndex">
<polygon fill="#ffffff" stroke="#000000" points="600,-133.5 600,-152.5 743,-152.5 743,-133.5 600,-133.5"/>
<text text-anchor="middle" x="671.5" y="-140.5" font-family="Helvetica,sans-Serif" font-size="10.00" fill="#000000">debDebianSourceDirIndex</text>
</a>
</g>
</g>
<!-- Node4&#45;&gt;Node5 -->
<g id="edge5" class="edge">
<title>Node4&#45;&gt;Node5</title>
<path fill="none" stroke="#191970" d="M557.0041,-143C570.7983,-143 585.6571,-143 599.9538,-143"/>
<polygon fill="#191970" stroke="#191970" points="556.6902,-139.5001 546.6901,-143 556.6901,-146.5001 556.6902,-139.5001"/>
</g>
<!-- Node9 -->
<g id="node10" class="node">
<title>Node9</title>
<g id="a_node10"><a xlink:href="classedspIndex.xhtml" target="_top" xlink:title="edspIndex">
<polygon fill="#ffffff" stroke="#000000" points="638,-38.5 638,-57.5 705,-57.5 705,-38.5 638,-38.5"/>
<text text-anchor="middle" x="671.5" y="-45.5" font-family="Helvetica,sans-Serif" font-size="10.00" fill="#000000">edspIndex</text>
</a>
</g>
</g>
<!-- Node8&#45;&gt;Node9 -->
<g id="edge9" class="edge">
<title>Node8&#45;&gt;Node9</title>
<path fill="none" stroke="#191970" d="M552.2074,-34.8985C580.2263,-37.9757 613.6334,-41.6447 637.958,-44.3162"/>
<polygon fill="#191970" stroke="#191970" points="552.4776,-31.4072 542.1552,-33.7945 551.7133,-38.3654 552.4776,-31.4072"/>
</g>
<!-- Node10 -->
<g id="node11" class="node">
<title>Node10</title>
<g id="a_node11"><a xlink:href="classeippIndex.xhtml" target="_top" xlink:title="eippIndex">
<polygon fill="#ffffff" stroke="#000000" points="639,-.5 639,-19.5 704,-19.5 704,-.5 639,-.5"/>
<text text-anchor="middle" x="671.5" y="-7.5" font-family="Helvetica,sans-Serif" font-size="10.00" fill="#000000">eippIndex</text>
</a>
</g>
</g>
<!-- Node8&#45;&gt;Node10 -->
<g id="edge10" class="edge">
<title>Node8&#45;&gt;Node10</title>
<path fill="none" stroke="#191970" d="M552.3117,-23.09C580.6271,-19.9803 614.4218,-16.2687 638.7821,-13.5933"/>
<polygon fill="#191970" stroke="#191970" points="551.7133,-19.6346 542.1552,-24.2055 552.4776,-26.5928 551.7133,-19.6346"/>
</g>
</g>
</svg>
