<?xml version="1.0" encoding="UTF-8" standalone="no"?>
<!DOCTYPE svg PUBLIC "-//W3C//DTD SVG 1.1//EN"
 "http://www.w3.org/Graphics/SVG/1.1/DTD/svg11.dtd">
<!-- Generated by graphviz version 2.40.1 (20161225.0304)
 -->
<!-- Title: pkgAcqMetaBase Pages: 1 -->
<svg width="1819pt" height="875pt"
 viewBox="0.00 0.00 1819.00 875.00" xmlns="http://www.w3.org/2000/svg" xmlns:xlink="http://www.w3.org/1999/xlink">
<g id="graph0" class="graph" transform="scale(1 1) rotate(0) translate(4 871)">
<title>pkgAcqMetaBase</title>
<polygon fill="#ffffff" stroke="transparent" points="-4,4 -4,-871 1815,-871 1815,4 -4,4"/>
<!-- Node6 -->
<g id="node1" class="node">
<title>Node6</title>
<polygon fill="#bfbfbf" stroke="#000000" points="380,-463.5 380,-482.5 481,-482.5 481,-463.5 380,-463.5"/>
<text text-anchor="middle" x="430.5" y="-470.5" font-family="Helvetica,sans-Serif" font-size="10.00" fill="#000000">pkgAcqMetaBase</text>
</g>
<!-- Node25 -->
<g id="node20" class="node">
<title>Node25</title>
<g id="a_node20"><a xlink:href="classpkgAcqMetaIndex.xhtml" target="_top" xlink:title="An item that is responsible for downloading the meta&#45;index {{{ file (i.e., Release) itself and verify...">
<polygon fill="#ffffff" stroke="#000000" points="933,-571.5 933,-590.5 1037,-590.5 1037,-571.5 933,-571.5"/>
<text text-anchor="middle" x="985" y="-578.5" font-family="Helvetica,sans-Serif" font-size="10.00" fill="#000000">pkgAcqMetaIndex</text>
</a>
</g>
</g>
<!-- Node6&#45;&gt;Node25 -->
<g id="edge44" class="edge">
<title>Node6&#45;&gt;Node25</title>
<path fill="none" stroke="#191970" d="M477.9406,-486.6756C482.2033,-488.799 486.3002,-491.2279 490,-494 500.957,-502.2098 496.2427,-511.9841 508,-519 543.9903,-540.4766 816.8602,-566.3963 932.9656,-576.584"/>
<polygon fill="#191970" stroke="#191970" points="478.9974,-483.3171 468.4341,-482.5003 476.1825,-489.7262 478.9974,-483.3171"/>
</g>
<!-- Node7 -->
<g id="node2" class="node">
<title>Node7</title>
<g id="a_node2"><a xlink:href="classpkgAcqTransactionItem.xhtml" target="_top" xlink:title="baseclass for the indexes files to manage them all together ">
<polygon fill="#ffffff" stroke="#000000" points="1432,-571.5 1432,-590.5 1563,-590.5 1563,-571.5 1432,-571.5"/>
<text text-anchor="middle" x="1497.5" y="-578.5" font-family="Helvetica,sans-Serif" font-size="10.00" fill="#000000">pkgAcqTransactionItem</text>
</a>
</g>
</g>
<!-- Node7&#45;&gt;Node6 -->
<g id="edge1" class="edge">
<title>Node7&#45;&gt;Node6</title>
<path fill="none" stroke="#191970" d="M1421.8526,-573.3431C1216.6796,-552.5758 653.5246,-495.5742 481.2458,-478.1364"/>
<polygon fill="#191970" stroke="#191970" points="1421.6324,-576.8386 1431.934,-574.3635 1422.3373,-569.8742 1421.6324,-576.8386"/>
</g>
<!-- Node32 -->
<g id="node27" class="node">
<title>Node32</title>
<polygon fill="#ffffff" stroke="#bfbfbf" points="1661,-479 1661,-509 1811,-509 1811,-479 1661,-479"/>
<text text-anchor="start" x="1669" y="-497" font-family="Helvetica,sans-Serif" font-size="10.00" fill="#000000">vector&lt; pkgAcqTransaction</text>
<text text-anchor="middle" x="1736" y="-486" font-family="Helvetica,sans-Serif" font-size="10.00" fill="#000000">Item *&gt;</text>
</g>
<!-- Node7&#45;&gt;Node32 -->
<g id="edge57" class="edge">
<title>Node7&#45;&gt;Node32</title>
<path fill="none" stroke="#9a32cd" stroke-dasharray="5,2" d="M1533.4852,-567.8733C1576.7397,-552.095 1649.1719,-525.6732 1694.6756,-509.0743"/>
<polygon fill="#9a32cd" stroke="#9a32cd" points="1532.13,-564.642 1523.9349,-571.3571 1534.5289,-571.2182 1532.13,-564.642"/>
<text text-anchor="middle" x="1612" y="-553" font-family="Helvetica,sans-Serif" font-size="10.00" fill="#000000"> elements</text>
</g>
<!-- Node8 -->
<g id="node3" class="node">
<title>Node8</title>
<g id="a_node3"><a xlink:href="classpkgAcquire_1_1Item.xhtml" target="_top" xlink:title="Represents the process by which a pkgAcquire object should retrieve a file or a collection of files...">
<polygon fill="#ffffff" stroke="#000000" points="411,-177.5 411,-196.5 450,-196.5 450,-177.5 411,-177.5"/>
<text text-anchor="middle" x="430.5" y="-184.5" font-family="Helvetica,sans-Serif" font-size="10.00" fill="#000000">Item</text>
</a>
</g>
</g>
<!-- Node8&#45;&gt;Node7 -->
<g id="edge2" class="edge">
<title>Node8&#45;&gt;Node7</title>
<path fill="none" stroke="#191970" d="M455.38,-201.7057C470.258,-210.0216 489.7602,-220.1028 508,-227 634.0323,-274.6582 679.9594,-243.8901 802,-301 927.9308,-359.9304 927.823,-428.8095 1055,-485 1204.0133,-550.8385 1255.3968,-521.7889 1414,-559 1430.2004,-562.8009 1448.0503,-567.4418 1463.0735,-571.4796"/>
<polygon fill="#191970" stroke="#191970" points="456.7514,-198.4588 446.3305,-196.5471 453.2848,-204.5401 456.7514,-198.4588"/>
</g>
<!-- Node11 -->
<g id="node6" class="node">
<title>Node11</title>
<polygon fill="#ffffff" stroke="#bfbfbf" points="667,-212 667,-242 780,-242 780,-212 667,-212"/>
<text text-anchor="start" x="675" y="-230" font-family="Helvetica,sans-Serif" font-size="10.00" fill="#000000">vector&lt; pkgAcquire</text>
<text text-anchor="middle" x="723.5" y="-219" font-family="Helvetica,sans-Serif" font-size="10.00" fill="#000000">::Item *&gt;</text>
</g>
<!-- Node8&#45;&gt;Node11 -->
<g id="edge6" class="edge">
<title>Node8&#45;&gt;Node11</title>
<path fill="none" stroke="#9a32cd" stroke-dasharray="5,2" d="M460.2905,-191.067C508.6421,-197.6679 605.0014,-210.8227 666.7509,-219.2527"/>
<polygon fill="#9a32cd" stroke="#9a32cd" points="460.5611,-187.5715 450.1795,-189.6866 459.6142,-194.5072 460.5611,-187.5715"/>
<text text-anchor="middle" x="567.5" y="-215" font-family="Helvetica,sans-Serif" font-size="10.00" fill="#000000"> elements</text>
</g>
<!-- Node14 -->
<g id="node9" class="node">
<title>Node14</title>
<g id="a_node9"><a xlink:href="structpkgAcquire_1_1ItemDesc.xhtml" target="_top" xlink:title="Represents a single download source from which an item should be downloaded. ">
<polygon fill="#ffffff" stroke="#000000" points="692,-21.5 692,-40.5 755,-40.5 755,-21.5 692,-21.5"/>
<text text-anchor="middle" x="723.5" y="-28.5" font-family="Helvetica,sans-Serif" font-size="10.00" fill="#000000">ItemDesc</text>
</a>
</g>
</g>
<!-- Node8&#45;&gt;Node14 -->
<g id="edge14" class="edge">
<title>Node8&#45;&gt;Node14</title>
<path fill="none" stroke="#9a32cd" stroke-dasharray="5,2" d="M460.0754,-183.777C470.8716,-181.1554 482.3074,-176.4436 490,-168 515.1287,-140.4183 481.2865,-112.0497 508,-86 546.5664,-48.392 577.5583,-84.3834 627,-63 636.0574,-59.0827 636.0362,-54.127 645,-50 659.6474,-43.2562 676.9761,-38.7371 691.6214,-35.8049"/>
<polygon fill="#9a32cd" stroke="#9a32cd" points="459.2219,-180.3769 450.0635,-185.7036 460.5447,-187.2508 459.2219,-180.3769"/>
<text text-anchor="middle" x="567.5" y="-89" font-family="Helvetica,sans-Serif" font-size="10.00" fill="#000000"> Owner</text>
</g>
<!-- Node9 -->
<g id="node4" class="node">
<title>Node9</title>
<g id="a_node4"><a xlink:href="classWeakPointable.xhtml" target="_top" xlink:title="WeakPointable">
<polygon fill="#ffffff" stroke="#000000" points="156,-9.5 156,-28.5 245,-28.5 245,-9.5 156,-9.5"/>
<text text-anchor="middle" x="200.5" y="-16.5" font-family="Helvetica,sans-Serif" font-size="10.00" fill="#000000">WeakPointable</text>
</a>
</g>
</g>
<!-- Node9&#45;&gt;Node8 -->
<g id="edge3" class="edge">
<title>Node9&#45;&gt;Node8</title>
<path fill="none" stroke="#191970" d="M215.6281,-36.2257C243.4565,-66.9164 305.9046,-131.2757 371,-168 383.4667,-175.0332 398.8963,-179.8649 410.9188,-182.8955"/>
<polygon fill="#191970" stroke="#191970" points="218.0013,-33.6292 208.7236,-28.5131 212.7858,-38.2982 218.0013,-33.6292"/>
</g>
<!-- Node9&#45;&gt;Node14 -->
<g id="edge11" class="edge">
<title>Node9&#45;&gt;Node14</title>
<path fill="none" stroke="#191970" d="M255.2142,-20.2554C364.1849,-22.7557 605.2721,-28.2873 691.8065,-30.2728"/>
<polygon fill="#191970" stroke="#191970" points="255.1684,-16.7535 245.0907,-20.0231 255.0077,-23.7517 255.1684,-16.7535"/>
</g>
<!-- Node17 -->
<g id="node12" class="node">
<title>Node17</title>
<g id="a_node12"><a xlink:href="classpkgAcquire_1_1Worker.xhtml" target="_top" xlink:title="A fetch subprocess. ">
<polygon fill="#ffffff" stroke="#000000" points="1472,-231.5 1472,-250.5 1523,-250.5 1523,-231.5 1472,-231.5"/>
<text text-anchor="middle" x="1497.5" y="-238.5" font-family="Helvetica,sans-Serif" font-size="10.00" fill="#000000">Worker</text>
</a>
</g>
</g>
<!-- Node9&#45;&gt;Node17 -->
<g id="edge18" class="edge">
<title>Node9&#45;&gt;Node17</title>
<path fill="none" stroke="#191970" d="M255.3104,-17.187C257.9098,-17.1196 260.4833,-17.0567 263,-17 432.7492,-13.1734 475.2113,-13.1111 645,-12 714.7763,-11.5434 732.6646,-4.1556 802,-12 1025.3681,-37.2713 1076.8657,-70.692 1295,-125 1348.1454,-138.2314 1366.6229,-129.5242 1414,-157 1447.9747,-176.7033 1477.7336,-213.7647 1490.6552,-231.3147"/>
<polygon fill="#191970" stroke="#191970" points="255.1207,-13.6908 245.2214,-17.4663 255.3144,-20.6881 255.1207,-13.6908"/>
</g>
<!-- Node10 -->
<g id="node5" class="node">
<title>Node10</title>
<g id="a_node5"><a xlink:href="classpkgAcquire.xhtml" target="_top" xlink:title="The core download scheduler. {{{. ">
<polygon fill="#ffffff" stroke="#000000" points="949.5,-208.5 949.5,-227.5 1020.5,-227.5 1020.5,-208.5 949.5,-208.5"/>
<text text-anchor="middle" x="985" y="-215.5" font-family="Helvetica,sans-Serif" font-size="10.00" fill="#000000">pkgAcquire</text>
</a>
</g>
</g>
<!-- Node10&#45;&gt;Node8 -->
<g id="edge4" class="edge">
<title>Node10&#45;&gt;Node8</title>
<path fill="none" stroke="#9a32cd" stroke-dasharray="5,2" d="M939.4258,-209.875C902.5093,-203.6927 849.0838,-195.6466 802,-192 667.9141,-181.6151 505.813,-184.8296 450.2746,-186.38"/>
<polygon fill="#9a32cd" stroke="#9a32cd" points="938.9368,-213.342 949.3814,-211.5641 940.1078,-206.4406 938.9368,-213.342"/>
<text text-anchor="middle" x="723.5" y="-195" font-family="Helvetica,sans-Serif" font-size="10.00" fill="#000000"> Owner</text>
</g>
<!-- Node12 -->
<g id="node7" class="node">
<title>Node12</title>
<g id="a_node7"><a xlink:href="classpkgAcquire_1_1Queue.xhtml" target="_top" xlink:title="A single download queue in a pkgAcquire object. {{{. ">
<polygon fill="#ffffff" stroke="#000000" points="1212.5,-265.5 1212.5,-284.5 1260.5,-284.5 1260.5,-265.5 1212.5,-265.5"/>
<text text-anchor="middle" x="1236.5" y="-272.5" font-family="Helvetica,sans-Serif" font-size="10.00" fill="#000000">Queue</text>
</a>
</g>
</g>
<!-- Node10&#45;&gt;Node12 -->
<g id="edge8" class="edge">
<title>Node10&#45;&gt;Node12</title>
<path fill="none" stroke="#9a32cd" stroke-dasharray="5,2" d="M1009.053,-232.6067C1022.1791,-239.9034 1038.9806,-248.1823 1055,-253 1109.7132,-269.4545 1177.2168,-273.6463 1212.4749,-274.685"/>
<polygon fill="#9a32cd" stroke="#9a32cd" points="1010.6238,-229.4728 1000.2085,-227.5307 1007.1395,-235.544 1010.6238,-229.4728"/>
<text text-anchor="middle" x="1107.5" y="-274" font-family="Helvetica,sans-Serif" font-size="10.00" fill="#000000"> Owner</text>
</g>
<!-- Node11&#45;&gt;Node10 -->
<g id="edge5" class="edge">
<title>Node11&#45;&gt;Node10</title>
<path fill="none" stroke="#9a32cd" stroke-dasharray="5,2" d="M790.444,-224.696C841.0398,-222.9547 908.5226,-220.6321 949.2604,-219.23"/>
<polygon fill="#9a32cd" stroke="#9a32cd" points="790.1153,-221.2051 780.2416,-225.0471 790.3561,-228.201 790.1153,-221.2051"/>
<text text-anchor="middle" x="867.5" y="-226" font-family="Helvetica,sans-Serif" font-size="10.00" fill="#000000"> Items</text>
</g>
<!-- Node13 -->
<g id="node8" class="node">
<title>Node13</title>
<g id="a_node8"><a xlink:href="structpkgAcquire_1_1Queue_1_1QItem.xhtml" target="_top" xlink:title="A single item placed in this queue. ">
<polygon fill="#ffffff" stroke="#000000" points="1712.5,-265.5 1712.5,-284.5 1759.5,-284.5 1759.5,-265.5 1712.5,-265.5"/>
<text text-anchor="middle" x="1736" y="-272.5" font-family="Helvetica,sans-Serif" font-size="10.00" fill="#000000">QItem</text>
</a>
</g>
</g>
<!-- Node11&#45;&gt;Node13 -->
<g id="edge15" class="edge">
<title>Node11&#45;&gt;Node13</title>
<path fill="none" stroke="#9a32cd" stroke-dasharray="5,2" d="M777.4258,-245.2283C880.1399,-278.7043 1111.5855,-348.1849 1313,-366 1357.7143,-369.955 1369.4559,-371.5533 1414,-366 1528.7157,-351.6985 1659.6571,-304.6434 1712.2798,-284.3982"/>
<polygon fill="#9a32cd" stroke="#9a32cd" points="778.4857,-241.8925 767.8929,-242.104 776.3056,-248.5444 778.4857,-241.8925"/>
<text text-anchor="middle" x="1236.5" y="-367" font-family="Helvetica,sans-Serif" font-size="10.00" fill="#000000"> Owners</text>
</g>
<!-- Node12&#45;&gt;Node10 -->
<g id="edge7" class="edge">
<title>Node12&#45;&gt;Node10</title>
<path fill="none" stroke="#9a32cd" stroke-dasharray="5,2" d="M1208.9143,-260.942C1194.6485,-254.233 1176.7549,-246.6691 1160,-242 1112.8825,-228.8698 1056.545,-222.7846 1020.7669,-220.0626"/>
<polygon fill="#9a32cd" stroke="#9a32cd" points="1207.6254,-264.2063 1218.1524,-265.404 1210.67,-257.903 1207.6254,-264.2063"/>
<text text-anchor="middle" x="1107.5" y="-245" font-family="Helvetica,sans-Serif" font-size="10.00" fill="#000000"> Queues</text>
</g>
<!-- Node12&#45;&gt;Node17 -->
<g id="edge19" class="edge">
<title>Node12&#45;&gt;Node17</title>
<path fill="none" stroke="#9a32cd" stroke-dasharray="5,2" d="M1262.4314,-260.7116C1276.8546,-253.5715 1295.4005,-245.6839 1313,-242 1368.6503,-230.3515 1435.8271,-234.3754 1471.7927,-237.9385"/>
<polygon fill="#9a32cd" stroke="#9a32cd" points="1260.4603,-257.7894 1253.167,-265.4744 1263.6608,-264.0149 1260.4603,-257.7894"/>
<text text-anchor="middle" x="1363.5" y="-245" font-family="Helvetica,sans-Serif" font-size="10.00" fill="#000000"> OwnerQ</text>
</g>
<!-- Node13&#45;&gt;Node12 -->
<g id="edge9" class="edge">
<title>Node13&#45;&gt;Node12</title>
<path fill="none" stroke="#9a32cd" stroke-dasharray="5,2" d="M1702.2519,-281.3422C1667.4965,-287.5278 1611.6899,-296.5001 1563,-300 1504.9276,-304.1743 1490.1045,-303.7001 1432,-300 1370.021,-296.0532 1297.6565,-285.1364 1260.7871,-279.1167"/>
<polygon fill="#9a32cd" stroke="#9a32cd" points="1703.1126,-284.7434 1712.331,-279.5211 1701.868,-277.8549 1703.1126,-284.7434"/>
<text text-anchor="middle" x="1497.5" y="-305" font-family="Helvetica,sans-Serif" font-size="10.00" fill="#000000"> Items</text>
</g>
<!-- Node13&#45;&gt;Node13 -->
<g id="edge16" class="edge">
<title>Node13&#45;&gt;Node13</title>
<path fill="none" stroke="#9a32cd" stroke-dasharray="5,2" d="M1713.3066,-294.0292C1714.5445,-299.128 1722.1089,-303 1736,-303 1757.6836,-303 1763.9515,-293.5653 1754.8037,-284.7571"/>
<polygon fill="#9a32cd" stroke="#9a32cd" points="1716.5553,-295.3325 1717.1963,-284.7571 1710.1003,-292.6246 1716.5553,-295.3325"/>
<text text-anchor="middle" x="1736" y="-306" font-family="Helvetica,sans-Serif" font-size="10.00" fill="#000000"> Next</text>
</g>
<!-- Node13&#45;&gt;Node17 -->
<g id="edge24" class="edge">
<title>Node13&#45;&gt;Node17</title>
<path fill="none" stroke="#9a32cd" stroke-dasharray="5,2" d="M1707.2945,-261.1215C1689.2932,-253.2022 1665.3404,-244.0647 1643,-240 1601.6197,-232.4712 1552.5185,-235.1587 1523.2437,-237.9581"/>
<polygon fill="#9a32cd" stroke="#9a32cd" points="1706.0819,-264.4146 1716.6349,-265.3558 1708.9722,-258.0391 1706.0819,-264.4146"/>
<text text-anchor="middle" x="1612" y="-243" font-family="Helvetica,sans-Serif" font-size="10.00" fill="#000000"> CurrentItem</text>
</g>
<!-- Node14&#45;&gt;Node8 -->
<g id="edge37" class="edge">
<title>Node14&#45;&gt;Node8</title>
<path fill="none" stroke="#9a32cd" stroke-dasharray="5,2" d="M681.4715,-33.6152C668.5274,-36.2706 655.0538,-41.1597 645,-50 628.2019,-64.7706 644.2535,-82.7641 627,-97 585.5746,-131.1802 549.0782,-83.4034 508,-118 489.935,-133.2146 507.0024,-151.6065 490,-168 479.3055,-178.3115 463.0171,-183.0279 450.1849,-185.1846"/>
<polygon fill="#9a32cd" stroke="#9a32cd" points="682.3675,-37.0147 691.6634,-31.9317 681.2266,-30.1083 682.3675,-37.0147"/>
<text text-anchor="middle" x="567.5" y="-121" font-family="Helvetica,sans-Serif" font-size="10.00" fill="#000000"> Desc</text>
</g>
<!-- Node14&#45;&gt;Node13 -->
<g id="edge10" class="edge">
<title>Node14&#45;&gt;Node13</title>
<path fill="none" stroke="#191970" d="M765.5383,-25.376C836.0797,-16.4404 982.8092,0 1107.5,0 1107.5,0 1107.5,0 1497.5,0 1640.9575,0 1717.5275,-216.2243 1733.0345,-265.2126"/>
<polygon fill="#191970" stroke="#191970" points="764.7641,-21.9465 755.2903,-26.6896 765.6542,-28.8897 764.7641,-21.9465"/>
</g>
<!-- Node15 -->
<g id="node10" class="node">
<title>Node15</title>
<g id="a_node10"><a xlink:title="STL class. ">
<polygon fill="#ffffff" stroke="#bfbfbf" points="178.5,-442.5 178.5,-461.5 222.5,-461.5 222.5,-442.5 178.5,-442.5"/>
<text text-anchor="middle" x="200.5" y="-449.5" font-family="Helvetica,sans-Serif" font-size="10.00" fill="#000000">string</text>
</a>
</g>
</g>
<!-- Node15&#45;&gt;Node6 -->
<g id="edge58" class="edge">
<title>Node15&#45;&gt;Node6</title>
<path fill="none" stroke="#9a32cd" stroke-dasharray="5,2" d="M232.5949,-454.9304C270.7774,-458.4166 334.988,-464.2793 379.8832,-468.3785"/>
<polygon fill="#9a32cd" stroke="#9a32cd" points="232.8302,-451.4374 222.5534,-454.0136 232.1937,-458.4084 232.8302,-451.4374"/>
<text text-anchor="middle" x="308" y="-468" font-family="Helvetica,sans-Serif" font-size="10.00" fill="#000000"> BaseURI</text>
</g>
<!-- Node15&#45;&gt;Node7 -->
<g id="edge55" class="edge">
<title>Node15&#45;&gt;Node7</title>
<path fill="none" stroke="#9a32cd" stroke-dasharray="5,2" d="M200.9748,-471.9189C203.0345,-539.8838 213.4934,-760.9874 263,-807 317.8093,-857.9411 355.6731,-824 430.5,-824 430.5,-824 430.5,-824 1236.5,-824 1376.11,-824 1472.2798,-635.4531 1493.2136,-590.5259"/>
<polygon fill="#9a32cd" stroke="#9a32cd" points="204.4681,-471.6248 200.6957,-461.7244 197.4708,-471.8164 204.4681,-471.6248"/>
<text text-anchor="middle" x="867.5" y="-827" font-family="Helvetica,sans-Serif" font-size="10.00" fill="#000000"> PartialFile</text>
</g>
<!-- Node15&#45;&gt;Node8 -->
<g id="edge36" class="edge">
<title>Node15&#45;&gt;Node8</title>
<path fill="none" stroke="#9a32cd" stroke-dasharray="5,2" d="M202.0782,-432.4984C207.0309,-376.7612 224.2965,-218.7988 263,-188 306.0068,-153.7768 376.8088,-169.5412 410.9234,-180.1371"/>
<polygon fill="#9a32cd" stroke="#9a32cd" points="198.5888,-432.2266 201.2269,-442.4877 205.5635,-432.821 198.5888,-432.2266"/>
<text text-anchor="middle" x="308" y="-224" font-family="Helvetica,sans-Serif" font-size="10.00" fill="#000000"> ActiveSubprocess</text>
<text text-anchor="middle" x="308" y="-213" font-family="Helvetica,sans-Serif" font-size="10.00" fill="#000000">DestFile</text>
<text text-anchor="middle" x="308" y="-202" font-family="Helvetica,sans-Serif" font-size="10.00" fill="#000000">ErrorText</text>
<text text-anchor="middle" x="308" y="-191" font-family="Helvetica,sans-Serif" font-size="10.00" fill="#000000">UsedMirror</text>
</g>
<!-- Node15&#45;&gt;Node10 -->
<g id="edge33" class="edge">
<title>Node15&#45;&gt;Node10</title>
<path fill="none" stroke="#9a32cd" stroke-dasharray="5,2" d="M205.6484,-432.7088C213.507,-407.2852 231.0597,-363.197 263,-341 293.1136,-320.0725 879.1925,-245.9129 915,-238 928.0818,-235.1091 942.3316,-231.1833 954.5393,-227.5752"/>
<polygon fill="#9a32cd" stroke="#9a32cd" points="202.278,-431.7649 202.8603,-442.3437 209.0022,-433.7108 202.278,-431.7649"/>
<text text-anchor="middle" x="567.5" y="-298" font-family="Helvetica,sans-Serif" font-size="10.00" fill="#000000"> Lock</text>
</g>
<!-- Node15&#45;&gt;Node12 -->
<g id="edge30" class="edge">
<title>Node15&#45;&gt;Node12</title>
<path fill="none" stroke="#9a32cd" stroke-dasharray="5,2" d="M211.4836,-433.7179C222.361,-417.4128 240.6085,-394.4094 263,-383 441.6414,-291.9743 961.0755,-311.0496 1160,-286 1177.5728,-283.7871 1197.3626,-280.9317 1212.4111,-278.6847"/>
<polygon fill="#9a32cd" stroke="#9a32cd" points="208.371,-432.09 205.9552,-442.4058 214.2767,-435.8481 208.371,-432.09"/>
<text text-anchor="middle" x="723.5" y="-316" font-family="Helvetica,sans-Serif" font-size="10.00" fill="#000000"> Name</text>
</g>
<!-- Node15&#45;&gt;Node14 -->
<g id="edge12" class="edge">
<title>Node15&#45;&gt;Node14</title>
<path fill="none" stroke="#9a32cd" stroke-dasharray="5,2" d="M202.7354,-432.4687C209.6119,-375.0537 231.8831,-208.0865 263,-164 330.6272,-68.1854 392.8729,-88.3524 508,-66 573.1151,-53.3576 649.9089,-41.6442 691.9861,-35.4975"/>
<polygon fill="#9a32cd" stroke="#9a32cd" points="199.2569,-432.0823 201.5674,-442.4221 206.2091,-432.8982 199.2569,-432.0823"/>
<text text-anchor="middle" x="430.5" y="-112" font-family="Helvetica,sans-Serif" font-size="10.00" fill="#000000"> Description</text>
<text text-anchor="middle" x="430.5" y="-101" font-family="Helvetica,sans-Serif" font-size="10.00" fill="#000000">URI</text>
<text text-anchor="middle" x="430.5" y="-90" font-family="Helvetica,sans-Serif" font-size="10.00" fill="#000000">ShortDesc</text>
</g>
<!-- Node15&#45;&gt;Node17 -->
<g id="edge25" class="edge">
<title>Node15&#45;&gt;Node17</title>
<path fill="none" stroke="#9a32cd" stroke-dasharray="5,2" d="M232.9454,-450.5162C365.6789,-444.0422 879.9491,-415.0141 1295,-337 1348.4999,-326.944 1365.1644,-332.0509 1414,-308 1422.0035,-304.0584 1464.9705,-268.3417 1485.9538,-250.7297"/>
<polygon fill="#9a32cd" stroke="#9a32cd" points="232.4871,-447.0341 222.6663,-451.0093 232.8226,-454.026 232.4871,-447.0341"/>
<text text-anchor="middle" x="867.5" y="-428" font-family="Helvetica,sans-Serif" font-size="10.00" fill="#000000"> OutQueue</text>
<text text-anchor="middle" x="867.5" y="-417" font-family="Helvetica,sans-Serif" font-size="10.00" fill="#000000">Access</text>
<text text-anchor="middle" x="867.5" y="-406" font-family="Helvetica,sans-Serif" font-size="10.00" fill="#000000">Status</text>
</g>
<!-- Node18 -->
<g id="node13" class="node">
<title>Node18</title>
<g id="a_node13"><a xlink:href="structpkgAcquire_1_1MethodConfig.xhtml" target="_top" xlink:title="Information about the properties of a single acquire method. {{{. ">
<polygon fill="#ffffff" stroke="#000000" points="682,-59.5 682,-78.5 765,-78.5 765,-59.5 682,-59.5"/>
<text text-anchor="middle" x="723.5" y="-66.5" font-family="Helvetica,sans-Serif" font-size="10.00" fill="#000000">MethodConfig</text>
</a>
</g>
</g>
<!-- Node15&#45;&gt;Node18 -->
<g id="edge22" class="edge">
<title>Node15&#45;&gt;Node18</title>
<path fill="none" stroke="#9a32cd" stroke-dasharray="5,2" d="M202.3842,-432.5015C206.7172,-398.9545 220.5386,-330.5076 263,-295 389.251,-189.4249 511.5376,-344.2768 627,-227 661.7553,-191.6985 617.3522,-158.1063 645,-117 657.3031,-98.708 679.1531,-86.1888 696.6821,-78.5341"/>
<polygon fill="#9a32cd" stroke="#9a32cd" points="198.9062,-432.1103 201.2508,-442.4424 205.8612,-432.9033 198.9062,-432.1103"/>
<text text-anchor="middle" x="430.5" y="-285" font-family="Helvetica,sans-Serif" font-size="10.00" fill="#000000"> Access</text>
<text text-anchor="middle" x="430.5" y="-274" font-family="Helvetica,sans-Serif" font-size="10.00" fill="#000000">Version</text>
</g>
<!-- Node21 -->
<g id="node16" class="node">
<title>Node21</title>
<polygon fill="#ffffff" stroke="#bfbfbf" points="508,-384.5 508,-403.5 627,-403.5 627,-384.5 508,-384.5"/>
<text text-anchor="middle" x="567.5" y="-391.5" font-family="Helvetica,sans-Serif" font-size="10.00" fill="#000000">vector&lt; std::string &gt;</text>
</g>
<!-- Node15&#45;&gt;Node21 -->
<g id="edge28" class="edge">
<title>Node15&#45;&gt;Node21</title>
<path fill="none" stroke="#9a32cd" stroke-dasharray="5,2" d="M217.7086,-435.3448C229.4497,-425.1312 245.9196,-412.9144 263,-407 344.2501,-378.8658 445.042,-381.2108 507.829,-386.6767"/>
<polygon fill="#9a32cd" stroke="#9a32cd" points="215.0953,-432.9905 210.0539,-442.309 219.8061,-438.1683 215.0953,-432.9905"/>
<text text-anchor="middle" x="308" y="-410" font-family="Helvetica,sans-Serif" font-size="10.00" fill="#000000"> elements</text>
</g>
<!-- Node22 -->
<g id="node17" class="node">
<title>Node22</title>
<g id="a_node17"><a xlink:href="classIndexTarget.xhtml" target="_top" xlink:title="Information about an index file. ">
<polygon fill="#ffffff" stroke="#000000" points="686.5,-579.5 686.5,-598.5 760.5,-598.5 760.5,-579.5 686.5,-579.5"/>
<text text-anchor="middle" x="723.5" y="-586.5" font-family="Helvetica,sans-Serif" font-size="10.00" fill="#000000">IndexTarget</text>
</a>
</g>
</g>
<!-- Node15&#45;&gt;Node22 -->
<g id="edge41" class="edge">
<title>Node15&#45;&gt;Node22</title>
<path fill="none" stroke="#9a32cd" stroke-dasharray="5,2" d="M210.6724,-470.5558C221.343,-488.1876 239.7849,-514.0229 263,-528 358.209,-585.3225 397.7499,-564.0168 508,-578 570.25,-585.8953 643.2965,-588.168 686.3618,-588.7958"/>
<polygon fill="#9a32cd" stroke="#9a32cd" points="213.6027,-468.6317 205.5627,-461.7318 207.545,-472.1395 213.6027,-468.6317"/>
<text text-anchor="middle" x="430.5" y="-611" font-family="Helvetica,sans-Serif" font-size="10.00" fill="#000000"> Description</text>
<text text-anchor="middle" x="430.5" y="-600" font-family="Helvetica,sans-Serif" font-size="10.00" fill="#000000">URI</text>
<text text-anchor="middle" x="430.5" y="-589" font-family="Helvetica,sans-Serif" font-size="10.00" fill="#000000">ShortDesc</text>
<text text-anchor="middle" x="430.5" y="-578" font-family="Helvetica,sans-Serif" font-size="10.00" fill="#000000">MetaKey</text>
</g>
<!-- Node23 -->
<g id="node18" class="node">
<title>Node23</title>
<polygon fill="#ffffff" stroke="#bfbfbf" points="371,-503 371,-533 490,-533 490,-503 371,-503"/>
<text text-anchor="start" x="379" y="-521" font-family="Helvetica,sans-Serif" font-size="10.00" fill="#000000">map&lt; std::string, std</text>
<text text-anchor="middle" x="430.5" y="-510" font-family="Helvetica,sans-Serif" font-size="10.00" fill="#000000">::string &gt;</text>
</g>
<!-- Node15&#45;&gt;Node23 -->
<g id="edge40" class="edge">
<title>Node15&#45;&gt;Node23</title>
<path fill="none" stroke="#9a32cd" stroke-dasharray="5,2" d="M228.467,-465.9531C239.0947,-470.8746 251.4293,-476.1381 263,-480 298.0733,-491.7063 338.4681,-500.9876 370.8002,-507.4467"/>
<polygon fill="#9a32cd" stroke="#9a32cd" points="229.7921,-462.7078 219.2575,-461.5796 226.7892,-469.031 229.7921,-462.7078"/>
<text text-anchor="middle" x="308" y="-516" font-family="Helvetica,sans-Serif" font-size="10.00" fill="#000000"> keys</text>
<text text-anchor="middle" x="308" y="-505" font-family="Helvetica,sans-Serif" font-size="10.00" fill="#000000">elements</text>
</g>
<!-- Node26 -->
<g id="node21" class="node">
<title>Node26</title>
<g id="a_node21"><a xlink:href="classmetaIndex.xhtml" target="_top" xlink:title="metaIndex">
<polygon fill="#ffffff" stroke="#000000" points="950.5,-661.5 950.5,-680.5 1019.5,-680.5 1019.5,-661.5 950.5,-661.5"/>
<text text-anchor="middle" x="985" y="-668.5" font-family="Helvetica,sans-Serif" font-size="10.00" fill="#000000">metaIndex</text>
</a>
</g>
</g>
<!-- Node15&#45;&gt;Node26 -->
<g id="edge54" class="edge">
<title>Node15&#45;&gt;Node26</title>
<path fill="none" stroke="#9a32cd" stroke-dasharray="5,2" d="M207.9752,-471.2013C217.7858,-494.4631 236.8762,-533.7856 263,-560 302.2257,-599.3617 317.8663,-606.7272 371,-623 425.5148,-639.6958 570.1519,-635.6516 627,-640 745.809,-649.0879 886.6155,-661.8713 950.4594,-667.777"/>
<polygon fill="#9a32cd" stroke="#9a32cd" points="211.1397,-469.6918 204.1287,-461.7484 204.6559,-472.3301 211.1397,-469.6918"/>
<text text-anchor="middle" x="567.5" y="-687" font-family="Helvetica,sans-Serif" font-size="10.00" fill="#000000"> Codename</text>
<text text-anchor="middle" x="567.5" y="-676" font-family="Helvetica,sans-Serif" font-size="10.00" fill="#000000">Dist</text>
<text text-anchor="middle" x="567.5" y="-665" font-family="Helvetica,sans-Serif" font-size="10.00" fill="#000000">Suite</text>
<text text-anchor="middle" x="567.5" y="-654" font-family="Helvetica,sans-Serif" font-size="10.00" fill="#000000">URI</text>
<text text-anchor="middle" x="567.5" y="-643" font-family="Helvetica,sans-Serif" font-size="10.00" fill="#000000">SignedBy</text>
</g>
<!-- Node27 -->
<g id="node22" class="node">
<title>Node27</title>
<polygon fill="#ffffff" stroke="#bfbfbf" points="645,-732 645,-762 802,-762 802,-732 645,-732"/>
<text text-anchor="start" x="653" y="-750" font-family="Helvetica,sans-Serif" font-size="10.00" fill="#000000">map&lt; std::string, metaIndex</text>
<text text-anchor="middle" x="723.5" y="-739" font-family="Helvetica,sans-Serif" font-size="10.00" fill="#000000">::checkSum *&gt;</text>
</g>
<!-- Node15&#45;&gt;Node27 -->
<g id="edge48" class="edge">
<title>Node15&#45;&gt;Node27</title>
<path fill="none" stroke="#9a32cd" stroke-dasharray="5,2" d="M201.799,-471.8165C205.3126,-511.1463 218.0352,-600.1656 263,-657 297.4786,-700.5801 317.9494,-703.458 371,-720 461.9683,-748.3653 572.243,-752.2565 644.9516,-750.926"/>
<polygon fill="#9a32cd" stroke="#9a32cd" points="205.2769,-471.3964 201.0055,-461.7007 198.2983,-471.9438 205.2769,-471.3964"/>
<text text-anchor="middle" x="430.5" y="-746" font-family="Helvetica,sans-Serif" font-size="10.00" fill="#000000"> keys</text>
</g>
<!-- Node28 -->
<g id="node23" class="node">
<title>Node28</title>
<g id="a_node23"><a xlink:href="structmetaIndex_1_1checkSum.xhtml" target="_top" xlink:title="checkSum">
<polygon fill="#ffffff" stroke="#000000" points="397,-776.5 397,-795.5 464,-795.5 464,-776.5 397,-776.5"/>
<text text-anchor="middle" x="430.5" y="-783.5" font-family="Helvetica,sans-Serif" font-size="10.00" fill="#000000">checkSum</text>
</a>
</g>
</g>
<!-- Node15&#45;&gt;Node28 -->
<g id="edge51" class="edge">
<title>Node15&#45;&gt;Node28</title>
<path fill="none" stroke="#9a32cd" stroke-dasharray="5,2" d="M201.6323,-472.0139C205.5656,-533.9767 220.7795,-720.8962 263,-761 298.6008,-794.816 359.0337,-795.1515 396.7506,-791.2976"/>
<polygon fill="#9a32cd" stroke="#9a32cd" points="205.1038,-471.4345 201.0082,-461.6634 198.1165,-471.8559 205.1038,-471.4345"/>
<text text-anchor="middle" x="308" y="-795" font-family="Helvetica,sans-Serif" font-size="10.00" fill="#000000"> MetaKeyFilename</text>
</g>
<!-- Node16 -->
<g id="node11" class="node">
<title>Node16</title>
<g id="a_node11"><a xlink:title="STL class. ">
<polygon fill="#ffffff" stroke="#bfbfbf" points="0,-442.5 0,-461.5 119,-461.5 119,-442.5 0,-442.5"/>
<text text-anchor="middle" x="59.5" y="-449.5" font-family="Helvetica,sans-Serif" font-size="10.00" fill="#000000">basic_string&lt; char &gt;</text>
</a>
</g>
</g>
<!-- Node16&#45;&gt;Node15 -->
<g id="edge13" class="edge">
<title>Node16&#45;&gt;Node15</title>
<path fill="none" stroke="#191970" d="M129.6368,-452C147.2611,-452 164.9157,-452 178.1946,-452"/>
<polygon fill="#191970" stroke="#191970" points="129.2967,-448.5001 119.2967,-452 129.2967,-455.5001 129.2967,-448.5001"/>
</g>
<!-- Node17&#45;&gt;Node10 -->
<g id="edge35" class="edge">
<title>Node17&#45;&gt;Node10</title>
<path fill="none" stroke="#9a32cd" stroke-dasharray="5,2" d="M1461.7557,-235.4964C1447.0048,-233.4325 1429.7144,-231.2794 1414,-230 1268.4453,-218.1499 1094.2993,-217.4111 1020.6639,-217.7157"/>
<polygon fill="#9a32cd" stroke="#9a32cd" points="1461.5922,-239.0089 1471.9889,-236.9697 1462.5897,-232.0803 1461.5922,-239.0089"/>
<text text-anchor="middle" x="1236.5" y="-225" font-family="Helvetica,sans-Serif" font-size="10.00" fill="#000000"> Workers</text>
</g>
<!-- Node17&#45;&gt;Node12 -->
<g id="edge31" class="edge">
<title>Node17&#45;&gt;Node12</title>
<path fill="none" stroke="#9a32cd" stroke-dasharray="5,2" d="M1461.6934,-246.3016C1446.9331,-248.4464 1429.6524,-250.9055 1414,-253 1359.2162,-260.3309 1294.802,-268.1034 1260.6355,-272.1592"/>
<polygon fill="#9a32cd" stroke="#9a32cd" points="1462.5475,-249.714 1471.9364,-244.805 1461.5354,-242.7875 1462.5475,-249.714"/>
<text text-anchor="middle" x="1363.5" y="-268" font-family="Helvetica,sans-Serif" font-size="10.00" fill="#000000"> Workers</text>
</g>
<!-- Node17&#45;&gt;Node13 -->
<g id="edge17" class="edge">
<title>Node17&#45;&gt;Node13</title>
<path fill="none" stroke="#9a32cd" stroke-dasharray="5,2" d="M1533.3258,-246.1626C1548.0891,-248.2864 1565.3667,-250.7672 1581,-253 1627.548,-259.6482 1681.9689,-267.3579 1712.3645,-271.6583"/>
<polygon fill="#9a32cd" stroke="#9a32cd" points="1533.4764,-242.6483 1523.0798,-244.6879 1532.4791,-249.5769 1533.4764,-242.6483"/>
<text text-anchor="middle" x="1612" y="-264" font-family="Helvetica,sans-Serif" font-size="10.00" fill="#000000"> Worker</text>
</g>
<!-- Node17&#45;&gt;Node17 -->
<g id="edge29" class="edge">
<title>Node17&#45;&gt;Node17</title>
<path fill="none" stroke="#9a32cd" stroke-dasharray="5,2" d="M1476.3899,-260.4C1477.7997,-265.3146 1484.8364,-269 1497.5,-269 1517.7617,-269 1523.6186,-259.5653 1515.0707,-250.7571"/>
<polygon fill="#9a32cd" stroke="#9a32cd" points="1479.7693,-261.3507 1479.9293,-250.7571 1473.1979,-258.9387 1479.7693,-261.3507"/>
<text text-anchor="middle" x="1497.5" y="-283" font-family="Helvetica,sans-Serif" font-size="10.00" fill="#000000"> NextQueue</text>
<text text-anchor="middle" x="1497.5" y="-272" font-family="Helvetica,sans-Serif" font-size="10.00" fill="#000000">NextAcquire</text>
</g>
<!-- Node18&#45;&gt;Node10 -->
<g id="edge32" class="edge">
<title>Node18&#45;&gt;Node10</title>
<path fill="none" stroke="#9a32cd" stroke-dasharray="5,2" d="M775.2501,-78.8901C815.8773,-88.445 872.4879,-105.8516 915,-135 944.5389,-155.2533 968.7899,-191.163 979.331,-208.3328"/>
<polygon fill="#9a32cd" stroke="#9a32cd" points="775.8105,-75.4283 765.2838,-76.6277 774.2609,-82.2546 775.8105,-75.4283"/>
<text text-anchor="middle" x="867.5" y="-138" font-family="Helvetica,sans-Serif" font-size="10.00" fill="#000000"> Configs</text>
</g>
<!-- Node18&#45;&gt;Node17 -->
<g id="edge20" class="edge">
<title>Node18&#45;&gt;Node17</title>
<path fill="none" stroke="#9a32cd" stroke-dasharray="5,2" d="M775.0972,-73.2745C813.7461,-76.8113 867.855,-82.4735 915,-90 1138.8004,-125.7287 1201.5336,-116.1255 1414,-195 1439.7567,-204.5617 1467.2195,-221.0648 1483.3459,-231.4867"/>
<polygon fill="#9a32cd" stroke="#9a32cd" points="775.3957,-69.7873 765.1224,-72.3774 774.7686,-76.7592 775.3957,-69.7873"/>
<text text-anchor="middle" x="1107.5" y="-128" font-family="Helvetica,sans-Serif" font-size="10.00" fill="#000000"> Config</text>
</g>
<!-- Node18&#45;&gt;Node18 -->
<g id="edge21" class="edge">
<title>Node18&#45;&gt;Node18</title>
<path fill="none" stroke="#9a32cd" stroke-dasharray="5,2" d="M696.6208,-87.6539C697.7444,-92.9368 706.7041,-97 723.5,-97 749.0938,-97 756.4919,-87.5653 745.6946,-78.7571"/>
<polygon fill="#9a32cd" stroke="#9a32cd" points="699.7433,-89.2361 701.3054,-78.7571 693.5494,-85.9747 699.7433,-89.2361"/>
<text text-anchor="middle" x="723.5" y="-100" font-family="Helvetica,sans-Serif" font-size="10.00" fill="#000000"> Next</text>
</g>
<!-- Node19 -->
<g id="node14" class="node">
<title>Node19</title>
<g id="a_node14"><a xlink:href="classpkgAcquire_1_1MethodConfig_1_1Private.xhtml" target="_top" xlink:title="Private">
<polygon fill="#ffffff" stroke="#000000" points="405,-139.5 405,-158.5 456,-158.5 456,-139.5 405,-139.5"/>
<text text-anchor="middle" x="430.5" y="-146.5" font-family="Helvetica,sans-Serif" font-size="10.00" fill="#000000">Private</text>
</a>
</g>
</g>
<!-- Node19&#45;&gt;Node18 -->
<g id="edge23" class="edge">
<title>Node19&#45;&gt;Node18</title>
<path fill="none" stroke="#9a32cd" stroke-dasharray="5,2" d="M466.2256,-151.6186C506.6957,-153.2681 573.9147,-151.9691 627,-131 636.4261,-127.2766 636.6636,-122.7637 645,-117 665.6292,-102.7372 690.4803,-87.9151 706.616,-78.5842"/>
<polygon fill="#9a32cd" stroke="#9a32cd" points="466.2062,-148.1135 456.0462,-151.1177 465.8621,-155.1051 466.2062,-148.1135"/>
<text text-anchor="middle" x="567.5" y="-155" font-family="Helvetica,sans-Serif" font-size="10.00" fill="#000000"> d</text>
</g>
<!-- Node20 -->
<g id="node15" class="node">
<title>Node20</title>
<g id="a_node15"><a xlink:href="classpkgAcquireStatus.xhtml" target="_top" xlink:title="A monitor object for downloads controlled by the pkgAcquire class. {{{. ">
<polygon fill="#ffffff" stroke="#000000" points="672.5,-126.5 672.5,-145.5 774.5,-145.5 774.5,-126.5 672.5,-126.5"/>
<text text-anchor="middle" x="723.5" y="-133.5" font-family="Helvetica,sans-Serif" font-size="10.00" fill="#000000">pkgAcquireStatus</text>
</a>
</g>
</g>
<!-- Node20&#45;&gt;Node10 -->
<g id="edge34" class="edge">
<title>Node20&#45;&gt;Node10</title>
<path fill="none" stroke="#9a32cd" stroke-dasharray="5,2" d="M784.9842,-143.6312C831.7914,-149.9919 891.9684,-159.5142 915,-169 938.3181,-178.6038 961.5354,-197.0605 974.503,-208.3773"/>
<polygon fill="#9a32cd" stroke="#9a32cd" points="785.2927,-140.1414 774.9167,-142.2834 784.3638,-147.0795 785.2927,-140.1414"/>
<text text-anchor="middle" x="867.5" y="-172" font-family="Helvetica,sans-Serif" font-size="10.00" fill="#000000"> Log</text>
</g>
<!-- Node20&#45;&gt;Node17 -->
<g id="edge26" class="edge">
<title>Node20&#45;&gt;Node17</title>
<path fill="none" stroke="#9a32cd" stroke-dasharray="5,2" d="M785.0778,-139.0575C822.6697,-141.2029 871.6766,-144.4966 915,-149 1137.7491,-172.1543 1194.4481,-174.8386 1414,-219 1433.5469,-222.9317 1455.321,-228.7162 1471.7322,-233.3671"/>
<polygon fill="#9a32cd" stroke="#9a32cd" points="784.9715,-135.5462 774.7918,-138.4829 784.581,-142.5353 784.9715,-135.5462"/>
<text text-anchor="middle" x="1107.5" y="-178" font-family="Helvetica,sans-Serif" font-size="10.00" fill="#000000"> Log</text>
</g>
<!-- Node21&#45;&gt;Node17 -->
<g id="edge27" class="edge">
<title>Node21&#45;&gt;Node17</title>
<path fill="none" stroke="#9a32cd" stroke-dasharray="5,2" d="M637.3294,-387.5313C683.9988,-383.0413 746.7376,-376.6847 802,-370 1074.9359,-336.9847 1151.0771,-360.3463 1414,-280 1438.176,-272.6121 1464.3166,-259.4877 1480.7876,-250.5221"/>
<polygon fill="#9a32cd" stroke="#9a32cd" points="636.9461,-384.0519 627.3251,-388.4889 637.6131,-391.02 636.9461,-384.0519"/>
<text text-anchor="middle" x="985" y="-359" font-family="Helvetica,sans-Serif" font-size="10.00" fill="#000000"> MessageQueue</text>
</g>
<!-- Node22&#45;&gt;Node7 -->
<g id="edge38" class="edge">
<title>Node22&#45;&gt;Node7</title>
<path fill="none" stroke="#9a32cd" stroke-dasharray="5,2" d="M770.5391,-595.4449C786.2365,-597.3063 803.8425,-599.0821 820,-600 1044.0899,-612.7307 1310.3811,-595.9409 1431.5691,-586.555"/>
<polygon fill="#9a32cd" stroke="#9a32cd" points="770.8855,-591.9613 760.5337,-594.2176 770.0331,-598.9092 770.8855,-591.9613"/>
<text text-anchor="middle" x="1107.5" y="-607" font-family="Helvetica,sans-Serif" font-size="10.00" fill="#000000"> Target</text>
</g>
<!-- Node22&#45;&gt;Node25 -->
<g id="edge45" class="edge">
<title>Node22&#45;&gt;Node25</title>
<path fill="none" stroke="#9a32cd" stroke-dasharray="5,2" d="M770.9055,-587.5497C816.5241,-586.1541 885.3542,-584.0484 932.5844,-582.6035"/>
<polygon fill="#9a32cd" stroke="#9a32cd" points="770.5771,-584.058 760.6889,-587.8623 770.7912,-591.0548 770.5771,-584.058"/>
<text text-anchor="middle" x="867.5" y="-588" font-family="Helvetica,sans-Serif" font-size="10.00" fill="#000000"> DetachedSigTarget</text>
</g>
<!-- Node23&#45;&gt;Node22 -->
<g id="edge39" class="edge">
<title>Node23&#45;&gt;Node22</title>
<path fill="none" stroke="#9a32cd" stroke-dasharray="5,2" d="M481.7017,-536.2409C490.4178,-539.0394 499.4242,-541.7434 508,-544 560.0943,-557.7079 574.2882,-555.9006 627,-567 646.6731,-571.1425 668.5204,-576.0938 686.4454,-580.2493"/>
<polygon fill="#9a32cd" stroke="#9a32cd" points="482.6158,-532.8572 472.0229,-533.06 480.4302,-539.5073 482.6158,-532.8572"/>
<text text-anchor="middle" x="567.5" y="-570" font-family="Helvetica,sans-Serif" font-size="10.00" fill="#000000"> Options</text>
</g>
<!-- Node24 -->
<g id="node19" class="node">
<title>Node24</title>
<g id="a_node19"><a xlink:href="classpkgAcqMetaClearSig.xhtml" target="_top" xlink:title="An item responsible for downloading clearsigned metaindexes {{{. ">
<polygon fill="#ffffff" stroke="#000000" points="1178,-647.5 1178,-666.5 1295,-666.5 1295,-647.5 1178,-647.5"/>
<text text-anchor="middle" x="1236.5" y="-654.5" font-family="Helvetica,sans-Serif" font-size="10.00" fill="#000000">pkgAcqMetaClearSig</text>
</a>
</g>
</g>
<!-- Node24&#45;&gt;Node7 -->
<g id="edge42" class="edge">
<title>Node24&#45;&gt;Node7</title>
<path fill="none" stroke="#9a32cd" stroke-dasharray="5,2" d="M1305.3069,-654.4555C1338.8857,-651.5313 1379.3993,-645.4615 1414,-633 1441.7967,-622.989 1470.1573,-602.7611 1485.6253,-590.6969"/>
<polygon fill="#9a32cd" stroke="#9a32cd" points="1304.8137,-650.9835 1295.1228,-655.2656 1305.3689,-657.9615 1304.8137,-650.9835"/>
<text text-anchor="middle" x="1363.5" y="-656" font-family="Helvetica,sans-Serif" font-size="10.00" fill="#000000"> TransactionManager</text>
</g>
<!-- Node25&#45;&gt;Node24 -->
<g id="edge43" class="edge">
<title>Node25&#45;&gt;Node24</title>
<path fill="none" stroke="#191970" d="M1047.6824,-578.22C1081.9619,-578.7718 1124.5406,-582.9135 1160,-597 1188.2357,-608.2168 1214.5854,-633.3231 1227.742,-647.2413"/>
<polygon fill="#191970" stroke="#191970" points="1047.3486,-574.718 1037.3274,-578.157 1047.3059,-581.7179 1047.3486,-574.718"/>
</g>
<!-- Node26&#45;&gt;Node24 -->
<g id="edge46" class="edge">
<title>Node26&#45;&gt;Node24</title>
<path fill="none" stroke="#9a32cd" stroke-dasharray="5,2" d="M1029.7237,-668.5104C1070.9273,-666.2168 1132.345,-662.7979 1177.5431,-660.2819"/>
<polygon fill="#9a32cd" stroke="#9a32cd" points="1029.4959,-665.0176 1019.7059,-669.0681 1029.8851,-672.0068 1029.4959,-665.0176"/>
<text text-anchor="middle" x="1107.5" y="-680" font-family="Helvetica,sans-Serif" font-size="10.00" fill="#000000"> LastMetaIndexParser</text>
<text text-anchor="middle" x="1107.5" y="-669" font-family="Helvetica,sans-Serif" font-size="10.00" fill="#000000">MetaIndexParser</text>
</g>
<!-- Node27&#45;&gt;Node26 -->
<g id="edge47" class="edge">
<title>Node27&#45;&gt;Node26</title>
<path fill="none" stroke="#9a32cd" stroke-dasharray="5,2" d="M803.3395,-729.532C837.9651,-721.3042 878.791,-710.7206 915,-699 931.4377,-693.6792 949.5349,-686.4012 963.2099,-680.5989"/>
<polygon fill="#9a32cd" stroke="#9a32cd" points="802.2103,-726.202 793.2773,-731.8986 803.813,-733.0161 802.2103,-726.202"/>
<text text-anchor="middle" x="867.5" y="-728" font-family="Helvetica,sans-Serif" font-size="10.00" fill="#000000"> Entries</text>
</g>
<!-- Node28&#45;&gt;Node27 -->
<g id="edge49" class="edge">
<title>Node28&#45;&gt;Node27</title>
<path fill="none" stroke="#9a32cd" stroke-dasharray="5,2" d="M474.4207,-780.6356C514.263,-775.7162 574.606,-768.133 627,-761 632.7871,-760.2121 638.767,-759.3824 644.7826,-758.5363"/>
<polygon fill="#9a32cd" stroke="#9a32cd" points="473.7481,-777.1919 464.2511,-781.8884 474.604,-784.1394 473.7481,-777.1919"/>
<text text-anchor="middle" x="567.5" y="-779" font-family="Helvetica,sans-Serif" font-size="10.00" fill="#000000"> elements</text>
</g>
<!-- Node29 -->
<g id="node24" class="node">
<title>Node29</title>
<g id="a_node24"><a xlink:href="classHashStringList.xhtml" target="_top" xlink:title="HashStringList">
<polygon fill="#ffffff" stroke="#000000" points="157,-847.5 157,-866.5 244,-866.5 244,-847.5 157,-847.5"/>
<text text-anchor="middle" x="200.5" y="-854.5" font-family="Helvetica,sans-Serif" font-size="10.00" fill="#000000">HashStringList</text>
</a>
</g>
</g>
<!-- Node29&#45;&gt;Node28 -->
<g id="edge50" class="edge">
<title>Node29&#45;&gt;Node28</title>
<path fill="none" stroke="#9a32cd" stroke-dasharray="5,2" d="M241.3145,-844.4007C286.6261,-830.4133 358.7453,-808.1504 399.6062,-795.5368"/>
<polygon fill="#9a32cd" stroke="#9a32cd" points="240.0415,-841.1307 231.5188,-847.4246 242.1063,-847.8192 240.0415,-841.1307"/>
<text text-anchor="middle" x="308" y="-839" font-family="Helvetica,sans-Serif" font-size="10.00" fill="#000000"> Hashes</text>
</g>
<!-- Node30 -->
<g id="node25" class="node">
<title>Node30</title>
<polygon fill="#ffffff" stroke="#bfbfbf" points="655,-683.5 655,-702.5 792,-702.5 792,-683.5 655,-683.5"/>
<text text-anchor="middle" x="723.5" y="-690.5" font-family="Helvetica,sans-Serif" font-size="10.00" fill="#000000">vector&lt; pkgIndexFile *&gt;</text>
</g>
<!-- Node30&#45;&gt;Node26 -->
<g id="edge52" class="edge">
<title>Node30&#45;&gt;Node26</title>
<path fill="none" stroke="#9a32cd" stroke-dasharray="5,2" d="M802.2289,-686.3765C851.5936,-682.2235 912.7792,-677.0759 950.3423,-673.9158"/>
<polygon fill="#9a32cd" stroke="#9a32cd" points="801.8774,-682.8937 792.206,-687.2198 802.4643,-689.869 801.8774,-682.8937"/>
<text text-anchor="middle" x="867.5" y="-687" font-family="Helvetica,sans-Serif" font-size="10.00" fill="#000000"> Indexes</text>
</g>
<!-- Node31 -->
<g id="node26" class="node">
<title>Node31</title>
<g id="a_node26"><a xlink:href="classpkgIndexFile.xhtml" target="_top" xlink:title="pkgIndexFile">
<polygon fill="#ffffff" stroke="#000000" points="391.5,-691.5 391.5,-710.5 469.5,-710.5 469.5,-691.5 391.5,-691.5"/>
<text text-anchor="middle" x="430.5" y="-698.5" font-family="Helvetica,sans-Serif" font-size="10.00" fill="#000000">pkgIndexFile</text>
</a>
</g>
</g>
<!-- Node31&#45;&gt;Node30 -->
<g id="edge53" class="edge">
<title>Node31&#45;&gt;Node30</title>
<path fill="none" stroke="#9a32cd" stroke-dasharray="5,2" d="M479.8784,-701.2065C519.6273,-701.2017 576.9243,-700.8104 627,-699 636.0584,-698.6725 645.5891,-698.2162 654.9896,-697.7"/>
<polygon fill="#9a32cd" stroke="#9a32cd" points="479.6628,-697.7064 469.6603,-701.1992 479.6578,-704.7064 479.6628,-697.7064"/>
<text text-anchor="middle" x="567.5" y="-704" font-family="Helvetica,sans-Serif" font-size="10.00" fill="#000000"> elements</text>
</g>
<!-- Node32&#45;&gt;Node6 -->
<g id="edge56" class="edge">
<title>Node32&#45;&gt;Node6</title>
<path fill="none" stroke="#9a32cd" stroke-dasharray="5,2" d="M1650.6185,-501.7063C1450.0905,-518.1308 933.8251,-550.6706 508,-494 491.2799,-491.7748 473.0518,-486.9617 458.4764,-482.5041"/>
<polygon fill="#9a32cd" stroke="#9a32cd" points="1651.1124,-505.1775 1660.7898,-500.8648 1650.5352,-498.2013 1651.1124,-505.1775"/>
<text text-anchor="middle" x="1107.5" y="-528" font-family="Helvetica,sans-Serif" font-size="10.00" fill="#000000"> Transaction</text>
</g>
</g>
</svg>
