<?xml version="1.0" encoding="UTF-8" standalone="no"?>
<!DOCTYPE svg PUBLIC "-//W3C//DTD SVG 1.1//EN"
 "http://www.w3.org/Graphics/SVG/1.1/DTD/svg11.dtd">
<!-- Generated by graphviz version 2.40.1 (20161225.0304)
 -->
<!-- Title: pkgCacheListParser Pages: 1 -->
<svg width="547pt" height="196pt"
 viewBox="0.00 0.00 547.00 196.00" xmlns="http://www.w3.org/2000/svg" xmlns:xlink="http://www.w3.org/1999/xlink">
<g id="graph0" class="graph" transform="scale(1 1) rotate(0) translate(4 192)">
<title>pkgCacheListParser</title>
<polygon fill="#ffffff" stroke="transparent" points="-4,4 -4,-192 543,-192 543,4 -4,4"/>
<!-- Node0 -->
<g id="node1" class="node">
<title>Node0</title>
<polygon fill="#bfbfbf" stroke="#000000" points="187.5,-168.5 187.5,-187.5 299.5,-187.5 299.5,-168.5 187.5,-168.5"/>
<text text-anchor="middle" x="243.5" y="-175.5" font-family="Helvetica,sans-Serif" font-size="10.00" fill="#000000">pkgCacheListParser</text>
</g>
<!-- Node1 -->
<g id="node2" class="node">
<title>Node1</title>
<g id="a_node2"><a xlink:href="classdebListParser.xhtml" target="_top" xlink:title="debListParser">
<polygon fill="#ffffff" stroke="#000000" points="202.5,-112.5 202.5,-131.5 284.5,-131.5 284.5,-112.5 202.5,-112.5"/>
<text text-anchor="middle" x="243.5" y="-119.5" font-family="Helvetica,sans-Serif" font-size="10.00" fill="#000000">debListParser</text>
</a>
</g>
</g>
<!-- Node0&#45;&gt;Node1 -->
<g id="edge1" class="edge">
<title>Node0&#45;&gt;Node1</title>
<path fill="none" stroke="#191970" d="M243.5,-158.1575C243.5,-149.155 243.5,-138.9199 243.5,-131.6427"/>
<polygon fill="#191970" stroke="#191970" points="240.0001,-158.2455 243.5,-168.2455 247.0001,-158.2456 240.0001,-158.2455"/>
</g>
<!-- Node2 -->
<g id="node3" class="node">
<title>Node2</title>
<g id="a_node3"><a xlink:href="classdebDebFileParser.xhtml" target="_top" xlink:title="debDebFileParser">
<polygon fill="#ffffff" stroke="#000000" points="0,-56.5 0,-75.5 101,-75.5 101,-56.5 0,-56.5"/>
<text text-anchor="middle" x="50.5" y="-63.5" font-family="Helvetica,sans-Serif" font-size="10.00" fill="#000000">debDebFileParser</text>
</a>
</g>
</g>
<!-- Node1&#45;&gt;Node2 -->
<g id="edge2" class="edge">
<title>Node1&#45;&gt;Node2</title>
<path fill="none" stroke="#191970" d="M200.2683,-109.4561C164.8404,-99.1765 115.463,-84.8494 83.2449,-75.5011"/>
<polygon fill="#191970" stroke="#191970" points="199.7429,-112.9479 210.3221,-112.3733 201.6936,-106.2252 199.7429,-112.9479"/>
</g>
<!-- Node3 -->
<g id="node4" class="node">
<title>Node3</title>
<g id="a_node4"><a xlink:href="classdebStatusListParser.xhtml" target="_top" xlink:title="debStatusListParser">
<polygon fill="#ffffff" stroke="#000000" points="119,-56.5 119,-75.5 232,-75.5 232,-56.5 119,-56.5"/>
<text text-anchor="middle" x="175.5" y="-63.5" font-family="Helvetica,sans-Serif" font-size="10.00" fill="#000000">debStatusListParser</text>
</a>
</g>
</g>
<!-- Node1&#45;&gt;Node3 -->
<g id="edge3" class="edge">
<title>Node1&#45;&gt;Node3</title>
<path fill="none" stroke="#191970" d="M223.6404,-105.645C211.8142,-95.9058 197.2108,-83.8795 187.209,-75.6427"/>
<polygon fill="#191970" stroke="#191970" points="221.711,-108.5902 231.6553,-112.2455 226.161,-103.1867 221.711,-108.5902"/>
</g>
<!-- Node4 -->
<g id="node5" class="node">
<title>Node4</title>
<g id="a_node5"><a xlink:href="classdebTranslationsParser.xhtml" target="_top" xlink:title="debTranslationsParser">
<polygon fill="#ffffff" stroke="#000000" points="250,-56.5 250,-75.5 373,-75.5 373,-56.5 250,-56.5"/>
<text text-anchor="middle" x="311.5" y="-63.5" font-family="Helvetica,sans-Serif" font-size="10.00" fill="#000000">debTranslationsParser</text>
</a>
</g>
</g>
<!-- Node1&#45;&gt;Node4 -->
<g id="edge4" class="edge">
<title>Node1&#45;&gt;Node4</title>
<path fill="none" stroke="#191970" d="M263.3596,-105.645C275.1858,-95.9058 289.7892,-83.8795 299.791,-75.6427"/>
<polygon fill="#191970" stroke="#191970" points="260.839,-103.1867 255.3447,-112.2455 265.289,-108.5902 260.839,-103.1867"/>
</g>
<!-- Node5 -->
<g id="node6" class="node">
<title>Node5</title>
<g id="a_node6"><a xlink:href="classedspLikeListParser.xhtml" target="_top" xlink:title="edspLikeListParser">
<polygon fill="#ffffff" stroke="#000000" points="391,-56.5 391,-75.5 498,-75.5 498,-56.5 391,-56.5"/>
<text text-anchor="middle" x="444.5" y="-63.5" font-family="Helvetica,sans-Serif" font-size="10.00" fill="#000000">edspLikeListParser</text>
</a>
</g>
</g>
<!-- Node1&#45;&gt;Node5 -->
<g id="edge5" class="edge">
<title>Node1&#45;&gt;Node5</title>
<path fill="none" stroke="#191970" d="M288.0494,-109.5882C324.9784,-99.2996 376.7002,-84.8895 410.3978,-75.5011"/>
<polygon fill="#191970" stroke="#191970" points="286.7469,-106.3177 278.0531,-112.3733 288.6256,-113.0609 286.7469,-106.3177"/>
</g>
<!-- Node6 -->
<g id="node7" class="node">
<title>Node6</title>
<g id="a_node7"><a xlink:href="classedspListParser.xhtml" target="_top" xlink:title="edspListParser">
<polygon fill="#ffffff" stroke="#000000" points="349,-.5 349,-19.5 436,-19.5 436,-.5 349,-.5"/>
<text text-anchor="middle" x="392.5" y="-7.5" font-family="Helvetica,sans-Serif" font-size="10.00" fill="#000000">edspListParser</text>
</a>
</g>
</g>
<!-- Node5&#45;&gt;Node6 -->
<g id="edge6" class="edge">
<title>Node5&#45;&gt;Node6</title>
<path fill="none" stroke="#191970" d="M428.5178,-48.7884C419.6222,-39.2085 408.8796,-27.6396 401.4539,-19.6427"/>
<polygon fill="#191970" stroke="#191970" points="426.073,-51.2992 435.4423,-56.2455 431.2025,-46.536 426.073,-51.2992"/>
</g>
<!-- Node7 -->
<g id="node8" class="node">
<title>Node7</title>
<g id="a_node8"><a xlink:href="classeippListParser.xhtml" target="_top" xlink:title="eippListParser">
<polygon fill="#ffffff" stroke="#000000" points="454,-.5 454,-19.5 539,-19.5 539,-.5 454,-.5"/>
<text text-anchor="middle" x="496.5" y="-7.5" font-family="Helvetica,sans-Serif" font-size="10.00" fill="#000000">eippListParser</text>
</a>
</g>
</g>
<!-- Node5&#45;&gt;Node7 -->
<g id="edge7" class="edge">
<title>Node5&#45;&gt;Node7</title>
<path fill="none" stroke="#191970" d="M460.4822,-48.7884C469.3778,-39.2085 480.1204,-27.6396 487.5461,-19.6427"/>
<polygon fill="#191970" stroke="#191970" points="457.7975,-46.536 453.5577,-56.2455 462.927,-51.2992 457.7975,-46.536"/>
</g>
</g>
</svg>
