<?xml version="1.0" encoding="UTF-8" standalone="no"?>
<!DOCTYPE svg PUBLIC "-//W3C//DTD SVG 1.1//EN"
 "http://www.w3.org/Graphics/SVG/1.1/DTD/svg11.dtd">
<!-- Generated by graphviz version 2.40.1 (20161225.0304)
 -->
<!-- Title: debSystemPrivate Pages: 1 -->
<svg width="236pt" height="276pt"
 viewBox="0.00 0.00 236.00 276.00" xmlns="http://www.w3.org/2000/svg" xmlns:xlink="http://www.w3.org/1999/xlink">
<g id="graph0" class="graph" transform="scale(1 1) rotate(0) translate(4 272)">
<title>debSystemPrivate</title>
<polygon fill="#ffffff" stroke="transparent" points="-4,4 -4,-272 232,-272 232,4 -4,4"/>
<!-- Node1 -->
<g id="node1" class="node">
<title>Node1</title>
<polygon fill="#bfbfbf" stroke="#000000" points="51.5,-.5 51.5,-19.5 157.5,-19.5 157.5,-.5 51.5,-.5"/>
<text text-anchor="middle" x="104.5" y="-7.5" font-family="Helvetica,sans-Serif" font-size="10.00" fill="#000000">debSystemPrivate</text>
</g>
<!-- Node2 -->
<g id="node2" class="node">
<title>Node2</title>
<g id="a_node2"><a xlink:href="classdebStatusIndex.xhtml" target="_top" xlink:title="debStatusIndex">
<polygon fill="#ffffff" stroke="#000000" points="58.5,-67.5 58.5,-86.5 150.5,-86.5 150.5,-67.5 58.5,-67.5"/>
<text text-anchor="middle" x="104.5" y="-74.5" font-family="Helvetica,sans-Serif" font-size="10.00" fill="#000000">debStatusIndex</text>
</a>
</g>
</g>
<!-- Node2&#45;&gt;Node1 -->
<g id="edge1" class="edge">
<title>Node2&#45;&gt;Node1</title>
<path fill="none" stroke="#9a32cd" stroke-dasharray="5,2" d="M104.5,-57.1079C104.5,-44.714 104.5,-29.3263 104.5,-19.5817"/>
<polygon fill="#9a32cd" stroke="#9a32cd" points="101.0001,-57.4005 104.5,-67.4005 108.0001,-57.4006 101.0001,-57.4005"/>
<text text-anchor="middle" x="130" y="-41" font-family="Helvetica,sans-Serif" font-size="10.00" fill="#000000"> StatusFile</text>
</g>
<!-- Node3 -->
<g id="node3" class="node">
<title>Node3</title>
<g id="a_node3"><a xlink:href="classpkgDebianIndexRealFile.xhtml" target="_top" xlink:title="pkgDebianIndexRealFile">
<polygon fill="#ffffff" stroke="#000000" points="37.5,-124.5 37.5,-143.5 171.5,-143.5 171.5,-124.5 37.5,-124.5"/>
<text text-anchor="middle" x="104.5" y="-131.5" font-family="Helvetica,sans-Serif" font-size="10.00" fill="#000000">pkgDebianIndexRealFile</text>
</a>
</g>
</g>
<!-- Node3&#45;&gt;Node2 -->
<g id="edge2" class="edge">
<title>Node3&#45;&gt;Node2</title>
<path fill="none" stroke="#191970" d="M104.5,-114.2342C104.5,-104.8491 104.5,-94.0651 104.5,-86.5265"/>
<polygon fill="#191970" stroke="#191970" points="101.0001,-114.3307 104.5,-124.3307 108.0001,-114.3308 101.0001,-114.3307"/>
</g>
<!-- Node4 -->
<g id="node4" class="node">
<title>Node4</title>
<g id="a_node4"><a xlink:href="classpkgDebianIndexFile.xhtml" target="_top" xlink:title="pkgDebianIndexFile">
<polygon fill="#ffffff" stroke="#000000" points="0,-191.5 0,-210.5 113,-210.5 113,-191.5 0,-191.5"/>
<text text-anchor="middle" x="56.5" y="-198.5" font-family="Helvetica,sans-Serif" font-size="10.00" fill="#000000">pkgDebianIndexFile</text>
</a>
</g>
</g>
<!-- Node4&#45;&gt;Node3 -->
<g id="edge3" class="edge">
<title>Node4&#45;&gt;Node3</title>
<path fill="none" stroke="#191970" d="M69.4096,-182.9803C78.4948,-170.2989 90.2981,-153.8235 97.6355,-143.5817"/>
<polygon fill="#191970" stroke="#191970" points="66.3559,-181.233 63.3772,-191.4005 72.0463,-185.3097 66.3559,-181.233"/>
</g>
<!-- Node5 -->
<g id="node5" class="node">
<title>Node5</title>
<g id="a_node5"><a xlink:href="classpkgIndexFile.xhtml" target="_top" xlink:title="pkgIndexFile">
<polygon fill="#ffffff" stroke="#000000" points="12.5,-248.5 12.5,-267.5 90.5,-267.5 90.5,-248.5 12.5,-248.5"/>
<text text-anchor="middle" x="51.5" y="-255.5" font-family="Helvetica,sans-Serif" font-size="10.00" fill="#000000">pkgIndexFile</text>
</a>
</g>
</g>
<!-- Node5&#45;&gt;Node4 -->
<g id="edge4" class="edge">
<title>Node5&#45;&gt;Node4</title>
<path fill="none" stroke="#191970" d="M53.2338,-238.2342C54.0571,-228.8491 55.0031,-218.0651 55.6643,-210.5265"/>
<polygon fill="#191970" stroke="#191970" points="49.7355,-238.0631 52.3482,-248.3307 56.7087,-238.6749 49.7355,-238.0631"/>
</g>
<!-- Node6 -->
<g id="node6" class="node">
<title>Node6</title>
<g id="a_node6"><a xlink:title="STL class. ">
<polygon fill="#ffffff" stroke="#bfbfbf" points="141.5,-191.5 141.5,-210.5 185.5,-210.5 185.5,-191.5 141.5,-191.5"/>
<text text-anchor="middle" x="163.5" y="-198.5" font-family="Helvetica,sans-Serif" font-size="10.00" fill="#000000">string</text>
</a>
</g>
</g>
<!-- Node6&#45;&gt;Node3 -->
<g id="edge5" class="edge">
<title>Node6&#45;&gt;Node3</title>
<path fill="none" stroke="#9a32cd" stroke-dasharray="5,2" d="M148.2786,-183.7147C137.0302,-170.941 122.1316,-154.0224 112.9376,-143.5817"/>
<polygon fill="#9a32cd" stroke="#9a32cd" points="145.8112,-186.2087 155.0467,-191.4005 151.0646,-181.5825 145.8112,-186.2087"/>
<text text-anchor="middle" x="148.5" y="-165" font-family="Helvetica,sans-Serif" font-size="10.00" fill="#000000"> File</text>
</g>
<!-- Node7 -->
<g id="node7" class="node">
<title>Node7</title>
<g id="a_node7"><a xlink:title="STL class. ">
<polygon fill="#ffffff" stroke="#bfbfbf" points="109,-248.5 109,-267.5 228,-267.5 228,-248.5 109,-248.5"/>
<text text-anchor="middle" x="168.5" y="-255.5" font-family="Helvetica,sans-Serif" font-size="10.00" fill="#000000">basic_string&lt; char &gt;</text>
</a>
</g>
</g>
<!-- Node7&#45;&gt;Node6 -->
<g id="edge6" class="edge">
<title>Node7&#45;&gt;Node6</title>
<path fill="none" stroke="#191970" d="M166.7662,-238.2342C165.9429,-228.8491 164.9969,-218.0651 164.3357,-210.5265"/>
<polygon fill="#191970" stroke="#191970" points="163.2913,-238.6749 167.6518,-248.3307 170.2645,-238.0631 163.2913,-238.6749"/>
</g>
</g>
</svg>
