<?xml version="1.0" encoding="UTF-8" standalone="no"?>
<!DOCTYPE svg PUBLIC "-//W3C//DTD SVG 1.1//EN"
 "http://www.w3.org/Graphics/SVG/1.1/DTD/svg11.dtd">
<!-- Generated by graphviz version 2.40.1 (20161225.0304)
 -->
<!-- Title: debSrcRecordParser Pages: 1 -->
<svg width="468pt" height="230pt"
 viewBox="0.00 0.00 468.00 230.00" xmlns="http://www.w3.org/2000/svg" xmlns:xlink="http://www.w3.org/1999/xlink">
<g id="graph0" class="graph" transform="scale(1 1) rotate(0) translate(4 226)">
<title>debSrcRecordParser</title>
<polygon fill="#ffffff" stroke="transparent" points="-4,4 -4,-226 464,-226 464,4 -4,4"/>
<!-- Node3 -->
<g id="node1" class="node">
<title>Node3</title>
<polygon fill="#bfbfbf" stroke="#000000" points="151.5,-.5 151.5,-19.5 264.5,-19.5 264.5,-.5 151.5,-.5"/>
<text text-anchor="middle" x="208" y="-7.5" font-family="Helvetica,sans-Serif" font-size="10.00" fill="#000000">debSrcRecordParser</text>
</g>
<!-- Node4 -->
<g id="node2" class="node">
<title>Node4</title>
<g id="a_node2"><a xlink:href="classpkgSrcRecords_1_1Parser.xhtml" target="_top" xlink:title="Parser">
<polygon fill="#ffffff" stroke="#000000" points="15.5,-67.5 15.5,-86.5 62.5,-86.5 62.5,-67.5 15.5,-67.5"/>
<text text-anchor="middle" x="39" y="-74.5" font-family="Helvetica,sans-Serif" font-size="10.00" fill="#000000">Parser</text>
</a>
</g>
</g>
<!-- Node4&#45;&gt;Node3 -->
<g id="edge1" class="edge">
<title>Node4&#45;&gt;Node3</title>
<path fill="none" stroke="#191970" d="M72.4991,-63.7193C105.4114,-50.6712 154.8158,-31.0848 183.9932,-19.5175"/>
<polygon fill="#191970" stroke="#191970" points="70.8613,-60.6035 62.8551,-67.5426 73.4412,-67.1108 70.8613,-60.6035"/>
</g>
<!-- Node5 -->
<g id="node3" class="node">
<title>Node5</title>
<g id="a_node3"><a xlink:href="classpkgIndexFile.xhtml" target="_top" xlink:title="pkgIndexFile">
<polygon fill="#ffffff" stroke="#000000" points="0,-145.5 0,-164.5 78,-164.5 78,-145.5 0,-145.5"/>
<text text-anchor="middle" x="39" y="-152.5" font-family="Helvetica,sans-Serif" font-size="10.00" fill="#000000">pkgIndexFile</text>
</a>
</g>
</g>
<!-- Node5&#45;&gt;Node4 -->
<g id="edge2" class="edge">
<title>Node5&#45;&gt;Node4</title>
<path fill="none" stroke="#9a32cd" stroke-dasharray="5,2" d="M39,-135.2866C39,-119.7395 39,-98.7276 39,-86.6426"/>
<polygon fill="#9a32cd" stroke="#9a32cd" points="35.5001,-135.4356 39,-145.4357 42.5001,-135.4357 35.5001,-135.4356"/>
<text text-anchor="middle" x="56" y="-113.5" font-family="Helvetica,sans-Serif" font-size="10.00" fill="#000000"> iIndex</text>
</g>
<!-- Node6 -->
<g id="node4" class="node">
<title>Node6</title>
<g id="a_node4"><a xlink:href="classpkgTagSection.xhtml" target="_top" xlink:title="pkgTagSection">
<polygon fill="#ffffff" stroke="#000000" points="80.5,-67.5 80.5,-86.5 167.5,-86.5 167.5,-67.5 80.5,-67.5"/>
<text text-anchor="middle" x="124" y="-74.5" font-family="Helvetica,sans-Serif" font-size="10.00" fill="#000000">pkgTagSection</text>
</a>
</g>
</g>
<!-- Node6&#45;&gt;Node3 -->
<g id="edge3" class="edge">
<title>Node6&#45;&gt;Node3</title>
<path fill="none" stroke="#9a32cd" stroke-dasharray="5,2" d="M143.8642,-61.1559C160.058,-48.2395 182.3987,-30.4201 195.9872,-19.5817"/>
<polygon fill="#9a32cd" stroke="#9a32cd" points="141.6705,-58.4287 136.0352,-67.4005 146.0354,-63.9011 141.6705,-58.4287"/>
<text text-anchor="middle" x="184.5" y="-41" font-family="Helvetica,sans-Serif" font-size="10.00" fill="#000000"> Sect</text>
</g>
<!-- Node7 -->
<g id="node5" class="node">
<title>Node7</title>
<g id="a_node5"><a xlink:href="classFileFd.xhtml" target="_top" xlink:title="FileFd">
<polygon fill="#ffffff" stroke="#000000" points="186,-67.5 186,-86.5 230,-86.5 230,-67.5 186,-67.5"/>
<text text-anchor="middle" x="208" y="-74.5" font-family="Helvetica,sans-Serif" font-size="10.00" fill="#000000">FileFd</text>
</a>
</g>
</g>
<!-- Node7&#45;&gt;Node3 -->
<g id="edge4" class="edge">
<title>Node7&#45;&gt;Node3</title>
<path fill="none" stroke="#9a32cd" stroke-dasharray="5,2" d="M208,-57.1079C208,-44.714 208,-29.3263 208,-19.5817"/>
<polygon fill="#9a32cd" stroke="#9a32cd" points="204.5001,-57.4005 208,-67.4005 211.5001,-57.4006 204.5001,-57.4005"/>
<text text-anchor="middle" x="215.5" y="-41" font-family="Helvetica,sans-Serif" font-size="10.00" fill="#000000"> Fd</text>
</g>
<!-- Node8 -->
<g id="node6" class="node">
<title>Node8</title>
<g id="a_node6"><a xlink:title="STL class. ">
<polygon fill="#ffffff" stroke="#bfbfbf" points="186,-145.5 186,-164.5 230,-164.5 230,-145.5 186,-145.5"/>
<text text-anchor="middle" x="208" y="-152.5" font-family="Helvetica,sans-Serif" font-size="10.00" fill="#000000">string</text>
</a>
</g>
</g>
<!-- Node8&#45;&gt;Node7 -->
<g id="edge5" class="edge">
<title>Node8&#45;&gt;Node7</title>
<path fill="none" stroke="#9a32cd" stroke-dasharray="5,2" d="M208,-135.2866C208,-119.7395 208,-98.7276 208,-86.6426"/>
<polygon fill="#9a32cd" stroke="#9a32cd" points="204.5001,-135.4356 208,-145.4357 211.5001,-135.4357 204.5001,-135.4356"/>
<text text-anchor="middle" x="258.5" y="-119" font-family="Helvetica,sans-Serif" font-size="10.00" fill="#000000"> TemporaryFileName</text>
<text text-anchor="middle" x="258.5" y="-108" font-family="Helvetica,sans-Serif" font-size="10.00" fill="#000000">FileName</text>
</g>
<!-- Node9 -->
<g id="node7" class="node">
<title>Node9</title>
<g id="a_node7"><a xlink:title="STL class. ">
<polygon fill="#ffffff" stroke="#bfbfbf" points="148.5,-202.5 148.5,-221.5 267.5,-221.5 267.5,-202.5 148.5,-202.5"/>
<text text-anchor="middle" x="208" y="-209.5" font-family="Helvetica,sans-Serif" font-size="10.00" fill="#000000">basic_string&lt; char &gt;</text>
</a>
</g>
</g>
<!-- Node9&#45;&gt;Node8 -->
<g id="edge6" class="edge">
<title>Node9&#45;&gt;Node8</title>
<path fill="none" stroke="#191970" d="M208,-192.2342C208,-182.8491 208,-172.0651 208,-164.5265"/>
<polygon fill="#191970" stroke="#191970" points="204.5001,-192.3307 208,-202.3307 211.5001,-192.3308 204.5001,-192.3307"/>
</g>
<!-- Node10 -->
<g id="node8" class="node">
<title>Node10</title>
<polygon fill="#ffffff" stroke="#bfbfbf" points="248.5,-67.5 248.5,-86.5 373.5,-86.5 373.5,-67.5 248.5,-67.5"/>
<text text-anchor="middle" x="311" y="-74.5" font-family="Helvetica,sans-Serif" font-size="10.00" fill="#000000">vector&lt; const char *&gt;</text>
</g>
<!-- Node10&#45;&gt;Node3 -->
<g id="edge7" class="edge">
<title>Node10&#45;&gt;Node3</title>
<path fill="none" stroke="#9a32cd" stroke-dasharray="5,2" d="M287.728,-61.8619C267.795,-48.8957 239.6978,-30.619 222.73,-19.5817"/>
<polygon fill="#9a32cd" stroke="#9a32cd" points="285.9515,-64.8817 296.2426,-67.4005 289.7685,-59.0138 285.9515,-64.8817"/>
<text text-anchor="middle" x="298" y="-41" font-family="Helvetica,sans-Serif" font-size="10.00" fill="#000000"> StaticBinList</text>
</g>
<!-- Node11 -->
<g id="node9" class="node">
<title>Node11</title>
<g id="a_node9"><a xlink:href="classpkgTagFile.xhtml" target="_top" xlink:title="pkgTagFile">
<polygon fill="#ffffff" stroke="#000000" points="392,-67.5 392,-86.5 460,-86.5 460,-67.5 392,-67.5"/>
<text text-anchor="middle" x="426" y="-74.5" font-family="Helvetica,sans-Serif" font-size="10.00" fill="#000000">pkgTagFile</text>
</a>
</g>
</g>
<!-- Node11&#45;&gt;Node3 -->
<g id="edge8" class="edge">
<title>Node11&#45;&gt;Node3</title>
<path fill="none" stroke="#9a32cd" stroke-dasharray="5,2" d="M397.0083,-63.1003C379.1488,-54.9451 355.6079,-44.9171 334,-38 310.4173,-30.4508 283.7176,-24.2019 260.9855,-19.5373"/>
<polygon fill="#9a32cd" stroke="#9a32cd" points="395.7529,-66.376 406.2975,-67.4066 398.6971,-60.0253 395.7529,-66.376"/>
<text text-anchor="middle" x="374.5" y="-41" font-family="Helvetica,sans-Serif" font-size="10.00" fill="#000000"> Tags</text>
</g>
</g>
</svg>
