<?xml version="1.0" encoding="UTF-8" standalone="no"?>
<!DOCTYPE svg PUBLIC "-//W3C//DTD SVG 1.1//EN"
 "http://www.w3.org/Graphics/SVG/1.1/DTD/svg11.dtd">
<!-- Generated by graphviz version 2.40.1 (20161225.0304)
 -->
<!-- Title: Container_const_iterator&lt; Interface, Container, Master &gt; Pages: 1 -->
<svg width="567pt" height="122pt"
 viewBox="0.00 0.00 567.00 121.50" xmlns="http://www.w3.org/2000/svg" xmlns:xlink="http://www.w3.org/1999/xlink">
<g id="graph0" class="graph" transform="scale(1 1) rotate(0) translate(4 117.5)">
<title>Container_const_iterator&lt; Interface, Container, Master &gt;</title>
<polygon fill="#ffffff" stroke="transparent" points="-4,4 -4,-117.5 563,-117.5 563,4 -4,4"/>
<!-- Node0 -->
<g id="node1" class="node">
<title>Node0</title>
<polygon fill="#bfbfbf" stroke="#000000" points="422,-33.5 422,-74.5 559,-74.5 559,-33.5 422,-33.5"/>
<text text-anchor="start" x="430" y="-62.5" font-family="Helvetica,sans-Serif" font-size="10.00" fill="#000000">Container_const_iterator</text>
<text text-anchor="start" x="430" y="-51.5" font-family="Helvetica,sans-Serif" font-size="10.00" fill="#000000">&lt; Interface, Container,</text>
<text text-anchor="middle" x="490.5" y="-40.5" font-family="Helvetica,sans-Serif" font-size="10.00" fill="#000000"> Master &gt;</text>
</g>
<!-- Node1 -->
<g id="node2" class="node">
<title>Node1</title>
<g id="a_node2"><a xlink:href="classAPT_1_1Container__iterator__base.xhtml" target="_top" xlink:title="Container_iterator\l_base\&lt; Interface, Master,\l Container_const_iterator\l\&lt; Interface, Container, Master\l \&gt;, Container::const_iterator,\l Container::value_type \&gt;">
<polygon fill="#ffffff" stroke="#000000" points="222,-17 222,-91 386,-91 386,-17 222,-17"/>
<text text-anchor="start" x="230" y="-79" font-family="Helvetica,sans-Serif" font-size="10.00" fill="#000000">Container_iterator</text>
<text text-anchor="start" x="230" y="-68" font-family="Helvetica,sans-Serif" font-size="10.00" fill="#000000">_base&lt; Interface, Master,</text>
<text text-anchor="start" x="230" y="-57" font-family="Helvetica,sans-Serif" font-size="10.00" fill="#000000"> Container_const_iterator</text>
<text text-anchor="start" x="230" y="-46" font-family="Helvetica,sans-Serif" font-size="10.00" fill="#000000">&lt; Interface, Container, Master</text>
<text text-anchor="start" x="230" y="-35" font-family="Helvetica,sans-Serif" font-size="10.00" fill="#000000"> &gt;, Container::const_iterator,</text>
<text text-anchor="middle" x="304" y="-24" font-family="Helvetica,sans-Serif" font-size="10.00" fill="#000000"> Container::value_type &gt;</text>
</a>
</g>
</g>
<!-- Node1&#45;&gt;Node0 -->
<g id="edge1" class="edge">
<title>Node1&#45;&gt;Node0</title>
<path fill="none" stroke="#191970" d="M396.1737,-54C404.7978,-54 413.4343,-54 421.7878,-54"/>
<polygon fill="#191970" stroke="#191970" points="396.073,-50.5001 386.073,-54 396.073,-57.5001 396.073,-50.5001"/>
</g>
<!-- Node2 -->
<g id="node3" class="node">
<title>Node2</title>
<polygon fill="#ffffff" stroke="#bfbfbf" points="12,-61 12,-113 174,-113 174,-61 12,-61"/>
<text text-anchor="start" x="20" y="-101" font-family="Helvetica,sans-Serif" font-size="10.00" fill="#000000">iterator&lt; std::iterator</text>
<text text-anchor="start" x="20" y="-90" font-family="Helvetica,sans-Serif" font-size="10.00" fill="#000000">_traits&lt; Container::const</text>
<text text-anchor="start" x="20" y="-79" font-family="Helvetica,sans-Serif" font-size="10.00" fill="#000000">_iterator &gt;::iterator_category,</text>
<text text-anchor="middle" x="93" y="-68" font-family="Helvetica,sans-Serif" font-size="10.00" fill="#000000"> Container::value_type &gt;</text>
</g>
<!-- Node2&#45;&gt;Node1 -->
<g id="edge2" class="edge">
<title>Node2&#45;&gt;Node1</title>
<path fill="none" stroke="#191970" d="M184.2061,-72.7355C196.6773,-70.7851 209.42,-68.7921 221.7197,-66.8685"/>
<polygon fill="#191970" stroke="#191970" points="183.6153,-69.2853 174.2763,-74.2885 184.697,-76.2012 183.6153,-69.2853"/>
</g>
<!-- Node3 -->
<g id="node4" class="node">
<title>Node3</title>
<polygon fill="#ffffff" stroke="#bfbfbf" points="0,-.5 0,-41.5 186,-41.5 186,-.5 0,-.5"/>
<text text-anchor="start" x="8" y="-29.5" font-family="Helvetica,sans-Serif" font-size="10.00" fill="#000000">template iterator_base</text>
<text text-anchor="start" x="8" y="-18.5" font-family="Helvetica,sans-Serif" font-size="10.00" fill="#000000">&lt; Container_const_iterator</text>
<text text-anchor="middle" x="93" y="-7.5" font-family="Helvetica,sans-Serif" font-size="10.00" fill="#000000">&lt; Interface, Container, Master &gt; &gt;</text>
</g>
<!-- Node3&#45;&gt;Node1 -->
<g id="edge3" class="edge">
<title>Node3&#45;&gt;Node1</title>
<path fill="none" stroke="#191970" d="M196.2587,-37.1495C204.8793,-38.4977 213.5198,-39.8491 221.9499,-41.1675"/>
<polygon fill="#191970" stroke="#191970" points="196.5826,-33.6577 186.1619,-35.5703 195.5009,-40.5736 196.5826,-33.6577"/>
</g>
</g>
</svg>
