<?xml version="1.0" encoding="UTF-8" standalone="no"?>
<!DOCTYPE svg PUBLIC "-//W3C//DTD SVG 1.1//EN"
 "http://www.w3.org/Graphics/SVG/1.1/DTD/svg11.dtd">
<!-- Generated by graphviz version 2.40.1 (20161225.0304)
 -->
<!-- Title: DynamicMMap Pages: 1 -->
<svg width="187pt" height="297pt"
 viewBox="0.00 0.00 186.50 297.00" xmlns="http://www.w3.org/2000/svg" xmlns:xlink="http://www.w3.org/1999/xlink">
<g id="graph0" class="graph" transform="scale(1 1) rotate(0) translate(4 293)">
<title>DynamicMMap</title>
<polygon fill="#ffffff" stroke="transparent" points="-4,4 -4,-293 182.5,-293 182.5,4 -4,4"/>
<!-- Node2 -->
<g id="node1" class="node">
<title>Node2</title>
<polygon fill="#bfbfbf" stroke="#000000" points="55,-.5 55,-19.5 144,-19.5 144,-.5 55,-.5"/>
<text text-anchor="middle" x="99.5" y="-7.5" font-family="Helvetica,sans-Serif" font-size="10.00" fill="#000000">DynamicMMap</text>
</g>
<!-- Node3 -->
<g id="node2" class="node">
<title>Node3</title>
<g id="a_node2"><a xlink:href="classMMap.xhtml" target="_top" xlink:title="MMap">
<polygon fill="#ffffff" stroke="#000000" points="77,-67.5 77,-86.5 122,-86.5 122,-67.5 77,-67.5"/>
<text text-anchor="middle" x="99.5" y="-74.5" font-family="Helvetica,sans-Serif" font-size="10.00" fill="#000000">MMap</text>
</a>
</g>
</g>
<!-- Node3&#45;&gt;Node2 -->
<g id="edge1" class="edge">
<title>Node3&#45;&gt;Node2</title>
<path fill="none" stroke="#191970" d="M99.5,-57.1079C99.5,-44.714 99.5,-29.3263 99.5,-19.5817"/>
<polygon fill="#191970" stroke="#191970" points="96.0001,-57.4005 99.5,-67.4005 103.0001,-57.4006 96.0001,-57.4005"/>
</g>
<!-- Node4 -->
<g id="node3" class="node">
<title>Node4</title>
<g id="a_node3"><a xlink:href="classFileFd.xhtml" target="_top" xlink:title="FileFd">
<polygon fill="#ffffff" stroke="#000000" points="37.5,-134.5 37.5,-153.5 81.5,-153.5 81.5,-134.5 37.5,-134.5"/>
<text text-anchor="middle" x="59.5" y="-141.5" font-family="Helvetica,sans-Serif" font-size="10.00" fill="#000000">FileFd</text>
</a>
</g>
</g>
<!-- Node4&#45;&gt;Node2 -->
<g id="edge6" class="edge">
<title>Node4&#45;&gt;Node2</title>
<path fill="none" stroke="#9a32cd" stroke-dasharray="5,2" d="M53.2183,-124.3928C49.1686,-108.4729 45.7913,-85.6815 52.5,-67 59.5226,-47.4445 76.4785,-29.8132 87.9836,-19.5018"/>
<polygon fill="#9a32cd" stroke="#9a32cd" points="49.9022,-125.527 56.0137,-134.1815 56.6331,-123.6048 49.9022,-125.527"/>
<text text-anchor="middle" x="60" y="-74.5" font-family="Helvetica,sans-Serif" font-size="10.00" fill="#000000"> Fd</text>
</g>
<!-- Node4&#45;&gt;Node3 -->
<g id="edge2" class="edge">
<title>Node4&#45;&gt;Node3</title>
<path fill="none" stroke="#9a32cd" stroke-dasharray="5,2" d="M70.4792,-125.6099C78.0197,-112.9795 87.7244,-96.7241 93.7796,-86.5817"/>
<polygon fill="#9a32cd" stroke="#9a32cd" points="67.352,-124.0202 65.231,-134.4005 73.3624,-127.6085 67.352,-124.0202"/>
<text text-anchor="middle" x="107" y="-108" font-family="Helvetica,sans-Serif" font-size="10.00" fill="#000000"> SyncToFd</text>
</g>
<!-- Node5 -->
<g id="node4" class="node">
<title>Node5</title>
<g id="a_node4"><a xlink:title="STL class. ">
<polygon fill="#ffffff" stroke="#bfbfbf" points="37.5,-212.5 37.5,-231.5 81.5,-231.5 81.5,-212.5 37.5,-212.5"/>
<text text-anchor="middle" x="59.5" y="-219.5" font-family="Helvetica,sans-Serif" font-size="10.00" fill="#000000">string</text>
</a>
</g>
</g>
<!-- Node5&#45;&gt;Node4 -->
<g id="edge3" class="edge">
<title>Node5&#45;&gt;Node4</title>
<path fill="none" stroke="#9a32cd" stroke-dasharray="5,2" d="M59.5,-202.2866C59.5,-186.7395 59.5,-165.7276 59.5,-153.6426"/>
<polygon fill="#9a32cd" stroke="#9a32cd" points="56.0001,-202.4356 59.5,-212.4357 63.0001,-202.4357 56.0001,-202.4356"/>
<text text-anchor="middle" x="110" y="-186" font-family="Helvetica,sans-Serif" font-size="10.00" fill="#000000"> TemporaryFileName</text>
<text text-anchor="middle" x="110" y="-175" font-family="Helvetica,sans-Serif" font-size="10.00" fill="#000000">FileName</text>
</g>
<!-- Node6 -->
<g id="node5" class="node">
<title>Node6</title>
<g id="a_node5"><a xlink:title="STL class. ">
<polygon fill="#ffffff" stroke="#bfbfbf" points="0,-269.5 0,-288.5 119,-288.5 119,-269.5 0,-269.5"/>
<text text-anchor="middle" x="59.5" y="-276.5" font-family="Helvetica,sans-Serif" font-size="10.00" fill="#000000">basic_string&lt; char &gt;</text>
</a>
</g>
</g>
<!-- Node6&#45;&gt;Node5 -->
<g id="edge4" class="edge">
<title>Node6&#45;&gt;Node5</title>
<path fill="none" stroke="#191970" d="M59.5,-259.2342C59.5,-249.8491 59.5,-239.0651 59.5,-231.5265"/>
<polygon fill="#191970" stroke="#191970" points="56.0001,-259.3307 59.5,-269.3307 63.0001,-259.3308 56.0001,-259.3307"/>
</g>
<!-- Node7 -->
<g id="node6" class="node">
<title>Node7</title>
<g id="a_node6"><a xlink:href="structDynamicMMap_1_1Pool.xhtml" target="_top" xlink:title="Pool">
<polygon fill="#ffffff" stroke="#000000" points="140.5,-67.5 140.5,-86.5 178.5,-86.5 178.5,-67.5 140.5,-67.5"/>
<text text-anchor="middle" x="159.5" y="-74.5" font-family="Helvetica,sans-Serif" font-size="10.00" fill="#000000">Pool</text>
</a>
</g>
</g>
<!-- Node7&#45;&gt;Node2 -->
<g id="edge5" class="edge">
<title>Node7&#45;&gt;Node2</title>
<path fill="none" stroke="#9a32cd" stroke-dasharray="5,2" d="M144.0206,-59.7147C132.5815,-46.941 117.4305,-30.0224 108.0806,-19.5817"/>
<polygon fill="#9a32cd" stroke="#9a32cd" points="141.6249,-62.2859 150.9035,-67.4005 146.8396,-57.6161 141.6249,-62.2859"/>
<text text-anchor="middle" x="147.5" y="-41" font-family="Helvetica,sans-Serif" font-size="10.00" fill="#000000"> Pools</text>
</g>
</g>
</svg>
