<?xml version="1.0" encoding="UTF-8" standalone="no"?>
<!DOCTYPE svg PUBLIC "-//W3C//DTD SVG 1.1//EN"
 "http://www.w3.org/Graphics/SVG/1.1/DTD/svg11.dtd">
<!-- Generated by graphviz version 2.40.1 (20161225.0304)
 -->
<!-- Title: GzipFileFdPrivate Pages: 1 -->
<svg width="339pt" height="378pt"
 viewBox="0.00 0.00 338.65 378.00" xmlns="http://www.w3.org/2000/svg" xmlns:xlink="http://www.w3.org/1999/xlink">
<g id="graph0" class="graph" transform="scale(1 1) rotate(0) translate(4 374)">
<title>GzipFileFdPrivate</title>
<polygon fill="#ffffff" stroke="transparent" points="-4,4 -4,-374 334.6503,-374 334.6503,4 -4,4"/>
<!-- Node2 -->
<g id="node1" class="node">
<title>Node2</title>
<polygon fill="#bfbfbf" stroke="#000000" points="150.6503,-.5 150.6503,-19.5 251.6503,-19.5 251.6503,-.5 150.6503,-.5"/>
<text text-anchor="middle" x="201.1503" y="-7.5" font-family="Helvetica,sans-Serif" font-size="10.00" fill="#000000">GzipFileFdPrivate</text>
</g>
<!-- Node3 -->
<g id="node2" class="node">
<title>Node3</title>
<g id="a_node2"><a xlink:href="classFileFdPrivate.xhtml" target="_top" xlink:title="FileFdPrivate">
<polygon fill="#ffffff" stroke="#000000" points="161.6503,-57.5 161.6503,-76.5 240.6503,-76.5 240.6503,-57.5 161.6503,-57.5"/>
<text text-anchor="middle" x="201.1503" y="-64.5" font-family="Helvetica,sans-Serif" font-size="10.00" fill="#000000">FileFdPrivate</text>
</a>
</g>
</g>
<!-- Node3&#45;&gt;Node2 -->
<g id="edge1" class="edge">
<title>Node3&#45;&gt;Node2</title>
<path fill="none" stroke="#191970" d="M201.1503,-47.2342C201.1503,-37.8491 201.1503,-27.0651 201.1503,-19.5265"/>
<polygon fill="#191970" stroke="#191970" points="197.6504,-47.3307 201.1503,-57.3307 204.6504,-47.3308 197.6504,-47.3307"/>
</g>
<!-- Node4 -->
<g id="node3" class="node">
<title>Node4</title>
<g id="a_node3"><a xlink:href="structAPT_1_1Configuration_1_1Compressor.xhtml" target="_top" xlink:title="Representation of supported compressors. ">
<polygon fill="#ffffff" stroke="#000000" points="60.6503,-124.5 60.6503,-143.5 135.6503,-143.5 135.6503,-124.5 60.6503,-124.5"/>
<text text-anchor="middle" x="98.1503" y="-131.5" font-family="Helvetica,sans-Serif" font-size="10.00" fill="#000000">Compressor</text>
</a>
</g>
</g>
<!-- Node4&#45;&gt;Node3 -->
<g id="edge2" class="edge">
<title>Node4&#45;&gt;Node3</title>
<path fill="none" stroke="#9a32cd" stroke-dasharray="5,2" d="M108.0166,-115.7853C112.7076,-108.5069 118.8871,-100.5527 126.1503,-95 136.8606,-86.8119 150.2223,-80.8089 162.6884,-76.5107"/>
<polygon fill="#9a32cd" stroke="#9a32cd" points="104.9914,-114.0248 102.9012,-124.4114 111.0124,-117.5954 104.9914,-114.0248"/>
<text text-anchor="middle" x="156.6503" y="-98" font-family="Helvetica,sans-Serif" font-size="10.00" fill="#000000"> compressor</text>
</g>
<!-- Node5 -->
<g id="node4" class="node">
<title>Node5</title>
<g id="a_node4"><a xlink:title="STL class. ">
<polygon fill="#ffffff" stroke="#bfbfbf" points="101.1503,-293.5 101.1503,-312.5 145.1503,-312.5 145.1503,-293.5 101.1503,-293.5"/>
<text text-anchor="middle" x="123.1503" y="-300.5" font-family="Helvetica,sans-Serif" font-size="10.00" fill="#000000">string</text>
</a>
</g>
</g>
<!-- Node5&#45;&gt;Node4 -->
<g id="edge3" class="edge">
<title>Node5&#45;&gt;Node4</title>
<path fill="none" stroke="#9a32cd" stroke-dasharray="5,2" d="M91.0871,-294.4099C62.8615,-284.9588 23.4838,-266.7248 5.1503,-235 -17.2116,-196.3042 43.0723,-160.1111 76.9346,-143.5127"/>
<polygon fill="#9a32cd" stroke="#9a32cd" points="90.3324,-297.8415 100.9218,-297.5032 92.4327,-291.164 90.3324,-297.8415"/>
<text text-anchor="middle" x="29.6503" y="-227" font-family="Helvetica,sans-Serif" font-size="10.00" fill="#000000"> Name</text>
<text text-anchor="middle" x="29.6503" y="-216" font-family="Helvetica,sans-Serif" font-size="10.00" fill="#000000">Extension</text>
<text text-anchor="middle" x="29.6503" y="-205" font-family="Helvetica,sans-Serif" font-size="10.00" fill="#000000">Binary</text>
</g>
<!-- Node7 -->
<g id="node6" class="node">
<title>Node7</title>
<polygon fill="#ffffff" stroke="#bfbfbf" points="63.6503,-209 63.6503,-228 182.6503,-228 182.6503,-209 63.6503,-209"/>
<text text-anchor="middle" x="123.1503" y="-216" font-family="Helvetica,sans-Serif" font-size="10.00" fill="#000000">vector&lt; std::string &gt;</text>
</g>
<!-- Node5&#45;&gt;Node7 -->
<g id="edge6" class="edge">
<title>Node5&#45;&gt;Node7</title>
<path fill="none" stroke="#9a32cd" stroke-dasharray="5,2" d="M123.1503,-283.1221C123.1503,-265.7864 123.1503,-241.3886 123.1503,-228.0802"/>
<polygon fill="#9a32cd" stroke="#9a32cd" points="119.6504,-283.3067 123.1503,-293.3068 126.6504,-283.3068 119.6504,-283.3067"/>
<text text-anchor="middle" x="147.6503" y="-261.5" font-family="Helvetica,sans-Serif" font-size="10.00" fill="#000000"> elements</text>
</g>
<!-- Node9 -->
<g id="node8" class="node">
<title>Node9</title>
<g id="a_node8"><a xlink:href="classFileFd.xhtml" target="_top" xlink:title="FileFd">
<polygon fill="#ffffff" stroke="#000000" points="189.1503,-163.5 189.1503,-182.5 233.1503,-182.5 233.1503,-163.5 189.1503,-163.5"/>
<text text-anchor="middle" x="211.1503" y="-170.5" font-family="Helvetica,sans-Serif" font-size="10.00" fill="#000000">FileFd</text>
</a>
</g>
</g>
<!-- Node5&#45;&gt;Node9 -->
<g id="edge9" class="edge">
<title>Node5&#45;&gt;Node9</title>
<path fill="none" stroke="#9a32cd" stroke-dasharray="5,2" d="M154.4357,-291.0904C162.3057,-286.938 170.1971,-281.617 176.1503,-275 200.6929,-247.7205 208.171,-202.4222 210.3282,-182.6871"/>
<polygon fill="#9a32cd" stroke="#9a32cd" points="152.8438,-287.9719 145.3243,-295.4357 155.8571,-294.2901 152.8438,-287.9719"/>
<text text-anchor="middle" x="240.6503" y="-267" font-family="Helvetica,sans-Serif" font-size="10.00" fill="#000000"> TemporaryFileName</text>
<text text-anchor="middle" x="240.6503" y="-256" font-family="Helvetica,sans-Serif" font-size="10.00" fill="#000000">FileName</text>
</g>
<!-- Node6 -->
<g id="node5" class="node">
<title>Node6</title>
<g id="a_node5"><a xlink:title="STL class. ">
<polygon fill="#ffffff" stroke="#bfbfbf" points="63.6503,-350.5 63.6503,-369.5 182.6503,-369.5 182.6503,-350.5 63.6503,-350.5"/>
<text text-anchor="middle" x="123.1503" y="-357.5" font-family="Helvetica,sans-Serif" font-size="10.00" fill="#000000">basic_string&lt; char &gt;</text>
</a>
</g>
</g>
<!-- Node6&#45;&gt;Node5 -->
<g id="edge4" class="edge">
<title>Node6&#45;&gt;Node5</title>
<path fill="none" stroke="#191970" d="M123.1503,-340.2342C123.1503,-330.8491 123.1503,-320.0651 123.1503,-312.5265"/>
<polygon fill="#191970" stroke="#191970" points="119.6504,-340.3307 123.1503,-350.3307 126.6504,-340.3308 119.6504,-340.3307"/>
</g>
<!-- Node7&#45;&gt;Node4 -->
<g id="edge5" class="edge">
<title>Node7&#45;&gt;Node4</title>
<path fill="none" stroke="#9a32cd" stroke-dasharray="5,2" d="M104.9126,-201.5404C100.542,-196.377 96.4713,-190.3682 94.1503,-184 89.2599,-170.5818 92.2769,-153.8357 95.077,-143.5323"/>
<polygon fill="#9a32cd" stroke="#9a32cd" points="102.4201,-203.9989 111.8191,-208.8886 107.5208,-199.2048 102.4201,-203.9989"/>
<text text-anchor="middle" x="137.1503" y="-176" font-family="Helvetica,sans-Serif" font-size="10.00" fill="#000000"> UncompressArgs</text>
<text text-anchor="middle" x="137.1503" y="-165" font-family="Helvetica,sans-Serif" font-size="10.00" fill="#000000">CompressArgs</text>
</g>
<!-- Node8 -->
<g id="node7" class="node">
<title>Node8</title>
<g id="a_node7"><a xlink:href="structsimple__buffer.xhtml" target="_top" xlink:title="simple_buffer">
<polygon fill="#ffffff" stroke="#000000" points="247.6503,-124.5 247.6503,-143.5 330.6503,-143.5 330.6503,-124.5 247.6503,-124.5"/>
<text text-anchor="middle" x="289.1503" y="-131.5" font-family="Helvetica,sans-Serif" font-size="10.00" fill="#000000">simple_buffer</text>
</a>
</g>
</g>
<!-- Node8&#45;&gt;Node3 -->
<g id="edge7" class="edge">
<title>Node8&#45;&gt;Node3</title>
<path fill="none" stroke="#9a32cd" stroke-dasharray="5,2" d="M268.3402,-118.1559C251.3753,-105.2395 227.9707,-87.4201 213.7352,-76.5817"/>
<polygon fill="#9a32cd" stroke="#9a32cd" points="266.4654,-121.1275 276.542,-124.4005 270.7058,-115.558 266.4654,-121.1275"/>
<text text-anchor="middle" x="266.1503" y="-98" font-family="Helvetica,sans-Serif" font-size="10.00" fill="#000000"> buffer</text>
</g>
<!-- Node9&#45;&gt;Node3 -->
<g id="edge8" class="edge">
<title>Node9&#45;&gt;Node3</title>
<path fill="none" stroke="#9a32cd" stroke-dasharray="5,2" d="M209.2631,-152.9954C207.1165,-130.2421 203.699,-94.0161 202.0709,-76.7586"/>
<polygon fill="#9a32cd" stroke="#9a32cd" points="205.8036,-153.5907 210.2274,-163.2178 212.7727,-152.9332 205.8036,-153.5907"/>
<text text-anchor="middle" x="222.1503" y="-131.5" font-family="Helvetica,sans-Serif" font-size="10.00" fill="#000000"> filefd</text>
</g>
</g>
</svg>
