<?xml version="1.0" encoding="UTF-8" standalone="no"?>
<!DOCTYPE svg PUBLIC "-//W3C//DTD SVG 1.1//EN"
 "http://www.w3.org/Graphics/SVG/1.1/DTD/svg11.dtd">
<!-- Generated by graphviz version 2.40.1 (20161225.0304)
 -->
<!-- Title: debDscRecordParser Pages: 1 -->
<svg width="468pt" height="287pt"
 viewBox="0.00 0.00 468.00 287.00" xmlns="http://www.w3.org/2000/svg" xmlns:xlink="http://www.w3.org/1999/xlink">
<g id="graph0" class="graph" transform="scale(1 1) rotate(0) translate(4 283)">
<title>debDscRecordParser</title>
<polygon fill="#ffffff" stroke="transparent" points="-4,4 -4,-283 464,-283 464,4 -4,4"/>
<!-- Node3 -->
<g id="node1" class="node">
<title>Node3</title>
<polygon fill="#bfbfbf" stroke="#000000" points="150,-.5 150,-19.5 266,-19.5 266,-.5 150,-.5"/>
<text text-anchor="middle" x="208" y="-7.5" font-family="Helvetica,sans-Serif" font-size="10.00" fill="#000000">debDscRecordParser</text>
</g>
<!-- Node4 -->
<g id="node2" class="node">
<title>Node4</title>
<g id="a_node2"><a xlink:href="classdebSrcRecordParser.xhtml" target="_top" xlink:title="debSrcRecordParser">
<polygon fill="#ffffff" stroke="#000000" points="151.5,-57.5 151.5,-76.5 264.5,-76.5 264.5,-57.5 151.5,-57.5"/>
<text text-anchor="middle" x="208" y="-64.5" font-family="Helvetica,sans-Serif" font-size="10.00" fill="#000000">debSrcRecordParser</text>
</a>
</g>
</g>
<!-- Node4&#45;&gt;Node3 -->
<g id="edge1" class="edge">
<title>Node4&#45;&gt;Node3</title>
<path fill="none" stroke="#191970" d="M208,-47.2342C208,-37.8491 208,-27.0651 208,-19.5265"/>
<polygon fill="#191970" stroke="#191970" points="204.5001,-47.3307 208,-57.3307 211.5001,-47.3308 204.5001,-47.3307"/>
</g>
<!-- Node5 -->
<g id="node3" class="node">
<title>Node5</title>
<g id="a_node3"><a xlink:href="classpkgSrcRecords_1_1Parser.xhtml" target="_top" xlink:title="Parser">
<polygon fill="#ffffff" stroke="#000000" points="15.5,-124.5 15.5,-143.5 62.5,-143.5 62.5,-124.5 15.5,-124.5"/>
<text text-anchor="middle" x="39" y="-131.5" font-family="Helvetica,sans-Serif" font-size="10.00" fill="#000000">Parser</text>
</a>
</g>
</g>
<!-- Node5&#45;&gt;Node4 -->
<g id="edge2" class="edge">
<title>Node5&#45;&gt;Node4</title>
<path fill="none" stroke="#191970" d="M72.4991,-120.7193C105.4114,-107.6712 154.8158,-88.0848 183.9932,-76.5175"/>
<polygon fill="#191970" stroke="#191970" points="70.8613,-117.6035 62.8551,-124.5426 73.4412,-124.1108 70.8613,-117.6035"/>
</g>
<!-- Node6 -->
<g id="node4" class="node">
<title>Node6</title>
<g id="a_node4"><a xlink:href="classpkgIndexFile.xhtml" target="_top" xlink:title="pkgIndexFile">
<polygon fill="#ffffff" stroke="#000000" points="0,-202.5 0,-221.5 78,-221.5 78,-202.5 0,-202.5"/>
<text text-anchor="middle" x="39" y="-209.5" font-family="Helvetica,sans-Serif" font-size="10.00" fill="#000000">pkgIndexFile</text>
</a>
</g>
</g>
<!-- Node6&#45;&gt;Node5 -->
<g id="edge3" class="edge">
<title>Node6&#45;&gt;Node5</title>
<path fill="none" stroke="#9a32cd" stroke-dasharray="5,2" d="M39,-192.2866C39,-176.7395 39,-155.7276 39,-143.6426"/>
<polygon fill="#9a32cd" stroke="#9a32cd" points="35.5001,-192.4356 39,-202.4357 42.5001,-192.4357 35.5001,-192.4356"/>
<text text-anchor="middle" x="56" y="-170.5" font-family="Helvetica,sans-Serif" font-size="10.00" fill="#000000"> iIndex</text>
</g>
<!-- Node7 -->
<g id="node5" class="node">
<title>Node7</title>
<g id="a_node5"><a xlink:href="classpkgTagSection.xhtml" target="_top" xlink:title="pkgTagSection">
<polygon fill="#ffffff" stroke="#000000" points="80.5,-124.5 80.5,-143.5 167.5,-143.5 167.5,-124.5 80.5,-124.5"/>
<text text-anchor="middle" x="124" y="-131.5" font-family="Helvetica,sans-Serif" font-size="10.00" fill="#000000">pkgTagSection</text>
</a>
</g>
</g>
<!-- Node7&#45;&gt;Node4 -->
<g id="edge4" class="edge">
<title>Node7&#45;&gt;Node4</title>
<path fill="none" stroke="#9a32cd" stroke-dasharray="5,2" d="M143.8642,-118.1559C160.058,-105.2395 182.3987,-87.4201 195.9872,-76.5817"/>
<polygon fill="#9a32cd" stroke="#9a32cd" points="141.6705,-115.4287 136.0352,-124.4005 146.0354,-120.9011 141.6705,-115.4287"/>
<text text-anchor="middle" x="184.5" y="-98" font-family="Helvetica,sans-Serif" font-size="10.00" fill="#000000"> Sect</text>
</g>
<!-- Node8 -->
<g id="node6" class="node">
<title>Node8</title>
<g id="a_node6"><a xlink:href="classFileFd.xhtml" target="_top" xlink:title="FileFd">
<polygon fill="#ffffff" stroke="#000000" points="186,-124.5 186,-143.5 230,-143.5 230,-124.5 186,-124.5"/>
<text text-anchor="middle" x="208" y="-131.5" font-family="Helvetica,sans-Serif" font-size="10.00" fill="#000000">FileFd</text>
</a>
</g>
</g>
<!-- Node8&#45;&gt;Node4 -->
<g id="edge5" class="edge">
<title>Node8&#45;&gt;Node4</title>
<path fill="none" stroke="#9a32cd" stroke-dasharray="5,2" d="M208,-114.1079C208,-101.714 208,-86.3263 208,-76.5817"/>
<polygon fill="#9a32cd" stroke="#9a32cd" points="204.5001,-114.4005 208,-124.4005 211.5001,-114.4006 204.5001,-114.4005"/>
<text text-anchor="middle" x="215.5" y="-98" font-family="Helvetica,sans-Serif" font-size="10.00" fill="#000000"> Fd</text>
</g>
<!-- Node9 -->
<g id="node7" class="node">
<title>Node9</title>
<g id="a_node7"><a xlink:title="STL class. ">
<polygon fill="#ffffff" stroke="#bfbfbf" points="186,-202.5 186,-221.5 230,-221.5 230,-202.5 186,-202.5"/>
<text text-anchor="middle" x="208" y="-209.5" font-family="Helvetica,sans-Serif" font-size="10.00" fill="#000000">string</text>
</a>
</g>
</g>
<!-- Node9&#45;&gt;Node8 -->
<g id="edge6" class="edge">
<title>Node9&#45;&gt;Node8</title>
<path fill="none" stroke="#9a32cd" stroke-dasharray="5,2" d="M208,-192.2866C208,-176.7395 208,-155.7276 208,-143.6426"/>
<polygon fill="#9a32cd" stroke="#9a32cd" points="204.5001,-192.4356 208,-202.4357 211.5001,-192.4357 204.5001,-192.4356"/>
<text text-anchor="middle" x="258.5" y="-176" font-family="Helvetica,sans-Serif" font-size="10.00" fill="#000000"> TemporaryFileName</text>
<text text-anchor="middle" x="258.5" y="-165" font-family="Helvetica,sans-Serif" font-size="10.00" fill="#000000">FileName</text>
</g>
<!-- Node10 -->
<g id="node8" class="node">
<title>Node10</title>
<g id="a_node8"><a xlink:title="STL class. ">
<polygon fill="#ffffff" stroke="#bfbfbf" points="148.5,-259.5 148.5,-278.5 267.5,-278.5 267.5,-259.5 148.5,-259.5"/>
<text text-anchor="middle" x="208" y="-266.5" font-family="Helvetica,sans-Serif" font-size="10.00" fill="#000000">basic_string&lt; char &gt;</text>
</a>
</g>
</g>
<!-- Node10&#45;&gt;Node9 -->
<g id="edge7" class="edge">
<title>Node10&#45;&gt;Node9</title>
<path fill="none" stroke="#191970" d="M208,-249.2342C208,-239.8491 208,-229.0651 208,-221.5265"/>
<polygon fill="#191970" stroke="#191970" points="204.5001,-249.3307 208,-259.3307 211.5001,-249.3308 204.5001,-249.3307"/>
</g>
<!-- Node11 -->
<g id="node9" class="node">
<title>Node11</title>
<polygon fill="#ffffff" stroke="#bfbfbf" points="248.5,-124.5 248.5,-143.5 373.5,-143.5 373.5,-124.5 248.5,-124.5"/>
<text text-anchor="middle" x="311" y="-131.5" font-family="Helvetica,sans-Serif" font-size="10.00" fill="#000000">vector&lt; const char *&gt;</text>
</g>
<!-- Node11&#45;&gt;Node4 -->
<g id="edge8" class="edge">
<title>Node11&#45;&gt;Node4</title>
<path fill="none" stroke="#9a32cd" stroke-dasharray="5,2" d="M287.728,-118.8619C267.795,-105.8957 239.6978,-87.619 222.73,-76.5817"/>
<polygon fill="#9a32cd" stroke="#9a32cd" points="285.9515,-121.8817 296.2426,-124.4005 289.7685,-116.0138 285.9515,-121.8817"/>
<text text-anchor="middle" x="298" y="-98" font-family="Helvetica,sans-Serif" font-size="10.00" fill="#000000"> StaticBinList</text>
</g>
<!-- Node12 -->
<g id="node10" class="node">
<title>Node12</title>
<g id="a_node10"><a xlink:href="classpkgTagFile.xhtml" target="_top" xlink:title="pkgTagFile">
<polygon fill="#ffffff" stroke="#000000" points="392,-124.5 392,-143.5 460,-143.5 460,-124.5 392,-124.5"/>
<text text-anchor="middle" x="426" y="-131.5" font-family="Helvetica,sans-Serif" font-size="10.00" fill="#000000">pkgTagFile</text>
</a>
</g>
</g>
<!-- Node12&#45;&gt;Node4 -->
<g id="edge9" class="edge">
<title>Node12&#45;&gt;Node4</title>
<path fill="none" stroke="#9a32cd" stroke-dasharray="5,2" d="M397.0083,-120.1003C379.1488,-111.9451 355.6079,-101.9171 334,-95 310.4173,-87.4508 283.7176,-81.2019 260.9855,-76.5373"/>
<polygon fill="#9a32cd" stroke="#9a32cd" points="395.7529,-123.376 406.2975,-124.4066 398.6971,-117.0253 395.7529,-123.376"/>
<text text-anchor="middle" x="374.5" y="-98" font-family="Helvetica,sans-Serif" font-size="10.00" fill="#000000"> Tags</text>
</g>
</g>
</svg>
