<?xml version="1.0" encoding="UTF-8" standalone="no"?>
<!DOCTYPE svg PUBLIC "-//W3C//DTD SVG 1.1//EN"
 "http://www.w3.org/Graphics/SVG/1.1/DTD/svg11.dtd">
<!-- Generated by graphviz version 2.40.1 (20161225.0304)
 -->
<!-- Title: pkgCacheGenerator Pages: 1 -->
<svg width="979pt" height="773pt"
 viewBox="0.00 0.00 979.00 772.99" xmlns="http://www.w3.org/2000/svg" xmlns:xlink="http://www.w3.org/1999/xlink">
<g id="graph0" class="graph" transform="scale(1 1) rotate(0) translate(4 768.9909)">
<title>pkgCacheGenerator</title>
<polygon fill="#ffffff" stroke="transparent" points="-4,4 -4,-768.9909 975,-768.9909 975,4 -4,4"/>
<!-- Node1 -->
<g id="node1" class="node">
<title>Node1</title>
<polygon fill="#bfbfbf" stroke="#000000" points="858,-587.4909 858,-606.4909 971,-606.4909 971,-587.4909 858,-587.4909"/>
<text text-anchor="middle" x="914.5" y="-594.4909" font-family="Helvetica,sans-Serif" font-size="10.00" fill="#000000">pkgCacheGenerator</text>
</g>
<!-- Node2 -->
<g id="node2" class="node">
<title>Node2</title>
<g id="a_node2"><a xlink:href="classOpProgress.xhtml" target="_top" xlink:title="OpProgress">
<polygon fill="#ffffff" stroke="#000000" points="399,-727.4909 399,-746.4909 471,-746.4909 471,-727.4909 399,-727.4909"/>
<text text-anchor="middle" x="435" y="-734.4909" font-family="Helvetica,sans-Serif" font-size="10.00" fill="#000000">OpProgress</text>
</a>
</g>
</g>
<!-- Node2&#45;&gt;Node1 -->
<g id="edge1" class="edge">
<title>Node2&#45;&gt;Node1</title>
<path fill="none" stroke="#9a32cd" stroke-dasharray="5,2" d="M481.4419,-745.273C560.8243,-756.9412 725.1449,-770.0492 840,-703.9909 879.4397,-681.3074 902.8738,-628.2818 911.1227,-606.5444"/>
<polygon fill="#9a32cd" stroke="#9a32cd" points="481.6898,-741.7702 471.2754,-743.7173 480.6309,-748.6897 481.6898,-741.7702"/>
<text text-anchor="middle" x="655" y="-756.9909" font-family="Helvetica,sans-Serif" font-size="10.00" fill="#000000"> Progress</text>
</g>
<!-- Node3 -->
<g id="node3" class="node">
<title>Node3</title>
<g id="a_node3"><a xlink:title="STL class. ">
<polygon fill="#ffffff" stroke="#bfbfbf" points="156,-528.4909 156,-547.4909 200,-547.4909 200,-528.4909 156,-528.4909"/>
<text text-anchor="middle" x="178" y="-535.4909" font-family="Helvetica,sans-Serif" font-size="10.00" fill="#000000">string</text>
</a>
</g>
</g>
<!-- Node3&#45;&gt;Node1 -->
<g id="edge30" class="edge">
<title>Node3&#45;&gt;Node1</title>
<path fill="none" stroke="#9a32cd" stroke-dasharray="5,2" d="M188.2426,-556.3434C212.3187,-596.7803 276.7382,-689.9909 359,-689.9909 359,-689.9909 359,-689.9909 743.5,-689.9909 812.7777,-689.9909 880.7567,-630.3546 905.0926,-606.5933"/>
<polygon fill="#9a32cd" stroke="#9a32cd" points="191.1618,-554.4001 183.1226,-547.4992 185.1037,-557.9072 191.1618,-554.4001"/>
<text text-anchor="middle" x="550" y="-703.9909" font-family="Helvetica,sans-Serif" font-size="10.00" fill="#000000"> PkgFileName</text>
<text text-anchor="middle" x="550" y="-692.9909" font-family="Helvetica,sans-Serif" font-size="10.00" fill="#000000">RlsFileName</text>
</g>
<!-- Node3&#45;&gt;Node2 -->
<g id="edge2" class="edge">
<title>Node3&#45;&gt;Node2</title>
<path fill="none" stroke="#9a32cd" stroke-dasharray="5,2" d="M180.0278,-557.7723C184.5078,-597.3842 196.5867,-684.3352 218,-703.9909 267.2681,-749.2152 350.9695,-747.9419 398.7381,-742.6693"/>
<polygon fill="#9a32cd" stroke="#9a32cd" points="183.4981,-557.3081 178.9428,-547.7425 176.5387,-558.061 183.4981,-557.3081"/>
<text text-anchor="middle" x="268.5" y="-756.9909" font-family="Helvetica,sans-Serif" font-size="10.00" fill="#000000"> SubOp</text>
<text text-anchor="middle" x="268.5" y="-745.9909" font-family="Helvetica,sans-Serif" font-size="10.00" fill="#000000">Op</text>
</g>
<!-- Node5 -->
<g id="node5" class="node">
<title>Node5</title>
<g id="a_node5"><a xlink:href="classpkgCache.xhtml" target="_top" xlink:title="pkgCache">
<polygon fill="#ffffff" stroke="#000000" points="711,-364.4909 711,-383.4909 776,-383.4909 776,-364.4909 711,-364.4909"/>
<text text-anchor="middle" x="743.5" y="-371.4909" font-family="Helvetica,sans-Serif" font-size="10.00" fill="#000000">pkgCache</text>
</a>
</g>
</g>
<!-- Node3&#45;&gt;Node5 -->
<g id="edge14" class="edge">
<title>Node3&#45;&gt;Node5</title>
<path fill="none" stroke="#9a32cd" stroke-dasharray="5,2" d="M204.613,-523.6941C257.2685,-496.094 379.1687,-435.5895 489,-405.9909 566.8262,-385.0175 661.8241,-377.7052 710.8071,-375.2209"/>
<polygon fill="#9a32cd" stroke="#9a32cd" points="202.8144,-520.6857 195.6054,-528.4498 206.0826,-526.8759 202.8144,-520.6857"/>
<text text-anchor="middle" x="435" y="-437.9909" font-family="Helvetica,sans-Serif" font-size="10.00" fill="#000000"> CacheFile</text>
</g>
<!-- Node21 -->
<g id="node21" class="node">
<title>Node21</title>
<g id="a_node21"><a xlink:href="classFileFd.xhtml" target="_top" xlink:title="FileFd">
<polygon fill="#ffffff" stroke="#000000" points="337,-26.4909 337,-45.4909 381,-45.4909 381,-26.4909 337,-26.4909"/>
<text text-anchor="middle" x="359" y="-33.4909" font-family="Helvetica,sans-Serif" font-size="10.00" fill="#000000">FileFd</text>
</a>
</g>
</g>
<!-- Node3&#45;&gt;Node21 -->
<g id="edge23" class="edge">
<title>Node3&#45;&gt;Node21</title>
<path fill="none" stroke="#9a32cd" stroke-dasharray="5,2" d="M180.8081,-518.3458C186.0404,-483.882 198.5459,-410.5318 218,-350.9909 258.9389,-225.6938 333.6462,-83.1156 353.848,-45.4933"/>
<polygon fill="#9a32cd" stroke="#9a32cd" points="177.3121,-518.0625 179.313,-528.4667 184.2369,-519.0856 177.3121,-518.0625"/>
<text text-anchor="middle" x="268.5" y="-364.9909" font-family="Helvetica,sans-Serif" font-size="10.00" fill="#000000"> TemporaryFileName</text>
<text text-anchor="middle" x="268.5" y="-353.9909" font-family="Helvetica,sans-Serif" font-size="10.00" fill="#000000">FileName</text>
</g>
<!-- Node4 -->
<g id="node4" class="node">
<title>Node4</title>
<g id="a_node4"><a xlink:title="STL class. ">
<polygon fill="#ffffff" stroke="#bfbfbf" points="0,-528.4909 0,-547.4909 119,-547.4909 119,-528.4909 0,-528.4909"/>
<text text-anchor="middle" x="59.5" y="-535.4909" font-family="Helvetica,sans-Serif" font-size="10.00" fill="#000000">basic_string&lt; char &gt;</text>
</a>
</g>
</g>
<!-- Node4&#45;&gt;Node3 -->
<g id="edge3" class="edge">
<title>Node4&#45;&gt;Node3</title>
<path fill="none" stroke="#191970" d="M129.2118,-537.9909C138.8284,-537.9909 148.0652,-537.9909 155.8653,-537.9909"/>
<polygon fill="#191970" stroke="#191970" points="129.0972,-534.491 119.0972,-537.9909 129.0971,-541.491 129.0972,-534.491"/>
</g>
<!-- Node5&#45;&gt;Node1 -->
<g id="edge4" class="edge">
<title>Node5&#45;&gt;Node1</title>
<path fill="none" stroke="#9a32cd" stroke-dasharray="5,2" d="M757.135,-391.7723C791.5344,-436.6323 880.9687,-553.2629 907.1797,-587.4446"/>
<polygon fill="#9a32cd" stroke="#9a32cd" points="759.7102,-389.3787 750.8477,-383.573 754.1553,-393.6383 759.7102,-389.3787"/>
<text text-anchor="middle" x="823" y="-501.9909" font-family="Helvetica,sans-Serif" font-size="10.00" fill="#000000"> Cache</text>
</g>
<!-- Node6 -->
<g id="node6" class="node">
<title>Node6</title>
<g id="a_node6"><a xlink:href="structpkgCache_1_1DependencyData.xhtml" target="_top" xlink:title="information for a single dependency record ">
<polygon fill="#ffffff" stroke="#000000" points="499.5,-301.4909 499.5,-320.4909 600.5,-320.4909 600.5,-301.4909 499.5,-301.4909"/>
<text text-anchor="middle" x="550" y="-308.4909" font-family="Helvetica,sans-Serif" font-size="10.00" fill="#000000">DependencyData</text>
</a>
</g>
</g>
<!-- Node6&#45;&gt;Node5 -->
<g id="edge5" class="edge">
<title>Node6&#45;&gt;Node5</title>
<path fill="none" stroke="#9a32cd" stroke-dasharray="5,2" d="M610.7452,-321.4609C633.1979,-326.2222 658.6175,-332.6819 681,-340.9909 697.7948,-347.2256 715.7615,-357.0824 728.1009,-364.4018"/>
<polygon fill="#9a32cd" stroke="#9a32cd" points="611.1589,-317.973 600.6595,-319.3923 609.7523,-324.8302 611.1589,-317.973"/>
<text text-anchor="middle" x="655" y="-343.9909" font-family="Helvetica,sans-Serif" font-size="10.00" fill="#000000"> DepDataP</text>
</g>
<!-- Node7 -->
<g id="node7" class="node">
<title>Node7</title>
<g id="a_node7"><a xlink:href="structpkgCache_1_1Dependency.xhtml" target="_top" xlink:title="Dependency">
<polygon fill="#ffffff" stroke="#000000" points="511.5,-263.4909 511.5,-282.4909 588.5,-282.4909 588.5,-263.4909 511.5,-263.4909"/>
<text text-anchor="middle" x="550" y="-270.4909" font-family="Helvetica,sans-Serif" font-size="10.00" fill="#000000">Dependency</text>
</a>
</g>
</g>
<!-- Node7&#45;&gt;Node5 -->
<g id="edge6" class="edge">
<title>Node7&#45;&gt;Node5</title>
<path fill="none" stroke="#9a32cd" stroke-dasharray="5,2" d="M598.6374,-281.49C624.373,-287.4236 655.7754,-297.0289 681,-311.9909 704.3989,-325.87 725.4749,-350.423 736.1459,-364.0965"/>
<polygon fill="#9a32cd" stroke="#9a32cd" points="599.2333,-278.0377 588.716,-279.3173 597.7357,-284.8756 599.2333,-278.0377"/>
<text text-anchor="middle" x="655" y="-314.9909" font-family="Helvetica,sans-Serif" font-size="10.00" fill="#000000"> DepP</text>
</g>
<!-- Node8 -->
<g id="node8" class="node">
<title>Node8</title>
<g id="a_node8"><a xlink:href="structpkgCache_1_1Description.xhtml" target="_top" xlink:title="datamember of a linked list of available description for a version ">
<polygon fill="#ffffff" stroke="#000000" points="514,-225.4909 514,-244.4909 586,-244.4909 586,-225.4909 514,-225.4909"/>
<text text-anchor="middle" x="550" y="-232.4909" font-family="Helvetica,sans-Serif" font-size="10.00" fill="#000000">Description</text>
</a>
</g>
</g>
<!-- Node8&#45;&gt;Node5 -->
<g id="edge7" class="edge">
<title>Node8&#45;&gt;Node5</title>
<path fill="none" stroke="#9a32cd" stroke-dasharray="5,2" d="M596.1668,-240.9018C623.0796,-246.2259 656.446,-256.2468 681,-274.9909 712.6667,-299.1647 732.4801,-344.3544 740.0281,-364.2091"/>
<polygon fill="#9a32cd" stroke="#9a32cd" points="596.6659,-237.4351 586.2,-239.0828 595.4091,-244.3214 596.6659,-237.4351"/>
<text text-anchor="middle" x="655" y="-277.9909" font-family="Helvetica,sans-Serif" font-size="10.00" fill="#000000"> DescP</text>
</g>
<!-- Node9 -->
<g id="node9" class="node">
<title>Node9</title>
<g id="a_node9"><a xlink:href="structpkgCache_1_1Header.xhtml" target="_top" xlink:title="Header">
<polygon fill="#ffffff" stroke="#000000" points="524,-339.4909 524,-358.4909 576,-358.4909 576,-339.4909 524,-339.4909"/>
<text text-anchor="middle" x="550" y="-346.4909" font-family="Helvetica,sans-Serif" font-size="10.00" fill="#000000">Header</text>
</a>
</g>
</g>
<!-- Node9&#45;&gt;Node5 -->
<g id="edge8" class="edge">
<title>Node9&#45;&gt;Node5</title>
<path fill="none" stroke="#9a32cd" stroke-dasharray="5,2" d="M586.4602,-351.7162C612.8025,-353.9023 649.1945,-357.3692 681,-361.9909 690.7313,-363.405 701.2504,-365.2862 710.8333,-367.1389"/>
<polygon fill="#9a32cd" stroke="#9a32cd" points="586.432,-348.2026 576.1826,-350.8858 585.8682,-355.1798 586.432,-348.2026"/>
<text text-anchor="middle" x="655" y="-364.9909" font-family="Helvetica,sans-Serif" font-size="10.00" fill="#000000"> HeaderP</text>
</g>
<!-- Node10 -->
<g id="node10" class="node">
<title>Node10</title>
<g id="a_node10"><a xlink:href="structDynamicMMap_1_1Pool.xhtml" target="_top" xlink:title="Pool">
<polygon fill="#ffffff" stroke="#000000" points="340,-206.4909 340,-225.4909 378,-225.4909 378,-206.4909 340,-206.4909"/>
<text text-anchor="middle" x="359" y="-213.4909" font-family="Helvetica,sans-Serif" font-size="10.00" fill="#000000">Pool</text>
</a>
</g>
</g>
<!-- Node10&#45;&gt;Node9 -->
<g id="edge9" class="edge">
<title>Node10&#45;&gt;Node9</title>
<path fill="none" stroke="#9a32cd" stroke-dasharray="5,2" d="M374.2258,-233.3106C396.902,-258.1016 441.9498,-303.6152 489,-329.9909 499.7398,-336.0115 512.6344,-340.3832 523.7961,-343.404"/>
<polygon fill="#9a32cd" stroke="#9a32cd" points="376.7152,-230.8446 367.4227,-225.7552 371.5132,-235.5286 376.7152,-230.8446"/>
<text text-anchor="middle" x="435" y="-320.9909" font-family="Helvetica,sans-Serif" font-size="10.00" fill="#000000"> Pools</text>
</g>
<!-- Node22 -->
<g id="node22" class="node">
<title>Node22</title>
<g id="a_node22"><a xlink:href="classDynamicMMap.xhtml" target="_top" xlink:title="DynamicMMap">
<polygon fill="#ffffff" stroke="#000000" points="699,-43.4909 699,-62.4909 788,-62.4909 788,-43.4909 699,-43.4909"/>
<text text-anchor="middle" x="743.5" y="-50.4909" font-family="Helvetica,sans-Serif" font-size="10.00" fill="#000000">DynamicMMap</text>
</a>
</g>
</g>
<!-- Node10&#45;&gt;Node22 -->
<g id="edge28" class="edge">
<title>Node10&#45;&gt;Node22</title>
<path fill="none" stroke="#9a32cd" stroke-dasharray="5,2" d="M371.3796,-198.1941C392.0843,-170.0167 436.6608,-115.7918 489,-90.9909 566.6654,-54.1893 596.4051,-83.1561 681,-67.9909 689.4575,-66.4748 698.4816,-64.5136 706.9663,-62.5124"/>
<polygon fill="#9a32cd" stroke="#9a32cd" points="368.5075,-196.1931 365.5165,-206.357 374.193,-200.2768 368.5075,-196.1931"/>
<text text-anchor="middle" x="550" y="-93.9909" font-family="Helvetica,sans-Serif" font-size="10.00" fill="#000000"> Pools</text>
</g>
<!-- Node11 -->
<g id="node11" class="node">
<title>Node11</title>
<g id="a_node11"><a xlink:href="structpkgCache_1_1PackageFile.xhtml" target="_top" xlink:title="stores information about the files used to generate the cache ">
<polygon fill="#ffffff" stroke="#000000" points="513,-634.4909 513,-653.4909 587,-653.4909 587,-634.4909 513,-634.4909"/>
<text text-anchor="middle" x="550" y="-641.4909" font-family="Helvetica,sans-Serif" font-size="10.00" fill="#000000">PackageFile</text>
</a>
</g>
</g>
<!-- Node11&#45;&gt;Node1 -->
<g id="edge24" class="edge">
<title>Node11&#45;&gt;Node1</title>
<path fill="none" stroke="#9a32cd" stroke-dasharray="5,2" d="M597.3019,-639.3269C622.2262,-636.7705 653.2936,-633.4283 681,-629.9909 741.538,-622.4804 810.7066,-612.5335 857.9513,-605.5306"/>
<polygon fill="#9a32cd" stroke="#9a32cd" points="596.6183,-635.8783 587.0238,-640.3724 597.3267,-642.8424 596.6183,-635.8783"/>
<text text-anchor="middle" x="743.5" y="-629.9909" font-family="Helvetica,sans-Serif" font-size="10.00" fill="#000000"> CurrentFile</text>
</g>
<!-- Node11&#45;&gt;Node5 -->
<g id="edge10" class="edge">
<title>Node11&#45;&gt;Node5</title>
<path fill="none" stroke="#9a32cd" stroke-dasharray="5,2" d="M596.1658,-631.0762C601.247,-629.2245 606.2837,-627.192 611,-624.9909 644.515,-609.3499 658.7051,-609.5009 681,-579.9909 687.2378,-571.7345 729.4707,-423.5477 740.7405,-383.7567"/>
<polygon fill="#9a32cd" stroke="#9a32cd" points="594.7418,-627.8641 586.4121,-634.4114 597.0067,-634.4876 594.7418,-627.8641"/>
<text text-anchor="middle" x="655" y="-619.9909" font-family="Helvetica,sans-Serif" font-size="10.00" fill="#000000"> PkgFileP</text>
</g>
<!-- Node12 -->
<g id="node12" class="node">
<title>Node12</title>
<g id="a_node12"><a xlink:href="structpkgCache_1_1ReleaseFile.xhtml" target="_top" xlink:title="stores information about the release files used to generate the cache ">
<polygon fill="#ffffff" stroke="#000000" points="514.5,-529.4909 514.5,-548.4909 585.5,-548.4909 585.5,-529.4909 514.5,-529.4909"/>
<text text-anchor="middle" x="550" y="-536.4909" font-family="Helvetica,sans-Serif" font-size="10.00" fill="#000000">ReleaseFile</text>
</a>
</g>
</g>
<!-- Node12&#45;&gt;Node1 -->
<g id="edge25" class="edge">
<title>Node12&#45;&gt;Node1</title>
<path fill="none" stroke="#9a32cd" stroke-dasharray="5,2" d="M595.7956,-546.278C662.3831,-556.8736 785.8337,-576.5173 857.9874,-587.9985"/>
<polygon fill="#9a32cd" stroke="#9a32cd" points="596.0393,-542.7728 585.6135,-544.6578 594.9392,-549.6859 596.0393,-542.7728"/>
<text text-anchor="middle" x="743.5" y="-578.9909" font-family="Helvetica,sans-Serif" font-size="10.00" fill="#000000"> CurrentRlsFile</text>
</g>
<!-- Node12&#45;&gt;Node5 -->
<g id="edge11" class="edge">
<title>Node12&#45;&gt;Node5</title>
<path fill="none" stroke="#9a32cd" stroke-dasharray="5,2" d="M595.8376,-530.5742C628.1698,-523.8742 667.9519,-513.846 681,-502.9909 720.0275,-470.5228 736.543,-407.8845 741.6422,-383.7773"/>
<polygon fill="#9a32cd" stroke="#9a32cd" points="594.7561,-527.2218 585.6453,-532.6294 596.1398,-534.0837 594.7561,-527.2218"/>
<text text-anchor="middle" x="655" y="-525.9909" font-family="Helvetica,sans-Serif" font-size="10.00" fill="#000000"> RlsFileP</text>
</g>
<!-- Node13 -->
<g id="node13" class="node">
<title>Node13</title>
<g id="a_node13"><a xlink:href="structpkgCache_1_1DescFile.xhtml" target="_top" xlink:title="associates a description with a Translation file ">
<polygon fill="#ffffff" stroke="#000000" points="521.5,-187.4909 521.5,-206.4909 578.5,-206.4909 578.5,-187.4909 521.5,-187.4909"/>
<text text-anchor="middle" x="550" y="-194.4909" font-family="Helvetica,sans-Serif" font-size="10.00" fill="#000000">DescFile</text>
</a>
</g>
</g>
<!-- Node13&#45;&gt;Node5 -->
<g id="edge12" class="edge">
<title>Node13&#45;&gt;Node5</title>
<path fill="none" stroke="#9a32cd" stroke-dasharray="5,2" d="M588.5958,-199.9673C617.1092,-204.0153 655.2822,-213.5507 681,-235.9909 721.8239,-271.6121 737.417,-339.2635 741.9507,-364.331"/>
<polygon fill="#9a32cd" stroke="#9a32cd" points="588.9265,-196.4814 578.5689,-198.7105 588.0559,-203.4271 588.9265,-196.4814"/>
<text text-anchor="middle" x="655" y="-238.9909" font-family="Helvetica,sans-Serif" font-size="10.00" fill="#000000"> DescFileP</text>
</g>
<!-- Node14 -->
<g id="node14" class="node">
<title>Node14</title>
<g id="a_node14"><a xlink:href="structpkgCache_1_1Provides.xhtml" target="_top" xlink:title="handles virtual packages ">
<polygon fill="#ffffff" stroke="#000000" points="520.5,-149.4909 520.5,-168.4909 579.5,-168.4909 579.5,-149.4909 520.5,-149.4909"/>
<text text-anchor="middle" x="550" y="-156.4909" font-family="Helvetica,sans-Serif" font-size="10.00" fill="#000000">Provides</text>
</a>
</g>
</g>
<!-- Node14&#45;&gt;Node5 -->
<g id="edge13" class="edge">
<title>Node14&#45;&gt;Node5</title>
<path fill="none" stroke="#9a32cd" stroke-dasharray="5,2" d="M589.6591,-160.0363C618.3854,-162.8444 656.3517,-171.0821 681,-193.9909 732.3689,-241.7346 741.52,-333.8452 743.1482,-364.0978"/>
<polygon fill="#9a32cd" stroke="#9a32cd" points="589.7818,-156.5351 579.5356,-159.2303 589.2262,-163.513 589.7818,-156.5351"/>
<text text-anchor="middle" x="655" y="-196.9909" font-family="Helvetica,sans-Serif" font-size="10.00" fill="#000000"> ProvideP</text>
</g>
<!-- Node15 -->
<g id="node15" class="node">
<title>Node15</title>
<g id="a_node15"><a xlink:href="structpkgCache_1_1Group.xhtml" target="_top" xlink:title="groups architecture depending packages together ">
<polygon fill="#ffffff" stroke="#000000" points="527,-111.4909 527,-130.4909 573,-130.4909 573,-111.4909 527,-111.4909"/>
<text text-anchor="middle" x="550" y="-118.4909" font-family="Helvetica,sans-Serif" font-size="10.00" fill="#000000">Group</text>
</a>
</g>
</g>
<!-- Node15&#45;&gt;Node5 -->
<g id="edge15" class="edge">
<title>Node15&#45;&gt;Node5</title>
<path fill="none" stroke="#9a32cd" stroke-dasharray="5,2" d="M583.4141,-120.2601C612.8731,-121.4579 655.0377,-127.9475 681,-152.9909 712.7109,-183.5795 736.2494,-326.0563 742.0929,-364.443"/>
<polygon fill="#9a32cd" stroke="#9a32cd" points="583.2643,-116.756 573.1893,-120.0336 583.1093,-123.7543 583.2643,-116.756"/>
<text text-anchor="middle" x="655" y="-155.9909" font-family="Helvetica,sans-Serif" font-size="10.00" fill="#000000"> GrpP</text>
</g>
<!-- Node16 -->
<g id="node16" class="node">
<title>Node16</title>
<g id="a_node16"><a xlink:href="classpkgVersioningSystem.xhtml" target="_top" xlink:title="pkgVersioningSystem">
<polygon fill="#ffffff" stroke="#000000" points="489,-567.4909 489,-586.4909 611,-586.4909 611,-567.4909 489,-567.4909"/>
<text text-anchor="middle" x="550" y="-574.4909" font-family="Helvetica,sans-Serif" font-size="10.00" fill="#000000">pkgVersioningSystem</text>
</a>
</g>
</g>
<!-- Node16&#45;&gt;Node5 -->
<g id="edge16" class="edge">
<title>Node16&#45;&gt;Node5</title>
<path fill="none" stroke="#9a32cd" stroke-dasharray="5,2" d="M620.9848,-568.2258C642.3983,-562.5547 664.558,-553.2476 681,-537.9909 727.9043,-494.468 739.9133,-411.9922 742.7146,-383.7577"/>
<polygon fill="#9a32cd" stroke="#9a32cd" points="620.1206,-564.8339 611.2219,-570.584 621.7641,-571.6382 620.1206,-564.8339"/>
<text text-anchor="middle" x="655" y="-567.9909" font-family="Helvetica,sans-Serif" font-size="10.00" fill="#000000"> VS</text>
</g>
<!-- Node16&#45;&gt;Node16 -->
<g id="edge17" class="edge">
<title>Node16&#45;&gt;Node16</title>
<path fill="none" stroke="#9a32cd" stroke-dasharray="5,2" d="M530.7417,-596.391C532.0278,-601.3055 538.4473,-604.9909 550,-604.9909 568.4844,-604.9909 573.8275,-595.5562 566.0294,-586.748"/>
<polygon fill="#9a32cd" stroke="#9a32cd" points="534.1142,-597.3419 533.9706,-586.748 527.4765,-595.1192 534.1142,-597.3419"/>
<text text-anchor="middle" x="550" y="-607.9909" font-family="Helvetica,sans-Serif" font-size="10.00" fill="#000000"> GlobalList</text>
</g>
<!-- Node17 -->
<g id="node17" class="node">
<title>Node17</title>
<g id="a_node17"><a xlink:href="structpkgCache_1_1Version.xhtml" target="_top" xlink:title="information for a single version of a package ">
<polygon fill="#ffffff" stroke="#000000" points="523.5,-491.4909 523.5,-510.4909 576.5,-510.4909 576.5,-491.4909 523.5,-491.4909"/>
<text text-anchor="middle" x="550" y="-498.4909" font-family="Helvetica,sans-Serif" font-size="10.00" fill="#000000">Version</text>
</a>
</g>
</g>
<!-- Node17&#45;&gt;Node5 -->
<g id="edge18" class="edge">
<title>Node17&#45;&gt;Node5</title>
<path fill="none" stroke="#9a32cd" stroke-dasharray="5,2" d="M586.8051,-497.3755C614.791,-493.1136 653.1054,-483.8858 681,-463.9909 711.0459,-442.5618 731.446,-401.926 739.5649,-383.5"/>
<polygon fill="#9a32cd" stroke="#9a32cd" points="586.0569,-493.9455 576.6282,-498.7777 587.0124,-500.8799 586.0569,-493.9455"/>
<text text-anchor="middle" x="655" y="-490.9909" font-family="Helvetica,sans-Serif" font-size="10.00" fill="#000000"> VerP</text>
</g>
<!-- Node18 -->
<g id="node18" class="node">
<title>Node18</title>
<g id="a_node18"><a xlink:href="structpkgCache_1_1VerFile.xhtml" target="_top" xlink:title="associates a version with a PackageFile ">
<polygon fill="#ffffff" stroke="#000000" points="525.5,-453.4909 525.5,-472.4909 574.5,-472.4909 574.5,-453.4909 525.5,-453.4909"/>
<text text-anchor="middle" x="550" y="-460.4909" font-family="Helvetica,sans-Serif" font-size="10.00" fill="#000000">VerFile</text>
</a>
</g>
</g>
<!-- Node18&#45;&gt;Node5 -->
<g id="edge19" class="edge">
<title>Node18&#45;&gt;Node5</title>
<path fill="none" stroke="#9a32cd" stroke-dasharray="5,2" d="M584.8162,-458.4879C612.1868,-453.9039 650.632,-445.103 681,-428.9909 703.2164,-417.2038 724.1058,-396.0311 735.2087,-383.6768"/>
<polygon fill="#9a32cd" stroke="#9a32cd" points="584.2437,-455.0348 574.9083,-460.0447 585.3304,-461.9499 584.2437,-455.0348"/>
<text text-anchor="middle" x="655" y="-451.9909" font-family="Helvetica,sans-Serif" font-size="10.00" fill="#000000"> VerFileP</text>
</g>
<!-- Node19 -->
<g id="node19" class="node">
<title>Node19</title>
<g id="a_node19"><a xlink:href="structpkgCache_1_1Package.xhtml" target="_top" xlink:title="contains information for a single unique package ">
<polygon fill="#ffffff" stroke="#000000" points="521.5,-415.4909 521.5,-434.4909 578.5,-434.4909 578.5,-415.4909 521.5,-415.4909"/>
<text text-anchor="middle" x="550" y="-422.4909" font-family="Helvetica,sans-Serif" font-size="10.00" fill="#000000">Package</text>
</a>
</g>
</g>
<!-- Node19&#45;&gt;Node5 -->
<g id="edge20" class="edge">
<title>Node19&#45;&gt;Node5</title>
<path fill="none" stroke="#9a32cd" stroke-dasharray="5,2" d="M588.5392,-420.2742C614.9297,-416.4773 650.5281,-410.2334 681,-400.9909 696.0437,-396.428 712.3256,-389.3186 724.4987,-383.5403"/>
<polygon fill="#9a32cd" stroke="#9a32cd" points="587.9751,-416.8188 578.5501,-421.6581 588.9358,-423.7526 587.9751,-416.8188"/>
<text text-anchor="middle" x="655" y="-416.9909" font-family="Helvetica,sans-Serif" font-size="10.00" fill="#000000"> PkgP</text>
</g>
<!-- Node20 -->
<g id="node20" class="node">
<title>Node20</title>
<g id="a_node20"><a xlink:href="classMMap.xhtml" target="_top" xlink:title="MMap">
<polygon fill="#ffffff" stroke="#000000" points="527.5,-26.4909 527.5,-45.4909 572.5,-45.4909 572.5,-26.4909 527.5,-26.4909"/>
<text text-anchor="middle" x="550" y="-33.4909" font-family="Helvetica,sans-Serif" font-size="10.00" fill="#000000">MMap</text>
</a>
</g>
</g>
<!-- Node20&#45;&gt;Node5 -->
<g id="edge21" class="edge">
<title>Node20&#45;&gt;Node5</title>
<path fill="none" stroke="#9a32cd" stroke-dasharray="5,2" d="M582.5043,-45.5114C613.2641,-56.3376 658.0449,-77.1844 681,-111.9909 709.7059,-155.5175 735.826,-322.0194 742.0831,-364.2223"/>
<polygon fill="#9a32cd" stroke="#9a32cd" points="583.2558,-42.0722 572.662,-42.2184 581.0347,-48.7105 583.2558,-42.0722"/>
<text text-anchor="middle" x="655" y="-114.9909" font-family="Helvetica,sans-Serif" font-size="10.00" fill="#000000"> Map</text>
</g>
<!-- Node20&#45;&gt;Node22 -->
<g id="edge27" class="edge">
<title>Node20&#45;&gt;Node22</title>
<path fill="none" stroke="#191970" d="M583.1121,-34.0343C609.6882,-32.9942 647.8953,-32.6924 681,-36.9909 691.3298,-38.3322 702.4027,-40.8106 712.3156,-43.4228"/>
<polygon fill="#191970" stroke="#191970" points="582.6662,-30.5507 572.8334,-34.4961 582.9804,-37.5436 582.6662,-30.5507"/>
</g>
<!-- Node21&#45;&gt;Node20 -->
<g id="edge22" class="edge">
<title>Node21&#45;&gt;Node20</title>
<path fill="none" stroke="#9a32cd" stroke-dasharray="5,2" d="M391.471,-35.9909C430.085,-35.9909 493.5384,-35.9909 527.266,-35.9909"/>
<polygon fill="#9a32cd" stroke="#9a32cd" points="391.284,-32.491 381.2839,-35.9909 391.2839,-39.491 391.284,-32.491"/>
<text text-anchor="middle" x="435" y="-38.9909" font-family="Helvetica,sans-Serif" font-size="10.00" fill="#000000"> SyncToFd</text>
</g>
<!-- Node21&#45;&gt;Node22 -->
<g id="edge29" class="edge">
<title>Node21&#45;&gt;Node22</title>
<path fill="none" stroke="#9a32cd" stroke-dasharray="5,2" d="M391.0059,-26.4651C417.1055,-19.2182 455.0708,-9.8551 489,-5.9909 542.874,.1447 557.5155,2.9231 611,-5.9909 652.4102,-12.8926 697.9881,-31.7367 723.4401,-43.3601"/>
<polygon fill="#9a32cd" stroke="#9a32cd" points="389.944,-23.1281 381.2766,-29.2214 391.852,-29.8631 389.944,-23.1281"/>
<text text-anchor="middle" x="550" y="-8.9909" font-family="Helvetica,sans-Serif" font-size="10.00" fill="#000000"> Fd</text>
</g>
<!-- Node22&#45;&gt;Node1 -->
<g id="edge26" class="edge">
<title>Node22&#45;&gt;Node1</title>
<path fill="none" stroke="#9a32cd" stroke-dasharray="5,2" d="M749.6339,-72.5047C777.463,-161.0371 891.3639,-523.3883 911.4628,-587.3288"/>
<polygon fill="#9a32cd" stroke="#9a32cd" points="752.9517,-71.3877 746.614,-62.8975 746.2739,-73.4868 752.9517,-71.3877"/>
<text text-anchor="middle" x="823" y="-360.9909" font-family="Helvetica,sans-Serif" font-size="10.00" fill="#000000"> Map</text>
</g>
</g>
</svg>
