<?xml version="1.0" encoding="UTF-8" standalone="no"?>
<!DOCTYPE svg PUBLIC "-//W3C//DTD SVG 1.1//EN"
 "http://www.w3.org/Graphics/SVG/1.1/DTD/svg11.dtd">
<!-- Generated by graphviz version 2.40.1 (20161225.0304)
 -->
<!-- Title: pkgDebianIndexRealFile Pages: 1 -->
<svg width="236pt" height="152pt"
 viewBox="0.00 0.00 236.00 152.00" xmlns="http://www.w3.org/2000/svg" xmlns:xlink="http://www.w3.org/1999/xlink">
<g id="graph0" class="graph" transform="scale(1 1) rotate(0) translate(4 148)">
<title>pkgDebianIndexRealFile</title>
<polygon fill="#ffffff" stroke="transparent" points="-4,4 -4,-148 232,-148 232,4 -4,4"/>
<!-- Node11 -->
<g id="node1" class="node">
<title>Node11</title>
<polygon fill="#bfbfbf" stroke="#000000" points="37.5,-.5 37.5,-19.5 171.5,-19.5 171.5,-.5 37.5,-.5"/>
<text text-anchor="middle" x="104.5" y="-7.5" font-family="Helvetica,sans-Serif" font-size="10.00" fill="#000000">pkgDebianIndexRealFile</text>
</g>
<!-- Node12 -->
<g id="node2" class="node">
<title>Node12</title>
<g id="a_node2"><a xlink:href="classpkgDebianIndexFile.xhtml" target="_top" xlink:title="pkgDebianIndexFile">
<polygon fill="#ffffff" stroke="#000000" points="0,-67.5 0,-86.5 113,-86.5 113,-67.5 0,-67.5"/>
<text text-anchor="middle" x="56.5" y="-74.5" font-family="Helvetica,sans-Serif" font-size="10.00" fill="#000000">pkgDebianIndexFile</text>
</a>
</g>
</g>
<!-- Node12&#45;&gt;Node11 -->
<g id="edge1" class="edge">
<title>Node12&#45;&gt;Node11</title>
<path fill="none" stroke="#191970" d="M69.4096,-58.9803C78.4948,-46.2989 90.2981,-29.8235 97.6355,-19.5817"/>
<polygon fill="#191970" stroke="#191970" points="66.3559,-57.233 63.3772,-67.4005 72.0463,-61.3097 66.3559,-57.233"/>
</g>
<!-- Node13 -->
<g id="node3" class="node">
<title>Node13</title>
<g id="a_node3"><a xlink:href="classpkgIndexFile.xhtml" target="_top" xlink:title="pkgIndexFile">
<polygon fill="#ffffff" stroke="#000000" points="12.5,-124.5 12.5,-143.5 90.5,-143.5 90.5,-124.5 12.5,-124.5"/>
<text text-anchor="middle" x="51.5" y="-131.5" font-family="Helvetica,sans-Serif" font-size="10.00" fill="#000000">pkgIndexFile</text>
</a>
</g>
</g>
<!-- Node13&#45;&gt;Node12 -->
<g id="edge2" class="edge">
<title>Node13&#45;&gt;Node12</title>
<path fill="none" stroke="#191970" d="M53.2338,-114.2342C54.0571,-104.8491 55.0031,-94.0651 55.6643,-86.5265"/>
<polygon fill="#191970" stroke="#191970" points="49.7355,-114.0631 52.3482,-124.3307 56.7087,-114.6749 49.7355,-114.0631"/>
</g>
<!-- Node14 -->
<g id="node4" class="node">
<title>Node14</title>
<g id="a_node4"><a xlink:title="STL class. ">
<polygon fill="#ffffff" stroke="#bfbfbf" points="141.5,-67.5 141.5,-86.5 185.5,-86.5 185.5,-67.5 141.5,-67.5"/>
<text text-anchor="middle" x="163.5" y="-74.5" font-family="Helvetica,sans-Serif" font-size="10.00" fill="#000000">string</text>
</a>
</g>
</g>
<!-- Node14&#45;&gt;Node11 -->
<g id="edge3" class="edge">
<title>Node14&#45;&gt;Node11</title>
<path fill="none" stroke="#9a32cd" stroke-dasharray="5,2" d="M148.2786,-59.7147C137.0302,-46.941 122.1316,-30.0224 112.9376,-19.5817"/>
<polygon fill="#9a32cd" stroke="#9a32cd" points="145.8112,-62.2087 155.0467,-67.4005 151.0646,-57.5825 145.8112,-62.2087"/>
<text text-anchor="middle" x="148.5" y="-41" font-family="Helvetica,sans-Serif" font-size="10.00" fill="#000000"> File</text>
</g>
<!-- Node15 -->
<g id="node5" class="node">
<title>Node15</title>
<g id="a_node5"><a xlink:title="STL class. ">
<polygon fill="#ffffff" stroke="#bfbfbf" points="109,-124.5 109,-143.5 228,-143.5 228,-124.5 109,-124.5"/>
<text text-anchor="middle" x="168.5" y="-131.5" font-family="Helvetica,sans-Serif" font-size="10.00" fill="#000000">basic_string&lt; char &gt;</text>
</a>
</g>
</g>
<!-- Node15&#45;&gt;Node14 -->
<g id="edge4" class="edge">
<title>Node15&#45;&gt;Node14</title>
<path fill="none" stroke="#191970" d="M166.7662,-114.2342C165.9429,-104.8491 164.9969,-94.0651 164.3357,-86.5265"/>
<polygon fill="#191970" stroke="#191970" points="163.2913,-114.6749 167.6518,-124.3307 170.2645,-114.0631 163.2913,-114.6749"/>
</g>
</g>
</svg>
