<?xml version="1.0" encoding="UTF-8" standalone="no"?>
<!DOCTYPE svg PUBLIC "-//W3C//DTD SVG 1.1//EN"
 "http://www.w3.org/Graphics/SVG/1.1/DTD/svg11.dtd">
<!-- Generated by graphviz version 2.40.1 (20161225.0304)
 -->
<!-- Title: pkgDebianIndexTargetFile Pages: 1 -->
<svg width="372pt" height="196pt"
 viewBox="0.00 0.00 371.50 196.00" xmlns="http://www.w3.org/2000/svg" xmlns:xlink="http://www.w3.org/1999/xlink">
<g id="graph0" class="graph" transform="scale(1 1) rotate(0) translate(4 192)">
<title>pkgDebianIndexTargetFile</title>
<polygon fill="#ffffff" stroke="transparent" points="-4,4 -4,-192 367.5,-192 367.5,4 -4,4"/>
<!-- Node0 -->
<g id="node1" class="node">
<title>Node0</title>
<polygon fill="#bfbfbf" stroke="#000000" points="104,-56.5 104,-75.5 247,-75.5 247,-56.5 104,-56.5"/>
<text text-anchor="middle" x="175.5" y="-63.5" font-family="Helvetica,sans-Serif" font-size="10.00" fill="#000000">pkgDebianIndexTargetFile</text>
</g>
<!-- Node3 -->
<g id="node4" class="node">
<title>Node3</title>
<g id="a_node4"><a xlink:href="classdebPackagesIndex.xhtml" target="_top" xlink:title="debPackagesIndex">
<polygon fill="#ffffff" stroke="#000000" points="0,-.5 0,-19.5 107,-19.5 107,-.5 0,-.5"/>
<text text-anchor="middle" x="53.5" y="-7.5" font-family="Helvetica,sans-Serif" font-size="10.00" fill="#000000">debPackagesIndex</text>
</a>
</g>
</g>
<!-- Node0&#45;&gt;Node3 -->
<g id="edge3" class="edge">
<title>Node0&#45;&gt;Node3</title>
<path fill="none" stroke="#191970" d="M145.2416,-52.1109C123.1181,-41.9559 93.6906,-28.4482 74.1989,-19.5011"/>
<polygon fill="#191970" stroke="#191970" points="143.979,-55.3824 154.5275,-56.3733 146.8993,-49.0206 143.979,-55.3824"/>
</g>
<!-- Node4 -->
<g id="node5" class="node">
<title>Node4</title>
<g id="a_node5"><a xlink:href="classdebSourcesIndex.xhtml" target="_top" xlink:title="debSourcesIndex">
<polygon fill="#ffffff" stroke="#000000" points="125.5,-.5 125.5,-19.5 225.5,-19.5 225.5,-.5 125.5,-.5"/>
<text text-anchor="middle" x="175.5" y="-7.5" font-family="Helvetica,sans-Serif" font-size="10.00" fill="#000000">debSourcesIndex</text>
</a>
</g>
</g>
<!-- Node0&#45;&gt;Node4 -->
<g id="edge4" class="edge">
<title>Node0&#45;&gt;Node4</title>
<path fill="none" stroke="#191970" d="M175.5,-46.1575C175.5,-37.155 175.5,-26.9199 175.5,-19.6427"/>
<polygon fill="#191970" stroke="#191970" points="172.0001,-46.2455 175.5,-56.2455 179.0001,-46.2456 172.0001,-46.2455"/>
</g>
<!-- Node5 -->
<g id="node6" class="node">
<title>Node5</title>
<g id="a_node6"><a xlink:href="classdebTranslationsIndex.xhtml" target="_top" xlink:title="debTranslationsIndex">
<polygon fill="#ffffff" stroke="#000000" points="243.5,-.5 243.5,-19.5 363.5,-19.5 363.5,-.5 243.5,-.5"/>
<text text-anchor="middle" x="303.5" y="-7.5" font-family="Helvetica,sans-Serif" font-size="10.00" fill="#000000">debTranslationsIndex</text>
</a>
</g>
</g>
<!-- Node0&#45;&gt;Node5 -->
<g id="edge5" class="edge">
<title>Node0&#45;&gt;Node5</title>
<path fill="none" stroke="#191970" d="M206.9348,-52.2473C230.1809,-42.0771 261.2411,-28.4883 281.7831,-19.5011"/>
<polygon fill="#191970" stroke="#191970" points="205.2627,-49.1585 197.504,-56.3733 208.0685,-55.5716 205.2627,-49.1585"/>
</g>
<!-- Node1 -->
<g id="node2" class="node">
<title>Node1</title>
<g id="a_node2"><a xlink:href="classpkgDebianIndexFile.xhtml" target="_top" xlink:title="pkgDebianIndexFile">
<polygon fill="#ffffff" stroke="#000000" points="119,-112.5 119,-131.5 232,-131.5 232,-112.5 119,-112.5"/>
<text text-anchor="middle" x="175.5" y="-119.5" font-family="Helvetica,sans-Serif" font-size="10.00" fill="#000000">pkgDebianIndexFile</text>
</a>
</g>
</g>
<!-- Node1&#45;&gt;Node0 -->
<g id="edge1" class="edge">
<title>Node1&#45;&gt;Node0</title>
<path fill="none" stroke="#191970" d="M175.5,-102.1575C175.5,-93.155 175.5,-82.9199 175.5,-75.6427"/>
<polygon fill="#191970" stroke="#191970" points="172.0001,-102.2455 175.5,-112.2455 179.0001,-102.2456 172.0001,-102.2455"/>
</g>
<!-- Node2 -->
<g id="node3" class="node">
<title>Node2</title>
<g id="a_node3"><a xlink:href="classpkgIndexFile.xhtml" target="_top" xlink:title="pkgIndexFile">
<polygon fill="#ffffff" stroke="#000000" points="136.5,-168.5 136.5,-187.5 214.5,-187.5 214.5,-168.5 136.5,-168.5"/>
<text text-anchor="middle" x="175.5" y="-175.5" font-family="Helvetica,sans-Serif" font-size="10.00" fill="#000000">pkgIndexFile</text>
</a>
</g>
</g>
<!-- Node2&#45;&gt;Node1 -->
<g id="edge2" class="edge">
<title>Node2&#45;&gt;Node1</title>
<path fill="none" stroke="#191970" d="M175.5,-158.1575C175.5,-149.155 175.5,-138.9199 175.5,-131.6427"/>
<polygon fill="#191970" stroke="#191970" points="172.0001,-158.2455 175.5,-168.2455 179.0001,-158.2456 172.0001,-158.2455"/>
</g>
</g>
</svg>
