<?xml version="1.0" encoding="UTF-8" standalone="no"?>
<!DOCTYPE svg PUBLIC "-//W3C//DTD SVG 1.1//EN"
 "http://www.w3.org/Graphics/SVG/1.1/DTD/svg11.dtd">
<!-- Generated by graphviz version 2.40.1 (20161225.0304)
 -->
<!-- Title: pkgDepCache Pages: 1 -->
<!--zoomable 591 -->
<svg id="main" version="1.1" xmlns="http://www.w3.org/2000/svg" xmlns:xlink="http://www.w3.org/1999/xlink" xml:space="preserve" onload="init(evt)">
<style type="text/css"><![CDATA[
.edge:hover path { stroke: red; }
.edge:hover polygon { stroke: red; fill: red; }
]]></style>
<script type="text/javascript"><![CDATA[
var edges = document.getElementsByTagName('g');
if (edges && edges.length) {
  for (var i=0;i<edges.length;i++) {
    if (edges[i].id.substr(0,4)=='edge') {
      edges[i].setAttribute('class','edge');
    }
  }
}
]]></script>
        <defs>
                <circle id="rim" cx="0" cy="0" r="7"/>
                <circle id="rim2" cx="0" cy="0" r="3.5"/>
                <g id="zoomPlus">
                        <use xlink:href="#rim" fill="#404040">
                                <set attributeName="fill" to="#808080" begin="zoomplus.mouseover" end="zoomplus.mouseout"/>
                        </use>
                        <path d="M-4,0h8M0,-4v8" fill="none" stroke="white" stroke-width="1.5" pointer-events="none"/>
                </g>
                <g id="zoomMin">
                        <use xlink:href="#rim" fill="#404040">
                                <set attributeName="fill" to="#808080" begin="zoomminus.mouseover" end="zoomminus.mouseout"/>
                        </use>
                        <path d="M-4,0h8" fill="none" stroke="white" stroke-width="1.5" pointer-events="none"/>
                </g>
                <g id="dirArrow">
                        <path fill="none" stroke="white" stroke-width="1.5" d="M0,-3.0v7 M-2.5,-0.5L0,-3.0L2.5,-0.5"/>
                </g>
               <g id="resetDef">
                       <use xlink:href="#rim2" fill="#404040">
                               <set attributeName="fill" to="#808080" begin="reset.mouseover" end="reset.mouseout"/>
                       </use>
               </g>
        </defs>

<script type="text/javascript">
var viewWidth = 949;
var viewHeight = 591;
var sectionId = 'dynsection-1';
</script>
<script xlink:href="svgpan.js"/>
<svg id="graph" class="graph">
<g id="viewport">
<title>pkgDepCache</title>
<polygon fill="#ffffff" stroke="transparent" points="-4,4 -4,-587 945,-587 945,4 -4,4"/>
<!-- Node2 -->
<g id="node1" class="node">
<title>Node2</title>
<polygon fill="#bfbfbf" stroke="#000000" points="857,-316.5 857,-335.5 941,-335.5 941,-316.5 857,-316.5"/>
<text text-anchor="middle" x="899" y="-323.5" font-family="Helvetica,sans-Serif" font-size="10.00" fill="#000000">pkgDepCache</text>
</g>
<!-- Node3 -->
<g id="node2" class="node">
<title>Node3</title>
<g id="a_node2"><a xlink:href="classpkgCache_1_1Namespace.xhtml" target="_top" xlink:title="Namespace">
<polygon fill="#ffffff" stroke="#000000" points="677,-371.5 677,-390.5 751,-390.5 751,-371.5 677,-371.5"/>
<text text-anchor="middle" x="714" y="-378.5" font-family="Helvetica,sans-Serif" font-size="10.00" fill="#000000">Namespace</text>
</a>
</g>
</g>
<!-- Node3&#45;&gt;Node2 -->
<g id="edge1" class="edge">
<title>Node3&#45;&gt;Node2</title>
<path fill="none" stroke="#006400" d="M761.2835,-378.7618C785.1513,-376.4988 814.2216,-371.9831 839,-363 856.9482,-356.4931 875.3023,-344.177 886.9028,-335.5479"/>
<polygon fill="#006400" stroke="#006400" points="760.7298,-375.296 751.06,-379.6256 761.3192,-382.2711 760.7298,-375.296"/>
</g>
<!-- Node4 -->
<g id="node3" class="node">
<title>Node4</title>
<g id="a_node3"><a xlink:href="classpkgDepCache_1_1Policy.xhtml" target="_top" xlink:title="Policy">
<polygon fill="#ffffff" stroke="#000000" points="691,-333.5 691,-352.5 737,-352.5 737,-333.5 691,-333.5"/>
<text text-anchor="middle" x="714" y="-340.5" font-family="Helvetica,sans-Serif" font-size="10.00" fill="#000000">Policy</text>
</a>
</g>
</g>
<!-- Node4&#45;&gt;Node2 -->
<g id="edge2" class="edge">
<title>Node4&#45;&gt;Node2</title>
<path fill="none" stroke="#9a32cd" stroke-dasharray="5,2" d="M747.244,-339.9451C777.9473,-337.1238 823.6933,-332.9201 856.9294,-329.866"/>
<polygon fill="#9a32cd" stroke="#9a32cd" points="746.6941,-336.4808 737.0563,-340.8813 747.3347,-343.4515 746.6941,-336.4808"/>
<text text-anchor="middle" x="804" y="-351" font-family="Helvetica,sans-Serif" font-size="10.00" fill="#000000"> LocalPolicy</text>
<text text-anchor="middle" x="804" y="-340" font-family="Helvetica,sans-Serif" font-size="10.00" fill="#000000">delLocalPolicy</text>
</g>
<!-- Node5 -->
<g id="node4" class="node">
<title>Node5</title>
<g id="a_node4"><a xlink:href="classpkgCache.xhtml" target="_top" xlink:title="pkgCache">
<polygon fill="#ffffff" stroke="#000000" points="681.5,-295.5 681.5,-314.5 746.5,-314.5 746.5,-295.5 681.5,-295.5"/>
<text text-anchor="middle" x="714" y="-302.5" font-family="Helvetica,sans-Serif" font-size="10.00" fill="#000000">pkgCache</text>
</a>
</g>
</g>
<!-- Node5&#45;&gt;Node2 -->
<g id="edge3" class="edge">
<title>Node5&#45;&gt;Node2</title>
<path fill="none" stroke="#9a32cd" stroke-dasharray="5,2" d="M756.9719,-307.9562C781.1251,-309.8246 811.7972,-312.5414 839,-316 844.7618,-316.7326 850.8173,-317.6119 856.7744,-318.5412"/>
<polygon fill="#9a32cd" stroke="#9a32cd" points="756.9446,-304.4443 746.7098,-307.1829 756.4185,-311.4245 756.9446,-304.4443"/>
<text text-anchor="middle" x="804" y="-319" font-family="Helvetica,sans-Serif" font-size="10.00" fill="#000000"> Cache</text>
</g>
<!-- Node6 -->
<g id="node5" class="node">
<title>Node6</title>
<g id="a_node5"><a xlink:href="structpkgCache_1_1DependencyData.xhtml" target="_top" xlink:title="information for a single dependency record ">
<polygon fill="#ffffff" stroke="#000000" points="477.5,-561.5 477.5,-580.5 578.5,-580.5 578.5,-561.5 477.5,-561.5"/>
<text text-anchor="middle" x="528" y="-568.5" font-family="Helvetica,sans-Serif" font-size="10.00" fill="#000000">DependencyData</text>
</a>
</g>
</g>
<!-- Node6&#45;&gt;Node5 -->
<g id="edge4" class="edge">
<title>Node6&#45;&gt;Node5</title>
<path fill="none" stroke="#9a32cd" stroke-dasharray="5,2" d="M588.8954,-575.0193C614.1444,-573.2665 641.5555,-566.2951 659,-547 692.342,-510.121 649.4028,-365.3539 677,-324 679.5653,-320.1559 683.1605,-317.0463 687.1102,-314.5443"/>
<polygon fill="#9a32cd" stroke="#9a32cd" points="588.4529,-571.5351 578.614,-575.4651 588.7563,-578.5285 588.4529,-571.5351"/>
<text text-anchor="middle" x="633" y="-575" font-family="Helvetica,sans-Serif" font-size="10.00" fill="#000000"> DepDataP</text>
</g>
<!-- Node7 -->
<g id="node6" class="node">
<title>Node7</title>
<g id="a_node6"><a xlink:href="structpkgCache_1_1Dependency.xhtml" target="_top" xlink:title="Dependency">
<polygon fill="#ffffff" stroke="#000000" points="489.5,-523.5 489.5,-542.5 566.5,-542.5 566.5,-523.5 489.5,-523.5"/>
<text text-anchor="middle" x="528" y="-530.5" font-family="Helvetica,sans-Serif" font-size="10.00" fill="#000000">Dependency</text>
</a>
</g>
</g>
<!-- Node7&#45;&gt;Node5 -->
<g id="edge5" class="edge">
<title>Node7&#45;&gt;Node5</title>
<path fill="none" stroke="#9a32cd" stroke-dasharray="5,2" d="M576.6557,-536.551C604.8138,-535.7764 638.6106,-529.4896 659,-507 686.4463,-476.7266 654.0209,-357.7896 677,-324 679.5989,-320.1785 683.2108,-317.0802 687.1668,-314.5825"/>
<polygon fill="#9a32cd" stroke="#9a32cd" points="576.5526,-533.0514 566.5721,-536.6068 576.5914,-540.0513 576.5526,-533.0514"/>
<text text-anchor="middle" x="633" y="-535" font-family="Helvetica,sans-Serif" font-size="10.00" fill="#000000"> DepP</text>
</g>
<!-- Node8 -->
<g id="node7" class="node">
<title>Node8</title>
<g id="a_node7"><a xlink:href="structpkgCache_1_1Description.xhtml" target="_top" xlink:title="datamember of a linked list of available description for a version ">
<polygon fill="#ffffff" stroke="#000000" points="492,-485.5 492,-504.5 564,-504.5 564,-485.5 492,-485.5"/>
<text text-anchor="middle" x="528" y="-492.5" font-family="Helvetica,sans-Serif" font-size="10.00" fill="#000000">Description</text>
</a>
</g>
</g>
<!-- Node8&#45;&gt;Node5 -->
<g id="edge6" class="edge">
<title>Node8&#45;&gt;Node5</title>
<path fill="none" stroke="#9a32cd" stroke-dasharray="5,2" d="M574.2568,-497.2446C602.8056,-495.9745 637.8883,-489.1438 659,-466 701.8727,-419.0006 640.4916,-376.0975 677,-324 679.6522,-320.2153 683.2908,-317.1355 687.2568,-314.6446"/>
<polygon fill="#9a32cd" stroke="#9a32cd" points="573.9886,-493.7498 564.0725,-497.4809 574.151,-500.7479 573.9886,-493.7498"/>
<text text-anchor="middle" x="633" y="-495" font-family="Helvetica,sans-Serif" font-size="10.00" fill="#000000"> DescP</text>
</g>
<!-- Node9 -->
<g id="node8" class="node">
<title>Node9</title>
<g id="a_node8"><a xlink:href="structpkgCache_1_1Header.xhtml" target="_top" xlink:title="Header">
<polygon fill="#ffffff" stroke="#000000" points="502,-447.5 502,-466.5 554,-466.5 554,-447.5 502,-447.5"/>
<text text-anchor="middle" x="528" y="-454.5" font-family="Helvetica,sans-Serif" font-size="10.00" fill="#000000">Header</text>
</a>
</g>
</g>
<!-- Node9&#45;&gt;Node5 -->
<g id="edge7" class="edge">
<title>Node9&#45;&gt;Node5</title>
<path fill="none" stroke="#9a32cd" stroke-dasharray="5,2" d="M564.2645,-457.946C593.9903,-456.6513 634.9475,-449.7639 659,-424 689.8169,-390.9905 650.1313,-360.2958 677,-324 679.8356,-320.1695 683.6684,-317.0512 687.7957,-314.5325"/>
<polygon fill="#9a32cd" stroke="#9a32cd" points="564.1753,-454.4471 554.2646,-458.1925 564.3478,-461.445 564.1753,-454.4471"/>
<text text-anchor="middle" x="633" y="-454" font-family="Helvetica,sans-Serif" font-size="10.00" fill="#000000"> HeaderP</text>
</g>
<!-- Node10 -->
<g id="node9" class="node">
<title>Node10</title>
<g id="a_node9"><a xlink:href="structDynamicMMap_1_1Pool.xhtml" target="_top" xlink:title="Pool">
<polygon fill="#ffffff" stroke="#000000" points="340,-447.5 340,-466.5 378,-466.5 378,-447.5 340,-447.5"/>
<text text-anchor="middle" x="359" y="-454.5" font-family="Helvetica,sans-Serif" font-size="10.00" fill="#000000">Pool</text>
</a>
</g>
</g>
<!-- Node10&#45;&gt;Node9 -->
<g id="edge8" class="edge">
<title>Node10&#45;&gt;Node9</title>
<path fill="none" stroke="#9a32cd" stroke-dasharray="5,2" d="M388.1285,-457C420.1301,-457 471.0611,-457 501.8334,-457"/>
<polygon fill="#9a32cd" stroke="#9a32cd" points="388.058,-453.5001 378.0579,-457 388.0579,-460.5001 388.058,-453.5001"/>
<text text-anchor="middle" x="424" y="-460" font-family="Helvetica,sans-Serif" font-size="10.00" fill="#000000"> Pools</text>
</g>
<!-- Node11 -->
<g id="node10" class="node">
<title>Node11</title>
<g id="a_node10"><a xlink:href="structpkgCache_1_1PackageFile.xhtml" target="_top" xlink:title="stores information about the files used to generate the cache ">
<polygon fill="#ffffff" stroke="#000000" points="491,-409.5 491,-428.5 565,-428.5 565,-409.5 491,-409.5"/>
<text text-anchor="middle" x="528" y="-416.5" font-family="Helvetica,sans-Serif" font-size="10.00" fill="#000000">PackageFile</text>
</a>
</g>
</g>
<!-- Node11&#45;&gt;Node5 -->
<g id="edge9" class="edge">
<title>Node11&#45;&gt;Node5</title>
<path fill="none" stroke="#9a32cd" stroke-dasharray="5,2" d="M575.473,-416.5878C603.154,-412.7617 636.8651,-403.5743 659,-382 678.3284,-363.1611 659.6399,-344.6669 677,-324 680.1583,-320.2401 684.2493,-317.1371 688.5547,-314.6073"/>
<polygon fill="#9a32cd" stroke="#9a32cd" points="574.7142,-413.1531 565.1959,-417.8063 575.5384,-420.1044 574.7142,-413.1531"/>
<text text-anchor="middle" x="633" y="-412" font-family="Helvetica,sans-Serif" font-size="10.00" fill="#000000"> PkgFileP</text>
</g>
<!-- Node12 -->
<g id="node11" class="node">
<title>Node12</title>
<g id="a_node11"><a xlink:href="structpkgCache_1_1ReleaseFile.xhtml" target="_top" xlink:title="stores information about the release files used to generate the cache ">
<polygon fill="#ffffff" stroke="#000000" points="492.5,-371.5 492.5,-390.5 563.5,-390.5 563.5,-371.5 492.5,-371.5"/>
<text text-anchor="middle" x="528" y="-378.5" font-family="Helvetica,sans-Serif" font-size="10.00" fill="#000000">ReleaseFile</text>
</a>
</g>
</g>
<!-- Node12&#45;&gt;Node5 -->
<g id="edge10" class="edge">
<title>Node12&#45;&gt;Node5</title>
<path fill="none" stroke="#9a32cd" stroke-dasharray="5,2" d="M573.8287,-375.2296C600.2984,-370.2939 633.3271,-361.2815 659,-345 669.3811,-338.4164 667.3516,-331.6171 677,-324 681.5342,-320.4204 686.8478,-317.2226 692.0108,-314.5175"/>
<polygon fill="#9a32cd" stroke="#9a32cd" points="572.9242,-371.834 563.667,-376.9872 574.1172,-378.7316 572.9242,-371.834"/>
<text text-anchor="middle" x="633" y="-370" font-family="Helvetica,sans-Serif" font-size="10.00" fill="#000000"> RlsFileP</text>
</g>
<!-- Node13 -->
<g id="node12" class="node">
<title>Node13</title>
<g id="a_node12"><a xlink:href="structpkgCache_1_1DescFile.xhtml" target="_top" xlink:title="associates a description with a Translation file ">
<polygon fill="#ffffff" stroke="#000000" points="499.5,-333.5 499.5,-352.5 556.5,-352.5 556.5,-333.5 499.5,-333.5"/>
<text text-anchor="middle" x="528" y="-340.5" font-family="Helvetica,sans-Serif" font-size="10.00" fill="#000000">DescFile</text>
</a>
</g>
</g>
<!-- Node13&#45;&gt;Node5 -->
<g id="edge11" class="edge">
<title>Node13&#45;&gt;Node5</title>
<path fill="none" stroke="#9a32cd" stroke-dasharray="5,2" d="M566.4318,-337.212C592.6383,-333.0307 628.0656,-326.9184 659,-320 666.2441,-318.3799 673.9642,-316.4216 681.2598,-314.4623"/>
<polygon fill="#9a32cd" stroke="#9a32cd" points="565.8496,-333.7604 556.5152,-338.7724 566.9377,-340.6754 565.8496,-333.7604"/>
<text text-anchor="middle" x="633" y="-333" font-family="Helvetica,sans-Serif" font-size="10.00" fill="#000000"> DescFileP</text>
</g>
<!-- Node14 -->
<g id="node13" class="node">
<title>Node14</title>
<g id="a_node13"><a xlink:href="structpkgCache_1_1Provides.xhtml" target="_top" xlink:title="handles virtual packages ">
<polygon fill="#ffffff" stroke="#000000" points="498.5,-295.5 498.5,-314.5 557.5,-314.5 557.5,-295.5 498.5,-295.5"/>
<text text-anchor="middle" x="528" y="-302.5" font-family="Helvetica,sans-Serif" font-size="10.00" fill="#000000">Provides</text>
</a>
</g>
</g>
<!-- Node14&#45;&gt;Node5 -->
<g id="edge12" class="edge">
<title>Node14&#45;&gt;Node5</title>
<path fill="none" stroke="#9a32cd" stroke-dasharray="5,2" d="M567.9073,-305C601.7743,-305 649.7664,-305 681.3734,-305"/>
<polygon fill="#9a32cd" stroke="#9a32cd" points="567.8842,-301.5001 557.8841,-305 567.8841,-308.5001 567.8842,-301.5001"/>
<text text-anchor="middle" x="633" y="-308" font-family="Helvetica,sans-Serif" font-size="10.00" fill="#000000"> ProvideP</text>
</g>
<!-- Node15 -->
<g id="node14" class="node">
<title>Node15</title>
<g id="a_node14"><a xlink:title="STL class. ">
<polygon fill="#ffffff" stroke="#bfbfbf" points="156,-238.5 156,-257.5 200,-257.5 200,-238.5 156,-238.5"/>
<text text-anchor="middle" x="178" y="-245.5" font-family="Helvetica,sans-Serif" font-size="10.00" fill="#000000">string</text>
</a>
</g>
</g>
<!-- Node15&#45;&gt;Node5 -->
<g id="edge13" class="edge">
<title>Node15&#45;&gt;Node5</title>
<path fill="none" stroke="#9a32cd" stroke-dasharray="5,2" d="M210.6041,-252.1731C213.1056,-252.4634 215.5927,-252.7426 218,-253 382.6014,-270.6025 424.6462,-266.219 589,-286 620.4914,-289.7902 656.2579,-295.3552 681.4399,-299.4838"/>
<polygon fill="#9a32cd" stroke="#9a32cd" points="210.7558,-248.6661 200.4087,-250.9439 209.9179,-255.6158 210.7558,-248.6661"/>
<text text-anchor="middle" x="424" y="-274" font-family="Helvetica,sans-Serif" font-size="10.00" fill="#000000"> CacheFile</text>
</g>
<!-- Node23 -->
<g id="node22" class="node">
<title>Node23</title>
<g id="a_node22"><a xlink:href="classFileFd.xhtml" target="_top" xlink:title="FileFd">
<polygon fill="#ffffff" stroke="#000000" points="337,-219.5 337,-238.5 381,-238.5 381,-219.5 337,-219.5"/>
<text text-anchor="middle" x="359" y="-226.5" font-family="Helvetica,sans-Serif" font-size="10.00" fill="#000000">FileFd</text>
</a>
</g>
</g>
<!-- Node15&#45;&gt;Node23 -->
<g id="edge23" class="edge">
<title>Node15&#45;&gt;Node23</title>
<path fill="none" stroke="#9a32cd" stroke-dasharray="5,2" d="M205.8134,-234.577C209.8246,-233.1162 213.9625,-231.8522 218,-231 259.2006,-222.3034 308.6875,-224.39 336.7274,-226.6957"/>
<polygon fill="#9a32cd" stroke="#9a32cd" points="204.1663,-231.469 196.2332,-238.4915 206.8141,-237.949 204.1663,-231.469"/>
<text text-anchor="middle" x="268.5" y="-245" font-family="Helvetica,sans-Serif" font-size="10.00" fill="#000000"> TemporaryFileName</text>
<text text-anchor="middle" x="268.5" y="-234" font-family="Helvetica,sans-Serif" font-size="10.00" fill="#000000">FileName</text>
</g>
<!-- Node16 -->
<g id="node15" class="node">
<title>Node16</title>
<g id="a_node15"><a xlink:title="STL class. ">
<polygon fill="#ffffff" stroke="#bfbfbf" points="0,-238.5 0,-257.5 119,-257.5 119,-238.5 0,-238.5"/>
<text text-anchor="middle" x="59.5" y="-245.5" font-family="Helvetica,sans-Serif" font-size="10.00" fill="#000000">basic_string&lt; char &gt;</text>
</a>
</g>
</g>
<!-- Node16&#45;&gt;Node15 -->
<g id="edge14" class="edge">
<title>Node16&#45;&gt;Node15</title>
<path fill="none" stroke="#191970" d="M129.2118,-248C138.8284,-248 148.0652,-248 155.8653,-248"/>
<polygon fill="#191970" stroke="#191970" points="129.0972,-244.5001 119.0972,-248 129.0971,-251.5001 129.0972,-244.5001"/>
</g>
<!-- Node17 -->
<g id="node16" class="node">
<title>Node17</title>
<g id="a_node16"><a xlink:href="structpkgCache_1_1Group.xhtml" target="_top" xlink:title="groups architecture depending packages together ">
<polygon fill="#ffffff" stroke="#000000" points="505,-181.5 505,-200.5 551,-200.5 551,-181.5 505,-181.5"/>
<text text-anchor="middle" x="528" y="-188.5" font-family="Helvetica,sans-Serif" font-size="10.00" fill="#000000">Group</text>
</a>
</g>
</g>
<!-- Node17&#45;&gt;Node5 -->
<g id="edge15" class="edge">
<title>Node17&#45;&gt;Node5</title>
<path fill="none" stroke="#9a32cd" stroke-dasharray="5,2" d="M561.3259,-185.9603C590.7252,-183.5122 632.852,-185.1796 659,-209 684.9806,-232.6679 655.3684,-258.301 677,-286 679.9334,-289.7562 683.8136,-292.8385 687.9573,-295.3447"/>
<polygon fill="#9a32cd" stroke="#9a32cd" points="560.7106,-182.5052 551.1235,-187.0151 561.4305,-189.4681 560.7106,-182.5052"/>
<text text-anchor="middle" x="633" y="-212" font-family="Helvetica,sans-Serif" font-size="10.00" fill="#000000"> GrpP</text>
</g>
<!-- Node18 -->
<g id="node17" class="node">
<title>Node18</title>
<g id="a_node17"><a xlink:href="classpkgVersioningSystem.xhtml" target="_top" xlink:title="pkgVersioningSystem">
<polygon fill="#ffffff" stroke="#000000" points="467,-114.5 467,-133.5 589,-133.5 589,-114.5 467,-114.5"/>
<text text-anchor="middle" x="528" y="-121.5" font-family="Helvetica,sans-Serif" font-size="10.00" fill="#000000">pkgVersioningSystem</text>
</a>
</g>
</g>
<!-- Node18&#45;&gt;Node5 -->
<g id="edge16" class="edge">
<title>Node18&#45;&gt;Node5</title>
<path fill="none" stroke="#9a32cd" stroke-dasharray="5,2" d="M598.8937,-135.9039C621.2102,-143.0799 643.9374,-154.5783 659,-173 691.1911,-212.3701 647.1548,-244.8231 677,-286 679.7122,-289.7419 683.3808,-292.8004 687.3581,-295.2833"/>
<polygon fill="#9a32cd" stroke="#9a32cd" points="599.6214,-132.4695 589.0396,-132.9937 597.6387,-139.1828 599.6214,-132.4695"/>
<text text-anchor="middle" x="633" y="-176" font-family="Helvetica,sans-Serif" font-size="10.00" fill="#000000"> VS</text>
</g>
<!-- Node18&#45;&gt;Node18 -->
<g id="edge17" class="edge">
<title>Node18&#45;&gt;Node18</title>
<path fill="none" stroke="#9a32cd" stroke-dasharray="5,2" d="M508.7417,-143.4C510.0278,-148.3146 516.4473,-152 528,-152 546.4844,-152 551.8275,-142.5653 544.0294,-133.7571"/>
<polygon fill="#9a32cd" stroke="#9a32cd" points="512.1142,-144.3509 511.9706,-133.7571 505.4765,-142.1283 512.1142,-144.3509"/>
<text text-anchor="middle" x="528" y="-155" font-family="Helvetica,sans-Serif" font-size="10.00" fill="#000000"> GlobalList</text>
</g>
<!-- Node19 -->
<g id="node18" class="node">
<title>Node19</title>
<g id="a_node18"><a xlink:href="structpkgCache_1_1Version.xhtml" target="_top" xlink:title="information for a single version of a package ">
<polygon fill="#ffffff" stroke="#000000" points="501.5,-76.5 501.5,-95.5 554.5,-95.5 554.5,-76.5 501.5,-76.5"/>
<text text-anchor="middle" x="528" y="-83.5" font-family="Helvetica,sans-Serif" font-size="10.00" fill="#000000">Version</text>
</a>
</g>
</g>
<!-- Node19&#45;&gt;Node5 -->
<g id="edge18" class="edge">
<title>Node19&#45;&gt;Node5</title>
<path fill="none" stroke="#9a32cd" stroke-dasharray="5,2" d="M564.867,-86.4631C594.9629,-88.9646 636.1251,-97.6422 659,-125 705.1855,-180.2368 636.1154,-226.7324 677,-286 679.6242,-289.8041 683.2488,-292.8937 687.2096,-295.3882"/>
<polygon fill="#9a32cd" stroke="#9a32cd" points="564.9342,-82.9603 554.7313,-85.8153 564.4877,-89.9461 564.9342,-82.9603"/>
<text text-anchor="middle" x="633" y="-128" font-family="Helvetica,sans-Serif" font-size="10.00" fill="#000000"> VerP</text>
</g>
<!-- Node20 -->
<g id="node19" class="node">
<title>Node20</title>
<g id="a_node19"><a xlink:href="structpkgCache_1_1VerFile.xhtml" target="_top" xlink:title="associates a version with a PackageFile ">
<polygon fill="#ffffff" stroke="#000000" points="503.5,-38.5 503.5,-57.5 552.5,-57.5 552.5,-38.5 503.5,-38.5"/>
<text text-anchor="middle" x="528" y="-45.5" font-family="Helvetica,sans-Serif" font-size="10.00" fill="#000000">VerFile</text>
</a>
</g>
</g>
<!-- Node20&#45;&gt;Node5 -->
<g id="edge19" class="edge">
<title>Node20&#45;&gt;Node5</title>
<path fill="none" stroke="#9a32cd" stroke-dasharray="5,2" d="M562.7183,-46.1623C592.9621,-46.6275 635.5424,-52.6638 659,-80 688.9248,-114.8728 651.3662,-247.8619 677,-286 679.578,-289.8356 683.1795,-292.9409 687.1317,-295.4413"/>
<polygon fill="#9a32cd" stroke="#9a32cd" points="562.5721,-42.6628 552.5868,-46.2044 562.6012,-49.6628 562.5721,-42.6628"/>
<text text-anchor="middle" x="633" y="-83" font-family="Helvetica,sans-Serif" font-size="10.00" fill="#000000"> VerFileP</text>
</g>
<!-- Node21 -->
<g id="node20" class="node">
<title>Node21</title>
<g id="a_node20"><a xlink:href="structpkgCache_1_1Package.xhtml" target="_top" xlink:title="contains information for a single unique package ">
<polygon fill="#ffffff" stroke="#000000" points="499.5,-.5 499.5,-19.5 556.5,-19.5 556.5,-.5 499.5,-.5"/>
<text text-anchor="middle" x="528" y="-7.5" font-family="Helvetica,sans-Serif" font-size="10.00" fill="#000000">Package</text>
</a>
</g>
</g>
<!-- Node21&#45;&gt;Node5 -->
<g id="edge20" class="edge">
<title>Node21&#45;&gt;Node5</title>
<path fill="none" stroke="#9a32cd" stroke-dasharray="5,2" d="M566.7225,-6.8825C596.6079,-6.7993 636.5286,-12.189 659,-38 695.2827,-79.6749 646.5141,-239.9148 677,-286 679.5498,-289.8544 683.1371,-292.9692 687.084,-295.4731"/>
<polygon fill="#9a32cd" stroke="#9a32cd" points="566.5318,-3.3858 556.6152,-7.1156 566.6933,-10.384 566.5318,-3.3858"/>
<text text-anchor="middle" x="633" y="-41" font-family="Helvetica,sans-Serif" font-size="10.00" fill="#000000"> PkgP</text>
</g>
<!-- Node22 -->
<g id="node21" class="node">
<title>Node22</title>
<g id="a_node21"><a xlink:href="classMMap.xhtml" target="_top" xlink:title="MMap">
<polygon fill="#ffffff" stroke="#000000" points="505.5,-219.5 505.5,-238.5 550.5,-238.5 550.5,-219.5 505.5,-219.5"/>
<text text-anchor="middle" x="528" y="-226.5" font-family="Helvetica,sans-Serif" font-size="10.00" fill="#000000">MMap</text>
</a>
</g>
</g>
<!-- Node22&#45;&gt;Node5 -->
<g id="edge21" class="edge">
<title>Node22&#45;&gt;Node5</title>
<path fill="none" stroke="#9a32cd" stroke-dasharray="5,2" d="M560.8351,-223.4798C589.5486,-220.5355 630.9327,-221.0723 659,-242 675.9384,-254.6297 662.7165,-270.4308 677,-286 680.4171,-289.7247 684.7319,-292.8331 689.198,-295.3837"/>
<polygon fill="#9a32cd" stroke="#9a32cd" points="560.3821,-220.009 550.8778,-224.6907 561.2272,-226.9578 560.3821,-220.009"/>
<text text-anchor="middle" x="633" y="-245" font-family="Helvetica,sans-Serif" font-size="10.00" fill="#000000"> Map</text>
</g>
<!-- Node23&#45;&gt;Node22 -->
<g id="edge22" class="edge">
<title>Node23&#45;&gt;Node22</title>
<path fill="none" stroke="#9a32cd" stroke-dasharray="5,2" d="M391.2616,-229C424.6753,-229 476.0218,-229 505.3614,-229"/>
<polygon fill="#9a32cd" stroke="#9a32cd" points="391.0938,-225.5001 381.0938,-229 391.0938,-232.5001 391.0938,-225.5001"/>
<text text-anchor="middle" x="424" y="-232" font-family="Helvetica,sans-Serif" font-size="10.00" fill="#000000"> SyncToFd</text>
</g>
<!-- Node24 -->
<g id="node23" class="node">
<title>Node24</title>
<g id="a_node23"><a xlink:href="structpkgDepCache_1_1StateCache.xhtml" target="_top" xlink:title="StateCache">
<polygon fill="#ffffff" stroke="#000000" points="678,-257.5 678,-276.5 750,-276.5 750,-257.5 678,-257.5"/>
<text text-anchor="middle" x="714" y="-264.5" font-family="Helvetica,sans-Serif" font-size="10.00" fill="#000000">StateCache</text>
</a>
</g>
</g>
<!-- Node24&#45;&gt;Node2 -->
<g id="edge24" class="edge">
<title>Node24&#45;&gt;Node2</title>
<path fill="none" stroke="#9a32cd" stroke-dasharray="5,2" d="M759.9507,-273.7795C783.957,-278.1023 813.5554,-284.6732 839,-294 854.9615,-299.8507 871.9507,-309.2444 883.7611,-316.344"/>
<polygon fill="#9a32cd" stroke="#9a32cd" points="760.4834,-270.3198 750.033,-272.0631 759.2896,-277.2173 760.4834,-270.3198"/>
<text text-anchor="middle" x="804" y="-297" font-family="Helvetica,sans-Serif" font-size="10.00" fill="#000000"> PkgState</text>
</g>
</g>
</svg>
        <g id="navigator" transform="translate(0 0)" fill="#404254">
                <rect fill="#f2f5e9" fill-opacity="0.5" stroke="#606060" stroke-width=".5" x="0" y="0" width="60" height="60"/>
                <use id="zoomplus" xlink:href="#zoomPlus" x="17" y="9" onmousedown="handleZoom(evt,'in')"/>
                <use id="zoomminus" xlink:href="#zoomMin" x="42" y="9" onmousedown="handleZoom(evt,'out')"/>
                <use id="reset" xlink:href="#resetDef" x="30" y="36" onmousedown="handleReset()"/>
                <g id="arrowUp" xlink:href="#dirArrow" transform="translate(30 24)" onmousedown="handlePan(0,-1)">
                  <use xlink:href="#rim" fill="#404040">
                        <set attributeName="fill" to="#808080" begin="arrowUp.mouseover" end="arrowUp.mouseout"/>
                  </use>
                  <path fill="none" stroke="white" stroke-width="1.5" d="M0,-3.0v7 M-2.5,-0.5L0,-3.0L2.5,-0.5"/>
                </g>
                <g id="arrowRight" xlink:href="#dirArrow" transform="rotate(90) translate(36 -43)" onmousedown="handlePan(1,0)">
                  <use xlink:href="#rim" fill="#404040">
                        <set attributeName="fill" to="#808080" begin="arrowRight.mouseover" end="arrowRight.mouseout"/>
                  </use>
                  <path fill="none" stroke="white" stroke-width="1.5" d="M0,-3.0v7 M-2.5,-0.5L0,-3.0L2.5,-0.5"/>
                </g>
                <g id="arrowDown" xlink:href="#dirArrow" transform="rotate(180) translate(-30 -48)" onmousedown="handlePan(0,1)">
                  <use xlink:href="#rim" fill="#404040">
                        <set attributeName="fill" to="#808080" begin="arrowDown.mouseover" end="arrowDown.mouseout"/>
                  </use>
                  <path fill="none" stroke="white" stroke-width="1.5" d="M0,-3.0v7 M-2.5,-0.5L0,-3.0L2.5,-0.5"/>
                </g>
                <g id="arrowLeft" xlink:href="#dirArrow" transform="rotate(270) translate(-36 17)" onmousedown="handlePan(-1,0)">
                  <use xlink:href="#rim" fill="#404040">
                        <set attributeName="fill" to="#808080" begin="arrowLeft.mouseover" end="arrowLeft.mouseout"/>
                  </use>
                  <path fill="none" stroke="white" stroke-width="1.5" d="M0,-3.0v7 M-2.5,-0.5L0,-3.0L2.5,-0.5"/>
                </g>
        </g>
        <svg viewBox="0 0 15 15" width="100%" height="30px" preserveAspectRatio="xMaxYMin meet">
         <g id="arrow_out" transform="scale(0.3 0.3)">
          <a xlink:href="classpkgDepCache__coll__graph_org.svg" target="_base">
           <rect id="button" ry="5" rx="5" y="6" x="6" height="38" width="38"
                fill="#f2f5e9" fill-opacity="0.5" stroke="#606060" stroke-width="1.0"/>
           <path id="arrow"
             d="M 11.500037,31.436501 C 11.940474,20.09759 22.043105,11.32322 32.158766,21.979434 L 37.068811,17.246167 C 37.068811,17.246167 37.088388,32 37.088388,32 L 22.160133,31.978069 C 22.160133,31.978069 26.997745,27.140456 26.997745,27.140456 C 18.528582,18.264221 13.291696,25.230495 11.500037,31.436501 z"
             style="fill:#404040;"/>
          </a>
         </g>
        </svg>
</svg>
