<?xml version="1.0" encoding="UTF-8" standalone="no"?>
<!DOCTYPE svg PUBLIC "-//W3C//DTD SVG 1.1//EN"
 "http://www.w3.org/Graphics/SVG/1.1/DTD/svg11.dtd">
<!-- Generated by graphviz version 2.40.1 (20161225.0304)
 -->
<!-- Title: CleanupItem Pages: 1 -->
<svg width="1820pt" height="933pt"
 viewBox="0.00 0.00 1820.00 933.28" xmlns="http://www.w3.org/2000/svg" xmlns:xlink="http://www.w3.org/1999/xlink">
<g id="graph0" class="graph" transform="scale(1 1) rotate(0) translate(4 929.2801)">
<title>CleanupItem</title>
<polygon fill="#ffffff" stroke="transparent" points="-4,4 -4,-929.2801 1816,-929.2801 1816,4 -4,4"/>
<!-- Node4 -->
<g id="node1" class="node">
<title>Node4</title>
<polygon fill="#bfbfbf" stroke="#000000" points="1141.5,-656.7801 1141.5,-675.7801 1220.5,-675.7801 1220.5,-656.7801 1141.5,-656.7801"/>
<text text-anchor="middle" x="1181" y="-663.7801" font-family="Helvetica,sans-Serif" font-size="10.00" fill="#000000">CleanupItem</text>
</g>
<!-- Node5 -->
<g id="node2" class="node">
<title>Node5</title>
<g id="a_node2"><a xlink:href="classpkgAcqTransactionItem.xhtml" target="_top" xlink:title="baseclass for the indexes files to manage them all together ">
<polygon fill="#ffffff" stroke="#000000" points="890,-736.7801 890,-755.7801 1021,-755.7801 1021,-736.7801 890,-736.7801"/>
<text text-anchor="middle" x="955.5" y="-743.7801" font-family="Helvetica,sans-Serif" font-size="10.00" fill="#000000">pkgAcqTransactionItem</text>
</a>
</g>
</g>
<!-- Node5&#45;&gt;Node4 -->
<g id="edge1" class="edge">
<title>Node5&#45;&gt;Node4</title>
<path fill="none" stroke="#191970" d="M986.6763,-732.5892C1016.8364,-719.6468 1064.0196,-700.1911 1106,-686.2801 1117.5126,-682.4652 1130.2002,-678.8607 1141.8136,-675.7902"/>
<polygon fill="#191970" stroke="#191970" points="984.9252,-729.5329 977.1328,-736.7112 987.7009,-735.9591 984.9252,-729.5329"/>
</g>
<!-- Node24 -->
<g id="node21" class="node">
<title>Node24</title>
<g id="a_node21"><a xlink:href="classpkgAcqMetaBase.xhtml" target="_top" xlink:title="the manager of a transaction ">
<polygon fill="#ffffff" stroke="#000000" points="1353,-760.7801 1353,-779.7801 1454,-779.7801 1454,-760.7801 1353,-760.7801"/>
<text text-anchor="middle" x="1403.5" y="-767.7801" font-family="Helvetica,sans-Serif" font-size="10.00" fill="#000000">pkgAcqMetaBase</text>
</a>
</g>
</g>
<!-- Node5&#45;&gt;Node24 -->
<g id="edge45" class="edge">
<title>Node5&#45;&gt;Node24</title>
<path fill="none" stroke="#191970" d="M1031.1644,-750.3335C1122.7693,-755.2409 1274.4984,-763.3693 1352.9889,-767.5741"/>
<polygon fill="#191970" stroke="#191970" points="1031.2958,-746.8357 1021.1228,-749.7956 1030.9212,-753.8256 1031.2958,-746.8357"/>
</g>
<!-- Node25 -->
<g id="node22" class="node">
<title>Node25</title>
<polygon fill="#ffffff" stroke="#bfbfbf" points="1106,-695.2801 1106,-725.2801 1256,-725.2801 1256,-695.2801 1106,-695.2801"/>
<text text-anchor="start" x="1114" y="-713.2801" font-family="Helvetica,sans-Serif" font-size="10.00" fill="#000000">vector&lt; pkgAcqTransaction</text>
<text text-anchor="middle" x="1181" y="-702.2801" font-family="Helvetica,sans-Serif" font-size="10.00" fill="#000000">Item *&gt;</text>
</g>
<!-- Node5&#45;&gt;Node25 -->
<g id="edge47" class="edge">
<title>Node5&#45;&gt;Node25</title>
<path fill="none" stroke="#9a32cd" stroke-dasharray="5,2" d="M1009.6089,-734.7073C1019.3708,-732.7783 1029.472,-730.8855 1039,-729.2801 1060.5835,-725.6433 1084.1077,-722.2617 1105.6879,-719.3896"/>
<polygon fill="#9a32cd" stroke="#9a32cd" points="1008.711,-731.3177 999.5971,-736.7202 1010.0908,-738.1804 1008.711,-731.3177"/>
<text text-anchor="middle" x="1063.5" y="-732.2801" font-family="Helvetica,sans-Serif" font-size="10.00" fill="#000000"> elements</text>
</g>
<!-- Node6 -->
<g id="node3" class="node">
<title>Node6</title>
<g id="a_node3"><a xlink:href="classpkgAcquire_1_1Item.xhtml" target="_top" xlink:title="Represents the process by which a pkgAcquire object should retrieve a file or a collection of files...">
<polygon fill="#ffffff" stroke="#000000" points="411,-184.7801 411,-203.7801 450,-203.7801 450,-184.7801 411,-184.7801"/>
<text text-anchor="middle" x="430.5" y="-191.7801" font-family="Helvetica,sans-Serif" font-size="10.00" fill="#000000">Item</text>
</a>
</g>
</g>
<!-- Node6&#45;&gt;Node5 -->
<g id="edge2" class="edge">
<title>Node6&#45;&gt;Node5</title>
<path fill="none" stroke="#191970" d="M438.1942,-213.6338C451.1348,-247.0468 477.1029,-317.9679 490,-380.2801 498.2372,-420.0783 481.0427,-531.8654 508,-562.2801 511.4353,-566.156 867.5962,-640.5542 872,-643.2801 910.7554,-667.2695 939.5112,-715.7654 950.5518,-736.5088"/>
<polygon fill="#191970" stroke="#191970" points="441.3901,-212.1962 434.4835,-204.1619 434.8723,-214.7496 441.3901,-212.1962"/>
</g>
<!-- Node9 -->
<g id="node6" class="node">
<title>Node9</title>
<polygon fill="#ffffff" stroke="#bfbfbf" points="667,-177.2801 667,-207.2801 780,-207.2801 780,-177.2801 667,-177.2801"/>
<text text-anchor="start" x="675" y="-195.2801" font-family="Helvetica,sans-Serif" font-size="10.00" fill="#000000">vector&lt; pkgAcquire</text>
<text text-anchor="middle" x="723.5" y="-184.2801" font-family="Helvetica,sans-Serif" font-size="10.00" fill="#000000">::Item *&gt;</text>
</g>
<!-- Node6&#45;&gt;Node9 -->
<g id="edge6" class="edge">
<title>Node6&#45;&gt;Node9</title>
<path fill="none" stroke="#9a32cd" stroke-dasharray="5,2" d="M460.2905,-194.0767C508.6421,-193.7467 605.0014,-193.089 666.7509,-192.6675"/>
<polygon fill="#9a32cd" stroke="#9a32cd" points="460.1554,-190.5775 450.1795,-194.1458 460.2032,-197.5773 460.1554,-190.5775"/>
<text text-anchor="middle" x="567.5" y="-197.2801" font-family="Helvetica,sans-Serif" font-size="10.00" fill="#000000"> elements</text>
</g>
<!-- Node12 -->
<g id="node9" class="node">
<title>Node12</title>
<g id="a_node9"><a xlink:href="structpkgAcquire_1_1ItemDesc.xhtml" target="_top" xlink:title="Represents a single download source from which an item should be downloaded. ">
<polygon fill="#ffffff" stroke="#000000" points="692,-86.7801 692,-105.7801 755,-105.7801 755,-86.7801 692,-86.7801"/>
<text text-anchor="middle" x="723.5" y="-93.7801" font-family="Helvetica,sans-Serif" font-size="10.00" fill="#000000">ItemDesc</text>
</a>
</g>
</g>
<!-- Node6&#45;&gt;Node12 -->
<g id="edge14" class="edge">
<title>Node6&#45;&gt;Node12</title>
<path fill="none" stroke="#9a32cd" stroke-dasharray="5,2" d="M459.8996,-184.4468C516.2487,-165.5996 638.8141,-124.6051 694.6944,-105.9147"/>
<polygon fill="#9a32cd" stroke="#9a32cd" points="458.5529,-181.2066 450.1795,-187.6979 460.7733,-187.8451 458.5529,-181.2066"/>
<text text-anchor="middle" x="567.5" y="-171.2801" font-family="Helvetica,sans-Serif" font-size="10.00" fill="#000000"> Owner</text>
</g>
<!-- Node7 -->
<g id="node4" class="node">
<title>Node7</title>
<g id="a_node4"><a xlink:href="classWeakPointable.xhtml" target="_top" xlink:title="WeakPointable">
<polygon fill="#ffffff" stroke="#000000" points="156,-146.7801 156,-165.7801 245,-165.7801 245,-146.7801 156,-146.7801"/>
<text text-anchor="middle" x="200.5" y="-153.7801" font-family="Helvetica,sans-Serif" font-size="10.00" fill="#000000">WeakPointable</text>
</a>
</g>
</g>
<!-- Node7&#45;&gt;Node6 -->
<g id="edge3" class="edge">
<title>Node7&#45;&gt;Node6</title>
<path fill="none" stroke="#191970" d="M250.8842,-167.9214C254.9754,-168.7583 259.0523,-169.5563 263,-170.2801 316.1671,-180.0284 379.4373,-188.162 410.8211,-191.966"/>
<polygon fill="#191970" stroke="#191970" points="251.2579,-164.4232 240.7505,-165.7811 249.8114,-171.2721 251.2579,-164.4232"/>
</g>
<!-- Node7&#45;&gt;Node12 -->
<g id="edge11" class="edge">
<title>Node7&#45;&gt;Node12</title>
<path fill="none" stroke="#191970" d="M205.7077,-136.9485C213.5658,-111.9406 231.0469,-69.226 263,-49.2801 400.2352,36.3852 470.4854,-8.3504 627,-49.2801 657.6487,-57.295 690.1466,-75.3911 708.5222,-86.6449"/>
<polygon fill="#191970" stroke="#191970" points="202.2871,-136.1757 202.8356,-146.7563 209.005,-138.143 202.2871,-136.1757"/>
</g>
<!-- Node15 -->
<g id="node12" class="node">
<title>Node15</title>
<g id="a_node12"><a xlink:href="classpkgAcquire_1_1Worker.xhtml" target="_top" xlink:title="A fetch subprocess. ">
<polygon fill="#ffffff" stroke="#000000" points="1378,-312.7801 1378,-331.7801 1429,-331.7801 1429,-312.7801 1378,-312.7801"/>
<text text-anchor="middle" x="1403.5" y="-319.7801" font-family="Helvetica,sans-Serif" font-size="10.00" fill="#000000">Worker</text>
</a>
</g>
</g>
<!-- Node7&#45;&gt;Node15 -->
<g id="edge18" class="edge">
<title>Node7&#45;&gt;Node15</title>
<path fill="none" stroke="#191970" d="M255.3632,-153.6917C361.4069,-149.482 601.7192,-143.8045 802,-167.2801 1041.9231,-195.4024 1108.8293,-193.2718 1333,-283.2801 1341.7004,-286.7735 1342.8602,-289.6276 1351,-294.2801 1362.1207,-300.6363 1374.7857,-307.4043 1384.8899,-312.6938"/>
<polygon fill="#191970" stroke="#191970" points="255.0713,-150.2007 245.2227,-154.1063 255.3573,-157.1948 255.0713,-150.2007"/>
</g>
<!-- Node8 -->
<g id="node5" class="node">
<title>Node8</title>
<g id="a_node5"><a xlink:href="classpkgAcquire.xhtml" target="_top" xlink:title="The core download scheduler. {{{. ">
<polygon fill="#ffffff" stroke="#000000" points="920,-272.7801 920,-291.7801 991,-291.7801 991,-272.7801 920,-272.7801"/>
<text text-anchor="middle" x="955.5" y="-279.7801" font-family="Helvetica,sans-Serif" font-size="10.00" fill="#000000">pkgAcquire</text>
</a>
</g>
</g>
<!-- Node8&#45;&gt;Node6 -->
<g id="edge4" class="edge">
<title>Node8&#45;&gt;Node6</title>
<path fill="none" stroke="#9a32cd" stroke-dasharray="5,2" d="M914.8306,-269.9172C901.2973,-266.115 886.0844,-262.174 872,-259.2801 712.0446,-226.4146 669.1099,-235.9161 508,-209.2801 488.2593,-206.0164 465.828,-201.5965 450.1958,-198.4007"/>
<polygon fill="#9a32cd" stroke="#9a32cd" points="914.2283,-273.3855 924.8057,-272.7781 916.1581,-266.6568 914.2283,-273.3855"/>
<text text-anchor="middle" x="723.5" y="-249.2801" font-family="Helvetica,sans-Serif" font-size="10.00" fill="#000000"> Owner</text>
</g>
<!-- Node10 -->
<g id="node7" class="node">
<title>Node10</title>
<g id="a_node7"><a xlink:href="classpkgAcquire_1_1Queue.xhtml" target="_top" xlink:title="A single download queue in a pkgAcquire object. {{{. ">
<polygon fill="#ffffff" stroke="#000000" points="1157,-303.7801 1157,-322.7801 1205,-322.7801 1205,-303.7801 1157,-303.7801"/>
<text text-anchor="middle" x="1181" y="-310.7801" font-family="Helvetica,sans-Serif" font-size="10.00" fill="#000000">Queue</text>
</a>
</g>
</g>
<!-- Node8&#45;&gt;Node10 -->
<g id="edge8" class="edge">
<title>Node8&#45;&gt;Node10</title>
<path fill="none" stroke="#9a32cd" stroke-dasharray="5,2" d="M1001.2204,-285.1615C1026.8219,-287.0902 1059.2786,-290.059 1088,-294.2801 1111.4781,-297.7306 1137.9691,-303.311 1156.6549,-307.5334"/>
<polygon fill="#9a32cd" stroke="#9a32cd" points="1001.284,-281.657 991.0566,-284.423 1000.7766,-288.6385 1001.284,-281.657"/>
<text text-anchor="middle" x="1063.5" y="-297.2801" font-family="Helvetica,sans-Serif" font-size="10.00" fill="#000000"> Owner</text>
</g>
<!-- Node9&#45;&gt;Node8 -->
<g id="edge5" class="edge">
<title>Node9&#45;&gt;Node8</title>
<path fill="none" stroke="#9a32cd" stroke-dasharray="5,2" d="M790.5103,-198.3773C816.7197,-202.4215 846.5383,-209.137 872,-220.2801 901.7739,-233.3104 930.9594,-258.6687 945.6641,-272.5767"/>
<polygon fill="#9a32cd" stroke="#9a32cd" points="790.6792,-194.8656 780.2823,-196.9039 789.6811,-201.7941 790.6792,-194.8656"/>
<text text-anchor="middle" x="846" y="-223.2801" font-family="Helvetica,sans-Serif" font-size="10.00" fill="#000000"> Items</text>
</g>
<!-- Node11 -->
<g id="node8" class="node">
<title>Node11</title>
<g id="a_node8"><a xlink:href="structpkgAcquire_1_1Queue_1_1QItem.xhtml" target="_top" xlink:title="A single item placed in this queue. ">
<polygon fill="#ffffff" stroke="#000000" points="1582.5,-216.7801 1582.5,-235.7801 1629.5,-235.7801 1629.5,-216.7801 1582.5,-216.7801"/>
<text text-anchor="middle" x="1606" y="-223.7801" font-family="Helvetica,sans-Serif" font-size="10.00" fill="#000000">QItem</text>
</a>
</g>
</g>
<!-- Node9&#45;&gt;Node11 -->
<g id="edge15" class="edge">
<title>Node9&#45;&gt;Node11</title>
<path fill="none" stroke="#9a32cd" stroke-dasharray="5,2" d="M790.2585,-194.8521C971.8088,-201.8467 1468.5406,-220.9842 1582.4895,-225.3743"/>
<polygon fill="#9a32cd" stroke="#9a32cd" points="790.1742,-191.3463 780.0468,-194.4587 789.9046,-198.3411 790.1742,-191.3463"/>
<text text-anchor="middle" x="1181" y="-216.2801" font-family="Helvetica,sans-Serif" font-size="10.00" fill="#000000"> Owners</text>
</g>
<!-- Node10&#45;&gt;Node8 -->
<g id="edge7" class="edge">
<title>Node10&#45;&gt;Node8</title>
<path fill="none" stroke="#9a32cd" stroke-dasharray="5,2" d="M1146.9386,-314.2019C1118.0181,-314.4228 1075.517,-313.4195 1039,-307.2801 1019.3018,-303.9683 997.7173,-297.4251 981.4289,-291.8633"/>
<polygon fill="#9a32cd" stroke="#9a32cd" points="1146.989,-317.7016 1156.9428,-314.0724 1146.8983,-310.7022 1146.989,-317.7016"/>
<text text-anchor="middle" x="1063.5" y="-316.2801" font-family="Helvetica,sans-Serif" font-size="10.00" fill="#000000"> Queues</text>
</g>
<!-- Node10&#45;&gt;Node15 -->
<g id="edge19" class="edge">
<title>Node10&#45;&gt;Node15</title>
<path fill="none" stroke="#9a32cd" stroke-dasharray="5,2" d="M1215.4135,-314.7963C1232.9494,-315.5598 1254.6106,-316.4888 1274,-317.2801 1309.9691,-318.748 1351.5628,-320.3341 1377.6998,-321.3173"/>
<polygon fill="#9a32cd" stroke="#9a32cd" points="1215.2285,-311.285 1205.0853,-314.3451 1214.9229,-318.2783 1215.2285,-311.285"/>
<text text-anchor="middle" x="1303.5" y="-323.2801" font-family="Helvetica,sans-Serif" font-size="10.00" fill="#000000"> OwnerQ</text>
</g>
<!-- Node11&#45;&gt;Node10 -->
<g id="edge9" class="edge">
<title>Node11&#45;&gt;Node10</title>
<path fill="none" stroke="#9a32cd" stroke-dasharray="5,2" d="M1572.1795,-233.3017C1509.7313,-246.2526 1372.0956,-274.7295 1256,-298.2801 1239.0823,-301.7119 1220.0061,-305.5264 1205.3263,-308.4499"/>
<polygon fill="#9a32cd" stroke="#9a32cd" points="1573.1634,-236.6722 1582.244,-231.2139 1571.7415,-229.8182 1573.1634,-236.6722"/>
<text text-anchor="middle" x="1403.5" y="-282.2801" font-family="Helvetica,sans-Serif" font-size="10.00" fill="#000000"> Items</text>
</g>
<!-- Node11&#45;&gt;Node11 -->
<g id="edge16" class="edge">
<title>Node11&#45;&gt;Node11</title>
<path fill="none" stroke="#9a32cd" stroke-dasharray="5,2" d="M1593.1091,-246.0464C1594.1215,-250.7766 1598.4185,-254.2801 1606,-254.2801 1618.4414,-254.2801 1622.0378,-244.8454 1616.789,-236.0372"/>
<polygon fill="#9a32cd" stroke="#9a32cd" points="1596.581,-246.543 1595.211,-236.0372 1589.7305,-245.1044 1596.581,-246.543"/>
<text text-anchor="middle" x="1606" y="-257.2801" font-family="Helvetica,sans-Serif" font-size="10.00" fill="#000000"> Next</text>
</g>
<!-- Node11&#45;&gt;Node15 -->
<g id="edge24" class="edge">
<title>Node11&#45;&gt;Node15</title>
<path fill="none" stroke="#9a32cd" stroke-dasharray="5,2" d="M1593.7163,-244.2331C1581.221,-261.0084 1560.2793,-285.3505 1536,-298.2801 1502.0566,-316.3561 1457.0256,-321.1114 1429.1718,-322.2014"/>
<polygon fill="#9a32cd" stroke="#9a32cd" points="1596.7719,-245.9782 1599.7568,-235.8125 1591.0839,-241.898 1596.7719,-245.9782"/>
<text text-anchor="middle" x="1505" y="-320.2801" font-family="Helvetica,sans-Serif" font-size="10.00" fill="#000000"> CurrentItem</text>
</g>
<!-- Node12&#45;&gt;Node6 -->
<g id="edge37" class="edge">
<title>Node12&#45;&gt;Node6</title>
<path fill="none" stroke="#9a32cd" stroke-dasharray="5,2" d="M681.776,-92.0014C636.6876,-89.1819 563.8078,-89.9674 508,-116.2801 475.0208,-131.8293 448.1119,-167.5953 436.5734,-184.7553"/>
<polygon fill="#9a32cd" stroke="#9a32cd" points="681.5616,-95.4949 691.7854,-92.7156 682.0599,-88.5127 681.5616,-95.4949"/>
<text text-anchor="middle" x="567.5" y="-119.2801" font-family="Helvetica,sans-Serif" font-size="10.00" fill="#000000"> Desc</text>
</g>
<!-- Node12&#45;&gt;Node11 -->
<g id="edge10" class="edge">
<title>Node12&#45;&gt;Node11</title>
<path fill="none" stroke="#191970" d="M765.3612,-99.7497C811.7933,-103.2939 888.9449,-108.2801 955.5,-108.2801 955.5,-108.2801 955.5,-108.2801 1403.5,-108.2801 1489.355,-108.2801 1571.2491,-188.4418 1597.3871,-216.6237"/>
<polygon fill="#191970" stroke="#191970" points="765.6124,-96.2588 755.3712,-98.9731 765.0698,-103.2377 765.6124,-96.2588"/>
</g>
<!-- Node13 -->
<g id="node10" class="node">
<title>Node13</title>
<g id="a_node10"><a xlink:title="STL class. ">
<polygon fill="#ffffff" stroke="#bfbfbf" points="178.5,-561.7801 178.5,-580.7801 222.5,-580.7801 222.5,-561.7801 178.5,-561.7801"/>
<text text-anchor="middle" x="200.5" y="-568.7801" font-family="Helvetica,sans-Serif" font-size="10.00" fill="#000000">string</text>
</a>
</g>
</g>
<!-- Node13&#45;&gt;Node5 -->
<g id="edge59" class="edge">
<title>Node13&#45;&gt;Node5</title>
<path fill="none" stroke="#9a32cd" stroke-dasharray="5,2" d="M201.9218,-591.1823C205.545,-625.2799 218.3099,-694.1922 263,-725.2801 362.851,-794.7397 737.1616,-767.5551 889.941,-753.0777"/>
<polygon fill="#9a32cd" stroke="#9a32cd" points="205.393,-590.7043 201.0106,-581.0584 198.4212,-591.3319 205.393,-590.7043"/>
<text text-anchor="middle" x="567.5" y="-773.2801" font-family="Helvetica,sans-Serif" font-size="10.00" fill="#000000"> PartialFile</text>
</g>
<!-- Node13&#45;&gt;Node6 -->
<g id="edge36" class="edge">
<title>Node13&#45;&gt;Node6</title>
<path fill="none" stroke="#9a32cd" stroke-dasharray="5,2" d="M201.2296,-551.1564C204.0757,-484.3912 216.6811,-271.7984 263,-225.2801 283.5016,-204.6902 371.2171,-197.4446 410.8835,-195.1887"/>
<polygon fill="#9a32cd" stroke="#9a32cd" points="197.717,-551.4067 200.8174,-561.5378 204.7115,-551.6846 197.717,-551.4067"/>
<text text-anchor="middle" x="308" y="-261.2801" font-family="Helvetica,sans-Serif" font-size="10.00" fill="#000000"> ActiveSubprocess</text>
<text text-anchor="middle" x="308" y="-250.2801" font-family="Helvetica,sans-Serif" font-size="10.00" fill="#000000">DestFile</text>
<text text-anchor="middle" x="308" y="-239.2801" font-family="Helvetica,sans-Serif" font-size="10.00" fill="#000000">ErrorText</text>
<text text-anchor="middle" x="308" y="-228.2801" font-family="Helvetica,sans-Serif" font-size="10.00" fill="#000000">UsedMirror</text>
</g>
<!-- Node13&#45;&gt;Node8 -->
<g id="edge33" class="edge">
<title>Node13&#45;&gt;Node8</title>
<path fill="none" stroke="#9a32cd" stroke-dasharray="5,2" d="M203.1584,-551.7135C210.2939,-502.2567 231.4862,-374.2566 263,-347.2801 362.7609,-261.8826 792.8777,-274.6748 919.9924,-280.4539"/>
<polygon fill="#9a32cd" stroke="#9a32cd" points="199.6729,-551.3667 201.7486,-561.7562 206.6049,-552.3399 199.6729,-551.3667"/>
<text text-anchor="middle" x="567.5" y="-287.2801" font-family="Helvetica,sans-Serif" font-size="10.00" fill="#000000"> Lock</text>
</g>
<!-- Node13&#45;&gt;Node10 -->
<g id="edge30" class="edge">
<title>Node13&#45;&gt;Node10</title>
<path fill="none" stroke="#9a32cd" stroke-dasharray="5,2" d="M206.1643,-551.828C214.7778,-524.9917 233.3704,-476.3038 263,-444.2801 300.8924,-403.3258 317.2981,-395.419 371,-380.2801 424.5822,-365.1749 816.6179,-379.9408 872,-374.2801 979.4356,-363.299 1105.0145,-332.9549 1156.7978,-319.6601"/>
<polygon fill="#9a32cd" stroke="#9a32cd" points="202.7609,-550.9882 203.1696,-561.5752 209.4522,-553.0441 202.7609,-550.9882"/>
<text text-anchor="middle" x="723.5" y="-379.2801" font-family="Helvetica,sans-Serif" font-size="10.00" fill="#000000"> Name</text>
</g>
<!-- Node13&#45;&gt;Node12 -->
<g id="edge12" class="edge">
<title>Node13&#45;&gt;Node12</title>
<path fill="none" stroke="#9a32cd" stroke-dasharray="5,2" d="M201.4743,-551.334C205.2036,-482.1712 220.5576,-253.7454 263,-196.2801 364.2183,-59.2347 605.4923,-78.9813 691.9774,-91.1157"/>
<polygon fill="#9a32cd" stroke="#9a32cd" points="197.9608,-551.5074 200.9408,-561.6745 204.9515,-551.8681 197.9608,-551.5074"/>
<text text-anchor="middle" x="430.5" y="-141.2801" font-family="Helvetica,sans-Serif" font-size="10.00" fill="#000000"> Description</text>
<text text-anchor="middle" x="430.5" y="-130.2801" font-family="Helvetica,sans-Serif" font-size="10.00" fill="#000000">URI</text>
<text text-anchor="middle" x="430.5" y="-119.2801" font-family="Helvetica,sans-Serif" font-size="10.00" fill="#000000">ShortDesc</text>
</g>
<!-- Node13&#45;&gt;Node15 -->
<g id="edge25" class="edge">
<title>Node13&#45;&gt;Node15</title>
<path fill="none" stroke="#9a32cd" stroke-dasharray="5,2" d="M232.7652,-566.2315C326.9497,-551.948 609.7816,-512.2801 846,-512.2801 846,-512.2801 846,-512.2801 1181,-512.2801 1256.1361,-512.2801 1280.4215,-491.9544 1333,-438.2801 1365.8178,-404.7784 1390.2147,-353.2668 1399.452,-331.989"/>
<polygon fill="#9a32cd" stroke="#9a32cd" points="232.0858,-562.7946 222.7298,-567.7661 233.144,-569.7141 232.0858,-562.7946"/>
<text text-anchor="middle" x="846" y="-538.2801" font-family="Helvetica,sans-Serif" font-size="10.00" fill="#000000"> OutQueue</text>
<text text-anchor="middle" x="846" y="-527.2801" font-family="Helvetica,sans-Serif" font-size="10.00" fill="#000000">Access</text>
<text text-anchor="middle" x="846" y="-516.2801" font-family="Helvetica,sans-Serif" font-size="10.00" fill="#000000">Status</text>
</g>
<!-- Node16 -->
<g id="node13" class="node">
<title>Node16</title>
<g id="a_node13"><a xlink:href="structpkgAcquire_1_1MethodConfig.xhtml" target="_top" xlink:title="Information about the properties of a single acquire method. {{{. ">
<polygon fill="#ffffff" stroke="#000000" points="682,-396.7801 682,-415.7801 765,-415.7801 765,-396.7801 682,-396.7801"/>
<text text-anchor="middle" x="723.5" y="-403.7801" font-family="Helvetica,sans-Serif" font-size="10.00" fill="#000000">MethodConfig</text>
</a>
</g>
</g>
<!-- Node13&#45;&gt;Node16 -->
<g id="edge22" class="edge">
<title>Node13&#45;&gt;Node16</title>
<path fill="none" stroke="#9a32cd" stroke-dasharray="5,2" d="M208.4895,-552.4053C218.3064,-531.4698 236.9271,-498.1625 263,-479.2801 335.056,-427.096 600.6268,-422.55 627,-419.2801 644.9507,-417.0545 664.7541,-414.4183 681.7255,-412.1035"/>
<polygon fill="#9a32cd" stroke="#9a32cd" points="205.2775,-551.0145 204.3834,-561.5715 211.6658,-553.8762 205.2775,-551.0145"/>
<text text-anchor="middle" x="430.5" y="-457.2801" font-family="Helvetica,sans-Serif" font-size="10.00" fill="#000000"> Access</text>
<text text-anchor="middle" x="430.5" y="-446.2801" font-family="Helvetica,sans-Serif" font-size="10.00" fill="#000000">Version</text>
</g>
<!-- Node19 -->
<g id="node16" class="node">
<title>Node19</title>
<polygon fill="#ffffff" stroke="#bfbfbf" points="508,-472.7801 508,-491.7801 627,-491.7801 627,-472.7801 508,-472.7801"/>
<text text-anchor="middle" x="567.5" y="-479.7801" font-family="Helvetica,sans-Serif" font-size="10.00" fill="#000000">vector&lt; std::string &gt;</text>
</g>
<!-- Node13&#45;&gt;Node19 -->
<g id="edge28" class="edge">
<title>Node13&#45;&gt;Node19</title>
<path fill="none" stroke="#9a32cd" stroke-dasharray="5,2" d="M212.8441,-553.0679C224.034,-538.2053 241.9641,-518.1136 263,-508.2801 341.5857,-471.5442 443.9965,-471.1272 507.7444,-475.6221"/>
<polygon fill="#9a32cd" stroke="#9a32cd" points="209.7728,-551.3442 206.7803,-561.5077 215.4577,-555.4287 209.7728,-551.3442"/>
<text text-anchor="middle" x="308" y="-511.2801" font-family="Helvetica,sans-Serif" font-size="10.00" fill="#000000"> elements</text>
</g>
<!-- Node20 -->
<g id="node17" class="node">
<title>Node20</title>
<g id="a_node17"><a xlink:href="classIndexTarget.xhtml" target="_top" xlink:title="Information about an index file. ">
<polygon fill="#ffffff" stroke="#000000" points="686.5,-819.7801 686.5,-838.7801 760.5,-838.7801 760.5,-819.7801 686.5,-819.7801"/>
<text text-anchor="middle" x="723.5" y="-826.7801" font-family="Helvetica,sans-Serif" font-size="10.00" fill="#000000">IndexTarget</text>
</a>
</g>
</g>
<!-- Node13&#45;&gt;Node20 -->
<g id="edge41" class="edge">
<title>Node13&#45;&gt;Node20</title>
<path fill="none" stroke="#9a32cd" stroke-dasharray="5,2" d="M204.2971,-590.9023C213.163,-634.6232 236.497,-737.9533 263,-760.2801 279.2486,-773.9683 579.4221,-811.7142 686.1917,-824.7682"/>
<polygon fill="#9a32cd" stroke="#9a32cd" points="207.6982,-590.0598 202.3181,-580.9326 200.8321,-591.4227 207.6982,-590.0598"/>
<text text-anchor="middle" x="430.5" y="-834.2801" font-family="Helvetica,sans-Serif" font-size="10.00" fill="#000000"> Description</text>
<text text-anchor="middle" x="430.5" y="-823.2801" font-family="Helvetica,sans-Serif" font-size="10.00" fill="#000000">URI</text>
<text text-anchor="middle" x="430.5" y="-812.2801" font-family="Helvetica,sans-Serif" font-size="10.00" fill="#000000">ShortDesc</text>
<text text-anchor="middle" x="430.5" y="-801.2801" font-family="Helvetica,sans-Serif" font-size="10.00" fill="#000000">MetaKey</text>
</g>
<!-- Node21 -->
<g id="node18" class="node">
<title>Node21</title>
<polygon fill="#ffffff" stroke="#bfbfbf" points="371,-855.2801 371,-885.2801 490,-885.2801 490,-855.2801 371,-855.2801"/>
<text text-anchor="start" x="379" y="-873.2801" font-family="Helvetica,sans-Serif" font-size="10.00" fill="#000000">map&lt; std::string, std</text>
<text text-anchor="middle" x="430.5" y="-862.2801" font-family="Helvetica,sans-Serif" font-size="10.00" fill="#000000">::string &gt;</text>
</g>
<!-- Node13&#45;&gt;Node21 -->
<g id="edge40" class="edge">
<title>Node13&#45;&gt;Node21</title>
<path fill="none" stroke="#9a32cd" stroke-dasharray="5,2" d="M203.4214,-590.936C211.2539,-641.2571 234.1017,-773.0413 263,-805.2801 290.6911,-836.1721 334.8198,-852.5097 370.8322,-861.0777"/>
<polygon fill="#9a32cd" stroke="#9a32cd" points="206.873,-590.353 201.9058,-580.9948 199.953,-591.4081 206.873,-590.353"/>
<text text-anchor="middle" x="308" y="-868.2801" font-family="Helvetica,sans-Serif" font-size="10.00" fill="#000000"> keys</text>
<text text-anchor="middle" x="308" y="-857.2801" font-family="Helvetica,sans-Serif" font-size="10.00" fill="#000000">elements</text>
</g>
<!-- Node13&#45;&gt;Node24 -->
<g id="edge48" class="edge">
<title>Node13&#45;&gt;Node24</title>
<path fill="none" stroke="#9a32cd" stroke-dasharray="5,2" d="M204.2176,-591.168C216.8717,-658.6575 257.777,-875.0535 263,-880.2801 316.6951,-934.0123 354.5374,-914.2801 430.5,-914.2801 430.5,-914.2801 430.5,-914.2801 846,-914.2801 899.9185,-914.2801 1258.9287,-812.0016 1370.4877,-779.8399"/>
<polygon fill="#9a32cd" stroke="#9a32cd" points="207.5981,-590.2047 202.3174,-581.0197 200.7177,-591.4931 207.5981,-590.2047"/>
<text text-anchor="middle" x="846" y="-917.2801" font-family="Helvetica,sans-Serif" font-size="10.00" fill="#000000"> BaseURI</text>
</g>
<!-- Node26 -->
<g id="node23" class="node">
<title>Node26</title>
<g id="a_node23"><a xlink:href="classmetaIndex.xhtml" target="_top" xlink:title="metaIndex">
<polygon fill="#ffffff" stroke="#000000" points="921,-616.7801 921,-635.7801 990,-635.7801 990,-616.7801 921,-616.7801"/>
<text text-anchor="middle" x="955.5" y="-623.7801" font-family="Helvetica,sans-Serif" font-size="10.00" fill="#000000">metaIndex</text>
</a>
</g>
</g>
<!-- Node13&#45;&gt;Node26 -->
<g id="edge58" class="edge">
<title>Node13&#45;&gt;Node26</title>
<path fill="none" stroke="#9a32cd" stroke-dasharray="5,2" d="M232.8711,-575.37C267.132,-579.5854 322.8042,-586.113 371,-590.2801 425.6333,-595.0037 803.3307,-617.3351 920.7483,-624.2405"/>
<polygon fill="#9a32cd" stroke="#9a32cd" points="232.8911,-571.8457 222.5364,-574.0885 232.0296,-578.7925 232.8911,-571.8457"/>
<text text-anchor="middle" x="567.5" y="-654.2801" font-family="Helvetica,sans-Serif" font-size="10.00" fill="#000000"> Codename</text>
<text text-anchor="middle" x="567.5" y="-643.2801" font-family="Helvetica,sans-Serif" font-size="10.00" fill="#000000">Dist</text>
<text text-anchor="middle" x="567.5" y="-632.2801" font-family="Helvetica,sans-Serif" font-size="10.00" fill="#000000">Suite</text>
<text text-anchor="middle" x="567.5" y="-621.2801" font-family="Helvetica,sans-Serif" font-size="10.00" fill="#000000">URI</text>
<text text-anchor="middle" x="567.5" y="-610.2801" font-family="Helvetica,sans-Serif" font-size="10.00" fill="#000000">SignedBy</text>
</g>
<!-- Node27 -->
<g id="node24" class="node">
<title>Node27</title>
<polygon fill="#ffffff" stroke="#bfbfbf" points="645,-664.2801 645,-694.2801 802,-694.2801 802,-664.2801 645,-664.2801"/>
<text text-anchor="start" x="653" y="-682.2801" font-family="Helvetica,sans-Serif" font-size="10.00" fill="#000000">map&lt; std::string, metaIndex</text>
<text text-anchor="middle" x="723.5" y="-671.2801" font-family="Helvetica,sans-Serif" font-size="10.00" fill="#000000">::checkSum *&gt;</text>
</g>
<!-- Node13&#45;&gt;Node27 -->
<g id="edge52" class="edge">
<title>Node13&#45;&gt;Node27</title>
<path fill="none" stroke="#9a32cd" stroke-dasharray="5,2" d="M216.3765,-588.6023C228.1043,-600.2852 245.0851,-615.0235 263,-623.2801 329.1026,-653.7454 531.4264,-669.1071 644.6592,-675.5058"/>
<polygon fill="#9a32cd" stroke="#9a32cd" points="218.6142,-585.8811 209.1496,-581.1196 213.5791,-590.744 218.6142,-585.8811"/>
<text text-anchor="middle" x="430.5" y="-667.2801" font-family="Helvetica,sans-Serif" font-size="10.00" fill="#000000"> keys</text>
</g>
<!-- Node28 -->
<g id="node25" class="node">
<title>Node28</title>
<g id="a_node25"><a xlink:href="structmetaIndex_1_1checkSum.xhtml" target="_top" xlink:title="checkSum">
<polygon fill="#ffffff" stroke="#000000" points="397,-698.7801 397,-717.7801 464,-717.7801 464,-698.7801 397,-698.7801"/>
<text text-anchor="middle" x="430.5" y="-705.7801" font-family="Helvetica,sans-Serif" font-size="10.00" fill="#000000">checkSum</text>
</a>
</g>
</g>
<!-- Node13&#45;&gt;Node28 -->
<g id="edge55" class="edge">
<title>Node13&#45;&gt;Node28</title>
<path fill="none" stroke="#9a32cd" stroke-dasharray="5,2" d="M205.5687,-590.7813C213.3373,-616.4751 230.7886,-661.0066 263,-683.2801 302.7818,-710.7883 360.5997,-713.2668 396.8482,-711.5244"/>
<polygon fill="#9a32cd" stroke="#9a32cd" points="208.9044,-589.7146 202.8174,-581.0429 202.1681,-591.6178 208.9044,-589.7146"/>
<text text-anchor="middle" x="308" y="-713.2801" font-family="Helvetica,sans-Serif" font-size="10.00" fill="#000000"> MetaKeyFilename</text>
</g>
<!-- Node14 -->
<g id="node11" class="node">
<title>Node14</title>
<g id="a_node11"><a xlink:title="STL class. ">
<polygon fill="#ffffff" stroke="#bfbfbf" points="0,-561.7801 0,-580.7801 119,-580.7801 119,-561.7801 0,-561.7801"/>
<text text-anchor="middle" x="59.5" y="-568.7801" font-family="Helvetica,sans-Serif" font-size="10.00" fill="#000000">basic_string&lt; char &gt;</text>
</a>
</g>
</g>
<!-- Node14&#45;&gt;Node13 -->
<g id="edge13" class="edge">
<title>Node14&#45;&gt;Node13</title>
<path fill="none" stroke="#191970" d="M129.6368,-571.2801C147.2611,-571.2801 164.9157,-571.2801 178.1946,-571.2801"/>
<polygon fill="#191970" stroke="#191970" points="129.2967,-567.7802 119.2967,-571.2801 129.2967,-574.7802 129.2967,-567.7802"/>
</g>
<!-- Node15&#45;&gt;Node8 -->
<g id="edge35" class="edge">
<title>Node15&#45;&gt;Node8</title>
<path fill="none" stroke="#9a32cd" stroke-dasharray="5,2" d="M1368.7738,-309.4132C1357.4657,-305.5053 1344.7892,-301.4195 1333,-298.2801 1210.9782,-265.786 1059.0146,-273.113 991.1341,-278.7472"/>
<polygon fill="#9a32cd" stroke="#9a32cd" points="1367.7073,-312.7483 1378.3021,-312.7734 1370.0354,-306.1468 1367.7073,-312.7483"/>
<text text-anchor="middle" x="1181" y="-286.2801" font-family="Helvetica,sans-Serif" font-size="10.00" fill="#000000"> Workers</text>
</g>
<!-- Node15&#45;&gt;Node10 -->
<g id="edge31" class="edge">
<title>Node15&#45;&gt;Node10</title>
<path fill="none" stroke="#9a32cd" stroke-dasharray="5,2" d="M1367.9228,-311.3553C1356.8456,-308.4537 1344.5153,-305.7269 1333,-304.2801 1288.0175,-298.6283 1235.0876,-304.5882 1205.0466,-309.1384"/>
<polygon fill="#9a32cd" stroke="#9a32cd" points="1367.114,-314.7627 1377.684,-314.0374 1368.9688,-308.0129 1367.114,-314.7627"/>
<text text-anchor="middle" x="1303.5" y="-307.2801" font-family="Helvetica,sans-Serif" font-size="10.00" fill="#000000"> Workers</text>
</g>
<!-- Node15&#45;&gt;Node11 -->
<g id="edge17" class="edge">
<title>Node15&#45;&gt;Node11</title>
<path fill="none" stroke="#9a32cd" stroke-dasharray="5,2" d="M1431.5588,-308.126C1444.4474,-301.6823 1459.9573,-294.009 1474,-287.2801 1512.9309,-268.6255 1558.7486,-247.6751 1584.8825,-235.8194"/>
<polygon fill="#9a32cd" stroke="#9a32cd" points="1429.6519,-305.1668 1422.2816,-312.7779 1432.7896,-311.4242 1429.6519,-305.1668"/>
<text text-anchor="middle" x="1505" y="-290.2801" font-family="Helvetica,sans-Serif" font-size="10.00" fill="#000000"> Worker</text>
</g>
<!-- Node15&#45;&gt;Node15 -->
<g id="edge29" class="edge">
<title>Node15&#45;&gt;Node15</title>
<path fill="none" stroke="#9a32cd" stroke-dasharray="5,2" d="M1384.9824,-341.6801C1386.2191,-346.5946 1392.3916,-350.2801 1403.5,-350.2801 1421.2734,-350.2801 1426.4111,-340.8454 1418.9129,-332.0372"/>
<polygon fill="#9a32cd" stroke="#9a32cd" points="1388.3539,-342.6286 1388.0871,-332.0372 1381.6907,-340.4833 1388.3539,-342.6286"/>
<text text-anchor="middle" x="1403.5" y="-364.2801" font-family="Helvetica,sans-Serif" font-size="10.00" fill="#000000"> NextQueue</text>
<text text-anchor="middle" x="1403.5" y="-353.2801" font-family="Helvetica,sans-Serif" font-size="10.00" fill="#000000">NextAcquire</text>
</g>
<!-- Node16&#45;&gt;Node8 -->
<g id="edge32" class="edge">
<title>Node16&#45;&gt;Node8</title>
<path fill="none" stroke="#9a32cd" stroke-dasharray="5,2" d="M771.8309,-393.8399C781.9962,-390.5807 792.509,-386.7142 802,-382.2801 858.4791,-355.8936 918.4535,-311.2933 943.464,-291.8363"/>
<polygon fill="#9a32cd" stroke="#9a32cd" points="770.7734,-390.5032 762.236,-396.7774 772.8226,-397.1966 770.7734,-390.5032"/>
<text text-anchor="middle" x="846" y="-374.2801" font-family="Helvetica,sans-Serif" font-size="10.00" fill="#000000"> Configs</text>
</g>
<!-- Node16&#45;&gt;Node15 -->
<g id="edge20" class="edge">
<title>Node16&#45;&gt;Node15</title>
<path fill="none" stroke="#9a32cd" stroke-dasharray="5,2" d="M775.3205,-408.2753C882.0068,-410.9632 1132.9587,-409.9356 1333,-352.2801 1351.0217,-347.0859 1370.5783,-338.5126 1384.5119,-331.8583"/>
<polygon fill="#9a32cd" stroke="#9a32cd" points="775.242,-404.7719 765.1497,-407.9964 775.05,-411.7693 775.242,-404.7719"/>
<text text-anchor="middle" x="1063.5" y="-404.2801" font-family="Helvetica,sans-Serif" font-size="10.00" fill="#000000"> Config</text>
</g>
<!-- Node16&#45;&gt;Node16 -->
<g id="edge21" class="edge">
<title>Node16&#45;&gt;Node16</title>
<path fill="none" stroke="#9a32cd" stroke-dasharray="5,2" d="M700.8066,-425.3093C702.0445,-430.4081 709.6089,-434.2801 723.5,-434.2801 745.1836,-434.2801 751.4515,-424.8454 742.3037,-416.0372"/>
<polygon fill="#9a32cd" stroke="#9a32cd" points="704.0553,-426.6126 704.6963,-416.0372 697.6003,-423.9047 704.0553,-426.6126"/>
<text text-anchor="middle" x="723.5" y="-437.2801" font-family="Helvetica,sans-Serif" font-size="10.00" fill="#000000"> Next</text>
</g>
<!-- Node17 -->
<g id="node14" class="node">
<title>Node17</title>
<g id="a_node14"><a xlink:href="classpkgAcquire_1_1MethodConfig_1_1Private.xhtml" target="_top" xlink:title="Private">
<polygon fill="#ffffff" stroke="#000000" points="405,-389.7801 405,-408.7801 456,-408.7801 456,-389.7801 405,-389.7801"/>
<text text-anchor="middle" x="430.5" y="-396.7801" font-family="Helvetica,sans-Serif" font-size="10.00" fill="#000000">Private</text>
</a>
</g>
</g>
<!-- Node17&#45;&gt;Node16 -->
<g id="edge23" class="edge">
<title>Node17&#45;&gt;Node16</title>
<path fill="none" stroke="#9a32cd" stroke-dasharray="5,2" d="M466.4686,-400.1394C520.9768,-401.4417 624.2426,-403.9088 681.9051,-405.2864"/>
<polygon fill="#9a32cd" stroke="#9a32cd" points="466.3258,-396.6351 456.245,-399.8952 466.1585,-403.6331 466.3258,-396.6351"/>
<text text-anchor="middle" x="567.5" y="-407.2801" font-family="Helvetica,sans-Serif" font-size="10.00" fill="#000000"> d</text>
</g>
<!-- Node18 -->
<g id="node15" class="node">
<title>Node18</title>
<g id="a_node15"><a xlink:href="classpkgAcquireStatus.xhtml" target="_top" xlink:title="A monitor object for downloads controlled by the pkgAcquire class. {{{. ">
<polygon fill="#ffffff" stroke="#000000" points="672.5,-311.7801 672.5,-330.7801 774.5,-330.7801 774.5,-311.7801 672.5,-311.7801"/>
<text text-anchor="middle" x="723.5" y="-318.7801" font-family="Helvetica,sans-Serif" font-size="10.00" fill="#000000">pkgAcquireStatus</text>
</a>
</g>
</g>
<!-- Node18&#45;&gt;Node8 -->
<g id="edge34" class="edge">
<title>Node18&#45;&gt;Node8</title>
<path fill="none" stroke="#9a32cd" stroke-dasharray="5,2" d="M784.7054,-310.3702C796.417,-308.3188 808.5839,-306.2123 820,-304.2801 853.8373,-298.5529 892.4807,-292.3079 919.817,-287.9397"/>
<polygon fill="#9a32cd" stroke="#9a32cd" points="783.8041,-306.9749 774.561,-312.1531 785.0159,-313.8693 783.8041,-306.9749"/>
<text text-anchor="middle" x="846" y="-307.2801" font-family="Helvetica,sans-Serif" font-size="10.00" fill="#000000"> Log</text>
</g>
<!-- Node18&#45;&gt;Node15 -->
<g id="edge26" class="edge">
<title>Node18&#45;&gt;Node15</title>
<path fill="none" stroke="#9a32cd" stroke-dasharray="5,2" d="M764.7156,-333.8254C788.2651,-340.8886 814.2386,-348.4611 820,-349.2801 842.8811,-352.5326 848.8916,-349.6309 872,-349.2801 1076.9597,-346.1686 1129.1749,-357.0398 1333,-335.2801 1347.9745,-333.6815 1364.5434,-330.6898 1377.8541,-327.9791"/>
<polygon fill="#9a32cd" stroke="#9a32cd" points="765.4218,-330.3829 754.8373,-330.8507 763.4033,-337.0856 765.4218,-330.3829"/>
<text text-anchor="middle" x="1063.5" y="-353.2801" font-family="Helvetica,sans-Serif" font-size="10.00" fill="#000000"> Log</text>
</g>
<!-- Node19&#45;&gt;Node15 -->
<g id="edge27" class="edge">
<title>Node19&#45;&gt;Node15</title>
<path fill="none" stroke="#9a32cd" stroke-dasharray="5,2" d="M637.4586,-478.7674C693.7696,-476.242 774.9554,-473.2801 846,-473.2801 846,-473.2801 846,-473.2801 1181,-473.2801 1281.8375,-473.2801 1370.9126,-365.7811 1396.2867,-332.1876"/>
<polygon fill="#9a32cd" stroke="#9a32cd" points="637.0718,-475.2813 627.2416,-479.2331 637.3906,-482.2741 637.0718,-475.2813"/>
<text text-anchor="middle" x="955.5" y="-476.2801" font-family="Helvetica,sans-Serif" font-size="10.00" fill="#000000"> MessageQueue</text>
</g>
<!-- Node20&#45;&gt;Node5 -->
<g id="edge38" class="edge">
<title>Node20&#45;&gt;Node5</title>
<path fill="none" stroke="#9a32cd" stroke-dasharray="5,2" d="M759.5715,-816.3752C806.4264,-799.6124 887.1429,-770.7354 928.8407,-755.8177"/>
<polygon fill="#9a32cd" stroke="#9a32cd" points="758.3499,-813.0949 750.1133,-819.7589 760.7079,-819.6858 758.3499,-813.0949"/>
<text text-anchor="middle" x="846" y="-795.2801" font-family="Helvetica,sans-Serif" font-size="10.00" fill="#000000"> Target</text>
</g>
<!-- Node23 -->
<g id="node20" class="node">
<title>Node23</title>
<g id="a_node20"><a xlink:href="classpkgAcqMetaIndex.xhtml" target="_top" xlink:title="An item that is responsible for downloading the meta&#45;index {{{ file (i.e., Release) itself and verify...">
<polygon fill="#ffffff" stroke="#000000" points="1554,-778.7801 1554,-797.7801 1658,-797.7801 1658,-778.7801 1554,-778.7801"/>
<text text-anchor="middle" x="1606" y="-785.7801" font-family="Helvetica,sans-Serif" font-size="10.00" fill="#000000">pkgAcqMetaIndex</text>
</a>
</g>
</g>
<!-- Node20&#45;&gt;Node23 -->
<g id="edge49" class="edge">
<title>Node20&#45;&gt;Node23</title>
<path fill="none" stroke="#9a32cd" stroke-dasharray="5,2" d="M761.4436,-841.8251C806.9976,-855.7479 885.9643,-876.2801 955.5,-876.2801 955.5,-876.2801 955.5,-876.2801 1303.5,-876.2801 1372.112,-876.2801 1390.0542,-871.2209 1456,-852.2801 1505.2551,-838.1331 1559.8444,-811.9977 1587.6027,-797.8982"/>
<polygon fill="#9a32cd" stroke="#9a32cd" points="762.2882,-838.4223 751.6998,-838.7912 760.2072,-845.1059 762.2882,-838.4223"/>
<text text-anchor="middle" x="1181" y="-879.2801" font-family="Helvetica,sans-Serif" font-size="10.00" fill="#000000"> DetachedSigTarget</text>
</g>
<!-- Node21&#45;&gt;Node20 -->
<g id="edge39" class="edge">
<title>Node21&#45;&gt;Node20</title>
<path fill="none" stroke="#9a32cd" stroke-dasharray="5,2" d="M500.3938,-860.4997C558.7076,-852.3398 639.5535,-841.0269 686.2107,-834.498"/>
<polygon fill="#9a32cd" stroke="#9a32cd" points="499.5645,-857.0816 490.1461,-861.9337 500.5347,-864.014 499.5645,-857.0816"/>
<text text-anchor="middle" x="567.5" y="-862.2801" font-family="Helvetica,sans-Serif" font-size="10.00" fill="#000000"> Options</text>
</g>
<!-- Node22 -->
<g id="node19" class="node">
<title>Node22</title>
<g id="a_node19"><a xlink:href="classpkgAcqMetaClearSig.xhtml" target="_top" xlink:title="An item responsible for downloading clearsigned metaindexes {{{. ">
<polygon fill="#ffffff" stroke="#000000" points="1695,-778.7801 1695,-797.7801 1812,-797.7801 1812,-778.7801 1695,-778.7801"/>
<text text-anchor="middle" x="1753.5" y="-785.7801" font-family="Helvetica,sans-Serif" font-size="10.00" fill="#000000">pkgAcqMetaClearSig</text>
</a>
</g>
</g>
<!-- Node22&#45;&gt;Node5 -->
<g id="edge42" class="edge">
<title>Node22&#45;&gt;Node5</title>
<path fill="none" stroke="#9a32cd" stroke-dasharray="5,2" d="M1704.7019,-799.905C1689.8018,-802.9352 1673.3093,-805.772 1658,-807.2801 1612.0004,-811.8116 1600.1871,-809.0815 1554,-807.2801 1354.4339,-799.4964 1304.8909,-790.436 1106,-772.2801 1076.1841,-769.5583 1068.5385,-770.1658 1039,-765.2801 1023.8922,-762.7812 1007.4244,-759.2174 993.1367,-755.8502"/>
<polygon fill="#9a32cd" stroke="#9a32cd" points="1705.6665,-803.2786 1714.7289,-797.7902 1704.2218,-796.4293 1705.6665,-803.2786"/>
<text text-anchor="middle" x="1403.5" y="-805.2801" font-family="Helvetica,sans-Serif" font-size="10.00" fill="#000000"> TransactionManager</text>
</g>
<!-- Node23&#45;&gt;Node22 -->
<g id="edge43" class="edge">
<title>Node23&#45;&gt;Node22</title>
<path fill="none" stroke="#191970" d="M1668.2472,-788.2801C1677.0891,-788.2801 1686.1572,-788.2801 1694.926,-788.2801"/>
<polygon fill="#191970" stroke="#191970" points="1668.003,-784.7802 1658.003,-788.2801 1668.0029,-791.7802 1668.003,-784.7802"/>
</g>
<!-- Node24&#45;&gt;Node23 -->
<g id="edge44" class="edge">
<title>Node24&#45;&gt;Node23</title>
<path fill="none" stroke="#191970" d="M1464.3456,-775.6886C1492.9054,-778.2272 1526.5959,-781.2219 1553.954,-783.6538"/>
<polygon fill="#191970" stroke="#191970" points="1464.3476,-772.1751 1454.0769,-774.7758 1463.7277,-779.1476 1464.3476,-772.1751"/>
</g>
<!-- Node25&#45;&gt;Node24 -->
<g id="edge46" class="edge">
<title>Node25&#45;&gt;Node24</title>
<path fill="none" stroke="#9a32cd" stroke-dasharray="5,2" d="M1266.2313,-714.8417C1288.3713,-717.6676 1311.9139,-722.1622 1333,-729.2801 1354.7326,-736.6162 1377.1917,-751.0861 1390.755,-760.7233"/>
<polygon fill="#9a32cd" stroke="#9a32cd" points="1266.5121,-711.3507 1256.1715,-713.6574 1265.6936,-718.3027 1266.5121,-711.3507"/>
<text text-anchor="middle" x="1303.5" y="-732.2801" font-family="Helvetica,sans-Serif" font-size="10.00" fill="#000000"> Transaction</text>
</g>
<!-- Node26&#45;&gt;Node22 -->
<g id="edge50" class="edge">
<title>Node26&#45;&gt;Node22</title>
<path fill="none" stroke="#9a32cd" stroke-dasharray="5,2" d="M1000.3944,-626.5963C1045.9035,-626.8893 1118.3471,-627.2801 1181,-627.2801 1181,-627.2801 1181,-627.2801 1606,-627.2801 1688.6399,-627.2801 1737.4946,-744.0306 1750.1775,-778.691"/>
<polygon fill="#9a32cd" stroke="#9a32cd" points="1000.2901,-623.0956 990.2673,-626.5299 1000.2441,-630.0955 1000.2901,-623.0956"/>
<text text-anchor="middle" x="1403.5" y="-641.2801" font-family="Helvetica,sans-Serif" font-size="10.00" fill="#000000"> LastMetaIndexParser</text>
<text text-anchor="middle" x="1403.5" y="-630.2801" font-family="Helvetica,sans-Serif" font-size="10.00" fill="#000000">MetaIndexParser</text>
</g>
<!-- Node27&#45;&gt;Node26 -->
<g id="edge51" class="edge">
<title>Node27&#45;&gt;Node26</title>
<path fill="none" stroke="#9a32cd" stroke-dasharray="5,2" d="M799.309,-661.9617C840.2064,-652.6187 888.7091,-641.5384 920.6928,-634.2317"/>
<polygon fill="#9a32cd" stroke="#9a32cd" points="798.3307,-658.5949 789.3613,-664.2342 799.8897,-665.4191 798.3307,-658.5949"/>
<text text-anchor="middle" x="846" y="-659.2801" font-family="Helvetica,sans-Serif" font-size="10.00" fill="#000000"> Entries</text>
</g>
<!-- Node28&#45;&gt;Node27 -->
<g id="edge53" class="edge">
<title>Node28&#45;&gt;Node27</title>
<path fill="none" stroke="#9a32cd" stroke-dasharray="5,2" d="M474.4188,-704.5373C514.2597,-701.0754 574.6019,-695.6658 627,-690.2801 632.7869,-689.6853 638.7666,-689.051 644.7822,-688.3987"/>
<polygon fill="#9a32cd" stroke="#9a32cd" points="473.9105,-701.0681 464.2495,-705.4173 474.514,-708.0421 473.9105,-701.0681"/>
<text text-anchor="middle" x="567.5" y="-704.2801" font-family="Helvetica,sans-Serif" font-size="10.00" fill="#000000"> elements</text>
</g>
<!-- Node29 -->
<g id="node26" class="node">
<title>Node29</title>
<g id="a_node26"><a xlink:href="classHashStringList.xhtml" target="_top" xlink:title="HashStringList">
<polygon fill="#ffffff" stroke="#000000" points="157,-815.7801 157,-834.7801 244,-834.7801 244,-815.7801 157,-815.7801"/>
<text text-anchor="middle" x="200.5" y="-822.7801" font-family="Helvetica,sans-Serif" font-size="10.00" fill="#000000">HashStringList</text>
</a>
</g>
</g>
<!-- Node29&#45;&gt;Node28 -->
<g id="edge54" class="edge">
<title>Node29&#45;&gt;Node28</title>
<path fill="none" stroke="#9a32cd" stroke-dasharray="5,2" d="M228.4307,-811.0719C275.9622,-786.8928 371.3475,-738.3707 411.7406,-717.8229"/>
<polygon fill="#9a32cd" stroke="#9a32cd" points="226.648,-808.0518 219.3219,-815.7055 229.8219,-814.291 226.648,-808.0518"/>
<text text-anchor="middle" x="308" y="-793.2801" font-family="Helvetica,sans-Serif" font-size="10.00" fill="#000000"> Hashes</text>
</g>
<!-- Node30 -->
<g id="node27" class="node">
<title>Node30</title>
<polygon fill="#ffffff" stroke="#bfbfbf" points="655,-540.7801 655,-559.7801 792,-559.7801 792,-540.7801 655,-540.7801"/>
<text text-anchor="middle" x="723.5" y="-547.7801" font-family="Helvetica,sans-Serif" font-size="10.00" fill="#000000">vector&lt; pkgIndexFile *&gt;</text>
</g>
<!-- Node30&#45;&gt;Node26 -->
<g id="edge56" class="edge">
<title>Node30&#45;&gt;Node26</title>
<path fill="none" stroke="#9a32cd" stroke-dasharray="5,2" d="M802.1384,-553.3911C825.1999,-556.1396 850.0946,-560.9568 872,-569.2801 901.2056,-580.3772 930.166,-603.5996 945.1025,-616.7205"/>
<polygon fill="#9a32cd" stroke="#9a32cd" points="802.3539,-549.8942 792.0364,-552.3022 801.6036,-556.8539 802.3539,-549.8942"/>
<text text-anchor="middle" x="846" y="-572.2801" font-family="Helvetica,sans-Serif" font-size="10.00" fill="#000000"> Indexes</text>
</g>
<!-- Node31 -->
<g id="node28" class="node">
<title>Node31</title>
<g id="a_node28"><a xlink:href="classpkgIndexFile.xhtml" target="_top" xlink:title="pkgIndexFile">
<polygon fill="#ffffff" stroke="#000000" points="391.5,-561.7801 391.5,-580.7801 469.5,-580.7801 469.5,-561.7801 391.5,-561.7801"/>
<text text-anchor="middle" x="430.5" y="-568.7801" font-family="Helvetica,sans-Serif" font-size="10.00" fill="#000000">pkgIndexFile</text>
</a>
</g>
</g>
<!-- Node31&#45;&gt;Node30 -->
<g id="edge57" class="edge">
<title>Node31&#45;&gt;Node30</title>
<path fill="none" stroke="#9a32cd" stroke-dasharray="5,2" d="M479.8453,-567.7434C527.8206,-564.3049 601.1065,-559.0523 654.7778,-555.2056"/>
<polygon fill="#9a32cd" stroke="#9a32cd" points="479.4354,-564.2637 469.7113,-568.4697 479.9359,-571.2458 479.4354,-564.2637"/>
<text text-anchor="middle" x="567.5" y="-569.2801" font-family="Helvetica,sans-Serif" font-size="10.00" fill="#000000"> elements</text>
</g>
</g>
</svg>
