<?xml version="1.0" encoding="UTF-8" standalone="no"?>
<!DOCTYPE svg PUBLIC "-//W3C//DTD SVG 1.1//EN"
 "http://www.w3.org/Graphics/SVG/1.1/DTD/svg11.dtd">
<!-- Generated by graphviz version 2.40.1 (20161225.0304)
 -->
<!-- Title: CommandLine Pages: 1 -->
<svg width="146pt" height="95pt"
 viewBox="0.00 0.00 146.00 95.00" xmlns="http://www.w3.org/2000/svg" xmlns:xlink="http://www.w3.org/1999/xlink">
<g id="graph0" class="graph" transform="scale(1 1) rotate(0) translate(4 91)">
<title>CommandLine</title>
<polygon fill="#ffffff" stroke="transparent" points="-4,4 -4,-91 142,-91 142,4 -4,4"/>
<!-- Node1 -->
<g id="node1" class="node">
<title>Node1</title>
<polygon fill="#bfbfbf" stroke="#000000" points="14.5,-.5 14.5,-19.5 101.5,-19.5 101.5,-.5 14.5,-.5"/>
<text text-anchor="middle" x="58" y="-7.5" font-family="Helvetica,sans-Serif" font-size="10.00" fill="#000000">CommandLine</text>
</g>
<!-- Node2 -->
<g id="node2" class="node">
<title>Node2</title>
<g id="a_node2"><a xlink:href="structCommandLine_1_1Args.xhtml" target="_top" xlink:title="Args">
<polygon fill="#ffffff" stroke="#000000" points="0,-67.5 0,-86.5 38,-86.5 38,-67.5 0,-67.5"/>
<text text-anchor="middle" x="19" y="-74.5" font-family="Helvetica,sans-Serif" font-size="10.00" fill="#000000">Args</text>
</a>
</g>
</g>
<!-- Node2&#45;&gt;Node1 -->
<g id="edge1" class="edge">
<title>Node2&#45;&gt;Node1</title>
<path fill="none" stroke="#9a32cd" stroke-dasharray="5,2" d="M27.424,-58.1051C30.5237,-51.6091 34.2086,-44.3712 38,-38 41.7881,-31.6343 46.5989,-24.866 50.5528,-19.5787"/>
<polygon fill="#9a32cd" stroke="#9a32cd" points="24.114,-56.9248 23.1034,-67.4713 30.4703,-59.857 24.114,-56.9248"/>
<text text-anchor="middle" x="56.5" y="-41" font-family="Helvetica,sans-Serif" font-size="10.00" fill="#000000"> ArgList</text>
</g>
<!-- Node3 -->
<g id="node3" class="node">
<title>Node3</title>
<g id="a_node3"><a xlink:href="classConfiguration.xhtml" target="_top" xlink:title="Configuration">
<polygon fill="#ffffff" stroke="#000000" points="56,-67.5 56,-86.5 138,-86.5 138,-67.5 56,-67.5"/>
<text text-anchor="middle" x="97" y="-74.5" font-family="Helvetica,sans-Serif" font-size="10.00" fill="#000000">Configuration</text>
</a>
</g>
</g>
<!-- Node3&#45;&gt;Node1 -->
<g id="edge2" class="edge">
<title>Node3&#45;&gt;Node1</title>
<path fill="none" stroke="#9a32cd" stroke-dasharray="5,2" d="M86.7613,-58.5667C83.0961,-52.0438 78.9054,-44.671 75,-38 71.3799,-31.8162 67.2051,-24.9366 63.8986,-19.5442"/>
<polygon fill="#9a32cd" stroke="#9a32cd" points="83.7273,-60.3123 91.6607,-67.3345 89.838,-56.8977 83.7273,-60.3123"/>
<text text-anchor="middle" x="94" y="-41" font-family="Helvetica,sans-Serif" font-size="10.00" fill="#000000"> Conf</text>
</g>
</g>
</svg>
