<?xml version="1.0" encoding="UTF-8" standalone="no"?>
<!DOCTYPE svg PUBLIC "-//W3C//DTD SVG 1.1//EN"
 "http://www.w3.org/Graphics/SVG/1.1/DTD/svg11.dtd">
<!-- Generated by graphviz version 2.40.1 (20161225.0304)
 -->
<!-- Title: PackageManagerProgressDeb822Fd Pages: 1 -->
<svg width="198pt" height="209pt"
 viewBox="0.00 0.00 198.00 209.00" xmlns="http://www.w3.org/2000/svg" xmlns:xlink="http://www.w3.org/1999/xlink">
<g id="graph0" class="graph" transform="scale(1 1) rotate(0) translate(4 205)">
<title>PackageManagerProgressDeb822Fd</title>
<polygon fill="#ffffff" stroke="transparent" points="-4,4 -4,-205 194,-205 194,4 -4,4"/>
<!-- Node2 -->
<g id="node1" class="node">
<title>Node2</title>
<polygon fill="#bfbfbf" stroke="#000000" points="0,-.5 0,-19.5 190,-19.5 190,-.5 0,-.5"/>
<text text-anchor="middle" x="95" y="-7.5" font-family="Helvetica,sans-Serif" font-size="10.00" fill="#000000">PackageManagerProgressDeb822Fd</text>
</g>
<!-- Node3 -->
<g id="node2" class="node">
<title>Node3</title>
<g id="a_node2"><a xlink:href="classAPT_1_1Progress_1_1PackageManager.xhtml" target="_top" xlink:title="PackageManager">
<polygon fill="#ffffff" stroke="#000000" points="45.5,-57.5 45.5,-76.5 144.5,-76.5 144.5,-57.5 45.5,-57.5"/>
<text text-anchor="middle" x="95" y="-64.5" font-family="Helvetica,sans-Serif" font-size="10.00" fill="#000000">PackageManager</text>
</a>
</g>
</g>
<!-- Node3&#45;&gt;Node2 -->
<g id="edge1" class="edge">
<title>Node3&#45;&gt;Node2</title>
<path fill="none" stroke="#191970" d="M95,-47.2342C95,-37.8491 95,-27.0651 95,-19.5265"/>
<polygon fill="#191970" stroke="#191970" points="91.5001,-47.3307 95,-57.3307 98.5001,-47.3308 91.5001,-47.3307"/>
</g>
<!-- Node4 -->
<g id="node3" class="node">
<title>Node4</title>
<g id="a_node3"><a xlink:title="STL class. ">
<polygon fill="#ffffff" stroke="#bfbfbf" points="73,-124.5 73,-143.5 117,-143.5 117,-124.5 73,-124.5"/>
<text text-anchor="middle" x="95" y="-131.5" font-family="Helvetica,sans-Serif" font-size="10.00" fill="#000000">string</text>
</a>
</g>
</g>
<!-- Node4&#45;&gt;Node3 -->
<g id="edge2" class="edge">
<title>Node4&#45;&gt;Node3</title>
<path fill="none" stroke="#9a32cd" stroke-dasharray="5,2" d="M95,-114.1079C95,-101.714 95,-86.3263 95,-76.5817"/>
<polygon fill="#9a32cd" stroke="#9a32cd" points="91.5001,-114.4005 95,-124.4005 98.5001,-114.4006 91.5001,-114.4005"/>
<text text-anchor="middle" x="127" y="-98" font-family="Helvetica,sans-Serif" font-size="10.00" fill="#000000"> progress_str</text>
</g>
<!-- Node5 -->
<g id="node4" class="node">
<title>Node5</title>
<g id="a_node4"><a xlink:title="STL class. ">
<polygon fill="#ffffff" stroke="#bfbfbf" points="35.5,-181.5 35.5,-200.5 154.5,-200.5 154.5,-181.5 35.5,-181.5"/>
<text text-anchor="middle" x="95" y="-188.5" font-family="Helvetica,sans-Serif" font-size="10.00" fill="#000000">basic_string&lt; char &gt;</text>
</a>
</g>
</g>
<!-- Node5&#45;&gt;Node4 -->
<g id="edge3" class="edge">
<title>Node5&#45;&gt;Node4</title>
<path fill="none" stroke="#191970" d="M95,-171.2342C95,-161.8491 95,-151.0651 95,-143.5265"/>
<polygon fill="#191970" stroke="#191970" points="91.5001,-171.3307 95,-181.3307 98.5001,-171.3308 91.5001,-171.3307"/>
</g>
</g>
</svg>
