<?xml version="1.0" encoding="UTF-8" standalone="no"?>
<!DOCTYPE svg PUBLIC "-//W3C//DTD SVG 1.1//EN"
 "http://www.w3.org/Graphics/SVG/1.1/DTD/svg11.dtd">
<!-- Generated by graphviz version 2.40.1 (20161225.0304)
 -->
<!-- Title: Container_iterator&lt; Interface, Container, Master &gt; Pages: 1 -->
<svg width="562pt" height="132pt"
 viewBox="0.00 0.00 562.00 132.00" xmlns="http://www.w3.org/2000/svg" xmlns:xlink="http://www.w3.org/1999/xlink">
<g id="graph0" class="graph" transform="scale(1 1) rotate(0) translate(4 128)">
<title>Container_iterator&lt; Interface, Container, Master &gt;</title>
<polygon fill="#ffffff" stroke="transparent" points="-4,4 -4,-128 558,-128 558,4 -4,4"/>
<!-- Node4 -->
<g id="node1" class="node">
<title>Node4</title>
<polygon fill="#bfbfbf" stroke="#000000" points="426,-41 426,-82 554,-82 554,-41 426,-41"/>
<text text-anchor="start" x="434" y="-70" font-family="Helvetica,sans-Serif" font-size="10.00" fill="#000000">Container_iterator</text>
<text text-anchor="start" x="434" y="-59" font-family="Helvetica,sans-Serif" font-size="10.00" fill="#000000">&lt; Interface, Container,</text>
<text text-anchor="middle" x="490" y="-48" font-family="Helvetica,sans-Serif" font-size="10.00" fill="#000000"> Master &gt;</text>
</g>
<!-- Node5 -->
<g id="node2" class="node">
<title>Node5</title>
<g id="a_node2"><a xlink:href="classAPT_1_1Container__iterator__base.xhtml" target="_top" xlink:title="Container_iterator\l_base\&lt; Interface, Master,\l Container_iterator\&lt; Interface,\l Container, Master \&gt;, Container\l::iterator, Container::value_type \&gt;">
<polygon fill="#ffffff" stroke="#000000" points="207,-30 207,-93 390,-93 390,-30 207,-30"/>
<text text-anchor="start" x="215" y="-81" font-family="Helvetica,sans-Serif" font-size="10.00" fill="#000000">Container_iterator</text>
<text text-anchor="start" x="215" y="-70" font-family="Helvetica,sans-Serif" font-size="10.00" fill="#000000">_base&lt; Interface, Master,</text>
<text text-anchor="start" x="215" y="-59" font-family="Helvetica,sans-Serif" font-size="10.00" fill="#000000"> Container_iterator&lt; Interface,</text>
<text text-anchor="start" x="215" y="-48" font-family="Helvetica,sans-Serif" font-size="10.00" fill="#000000"> Container, Master &gt;, Container</text>
<text text-anchor="middle" x="298.5" y="-37" font-family="Helvetica,sans-Serif" font-size="10.00" fill="#000000">::iterator, Container::value_type &gt;</text>
</a>
</g>
</g>
<!-- Node5&#45;&gt;Node4 -->
<g id="edge1" class="edge">
<title>Node5&#45;&gt;Node4</title>
<path fill="none" stroke="#191970" d="M400.2708,-61.5C408.9717,-61.5 417.606,-61.5 425.8848,-61.5"/>
<polygon fill="#191970" stroke="#191970" points="400.0435,-58.0001 390.0434,-61.5 400.0434,-65.0001 400.0435,-58.0001"/>
</g>
<!-- Node6 -->
<g id="node3" class="node">
<title>Node6</title>
<polygon fill="#ffffff" stroke="#bfbfbf" points="0,-71.5 0,-123.5 171,-123.5 171,-71.5 0,-71.5"/>
<text text-anchor="start" x="8" y="-111.5" font-family="Helvetica,sans-Serif" font-size="10.00" fill="#000000">iterator&lt; std::iterator</text>
<text text-anchor="start" x="8" y="-100.5" font-family="Helvetica,sans-Serif" font-size="10.00" fill="#000000">_traits&lt; Container::iterator</text>
<text text-anchor="start" x="8" y="-89.5" font-family="Helvetica,sans-Serif" font-size="10.00" fill="#000000"> &gt;::iterator_category, Container</text>
<text text-anchor="middle" x="85.5" y="-78.5" font-family="Helvetica,sans-Serif" font-size="10.00" fill="#000000">::value_type &gt;</text>
</g>
<!-- Node6&#45;&gt;Node5 -->
<g id="edge2" class="edge">
<title>Node6&#45;&gt;Node5</title>
<path fill="none" stroke="#191970" d="M181.1349,-81.3363C189.6334,-79.9 198.225,-78.4479 206.6904,-77.0171"/>
<polygon fill="#191970" stroke="#191970" points="180.4914,-77.8954 171.2145,-83.013 181.658,-84.7975 180.4914,-77.8954"/>
</g>
<!-- Node7 -->
<g id="node4" class="node">
<title>Node7</title>
<polygon fill="#ffffff" stroke="#bfbfbf" points="21.5,-.5 21.5,-52.5 149.5,-52.5 149.5,-.5 21.5,-.5"/>
<text text-anchor="start" x="29.5" y="-40.5" font-family="Helvetica,sans-Serif" font-size="10.00" fill="#000000">template iterator_base</text>
<text text-anchor="start" x="29.5" y="-29.5" font-family="Helvetica,sans-Serif" font-size="10.00" fill="#000000">&lt; Container_iterator&lt;</text>
<text text-anchor="start" x="29.5" y="-18.5" font-family="Helvetica,sans-Serif" font-size="10.00" fill="#000000"> Interface, Container,</text>
<text text-anchor="middle" x="85.5" y="-7.5" font-family="Helvetica,sans-Serif" font-size="10.00" fill="#000000"> Master &gt; &gt;</text>
</g>
<!-- Node7&#45;&gt;Node5 -->
<g id="edge3" class="edge">
<title>Node7&#45;&gt;Node5</title>
<path fill="none" stroke="#191970" d="M159.5741,-38.6718C174.8443,-41.181 191.0977,-43.8517 206.9043,-46.4491"/>
<polygon fill="#191970" stroke="#191970" points="160.1311,-35.2165 149.6959,-37.0486 158.996,-42.1238 160.1311,-35.2165"/>
</g>
</g>
</svg>
