<?xml version="1.0" encoding="UTF-8" standalone="no"?>
<!DOCTYPE svg PUBLIC "-//W3C//DTD SVG 1.1//EN"
 "http://www.w3.org/Graphics/SVG/1.1/DTD/svg11.dtd">
<!-- Generated by graphviz version 2.40.1 (20161225.0304)
 -->
<!-- Title: debDebianSourceDirIndex Pages: 1 -->
<svg width="236pt" height="266pt"
 viewBox="0.00 0.00 236.00 266.00" xmlns="http://www.w3.org/2000/svg" xmlns:xlink="http://www.w3.org/1999/xlink">
<g id="graph0" class="graph" transform="scale(1 1) rotate(0) translate(4 262)">
<title>debDebianSourceDirIndex</title>
<polygon fill="#ffffff" stroke="transparent" points="-4,4 -4,-262 232,-262 232,4 -4,4"/>
<!-- Node5 -->
<g id="node1" class="node">
<title>Node5</title>
<polygon fill="#bfbfbf" stroke="#000000" points="33,-.5 33,-19.5 176,-19.5 176,-.5 33,-.5"/>
<text text-anchor="middle" x="104.5" y="-7.5" font-family="Helvetica,sans-Serif" font-size="10.00" fill="#000000">debDebianSourceDirIndex</text>
</g>
<!-- Node6 -->
<g id="node2" class="node">
<title>Node6</title>
<g id="a_node2"><a xlink:href="classdebDscFileIndex.xhtml" target="_top" xlink:title="debDscFileIndex">
<polygon fill="#ffffff" stroke="#000000" points="56.5,-57.5 56.5,-76.5 152.5,-76.5 152.5,-57.5 56.5,-57.5"/>
<text text-anchor="middle" x="104.5" y="-64.5" font-family="Helvetica,sans-Serif" font-size="10.00" fill="#000000">debDscFileIndex</text>
</a>
</g>
</g>
<!-- Node6&#45;&gt;Node5 -->
<g id="edge1" class="edge">
<title>Node6&#45;&gt;Node5</title>
<path fill="none" stroke="#191970" d="M104.5,-47.2342C104.5,-37.8491 104.5,-27.0651 104.5,-19.5265"/>
<polygon fill="#191970" stroke="#191970" points="101.0001,-47.3307 104.5,-57.3307 108.0001,-47.3308 101.0001,-47.3307"/>
</g>
<!-- Node7 -->
<g id="node3" class="node">
<title>Node7</title>
<g id="a_node3"><a xlink:href="classpkgDebianIndexRealFile.xhtml" target="_top" xlink:title="pkgDebianIndexRealFile">
<polygon fill="#ffffff" stroke="#000000" points="37.5,-114.5 37.5,-133.5 171.5,-133.5 171.5,-114.5 37.5,-114.5"/>
<text text-anchor="middle" x="104.5" y="-121.5" font-family="Helvetica,sans-Serif" font-size="10.00" fill="#000000">pkgDebianIndexRealFile</text>
</a>
</g>
</g>
<!-- Node7&#45;&gt;Node6 -->
<g id="edge2" class="edge">
<title>Node7&#45;&gt;Node6</title>
<path fill="none" stroke="#191970" d="M104.5,-104.2342C104.5,-94.8491 104.5,-84.0651 104.5,-76.5265"/>
<polygon fill="#191970" stroke="#191970" points="101.0001,-104.3307 104.5,-114.3307 108.0001,-104.3308 101.0001,-104.3307"/>
</g>
<!-- Node8 -->
<g id="node4" class="node">
<title>Node8</title>
<g id="a_node4"><a xlink:href="classpkgDebianIndexFile.xhtml" target="_top" xlink:title="pkgDebianIndexFile">
<polygon fill="#ffffff" stroke="#000000" points="0,-181.5 0,-200.5 113,-200.5 113,-181.5 0,-181.5"/>
<text text-anchor="middle" x="56.5" y="-188.5" font-family="Helvetica,sans-Serif" font-size="10.00" fill="#000000">pkgDebianIndexFile</text>
</a>
</g>
</g>
<!-- Node8&#45;&gt;Node7 -->
<g id="edge3" class="edge">
<title>Node8&#45;&gt;Node7</title>
<path fill="none" stroke="#191970" d="M69.4096,-172.9803C78.4948,-160.2989 90.2981,-143.8235 97.6355,-133.5817"/>
<polygon fill="#191970" stroke="#191970" points="66.3559,-171.233 63.3772,-181.4005 72.0463,-175.3097 66.3559,-171.233"/>
</g>
<!-- Node9 -->
<g id="node5" class="node">
<title>Node9</title>
<g id="a_node5"><a xlink:href="classpkgIndexFile.xhtml" target="_top" xlink:title="pkgIndexFile">
<polygon fill="#ffffff" stroke="#000000" points="12.5,-238.5 12.5,-257.5 90.5,-257.5 90.5,-238.5 12.5,-238.5"/>
<text text-anchor="middle" x="51.5" y="-245.5" font-family="Helvetica,sans-Serif" font-size="10.00" fill="#000000">pkgIndexFile</text>
</a>
</g>
</g>
<!-- Node9&#45;&gt;Node8 -->
<g id="edge4" class="edge">
<title>Node9&#45;&gt;Node8</title>
<path fill="none" stroke="#191970" d="M53.2338,-228.2342C54.0571,-218.8491 55.0031,-208.0651 55.6643,-200.5265"/>
<polygon fill="#191970" stroke="#191970" points="49.7355,-228.0631 52.3482,-238.3307 56.7087,-228.6749 49.7355,-228.0631"/>
</g>
<!-- Node10 -->
<g id="node6" class="node">
<title>Node10</title>
<g id="a_node6"><a xlink:title="STL class. ">
<polygon fill="#ffffff" stroke="#bfbfbf" points="141.5,-181.5 141.5,-200.5 185.5,-200.5 185.5,-181.5 141.5,-181.5"/>
<text text-anchor="middle" x="163.5" y="-188.5" font-family="Helvetica,sans-Serif" font-size="10.00" fill="#000000">string</text>
</a>
</g>
</g>
<!-- Node10&#45;&gt;Node7 -->
<g id="edge5" class="edge">
<title>Node10&#45;&gt;Node7</title>
<path fill="none" stroke="#9a32cd" stroke-dasharray="5,2" d="M148.2786,-173.7147C137.0302,-160.941 122.1316,-144.0224 112.9376,-133.5817"/>
<polygon fill="#9a32cd" stroke="#9a32cd" points="145.8112,-176.2087 155.0467,-181.4005 151.0646,-171.5825 145.8112,-176.2087"/>
<text text-anchor="middle" x="148.5" y="-155" font-family="Helvetica,sans-Serif" font-size="10.00" fill="#000000"> File</text>
</g>
<!-- Node11 -->
<g id="node7" class="node">
<title>Node11</title>
<g id="a_node7"><a xlink:title="STL class. ">
<polygon fill="#ffffff" stroke="#bfbfbf" points="109,-238.5 109,-257.5 228,-257.5 228,-238.5 109,-238.5"/>
<text text-anchor="middle" x="168.5" y="-245.5" font-family="Helvetica,sans-Serif" font-size="10.00" fill="#000000">basic_string&lt; char &gt;</text>
</a>
</g>
</g>
<!-- Node11&#45;&gt;Node10 -->
<g id="edge6" class="edge">
<title>Node11&#45;&gt;Node10</title>
<path fill="none" stroke="#191970" d="M166.7662,-228.2342C165.9429,-218.8491 164.9969,-208.0651 164.3357,-200.5265"/>
<polygon fill="#191970" stroke="#191970" points="163.2913,-228.6749 167.6518,-238.3307 170.2645,-228.0631 163.2913,-228.6749"/>
</g>
</g>
</svg>
