<?xml version="1.0" encoding="UTF-8" standalone="no"?>
<!DOCTYPE svg PUBLIC "-//W3C//DTD SVG 1.1//EN"
 "http://www.w3.org/Graphics/SVG/1.1/DTD/svg11.dtd">
<!-- Generated by graphviz version 2.40.1 (20161225.0304)
 -->
<!-- Title: pkgCache::VerIterator Pages: 1 -->
<svg width="140pt" height="162pt"
 viewBox="0.00 0.00 140.00 162.00" xmlns="http://www.w3.org/2000/svg" xmlns:xlink="http://www.w3.org/1999/xlink">
<g id="graph0" class="graph" transform="scale(1 1) rotate(0) translate(4 158)">
<title>pkgCache::VerIterator</title>
<polygon fill="#ffffff" stroke="transparent" points="-4,4 -4,-158 136,-158 136,4 -4,4"/>
<!-- Node0 -->
<g id="node1" class="node">
<title>Node0</title>
<polygon fill="#bfbfbf" stroke="#000000" points="5,-.5 5,-19.5 127,-19.5 127,-.5 5,-.5"/>
<text text-anchor="middle" x="66" y="-7.5" font-family="Helvetica,sans-Serif" font-size="10.00" fill="#000000">pkgCache::VerIterator</text>
</g>
<!-- Node1 -->
<g id="node2" class="node">
<title>Node1</title>
<g id="a_node2"><a xlink:href="classpkgCache_1_1Iterator.xhtml" target="_top" xlink:title="Iterator\&lt; Version,\l VerIterator \&gt;">
<polygon fill="#ffffff" stroke="#000000" points="14.5,-56.5 14.5,-86.5 117.5,-86.5 117.5,-56.5 14.5,-56.5"/>
<text text-anchor="start" x="22.5" y="-74.5" font-family="Helvetica,sans-Serif" font-size="10.00" fill="#000000">Iterator&lt; Version,</text>
<text text-anchor="middle" x="66" y="-63.5" font-family="Helvetica,sans-Serif" font-size="10.00" fill="#000000"> VerIterator &gt;</text>
</a>
</g>
</g>
<!-- Node1&#45;&gt;Node0 -->
<g id="edge1" class="edge">
<title>Node1&#45;&gt;Node0</title>
<path fill="none" stroke="#191970" d="M66,-46.2849C66,-36.9858 66,-26.9883 66,-19.8469"/>
<polygon fill="#191970" stroke="#191970" points="62.5001,-46.2977 66,-56.2977 69.5001,-46.2978 62.5001,-46.2977"/>
</g>
<!-- Node2 -->
<g id="node3" class="node">
<title>Node2</title>
<polygon fill="#ffffff" stroke="#bfbfbf" points="0,-123.5 0,-153.5 132,-153.5 132,-123.5 0,-123.5"/>
<text text-anchor="start" x="8" y="-141.5" font-family="Helvetica,sans-Serif" font-size="10.00" fill="#000000">iterator&lt; std::forward</text>
<text text-anchor="middle" x="66" y="-130.5" font-family="Helvetica,sans-Serif" font-size="10.00" fill="#000000">_iterator_tag, Version &gt;</text>
</g>
<!-- Node2&#45;&gt;Node1 -->
<g id="edge2" class="edge">
<title>Node2&#45;&gt;Node1</title>
<path fill="none" stroke="#191970" d="M66,-113.0249C66,-104.128 66,-94.4287 66,-86.6432"/>
<polygon fill="#191970" stroke="#191970" points="62.5001,-113.2966 66,-123.2967 69.5001,-113.2967 62.5001,-113.2966"/>
</g>
</g>
</svg>
