<?xml version="1.0" encoding="UTF-8" standalone="no"?>
<!DOCTYPE svg PUBLIC "-//W3C//DTD SVG 1.1//EN"
 "http://www.w3.org/Graphics/SVG/1.1/DTD/svg11.dtd">
<!-- Generated by graphviz version 2.40.1 (20161225.0304)
 -->
<!-- Title: debSLTypeDeb Pages: 1 -->
<svg width="148pt" height="142pt"
 viewBox="0.00 0.00 148.00 142.00" xmlns="http://www.w3.org/2000/svg" xmlns:xlink="http://www.w3.org/1999/xlink">
<g id="graph0" class="graph" transform="scale(1 1) rotate(0) translate(4 138)">
<title>debSLTypeDeb</title>
<polygon fill="#ffffff" stroke="transparent" points="-4,4 -4,-138 144,-138 144,4 -4,4"/>
<!-- Node3 -->
<g id="node1" class="node">
<title>Node3</title>
<polygon fill="#bfbfbf" stroke="#000000" points="7.5,-.5 7.5,-19.5 93.5,-19.5 93.5,-.5 7.5,-.5"/>
<text text-anchor="middle" x="50.5" y="-7.5" font-family="Helvetica,sans-Serif" font-size="10.00" fill="#000000">debSLTypeDeb</text>
</g>
<!-- Node4 -->
<g id="node2" class="node">
<title>Node4</title>
<g id="a_node2"><a xlink:href="classdebSLTypeDebian.xhtml" target="_top" xlink:title="debSLTypeDebian">
<polygon fill="#ffffff" stroke="#000000" points="0,-57.5 0,-76.5 101,-76.5 101,-57.5 0,-57.5"/>
<text text-anchor="middle" x="50.5" y="-64.5" font-family="Helvetica,sans-Serif" font-size="10.00" fill="#000000">debSLTypeDebian</text>
</a>
</g>
</g>
<!-- Node4&#45;&gt;Node3 -->
<g id="edge1" class="edge">
<title>Node4&#45;&gt;Node3</title>
<path fill="none" stroke="#191970" d="M50.5,-47.2342C50.5,-37.8491 50.5,-27.0651 50.5,-19.5265"/>
<polygon fill="#191970" stroke="#191970" points="47.0001,-47.3307 50.5,-57.3307 54.0001,-47.3308 47.0001,-47.3307"/>
</g>
<!-- Node5 -->
<g id="node3" class="node">
<title>Node5</title>
<g id="a_node3"><a xlink:href="classpkgSourceList_1_1Type.xhtml" target="_top" xlink:title="Type">
<polygon fill="#ffffff" stroke="#000000" points="31,-114.5 31,-133.5 70,-133.5 70,-114.5 31,-114.5"/>
<text text-anchor="middle" x="50.5" y="-121.5" font-family="Helvetica,sans-Serif" font-size="10.00" fill="#000000">Type</text>
</a>
</g>
</g>
<!-- Node5&#45;&gt;Node4 -->
<g id="edge2" class="edge">
<title>Node5&#45;&gt;Node4</title>
<path fill="none" stroke="#191970" d="M50.5,-104.2342C50.5,-94.8491 50.5,-84.0651 50.5,-76.5265"/>
<polygon fill="#191970" stroke="#191970" points="47.0001,-104.3307 50.5,-114.3307 54.0001,-104.3308 47.0001,-104.3307"/>
</g>
<!-- Node5&#45;&gt;Node5 -->
<g id="edge3" class="edge">
<title>Node5&#45;&gt;Node5</title>
<path fill="none" stroke="#9a32cd" stroke-dasharray="5,2" d="M80.3313,-128.7918C84.8972,-128.0633 88,-126.4661 88,-124 88,-119.9531 79.6443,-118.2458 70.1788,-118.8782"/>
<polygon fill="#9a32cd" stroke="#9a32cd" points="80.0598,-125.2987 70.1788,-129.1218 80.2873,-132.295 80.0598,-125.2987"/>
<text text-anchor="middle" x="114" y="-121.5" font-family="Helvetica,sans-Serif" font-size="10.00" fill="#000000"> GlobalList</text>
</g>
</g>
</svg>
