<?xml version="1.0" encoding="UTF-8" standalone="no"?>
<!DOCTYPE svg PUBLIC "-//W3C//DTD SVG 1.1//EN"
 "http://www.w3.org/Graphics/SVG/1.1/DTD/svg11.dtd">
<!-- Generated by graphviz version 2.40.1 (20161225.0304)
 -->
<!-- Title: pkgPackageManager Pages: 1 -->
<svg width="1342pt" height="719pt"
 viewBox="0.00 0.00 1342.00 719.33" xmlns="http://www.w3.org/2000/svg" xmlns:xlink="http://www.w3.org/1999/xlink">
<g id="graph0" class="graph" transform="scale(1 1) rotate(0) translate(4 715.3323)">
<title>pkgPackageManager</title>
<polygon fill="#ffffff" stroke="transparent" points="-4,4 -4,-715.3323 1338,-715.3323 1338,4 -4,4"/>
<!-- Node4 -->
<g id="node1" class="node">
<title>Node4</title>
<polygon fill="#bfbfbf" stroke="#000000" points="1217,-320.8323 1217,-339.8323 1334,-339.8323 1334,-320.8323 1217,-320.8323"/>
<text text-anchor="middle" x="1275.5" y="-327.8323" font-family="Helvetica,sans-Serif" font-size="10.00" fill="#000000">pkgPackageManager</text>
</g>
<!-- Node5 -->
<g id="node2" class="node">
<title>Node5</title>
<g id="a_node2"><a xlink:href="classpkgCache_1_1Namespace.xhtml" target="_top" xlink:title="Namespace">
<polygon fill="#ffffff" stroke="#000000" points="730,-379.8323 730,-398.8323 804,-398.8323 804,-379.8323 730,-379.8323"/>
<text text-anchor="middle" x="767" y="-386.8323" font-family="Helvetica,sans-Serif" font-size="10.00" fill="#000000">Namespace</text>
</a>
</g>
</g>
<!-- Node5&#45;&gt;Node4 -->
<g id="edge1" class="edge">
<title>Node5&#45;&gt;Node4</title>
<path fill="none" stroke="#006400" d="M814.297,-400.0758C889.2871,-415.0904 1039.3338,-436.8627 1160,-402.3323 1202.9357,-390.0457 1245.4285,-356.6568 1264.7299,-340.0214"/>
<polygon fill="#006400" stroke="#006400" points="814.7241,-396.5905 804.2246,-398.0085 813.3167,-403.4476 814.7241,-396.5905"/>
</g>
<!-- Node6 -->
<g id="node3" class="node">
<title>Node6</title>
<g id="a_node3"><a xlink:href="classpkgOrderList.xhtml" target="_top" xlink:title="pkgOrderList">
<polygon fill="#ffffff" stroke="#000000" points="1081,-373.8323 1081,-392.8323 1160,-392.8323 1160,-373.8323 1081,-373.8323"/>
<text text-anchor="middle" x="1120.5" y="-380.8323" font-family="Helvetica,sans-Serif" font-size="10.00" fill="#000000">pkgOrderList</text>
</a>
</g>
</g>
<!-- Node5&#45;&gt;Node6 -->
<g id="edge3" class="edge">
<title>Node5&#45;&gt;Node6</title>
<path fill="none" stroke="#006400" d="M814.5009,-388.5261C884.8333,-387.3323 1015.3924,-385.1163 1080.88,-384.0048"/>
<polygon fill="#006400" stroke="#006400" points="814.1017,-385.0323 804.1626,-388.7016 814.2206,-392.0313 814.1017,-385.0323"/>
</g>
<!-- Node7 -->
<g id="node4" class="node">
<title>Node7</title>
<g id="a_node4"><a xlink:href="classpkgDepCache.xhtml" target="_top" xlink:title="pkgDepCache">
<polygon fill="#ffffff" stroke="#000000" points="927,-324.8323 927,-343.8323 1011,-343.8323 1011,-324.8323 927,-324.8323"/>
<text text-anchor="middle" x="969" y="-331.8323" font-family="Helvetica,sans-Serif" font-size="10.00" fill="#000000">pkgDepCache</text>
</a>
</g>
</g>
<!-- Node5&#45;&gt;Node7 -->
<g id="edge5" class="edge">
<title>Node5&#45;&gt;Node7</title>
<path fill="none" stroke="#006400" d="M812.1502,-377.039C848.9275,-367.0253 900.1153,-353.0881 933.8792,-343.8949"/>
<polygon fill="#006400" stroke="#006400" points="810.9149,-373.7478 802.1857,-379.7521 812.754,-380.5019 810.9149,-373.7478"/>
</g>
<!-- Node6&#45;&gt;Node4 -->
<g id="edge2" class="edge">
<title>Node6&#45;&gt;Node4</title>
<path fill="none" stroke="#9a32cd" stroke-dasharray="5,2" d="M1158.2814,-370.4135C1185.8796,-360.9767 1222.6867,-348.3911 1247.6395,-339.8588"/>
<polygon fill="#9a32cd" stroke="#9a32cd" points="1156.899,-367.1872 1148.5693,-373.7344 1159.1639,-373.8107 1156.899,-367.1872"/>
<text text-anchor="middle" x="1188.5" y="-365.3323" font-family="Helvetica,sans-Serif" font-size="10.00" fill="#000000"> List</text>
</g>
<!-- Node7&#45;&gt;Node4 -->
<g id="edge30" class="edge">
<title>Node7&#45;&gt;Node4</title>
<path fill="none" stroke="#9a32cd" stroke-dasharray="5,2" d="M1021.4001,-333.6485C1075.6994,-332.9398 1160.3782,-331.8347 1216.8718,-331.0975"/>
<polygon fill="#9a32cd" stroke="#9a32cd" points="1021.2492,-330.15 1011.2957,-333.7803 1021.3406,-337.1495 1021.2492,-330.15"/>
<text text-anchor="middle" x="1120.5" y="-335.3323" font-family="Helvetica,sans-Serif" font-size="10.00" fill="#000000"> Cache</text>
</g>
<!-- Node7&#45;&gt;Node6 -->
<g id="edge4" class="edge">
<title>Node7&#45;&gt;Node6</title>
<path fill="none" stroke="#9a32cd" stroke-dasharray="5,2" d="M1009.0589,-347.0179C1025.7498,-352.3292 1045.325,-358.5918 1063,-364.3323 1072.3994,-367.3851 1082.6486,-370.7577 1091.8563,-373.8036"/>
<polygon fill="#9a32cd" stroke="#9a32cd" points="1009.6724,-343.5404 999.082,-343.847 1007.5521,-350.2116 1009.6724,-343.5404"/>
<text text-anchor="middle" x="1046" y="-367.3323" font-family="Helvetica,sans-Serif" font-size="10.00" fill="#000000"> Cache</text>
</g>
<!-- Node8 -->
<g id="node5" class="node">
<title>Node8</title>
<g id="a_node5"><a xlink:href="classpkgDepCache_1_1Policy.xhtml" target="_top" xlink:title="Policy">
<polygon fill="#ffffff" stroke="#000000" points="744,-249.8323 744,-268.8323 790,-268.8323 790,-249.8323 744,-249.8323"/>
<text text-anchor="middle" x="767" y="-256.8323" font-family="Helvetica,sans-Serif" font-size="10.00" fill="#000000">Policy</text>
</a>
</g>
</g>
<!-- Node8&#45;&gt;Node7 -->
<g id="edge6" class="edge">
<title>Node8&#45;&gt;Node7</title>
<path fill="none" stroke="#9a32cd" stroke-dasharray="5,2" d="M800.285,-259.6291C830.0612,-261.053 874.2427,-266.0823 909,-282.3323 930.4776,-292.3737 950.1797,-312.3956 960.7967,-324.4539"/>
<polygon fill="#9a32cd" stroke="#9a32cd" points="800.1319,-256.1212 790.0107,-259.2535 799.8761,-263.1166 800.1319,-256.1212"/>
<text text-anchor="middle" x="865.5" y="-296.3323" font-family="Helvetica,sans-Serif" font-size="10.00" fill="#000000"> LocalPolicy</text>
<text text-anchor="middle" x="865.5" y="-285.3323" font-family="Helvetica,sans-Serif" font-size="10.00" fill="#000000">delLocalPolicy</text>
</g>
<!-- Node9 -->
<g id="node6" class="node">
<title>Node9</title>
<g id="a_node6"><a xlink:href="classpkgCache.xhtml" target="_top" xlink:title="pkgCache">
<polygon fill="#ffffff" stroke="#000000" points="734.5,-337.8323 734.5,-356.8323 799.5,-356.8323 799.5,-337.8323 734.5,-337.8323"/>
<text text-anchor="middle" x="767" y="-344.8323" font-family="Helvetica,sans-Serif" font-size="10.00" fill="#000000">pkgCache</text>
</a>
</g>
</g>
<!-- Node9&#45;&gt;Node7 -->
<g id="edge7" class="edge">
<title>Node9&#45;&gt;Node7</title>
<path fill="none" stroke="#9a32cd" stroke-dasharray="5,2" d="M809.7134,-340.6486C813.8584,-340.1418 818.0055,-339.6897 822,-339.3323 857.2261,-336.181 897.3631,-334.9761 926.7866,-334.5338"/>
<polygon fill="#9a32cd" stroke="#9a32cd" points="808.958,-337.218 799.5027,-341.998 809.8751,-344.1576 808.958,-337.218"/>
<text text-anchor="middle" x="865.5" y="-342.3323" font-family="Helvetica,sans-Serif" font-size="10.00" fill="#000000"> Cache</text>
</g>
<!-- Node10 -->
<g id="node7" class="node">
<title>Node10</title>
<g id="a_node7"><a xlink:href="structpkgCache_1_1DependencyData.xhtml" target="_top" xlink:title="information for a single dependency record ">
<polygon fill="#ffffff" stroke="#000000" points="530.5,-319.8323 530.5,-338.8323 631.5,-338.8323 631.5,-319.8323 530.5,-319.8323"/>
<text text-anchor="middle" x="581" y="-326.8323" font-family="Helvetica,sans-Serif" font-size="10.00" fill="#000000">DependencyData</text>
</a>
</g>
</g>
<!-- Node10&#45;&gt;Node9 -->
<g id="edge8" class="edge">
<title>Node10&#45;&gt;Node9</title>
<path fill="none" stroke="#9a32cd" stroke-dasharray="5,2" d="M641.9092,-327.6593C664.0744,-327.8568 689.2623,-329.0219 712,-332.3323 720.325,-333.5444 729.1851,-335.6052 737.3072,-337.8176"/>
<polygon fill="#9a32cd" stroke="#9a32cd" points="641.6362,-324.1587 631.6275,-327.6337 641.6187,-331.1587 641.6362,-324.1587"/>
<text text-anchor="middle" x="686" y="-335.3323" font-family="Helvetica,sans-Serif" font-size="10.00" fill="#000000"> DepDataP</text>
</g>
<!-- Node11 -->
<g id="node8" class="node">
<title>Node11</title>
<g id="a_node8"><a xlink:href="structpkgCache_1_1Dependency.xhtml" target="_top" xlink:title="Dependency">
<polygon fill="#ffffff" stroke="#000000" points="542.5,-281.8323 542.5,-300.8323 619.5,-300.8323 619.5,-281.8323 542.5,-281.8323"/>
<text text-anchor="middle" x="581" y="-288.8323" font-family="Helvetica,sans-Serif" font-size="10.00" fill="#000000">Dependency</text>
</a>
</g>
</g>
<!-- Node11&#45;&gt;Node9 -->
<g id="edge9" class="edge">
<title>Node11&#45;&gt;Node9</title>
<path fill="none" stroke="#9a32cd" stroke-dasharray="5,2" d="M629.6768,-294.3903C654.8836,-297.1449 685.7873,-302.3807 712,-312.3323 714.1956,-313.1659 736.6697,-327.6349 752.2004,-337.7054"/>
<polygon fill="#9a32cd" stroke="#9a32cd" points="629.9074,-290.8961 619.6096,-293.3872 629.2132,-297.8616 629.9074,-290.8961"/>
<text text-anchor="middle" x="686" y="-315.3323" font-family="Helvetica,sans-Serif" font-size="10.00" fill="#000000"> DepP</text>
</g>
<!-- Node12 -->
<g id="node9" class="node">
<title>Node12</title>
<g id="a_node9"><a xlink:href="structpkgCache_1_1Description.xhtml" target="_top" xlink:title="datamember of a linked list of available description for a version ">
<polygon fill="#ffffff" stroke="#000000" points="545,-243.8323 545,-262.8323 617,-262.8323 617,-243.8323 545,-243.8323"/>
<text text-anchor="middle" x="581" y="-250.8323" font-family="Helvetica,sans-Serif" font-size="10.00" fill="#000000">Description</text>
</a>
</g>
</g>
<!-- Node12&#45;&gt;Node9 -->
<g id="edge10" class="edge">
<title>Node12&#45;&gt;Node9</title>
<path fill="none" stroke="#9a32cd" stroke-dasharray="5,2" d="M627.1423,-253.9339C654.49,-256.5305 688.3175,-263.9239 712,-283.3323 727.0782,-295.6893 717.3057,-308.5369 730,-323.3323 734.886,-329.027 741.4533,-333.8788 747.6987,-337.6985"/>
<polygon fill="#9a32cd" stroke="#9a32cd" points="627.251,-250.4321 617.013,-253.1586 626.7167,-257.4117 627.251,-250.4321"/>
<text text-anchor="middle" x="686" y="-286.3323" font-family="Helvetica,sans-Serif" font-size="10.00" fill="#000000"> DescP</text>
</g>
<!-- Node13 -->
<g id="node10" class="node">
<title>Node13</title>
<g id="a_node10"><a xlink:href="structpkgCache_1_1Header.xhtml" target="_top" xlink:title="Header">
<polygon fill="#ffffff" stroke="#000000" points="555,-205.8323 555,-224.8323 607,-224.8323 607,-205.8323 555,-205.8323"/>
<text text-anchor="middle" x="581" y="-212.8323" font-family="Helvetica,sans-Serif" font-size="10.00" fill="#000000">Header</text>
</a>
</g>
</g>
<!-- Node13&#45;&gt;Node9 -->
<g id="edge11" class="edge">
<title>Node13&#45;&gt;Node9</title>
<path fill="none" stroke="#9a32cd" stroke-dasharray="5,2" d="M617.5172,-213.4713C646.9464,-214.0421 687.3528,-219.8366 712,-244.3323 737.5419,-269.7173 709.3794,-293.8098 730,-323.3323 734.1213,-329.2328 740.2046,-334.0359 746.2534,-337.752"/>
<polygon fill="#9a32cd" stroke="#9a32cd" points="617.2207,-209.9712 607.2211,-213.4724 617.2215,-216.9712 617.2207,-209.9712"/>
<text text-anchor="middle" x="686" y="-247.3323" font-family="Helvetica,sans-Serif" font-size="10.00" fill="#000000"> HeaderP</text>
</g>
<!-- Node14 -->
<g id="node11" class="node">
<title>Node14</title>
<g id="a_node11"><a xlink:href="structDynamicMMap_1_1Pool.xhtml" target="_top" xlink:title="Pool">
<polygon fill="#ffffff" stroke="#000000" points="340,-205.8323 340,-224.8323 378,-224.8323 378,-205.8323 340,-205.8323"/>
<text text-anchor="middle" x="359" y="-212.8323" font-family="Helvetica,sans-Serif" font-size="10.00" fill="#000000">Pool</text>
</a>
</g>
</g>
<!-- Node14&#45;&gt;Node13 -->
<g id="edge12" class="edge">
<title>Node14&#45;&gt;Node13</title>
<path fill="none" stroke="#9a32cd" stroke-dasharray="5,2" d="M388.5566,-215.3323C432.1982,-215.3323 513.1889,-215.3323 554.8109,-215.3323"/>
<polygon fill="#9a32cd" stroke="#9a32cd" points="388.3127,-211.8324 378.3127,-215.3323 388.3127,-218.8324 388.3127,-211.8324"/>
<text text-anchor="middle" x="450.5" y="-218.3323" font-family="Helvetica,sans-Serif" font-size="10.00" fill="#000000"> Pools</text>
</g>
<!-- Node15 -->
<g id="node12" class="node">
<title>Node15</title>
<g id="a_node12"><a xlink:href="structpkgCache_1_1PackageFile.xhtml" target="_top" xlink:title="stores information about the files used to generate the cache ">
<polygon fill="#ffffff" stroke="#000000" points="544,-167.8323 544,-186.8323 618,-186.8323 618,-167.8323 544,-167.8323"/>
<text text-anchor="middle" x="581" y="-174.8323" font-family="Helvetica,sans-Serif" font-size="10.00" fill="#000000">PackageFile</text>
</a>
</g>
</g>
<!-- Node15&#45;&gt;Node9 -->
<g id="edge13" class="edge">
<title>Node15&#45;&gt;Node9</title>
<path fill="none" stroke="#9a32cd" stroke-dasharray="5,2" d="M628.111,-174.1234C656.3399,-174.901 690.7604,-181.0694 712,-203.3323 749.2269,-242.3528 700.801,-277.9907 730,-323.3323 733.8138,-329.2546 739.6651,-334.0199 745.5967,-337.6949"/>
<polygon fill="#9a32cd" stroke="#9a32cd" points="628.0484,-170.6231 618.0269,-174.0611 628.005,-177.623 628.0484,-170.6231"/>
<text text-anchor="middle" x="686" y="-206.3323" font-family="Helvetica,sans-Serif" font-size="10.00" fill="#000000"> PkgFileP</text>
</g>
<!-- Node16 -->
<g id="node13" class="node">
<title>Node16</title>
<g id="a_node13"><a xlink:href="structpkgCache_1_1ReleaseFile.xhtml" target="_top" xlink:title="stores information about the release files used to generate the cache ">
<polygon fill="#ffffff" stroke="#000000" points="545.5,-129.8323 545.5,-148.8323 616.5,-148.8323 616.5,-129.8323 545.5,-129.8323"/>
<text text-anchor="middle" x="581" y="-136.8323" font-family="Helvetica,sans-Serif" font-size="10.00" fill="#000000">ReleaseFile</text>
</a>
</g>
</g>
<!-- Node16&#45;&gt;Node9 -->
<g id="edge14" class="edge">
<title>Node16&#45;&gt;Node9</title>
<path fill="none" stroke="#9a32cd" stroke-dasharray="5,2" d="M626.9046,-135.0536C655.476,-135.0901 690.7157,-140.5225 712,-163.3323 736.4102,-189.4922 711.1856,-292.8985 730,-323.3323 733.7041,-329.3239 739.5244,-334.1087 745.4615,-337.7802"/>
<polygon fill="#9a32cd" stroke="#9a32cd" points="626.6444,-131.5581 616.7182,-135.2621 626.7877,-138.5566 626.6444,-131.5581"/>
<text text-anchor="middle" x="686" y="-166.3323" font-family="Helvetica,sans-Serif" font-size="10.00" fill="#000000"> RlsFileP</text>
</g>
<!-- Node17 -->
<g id="node14" class="node">
<title>Node17</title>
<g id="a_node14"><a xlink:href="structpkgCache_1_1DescFile.xhtml" target="_top" xlink:title="associates a description with a Translation file ">
<polygon fill="#ffffff" stroke="#000000" points="552.5,-91.8323 552.5,-110.8323 609.5,-110.8323 609.5,-91.8323 552.5,-91.8323"/>
<text text-anchor="middle" x="581" y="-98.8323" font-family="Helvetica,sans-Serif" font-size="10.00" fill="#000000">DescFile</text>
</a>
</g>
</g>
<!-- Node17&#45;&gt;Node9 -->
<g id="edge15" class="edge">
<title>Node17&#45;&gt;Node9</title>
<path fill="none" stroke="#9a32cd" stroke-dasharray="5,2" d="M619.6749,-96.3652C649.3502,-94.9129 689.0111,-98.5107 712,-123.3323 742.3222,-156.0718 706.9591,-285.1168 730,-323.3323 733.6371,-329.3648 739.4386,-334.161 745.3791,-337.8305"/>
<polygon fill="#9a32cd" stroke="#9a32cd" points="619.3716,-92.8777 609.6385,-97.063 619.8572,-99.8609 619.3716,-92.8777"/>
<text text-anchor="middle" x="686" y="-126.3323" font-family="Helvetica,sans-Serif" font-size="10.00" fill="#000000"> DescFileP</text>
</g>
<!-- Node18 -->
<g id="node15" class="node">
<title>Node18</title>
<g id="a_node15"><a xlink:href="structpkgCache_1_1Provides.xhtml" target="_top" xlink:title="handles virtual packages ">
<polygon fill="#ffffff" stroke="#000000" points="551.5,-652.8323 551.5,-671.8323 610.5,-671.8323 610.5,-652.8323 551.5,-652.8323"/>
<text text-anchor="middle" x="581" y="-659.8323" font-family="Helvetica,sans-Serif" font-size="10.00" fill="#000000">Provides</text>
</a>
</g>
</g>
<!-- Node18&#45;&gt;Node9 -->
<g id="edge16" class="edge">
<title>Node18&#45;&gt;Node9</title>
<path fill="none" stroke="#9a32cd" stroke-dasharray="5,2" d="M620.7198,-666.8137C650.4262,-667.7508 689.6284,-663.4149 712,-638.3323 751.731,-593.7867 699.268,-421.5027 730,-370.3323 733.349,-364.7561 738.6235,-360.3307 744.1518,-356.9123"/>
<polygon fill="#9a32cd" stroke="#9a32cd" points="620.8204,-663.3142 610.6514,-666.2876 620.4551,-670.3047 620.8204,-663.3142"/>
<text text-anchor="middle" x="686" y="-666.3323" font-family="Helvetica,sans-Serif" font-size="10.00" fill="#000000"> ProvideP</text>
</g>
<!-- Node19 -->
<g id="node16" class="node">
<title>Node19</title>
<g id="a_node16"><a xlink:title="STL class. ">
<polygon fill="#ffffff" stroke="#bfbfbf" points="156,-357.8323 156,-376.8323 200,-376.8323 200,-357.8323 156,-357.8323"/>
<text text-anchor="middle" x="178" y="-364.8323" font-family="Helvetica,sans-Serif" font-size="10.00" fill="#000000">string</text>
</a>
</g>
</g>
<!-- Node19&#45;&gt;Node4 -->
<g id="edge33" class="edge">
<title>Node19&#45;&gt;Node4</title>
<path fill="none" stroke="#9a32cd" stroke-dasharray="5,2" d="M180.1579,-347.3897C188.6808,-279.762 226.3212,-63.3323 359,-63.3323 359,-63.3323 359,-63.3323 1120.5,-63.3323 1242.1695,-63.3323 1269.9376,-273.2665 1274.6675,-320.8297"/>
<polygon fill="#9a32cd" stroke="#9a32cd" points="176.6537,-347.2209 178.9584,-357.562 183.6055,-348.0408 176.6537,-347.2209"/>
<text text-anchor="middle" x="767" y="-66.3323" font-family="Helvetica,sans-Serif" font-size="10.00" fill="#000000"> FileNames</text>
</g>
<!-- Node19&#45;&gt;Node6 -->
<g id="edge29" class="edge">
<title>Node19&#45;&gt;Node6</title>
<path fill="none" stroke="#9a32cd" stroke-dasharray="5,2" d="M179.3089,-387.2931C185.1969,-459.14 215.6394,-700.3323 359,-700.3323 359,-700.3323 359,-700.3323 969,-700.3323 1038.8414,-700.3323 1104.9604,-446.6733 1118.1305,-393.1671"/>
<polygon fill="#9a32cd" stroke="#9a32cd" points="182.7709,-386.652 178.5385,-376.9392 175.7902,-387.1714 182.7709,-386.652"/>
<text text-anchor="middle" x="686" y="-703.3323" font-family="Helvetica,sans-Serif" font-size="10.00" fill="#000000"> FileList</text>
</g>
<!-- Node19&#45;&gt;Node9 -->
<g id="edge17" class="edge">
<title>Node19&#45;&gt;Node9</title>
<path fill="none" stroke="#9a32cd" stroke-dasharray="5,2" d="M194.1287,-384.2495C239.813,-430.7784 376.1323,-560.1996 520,-605.3323 571.7362,-621.5625 588.4594,-613.9029 642,-605.3323 674.3358,-600.1561 691.6895,-608.0204 712,-582.3323 741.3243,-545.244 705.3005,-410.6485 730,-370.3323 733.398,-364.7858 738.6886,-360.3702 744.2167,-356.9517"/>
<polygon fill="#9a32cd" stroke="#9a32cd" points="196.6037,-381.7743 187.1261,-377.0388 191.5821,-386.6511 196.6037,-381.7743"/>
<text text-anchor="middle" x="450.5" y="-601.3323" font-family="Helvetica,sans-Serif" font-size="10.00" fill="#000000"> CacheFile</text>
</g>
<!-- Node27 -->
<g id="node24" class="node">
<title>Node27</title>
<g id="a_node24"><a xlink:href="classFileFd.xhtml" target="_top" xlink:title="FileFd">
<polygon fill="#ffffff" stroke="#000000" points="337,-357.8323 337,-376.8323 381,-376.8323 381,-357.8323 337,-357.8323"/>
<text text-anchor="middle" x="359" y="-364.8323" font-family="Helvetica,sans-Serif" font-size="10.00" fill="#000000">FileFd</text>
</a>
</g>
</g>
<!-- Node19&#45;&gt;Node27 -->
<g id="edge27" class="edge">
<title>Node19&#45;&gt;Node27</title>
<path fill="none" stroke="#9a32cd" stroke-dasharray="5,2" d="M210.3175,-367.3323C246.8252,-367.3323 305.2614,-367.3323 336.9077,-367.3323"/>
<polygon fill="#9a32cd" stroke="#9a32cd" points="210.1942,-363.8324 200.1942,-367.3323 210.1941,-370.8324 210.1942,-363.8324"/>
<text text-anchor="middle" x="268.5" y="-381.3323" font-family="Helvetica,sans-Serif" font-size="10.00" fill="#000000"> TemporaryFileName</text>
<text text-anchor="middle" x="268.5" y="-370.3323" font-family="Helvetica,sans-Serif" font-size="10.00" fill="#000000">FileName</text>
</g>
<!-- Node29 -->
<g id="node26" class="node">
<title>Node29</title>
<polygon fill="#ffffff" stroke="#bfbfbf" points="399,-9.8323 399,-28.8323 502,-28.8323 502,-9.8323 399,-9.8323"/>
<text text-anchor="middle" x="450.5" y="-16.8323" font-family="Helvetica,sans-Serif" font-size="10.00" fill="#000000">set&lt; std::string &gt;</text>
</g>
<!-- Node19&#45;&gt;Node29 -->
<g id="edge32" class="edge">
<title>Node19&#45;&gt;Node29</title>
<path fill="none" stroke="#9a32cd" stroke-dasharray="5,2" d="M178.9837,-347.3265C182.5231,-279.289 195.6001,-59.8656 218,-38.3323 270.2616,11.9073 363.1095,1.1792 414.2352,-9.8196"/>
<polygon fill="#9a32cd" stroke="#9a32cd" points="175.4765,-347.3826 178.4653,-357.5471 182.4675,-347.7373 175.4765,-347.3826"/>
<text text-anchor="middle" x="268.5" y="-41.3323" font-family="Helvetica,sans-Serif" font-size="10.00" fill="#000000"> keys</text>
</g>
<!-- Node20 -->
<g id="node17" class="node">
<title>Node20</title>
<g id="a_node17"><a xlink:title="STL class. ">
<polygon fill="#ffffff" stroke="#bfbfbf" points="0,-357.8323 0,-376.8323 119,-376.8323 119,-357.8323 0,-357.8323"/>
<text text-anchor="middle" x="59.5" y="-364.8323" font-family="Helvetica,sans-Serif" font-size="10.00" fill="#000000">basic_string&lt; char &gt;</text>
</a>
</g>
</g>
<!-- Node20&#45;&gt;Node19 -->
<g id="edge18" class="edge">
<title>Node20&#45;&gt;Node19</title>
<path fill="none" stroke="#191970" d="M129.2118,-367.3323C138.8284,-367.3323 148.0652,-367.3323 155.8653,-367.3323"/>
<polygon fill="#191970" stroke="#191970" points="129.0972,-363.8324 119.0972,-367.3323 129.0971,-370.8324 129.0972,-363.8324"/>
</g>
<!-- Node21 -->
<g id="node18" class="node">
<title>Node21</title>
<g id="a_node18"><a xlink:href="structpkgCache_1_1Group.xhtml" target="_top" xlink:title="groups architecture depending packages together ">
<polygon fill="#ffffff" stroke="#000000" points="558,-576.8323 558,-595.8323 604,-595.8323 604,-576.8323 558,-576.8323"/>
<text text-anchor="middle" x="581" y="-583.8323" font-family="Helvetica,sans-Serif" font-size="10.00" fill="#000000">Group</text>
</a>
</g>
</g>
<!-- Node21&#45;&gt;Node9 -->
<g id="edge19" class="edge">
<title>Node21&#45;&gt;Node9</title>
<path fill="none" stroke="#9a32cd" stroke-dasharray="5,2" d="M613.9728,-581.7846C645.0848,-575.5657 690.1233,-561.1504 712,-528.3323 751.2018,-469.5243 692.2165,-430.0614 730,-370.3323 733.4774,-364.8352 738.794,-360.4358 744.3217,-357.017"/>
<polygon fill="#9a32cd" stroke="#9a32cd" points="613.2228,-578.3635 604.0092,-583.5942 614.4737,-585.2508 613.2228,-578.3635"/>
<text text-anchor="middle" x="686" y="-570.3323" font-family="Helvetica,sans-Serif" font-size="10.00" fill="#000000"> GrpP</text>
</g>
<!-- Node22 -->
<g id="node19" class="node">
<title>Node22</title>
<g id="a_node19"><a xlink:href="classpkgVersioningSystem.xhtml" target="_top" xlink:title="pkgVersioningSystem">
<polygon fill="#ffffff" stroke="#000000" points="520,-509.8323 520,-528.8323 642,-528.8323 642,-509.8323 520,-509.8323"/>
<text text-anchor="middle" x="581" y="-516.8323" font-family="Helvetica,sans-Serif" font-size="10.00" fill="#000000">pkgVersioningSystem</text>
</a>
</g>
</g>
<!-- Node22&#45;&gt;Node9 -->
<g id="edge20" class="edge">
<title>Node22&#45;&gt;Node9</title>
<path fill="none" stroke="#9a32cd" stroke-dasharray="5,2" d="M652.332,-515.7809C674.3279,-511.1388 696.747,-502.17 712,-485.3323 746.7324,-446.9917 701.4352,-413.4646 730,-370.3323 733.6751,-364.783 739.1956,-360.3311 744.8586,-356.8778"/>
<polygon fill="#9a32cd" stroke="#9a32cd" points="651.4884,-512.3771 642.2829,-517.622 652.7499,-519.2625 651.4884,-512.3771"/>
<text text-anchor="middle" x="686" y="-516.3323" font-family="Helvetica,sans-Serif" font-size="10.00" fill="#000000"> VS</text>
</g>
<!-- Node22&#45;&gt;Node22 -->
<g id="edge21" class="edge">
<title>Node22&#45;&gt;Node22</title>
<path fill="none" stroke="#9a32cd" stroke-dasharray="5,2" d="M561.7417,-538.7324C563.0278,-543.6469 569.4473,-547.3323 581,-547.3323 599.4844,-547.3323 604.8275,-537.8976 597.0294,-529.0894"/>
<polygon fill="#9a32cd" stroke="#9a32cd" points="565.1142,-539.6832 564.9706,-529.0894 558.4765,-537.4606 565.1142,-539.6832"/>
<text text-anchor="middle" x="581" y="-550.3323" font-family="Helvetica,sans-Serif" font-size="10.00" fill="#000000"> GlobalList</text>
</g>
<!-- Node23 -->
<g id="node20" class="node">
<title>Node23</title>
<g id="a_node20"><a xlink:href="structpkgCache_1_1Version.xhtml" target="_top" xlink:title="information for a single version of a package ">
<polygon fill="#ffffff" stroke="#000000" points="554.5,-471.8323 554.5,-490.8323 607.5,-490.8323 607.5,-471.8323 554.5,-471.8323"/>
<text text-anchor="middle" x="581" y="-478.8323" font-family="Helvetica,sans-Serif" font-size="10.00" fill="#000000">Version</text>
</a>
</g>
</g>
<!-- Node23&#45;&gt;Node9 -->
<g id="edge22" class="edge">
<title>Node23&#45;&gt;Node9</title>
<path fill="none" stroke="#9a32cd" stroke-dasharray="5,2" d="M617.8742,-479.962C647.3357,-476.8697 687.6032,-467.8365 712,-442.3323 734.8006,-418.4968 710.5724,-396.9888 730,-370.3323 734.0093,-364.8311 739.7727,-360.3553 745.5612,-356.8637"/>
<polygon fill="#9a32cd" stroke="#9a32cd" points="617.2204,-476.5053 607.5583,-480.852 617.8222,-483.4794 617.2204,-476.5053"/>
<text text-anchor="middle" x="686" y="-473.3323" font-family="Helvetica,sans-Serif" font-size="10.00" fill="#000000"> VerP</text>
</g>
<!-- Node24 -->
<g id="node21" class="node">
<title>Node24</title>
<g id="a_node21"><a xlink:href="structpkgCache_1_1VerFile.xhtml" target="_top" xlink:title="associates a version with a PackageFile ">
<polygon fill="#ffffff" stroke="#000000" points="556.5,-433.8323 556.5,-452.8323 605.5,-452.8323 605.5,-433.8323 556.5,-433.8323"/>
<text text-anchor="middle" x="581" y="-440.8323" font-family="Helvetica,sans-Serif" font-size="10.00" fill="#000000">VerFile</text>
</a>
</g>
</g>
<!-- Node24&#45;&gt;Node9 -->
<g id="edge23" class="edge">
<title>Node24&#45;&gt;Node9</title>
<path fill="none" stroke="#9a32cd" stroke-dasharray="5,2" d="M615.4599,-439.6537C643.9961,-435.0655 684.2244,-424.8605 712,-402.3323 724.6733,-392.0533 718.7169,-382.1205 730,-370.3323 735.0207,-365.0869 741.479,-360.5411 747.5907,-356.908"/>
<polygon fill="#9a32cd" stroke="#9a32cd" points="614.911,-436.1966 605.5203,-441.1023 615.9206,-443.1234 614.911,-436.1966"/>
<text text-anchor="middle" x="686" y="-430.3323" font-family="Helvetica,sans-Serif" font-size="10.00" fill="#000000"> VerFileP</text>
</g>
<!-- Node25 -->
<g id="node22" class="node">
<title>Node25</title>
<g id="a_node22"><a xlink:href="structpkgCache_1_1Package.xhtml" target="_top" xlink:title="contains information for a single unique package ">
<polygon fill="#ffffff" stroke="#000000" points="552.5,-395.8323 552.5,-414.8323 609.5,-414.8323 609.5,-395.8323 552.5,-395.8323"/>
<text text-anchor="middle" x="581" y="-402.8323" font-family="Helvetica,sans-Serif" font-size="10.00" fill="#000000">Package</text>
</a>
</g>
</g>
<!-- Node25&#45;&gt;Node9 -->
<g id="edge24" class="edge">
<title>Node25&#45;&gt;Node9</title>
<path fill="none" stroke="#9a32cd" stroke-dasharray="5,2" d="M619.5915,-398.0487C646.0051,-392.5458 681.6097,-384.1026 712,-373.3323 724.7425,-368.8164 738.4925,-362.3164 749.0569,-356.9454"/>
<polygon fill="#9a32cd" stroke="#9a32cd" points="618.6937,-394.6596 609.5924,-400.0833 620.0895,-401.519 618.6937,-394.6596"/>
<text text-anchor="middle" x="686" y="-390.3323" font-family="Helvetica,sans-Serif" font-size="10.00" fill="#000000"> PkgP</text>
</g>
<!-- Node26 -->
<g id="node23" class="node">
<title>Node26</title>
<g id="a_node23"><a xlink:href="classMMap.xhtml" target="_top" xlink:title="MMap">
<polygon fill="#ffffff" stroke="#000000" points="558.5,-357.8323 558.5,-376.8323 603.5,-376.8323 603.5,-357.8323 558.5,-357.8323"/>
<text text-anchor="middle" x="581" y="-364.8323" font-family="Helvetica,sans-Serif" font-size="10.00" fill="#000000">MMap</text>
</a>
</g>
</g>
<!-- Node26&#45;&gt;Node9 -->
<g id="edge25" class="edge">
<title>Node26&#45;&gt;Node9</title>
<path fill="none" stroke="#9a32cd" stroke-dasharray="5,2" d="M614.1292,-363.7701C648.0683,-360.1207 700.5112,-354.4817 734.2952,-350.849"/>
<polygon fill="#9a32cd" stroke="#9a32cd" points="613.3757,-360.3308 603.8073,-364.8799 614.1242,-367.2907 613.3757,-360.3308"/>
<text text-anchor="middle" x="686" y="-361.3323" font-family="Helvetica,sans-Serif" font-size="10.00" fill="#000000"> Map</text>
</g>
<!-- Node27&#45;&gt;Node26 -->
<g id="edge26" class="edge">
<title>Node27&#45;&gt;Node26</title>
<path fill="none" stroke="#9a32cd" stroke-dasharray="5,2" d="M391.3059,-367.3323C436.8339,-367.3323 518.7281,-367.3323 558.3306,-367.3323"/>
<polygon fill="#9a32cd" stroke="#9a32cd" points="391.0979,-363.8324 381.0978,-367.3323 391.0978,-370.8324 391.0979,-363.8324"/>
<text text-anchor="middle" x="450.5" y="-370.3323" font-family="Helvetica,sans-Serif" font-size="10.00" fill="#000000"> SyncToFd</text>
</g>
<!-- Node28 -->
<g id="node25" class="node">
<title>Node28</title>
<g id="a_node25"><a xlink:href="structpkgDepCache_1_1StateCache.xhtml" target="_top" xlink:title="StateCache">
<polygon fill="#ffffff" stroke="#000000" points="731,-294.8323 731,-313.8323 803,-313.8323 803,-294.8323 731,-294.8323"/>
<text text-anchor="middle" x="767" y="-301.8323" font-family="Helvetica,sans-Serif" font-size="10.00" fill="#000000">StateCache</text>
</a>
</g>
</g>
<!-- Node28&#45;&gt;Node7 -->
<g id="edge28" class="edge">
<title>Node28&#45;&gt;Node7</title>
<path fill="none" stroke="#9a32cd" stroke-dasharray="5,2" d="M813.335,-307.5815C841.1969,-309.943 877.2893,-313.722 909,-319.3323 917.247,-320.7914 926.0385,-322.7539 934.2772,-324.7775"/>
<polygon fill="#9a32cd" stroke="#9a32cd" points="813.3376,-304.0701 803.086,-306.7449 812.7681,-311.0469 813.3376,-304.0701"/>
<text text-anchor="middle" x="865.5" y="-322.3323" font-family="Helvetica,sans-Serif" font-size="10.00" fill="#000000"> PkgState</text>
</g>
<!-- Node29&#45;&gt;Node4 -->
<g id="edge31" class="edge">
<title>Node29&#45;&gt;Node4</title>
<path fill="none" stroke="#9a32cd" stroke-dasharray="5,2" d="M512.5394,-18.5181C560.0262,-17.9646 627.148,-17.3323 686,-17.3323 686,-17.3323 686,-17.3323 1120.5,-17.3323 1158.1763,-17.3323 1174.0223,-21.1256 1199,-49.3323 1236.6253,-91.8216 1267.0914,-275.8908 1274.0193,-320.5458"/>
<polygon fill="#9a32cd" stroke="#9a32cd" points="512.3722,-15.0198 502.4145,-18.6384 512.4554,-22.0193 512.3722,-15.0198"/>
<text text-anchor="middle" x="865.5" y="-20.3323" font-family="Helvetica,sans-Serif" font-size="10.00" fill="#000000"> disappearedPkgs</text>
</g>
</g>
</svg>
