<?xml version="1.0" encoding="UTF-8" standalone="no"?>
<!DOCTYPE svg PUBLIC "-//W3C//DTD SVG 1.1//EN"
 "http://www.w3.org/Graphics/SVG/1.1/DTD/svg11.dtd">
<!-- Generated by graphviz version 2.40.1 (20161225.0304)
 -->
<!-- Title: apt&#45;pkg/edsp.h Pages: 1 -->
<svg width="2699pt" height="588pt"
 viewBox="0.00 0.00 2698.58 588.00" xmlns="http://www.w3.org/2000/svg" xmlns:xlink="http://www.w3.org/1999/xlink">
<g id="graph0" class="graph" transform="scale(1 1) rotate(0) translate(4 584)">
<title>apt&#45;pkg/edsp.h</title>
<polygon fill="#ffffff" stroke="transparent" points="-4,4 -4,-584 2694.5846,-584 2694.5846,4 -4,4"/>
<!-- Node0 -->
<g id="node1" class="node">
<title>Node0</title>
<polygon fill="#bfbfbf" stroke="#000000" points="1472.5,-560.5 1472.5,-579.5 1561.5,-579.5 1561.5,-560.5 1472.5,-560.5"/>
<text text-anchor="middle" x="1517" y="-567.5" font-family="Helvetica,sans-Serif" font-size="10.00" fill="#000000">apt&#45;pkg/edsp.h</text>
</g>
<!-- Node1 -->
<g id="node2" class="node">
<title>Node1</title>
<g id="a_node2"><a xlink:href="cacheset_8h.xhtml" target="_top" xlink:title="apt&#45;pkg/cacheset.h">
<polygon fill="#ffffff" stroke="#000000" points="1462,-504.5 1462,-523.5 1572,-523.5 1572,-504.5 1462,-504.5"/>
<text text-anchor="middle" x="1517" y="-511.5" font-family="Helvetica,sans-Serif" font-size="10.00" fill="#000000">apt&#45;pkg/cacheset.h</text>
</a>
</g>
</g>
<!-- Node0&#45;&gt;Node1 -->
<g id="edge1" class="edge">
<title>Node0&#45;&gt;Node1</title>
<path fill="none" stroke="#191970" d="M1517,-560.2455C1517,-552.9382 1517,-542.6944 1517,-533.7046"/>
<polygon fill="#191970" stroke="#191970" points="1520.5001,-533.6426 1517,-523.6427 1513.5001,-533.6427 1520.5001,-533.6426"/>
</g>
<!-- Node8 -->
<g id="node9" class="node">
<title>Node8</title>
<polygon fill="#ffffff" stroke="#bfbfbf" points="2345,-112.5 2345,-131.5 2377,-131.5 2377,-112.5 2345,-112.5"/>
<text text-anchor="middle" x="2361" y="-119.5" font-family="Helvetica,sans-Serif" font-size="10.00" fill="#000000">list</text>
</g>
<!-- Node0&#45;&gt;Node8 -->
<g id="edge110" class="edge">
<title>Node0&#45;&gt;Node8</title>
<path fill="none" stroke="#191970" d="M1561.5943,-569.115C1741.4628,-564.9654 2404,-543.8537 2404,-458 2404,-458 2404,-458 2404,-234 2404,-199.1403 2385.6207,-161.9899 2372.8941,-140.444"/>
<polygon fill="#191970" stroke="#191970" points="2375.7451,-138.3983 2367.5308,-131.7069 2369.7794,-142.0603 2375.7451,-138.3983"/>
</g>
<!-- Node9 -->
<g id="node10" class="node">
<title>Node9</title>
<polygon fill="#ffffff" stroke="#bfbfbf" points="1195,-.5 1195,-19.5 1239,-19.5 1239,-.5 1195,-.5"/>
<text text-anchor="middle" x="1217" y="-7.5" font-family="Helvetica,sans-Serif" font-size="10.00" fill="#000000">string</text>
</g>
<!-- Node0&#45;&gt;Node9 -->
<g id="edge111" class="edge">
<title>Node0&#45;&gt;Node9</title>
<path fill="none" stroke="#191970" d="M1561.7624,-568.8921C1714.393,-564.9108 2213.6955,-550.1604 2372,-524 2479.0338,-506.3123 2607,-566.4854 2607,-458 2607,-458 2607,-458 2607,-122 2607,-101.3028 2929.6699,-131.4768 2303,-56 2091.4461,-30.5202 1408.0258,-14.1978 1249.8801,-10.7044"/>
<polygon fill="#191970" stroke="#191970" points="1249.4894,-7.1951 1239.4151,-10.4751 1249.336,-14.1934 1249.4894,-7.1951"/>
</g>
<!-- Node10 -->
<g id="node11" class="node">
<title>Node10</title>
<polygon fill="#ffffff" stroke="#bfbfbf" points="593.5,-112.5 593.5,-131.5 640.5,-131.5 640.5,-112.5 593.5,-112.5"/>
<text text-anchor="middle" x="617" y="-119.5" font-family="Helvetica,sans-Serif" font-size="10.00" fill="#000000">vector</text>
</g>
<!-- Node0&#45;&gt;Node10 -->
<g id="edge112" class="edge">
<title>Node0&#45;&gt;Node10</title>
<path fill="none" stroke="#191970" d="M1472.2586,-568.8377C1308.4251,-564.4271 741.4673,-547.7635 562,-524 425.7987,-505.9654 260,-595.3901 260,-458 260,-458 260,-458 260,-346 260,-212.1248 386.0222,-233.1059 503,-168 528.8288,-153.6246 560.0787,-141.3394 583.3232,-133.0906"/>
<polygon fill="#191970" stroke="#191970" points="584.7776,-136.2905 593.0731,-129.7 582.4783,-129.6788 584.7776,-136.2905"/>
</g>
<!-- Node13 -->
<g id="node14" class="node">
<title>Node13</title>
<polygon fill="#ffffff" stroke="#bfbfbf" points="283,-.5 283,-19.5 385,-19.5 385,-.5 283,-.5"/>
<text text-anchor="middle" x="334" y="-7.5" font-family="Helvetica,sans-Serif" font-size="10.00" fill="#000000">apt&#45;pkg/macros.h</text>
</g>
<!-- Node0&#45;&gt;Node13 -->
<g id="edge107" class="edge">
<title>Node0&#45;&gt;Node13</title>
<path fill="none" stroke="#191970" d="M1472.3375,-569.2964C1237.9148,-565.5103 157.8246,-546.8792 91,-524 43.7317,-507.8164 0,-507.962 0,-458 0,-458 0,-458 0,-122 0,-74.5213 40.7249,-75.5317 84,-56 116.9114,-41.1458 209.898,-26.4861 272.7096,-17.8417"/>
<polygon fill="#191970" stroke="#191970" points="273.4667,-21.271 282.9037,-16.4549 272.5231,-14.3349 273.4667,-21.271"/>
</g>
<!-- Node14 -->
<g id="node15" class="node">
<title>Node14</title>
<g id="a_node15"><a xlink:href="pkgcache_8h.xhtml" target="_top" xlink:title="pkgCache &#45; Structure definitions for the cache file ">
<polygon fill="#ffffff" stroke="#000000" points="697.5,-112.5 697.5,-131.5 810.5,-131.5 810.5,-112.5 697.5,-112.5"/>
<text text-anchor="middle" x="754" y="-119.5" font-family="Helvetica,sans-Serif" font-size="10.00" fill="#000000">apt&#45;pkg/pkgcache.h</text>
</a>
</g>
</g>
<!-- Node0&#45;&gt;Node14 -->
<g id="edge108" class="edge">
<title>Node0&#45;&gt;Node14</title>
<path fill="none" stroke="#191970" d="M1472.193,-568.0028C1260.8688,-558.2943 374,-514.2025 374,-458 374,-458 374,-458 374,-402 374,-240.8095 598.3428,-162.0182 702.2767,-134.1647"/>
<polygon fill="#191970" stroke="#191970" points="703.4612,-137.4725 712.2463,-131.5504 701.6856,-130.7014 703.4612,-137.4725"/>
</g>
<!-- Node22 -->
<g id="node23" class="node">
<title>Node22</title>
<g id="a_node23"><a xlink:href="depcache_8h_source.xhtml" target="_top" xlink:title="apt&#45;pkg/depcache.h">
<polygon fill="#ffffff" stroke="#000000" points="1998.5,-168.5 1998.5,-187.5 2111.5,-187.5 2111.5,-168.5 1998.5,-168.5"/>
<text text-anchor="middle" x="2055" y="-175.5" font-family="Helvetica,sans-Serif" font-size="10.00" fill="#000000">apt&#45;pkg/depcache.h</text>
</a>
</g>
</g>
<!-- Node0&#45;&gt;Node22 -->
<g id="edge113" class="edge">
<title>Node0&#45;&gt;Node22</title>
<path fill="none" stroke="#191970" d="M1561.6,-566.816C1708.6114,-555.8743 2171.0158,-517.7324 2214,-468 2292.9089,-376.703 2135.0964,-239.8575 2076.0552,-193.7808"/>
<polygon fill="#191970" stroke="#191970" points="2078.1598,-190.984 2068.1008,-187.6574 2073.8898,-196.5309 2078.1598,-190.984"/>
</g>
<!-- Node26 -->
<g id="node27" class="node">
<title>Node26</title>
<polygon fill="#ffffff" stroke="#bfbfbf" points="2395,-112.5 2395,-131.5 2503,-131.5 2503,-112.5 2395,-112.5"/>
<text text-anchor="middle" x="2449" y="-119.5" font-family="Helvetica,sans-Serif" font-size="10.00" fill="#000000">apt&#45;pkg/progress.h</text>
</g>
<!-- Node0&#45;&gt;Node26 -->
<g id="edge114" class="edge">
<title>Node0&#45;&gt;Node26</title>
<path fill="none" stroke="#191970" d="M1561.5161,-569.5662C1750.9089,-567.1435 2480,-551.7301 2480,-458 2480,-458 2480,-458 2480,-234 2480,-200.3636 2466.8523,-163.0368 2457.6816,-141.0922"/>
<polygon fill="#191970" stroke="#191970" points="2460.7693,-139.4156 2453.5742,-131.6387 2454.3491,-142.2051 2460.7693,-139.4156"/>
</g>
<!-- Node37 -->
<g id="node38" class="node">
<title>Node37</title>
<polygon fill="#ffffff" stroke="#bfbfbf" points="66,-112.5 66,-131.5 116,-131.5 116,-112.5 66,-112.5"/>
<text text-anchor="middle" x="91" y="-119.5" font-family="Helvetica,sans-Serif" font-size="10.00" fill="#000000">stdio.h</text>
</g>
<!-- Node0&#45;&gt;Node37 -->
<g id="edge109" class="edge">
<title>Node0&#45;&gt;Node37</title>
<path fill="none" stroke="#191970" d="M1472.4712,-569.1115C1263.852,-564.8475 388.2325,-545.7894 268,-524 179.212,-507.9092 76,-548.2343 76,-458 76,-458 76,-458 76,-234 76,-201.2739 82.3693,-163.641 86.807,-141.3923"/>
<polygon fill="#191970" stroke="#191970" points="90.2485,-142.0329 88.8509,-131.5307 83.3942,-140.6123 90.2485,-142.0329"/>
</g>
<!-- Node2 -->
<g id="node3" class="node">
<title>Node2</title>
<polygon fill="#ffffff" stroke="#bfbfbf" points="1299.5,-448.5 1299.5,-467.5 1354.5,-467.5 1354.5,-448.5 1299.5,-448.5"/>
<text text-anchor="middle" x="1327" y="-455.5" font-family="Helvetica,sans-Serif" font-size="10.00" fill="#000000">fstream</text>
</g>
<!-- Node1&#45;&gt;Node2 -->
<g id="edge2" class="edge">
<title>Node1&#45;&gt;Node2</title>
<path fill="none" stroke="#191970" d="M1484.3378,-504.3733C1451.0217,-494.5537 1399.3919,-479.3366 1364.4427,-469.0357"/>
<polygon fill="#191970" stroke="#191970" points="1365.1957,-465.6089 1354.6141,-466.1389 1363.2167,-472.3233 1365.1957,-465.6089"/>
</g>
<!-- Node3 -->
<g id="node4" class="node">
<title>Node3</title>
<polygon fill="#ffffff" stroke="#bfbfbf" points="1244,-168.5 1244,-187.5 1282,-187.5 1282,-168.5 1244,-168.5"/>
<text text-anchor="middle" x="1263" y="-175.5" font-family="Helvetica,sans-Serif" font-size="10.00" fill="#000000">map</text>
</g>
<!-- Node1&#45;&gt;Node3 -->
<g id="edge3" class="edge">
<title>Node1&#45;&gt;Node3</title>
<path fill="none" stroke="#191970" d="M1472.3352,-504.4527C1449.0599,-497.5794 1421.4703,-486.2176 1402,-468 1317.857,-389.2707 1279.0412,-248.9924 1267.1571,-197.5809"/>
<polygon fill="#191970" stroke="#191970" points="1270.5038,-196.5069 1264.9149,-187.5061 1263.671,-198.0276 1270.5038,-196.5069"/>
</g>
<!-- Node4 -->
<g id="node5" class="node">
<title>Node4</title>
<polygon fill="#ffffff" stroke="#bfbfbf" points="2295,-112.5 2295,-131.5 2327,-131.5 2327,-112.5 2295,-112.5"/>
<text text-anchor="middle" x="2311" y="-119.5" font-family="Helvetica,sans-Serif" font-size="10.00" fill="#000000">set</text>
</g>
<!-- Node1&#45;&gt;Node4 -->
<g id="edge4" class="edge">
<title>Node1&#45;&gt;Node4</title>
<path fill="none" stroke="#191970" d="M1572.0259,-510.765C1734.3624,-500.4936 2200,-465.4971 2200,-402 2200,-402 2200,-402 2200,-346 2200,-262.2272 2216.3663,-238.2527 2262,-168 2269.374,-156.6478 2280.1279,-146.1376 2289.6838,-138.0376"/>
<polygon fill="#191970" stroke="#191970" points="2292.0897,-140.593 2297.658,-131.5794 2287.6841,-135.1533 2292.0897,-140.593"/>
</g>
<!-- Node5 -->
<g id="node6" class="node">
<title>Node5</title>
<polygon fill="#ffffff" stroke="#bfbfbf" points="1411,-448.5 1411,-467.5 1475,-467.5 1475,-448.5 1411,-448.5"/>
<text text-anchor="middle" x="1443" y="-455.5" font-family="Helvetica,sans-Serif" font-size="10.00" fill="#000000">algorithm</text>
</g>
<!-- Node1&#45;&gt;Node5 -->
<g id="edge5" class="edge">
<title>Node1&#45;&gt;Node5</title>
<path fill="none" stroke="#191970" d="M1504.1102,-504.2455C1493.0746,-495.8943 1476.9708,-483.7076 1464.0647,-473.9408"/>
<polygon fill="#191970" stroke="#191970" points="1465.8283,-470.8862 1455.7421,-467.6427 1461.6041,-476.4681 1465.8283,-470.8862"/>
</g>
<!-- Node6 -->
<g id="node7" class="node">
<title>Node6</title>
<polygon fill="#ffffff" stroke="#bfbfbf" points="1493.5,-448.5 1493.5,-467.5 1540.5,-467.5 1540.5,-448.5 1493.5,-448.5"/>
<text text-anchor="middle" x="1517" y="-455.5" font-family="Helvetica,sans-Serif" font-size="10.00" fill="#000000">deque</text>
</g>
<!-- Node1&#45;&gt;Node6 -->
<g id="edge6" class="edge">
<title>Node1&#45;&gt;Node6</title>
<path fill="none" stroke="#191970" d="M1517,-504.2455C1517,-496.9382 1517,-486.6944 1517,-477.7046"/>
<polygon fill="#191970" stroke="#191970" points="1520.5001,-477.6426 1517,-467.6427 1513.5001,-477.6427 1520.5001,-477.6426"/>
</g>
<!-- Node7 -->
<g id="node8" class="node">
<title>Node7</title>
<polygon fill="#ffffff" stroke="#bfbfbf" points="1065.5,-.5 1065.5,-19.5 1118.5,-19.5 1118.5,-.5 1065.5,-.5"/>
<text text-anchor="middle" x="1092" y="-7.5" font-family="Helvetica,sans-Serif" font-size="10.00" fill="#000000">iterator</text>
</g>
<!-- Node1&#45;&gt;Node7 -->
<g id="edge7" class="edge">
<title>Node1&#45;&gt;Node7</title>
<path fill="none" stroke="#191970" d="M1572.1625,-512.2539C1701.0419,-507.7799 2018.7897,-494.3584 2122,-468 2349.3903,-409.9279 2672.1038,-283.5969 2512,-112 2486.812,-85.0039 1222.7802,-23.2312 1186,-20 1167.1813,-18.3467 1146.281,-16.1584 1128.9759,-14.2505"/>
<polygon fill="#191970" stroke="#191970" points="1129.0428,-10.7363 1118.7164,-13.106 1128.2667,-17.6932 1129.0428,-10.7363"/>
</g>
<!-- Node1&#45;&gt;Node8 -->
<g id="edge8" class="edge">
<title>Node1&#45;&gt;Node8</title>
<path fill="none" stroke="#191970" d="M1572.4521,-511.502C1693.5126,-505.7074 1978.1321,-490.137 2072,-468 2189.116,-440.3803 2276,-410.3288 2276,-290 2276,-290 2276,-290 2276,-234 2276,-192.7307 2313.0727,-157.1225 2338.2512,-137.6976"/>
<polygon fill="#191970" stroke="#191970" points="2340.6344,-140.2877 2346.5809,-131.519 2336.4641,-134.6655 2340.6344,-140.2877"/>
</g>
<!-- Node1&#45;&gt;Node9 -->
<g id="edge9" class="edge">
<title>Node1&#45;&gt;Node9</title>
<path fill="none" stroke="#191970" d="M1572.1625,-512.2539C1701.0419,-507.7799 2018.7897,-494.3584 2122,-468 2351.4495,-409.402 2569,-414.8138 2569,-178 2569,-178 2569,-178 2569,-122 2569,-53.5603 1454.1561,-17.0626 1249.1779,-10.9304"/>
<polygon fill="#191970" stroke="#191970" points="1249.1599,-7.4284 1239.0606,-10.6304 1248.9524,-14.4253 1249.1599,-7.4284"/>
</g>
<!-- Node1&#45;&gt;Node10 -->
<g id="edge10" class="edge">
<title>Node1&#45;&gt;Node10</title>
<path fill="none" stroke="#191970" d="M1461.8411,-511.8983C1311.5657,-505.9716 897.148,-488.2339 762,-468 638.1199,-449.4531 488,-527.2608 488,-402 488,-402 488,-402 488,-234 488,-183.3595 545.3841,-150.4477 583.6063,-134.1427"/>
<polygon fill="#191970" stroke="#191970" points="585.4044,-137.1891 593.3394,-130.1686 582.7583,-130.7084 585.4044,-137.1891"/>
</g>
<!-- Node11 -->
<g id="node12" class="node">
<title>Node11</title>
<polygon fill="#ffffff" stroke="#bfbfbf" points="1407,-112.5 1407,-131.5 1463,-131.5 1463,-112.5 1407,-112.5"/>
<text text-anchor="middle" x="1435" y="-119.5" font-family="Helvetica,sans-Serif" font-size="10.00" fill="#000000">stddef.h</text>
</g>
<!-- Node1&#45;&gt;Node11 -->
<g id="edge11" class="edge">
<title>Node1&#45;&gt;Node11</title>
<path fill="none" stroke="#191970" d="M1572.3025,-505.5532C1622.6405,-497.0946 1692.5632,-483.182 1716,-468 1746.8863,-447.9924 1766,-438.8004 1766,-402 1766,-402 1766,-402 1766,-290 1766,-216.3938 1718.2522,-203.9101 1654,-168 1583.3708,-128.5257 1552.2018,-150.3598 1472.9405,-133.0237"/>
<polygon fill="#191970" stroke="#191970" points="1473.5642,-129.5753 1463.0302,-130.7086 1471.9718,-136.3918 1473.5642,-129.5753"/>
</g>
<!-- Node12 -->
<g id="node13" class="node">
<title>Node12</title>
<polygon fill="#ffffff" stroke="#bfbfbf" points="1971.5,-112.5 1971.5,-131.5 2060.5,-131.5 2060.5,-112.5 1971.5,-112.5"/>
<text text-anchor="middle" x="2016" y="-119.5" font-family="Helvetica,sans-Serif" font-size="10.00" fill="#000000">apt&#45;pkg/error.h</text>
</g>
<!-- Node1&#45;&gt;Node12 -->
<g id="edge12" class="edge">
<title>Node1&#45;&gt;Node12</title>
<path fill="none" stroke="#191970" d="M1526.8298,-504.2822C1540.2814,-491.1204 1565.344,-467.0801 1588,-448 1738.1177,-321.5763 1930.1392,-183.0678 1994.1489,-137.4793"/>
<polygon fill="#191970" stroke="#191970" points="1996.1918,-140.3213 2002.3137,-131.6742 1992.1355,-134.6163 1996.1918,-140.3213"/>
</g>
<!-- Node1&#45;&gt;Node13 -->
<g id="edge13" class="edge">
<title>Node1&#45;&gt;Node13</title>
<path fill="none" stroke="#191970" d="M1461.8451,-512.4218C1278.0506,-507.0195 687.3794,-488.4681 498,-468 325.8335,-449.3923 114,-575.1692 114,-402 114,-402 114,-402 114,-346 114,-264.0485 38,-259.9515 38,-178 38,-178 38,-178 38,-122 38,-72.2531 186.0997,-36.8449 272.784,-20.3808"/>
<polygon fill="#191970" stroke="#191970" points="273.591,-23.7907 282.7787,-18.5146 272.3061,-16.9096 273.591,-23.7907"/>
</g>
<!-- Node1&#45;&gt;Node14 -->
<g id="edge14" class="edge">
<title>Node1&#45;&gt;Node14</title>
<path fill="none" stroke="#191970" d="M1461.8305,-511.6134C1280.6687,-503.2183 712.5113,-472.2495 659,-412 585.334,-329.0578 695.7272,-187.7887 738.371,-139.0932"/>
<polygon fill="#191970" stroke="#191970" points="741.0066,-141.3964 745.043,-131.6006 735.7788,-136.7412 741.0066,-141.3964"/>
</g>
<!-- Node21 -->
<g id="node22" class="node">
<title>Node21</title>
<g id="a_node22"><a xlink:href="cachefile_8h_source.xhtml" target="_top" xlink:title="apt&#45;pkg/cachefile.h">
<polygon fill="#ffffff" stroke="#000000" points="1597,-448.5 1597,-467.5 1707,-467.5 1707,-448.5 1597,-448.5"/>
<text text-anchor="middle" x="1652" y="-455.5" font-family="Helvetica,sans-Serif" font-size="10.00" fill="#000000">apt&#45;pkg/cachefile.h</text>
</a>
</g>
</g>
<!-- Node1&#45;&gt;Node21 -->
<g id="edge26" class="edge">
<title>Node1&#45;&gt;Node21</title>
<path fill="none" stroke="#191970" d="M1540.2073,-504.3733C1562.1699,-495.2629 1595.3332,-481.5062 1619.8401,-471.3404"/>
<polygon fill="#191970" stroke="#191970" points="1621.1997,-474.5657 1629.0955,-467.5011 1618.5176,-468.0999 1621.1997,-474.5657"/>
</g>
<!-- Node45 -->
<g id="node46" class="node">
<title>Node45</title>
<polygon fill="#ffffff" stroke="#bfbfbf" points="1221,-448.5 1221,-467.5 1281,-467.5 1281,-448.5 1221,-448.5"/>
<text text-anchor="middle" x="1251" y="-455.5" font-family="Helvetica,sans-Serif" font-size="10.00" fill="#000000">iostream</text>
</g>
<!-- Node1&#45;&gt;Node45 -->
<g id="edge106" class="edge">
<title>Node1&#45;&gt;Node45</title>
<path fill="none" stroke="#191970" d="M1467.0432,-504.4894C1421.158,-495.5981 1351.3325,-481.6746 1291,-468 1290.8996,-467.9773 1290.7992,-467.9544 1290.6985,-467.9316"/>
<polygon fill="#191970" stroke="#191970" points="1291.6423,-464.5581 1281.1068,-465.6781 1290.0412,-471.3725 1291.6423,-464.5581"/>
</g>
<!-- Node14&#45;&gt;Node9 -->
<g id="edge17" class="edge">
<title>Node14&#45;&gt;Node9</title>
<path fill="none" stroke="#191970" d="M810.5377,-113.8879C857.5719,-106.3824 925.9656,-93.704 984,-76 1006.1054,-69.2565 1010.0567,-63.2535 1032,-56 1084.4819,-38.6518 1147.2258,-24.3608 1184.5045,-16.5218"/>
<polygon fill="#191970" stroke="#191970" points="1185.6852,-19.8514 1194.7653,-14.3922 1184.2627,-12.9975 1185.6852,-19.8514"/>
</g>
<!-- Node14&#45;&gt;Node13 -->
<g id="edge15" class="edge">
<title>Node14&#45;&gt;Node13</title>
<path fill="none" stroke="#191970" d="M704.0182,-112.4644C665.9063,-104.5346 612.4153,-91.9771 567,-76 547.1173,-69.0053 543.8955,-62.9583 524,-56 481.7991,-41.2406 432.7208,-29.4908 395.0167,-21.5613"/>
<polygon fill="#191970" stroke="#191970" points="395.6962,-18.1278 385.1942,-19.5276 394.2769,-24.9825 395.6962,-18.1278"/>
</g>
<!-- Node15 -->
<g id="node16" class="node">
<title>Node15</title>
<polygon fill="#ffffff" stroke="#bfbfbf" points="576,-56.5 576,-75.5 674,-75.5 674,-56.5 576,-56.5"/>
<text text-anchor="middle" x="625" y="-63.5" font-family="Helvetica,sans-Serif" font-size="10.00" fill="#000000">apt&#45;pkg/mmap.h</text>
</g>
<!-- Node14&#45;&gt;Node15 -->
<g id="edge16" class="edge">
<title>Node14&#45;&gt;Node15</title>
<path fill="none" stroke="#191970" d="M731.8241,-112.3733C711.0234,-103.3435 679.7083,-89.7494 656.3542,-79.6111"/>
<polygon fill="#191970" stroke="#191970" points="657.4532,-76.2727 646.8865,-75.5011 654.6657,-82.6938 657.4532,-76.2727"/>
</g>
<!-- Node16 -->
<g id="node17" class="node">
<title>Node16</title>
<polygon fill="#ffffff" stroke="#bfbfbf" points="428.5,-56.5 428.5,-75.5 481.5,-75.5 481.5,-56.5 428.5,-56.5"/>
<text text-anchor="middle" x="455" y="-63.5" font-family="Helvetica,sans-Serif" font-size="10.00" fill="#000000">stdint.h</text>
</g>
<!-- Node14&#45;&gt;Node16 -->
<g id="edge18" class="edge">
<title>Node14&#45;&gt;Node16</title>
<path fill="none" stroke="#191970" d="M702.9398,-112.4369C642.8944,-101.1909 544.7102,-82.8019 491.7054,-72.8746"/>
<polygon fill="#191970" stroke="#191970" points="492.2049,-69.4074 481.7315,-71.0066 490.9163,-76.2877 492.2049,-69.4074"/>
</g>
<!-- Node17 -->
<g id="node18" class="node">
<title>Node17</title>
<polygon fill="#ffffff" stroke="#bfbfbf" points="362,-56.5 362,-75.5 410,-75.5 410,-56.5 362,-56.5"/>
<text text-anchor="middle" x="386" y="-63.5" font-family="Helvetica,sans-Serif" font-size="10.00" fill="#000000">time.h</text>
</g>
<!-- Node14&#45;&gt;Node17 -->
<g id="edge19" class="edge">
<title>Node14&#45;&gt;Node17</title>
<path fill="none" stroke="#191970" d="M697.212,-116.9599C632.2852,-110.5839 522.7473,-97.9586 419.9594,-75.924"/>
<polygon fill="#191970" stroke="#191970" points="420.5508,-72.4708 410.035,-73.7621 419.0609,-79.3104 420.5508,-72.4708"/>
</g>
<!-- Node18 -->
<g id="node19" class="node">
<title>Node18</title>
<g id="a_node19"><a xlink:href="cacheiterators_8h_source.xhtml" target="_top" xlink:title="apt&#45;pkg/cacheiterators.h">
<polygon fill="#ffffff" stroke="#000000" points="806,-56.5 806,-75.5 942,-75.5 942,-56.5 806,-56.5"/>
<text text-anchor="middle" x="874" y="-63.5" font-family="Helvetica,sans-Serif" font-size="10.00" fill="#000000">apt&#45;pkg/cacheiterators.h</text>
</a>
</g>
</g>
<!-- Node14&#45;&gt;Node18 -->
<g id="edge20" class="edge">
<title>Node14&#45;&gt;Node18</title>
<path fill="none" stroke="#191970" d="M774.6287,-112.3733C793.8919,-103.3838 822.8486,-89.8706 844.5419,-79.7471"/>
<polygon fill="#191970" stroke="#191970" points="846.0587,-82.9017 853.6405,-75.5011 843.0985,-76.5584 846.0587,-82.9017"/>
</g>
<!-- Node18&#45;&gt;Node7 -->
<g id="edge23" class="edge">
<title>Node18&#45;&gt;Node7</title>
<path fill="none" stroke="#191970" d="M911.4755,-56.3733C951.7915,-46.0169 1015.4802,-29.6565 1055.4386,-19.3919"/>
<polygon fill="#191970" stroke="#191970" points="1056.4883,-22.736 1065.303,-16.8579 1054.7466,-15.9561 1056.4883,-22.736"/>
</g>
<!-- Node18&#45;&gt;Node9 -->
<g id="edge24" class="edge">
<title>Node18&#45;&gt;Node9</title>
<path fill="none" stroke="#191970" d="M932.5741,-56.4369C1005.3452,-44.5559 1126.9479,-24.7024 1184.6806,-15.2766"/>
<polygon fill="#191970" stroke="#191970" points="1185.3858,-18.7079 1194.6911,-13.6423 1184.2578,-11.7994 1185.3858,-18.7079"/>
</g>
<!-- Node18&#45;&gt;Node13 -->
<g id="edge21" class="edge">
<title>Node18&#45;&gt;Node13</title>
<path fill="none" stroke="#191970" d="M805.9999,-57.5945C801.2634,-57.0437 796.5612,-56.5071 792,-56 650.0878,-40.222 483.1629,-24.0603 395.2711,-15.7365"/>
<polygon fill="#191970" stroke="#191970" points="395.4944,-12.2421 385.2094,-14.7852 394.8355,-19.211 395.4944,-12.2421"/>
</g>
<!-- Node19 -->
<g id="node20" class="node">
<title>Node19</title>
<polygon fill="#ffffff" stroke="#bfbfbf" points="815.5,-.5 815.5,-19.5 864.5,-19.5 864.5,-.5 815.5,-.5"/>
<text text-anchor="middle" x="840" y="-7.5" font-family="Helvetica,sans-Serif" font-size="10.00" fill="#000000">iosfwd</text>
</g>
<!-- Node18&#45;&gt;Node19 -->
<g id="edge22" class="edge">
<title>Node18&#45;&gt;Node19</title>
<path fill="none" stroke="#191970" d="M868.0777,-56.2455C863.3973,-48.5367 856.7327,-37.5598 851.0711,-28.2348"/>
<polygon fill="#191970" stroke="#191970" points="854.0361,-26.3741 845.8545,-19.6427 848.0525,-30.007 854.0361,-26.3741"/>
</g>
<!-- Node20 -->
<g id="node21" class="node">
<title>Node20</title>
<polygon fill="#ffffff" stroke="#bfbfbf" points="882.5,-.5 882.5,-19.5 935.5,-19.5 935.5,-.5 882.5,-.5"/>
<text text-anchor="middle" x="909" y="-7.5" font-family="Helvetica,sans-Serif" font-size="10.00" fill="#000000">string.h</text>
</g>
<!-- Node18&#45;&gt;Node20 -->
<g id="edge25" class="edge">
<title>Node18&#45;&gt;Node20</title>
<path fill="none" stroke="#191970" d="M880.0965,-56.2455C884.9145,-48.5367 891.7751,-37.5598 897.6032,-28.2348"/>
<polygon fill="#191970" stroke="#191970" points="900.6413,-29.9777 902.9733,-19.6427 894.7053,-26.2677 900.6413,-29.9777"/>
</g>
<!-- Node21&#45;&gt;Node11 -->
<g id="edge27" class="edge">
<title>Node21&#45;&gt;Node11</title>
<path fill="none" stroke="#191970" d="M1652,-448.4116C1652,-429.0538 1652,-383.9167 1652,-346 1652,-346 1652,-346 1652,-234 1652,-203.4754 1655.2792,-188.866 1633,-168 1580.5706,-118.8962 1543.9013,-148.1169 1472.8276,-132.981"/>
<polygon fill="#191970" stroke="#191970" points="1473.5793,-129.5623 1463.0418,-130.663 1471.9657,-136.3738 1473.5793,-129.5623"/>
</g>
<!-- Node21&#45;&gt;Node13 -->
<g id="edge41" class="edge">
<title>Node21&#45;&gt;Node13</title>
<path fill="none" stroke="#191970" d="M1596.9949,-452.0242C1581.7859,-450.5308 1565.2657,-449.0558 1550,-448 1154.6215,-420.6539 1051.0471,-470.0609 659,-412 560.8961,-397.4711 536.0445,-390.3246 443,-356 297.9038,-302.4733 144,-332.6545 144,-178 144,-178 144,-178 144,-122 144,-61.0445 217.4709,-32.5893 273.038,-19.7851"/>
<polygon fill="#191970" stroke="#191970" points="273.8114,-23.1988 282.8335,-17.6444 272.3168,-16.3602 273.8114,-23.1988"/>
</g>
<!-- Node21&#45;&gt;Node14 -->
<g id="edge42" class="edge">
<title>Node21&#45;&gt;Node14</title>
<path fill="none" stroke="#191970" d="M1640.7822,-448.332C1584.4382,-399.8629 1333.349,-184.9692 1291,-168 1248.3566,-150.9129 955.1253,-132.9716 820.8649,-125.5421"/>
<polygon fill="#191970" stroke="#191970" points="820.8797,-122.0377 810.7025,-124.983 820.4952,-129.0271 820.8797,-122.0377"/>
</g>
<!-- Node21&#45;&gt;Node22 -->
<g id="edge28" class="edge">
<title>Node21&#45;&gt;Node22</title>
<path fill="none" stroke="#191970" d="M1665.8722,-448.3618C1725.3346,-407.0479 1958.9938,-244.7041 2032.6408,-193.5349"/>
<polygon fill="#191970" stroke="#191970" points="2034.9709,-196.1779 2041.1862,-187.5977 2030.9767,-190.4293 2034.9709,-196.1779"/>
</g>
<!-- Node27 -->
<g id="node28" class="node">
<title>Node27</title>
<g id="a_node28"><a xlink:href="acquire_8h.xhtml" target="_top" xlink:title="apt&#45;pkg/acquire.h">
<polygon fill="#ffffff" stroke="#000000" points="1718,-168.5 1718,-187.5 1820,-187.5 1820,-168.5 1718,-168.5"/>
<text text-anchor="middle" x="1769" y="-175.5" font-family="Helvetica,sans-Serif" font-size="10.00" fill="#000000">apt&#45;pkg/acquire.h</text>
</a>
</g>
</g>
<!-- Node21&#45;&gt;Node27 -->
<g id="edge43" class="edge">
<title>Node21&#45;&gt;Node27</title>
<path fill="none" stroke="#191970" d="M1657.607,-448.4834C1668.1774,-429.6141 1690,-385.8343 1690,-346 1690,-346 1690,-346 1690,-290 1690,-249.9466 1724.1555,-214.143 1747.5498,-194.3174"/>
<polygon fill="#191970" stroke="#191970" points="1750.058,-196.7885 1755.5987,-187.7579 1745.6358,-191.3622 1750.058,-196.7885"/>
</g>
<!-- Node33 -->
<g id="node34" class="node">
<title>Node33</title>
<g id="a_node34"><a xlink:href="policy_8h_source.xhtml" target="_top" xlink:title="apt&#45;pkg/policy.h">
<polygon fill="#ffffff" stroke="#000000" points="1529,-224.5 1529,-243.5 1623,-243.5 1623,-224.5 1529,-224.5"/>
<text text-anchor="middle" x="1576" y="-231.5" font-family="Helvetica,sans-Serif" font-size="10.00" fill="#000000">apt&#45;pkg/policy.h</text>
</a>
</g>
</g>
<!-- Node21&#45;&gt;Node33 -->
<g id="edge53" class="edge">
<title>Node21&#45;&gt;Node33</title>
<path fill="none" stroke="#191970" d="M1648.7344,-448.375C1637.1873,-414.3415 1598.1425,-299.262 1582.5302,-253.247"/>
<polygon fill="#191970" stroke="#191970" points="1585.7809,-251.9344 1579.2535,-243.5891 1579.1521,-254.1835 1585.7809,-251.9344"/>
</g>
<!-- Node35 -->
<g id="node36" class="node">
<title>Node35</title>
<g id="a_node36"><a xlink:href="sourcelist_8h_source.xhtml" target="_top" xlink:title="apt&#45;pkg/sourcelist.h">
<polygon fill="#ffffff" stroke="#000000" points="668.5,-392.5 668.5,-411.5 781.5,-411.5 781.5,-392.5 668.5,-392.5"/>
<text text-anchor="middle" x="725" y="-399.5" font-family="Helvetica,sans-Serif" font-size="10.00" fill="#000000">apt&#45;pkg/sourcelist.h</text>
</a>
</g>
</g>
<!-- Node21&#45;&gt;Node35 -->
<g id="edge61" class="edge">
<title>Node21&#45;&gt;Node35</title>
<path fill="none" stroke="#191970" d="M1596.9836,-452.1788C1581.7745,-450.6861 1565.2572,-449.1727 1550,-448 1268.4825,-426.3614 932.1751,-410.8046 791.7393,-404.7688"/>
<polygon fill="#191970" stroke="#191970" points="791.7085,-401.2643 781.568,-404.3336 791.4092,-408.2579 791.7085,-401.2643"/>
</g>
<!-- Node22&#45;&gt;Node4 -->
<g id="edge39" class="edge">
<title>Node22&#45;&gt;Node4</title>
<path fill="none" stroke="#191970" d="M2111.719,-169.6956C2156.6147,-162.4477 2220.9353,-150.5689 2284.9007,-131.9258"/>
<polygon fill="#191970" stroke="#191970" points="2286.1569,-135.2039 2294.7461,-129.0009 2284.1635,-128.4937 2286.1569,-135.2039"/>
</g>
<!-- Node22&#45;&gt;Node8 -->
<g id="edge33" class="edge">
<title>Node22&#45;&gt;Node8</title>
<path fill="none" stroke="#191970" d="M2111.7634,-172.3901C2166.9015,-166.1189 2252.9387,-154.1585 2335.0388,-131.7903"/>
<polygon fill="#191970" stroke="#191970" points="2336.0734,-135.1355 2344.7701,-129.0841 2334.1979,-128.3914 2336.0734,-135.1355"/>
</g>
<!-- Node22&#45;&gt;Node9 -->
<g id="edge35" class="edge">
<title>Node22&#45;&gt;Node9</title>
<path fill="none" stroke="#191970" d="M2070.594,-168.4954C2089.4583,-155.7713 2117.0464,-132.4318 2103,-112 2063.6281,-54.7298 2024.9106,-70.7709 1957,-56 1818.8945,-25.9614 1373.2045,-13.6091 1249.2522,-10.7036"/>
<polygon fill="#191970" stroke="#191970" points="1249.3276,-7.2045 1239.2497,-10.4735 1249.1665,-14.2027 1249.3276,-7.2045"/>
</g>
<!-- Node22&#45;&gt;Node10 -->
<g id="edge40" class="edge">
<title>Node22&#45;&gt;Node10</title>
<path fill="none" stroke="#191970" d="M1998.3523,-175.2942C1952.6468,-173.1591 1886.6921,-170.1864 1829,-168 1322.0005,-148.7857 1193.5,-175.4444 688,-132 675.7217,-130.9448 662.3217,-129.2102 650.5039,-127.4795"/>
<polygon fill="#191970" stroke="#191970" points="651.0055,-124.0156 640.5938,-125.9767 649.956,-130.9365 651.0055,-124.0156"/>
</g>
<!-- Node22&#45;&gt;Node11 -->
<g id="edge32" class="edge">
<title>Node22&#45;&gt;Node11</title>
<path fill="none" stroke="#191970" d="M1998.4237,-174.1303C1899.3227,-167.1499 1687.9391,-151.3605 1510,-132 1497.9806,-130.6922 1484.9093,-129.0322 1473.0961,-127.4423"/>
<polygon fill="#191970" stroke="#191970" points="1473.4791,-123.9622 1463.0968,-126.0737 1472.5298,-130.8975 1473.4791,-123.9622"/>
</g>
<!-- Node22&#45;&gt;Node12 -->
<g id="edge37" class="edge">
<title>Node22&#45;&gt;Node12</title>
<path fill="none" stroke="#191970" d="M2048.2067,-168.2455C2042.7822,-160.4564 2035.0339,-149.3308 2028.4967,-139.9439"/>
<polygon fill="#191970" stroke="#191970" points="2031.3025,-137.8485 2022.7154,-131.6427 2025.5583,-141.849 2031.3025,-137.8485"/>
</g>
<!-- Node22&#45;&gt;Node13 -->
<g id="edge30" class="edge">
<title>Node22&#45;&gt;Node13</title>
<path fill="none" stroke="#191970" d="M2061.7722,-168.4878C2071.0366,-154.2237 2084.9069,-127.3344 2070,-112 2020.684,-61.2697 865.7048,-92.8903 797,-76 777.3116,-71.1598 775.4783,-61.6266 756,-56 689.8581,-36.8939 495.4875,-21.1746 395.2849,-14.0751"/>
<polygon fill="#191970" stroke="#191970" points="395.5238,-10.5834 385.3032,-13.3744 395.0335,-17.5662 395.5238,-10.5834"/>
</g>
<!-- Node22&#45;&gt;Node14 -->
<g id="edge31" class="edge">
<title>Node22&#45;&gt;Node14</title>
<path fill="none" stroke="#191970" d="M1998.3467,-175.4351C1952.6379,-173.3796 1886.6817,-170.4454 1829,-168 1434.3636,-151.2698 1335.5552,-150.5466 941,-132 901.2444,-130.1312 856.75,-127.7631 821.1396,-125.8005"/>
<polygon fill="#191970" stroke="#191970" points="821.0449,-122.29 810.8668,-125.232 820.6581,-129.2793 821.0449,-122.29"/>
</g>
<!-- Node23 -->
<g id="node24" class="node">
<title>Node23</title>
<polygon fill="#ffffff" stroke="#bfbfbf" points="1221,-112.5 1221,-131.5 1351,-131.5 1351,-112.5 1221,-112.5"/>
<text text-anchor="middle" x="1286" y="-119.5" font-family="Helvetica,sans-Serif" font-size="10.00" fill="#000000">apt&#45;pkg/configuration.h</text>
</g>
<!-- Node22&#45;&gt;Node23 -->
<g id="edge29" class="edge">
<title>Node22&#45;&gt;Node23</title>
<path fill="none" stroke="#191970" d="M1998.2891,-174.3964C1884.4445,-167.0812 1619.9776,-149.679 1398,-132 1386.1415,-131.0555 1373.5824,-129.9941 1361.3281,-128.9249"/>
<polygon fill="#191970" stroke="#191970" points="1361.3967,-125.4175 1351.1284,-128.0273 1360.783,-132.3905 1361.3967,-125.4175"/>
</g>
<!-- Node24 -->
<g id="node25" class="node">
<title>Node24</title>
<polygon fill="#ffffff" stroke="#bfbfbf" points="2219,-112.5 2219,-131.5 2277,-131.5 2277,-112.5 2219,-112.5"/>
<text text-anchor="middle" x="2248" y="-119.5" font-family="Helvetica,sans-Serif" font-size="10.00" fill="#000000">memory</text>
</g>
<!-- Node22&#45;&gt;Node24 -->
<g id="edge34" class="edge">
<title>Node22&#45;&gt;Node24</title>
<path fill="none" stroke="#191970" d="M2088.1779,-168.3733C2121.6277,-158.6676 2173.2514,-143.6887 2208.7245,-133.396"/>
<polygon fill="#191970" stroke="#191970" points="2210.0958,-136.6426 2218.7243,-130.4945 2208.1451,-129.9198 2210.0958,-136.6426"/>
</g>
<!-- Node25 -->
<g id="node26" class="node">
<title>Node25</title>
<polygon fill="#ffffff" stroke="#bfbfbf" points="2155.5,-112.5 2155.5,-131.5 2200.5,-131.5 2200.5,-112.5 2155.5,-112.5"/>
<text text-anchor="middle" x="2178" y="-119.5" font-family="Helvetica,sans-Serif" font-size="10.00" fill="#000000">utility</text>
</g>
<!-- Node22&#45;&gt;Node25 -->
<g id="edge36" class="edge">
<title>Node22&#45;&gt;Node25</title>
<path fill="none" stroke="#191970" d="M2076.1445,-168.3733C2095.8892,-159.3838 2125.5698,-145.8706 2147.8055,-135.7471"/>
<polygon fill="#191970" stroke="#191970" points="2149.4806,-138.8302 2157.1315,-131.5011 2146.58,-132.4594 2149.4806,-138.8302"/>
</g>
<!-- Node22&#45;&gt;Node26 -->
<g id="edge38" class="edge">
<title>Node22&#45;&gt;Node26</title>
<path fill="none" stroke="#191970" d="M2111.566,-170.4774C2175.3796,-161.915 2282.5504,-147.3072 2384.544,-132.1961"/>
<polygon fill="#191970" stroke="#191970" points="2385.3371,-135.6168 2394.7141,-130.685 2384.3083,-128.6928 2385.3371,-135.6168"/>
</g>
<!-- Node27&#45;&gt;Node9 -->
<g id="edge47" class="edge">
<title>Node27&#45;&gt;Node9</title>
<path fill="none" stroke="#191970" d="M1818.6641,-168.4835C1860.4487,-158.3044 1909.8597,-139.7732 1886,-112 1843.7826,-62.8579 1377.672,-22.6768 1249.4673,-12.4964"/>
<polygon fill="#191970" stroke="#191970" points="1249.3813,-8.9789 1239.1374,-11.6832 1248.8319,-15.9573 1249.3813,-8.9789"/>
</g>
<!-- Node27&#45;&gt;Node10 -->
<g id="edge48" class="edge">
<title>Node27&#45;&gt;Node10</title>
<path fill="none" stroke="#191970" d="M1717.6861,-173.797C1692.2305,-171.8215 1661.0111,-169.5629 1633,-168 1213.348,-144.5856 1106.6411,-169.3581 688,-132 675.7252,-130.9046 662.3261,-129.161 650.5079,-127.4342"/>
<polygon fill="#191970" stroke="#191970" points="651.0077,-123.9701 640.5972,-125.9378 649.9625,-130.8916 651.0077,-123.9701"/>
</g>
<!-- Node27&#45;&gt;Node11 -->
<g id="edge49" class="edge">
<title>Node27&#45;&gt;Node11</title>
<path fill="none" stroke="#191970" d="M1717.7433,-170.0309C1637.1465,-157.485 1488.69,-134.3088 1477,-132 1475.7591,-131.7549 1474.4993,-131.4987 1473.2285,-131.2339"/>
<polygon fill="#191970" stroke="#191970" points="1473.9191,-127.8022 1463.4013,-129.0771 1472.4185,-134.6395 1473.9191,-127.8022"/>
</g>
<!-- Node27&#45;&gt;Node13 -->
<g id="edge45" class="edge">
<title>Node27&#45;&gt;Node13</title>
<path fill="none" stroke="#191970" d="M1717.7554,-169.7692C1647.9251,-158.4196 1529.3063,-138.6156 1510,-132 1491.9453,-125.8133 1490.4058,-117.0472 1472,-112 1168.1442,-28.6767 1070.4488,-149.2137 764,-76 742.7127,-70.9143 740.1018,-61.8076 719,-56 607.5785,-25.3346 472.4574,-15.1112 395.5306,-11.7034"/>
<polygon fill="#191970" stroke="#191970" points="395.2081,-8.187 385.0707,-11.2664 394.9158,-15.1809 395.2081,-8.187"/>
</g>
<!-- Node28 -->
<g id="node29" class="node">
<title>Node28</title>
<polygon fill="#ffffff" stroke="#bfbfbf" points="949.5,-112.5 949.5,-131.5 1050.5,-131.5 1050.5,-112.5 949.5,-112.5"/>
<text text-anchor="middle" x="1000" y="-119.5" font-family="Helvetica,sans-Serif" font-size="10.00" fill="#000000">apt&#45;pkg/hashes.h</text>
</g>
<!-- Node27&#45;&gt;Node28 -->
<g id="edge44" class="edge">
<title>Node27&#45;&gt;Node28</title>
<path fill="none" stroke="#191970" d="M1717.9812,-174.2382C1692.4606,-172.3592 1661.0981,-170.054 1633,-168 1423.0658,-152.6539 1173.9555,-134.5955 1061.0436,-126.4186"/>
<polygon fill="#191970" stroke="#191970" points="1061.0991,-122.9135 1050.8724,-125.6821 1060.5934,-129.8953 1061.0991,-122.9135"/>
</g>
<!-- Node29 -->
<g id="node30" class="node">
<title>Node29</title>
<polygon fill="#ffffff" stroke="#bfbfbf" points="1679.5,-112.5 1679.5,-131.5 1784.5,-131.5 1784.5,-112.5 1679.5,-112.5"/>
<text text-anchor="middle" x="1732" y="-119.5" font-family="Helvetica,sans-Serif" font-size="10.00" fill="#000000">apt&#45;pkg/weakptr.h</text>
</g>
<!-- Node27&#45;&gt;Node29 -->
<g id="edge46" class="edge">
<title>Node27&#45;&gt;Node29</title>
<path fill="none" stroke="#191970" d="M1762.5551,-168.2455C1757.4618,-160.5367 1750.2092,-149.5598 1744.048,-140.2348"/>
<polygon fill="#191970" stroke="#191970" points="1746.8038,-138.0566 1738.3711,-131.6427 1740.9635,-141.9155 1746.8038,-138.0566"/>
</g>
<!-- Node30 -->
<g id="node31" class="node">
<title>Node30</title>
<polygon fill="#ffffff" stroke="#bfbfbf" points="1803,-112.5 1803,-131.5 1877,-131.5 1877,-112.5 1803,-112.5"/>
<text text-anchor="middle" x="1840" y="-119.5" font-family="Helvetica,sans-Serif" font-size="10.00" fill="#000000">sys/select.h</text>
</g>
<!-- Node27&#45;&gt;Node30 -->
<g id="edge50" class="edge">
<title>Node27&#45;&gt;Node30</title>
<path fill="none" stroke="#191970" d="M1781.3673,-168.2455C1791.9554,-159.8943 1807.4064,-147.7076 1819.7893,-137.9408"/>
<polygon fill="#191970" stroke="#191970" points="1822.0903,-140.5837 1827.7745,-131.6427 1817.7553,-135.0875 1822.0903,-140.5837"/>
</g>
<!-- Node31 -->
<g id="node32" class="node">
<title>Node31</title>
<polygon fill="#ffffff" stroke="#bfbfbf" points="1519,-112.5 1519,-131.5 1587,-131.5 1587,-112.5 1519,-112.5"/>
<text text-anchor="middle" x="1553" y="-119.5" font-family="Helvetica,sans-Serif" font-size="10.00" fill="#000000">sys/time.h</text>
</g>
<!-- Node27&#45;&gt;Node31 -->
<g id="edge51" class="edge">
<title>Node27&#45;&gt;Node31</title>
<path fill="none" stroke="#191970" d="M1731.8683,-168.3733C1694.4743,-158.6785 1636.7866,-143.7224 1597.0902,-133.4308"/>
<polygon fill="#191970" stroke="#191970" points="1597.7162,-129.9774 1587.1578,-130.8557 1595.9594,-136.7534 1597.7162,-129.9774"/>
</g>
<!-- Node32 -->
<g id="node33" class="node">
<title>Node32</title>
<polygon fill="#ffffff" stroke="#bfbfbf" points="1605,-112.5 1605,-131.5 1661,-131.5 1661,-112.5 1605,-112.5"/>
<text text-anchor="middle" x="1633" y="-119.5" font-family="Helvetica,sans-Serif" font-size="10.00" fill="#000000">unistd.h</text>
</g>
<!-- Node27&#45;&gt;Node32 -->
<g id="edge52" class="edge">
<title>Node27&#45;&gt;Node32</title>
<path fill="none" stroke="#191970" d="M1745.6208,-168.3733C1723.4955,-159.2629 1690.0866,-145.5062 1665.3981,-135.3404"/>
<polygon fill="#191970" stroke="#191970" points="1666.6536,-132.0723 1656.0742,-131.5011 1663.9883,-138.5451 1666.6536,-132.0723"/>
</g>
<!-- Node33&#45;&gt;Node9 -->
<g id="edge59" class="edge">
<title>Node33&#45;&gt;Node9</title>
<path fill="none" stroke="#191970" d="M1623.1369,-231.9574C1675.4311,-228.2318 1761.3516,-217.7109 1829,-188 1872.165,-169.0421 1930.4969,-150.2954 1903,-112 1857.5869,-48.7523 1813.2038,-71.9872 1737,-56 1642.9562,-36.27 1347.9276,-17.6642 1249.4003,-11.8573"/>
<polygon fill="#191970" stroke="#191970" points="1249.3564,-8.3488 1239.169,-11.2588 1248.9476,-15.3369 1249.3564,-8.3488"/>
</g>
<!-- Node33&#45;&gt;Node10 -->
<g id="edge60" class="edge">
<title>Node33&#45;&gt;Node10</title>
<path fill="none" stroke="#191970" d="M1528.6959,-232.3302C1389.1068,-227.1934 980.4961,-210.5959 849,-188 776.6741,-175.5717 694.6515,-149.2305 650.1011,-133.8488"/>
<polygon fill="#191970" stroke="#191970" points="651.2513,-130.5432 640.6564,-130.5576 648.9478,-137.1534 651.2513,-130.5432"/>
</g>
<!-- Node33&#45;&gt;Node14 -->
<g id="edge55" class="edge">
<title>Node33&#45;&gt;Node14</title>
<path fill="none" stroke="#191970" d="M1546.4995,-224.4634C1499.8181,-209.7862 1405.8159,-181.9044 1324,-168 1228.9423,-151.8452 949.9854,-133.7231 820.9208,-125.9193"/>
<polygon fill="#191970" stroke="#191970" points="820.9638,-122.4157 810.7715,-125.3083 820.543,-129.403 820.9638,-122.4157"/>
</g>
<!-- Node33&#45;&gt;Node22 -->
<g id="edge54" class="edge">
<title>Node33&#45;&gt;Node22</title>
<path fill="none" stroke="#191970" d="M1623.2393,-228.4772C1708.8371,-218.47 1889.8003,-197.3135 1988.0811,-185.8235"/>
<polygon fill="#191970" stroke="#191970" points="1988.6709,-189.2785 1998.1968,-184.6409 1987.858,-182.3258 1988.6709,-189.2785"/>
</g>
<!-- Node34 -->
<g id="node35" class="node">
<title>Node34</title>
<g id="a_node35"><a xlink:href="versionmatch_8h_source.xhtml" target="_top" xlink:title="apt&#45;pkg/versionmatch.h">
<polygon fill="#ffffff" stroke="#000000" points="1490.5,-168.5 1490.5,-187.5 1623.5,-187.5 1623.5,-168.5 1490.5,-168.5"/>
<text text-anchor="middle" x="1557" y="-175.5" font-family="Helvetica,sans-Serif" font-size="10.00" fill="#000000">apt&#45;pkg/versionmatch.h</text>
</a>
</g>
</g>
<!-- Node33&#45;&gt;Node34 -->
<g id="edge56" class="edge">
<title>Node33&#45;&gt;Node34</title>
<path fill="none" stroke="#191970" d="M1572.6905,-224.2455C1570.1567,-216.7776 1566.5823,-206.2427 1563.485,-197.1137"/>
<polygon fill="#191970" stroke="#191970" points="1566.7991,-195.9879 1560.2716,-187.6427 1560.1702,-198.237 1566.7991,-195.9879"/>
</g>
<!-- Node34&#45;&gt;Node9 -->
<g id="edge58" class="edge">
<title>Node34&#45;&gt;Node9</title>
<path fill="none" stroke="#191970" d="M1510.0461,-168.4772C1477.635,-160.9381 1434.0535,-148.8568 1398,-132 1364.8884,-116.5187 1278.8996,-55.0923 1238.5277,-25.7561"/>
<polygon fill="#191970" stroke="#191970" points="1240.3366,-22.7436 1230.193,-19.6844 1236.2149,-28.4015 1240.3366,-22.7436"/>
</g>
<!-- Node34&#45;&gt;Node14 -->
<g id="edge57" class="edge">
<title>Node34&#45;&gt;Node14</title>
<path fill="none" stroke="#191970" d="M1490.2613,-173.3457C1339.0556,-162.8009 971.7926,-137.1885 820.661,-126.6488"/>
<polygon fill="#191970" stroke="#191970" points="820.8102,-123.1508 810.5909,-125.9466 820.3232,-130.1339 820.8102,-123.1508"/>
</g>
<!-- Node35&#45;&gt;Node3 -->
<g id="edge65" class="edge">
<title>Node35&#45;&gt;Node3</title>
<path fill="none" stroke="#191970" d="M781.7228,-399.4962C838.4893,-395.3928 927.4349,-384.5658 999,-356 1101.3047,-315.1642 1204.3017,-230.0494 1244.9254,-194.3324"/>
<polygon fill="#191970" stroke="#191970" points="1247.2588,-196.9412 1252.4128,-187.6844 1242.6111,-191.7067 1247.2588,-196.9412"/>
</g>
<!-- Node35&#45;&gt;Node9 -->
<g id="edge66" class="edge">
<title>Node35&#45;&gt;Node9</title>
<path fill="none" stroke="#191970" d="M781.5564,-397.2809C844.084,-391.212 947.4227,-378.6499 1034,-356 1101.6372,-338.3051 1118.7711,-331.8663 1181,-300 1221.267,-279.38 1233.051,-274.9997 1266,-244 1294.1078,-217.5551 1329.9821,-199.7202 1308,-168 1282.0447,-130.5465 1237.9553,-169.4535 1212,-132 1200.9186,-116.0096 1208.2982,-60.2312 1213.3627,-29.9409"/>
<polygon fill="#191970" stroke="#191970" points="1216.8758,-30.1687 1215.147,-19.7159 1209.98,-28.9653 1216.8758,-30.1687"/>
</g>
<!-- Node35&#45;&gt;Node10 -->
<g id="edge67" class="edge">
<title>Node35&#45;&gt;Node10</title>
<path fill="none" stroke="#191970" d="M720.9529,-392.2458C708.465,-362.0581 669.5936,-267.4147 640,-188 634.2402,-172.5434 628.1121,-154.8921 623.6309,-141.7351"/>
<polygon fill="#191970" stroke="#191970" points="626.8192,-140.2375 620.2984,-131.8871 620.1886,-142.4814 626.8192,-140.2375"/>
</g>
<!-- Node35&#45;&gt;Node13 -->
<g id="edge62" class="edge">
<title>Node35&#45;&gt;Node13</title>
<path fill="none" stroke="#191970" d="M668.2461,-396.3082C619.5185,-390.169 548.0146,-378.1439 489,-356 452.0833,-342.1478 182,-217.43 182,-178 182,-178 182,-178 182,-122 182,-68.8635 242.9479,-38.1127 287.6564,-22.7035"/>
<polygon fill="#191970" stroke="#191970" points="288.8031,-26.0108 297.205,-19.5566 286.612,-19.3626 288.8031,-26.0108"/>
</g>
<!-- Node35&#45;&gt;Node14 -->
<g id="edge63" class="edge">
<title>Node35&#45;&gt;Node14</title>
<path fill="none" stroke="#191970" d="M723.7105,-392.4324C721.2219,-373.112 716,-328.0389 716,-290 716,-290 716,-290 716,-234 716,-199.6118 732.2634,-162.2832 743.511,-140.5791"/>
<polygon fill="#191970" stroke="#191970" points="746.7317,-141.9804 748.393,-131.5166 740.569,-138.6605 746.7317,-141.9804"/>
</g>
<!-- Node35&#45;&gt;Node17 -->
<g id="edge64" class="edge">
<title>Node35&#45;&gt;Node17</title>
<path fill="none" stroke="#191970" d="M668.2033,-392.862C573.2598,-374.0792 385.7644,-321.1094 315,-188 294.4625,-149.3686 337.101,-105.2846 364.7876,-82.1416"/>
<polygon fill="#191970" stroke="#191970" points="367.2321,-84.6663 372.8135,-75.6608 362.8344,-79.2202 367.2321,-84.6663"/>
</g>
<!-- Node36 -->
<g id="node37" class="node">
<title>Node36</title>
<g id="a_node37"><a xlink:href="tagfile_8h_source.xhtml" target="_top" xlink:title="apt&#45;pkg/tagfile.h">
<polygon fill="#ffffff" stroke="#000000" points="324.5,-168.5 324.5,-187.5 421.5,-187.5 421.5,-168.5 324.5,-168.5"/>
<text text-anchor="middle" x="373" y="-175.5" font-family="Helvetica,sans-Serif" font-size="10.00" fill="#000000">apt&#45;pkg/tagfile.h</text>
</a>
</g>
</g>
<!-- Node35&#45;&gt;Node36 -->
<g id="edge68" class="edge">
<title>Node35&#45;&gt;Node36</title>
<path fill="none" stroke="#191970" d="M699.5437,-392.4577C658.348,-376.4473 575.3015,-341.7887 512,-300 463.3992,-267.916 413.8935,-220.0565 389.1601,-194.8792"/>
<polygon fill="#191970" stroke="#191970" points="391.5137,-192.2792 382.0327,-187.5505 386.4955,-197.1596 391.5137,-192.2792"/>
</g>
<!-- Node39 -->
<g id="node40" class="node">
<title>Node39</title>
<g id="a_node40"><a xlink:href="metaindex_8h_source.xhtml" target="_top" xlink:title="apt&#45;pkg/metaindex.h">
<polygon fill="#ffffff" stroke="#000000" points="870.5,-336.5 870.5,-355.5 989.5,-355.5 989.5,-336.5 870.5,-336.5"/>
<text text-anchor="middle" x="930" y="-343.5" font-family="Helvetica,sans-Serif" font-size="10.00" fill="#000000">apt&#45;pkg/metaindex.h</text>
</a>
</g>
</g>
<!-- Node35&#45;&gt;Node39 -->
<g id="edge76" class="edge">
<title>Node35&#45;&gt;Node39</title>
<path fill="none" stroke="#191970" d="M760.2408,-392.3733C794.9194,-382.9001 847.9883,-368.4032 885.5462,-358.1435"/>
<polygon fill="#191970" stroke="#191970" points="886.4949,-361.5126 895.2191,-355.5011 884.6502,-354.7601 886.4949,-361.5126"/>
</g>
<!-- Node36&#45;&gt;Node8 -->
<g id="edge72" class="edge">
<title>Node36&#45;&gt;Node8</title>
<path fill="none" stroke="#191970" d="M421.8546,-176.9732C711.5359,-170.8713 2195.6458,-139.4147 2334.8908,-130.3681"/>
<polygon fill="#191970" stroke="#191970" points="2335.2268,-133.8521 2344.8522,-129.4248 2334.5668,-126.8832 2335.2268,-133.8521"/>
</g>
<!-- Node36&#45;&gt;Node9 -->
<g id="edge73" class="edge">
<title>Node36&#45;&gt;Node9</title>
<path fill="none" stroke="#191970" d="M397.5766,-168.4924C436.4948,-153.8544 514.9792,-126.0248 584,-112 744.6118,-79.3642 795.4943,-127.7612 951,-76 967.2723,-70.5837 968.0099,-62.2 984,-56 1052.6558,-29.3795 1138.9139,-17.5141 1184.8028,-12.7723"/>
<polygon fill="#191970" stroke="#191970" points="1185.1558,-16.2546 1194.7641,-11.7903 1184.469,-9.2883 1185.1558,-16.2546"/>
</g>
<!-- Node36&#45;&gt;Node10 -->
<g id="edge74" class="edge">
<title>Node36&#45;&gt;Node10</title>
<path fill="none" stroke="#191970" d="M418.1211,-168.4357C459.9325,-159.4518 523.8087,-145.4191 579,-132 580.45,-131.6474 581.9297,-131.2821 583.4234,-130.9088"/>
<polygon fill="#191970" stroke="#191970" points="584.4967,-134.247 593.3182,-128.3792 582.7629,-127.4651 584.4967,-134.247"/>
</g>
<!-- Node36&#45;&gt;Node13 -->
<g id="edge69" class="edge">
<title>Node36&#45;&gt;Node13</title>
<path fill="none" stroke="#191970" d="M367.9613,-168.399C363.3834,-159.2746 356.7844,-145.0472 353,-132 342.7929,-96.8102 337.7457,-54.2229 335.5185,-29.8049"/>
<polygon fill="#191970" stroke="#191970" points="338.992,-29.3424 334.6632,-19.6722 332.0168,-29.9312 338.992,-29.3424"/>
</g>
<!-- Node36&#45;&gt;Node16 -->
<g id="edge70" class="edge">
<title>Node36&#45;&gt;Node16</title>
<path fill="none" stroke="#191970" d="M413.2925,-168.4495C432.4658,-161.6623 453.6402,-150.3805 465,-132 473.6422,-118.0166 469.6375,-99.2669 464.3474,-85.3256"/>
<polygon fill="#191970" stroke="#191970" points="467.4018,-83.5679 460.2397,-75.7604 460.9698,-86.3301 467.4018,-83.5679"/>
</g>
<!-- Node36&#45;&gt;Node37 -->
<g id="edge71" class="edge">
<title>Node36&#45;&gt;Node37</title>
<path fill="none" stroke="#191970" d="M324.8429,-168.4369C268.4474,-157.2378 176.3806,-138.955 126.2456,-128.9991"/>
<polygon fill="#191970" stroke="#191970" points="126.7019,-125.5215 116.2117,-127.0066 125.3384,-132.3874 126.7019,-125.5215"/>
</g>
<!-- Node38 -->
<g id="node39" class="node">
<title>Node38</title>
<polygon fill="#ffffff" stroke="#bfbfbf" points="362,-112.5 362,-131.5 456,-131.5 456,-112.5 362,-112.5"/>
<text text-anchor="middle" x="409" y="-119.5" font-family="Helvetica,sans-Serif" font-size="10.00" fill="#000000">apt&#45;pkg/fileutl.h</text>
</g>
<!-- Node36&#45;&gt;Node38 -->
<g id="edge75" class="edge">
<title>Node36&#45;&gt;Node38</title>
<path fill="none" stroke="#191970" d="M379.2707,-168.2455C384.2264,-160.5367 391.283,-149.5598 397.2776,-140.2348"/>
<polygon fill="#191970" stroke="#191970" points="400.3376,-141.9471 402.8011,-131.6427 394.4494,-138.1618 400.3376,-141.9471"/>
</g>
<!-- Node39&#45;&gt;Node9 -->
<g id="edge101" class="edge">
<title>Node39&#45;&gt;Node9</title>
<path fill="none" stroke="#191970" d="M989.6982,-340.3467C1074.6647,-328.663 1227.2317,-293.3478 1291,-188 1326.4284,-129.4708 1229.6004,-201.4145 1179,-132 1166.8484,-115.3302 1192.4072,-58.4939 1207.2986,-28.6484"/>
<polygon fill="#191970" stroke="#191970" points="1210.457,-30.1588 1211.8698,-19.6586 1204.2174,-26.9859 1210.457,-30.1588"/>
</g>
<!-- Node39&#45;&gt;Node10 -->
<g id="edge102" class="edge">
<title>Node39&#45;&gt;Node10</title>
<path fill="none" stroke="#191970" d="M870.3117,-338.6587C836.6997,-332.3864 795.1496,-320.8944 763,-300 698.0591,-257.7941 647.7774,-177.493 627.1723,-140.953"/>
<polygon fill="#191970" stroke="#191970" points="630.0577,-138.9377 622.16,-131.8753 623.9297,-142.3213 630.0577,-138.9377"/>
</g>
<!-- Node39&#45;&gt;Node11 -->
<g id="edge100" class="edge">
<title>Node39&#45;&gt;Node11</title>
<path fill="none" stroke="#191970" d="M954.3569,-336.3918C977.3165,-327.2624 1012.6354,-313.0315 1043,-300 1179.5423,-241.4006 1340.406,-166.4738 1405.4804,-135.9139"/>
<polygon fill="#191970" stroke="#191970" points="1407.1676,-138.9883 1414.7286,-131.5666 1404.1896,-132.6533 1407.1676,-138.9883"/>
</g>
<!-- Node39&#45;&gt;Node14 -->
<g id="edge103" class="edge">
<title>Node39&#45;&gt;Node14</title>
<path fill="none" stroke="#191970" d="M927.0707,-336.3853C920.1636,-314.7522 901.2824,-261.2328 873,-224 845.6147,-187.9481 803.5595,-155.6728 777.4712,-137.4937"/>
<polygon fill="#191970" stroke="#191970" points="779.1887,-134.428 768.9595,-131.6684 775.2351,-140.2046 779.1887,-134.428"/>
</g>
<!-- Node40 -->
<g id="node41" class="node">
<title>Node40</title>
<g id="a_node41"><a xlink:href="indexfile_8h_source.xhtml" target="_top" xlink:title="apt&#45;pkg/indexfile.h">
<polygon fill="#ffffff" stroke="#000000" points="958,-224.5 958,-243.5 1066,-243.5 1066,-224.5 958,-224.5"/>
<text text-anchor="middle" x="1012" y="-231.5" font-family="Helvetica,sans-Serif" font-size="10.00" fill="#000000">apt&#45;pkg/indexfile.h</text>
</a>
</g>
</g>
<!-- Node39&#45;&gt;Node40 -->
<g id="edge77" class="edge">
<title>Node39&#45;&gt;Node40</title>
<path fill="none" stroke="#191970" d="M936.9913,-336.4509C950.7284,-317.688 981.4296,-275.7548 998.9986,-251.758"/>
<polygon fill="#191970" stroke="#191970" points="1001.943,-253.6611 1005.0264,-243.5249 996.295,-249.5259 1001.943,-253.6611"/>
</g>
<!-- Node41 -->
<g id="node42" class="node">
<title>Node41</title>
<g id="a_node42"><a xlink:href="pkgrecords_8h_source.xhtml" target="_top" xlink:title="apt&#45;pkg/pkgrecords.h">
<polygon fill="#ffffff" stroke="#000000" points="1030,-168.5 1030,-187.5 1150,-187.5 1150,-168.5 1030,-168.5"/>
<text text-anchor="middle" x="1090" y="-175.5" font-family="Helvetica,sans-Serif" font-size="10.00" fill="#000000">apt&#45;pkg/pkgrecords.h</text>
</a>
</g>
</g>
<!-- Node39&#45;&gt;Node41 -->
<g id="edge104" class="edge">
<title>Node39&#45;&gt;Node41</title>
<path fill="none" stroke="#191970" d="M952.8642,-336.4115C985.3247,-321.5726 1044.2345,-289.8878 1075,-244 1084.1907,-230.2918 1087.8117,-211.7588 1089.2081,-197.8214"/>
<polygon fill="#191970" stroke="#191970" points="1092.7019,-198.0309 1089.9149,-187.8092 1085.7193,-197.5378 1092.7019,-198.0309"/>
</g>
<!-- Node42 -->
<g id="node43" class="node">
<title>Node42</title>
<g id="a_node43"><a xlink:href="srcrecords_8h_source.xhtml" target="_top" xlink:title="apt&#45;pkg/srcrecords.h">
<polygon fill="#ffffff" stroke="#000000" points="858,-168.5 858,-187.5 974,-187.5 974,-168.5 858,-168.5"/>
<text text-anchor="middle" x="916" y="-175.5" font-family="Helvetica,sans-Serif" font-size="10.00" fill="#000000">apt&#45;pkg/srcrecords.h</text>
</a>
</g>
</g>
<!-- Node39&#45;&gt;Node42 -->
<g id="edge105" class="edge">
<title>Node39&#45;&gt;Node42</title>
<path fill="none" stroke="#191970" d="M929.2072,-336.4862C926.9941,-309.9293 920.7138,-234.5651 917.6805,-198.1655"/>
<polygon fill="#191970" stroke="#191970" points="921.1374,-197.5027 916.819,-187.8279 914.1616,-198.084 921.1374,-197.5027"/>
</g>
<!-- Node43 -->
<g id="node44" class="node">
<title>Node43</title>
<g id="a_node44"><a xlink:href="init_8h_source.xhtml" target="_top" xlink:title="apt&#45;pkg/init.h">
<polygon fill="#ffffff" stroke="#000000" points="772,-280.5 772,-299.5 854,-299.5 854,-280.5 772,-280.5"/>
<text text-anchor="middle" x="813" y="-287.5" font-family="Helvetica,sans-Serif" font-size="10.00" fill="#000000">apt&#45;pkg/init.h</text>
</a>
</g>
</g>
<!-- Node39&#45;&gt;Node43 -->
<g id="edge93" class="edge">
<title>Node39&#45;&gt;Node43</title>
<path fill="none" stroke="#191970" d="M909.887,-336.3733C891.1897,-327.4241 863.1256,-313.9917 842.0066,-303.8835"/>
<polygon fill="#191970" stroke="#191970" points="843.3817,-300.6614 832.8506,-299.5011 840.3595,-306.9755 843.3817,-300.6614"/>
</g>
<!-- Node40&#45;&gt;Node3 -->
<g id="edge91" class="edge">
<title>Node40&#45;&gt;Node3</title>
<path fill="none" stroke="#191970" d="M1054.8632,-224.4369C1105.9355,-213.0423 1189.8757,-194.3146 1233.9313,-184.4855"/>
<polygon fill="#191970" stroke="#191970" points="1234.7225,-187.8951 1243.7204,-182.3014 1233.1982,-181.063 1234.7225,-187.8951"/>
</g>
<!-- Node40&#45;&gt;Node9 -->
<g id="edge92" class="edge">
<title>Node40&#45;&gt;Node9</title>
<path fill="none" stroke="#191970" d="M1064.0814,-224.4495C1101.5689,-216.3926 1147.4796,-203.6763 1159,-188 1164.2638,-180.8373 1161.0422,-176.6511 1159,-168 1152.9936,-142.5563 1132.7719,-136.8144 1141,-112 1152.3727,-77.7023 1180.2554,-45.5784 1198.897,-26.861"/>
<polygon fill="#191970" stroke="#191970" points="1201.531,-29.181 1206.2454,-19.6928 1196.6431,-24.1702 1201.531,-29.181"/>
</g>
<!-- Node40&#45;&gt;Node13 -->
<g id="edge78" class="edge">
<title>Node40&#45;&gt;Node13</title>
<path fill="none" stroke="#191970" d="M957.8775,-230.013C932.1651,-228.1427 901.0003,-225.9104 873,-224 811.0152,-219.7709 357.494,-233.3239 315,-188 273.8089,-144.0657 305.8644,-64.6529 323.8792,-28.6467"/>
<polygon fill="#191970" stroke="#191970" points="327.0182,-30.1962 328.5154,-19.7077 320.8043,-26.9733 327.0182,-30.1962"/>
</g>
<!-- Node40&#45;&gt;Node14 -->
<g id="edge79" class="edge">
<title>Node40&#45;&gt;Node14</title>
<path fill="none" stroke="#191970" d="M1010.5802,-224.2232C1007.9178,-209.6135 1000.7475,-182.2789 983,-168 970.3291,-157.8055 883.6171,-142.3247 820.6326,-132.1857"/>
<polygon fill="#191970" stroke="#191970" points="821.1696,-128.7272 810.7427,-130.606 820.0654,-135.6396 821.1696,-128.7272"/>
</g>
<!-- Node40&#45;&gt;Node41 -->
<g id="edge80" class="edge">
<title>Node40&#45;&gt;Node41</title>
<path fill="none" stroke="#191970" d="M1025.5866,-224.2455C1037.3305,-215.814 1054.5199,-203.4729 1068.1882,-193.6598"/>
<polygon fill="#191970" stroke="#191970" points="1070.4871,-196.3179 1076.5691,-187.6427 1066.4046,-190.6316 1070.4871,-196.3179"/>
</g>
<!-- Node40&#45;&gt;Node42 -->
<g id="edge86" class="edge">
<title>Node40&#45;&gt;Node42</title>
<path fill="none" stroke="#191970" d="M995.2781,-224.2455C980.4111,-215.5731 958.4534,-202.7645 941.4142,-192.825"/>
<polygon fill="#191970" stroke="#191970" points="942.9317,-189.6582 932.5303,-187.6427 939.4045,-195.7047 942.9317,-189.6582"/>
</g>
<!-- Node41&#45;&gt;Node9 -->
<g id="edge84" class="edge">
<title>Node41&#45;&gt;Node9</title>
<path fill="none" stroke="#191970" d="M1088.4868,-168.2373C1085.5814,-145.8289 1081.6503,-90.0235 1108,-56 1126.4875,-32.1284 1159.6835,-20.5044 1184.6004,-14.9335"/>
<polygon fill="#191970" stroke="#191970" points="1185.593,-18.3039 1194.7052,-12.8985 1184.211,-11.4417 1185.593,-18.3039"/>
</g>
<!-- Node41&#45;&gt;Node10 -->
<g id="edge85" class="edge">
<title>Node41&#45;&gt;Node10</title>
<path fill="none" stroke="#191970" d="M1029.6675,-171.5907C950.9792,-163.1181 809.0725,-147.4506 688,-132 675.7756,-130.44 662.3878,-128.591 650.5647,-126.9099"/>
<polygon fill="#191970" stroke="#191970" points="651.0417,-123.4426 640.646,-125.4873 650.0477,-130.3717 651.0417,-123.4426"/>
</g>
<!-- Node41&#45;&gt;Node13 -->
<g id="edge82" class="edge">
<title>Node41&#45;&gt;Node13</title>
<path fill="none" stroke="#191970" d="M1047.5332,-168.4696C978.8796,-152.538 839.7189,-118.0634 726,-76 706.2318,-68.688 703.2376,-61.8896 683,-56 584.8442,-27.4343 465.9562,-16.5594 395.3367,-12.4525"/>
<polygon fill="#191970" stroke="#191970" points="395.4544,-8.9538 385.2758,-11.8944 395.0666,-15.943 395.4544,-8.9538"/>
</g>
<!-- Node41&#45;&gt;Node14 -->
<g id="edge83" class="edge">
<title>Node41&#45;&gt;Node14</title>
<path fill="none" stroke="#191970" d="M1032.6213,-168.4369C973.8527,-158.6421 882.5732,-143.4289 820.6413,-133.1069"/>
<polygon fill="#191970" stroke="#191970" points="821.0209,-129.622 810.5816,-131.4303 819.8701,-136.5267 821.0209,-129.622"/>
</g>
<!-- Node41&#45;&gt;Node28 -->
<g id="edge81" class="edge">
<title>Node41&#45;&gt;Node28</title>
<path fill="none" stroke="#191970" d="M1074.3232,-168.2455C1060.5144,-159.6534 1040.1807,-147.0014 1024.2708,-137.1018"/>
<polygon fill="#191970" stroke="#191970" points="1025.8368,-133.954 1015.4972,-131.6427 1022.1387,-139.8974 1025.8368,-133.954"/>
</g>
<!-- Node42&#45;&gt;Node9 -->
<g id="edge89" class="edge">
<title>Node42&#45;&gt;Node9</title>
<path fill="none" stroke="#191970" d="M917.1618,-168.1098C919.3433,-153.8516 925.3418,-127.5321 941,-112 950.0956,-102.9777 1114.4591,-45.4469 1185.1301,-20.9836"/>
<polygon fill="#191970" stroke="#191970" points="1186.5401,-24.1995 1194.8475,-17.6239 1184.2527,-17.5837 1186.5401,-24.1995"/>
</g>
<!-- Node42&#45;&gt;Node10 -->
<g id="edge90" class="edge">
<title>Node42&#45;&gt;Node10</title>
<path fill="none" stroke="#191970" d="M857.9358,-169.1812C804.8643,-160.7859 724.3243,-147.2033 655,-132 653.5424,-131.6803 652.0564,-131.3423 650.5575,-130.9913"/>
<polygon fill="#191970" stroke="#191970" points="651.1905,-127.5426 640.6432,-128.5458 649.514,-134.3389 651.1905,-127.5426"/>
</g>
<!-- Node42&#45;&gt;Node13 -->
<g id="edge88" class="edge">
<title>Node42&#45;&gt;Node13</title>
<path fill="none" stroke="#191970" d="M857.6702,-170.7422C810.8921,-163.8563 744.0315,-151.5979 688,-132 669.6126,-125.5687 667.1107,-119.1735 649,-112 595.2492,-90.7098 577.1123,-98.8364 524,-76 507.894,-69.075 506.084,-62.976 490,-56 456.457,-41.4517 416.9355,-29.852 386.0651,-21.9401"/>
<polygon fill="#191970" stroke="#191970" points="386.9163,-18.5453 376.3647,-19.5018 385.2098,-25.3341 386.9163,-18.5453"/>
</g>
<!-- Node42&#45;&gt;Node28 -->
<g id="edge87" class="edge">
<title>Node42&#45;&gt;Node28</title>
<path fill="none" stroke="#191970" d="M930.6317,-168.2455C943.3994,-159.7337 962.1438,-147.2375 976.9299,-137.3801"/>
<polygon fill="#191970" stroke="#191970" points="979.1569,-140.1019 985.536,-131.6427 975.274,-134.2775 979.1569,-140.1019"/>
</g>
<!-- Node43&#45;&gt;Node13 -->
<g id="edge99" class="edge">
<title>Node43&#45;&gt;Node13</title>
<path fill="none" stroke="#191970" d="M771.6341,-287.7821C661.288,-280.9752 363.9161,-256.5198 299,-188 258.6468,-145.4067 278.1782,-110.0531 301,-56 305.2674,-45.8928 312.0875,-35.8539 318.4228,-27.7455"/>
<polygon fill="#191970" stroke="#191970" points="321.3146,-29.7395 324.9633,-19.7927 315.9081,-25.2931 321.3146,-29.7395"/>
</g>
<!-- Node43&#45;&gt;Node23 -->
<g id="edge94" class="edge">
<title>Node43&#45;&gt;Node23</title>
<path fill="none" stroke="#191970" d="M854.2248,-286.2698C906.5511,-280.7445 999.1361,-268.31 1075,-244 1129.8996,-226.4078 1142.2387,-217.1079 1192,-188 1218.4485,-172.5289 1247.0138,-151.851 1265.6253,-137.7914"/>
<polygon fill="#191970" stroke="#191970" points="1267.8412,-140.5032 1273.6709,-131.6564 1263.5967,-134.9368 1267.8412,-140.5032"/>
</g>
<!-- Node44 -->
<g id="node45" class="node">
<title>Node44</title>
<g id="a_node45"><a xlink:href="pkgsystem_8h_source.xhtml" target="_top" xlink:title="apt&#45;pkg/pkgsystem.h">
<polygon fill="#ffffff" stroke="#000000" points="744,-224.5 744,-243.5 864,-243.5 864,-224.5 744,-224.5"/>
<text text-anchor="middle" x="804" y="-231.5" font-family="Helvetica,sans-Serif" font-size="10.00" fill="#000000">apt&#45;pkg/pkgsystem.h</text>
</a>
</g>
</g>
<!-- Node43&#45;&gt;Node44 -->
<g id="edge95" class="edge">
<title>Node43&#45;&gt;Node44</title>
<path fill="none" stroke="#191970" d="M811.4323,-280.2455C810.2579,-272.9382 808.6116,-262.6944 807.1668,-253.7046"/>
<polygon fill="#191970" stroke="#191970" points="810.5922,-252.9606 805.5497,-243.6427 803.6809,-254.0714 810.5922,-252.9606"/>
</g>
<!-- Node44&#45;&gt;Node10 -->
<g id="edge97" class="edge">
<title>Node44&#45;&gt;Node10</title>
<path fill="none" stroke="#191970" d="M788.0565,-224.4509C755.349,-204.8615 680.4719,-160.0152 641.5346,-136.6945"/>
<polygon fill="#191970" stroke="#191970" points="643.2805,-133.6605 632.9032,-131.5249 639.6838,-139.6658 643.2805,-133.6605"/>
</g>
<!-- Node44&#45;&gt;Node14 -->
<g id="edge96" class="edge">
<title>Node44&#45;&gt;Node14</title>
<path fill="none" stroke="#191970" d="M799.737,-224.4509C791.4714,-205.936 773.1335,-164.8591 762.3566,-140.7187"/>
<polygon fill="#191970" stroke="#191970" points="765.5247,-139.2295 758.2522,-131.5249 759.1328,-142.0831 765.5247,-139.2295"/>
</g>
<!-- Node44&#45;&gt;Node22 -->
<g id="edge98" class="edge">
<title>Node44&#45;&gt;Node22</title>
<path fill="none" stroke="#191970" d="M864.2949,-229.4629C890.3372,-227.6014 921.1591,-225.5292 949,-224 1339.8491,-202.532 1437.9161,-204.6517 1829,-188 1882.5129,-185.7215 1943.148,-183.0327 1988.1304,-181.0174"/>
<polygon fill="#191970" stroke="#191970" points="1988.5133,-184.5038 1998.3464,-180.5592 1988.1996,-177.5108 1988.5133,-184.5038"/>
</g>
</g>
</svg>
