<?xml version="1.0" encoding="UTF-8" standalone="no"?>
<!DOCTYPE svg PUBLIC "-//W3C//DTD SVG 1.1//EN"
 "http://www.w3.org/Graphics/SVG/1.1/DTD/svg11.dtd">
<!-- Generated by graphviz version 2.40.1 (20161225.0304)
 -->
<!-- Title: Graphical Class Hierarchy Pages: 1 -->
<svg width="885pt" height="256pt"
 viewBox="0.00 0.00 885.00 256.00" xmlns="http://www.w3.org/2000/svg" xmlns:xlink="http://www.w3.org/1999/xlink">
<g id="graph0" class="graph" transform="scale(1 1) rotate(0) translate(4 252)">
<title>Graphical Class Hierarchy</title>
<polygon fill="#ffffff" stroke="transparent" points="-4,4 -4,-252 881,-252 881,4 -4,4"/>
<!-- Node0 -->
<g id="node1" class="node">
<title>Node0</title>
<g id="a_node1"><a xlink:href="classWeakPointable.xhtml" target="_top" xlink:title="WeakPointable">
<polygon fill="#ffffff" stroke="#000000" points="0,-54.5 0,-73.5 89,-73.5 89,-54.5 0,-54.5"/>
<text text-anchor="middle" x="44.5" y="-61.5" font-family="Helvetica,sans-Serif" font-size="10.00" fill="#000000">WeakPointable</text>
</a>
</g>
</g>
<!-- Node1 -->
<g id="node2" class="node">
<title>Node1</title>
<g id="a_node2"><a xlink:href="classpkgAcquire_1_1Item.xhtml" target="_top" xlink:title="Represents the process by which a pkgAcquire object should retrieve a file or a collection of files...">
<polygon fill="#ffffff" stroke="#000000" points="137,-133.5 137,-152.5 237,-152.5 237,-133.5 137,-133.5"/>
<text text-anchor="middle" x="187" y="-140.5" font-family="Helvetica,sans-Serif" font-size="10.00" fill="#000000">pkgAcquire::Item</text>
</a>
</g>
</g>
<!-- Node0&#45;&gt;Node1 -->
<g id="edge1" class="edge">
<title>Node0&#45;&gt;Node1</title>
<path fill="none" stroke="#191970" d="M70.7799,-78.5692C99.627,-94.5616 145.1084,-119.7759 169.7502,-133.437"/>
<polygon fill="#191970" stroke="#191970" points="72.1318,-75.3168 61.6888,-73.5292 68.7377,-81.439 72.1318,-75.3168"/>
</g>
<!-- Node18 -->
<g id="node19" class="node">
<title>Node18</title>
<g id="a_node19"><a xlink:href="structpkgAcquire_1_1ItemDesc.xhtml" target="_top" xlink:title="Represents a single download source from which an item should be downloaded. ">
<polygon fill="#ffffff" stroke="#000000" points="125,-54.5 125,-73.5 249,-73.5 249,-54.5 125,-54.5"/>
<text text-anchor="middle" x="187" y="-61.5" font-family="Helvetica,sans-Serif" font-size="10.00" fill="#000000">pkgAcquire::ItemDesc</text>
</a>
</g>
</g>
<!-- Node0&#45;&gt;Node18 -->
<g id="edge18" class="edge">
<title>Node0&#45;&gt;Node18</title>
<path fill="none" stroke="#191970" d="M99.2644,-64C107.6777,-64 116.4154,-64 124.9727,-64"/>
<polygon fill="#191970" stroke="#191970" points="99.1969,-60.5001 89.1969,-64 99.1969,-67.5001 99.1969,-60.5001"/>
</g>
<!-- Node20 -->
<g id="node21" class="node">
<title>Node20</title>
<g id="a_node21"><a xlink:href="classpkgAcquire_1_1Worker.xhtml" target="_top" xlink:title="A fetch subprocess. ">
<polygon fill="#ffffff" stroke="#000000" points="131,-16.5 131,-35.5 243,-35.5 243,-16.5 131,-16.5"/>
<text text-anchor="middle" x="187" y="-23.5" font-family="Helvetica,sans-Serif" font-size="10.00" fill="#000000">pkgAcquire::Worker</text>
</a>
</g>
</g>
<!-- Node0&#45;&gt;Node20 -->
<g id="edge20" class="edge">
<title>Node0&#45;&gt;Node20</title>
<path fill="none" stroke="#191970" d="M90.1531,-51.8258C109.8577,-46.5713 132.5747,-40.5134 151.0527,-35.5859"/>
<polygon fill="#191970" stroke="#191970" points="89.2193,-48.4525 80.4588,-54.411 91.023,-55.2161 89.2193,-48.4525"/>
</g>
<!-- Node2 -->
<g id="node3" class="node">
<title>Node2</title>
<g id="a_node3"><a xlink:href="classNoActionItem.xhtml" target="_top" xlink:title="NoActionItem">
<polygon fill="#ffffff" stroke="#000000" points="309,-228.5 309,-247.5 392,-247.5 392,-228.5 309,-228.5"/>
<text text-anchor="middle" x="350.5" y="-235.5" font-family="Helvetica,sans-Serif" font-size="10.00" fill="#000000">NoActionItem</text>
</a>
</g>
</g>
<!-- Node1&#45;&gt;Node2 -->
<g id="edge2" class="edge">
<title>Node1&#45;&gt;Node2</title>
<path fill="none" stroke="#191970" d="M204.0573,-159.5309C222.5877,-176.6528 253.7464,-203.0857 285,-219 292.3858,-222.7608 300.6298,-225.8856 308.7105,-228.4409"/>
<polygon fill="#191970" stroke="#191970" points="206.3813,-156.9118 196.701,-152.6056 201.5831,-162.0086 206.3813,-156.9118"/>
</g>
<!-- Node3 -->
<g id="node4" class="node">
<title>Node3</title>
<g id="a_node4"><a xlink:href="classpkgAcqArchive.xhtml" target="_top" xlink:title="An item that is responsible for fetching a package file. {{{. ">
<polygon fill="#ffffff" stroke="#000000" points="306,-190.5 306,-209.5 395,-209.5 395,-190.5 306,-190.5"/>
<text text-anchor="middle" x="350.5" y="-197.5" font-family="Helvetica,sans-Serif" font-size="10.00" fill="#000000">pkgAcqArchive</text>
</a>
</g>
</g>
<!-- Node1&#45;&gt;Node3 -->
<g id="edge3" class="edge">
<title>Node1&#45;&gt;Node3</title>
<path fill="none" stroke="#191970" d="M219.5232,-156.4353C238.4751,-164.0564 262.9194,-173.5325 285,-181 294.7581,-184.3001 305.4486,-187.5516 315.3107,-190.4063"/>
<polygon fill="#191970" stroke="#191970" points="220.7374,-153.1509 210.1549,-152.6394 218.1087,-159.6386 220.7374,-153.1509"/>
</g>
<!-- Node4 -->
<g id="node5" class="node">
<title>Node4</title>
<g id="a_node5"><a xlink:href="classpkgAcqChangelog.xhtml" target="_top" xlink:title="Retrieve the changelog for the given version {{{. ">
<polygon fill="#ffffff" stroke="#000000" points="298.5,-152.5 298.5,-171.5 402.5,-171.5 402.5,-152.5 298.5,-152.5"/>
<text text-anchor="middle" x="350.5" y="-159.5" font-family="Helvetica,sans-Serif" font-size="10.00" fill="#000000">pkgAcqChangelog</text>
</a>
</g>
</g>
<!-- Node1&#45;&gt;Node4 -->
<g id="edge4" class="edge">
<title>Node1&#45;&gt;Node4</title>
<path fill="none" stroke="#191970" d="M247.573,-150.0391C264.2335,-151.9752 282.1544,-154.0577 298.2987,-155.9338"/>
<polygon fill="#191970" stroke="#191970" points="247.7267,-146.5335 237.3895,-148.8557 246.9186,-153.4867 247.7267,-146.5335"/>
</g>
<!-- Node5 -->
<g id="node6" class="node">
<title>Node5</title>
<g id="a_node6"><a xlink:href="classpkgAcqFile.xhtml" target="_top" xlink:title="Retrieve an arbitrary file to the current directory. {{{. ">
<polygon fill="#ffffff" stroke="#000000" points="316,-114.5 316,-133.5 385,-133.5 385,-114.5 316,-114.5"/>
<text text-anchor="middle" x="350.5" y="-121.5" font-family="Helvetica,sans-Serif" font-size="10.00" fill="#000000">pkgAcqFile</text>
</a>
</g>
</g>
<!-- Node1&#45;&gt;Node5 -->
<g id="edge5" class="edge">
<title>Node1&#45;&gt;Node5</title>
<path fill="none" stroke="#191970" d="M247.4346,-135.977C270.4796,-133.299 295.9541,-130.3387 315.811,-128.0311"/>
<polygon fill="#191970" stroke="#191970" points="246.9186,-132.5133 237.3895,-137.1443 247.7267,-139.4665 246.9186,-132.5133"/>
</g>
<!-- Node7 -->
<g id="node8" class="node">
<title>Node7</title>
<g id="a_node8"><a xlink:href="classpkgAcqTransactionItem.xhtml" target="_top" xlink:title="baseclass for the indexes files to manage them all together ">
<polygon fill="#ffffff" stroke="#000000" points="285,-76.5 285,-95.5 416,-95.5 416,-76.5 285,-76.5"/>
<text text-anchor="middle" x="350.5" y="-83.5" font-family="Helvetica,sans-Serif" font-size="10.00" fill="#000000">pkgAcqTransactionItem</text>
</a>
</g>
</g>
<!-- Node1&#45;&gt;Node7 -->
<g id="edge7" class="edge">
<title>Node1&#45;&gt;Node7</title>
<path fill="none" stroke="#191970" d="M219.5232,-129.5647C238.4751,-121.9436 262.9194,-112.4675 285,-105 294.7581,-101.6999 305.4486,-98.4484 315.3107,-95.5937"/>
<polygon fill="#191970" stroke="#191970" points="218.1087,-126.3614 210.1549,-133.3606 220.7374,-132.8491 218.1087,-126.3614"/>
</g>
<!-- Node6 -->
<g id="node7" class="node">
<title>Node6</title>
<g id="a_node7"><a xlink:href="classpkgAcqAuxFile.xhtml" target="_top" xlink:title="pkgAcqAuxFile">
<polygon fill="#ffffff" stroke="#000000" points="460,-152.5 460,-171.5 548,-171.5 548,-152.5 460,-152.5"/>
<text text-anchor="middle" x="504" y="-159.5" font-family="Helvetica,sans-Serif" font-size="10.00" fill="#000000">pkgAcqAuxFile</text>
</a>
</g>
</g>
<!-- Node5&#45;&gt;Node6 -->
<g id="edge6" class="edge">
<title>Node5&#45;&gt;Node6</title>
<path fill="none" stroke="#191970" d="M395.2259,-135.0722C417.5086,-140.5884 444.1796,-147.191 465.5347,-152.4777"/>
<polygon fill="#191970" stroke="#191970" points="395.8796,-131.6284 385.3315,-132.6228 394.1974,-138.4233 395.8796,-131.6284"/>
</g>
<!-- Node8 -->
<g id="node9" class="node">
<title>Node8</title>
<g id="a_node9"><a xlink:href="classCleanupItem.xhtml" target="_top" xlink:title="CleanupItem">
<polygon fill="#ffffff" stroke="#000000" points="464.5,-114.5 464.5,-133.5 543.5,-133.5 543.5,-114.5 464.5,-114.5"/>
<text text-anchor="middle" x="504" y="-121.5" font-family="Helvetica,sans-Serif" font-size="10.00" fill="#000000">CleanupItem</text>
</a>
</g>
</g>
<!-- Node7&#45;&gt;Node8 -->
<g id="edge8" class="edge">
<title>Node7&#45;&gt;Node8</title>
<path fill="none" stroke="#191970" d="M399.1352,-98.04C420.5799,-103.3488 445.4226,-109.4988 465.544,-114.4799"/>
<polygon fill="#191970" stroke="#191970" points="399.7826,-94.5947 389.2345,-95.589 398.1004,-101.3896 399.7826,-94.5947"/>
</g>
<!-- Node9 -->
<g id="node10" class="node">
<title>Node9</title>
<g id="a_node10"><a xlink:href="classpkgAcqBaseIndex.xhtml" target="_top" xlink:title="Common base class for all classes that deal with fetching indexes {{{. ">
<polygon fill="#ffffff" stroke="#000000" points="452,-76.5 452,-95.5 556,-95.5 556,-76.5 452,-76.5"/>
<text text-anchor="middle" x="504" y="-83.5" font-family="Helvetica,sans-Serif" font-size="10.00" fill="#000000">pkgAcqBaseIndex</text>
</a>
</g>
</g>
<!-- Node7&#45;&gt;Node9 -->
<g id="edge9" class="edge">
<title>Node7&#45;&gt;Node9</title>
<path fill="none" stroke="#191970" d="M426.1421,-86C434.7745,-86 443.4257,-86 451.6586,-86"/>
<polygon fill="#191970" stroke="#191970" points="426.0431,-82.5001 416.0431,-86 426.043,-89.5001 426.0431,-82.5001"/>
</g>
<!-- Node14 -->
<g id="node15" class="node">
<title>Node14</title>
<g id="a_node15"><a xlink:href="classpkgAcqMetaBase.xhtml" target="_top" xlink:title="the manager of a transaction ">
<polygon fill="#ffffff" stroke="#000000" points="453.5,-38.5 453.5,-57.5 554.5,-57.5 554.5,-38.5 453.5,-38.5"/>
<text text-anchor="middle" x="504" y="-45.5" font-family="Helvetica,sans-Serif" font-size="10.00" fill="#000000">pkgAcqMetaBase</text>
</a>
</g>
</g>
<!-- Node7&#45;&gt;Node14 -->
<g id="edge14" class="edge">
<title>Node7&#45;&gt;Node14</title>
<path fill="none" stroke="#191970" d="M399.1352,-73.96C420.5799,-68.6512 445.4226,-62.5012 465.544,-57.5201"/>
<polygon fill="#191970" stroke="#191970" points="398.1004,-70.6104 389.2345,-76.411 399.7826,-77.4053 398.1004,-70.6104"/>
</g>
<!-- Node17 -->
<g id="node18" class="node">
<title>Node17</title>
<g id="a_node18"><a xlink:href="classpkgAcqMetaSig.xhtml" target="_top" xlink:title="An acquire item that downloads the detached signature {{{ of a meta&#45;index (Release) file...">
<polygon fill="#ffffff" stroke="#000000" points="458,-.5 458,-19.5 550,-19.5 550,-.5 458,-.5"/>
<text text-anchor="middle" x="504" y="-7.5" font-family="Helvetica,sans-Serif" font-size="10.00" fill="#000000">pkgAcqMetaSig</text>
</a>
</g>
</g>
<!-- Node7&#45;&gt;Node17 -->
<g id="edge17" class="edge">
<title>Node7&#45;&gt;Node17</title>
<path fill="none" stroke="#191970" d="M405.117,-72.6293C408.903,-70.9586 412.572,-69.0894 416,-67 435.8654,-54.8921 432.5576,-41.7761 452,-29 457.7031,-25.2524 464.2425,-22.1221 470.7158,-19.5549"/>
<polygon fill="#191970" stroke="#191970" points="403.5682,-69.4771 395.5358,-76.3858 406.1234,-75.9941 403.5682,-69.4771"/>
</g>
<!-- Node10 -->
<g id="node11" class="node">
<title>Node10</title>
<g id="a_node11"><a xlink:href="classpkgAcqIndex.xhtml" target="_top" xlink:title="An acquire item that is responsible for fetching an index {{{ file (e.g., Packages or Sources)...">
<polygon fill="#ffffff" stroke="#000000" points="618,-133.5 618,-152.5 698,-152.5 698,-133.5 618,-133.5"/>
<text text-anchor="middle" x="658" y="-140.5" font-family="Helvetica,sans-Serif" font-size="10.00" fill="#000000">pkgAcqIndex</text>
</a>
</g>
</g>
<!-- Node9&#45;&gt;Node10 -->
<g id="edge10" class="edge">
<title>Node9&#45;&gt;Node10</title>
<path fill="none" stroke="#191970" d="M541.9953,-99.2038C546.7497,-101.0545 551.5146,-103.0079 556,-105 572.5343,-112.3435 575.2188,-117.2397 592,-124 600.848,-127.5644 610.6113,-130.7565 619.8538,-133.461"/>
<polygon fill="#191970" stroke="#191970" points="542.9356,-95.818 532.3437,-95.5693 540.4687,-102.3689 542.9356,-95.818"/>
</g>
<!-- Node12 -->
<g id="node13" class="node">
<title>Node12</title>
<g id="a_node13"><a xlink:href="classpkgAcqIndexDiffs.xhtml" target="_top" xlink:title="An item that is responsible for fetching server&#45;merge patches {{{ that need to be applied to a given ...">
<polygon fill="#ffffff" stroke="#000000" points="607,-95.5 607,-114.5 709,-114.5 709,-95.5 607,-95.5"/>
<text text-anchor="middle" x="658" y="-102.5" font-family="Helvetica,sans-Serif" font-size="10.00" fill="#000000">pkgAcqIndexDiffs</text>
</a>
</g>
</g>
<!-- Node9&#45;&gt;Node12 -->
<g id="edge12" class="edge">
<title>Node9&#45;&gt;Node12</title>
<path fill="none" stroke="#191970" d="M566.3138,-93.6881C579.8189,-95.3543 593.9499,-97.0977 606.9609,-98.703"/>
<polygon fill="#191970" stroke="#191970" points="566.4907,-90.1834 556.1374,-92.4325 565.6335,-97.1308 566.4907,-90.1834"/>
</g>
<!-- Node13 -->
<g id="node14" class="node">
<title>Node13</title>
<g id="a_node14"><a xlink:href="classpkgAcqIndexMergeDiffs.xhtml" target="_top" xlink:title="An item that is responsible for fetching client&#45;merge patches {{{ that need to be applied to a given ...">
<polygon fill="#ffffff" stroke="#000000" points="592,-57.5 592,-76.5 724,-76.5 724,-57.5 592,-57.5"/>
<text text-anchor="middle" x="658" y="-64.5" font-family="Helvetica,sans-Serif" font-size="10.00" fill="#000000">pkgAcqIndexMergeDiffs</text>
</a>
</g>
</g>
<!-- Node9&#45;&gt;Node13 -->
<g id="edge13" class="edge">
<title>Node9&#45;&gt;Node13</title>
<path fill="none" stroke="#191970" d="M566.3054,-78.313C574.7649,-77.2693 583.4701,-76.1952 591.992,-75.1438"/>
<polygon fill="#191970" stroke="#191970" points="565.6335,-74.8692 556.1374,-79.5675 566.4907,-81.8166 565.6335,-74.8692"/>
</g>
<!-- Node11 -->
<g id="node12" class="node">
<title>Node11</title>
<g id="a_node12"><a xlink:href="classpkgAcqDiffIndex.xhtml" target="_top" xlink:title="An item that is responsible for fetching an index file of {{{ package list diffs and starting the pac...">
<polygon fill="#ffffff" stroke="#000000" points="770,-133.5 770,-152.5 867,-152.5 867,-133.5 770,-133.5"/>
<text text-anchor="middle" x="818.5" y="-140.5" font-family="Helvetica,sans-Serif" font-size="10.00" fill="#000000">pkgAcqDiffIndex</text>
</a>
</g>
</g>
<!-- Node10&#45;&gt;Node11 -->
<g id="edge11" class="edge">
<title>Node10&#45;&gt;Node11</title>
<path fill="none" stroke="#191970" d="M708.352,-143C727.9512,-143 750.3265,-143 769.7677,-143"/>
<polygon fill="#191970" stroke="#191970" points="708.0869,-139.5001 698.0869,-143 708.0869,-146.5001 708.0869,-139.5001"/>
</g>
<!-- Node15 -->
<g id="node16" class="node">
<title>Node15</title>
<g id="a_node16"><a xlink:href="classpkgAcqMetaIndex.xhtml" target="_top" xlink:title="An item that is responsible for downloading the meta&#45;index {{{ file (i.e., Release) itself and verify...">
<polygon fill="#ffffff" stroke="#000000" points="606,-19.5 606,-38.5 710,-38.5 710,-19.5 606,-19.5"/>
<text text-anchor="middle" x="658" y="-26.5" font-family="Helvetica,sans-Serif" font-size="10.00" fill="#000000">pkgAcqMetaIndex</text>
</a>
</g>
</g>
<!-- Node14&#45;&gt;Node15 -->
<g id="edge15" class="edge">
<title>Node14&#45;&gt;Node15</title>
<path fill="none" stroke="#191970" d="M565.0282,-40.4705C578.5489,-38.8024 592.7568,-37.0495 605.8836,-35.4299"/>
<polygon fill="#191970" stroke="#191970" points="564.3483,-37.0278 554.8522,-41.726 565.2055,-43.9751 564.3483,-37.0278"/>
</g>
<!-- Node16 -->
<g id="node17" class="node">
<title>Node16</title>
<g id="a_node17"><a xlink:href="classpkgAcqMetaClearSig.xhtml" target="_top" xlink:title="An item responsible for downloading clearsigned metaindexes {{{. ">
<polygon fill="#ffffff" stroke="#000000" points="760,-19.5 760,-38.5 877,-38.5 877,-19.5 760,-19.5"/>
<text text-anchor="middle" x="818.5" y="-26.5" font-family="Helvetica,sans-Serif" font-size="10.00" fill="#000000">pkgAcqMetaClearSig</text>
</a>
</g>
</g>
<!-- Node15&#45;&gt;Node16 -->
<g id="edge16" class="edge">
<title>Node15&#45;&gt;Node16</title>
<path fill="none" stroke="#191970" d="M720.3864,-29C733.4122,-29 747.0996,-29 759.9793,-29"/>
<polygon fill="#191970" stroke="#191970" points="720.1098,-25.5001 710.1098,-29 720.1097,-32.5001 720.1098,-25.5001"/>
</g>
<!-- Node19 -->
<g id="node20" class="node">
<title>Node19</title>
<g id="a_node20"><a xlink:href="structpkgAcquire_1_1Queue_1_1QItem.xhtml" target="_top" xlink:title="A single item placed in this queue. ">
<polygon fill="#ffffff" stroke="#000000" points="293,-27 293,-57 408,-57 408,-27 293,-27"/>
<text text-anchor="start" x="301" y="-45" font-family="Helvetica,sans-Serif" font-size="10.00" fill="#000000">pkgAcquire::Queue::</text>
<text text-anchor="middle" x="350.5" y="-34" font-family="Helvetica,sans-Serif" font-size="10.00" fill="#000000">QItem</text>
</a>
</g>
</g>
<!-- Node18&#45;&gt;Node19 -->
<g id="edge19" class="edge">
<title>Node18&#45;&gt;Node19</title>
<path fill="none" stroke="#191970" d="M259.4832,-54.2469C270.6936,-52.7385 282.1395,-51.1984 292.9629,-49.742"/>
<polygon fill="#191970" stroke="#191970" points="258.7227,-50.8176 249.2788,-55.62 259.6562,-57.7551 258.7227,-50.8176"/>
</g>
</g>
</svg>
