<?xml version="1.0" encoding="UTF-8" standalone="no"?>
<!DOCTYPE svg PUBLIC "-//W3C//DTD SVG 1.1//EN"
 "http://www.w3.org/Graphics/SVG/1.1/DTD/svg11.dtd">
<!-- Generated by graphviz version 2.40.1 (20161225.0304)
 -->
<!-- Title: Graphical Class Hierarchy Pages: 1 -->
<svg width="546pt" height="1055pt"
 viewBox="0.00 0.00 546.00 1055.00" xmlns="http://www.w3.org/2000/svg" xmlns:xlink="http://www.w3.org/1999/xlink">
<g id="graph0" class="graph" transform="scale(1 1) rotate(0) translate(4 1051)">
<title>Graphical Class Hierarchy</title>
<polygon fill="#ffffff" stroke="transparent" points="-4,4 -4,-1051 542,-1051 542,4 -4,4"/>
<!-- Node197 -->
<g id="node1" class="node">
<title>Node197</title>
<polygon fill="#ffffff" stroke="#bfbfbf" points="37.5,-398 37.5,-417 90.5,-417 90.5,-398 37.5,-398"/>
<text text-anchor="middle" x="64" y="-405" font-family="Helvetica,sans-Serif" font-size="10.00" fill="#000000">iterator</text>
</g>
<!-- Node48 -->
<g id="node2" class="node">
<title>Node48</title>
<g id="a_node2"><a xlink:href="classAPT_1_1Container__iterator__base.xhtml" target="_top" xlink:title="Container_iterator\l_base\&lt; Interface, Master,\l iterator_type, container\l_iterator, container_value \&gt;">
<polygon fill="#ffffff" stroke="#000000" points="183,-808.5 183,-860.5 336,-860.5 336,-808.5 183,-808.5"/>
<text text-anchor="start" x="191" y="-848.5" font-family="Helvetica,sans-Serif" font-size="10.00" fill="#000000">Container_iterator</text>
<text text-anchor="start" x="191" y="-837.5" font-family="Helvetica,sans-Serif" font-size="10.00" fill="#000000">_base&lt; Interface, Master,</text>
<text text-anchor="start" x="191" y="-826.5" font-family="Helvetica,sans-Serif" font-size="10.00" fill="#000000"> iterator_type, container</text>
<text text-anchor="middle" x="259.5" y="-815.5" font-family="Helvetica,sans-Serif" font-size="10.00" fill="#000000">_iterator, container_value &gt;</text>
</a>
</g>
</g>
<!-- Node197&#45;&gt;Node48 -->
<g id="edge1" class="edge">
<title>Node197&#45;&gt;Node48</title>
<path fill="none" stroke="#191970" d="M73.7154,-425.9766C87.8893,-453.7459 114.0613,-508.2453 128,-557.5 157.4898,-661.7072 95.9615,-714.2411 164,-798.5 169.2319,-804.9792 175.7617,-810.2927 182.9365,-814.6503"/>
<polygon fill="#191970" stroke="#191970" points="76.7834,-424.2896 69.0812,-417.0145 70.5655,-427.5049 76.7834,-424.2896"/>
</g>
<!-- Node0 -->
<g id="node3" class="node">
<title>Node0</title>
<g id="a_node3"><a xlink:href="classAPT_1_1Container__iterator__base.xhtml" target="_top" xlink:title="Container_iterator\l_base\&lt; APT::PackageContainer\lInterface, PackageUniverse,\l PackageUniverse::const_iterator,\l pkgCache::PkgIterator, pkgCache\l::PkgIterator \&gt;">
<polygon fill="#ffffff" stroke="#000000" points="168.5,-539.5 168.5,-613.5 350.5,-613.5 350.5,-539.5 168.5,-539.5"/>
<text text-anchor="start" x="176.5" y="-601.5" font-family="Helvetica,sans-Serif" font-size="10.00" fill="#000000">Container_iterator</text>
<text text-anchor="start" x="176.5" y="-590.5" font-family="Helvetica,sans-Serif" font-size="10.00" fill="#000000">_base&lt; APT::PackageContainer</text>
<text text-anchor="start" x="176.5" y="-579.5" font-family="Helvetica,sans-Serif" font-size="10.00" fill="#000000">Interface, PackageUniverse,</text>
<text text-anchor="start" x="176.5" y="-568.5" font-family="Helvetica,sans-Serif" font-size="10.00" fill="#000000"> PackageUniverse::const_iterator,</text>
<text text-anchor="start" x="176.5" y="-557.5" font-family="Helvetica,sans-Serif" font-size="10.00" fill="#000000"> pkgCache::PkgIterator, pkgCache</text>
<text text-anchor="middle" x="259.5" y="-546.5" font-family="Helvetica,sans-Serif" font-size="10.00" fill="#000000">::PkgIterator &gt;</text>
</a>
</g>
</g>
<!-- Node197&#45;&gt;Node0 -->
<g id="edge2" class="edge">
<title>Node197&#45;&gt;Node0</title>
<path fill="none" stroke="#191970" d="M74.9548,-425.5072C91.515,-451.5098 125.1461,-499.8109 164,-530.5 167.8992,-533.5798 172.0382,-536.5217 176.3231,-539.3204"/>
<polygon fill="#191970" stroke="#191970" points="77.9138,-423.6378 69.648,-417.0101 71.9766,-427.3459 77.9138,-423.6378"/>
</g>
<!-- Node49 -->
<g id="node5" class="node">
<title>Node49</title>
<g id="a_node5"><a xlink:href="classAPT_1_1Container__iterator__base.xhtml" target="_top" xlink:title="Container_iterator\l_base\&lt; Interface, Master,\l Container_const_iterator\l\&lt; Interface, Container, Master\l \&gt;, Container::const_iterator,\l Container::value_type \&gt;">
<polygon fill="#ffffff" stroke="#000000" points="177.5,-972.5 177.5,-1046.5 341.5,-1046.5 341.5,-972.5 177.5,-972.5"/>
<text text-anchor="start" x="185.5" y="-1034.5" font-family="Helvetica,sans-Serif" font-size="10.00" fill="#000000">Container_iterator</text>
<text text-anchor="start" x="185.5" y="-1023.5" font-family="Helvetica,sans-Serif" font-size="10.00" fill="#000000">_base&lt; Interface, Master,</text>
<text text-anchor="start" x="185.5" y="-1012.5" font-family="Helvetica,sans-Serif" font-size="10.00" fill="#000000"> Container_const_iterator</text>
<text text-anchor="start" x="185.5" y="-1001.5" font-family="Helvetica,sans-Serif" font-size="10.00" fill="#000000">&lt; Interface, Container, Master</text>
<text text-anchor="start" x="185.5" y="-990.5" font-family="Helvetica,sans-Serif" font-size="10.00" fill="#000000"> &gt;, Container::const_iterator,</text>
<text text-anchor="middle" x="259.5" y="-979.5" font-family="Helvetica,sans-Serif" font-size="10.00" fill="#000000"> Container::value_type &gt;</text>
</a>
</g>
</g>
<!-- Node197&#45;&gt;Node49 -->
<g id="edge4" class="edge">
<title>Node197&#45;&gt;Node49</title>
<path fill="none" stroke="#191970" d="M74.3161,-426.2848C89.0222,-454.0491 115.6025,-508.0949 128,-557.5 150.0454,-645.3524 112.4705,-889.01 164,-963.5 167.7691,-968.9485 172.3666,-973.7742 177.4851,-978.0447"/>
<polygon fill="#191970" stroke="#191970" points="77.3036,-424.4504 69.4835,-417.3022 71.1391,-427.7669 77.3036,-424.4504"/>
</g>
<!-- Node51 -->
<g id="node7" class="node">
<title>Node51</title>
<g id="a_node7"><a xlink:href="classAPT_1_1Container__iterator__base.xhtml" target="_top" xlink:title="Container_iterator\l_base\&lt; Interface, Master,\l Container_const_reverse\l_iterator\&lt; Interface, Container,\l Master \&gt;, Container::const_reverse\l_iterator, Container::value_type \&gt;">
<polygon fill="#ffffff" stroke="#000000" points="164,-879.5 164,-953.5 355,-953.5 355,-879.5 164,-879.5"/>
<text text-anchor="start" x="172" y="-941.5" font-family="Helvetica,sans-Serif" font-size="10.00" fill="#000000">Container_iterator</text>
<text text-anchor="start" x="172" y="-930.5" font-family="Helvetica,sans-Serif" font-size="10.00" fill="#000000">_base&lt; Interface, Master,</text>
<text text-anchor="start" x="172" y="-919.5" font-family="Helvetica,sans-Serif" font-size="10.00" fill="#000000"> Container_const_reverse</text>
<text text-anchor="start" x="172" y="-908.5" font-family="Helvetica,sans-Serif" font-size="10.00" fill="#000000">_iterator&lt; Interface, Container,</text>
<text text-anchor="start" x="172" y="-897.5" font-family="Helvetica,sans-Serif" font-size="10.00" fill="#000000"> Master &gt;, Container::const_reverse</text>
<text text-anchor="middle" x="259.5" y="-886.5" font-family="Helvetica,sans-Serif" font-size="10.00" fill="#000000">_iterator, Container::value_type &gt;</text>
</a>
</g>
</g>
<!-- Node197&#45;&gt;Node51 -->
<g id="edge6" class="edge">
<title>Node197&#45;&gt;Node51</title>
<path fill="none" stroke="#191970" d="M74.1456,-426.3288C88.6399,-454.1476 114.9594,-508.2607 128,-557.5 145.9246,-625.1807 123.4212,-813.4445 164,-870.5 166.2399,-873.6493 168.7549,-876.5915 171.4848,-879.3394"/>
<polygon fill="#191970" stroke="#191970" points="77.1549,-424.5321 69.3871,-417.3271 70.9663,-427.8036 77.1549,-424.5321"/>
</g>
<!-- Node53 -->
<g id="node9" class="node">
<title>Node53</title>
<g id="a_node9"><a xlink:href="classAPT_1_1Container__iterator__base.xhtml" target="_top" xlink:title="Container_iterator\l_base\&lt; Interface, Master,\l Container_iterator\&lt; Interface,\l Container, Master \&gt;, Container\l::iterator, Container::value_type \&gt;">
<polygon fill="#ffffff" stroke="#000000" points="168,-726 168,-789 351,-789 351,-726 168,-726"/>
<text text-anchor="start" x="176" y="-777" font-family="Helvetica,sans-Serif" font-size="10.00" fill="#000000">Container_iterator</text>
<text text-anchor="start" x="176" y="-766" font-family="Helvetica,sans-Serif" font-size="10.00" fill="#000000">_base&lt; Interface, Master,</text>
<text text-anchor="start" x="176" y="-755" font-family="Helvetica,sans-Serif" font-size="10.00" fill="#000000"> Container_iterator&lt; Interface,</text>
<text text-anchor="start" x="176" y="-744" font-family="Helvetica,sans-Serif" font-size="10.00" fill="#000000"> Container, Master &gt;, Container</text>
<text text-anchor="middle" x="259.5" y="-733" font-family="Helvetica,sans-Serif" font-size="10.00" fill="#000000">::iterator, Container::value_type &gt;</text>
</a>
</g>
</g>
<!-- Node197&#45;&gt;Node53 -->
<g id="edge8" class="edge">
<title>Node197&#45;&gt;Node53</title>
<path fill="none" stroke="#191970" d="M73.2438,-426.1196C86.819,-454.0704 112.2396,-508.7976 128,-557.5 150.3081,-626.4357 117.6582,-660.8025 164,-716.5 166.7697,-719.8288 169.8594,-722.8938 173.1848,-725.7153"/>
<polygon fill="#191970" stroke="#191970" points="76.3635,-424.532 68.8182,-417.0942 70.0784,-427.6139 76.3635,-424.532"/>
</g>
<!-- Node55 -->
<g id="node11" class="node">
<title>Node55</title>
<g id="a_node11"><a xlink:href="classAPT_1_1Container__iterator__base.xhtml" target="_top" xlink:title="Container_iterator\l_base\&lt; Interface, Master,\l Container_reverse_iterator\l\&lt; Interface, Container, Master\l \&gt;, Container::reverse_iterator,\l Container::value_type \&gt;">
<polygon fill="#ffffff" stroke="#000000" points="175.5,-632.5 175.5,-706.5 343.5,-706.5 343.5,-632.5 175.5,-632.5"/>
<text text-anchor="start" x="183.5" y="-694.5" font-family="Helvetica,sans-Serif" font-size="10.00" fill="#000000">Container_iterator</text>
<text text-anchor="start" x="183.5" y="-683.5" font-family="Helvetica,sans-Serif" font-size="10.00" fill="#000000">_base&lt; Interface, Master,</text>
<text text-anchor="start" x="183.5" y="-672.5" font-family="Helvetica,sans-Serif" font-size="10.00" fill="#000000"> Container_reverse_iterator</text>
<text text-anchor="start" x="183.5" y="-661.5" font-family="Helvetica,sans-Serif" font-size="10.00" fill="#000000">&lt; Interface, Container, Master</text>
<text text-anchor="start" x="183.5" y="-650.5" font-family="Helvetica,sans-Serif" font-size="10.00" fill="#000000"> &gt;, Container::reverse_iterator,</text>
<text text-anchor="middle" x="259.5" y="-639.5" font-family="Helvetica,sans-Serif" font-size="10.00" fill="#000000"> Container::value_type &gt;</text>
</a>
</g>
</g>
<!-- Node197&#45;&gt;Node55 -->
<g id="edge10" class="edge">
<title>Node197&#45;&gt;Node55</title>
<path fill="none" stroke="#191970" d="M71.8611,-426.3502C92.7335,-476.1127 148.9759,-608.2443 164,-623.5 167.4865,-627.0402 171.2999,-630.3454 175.3324,-633.4257"/>
<polygon fill="#191970" stroke="#191970" points="75.06,-424.9277 67.9716,-417.0534 68.6024,-427.6295 75.06,-424.9277"/>
</g>
<!-- Node198 -->
<g id="node13" class="node">
<title>Node198</title>
<g id="a_node13"><a xlink:href="classpkgCache_1_1Iterator.xhtml" target="_top" xlink:title="pkgCache::Iterator\l\&lt; Dependency, DepIterator \&gt;">
<polygon fill="#ffffff" stroke="#000000" points="179,-147.5 179,-177.5 340,-177.5 340,-147.5 179,-147.5"/>
<text text-anchor="start" x="187" y="-165.5" font-family="Helvetica,sans-Serif" font-size="10.00" fill="#000000">pkgCache::Iterator</text>
<text text-anchor="middle" x="259.5" y="-154.5" font-family="Helvetica,sans-Serif" font-size="10.00" fill="#000000">&lt; Dependency, DepIterator &gt;</text>
</a>
</g>
</g>
<!-- Node197&#45;&gt;Node198 -->
<g id="edge12" class="edge">
<title>Node197&#45;&gt;Node198</title>
<path fill="none" stroke="#191970" d="M67.0768,-387.6326C74.8857,-344.1787 99.6248,-240.2885 164,-186.5 168.4604,-182.7731 173.4205,-179.6129 178.669,-176.9345"/>
<polygon fill="#191970" stroke="#191970" points="63.5814,-387.3129 65.3727,-397.7552 70.4843,-388.475 63.5814,-387.3129"/>
</g>
<!-- Node200 -->
<g id="node15" class="node">
<title>Node200</title>
<g id="a_node15"><a xlink:href="classpkgCache_1_1Iterator.xhtml" target="_top" xlink:title="pkgCache::Iterator\l\&lt; DescFile, DescFileIterator \&gt;">
<polygon fill="#ffffff" stroke="#000000" points="178.5,-98.5 178.5,-128.5 340.5,-128.5 340.5,-98.5 178.5,-98.5"/>
<text text-anchor="start" x="186.5" y="-116.5" font-family="Helvetica,sans-Serif" font-size="10.00" fill="#000000">pkgCache::Iterator</text>
<text text-anchor="middle" x="259.5" y="-105.5" font-family="Helvetica,sans-Serif" font-size="10.00" fill="#000000">&lt; DescFile, DescFileIterator &gt;</text>
</a>
</g>
</g>
<!-- Node197&#45;&gt;Node200 -->
<g id="edge14" class="edge">
<title>Node197&#45;&gt;Node200</title>
<path fill="none" stroke="#191970" d="M65.2409,-387.7904C69.4763,-337.938 87.7077,-205.9336 164,-137.5 168.3268,-133.6189 173.1889,-130.3453 178.3676,-127.5865"/>
<polygon fill="#191970" stroke="#191970" points="61.7423,-387.6422 64.4851,-397.8759 68.7227,-388.1654 61.7423,-387.6422"/>
</g>
<!-- Node202 -->
<g id="node17" class="node">
<title>Node202</title>
<g id="a_node17"><a xlink:href="classpkgCache_1_1Iterator.xhtml" target="_top" xlink:title="pkgCache::Iterator\l\&lt; Description, DescIterator \&gt;">
<polygon fill="#ffffff" stroke="#000000" points="179,-49.5 179,-79.5 340,-79.5 340,-49.5 179,-49.5"/>
<text text-anchor="start" x="187" y="-67.5" font-family="Helvetica,sans-Serif" font-size="10.00" fill="#000000">pkgCache::Iterator</text>
<text text-anchor="middle" x="259.5" y="-56.5" font-family="Helvetica,sans-Serif" font-size="10.00" fill="#000000">&lt; Description, DescIterator &gt;</text>
</a>
</g>
</g>
<!-- Node197&#45;&gt;Node202 -->
<g id="edge16" class="edge">
<title>Node197&#45;&gt;Node202</title>
<path fill="none" stroke="#191970" d="M67.595,-387.736C79.4144,-324.8569 118.905,-131.0709 164,-88.5 168.3509,-84.3926 173.2972,-80.9597 178.5948,-78.0937"/>
<polygon fill="#191970" stroke="#191970" points="64.0945,-387.4173 65.7149,-397.8875 70.9775,-388.6921 64.0945,-387.4173"/>
</g>
<!-- Node204 -->
<g id="node19" class="node">
<title>Node204</title>
<g id="a_node19"><a xlink:href="classpkgCache_1_1Iterator.xhtml" target="_top" xlink:title="pkgCache::Iterator\l\&lt; Group, GrpIterator \&gt;">
<polygon fill="#ffffff" stroke="#000000" points="195.5,-.5 195.5,-30.5 323.5,-30.5 323.5,-.5 195.5,-.5"/>
<text text-anchor="start" x="203.5" y="-18.5" font-family="Helvetica,sans-Serif" font-size="10.00" fill="#000000">pkgCache::Iterator</text>
<text text-anchor="middle" x="259.5" y="-7.5" font-family="Helvetica,sans-Serif" font-size="10.00" fill="#000000">&lt; Group, GrpIterator &gt;</text>
</a>
</g>
</g>
<!-- Node197&#45;&gt;Node204 -->
<g id="edge18" class="edge">
<title>Node197&#45;&gt;Node204</title>
<path fill="none" stroke="#191970" d="M66.6956,-387.9101C76.5498,-319.0823 112.7409,-89.7881 164,-39.5 172.5423,-31.1195 183.5534,-25.5276 195.0444,-21.826"/>
<polygon fill="#191970" stroke="#191970" points="63.2239,-387.4645 65.2967,-397.8545 70.1557,-388.4396 63.2239,-387.4645"/>
</g>
<!-- Node206 -->
<g id="node21" class="node">
<title>Node206</title>
<g id="a_node21"><a xlink:href="classpkgCache_1_1Iterator.xhtml" target="_top" xlink:title="pkgCache::Iterator\l\&lt; Package, PkgIterator \&gt;">
<polygon fill="#ffffff" stroke="#000000" points="189.5,-490.5 189.5,-520.5 329.5,-520.5 329.5,-490.5 189.5,-490.5"/>
<text text-anchor="start" x="197.5" y="-508.5" font-family="Helvetica,sans-Serif" font-size="10.00" fill="#000000">pkgCache::Iterator</text>
<text text-anchor="middle" x="259.5" y="-497.5" font-family="Helvetica,sans-Serif" font-size="10.00" fill="#000000">&lt; Package, PkgIterator &gt;</text>
</a>
</g>
</g>
<!-- Node197&#45;&gt;Node206 -->
<g id="edge20" class="edge">
<title>Node197&#45;&gt;Node206</title>
<path fill="none" stroke="#191970" d="M81.7443,-424.0483C100.7165,-440.8767 132.3643,-466.5431 164,-481.5 171.9594,-485.2631 180.5813,-488.4834 189.277,-491.227"/>
<polygon fill="#191970" stroke="#191970" points="83.9599,-421.3331 74.1954,-417.2214 79.2646,-426.5248 83.9599,-421.3331"/>
</g>
<!-- Node208 -->
<g id="node23" class="node">
<title>Node208</title>
<g id="a_node23"><a xlink:href="classpkgCache_1_1Iterator.xhtml" target="_top" xlink:title="pkgCache::Iterator\l\&lt; PackageFile, PkgFileIterator \&gt;">
<polygon fill="#ffffff" stroke="#000000" points="173,-441.5 173,-471.5 346,-471.5 346,-441.5 173,-441.5"/>
<text text-anchor="start" x="181" y="-459.5" font-family="Helvetica,sans-Serif" font-size="10.00" fill="#000000">pkgCache::Iterator</text>
<text text-anchor="middle" x="259.5" y="-448.5" font-family="Helvetica,sans-Serif" font-size="10.00" fill="#000000">&lt; PackageFile, PkgFileIterator &gt;</text>
</a>
</g>
</g>
<!-- Node197&#45;&gt;Node208 -->
<g id="edge22" class="edge">
<title>Node197&#45;&gt;Node208</title>
<path fill="none" stroke="#191970" d="M100.8314,-416.7314C128.5576,-423.6807 167.1571,-433.3552 199.3421,-441.4221"/>
<polygon fill="#191970" stroke="#191970" points="101.3244,-413.2468 90.7735,-414.2105 99.6225,-420.0368 101.3244,-413.2468"/>
</g>
<!-- Node210 -->
<g id="node25" class="node">
<title>Node210</title>
<g id="a_node25"><a xlink:href="classpkgCache_1_1Iterator.xhtml" target="_top" xlink:title="pkgCache::Iterator\l\&lt; Provides, PrvIterator \&gt;">
<polygon fill="#ffffff" stroke="#000000" points="190,-392.5 190,-422.5 329,-422.5 329,-392.5 190,-392.5"/>
<text text-anchor="start" x="198" y="-410.5" font-family="Helvetica,sans-Serif" font-size="10.00" fill="#000000">pkgCache::Iterator</text>
<text text-anchor="middle" x="259.5" y="-399.5" font-family="Helvetica,sans-Serif" font-size="10.00" fill="#000000">&lt; Provides, PrvIterator &gt;</text>
</a>
</g>
</g>
<!-- Node197&#45;&gt;Node210 -->
<g id="edge24" class="edge">
<title>Node197&#45;&gt;Node210</title>
<path fill="none" stroke="#191970" d="M100.9169,-407.5C125.9311,-407.5 159.7668,-407.5 189.7598,-407.5"/>
<polygon fill="#191970" stroke="#191970" points="100.7736,-404.0001 90.7735,-407.5 100.7735,-411.0001 100.7736,-404.0001"/>
</g>
<!-- Node212 -->
<g id="node27" class="node">
<title>Node212</title>
<g id="a_node27"><a xlink:href="classpkgCache_1_1Iterator.xhtml" target="_top" xlink:title="pkgCache::Iterator\l\&lt; ReleaseFile, RlsFileIterator \&gt;">
<polygon fill="#ffffff" stroke="#000000" points="176,-343.5 176,-373.5 343,-373.5 343,-343.5 176,-343.5"/>
<text text-anchor="start" x="184" y="-361.5" font-family="Helvetica,sans-Serif" font-size="10.00" fill="#000000">pkgCache::Iterator</text>
<text text-anchor="middle" x="259.5" y="-350.5" font-family="Helvetica,sans-Serif" font-size="10.00" fill="#000000">&lt; ReleaseFile, RlsFileIterator &gt;</text>
</a>
</g>
</g>
<!-- Node197&#45;&gt;Node212 -->
<g id="edge26" class="edge">
<title>Node197&#45;&gt;Node212</title>
<path fill="none" stroke="#191970" d="M100.8314,-398.2686C128.5576,-391.3193 167.1571,-381.6448 199.3421,-373.5779"/>
<polygon fill="#191970" stroke="#191970" points="99.6225,-394.9632 90.7735,-400.7895 101.3244,-401.7532 99.6225,-394.9632"/>
</g>
<!-- Node214 -->
<g id="node29" class="node">
<title>Node214</title>
<g id="a_node29"><a xlink:href="classpkgCache_1_1Iterator.xhtml" target="_top" xlink:title="pkgCache::Iterator\l\&lt; VerFile, VerFileIterator \&gt;">
<polygon fill="#ffffff" stroke="#000000" points="186.5,-294.5 186.5,-324.5 332.5,-324.5 332.5,-294.5 186.5,-294.5"/>
<text text-anchor="start" x="194.5" y="-312.5" font-family="Helvetica,sans-Serif" font-size="10.00" fill="#000000">pkgCache::Iterator</text>
<text text-anchor="middle" x="259.5" y="-301.5" font-family="Helvetica,sans-Serif" font-size="10.00" fill="#000000">&lt; VerFile, VerFileIterator &gt;</text>
</a>
</g>
</g>
<!-- Node197&#45;&gt;Node214 -->
<g id="edge28" class="edge">
<title>Node197&#45;&gt;Node214</title>
<path fill="none" stroke="#191970" d="M81.8152,-391.2494C100.8454,-374.7089 132.5397,-349.4382 164,-334.5 172.0506,-330.6774 180.7709,-327.3762 189.5568,-324.5423"/>
<polygon fill="#191970" stroke="#191970" points="79.4067,-388.7072 74.2406,-397.9572 84.0475,-393.9477 79.4067,-388.7072"/>
</g>
<!-- Node216 -->
<g id="node31" class="node">
<title>Node216</title>
<g id="a_node31"><a xlink:href="classpkgCache_1_1Iterator.xhtml" target="_top" xlink:title="pkgCache::Iterator\l\&lt; Version, VerIterator \&gt;">
<polygon fill="#ffffff" stroke="#000000" points="193,-245.5 193,-275.5 326,-275.5 326,-245.5 193,-245.5"/>
<text text-anchor="start" x="201" y="-263.5" font-family="Helvetica,sans-Serif" font-size="10.00" fill="#000000">pkgCache::Iterator</text>
<text text-anchor="middle" x="259.5" y="-252.5" font-family="Helvetica,sans-Serif" font-size="10.00" fill="#000000">&lt; Version, VerIterator &gt;</text>
</a>
</g>
</g>
<!-- Node197&#45;&gt;Node216 -->
<g id="edge30" class="edge">
<title>Node197&#45;&gt;Node216</title>
<path fill="none" stroke="#191970" d="M74.0275,-389.0196C89.633,-362.051 122.3169,-312.2237 164,-285.5 172.7289,-279.9037 182.6659,-275.5563 192.7523,-272.18"/>
<polygon fill="#191970" stroke="#191970" points="70.9201,-387.4047 69.0657,-397.836 77.0204,-390.8379 70.9201,-387.4047"/>
</g>
<!-- Node218 -->
<g id="node33" class="node">
<title>Node218</title>
<g id="a_node33"><a xlink:href="classpkgCache_1_1Iterator.xhtml" target="_top" xlink:title="pkgCache::Iterator\l\&lt; Str, Itr \&gt;">
<polygon fill="#ffffff" stroke="#000000" points="206,-196.5 206,-226.5 313,-226.5 313,-196.5 206,-196.5"/>
<text text-anchor="start" x="214" y="-214.5" font-family="Helvetica,sans-Serif" font-size="10.00" fill="#000000">pkgCache::Iterator</text>
<text text-anchor="middle" x="259.5" y="-203.5" font-family="Helvetica,sans-Serif" font-size="10.00" fill="#000000">&lt; Str, Itr &gt;</text>
</a>
</g>
</g>
<!-- Node197&#45;&gt;Node218 -->
<g id="edge32" class="edge">
<title>Node197&#45;&gt;Node218</title>
<path fill="none" stroke="#191970" d="M69.6672,-388.1728C81.2173,-352.2905 110.9775,-275.4069 164,-235.5 176.0199,-226.4533 191.0608,-220.7903 205.6254,-217.2537"/>
<polygon fill="#191970" stroke="#191970" points="66.268,-387.3185 66.6617,-397.906 72.9564,-389.3838 66.268,-387.3185"/>
</g>
<!-- Node1 -->
<g id="node4" class="node">
<title>Node1</title>
<g id="a_node4"><a xlink:href="classAPT_1_1PackageUniverse_1_1const__iterator.xhtml" target="_top" xlink:title="PackageUniverse::const\l_iterator">
<polygon fill="#ffffff" stroke="#000000" points="398,-561.5 398,-591.5 531,-591.5 531,-561.5 398,-561.5"/>
<text text-anchor="start" x="406" y="-579.5" font-family="Helvetica,sans-Serif" font-size="10.00" fill="#000000">PackageUniverse::const</text>
<text text-anchor="middle" x="464.5" y="-568.5" font-family="Helvetica,sans-Serif" font-size="10.00" fill="#000000">_iterator</text>
</a>
</g>
</g>
<!-- Node0&#45;&gt;Node1 -->
<g id="edge3" class="edge">
<title>Node0&#45;&gt;Node1</title>
<path fill="none" stroke="#191970" d="M360.7275,-576.5C373.3686,-576.5 386.0355,-576.5 397.959,-576.5"/>
<polygon fill="#191970" stroke="#191970" points="360.6099,-573.0001 350.6098,-576.5 360.6098,-580.0001 360.6099,-573.0001"/>
</g>
<!-- Node50 -->
<g id="node6" class="node">
<title>Node50</title>
<g id="a_node6"><a xlink:href="classAPT_1_1Container__const__iterator.xhtml" target="_top" xlink:title="Container_const_iterator\l\&lt; Interface, Container,\l Master \&gt;">
<polygon fill="#ffffff" stroke="#000000" points="396,-989 396,-1030 533,-1030 533,-989 396,-989"/>
<text text-anchor="start" x="404" y="-1018" font-family="Helvetica,sans-Serif" font-size="10.00" fill="#000000">Container_const_iterator</text>
<text text-anchor="start" x="404" y="-1007" font-family="Helvetica,sans-Serif" font-size="10.00" fill="#000000">&lt; Interface, Container,</text>
<text text-anchor="middle" x="464.5" y="-996" font-family="Helvetica,sans-Serif" font-size="10.00" fill="#000000"> Master &gt;</text>
</a>
</g>
</g>
<!-- Node49&#45;&gt;Node50 -->
<g id="edge5" class="edge">
<title>Node49&#45;&gt;Node50</title>
<path fill="none" stroke="#191970" d="M351.8639,-1009.5C366.6323,-1009.5 381.6842,-1009.5 395.7769,-1009.5"/>
<polygon fill="#191970" stroke="#191970" points="351.7002,-1006.0001 341.7001,-1009.5 351.7001,-1013.0001 351.7002,-1006.0001"/>
</g>
<!-- Node52 -->
<g id="node8" class="node">
<title>Node52</title>
<g id="a_node8"><a xlink:href="classAPT_1_1Container__const__reverse__iterator.xhtml" target="_top" xlink:title="Container_const_reverse\l_iterator\&lt; Interface,\l Container, Master \&gt;">
<polygon fill="#ffffff" stroke="#000000" points="396,-896 396,-937 533,-937 533,-896 396,-896"/>
<text text-anchor="start" x="404" y="-925" font-family="Helvetica,sans-Serif" font-size="10.00" fill="#000000">Container_const_reverse</text>
<text text-anchor="start" x="404" y="-914" font-family="Helvetica,sans-Serif" font-size="10.00" fill="#000000">_iterator&lt; Interface,</text>
<text text-anchor="middle" x="464.5" y="-903" font-family="Helvetica,sans-Serif" font-size="10.00" fill="#000000"> Container, Master &gt;</text>
</a>
</g>
</g>
<!-- Node51&#45;&gt;Node52 -->
<g id="edge7" class="edge">
<title>Node51&#45;&gt;Node52</title>
<path fill="none" stroke="#191970" d="M365.1241,-916.5C375.5824,-916.5 385.9974,-916.5 395.9329,-916.5"/>
<polygon fill="#191970" stroke="#191970" points="365.0979,-913.0001 355.0979,-916.5 365.0979,-920.0001 365.0979,-913.0001"/>
</g>
<!-- Node54 -->
<g id="node10" class="node">
<title>Node54</title>
<g id="a_node10"><a xlink:href="classAPT_1_1Container__iterator.xhtml" target="_top" xlink:title="Container_iterator\l\&lt; Interface, Container,\l Master \&gt;">
<polygon fill="#ffffff" stroke="#000000" points="400.5,-737 400.5,-778 528.5,-778 528.5,-737 400.5,-737"/>
<text text-anchor="start" x="408.5" y="-766" font-family="Helvetica,sans-Serif" font-size="10.00" fill="#000000">Container_iterator</text>
<text text-anchor="start" x="408.5" y="-755" font-family="Helvetica,sans-Serif" font-size="10.00" fill="#000000">&lt; Interface, Container,</text>
<text text-anchor="middle" x="464.5" y="-744" font-family="Helvetica,sans-Serif" font-size="10.00" fill="#000000"> Master &gt;</text>
</a>
</g>
</g>
<!-- Node53&#45;&gt;Node54 -->
<g id="edge9" class="edge">
<title>Node53&#45;&gt;Node54</title>
<path fill="none" stroke="#191970" d="M361.3741,-757.5C374.6921,-757.5 388.0243,-757.5 400.4712,-757.5"/>
<polygon fill="#191970" stroke="#191970" points="361.2073,-754.0001 351.2073,-757.5 361.2072,-761.0001 361.2073,-754.0001"/>
</g>
<!-- Node56 -->
<g id="node12" class="node">
<title>Node56</title>
<g id="a_node12"><a xlink:href="classAPT_1_1Container__reverse__iterator.xhtml" target="_top" xlink:title="Container_reverse_iterator\l\&lt; Interface, Container,\l Master \&gt;">
<polygon fill="#ffffff" stroke="#000000" points="391,-649 391,-690 538,-690 538,-649 391,-649"/>
<text text-anchor="start" x="399" y="-678" font-family="Helvetica,sans-Serif" font-size="10.00" fill="#000000">Container_reverse_iterator</text>
<text text-anchor="start" x="399" y="-667" font-family="Helvetica,sans-Serif" font-size="10.00" fill="#000000">&lt; Interface, Container,</text>
<text text-anchor="middle" x="464.5" y="-656" font-family="Helvetica,sans-Serif" font-size="10.00" fill="#000000"> Master &gt;</text>
</a>
</g>
</g>
<!-- Node55&#45;&gt;Node56 -->
<g id="edge11" class="edge">
<title>Node55&#45;&gt;Node56</title>
<path fill="none" stroke="#191970" d="M354.0549,-669.5C366.3619,-669.5 378.8227,-669.5 390.7217,-669.5"/>
<polygon fill="#191970" stroke="#191970" points="353.7688,-666.0001 343.7688,-669.5 353.7688,-673.0001 353.7688,-666.0001"/>
</g>
<!-- Node199 -->
<g id="node14" class="node">
<title>Node199</title>
<g id="a_node14"><a xlink:href="classpkgCache_1_1DepIterator.xhtml" target="_top" xlink:title="pkgCache::DepIterator">
<polygon fill="#ffffff" stroke="#000000" points="401.5,-153 401.5,-172 527.5,-172 527.5,-153 401.5,-153"/>
<text text-anchor="middle" x="464.5" y="-160" font-family="Helvetica,sans-Serif" font-size="10.00" fill="#000000">pkgCache::DepIterator</text>
</a>
</g>
</g>
<!-- Node198&#45;&gt;Node199 -->
<g id="edge13" class="edge">
<title>Node198&#45;&gt;Node199</title>
<path fill="none" stroke="#191970" d="M350.2901,-162.5C367.4939,-162.5 385.1437,-162.5 401.2664,-162.5"/>
<polygon fill="#191970" stroke="#191970" points="350.2272,-159.0001 340.2272,-162.5 350.2271,-166.0001 350.2272,-159.0001"/>
</g>
<!-- Node201 -->
<g id="node16" class="node">
<title>Node201</title>
<g id="a_node16"><a xlink:href="classpkgCache_1_1DescFileIterator.xhtml" target="_top" xlink:title="pkgCache::DescFileIterator">
<polygon fill="#ffffff" stroke="#000000" points="391,-104 391,-123 538,-123 538,-104 391,-104"/>
<text text-anchor="middle" x="464.5" y="-111" font-family="Helvetica,sans-Serif" font-size="10.00" fill="#000000">pkgCache::DescFileIterator</text>
</a>
</g>
</g>
<!-- Node200&#45;&gt;Node201 -->
<g id="edge15" class="edge">
<title>Node200&#45;&gt;Node201</title>
<path fill="none" stroke="#191970" d="M350.6964,-113.5C364.0888,-113.5 377.7417,-113.5 390.7256,-113.5"/>
<polygon fill="#191970" stroke="#191970" points="350.5215,-110.0001 340.5214,-113.5 350.5214,-117.0001 350.5215,-110.0001"/>
</g>
<!-- Node203 -->
<g id="node18" class="node">
<title>Node203</title>
<g id="a_node18"><a xlink:href="classpkgCache_1_1DescIterator.xhtml" target="_top" xlink:title="pkgCache::DescIterator">
<polygon fill="#ffffff" stroke="#000000" points="399,-55 399,-74 530,-74 530,-55 399,-55"/>
<text text-anchor="middle" x="464.5" y="-62" font-family="Helvetica,sans-Serif" font-size="10.00" fill="#000000">pkgCache::DescIterator</text>
</a>
</g>
</g>
<!-- Node202&#45;&gt;Node203 -->
<g id="edge17" class="edge">
<title>Node202&#45;&gt;Node203</title>
<path fill="none" stroke="#191970" d="M350.3034,-64.5C366.5934,-64.5 383.2827,-64.5 398.6965,-64.5"/>
<polygon fill="#191970" stroke="#191970" points="350.2272,-61.0001 340.2272,-64.5 350.2271,-68.0001 350.2272,-61.0001"/>
</g>
<!-- Node205 -->
<g id="node20" class="node">
<title>Node205</title>
<g id="a_node20"><a xlink:href="classpkgCache_1_1GrpIterator.xhtml" target="_top" xlink:title="pkgCache::GrpIterator">
<polygon fill="#ffffff" stroke="#000000" points="402.5,-6 402.5,-25 526.5,-25 526.5,-6 402.5,-6"/>
<text text-anchor="middle" x="464.5" y="-13" font-family="Helvetica,sans-Serif" font-size="10.00" fill="#000000">pkgCache::GrpIterator</text>
</a>
</g>
</g>
<!-- Node204&#45;&gt;Node205 -->
<g id="edge19" class="edge">
<title>Node204&#45;&gt;Node205</title>
<path fill="none" stroke="#191970" d="M333.7108,-15.5C356.2312,-15.5 380.7283,-15.5 402.3684,-15.5"/>
<polygon fill="#191970" stroke="#191970" points="333.5201,-12.0001 323.52,-15.5 333.52,-19.0001 333.5201,-12.0001"/>
</g>
<!-- Node207 -->
<g id="node22" class="node">
<title>Node207</title>
<g id="a_node22"><a xlink:href="classpkgCache_1_1PkgIterator.xhtml" target="_top" xlink:title="pkgCache::PkgIterator">
<polygon fill="#ffffff" stroke="#000000" points="402,-496 402,-515 527,-515 527,-496 402,-496"/>
<text text-anchor="middle" x="464.5" y="-503" font-family="Helvetica,sans-Serif" font-size="10.00" fill="#000000">pkgCache::PkgIterator</text>
</a>
</g>
</g>
<!-- Node206&#45;&gt;Node207 -->
<g id="edge21" class="edge">
<title>Node206&#45;&gt;Node207</title>
<path fill="none" stroke="#191970" d="M339.7724,-505.5C360.4013,-505.5 382.2919,-505.5 401.8804,-505.5"/>
<polygon fill="#191970" stroke="#191970" points="339.7626,-502.0001 329.7626,-505.5 339.7625,-509.0001 339.7626,-502.0001"/>
</g>
<!-- Node209 -->
<g id="node24" class="node">
<title>Node209</title>
<g id="a_node24"><a xlink:href="classpkgCache_1_1PkgFileIterator.xhtml" target="_top" xlink:title="pkgCache::PkgFileIterator">
<polygon fill="#ffffff" stroke="#000000" points="394,-447 394,-466 535,-466 535,-447 394,-447"/>
<text text-anchor="middle" x="464.5" y="-454" font-family="Helvetica,sans-Serif" font-size="10.00" fill="#000000">pkgCache::PkgFileIterator</text>
</a>
</g>
</g>
<!-- Node208&#45;&gt;Node209 -->
<g id="edge23" class="edge">
<title>Node208&#45;&gt;Node209</title>
<path fill="none" stroke="#191970" d="M356.2925,-456.5C369.0002,-456.5 381.8253,-456.5 393.9831,-456.5"/>
<polygon fill="#191970" stroke="#191970" points="356.1414,-453.0001 346.1413,-456.5 356.1413,-460.0001 356.1414,-453.0001"/>
</g>
<!-- Node211 -->
<g id="node26" class="node">
<title>Node211</title>
<g id="a_node26"><a xlink:href="classpkgCache_1_1PrvIterator.xhtml" target="_top" xlink:title="pkgCache::PrvIterator">
<polygon fill="#ffffff" stroke="#000000" points="403.5,-398 403.5,-417 525.5,-417 525.5,-398 403.5,-398"/>
<text text-anchor="middle" x="464.5" y="-405" font-family="Helvetica,sans-Serif" font-size="10.00" fill="#000000">pkgCache::PrvIterator</text>
</a>
</g>
</g>
<!-- Node210&#45;&gt;Node211 -->
<g id="edge25" class="edge">
<title>Node210&#45;&gt;Node211</title>
<path fill="none" stroke="#191970" d="M339.4688,-407.5C360.6634,-407.5 383.2103,-407.5 403.2368,-407.5"/>
<polygon fill="#191970" stroke="#191970" points="339.1897,-404.0001 329.1897,-407.5 339.1897,-411.0001 339.1897,-404.0001"/>
</g>
<!-- Node213 -->
<g id="node28" class="node">
<title>Node213</title>
<g id="a_node28"><a xlink:href="classpkgCache_1_1RlsFileIterator.xhtml" target="_top" xlink:title="pkgCache::RlsFileIterator">
<polygon fill="#ffffff" stroke="#000000" points="395.5,-349 395.5,-368 533.5,-368 533.5,-349 395.5,-349"/>
<text text-anchor="middle" x="464.5" y="-356" font-family="Helvetica,sans-Serif" font-size="10.00" fill="#000000">pkgCache::RlsFileIterator</text>
</a>
</g>
</g>
<!-- Node212&#45;&gt;Node213 -->
<g id="edge27" class="edge">
<title>Node212&#45;&gt;Node213</title>
<path fill="none" stroke="#191970" d="M353.4317,-358.5C367.5895,-358.5 381.9668,-358.5 395.4731,-358.5"/>
<polygon fill="#191970" stroke="#191970" points="353.1771,-355.0001 343.177,-358.5 353.177,-362.0001 353.1771,-355.0001"/>
</g>
<!-- Node215 -->
<g id="node30" class="node">
<title>Node215</title>
<g id="a_node30"><a xlink:href="classpkgCache_1_1VerFileIterator.xhtml" target="_top" xlink:title="pkgCache::VerFileIterator">
<polygon fill="#ffffff" stroke="#000000" points="395,-300 395,-319 534,-319 534,-300 395,-300"/>
<text text-anchor="middle" x="464.5" y="-307" font-family="Helvetica,sans-Serif" font-size="10.00" fill="#000000">pkgCache::VerFileIterator</text>
</a>
</g>
</g>
<!-- Node214&#45;&gt;Node215 -->
<g id="edge29" class="edge">
<title>Node214&#45;&gt;Node215</title>
<path fill="none" stroke="#191970" d="M342.7212,-309.5C360.0164,-309.5 378.0713,-309.5 394.8192,-309.5"/>
<polygon fill="#191970" stroke="#191970" points="342.6415,-306.0001 332.6415,-309.5 342.6415,-313.0001 342.6415,-306.0001"/>
</g>
<!-- Node217 -->
<g id="node32" class="node">
<title>Node217</title>
<g id="a_node32"><a xlink:href="classpkgCache_1_1VerIterator.xhtml" target="_top" xlink:title="pkgCache::VerIterator">
<polygon fill="#ffffff" stroke="#000000" points="403.5,-251 403.5,-270 525.5,-270 525.5,-251 403.5,-251"/>
<text text-anchor="middle" x="464.5" y="-258" font-family="Helvetica,sans-Serif" font-size="10.00" fill="#000000">pkgCache::VerIterator</text>
</a>
</g>
</g>
<!-- Node216&#45;&gt;Node217 -->
<g id="edge31" class="edge">
<title>Node216&#45;&gt;Node217</title>
<path fill="none" stroke="#191970" d="M336.1347,-260.5C358.3688,-260.5 382.3403,-260.5 403.4801,-260.5"/>
<polygon fill="#191970" stroke="#191970" points="336.0577,-257.0001 326.0576,-260.5 336.0576,-264.0001 336.0577,-257.0001"/>
</g>
<!-- Node47 -->
<g id="node34" class="node">
<title>Node47</title>
<polygon fill="#ffffff" stroke="#bfbfbf" points="0,-825 0,-844 128,-844 128,-825 0,-825"/>
<text text-anchor="middle" x="64" y="-832" font-family="Helvetica,sans-Serif" font-size="10.00" fill="#000000">template iterator_base</text>
</g>
<!-- Node47&#45;&gt;Node48 -->
<g id="edge33" class="edge">
<title>Node47&#45;&gt;Node48</title>
<path fill="none" stroke="#191970" d="M138.4263,-834.5C152.9295,-834.5 168.1602,-834.5 182.7374,-834.5"/>
<polygon fill="#191970" stroke="#191970" points="138.014,-831.0001 128.014,-834.5 138.014,-838.0001 138.014,-831.0001"/>
</g>
<!-- Node47&#45;&gt;Node49 -->
<g id="edge34" class="edge">
<title>Node47&#45;&gt;Node49</title>
<path fill="none" stroke="#191970" d="M74.5065,-853.015C90.72,-880.2288 124.1671,-931.2806 164,-963.5 168.1494,-966.8563 172.5842,-970.0425 177.1865,-973.054"/>
<polygon fill="#191970" stroke="#191970" points="77.395,-851.0204 69.3329,-844.1464 71.3486,-854.5477 77.395,-851.0204"/>
</g>
<!-- Node47&#45;&gt;Node51 -->
<g id="edge35" class="edge">
<title>Node47&#45;&gt;Node51</title>
<path fill="none" stroke="#191970" d="M96.2444,-848.0245C116.6958,-856.6026 144.2344,-868.1533 170.8631,-879.3224"/>
<polygon fill="#191970" stroke="#191970" points="97.3844,-844.7073 86.8089,-844.0669 94.6768,-851.1625 97.3844,-844.7073"/>
</g>
<!-- Node47&#45;&gt;Node53 -->
<g id="edge36" class="edge">
<title>Node47&#45;&gt;Node53</title>
<path fill="none" stroke="#191970" d="M97.7865,-821.1928C120.2741,-812.3358 150.8127,-800.3078 179.2962,-789.0892"/>
<polygon fill="#191970" stroke="#191970" points="96.3866,-817.9824 88.3649,-824.9036 98.9519,-824.4954 96.3866,-817.9824"/>
</g>
<!-- Node47&#45;&gt;Node55 -->
<g id="edge37" class="edge">
<title>Node47&#45;&gt;Node55</title>
<path fill="none" stroke="#191970" d="M75.8864,-816.223C92.9376,-791.1298 126.4537,-745.7943 164,-716.5 168.3708,-713.0899 173.0286,-709.8335 177.8462,-706.7418"/>
<polygon fill="#191970" stroke="#191970" points="72.8205,-814.512 70.1834,-824.7735 78.644,-818.3962 72.8205,-814.512"/>
</g>
<!-- Node44 -->
<g id="node35" class="node">
<title>Node44</title>
<polygon fill="#ffffff" stroke="#bfbfbf" points="0,-567 0,-586 128,-586 128,-567 0,-567"/>
<text text-anchor="middle" x="64" y="-574" font-family="Helvetica,sans-Serif" font-size="10.00" fill="#000000">template iterator_base</text>
</g>
<!-- Node44&#45;&gt;Node0 -->
<g id="edge38" class="edge">
<title>Node44&#45;&gt;Node0</title>
<path fill="none" stroke="#191970" d="M138.1654,-576.5C148.0428,-576.5 158.262,-576.5 168.3858,-576.5"/>
<polygon fill="#191970" stroke="#191970" points="138.014,-573.0001 128.014,-576.5 138.014,-580.0001 138.014,-573.0001"/>
</g>
</g>
</svg>
