<?xml version="1.0" encoding="UTF-8" standalone="no"?>
<!DOCTYPE svg PUBLIC "-//W3C//DTD SVG 1.1//EN"
 "http://www.w3.org/Graphics/SVG/1.1/DTD/svg11.dtd">
<!-- Generated by graphviz version 2.40.1 (20161225.0304)
 -->
<!-- Title: pkgPolicy::PkgPin Pages: 1 -->
<svg width="127pt" height="209pt"
 viewBox="0.00 0.00 127.00 209.00" xmlns="http://www.w3.org/2000/svg" xmlns:xlink="http://www.w3.org/1999/xlink">
<g id="graph0" class="graph" transform="scale(1 1) rotate(0) translate(4 205)">
<title>pkgPolicy::PkgPin</title>
<polygon fill="#ffffff" stroke="transparent" points="-4,4 -4,-205 123,-205 123,4 -4,4"/>
<!-- Node2 -->
<g id="node1" class="node">
<title>Node2</title>
<polygon fill="#bfbfbf" stroke="#000000" points="4.5,-.5 4.5,-19.5 106.5,-19.5 106.5,-.5 4.5,-.5"/>
<text text-anchor="middle" x="55.5" y="-7.5" font-family="Helvetica,sans-Serif" font-size="10.00" fill="#000000">pkgPolicy::PkgPin</text>
</g>
<!-- Node3 -->
<g id="node2" class="node">
<title>Node3</title>
<g id="a_node2"><a xlink:href="structpkgPolicy_1_1Pin.xhtml" target="_top" xlink:title="Pin">
<polygon fill="#ffffff" stroke="#000000" points="83.5,-57.5 83.5,-76.5 115.5,-76.5 115.5,-57.5 83.5,-57.5"/>
<text text-anchor="middle" x="99.5" y="-64.5" font-family="Helvetica,sans-Serif" font-size="10.00" fill="#000000">Pin</text>
</a>
</g>
</g>
<!-- Node3&#45;&gt;Node2 -->
<g id="edge1" class="edge">
<title>Node3&#45;&gt;Node2</title>
<path fill="none" stroke="#191970" d="M85.8755,-49.3501C78.2788,-39.5089 69.1158,-27.6387 62.8538,-19.5265"/>
<polygon fill="#191970" stroke="#191970" points="83.1549,-51.5535 92.036,-57.3307 88.696,-47.2761 83.1549,-51.5535"/>
</g>
<!-- Node4 -->
<g id="node3" class="node">
<title>Node4</title>
<g id="a_node3"><a xlink:title="STL class. ">
<polygon fill="#ffffff" stroke="#bfbfbf" points="37.5,-124.5 37.5,-143.5 81.5,-143.5 81.5,-124.5 37.5,-124.5"/>
<text text-anchor="middle" x="59.5" y="-131.5" font-family="Helvetica,sans-Serif" font-size="10.00" fill="#000000">string</text>
</a>
</g>
</g>
<!-- Node4&#45;&gt;Node2 -->
<g id="edge4" class="edge">
<title>Node4&#45;&gt;Node2</title>
<path fill="none" stroke="#9a32cd" stroke-dasharray="5,2" d="M56.4633,-114.1881C54.9393,-103.2515 53.2591,-89.4084 52.5,-77 51.9572,-68.1277 52.2167,-65.8844 52.5,-57 52.9117,-44.088 53.9579,-29.211 54.6987,-19.713"/>
<polygon fill="#9a32cd" stroke="#9a32cd" points="53.0393,-114.963 57.9498,-124.3511 59.9656,-113.9498 53.0393,-114.963"/>
<text text-anchor="middle" x="63.5" y="-64.5" font-family="Helvetica,sans-Serif" font-size="10.00" fill="#000000"> Pkg</text>
</g>
<!-- Node4&#45;&gt;Node3 -->
<g id="edge2" class="edge">
<title>Node4&#45;&gt;Node3</title>
<path fill="none" stroke="#9a32cd" stroke-dasharray="5,2" d="M70.4792,-115.6099C78.0197,-102.9795 87.7244,-86.7241 93.7796,-76.5817"/>
<polygon fill="#9a32cd" stroke="#9a32cd" points="67.352,-114.0202 65.231,-124.4005 73.3624,-117.6085 67.352,-114.0202"/>
<text text-anchor="middle" x="95" y="-98" font-family="Helvetica,sans-Serif" font-size="10.00" fill="#000000"> Data</text>
</g>
<!-- Node5 -->
<g id="node4" class="node">
<title>Node5</title>
<g id="a_node4"><a xlink:title="STL class. ">
<polygon fill="#ffffff" stroke="#bfbfbf" points="0,-181.5 0,-200.5 119,-200.5 119,-181.5 0,-181.5"/>
<text text-anchor="middle" x="59.5" y="-188.5" font-family="Helvetica,sans-Serif" font-size="10.00" fill="#000000">basic_string&lt; char &gt;</text>
</a>
</g>
</g>
<!-- Node5&#45;&gt;Node4 -->
<g id="edge3" class="edge">
<title>Node5&#45;&gt;Node4</title>
<path fill="none" stroke="#191970" d="M59.5,-171.2342C59.5,-161.8491 59.5,-151.0651 59.5,-143.5265"/>
<polygon fill="#191970" stroke="#191970" points="56.0001,-171.3307 59.5,-181.3307 63.0001,-171.3308 56.0001,-171.3307"/>
</g>
</g>
</svg>
