<?xml version="1.0" encoding="UTF-8" standalone="no"?>
<!DOCTYPE svg PUBLIC "-//W3C//DTD SVG 1.1//EN"
 "http://www.w3.org/Graphics/SVG/1.1/DTD/svg11.dtd">
<!-- Generated by graphviz version 2.40.1 (20161225.0304)
 -->
<!-- Title: debReleaseIndexPrivate::debSectionEntry Pages: 1 -->
<svg width="261pt" height="265pt"
 viewBox="0.00 0.00 260.50 265.00" xmlns="http://www.w3.org/2000/svg" xmlns:xlink="http://www.w3.org/1999/xlink">
<g id="graph0" class="graph" transform="scale(1 1) rotate(0) translate(4 261)">
<title>debReleaseIndexPrivate::debSectionEntry</title>
<polygon fill="#ffffff" stroke="transparent" points="-4,4 -4,-261 256.5,-261 256.5,4 -4,4"/>
<!-- Node1 -->
<g id="node1" class="node">
<title>Node1</title>
<polygon fill="#bfbfbf" stroke="#000000" points="0,-.5 0,-30.5 134,-30.5 134,-.5 0,-.5"/>
<text text-anchor="start" x="8" y="-18.5" font-family="Helvetica,sans-Serif" font-size="10.00" fill="#000000">debReleaseIndexPrivate</text>
<text text-anchor="middle" x="67" y="-7.5" font-family="Helvetica,sans-Serif" font-size="10.00" fill="#000000">::debSectionEntry</text>
</g>
<!-- Node2 -->
<g id="node2" class="node">
<title>Node2</title>
<g id="a_node2"><a xlink:title="STL class. ">
<polygon fill="#ffffff" stroke="#bfbfbf" points="45,-180.5 45,-199.5 89,-199.5 89,-180.5 45,-180.5"/>
<text text-anchor="middle" x="67" y="-187.5" font-family="Helvetica,sans-Serif" font-size="10.00" fill="#000000">string</text>
</a>
</g>
</g>
<!-- Node2&#45;&gt;Node1 -->
<g id="edge1" class="edge">
<title>Node2&#45;&gt;Node1</title>
<path fill="none" stroke="#9a32cd" stroke-dasharray="5,2" d="M64.3969,-170.1736C63.0905,-159.2326 61.6503,-145.39 61,-133 59.0729,-96.2839 62.8221,-53.1096 65.218,-30.7108"/>
<polygon fill="#9a32cd" stroke="#9a32cd" points="60.9548,-170.8551 65.6711,-180.3423 67.9005,-169.9847 60.9548,-170.8551"/>
<text text-anchor="middle" x="93" y="-125" font-family="Helvetica,sans-Serif" font-size="10.00" fill="#000000"> Name</text>
<text text-anchor="middle" x="93" y="-114" font-family="Helvetica,sans-Serif" font-size="10.00" fill="#000000">UseByHash</text>
<text text-anchor="middle" x="93" y="-103" font-family="Helvetica,sans-Serif" font-size="10.00" fill="#000000">sourcesEntry</text>
</g>
<!-- Node4 -->
<g id="node4" class="node">
<title>Node4</title>
<polygon fill="#ffffff" stroke="#bfbfbf" points="133.5,-107 133.5,-126 252.5,-126 252.5,-107 133.5,-107"/>
<text text-anchor="middle" x="193" y="-114" font-family="Helvetica,sans-Serif" font-size="10.00" fill="#000000">vector&lt; std::string &gt;</text>
</g>
<!-- Node2&#45;&gt;Node4 -->
<g id="edge4" class="edge">
<title>Node2&#45;&gt;Node4</title>
<path fill="none" stroke="#9a32cd" stroke-dasharray="5,2" d="M92.4121,-175.1762C117.4952,-160.5445 155.1093,-138.6029 176.5237,-126.1112"/>
<polygon fill="#9a32cd" stroke="#9a32cd" points="90.3465,-172.3292 83.4723,-180.3912 93.8737,-178.3756 90.3465,-172.3292"/>
<text text-anchor="middle" x="157.5" y="-154" font-family="Helvetica,sans-Serif" font-size="10.00" fill="#000000"> elements</text>
</g>
<!-- Node3 -->
<g id="node3" class="node">
<title>Node3</title>
<g id="a_node3"><a xlink:title="STL class. ">
<polygon fill="#ffffff" stroke="#bfbfbf" points="7.5,-237.5 7.5,-256.5 126.5,-256.5 126.5,-237.5 7.5,-237.5"/>
<text text-anchor="middle" x="67" y="-244.5" font-family="Helvetica,sans-Serif" font-size="10.00" fill="#000000">basic_string&lt; char &gt;</text>
</a>
</g>
</g>
<!-- Node3&#45;&gt;Node2 -->
<g id="edge2" class="edge">
<title>Node3&#45;&gt;Node2</title>
<path fill="none" stroke="#191970" d="M67,-227.2342C67,-217.8491 67,-207.0651 67,-199.5265"/>
<polygon fill="#191970" stroke="#191970" points="63.5001,-227.3307 67,-237.3307 70.5001,-227.3308 63.5001,-227.3307"/>
</g>
<!-- Node4&#45;&gt;Node1 -->
<g id="edge3" class="edge">
<title>Node4&#45;&gt;Node1</title>
<path fill="none" stroke="#9a32cd" stroke-dasharray="5,2" d="M172.8505,-100.3484C148.8535,-81.1127 109.0896,-49.2385 85.7338,-30.5168"/>
<polygon fill="#9a32cd" stroke="#9a32cd" points="170.9268,-103.2921 180.9186,-106.8157 175.305,-97.8302 170.9268,-103.2921"/>
<text text-anchor="middle" x="182" y="-74" font-family="Helvetica,sans-Serif" font-size="10.00" fill="#000000"> Architectures</text>
<text text-anchor="middle" x="182" y="-63" font-family="Helvetica,sans-Serif" font-size="10.00" fill="#000000">Languages</text>
<text text-anchor="middle" x="182" y="-52" font-family="Helvetica,sans-Serif" font-size="10.00" fill="#000000">Targets</text>
</g>
</g>
</svg>
