<?xml version="1.0" encoding="UTF-8" standalone="no"?>
<!DOCTYPE svg PUBLIC "-//W3C//DTD SVG 1.1//EN"
 "http://www.w3.org/Graphics/SVG/1.1/DTD/svg11.dtd">
<!-- Generated by graphviz version 2.40.1 (20161225.0304)
 -->
<!-- Title: pkgAcqMethod::FetchItem::Private Pages: 1 -->
<svg width="151pt" height="163pt"
 viewBox="0.00 0.00 151.00 163.00" xmlns="http://www.w3.org/2000/svg" xmlns:xlink="http://www.w3.org/1999/xlink">
<g id="graph0" class="graph" transform="scale(1 1) rotate(0) translate(4 159)">
<title>pkgAcqMethod::FetchItem::Private</title>
<polygon fill="#ffffff" stroke="transparent" points="-4,4 -4,-159 147,-159 147,4 -4,4"/>
<!-- Node1 -->
<g id="node1" class="node">
<title>Node1</title>
<polygon fill="#bfbfbf" stroke="#000000" points="0,-.5 0,-30.5 143,-30.5 143,-.5 0,-.5"/>
<text text-anchor="start" x="8" y="-18.5" font-family="Helvetica,sans-Serif" font-size="10.00" fill="#000000">pkgAcqMethod::FetchItem</text>
<text text-anchor="middle" x="71.5" y="-7.5" font-family="Helvetica,sans-Serif" font-size="10.00" fill="#000000">::Private</text>
</g>
<!-- Node2 -->
<g id="node2" class="node">
<title>Node2</title>
<g id="a_node2"><a xlink:title="STL class. ">
<polygon fill="#ffffff" stroke="#bfbfbf" points="49.5,-78.5 49.5,-97.5 93.5,-97.5 93.5,-78.5 49.5,-78.5"/>
<text text-anchor="middle" x="71.5" y="-85.5" font-family="Helvetica,sans-Serif" font-size="10.00" fill="#000000">string</text>
</a>
</g>
</g>
<!-- Node2&#45;&gt;Node1 -->
<g id="edge1" class="edge">
<title>Node2&#45;&gt;Node1</title>
<path fill="none" stroke="#9a32cd" stroke-dasharray="5,2" d="M71.5,-68.0177C71.5,-56.2164 71.5,-41.513 71.5,-30.668"/>
<polygon fill="#9a32cd" stroke="#9a32cd" points="68.0001,-68.2223 71.5,-78.2223 75.0001,-68.2224 68.0001,-68.2223"/>
<text text-anchor="middle" x="87" y="-52" font-family="Helvetica,sans-Serif" font-size="10.00" fill="#000000"> Proxy</text>
</g>
<!-- Node3 -->
<g id="node3" class="node">
<title>Node3</title>
<g id="a_node3"><a xlink:title="STL class. ">
<polygon fill="#ffffff" stroke="#bfbfbf" points="12,-135.5 12,-154.5 131,-154.5 131,-135.5 12,-135.5"/>
<text text-anchor="middle" x="71.5" y="-142.5" font-family="Helvetica,sans-Serif" font-size="10.00" fill="#000000">basic_string&lt; char &gt;</text>
</a>
</g>
</g>
<!-- Node3&#45;&gt;Node2 -->
<g id="edge2" class="edge">
<title>Node3&#45;&gt;Node2</title>
<path fill="none" stroke="#191970" d="M71.5,-125.2342C71.5,-115.8491 71.5,-105.0651 71.5,-97.5265"/>
<polygon fill="#191970" stroke="#191970" points="68.0001,-125.3307 71.5,-135.3307 75.0001,-125.3308 68.0001,-125.3307"/>
</g>
</g>
</svg>
